<svg width="507" height="134" viewBox="0 0 507 134" fill="none" xmlns="http://www.w3.org/2000/svg">
<path d="M315.75 25.7875C315.75 26.3575 315.75 26.8275 315.75 27.3075C315.75 40.1475 315.75 52.9875 315.81 65.8175C315.81 67.1975 316.06 68.6075 316.44 69.9375C317.39 73.2775 319.81 75.1375 323.11 75.7575C326.46 76.3775 329.86 76.4975 333.21 75.7075C337.48 74.7075 339.97 72.0475 340.43 67.6675C340.71 64.9375 340.64 62.1675 340.63 59.4175C340.61 55.2575 340.49 51.1075 340.46 46.9475C340.44 43.6675 340.48 40.3875 340.51 37.1075C340.54 33.7075 340.63 30.3175 340.63 26.9175C340.63 26.0375 340.98 25.8575 341.76 25.8675C345.72 25.8975 349.68 25.8975 353.64 25.8675C354.48 25.8675 354.73 26.1275 354.73 26.9575C354.69 36.9975 354.65 47.0375 354.66 57.0675C354.66 59.8975 354.88 62.7375 354.9 65.5675C354.96 73.1075 351.47 78.6975 345.28 82.7275C340.58 85.7875 335.3 86.5675 329.83 86.6875C323.44 86.8275 317.21 86.0975 311.39 83.2975C305.44 80.4475 302.12 75.7775 302.01 69.0275C301.89 61.2375 301.71 53.4475 301.64 45.6575C301.58 39.0675 301.63 32.4775 301.63 25.7775H315.76L315.75 25.7875Z" fill="#F7A659"/>
<path d="M0 85.6774C0.74 83.3474 1.42 81.1874 2.11 79.0374C7.21 63.2474 12.31 47.4574 17.42 31.6774C17.73 30.7374 18.09 29.7974 18.55 28.9174C20.07 25.9674 22.38 24.9474 25.68 25.2674C27.96 25.4974 30.3 25.5074 32.58 25.2874C35.68 24.9874 38.09 25.8874 39.46 28.7074C40.56 30.9474 41.33 33.3574 42.12 35.7374C46.81 49.7774 51.45 63.8474 56.17 77.8774C56.89 80.0174 57.98 82.0474 58.89 84.1274C59.06 84.5174 59.22 84.9174 59.43 85.4374C55.04 85.4374 50.78 85.4574 46.52 85.3974C46.25 85.3974 45.87 84.9074 45.75 84.5674C44.2 80.2474 42.7 75.9174 41.18 71.5974C41.1 71.3674 41 71.1474 40.9 70.8874H17.75C17.18 72.5374 16.59 74.2574 16.01 75.9774C15.02 78.9274 14.06 81.8874 13.03 84.8274C12.91 85.1774 12.44 85.6374 12.13 85.6474C8.17 85.7074 4.22 85.6874 0.0199995 85.6874L0 85.6774ZM29.32 36.1474C29.23 36.1474 29.14 36.1474 29.06 36.1474C26.55 44.4374 24.04 52.7174 21.51 61.0774H37.09C34.48 52.7074 31.91 44.4274 29.33 36.1574L29.32 36.1474Z" fill="#2B3A7A"/>
<path d="M502.66 49.7074V59.2074H478.81V76.1874H480.26C488.46 76.1874 496.66 76.2074 504.86 76.1574C506.03 76.1574 506.35 76.4874 506.32 77.6374C506.24 80.1474 506.29 82.6674 506.29 85.3074C505.78 85.3374 505.35 85.3974 504.93 85.3974C491.93 85.3974 478.93 85.3974 465.93 85.4174C464.9 85.4174 464.57 85.1774 464.57 84.0874C464.6 65.0474 464.59 46.0074 464.6 26.9674C464.6 26.5774 464.64 26.1874 464.66 25.7374H505.32V34.7574H478.78V49.6974H502.67L502.66 49.7074Z" fill="#F7A559"/>
<path d="M410.8 82.4075C411.75 79.3775 412.67 76.4675 413.61 73.4875C417.23 74.2575 420.73 75.0275 424.24 75.7375C425.92 76.0775 427.62 76.3075 429.32 76.5775C433.93 77.3075 437.1 75.0675 439.49 71.4675C441.69 68.1475 440.81 64.6975 437.14 63.1575C433.85 61.7675 430.36 60.8375 426.92 59.8075C423.5 58.7775 420.12 57.7075 417.31 55.3675C413.05 51.8175 411.9 47.0175 412.06 41.7975C412.33 32.9775 417.59 27.1475 426.67 25.2275C433.77 23.7275 440.72 24.4975 447.63 26.2675C448.44 26.4775 449.25 26.6875 450.06 26.9275C451.85 27.4475 452.86 28.7575 452.53 30.6075C452.06 33.2275 451.35 35.7975 450.7 38.5475C448.38 37.8575 446.26 37.1775 444.12 36.5975C439.88 35.4475 435.6 34.7075 431.24 35.8075C428.65 36.4575 426.8 38.1475 425.71 40.5675C424.61 43.0175 425.68 45.6775 428.46 47.0075C430.39 47.9375 432.48 48.5575 434.53 49.2075C438.87 50.5775 443.29 51.7075 447.31 53.9275C453.15 57.1475 455.42 61.7275 454.78 68.5775C454.65 69.9675 454.44 71.3475 454.26 72.7375C453.69 77.1775 451.29 80.3675 447.38 82.3675C440.81 85.7275 433.84 86.9975 426.48 86.2675C421.16 85.7375 416.07 84.3075 410.81 82.4175L410.8 82.4075Z" fill="#F7A658"/>
<path d="M110.29 29.5974C109.06 32.5374 107.87 35.3974 106.66 38.2974C104.59 37.5474 102.6 36.7374 100.56 36.1174C95.97 34.7274 91.29 34.0774 86.68 35.8374C81.4 37.8574 77.07 41.1774 75.49 46.8274C73.8 52.8574 73.79 59.1174 75.85 65.0274C77.74 70.4574 82.05 73.7474 87.62 75.1274C92.39 76.3074 97.15 75.5374 101.86 74.5474C103.81 74.1374 105.73 73.6374 107.78 73.1474C108.72 75.8474 109.67 78.5074 110.54 81.1874C110.61 81.4174 110.22 81.9974 109.93 82.1074C107.27 83.1474 104.65 84.4474 101.88 85.0374C92.98 86.9374 84.19 86.5074 75.65 83.1074C70.58 81.0874 66.87 77.5674 64.72 72.5774C59.79 61.1574 59.72 49.7074 64.96 38.3674C67.62 32.6174 72.25 28.9374 78.15 26.8774C88.28 23.3374 98.28 23.5674 108.04 28.3174C108.79 28.6774 109.49 29.1374 110.28 29.5974H110.29Z" fill="#2B3A7A"/>
<path d="M130.29 34.9375H112.77V25.8075H161.32V34.7475H144.24V85.4275H130.29V34.9375Z" fill="#293778"/>
<path d="M406.42 76.1174V85.3674H367.34C367.32 84.9074 367.28 84.4774 367.28 84.0574C367.28 65.1474 367.28 46.2274 367.25 27.3174C367.25 26.1574 367.56 25.8374 368.71 25.8574C372.19 25.9374 375.67 25.8874 379.15 25.8874H380.56V76.1174H406.41H406.42Z" fill="#F7A658"/>
<path d="M168.99 25.6475H182.26V85.4575H168.99V25.6475Z" fill="#2C3A7A"/>
<path d="M194.19 122.967C194.04 124.157 193.99 125.367 193.71 126.527C192.46 131.847 188.38 133.677 183.19 132.887C179.7 132.347 177.62 130.157 176.76 126.777C176.12 124.257 176.1 121.707 176.76 119.197C177.63 115.877 179.75 113.827 183.16 113.177C188.42 112.177 192.61 114.677 193.72 119.537C193.98 120.657 194.03 121.827 194.18 122.987L194.19 122.967ZM191.39 123.157C191.22 121.927 191.16 120.877 190.91 119.877C190.24 117.187 188.27 115.647 185.47 115.517C182.79 115.397 180.58 116.747 179.75 119.177C178.87 121.747 178.87 124.367 179.83 126.917C180.72 129.297 182.8 130.617 185.33 130.547C187.96 130.477 189.89 129.157 190.68 126.707C191.06 125.507 191.18 124.217 191.39 123.147V123.157Z" fill="#2D3C7C"/>
<path d="M220.15 132.738H217.47V113.057C220.29 113.217 223.14 113.167 225.91 113.587C228.59 113.987 229.89 115.667 230.18 118.207C230.49 120.887 229.49 122.827 227.16 124.057C226.99 124.147 226.83 124.237 226.57 124.367C228.01 127.137 229.42 129.848 230.94 132.768C229.92 132.768 229.06 132.828 228.22 132.738C227.93 132.708 227.59 132.327 227.43 132.027C226.34 129.987 225.27 127.937 224.26 125.857C223.88 125.087 223.44 124.688 222.53 124.798C221.79 124.888 221.03 124.817 220.15 124.817V132.747V132.738ZM220.15 122.497C221.82 122.397 223.37 122.387 224.9 122.177C226.34 121.977 227.22 120.927 227.4 119.507C227.6 117.937 227.02 116.627 225.76 116.107C223.95 115.367 222.05 115.608 220.15 115.628V122.497Z" fill="#2E3D7C"/>
<path d="M303.78 124.358C305.24 127.158 306.65 129.868 308.16 132.768C307.17 132.768 306.31 132.828 305.47 132.738C305.18 132.708 304.84 132.338 304.68 132.048C303.57 129.978 302.45 127.908 301.43 125.788C301.06 125.008 300.61 124.728 299.78 124.798C299 124.868 298.21 124.808 297.31 124.808V132.718H294.69V113.078C297.48 113.218 300.24 113.158 302.94 113.528C305.6 113.898 307.1 115.618 307.36 117.888C307.7 120.978 306.78 122.818 304.22 124.108C304.11 124.158 304.01 124.228 303.78 124.358ZM297.35 122.508C299.06 122.398 300.66 122.388 302.22 122.148C303.65 121.928 304.47 120.838 304.6 119.388C304.75 117.798 304.15 116.358 302.85 116.078C301.07 115.688 299.21 115.638 297.35 115.438V122.508Z" fill="#2C3B7B"/>
<path d="M253.83 123.917H243.86V132.717H241.21V113.297H243.86V121.367H253.75V113.277H256.39V132.697H253.83V123.917Z" fill="#2D3C7B"/>
<path d="M210.11 113.237H212.72C212.75 113.597 212.79 113.937 212.79 114.287C212.79 118.207 212.79 122.127 212.79 126.047C212.79 130.307 210.2 132.997 205.93 132.957C204.25 132.947 202.48 132.707 200.92 132.127C198.53 131.237 197.55 129.107 197.51 126.667C197.43 122.227 197.49 117.797 197.49 113.267H200.21C200.21 113.667 200.21 114.087 200.21 114.507C200.21 118.227 200.26 121.947 200.19 125.667C200.12 129.317 201.95 130.697 205.59 130.487C209.01 130.287 210.11 128.937 210.11 125.477C210.11 121.437 210.11 117.407 210.11 113.237Z" fill="#2D3C7B"/>
<path d="M120.62 130.327V132.697H108.82V113.287H120.32V115.617H111.52V121.317H119.36V123.727H111.54V130.327H120.61H120.62Z" fill="#2B3A7A"/>
<path d="M405.87 113.267H417.4V115.537H408.63V121.337H416.52V123.767H408.59V130.337H417.69V132.707H405.87V113.267Z" fill="#2C3B7B"/>
<path d="M277.5 132.727H274.78C275.59 130.347 276.37 128.027 277.16 125.717C278.47 121.907 279.82 118.117 281.08 114.287C281.37 113.397 281.78 113.137 282.68 113.157C284.82 113.227 284.82 113.177 285.54 115.197C287.48 120.637 289.43 126.087 291.37 131.527C291.5 131.897 291.62 132.267 291.77 132.707H289.14C288.59 131.177 287.99 129.657 287.49 128.097C287.26 127.387 286.95 127.067 286.16 127.097C284.24 127.157 282.32 127.157 280.4 127.097C279.6 127.067 279.28 127.377 279.06 128.087C278.58 129.637 278.02 131.167 277.49 132.707L277.5 132.727ZM286.29 124.667C285.27 121.737 284.29 118.927 283.21 115.847C282.17 118.947 281.23 121.757 280.25 124.667H286.28H286.29Z" fill="#2D3C7C"/>
<path d="M346.47 132.737H343.83C343.27 131.167 342.67 129.607 342.15 128.017C341.93 127.337 341.59 127.087 340.87 127.107C338.95 127.157 337.03 127.167 335.11 127.107C334.34 127.087 333.98 127.327 333.75 128.067C333.28 129.627 332.71 131.157 332.18 132.717H329.45C329.93 131.297 330.39 129.937 330.86 128.567C332.49 123.817 334.14 119.067 335.74 114.307C336.02 113.467 336.39 113.127 337.33 113.157C339.49 113.237 339.49 113.177 340.24 115.297C342.18 120.747 344.13 126.187 346.08 131.637C346.2 131.967 346.31 132.307 346.46 132.737H346.47ZM337.9 115.857C336.86 118.957 335.9 121.797 334.94 124.647H340.96C339.95 121.737 338.97 118.937 337.9 115.857Z" fill="#2D3C7C"/>
<path d="M273.17 113.277V115.577H264.26V121.307H272.18V123.777H264.24V130.327H273.39V132.697H261.58V113.267H273.16L273.17 113.277Z" fill="#2B3A7A"/>
<path d="M386 113.227H388.88C390.72 118.577 392.55 123.917 394.49 129.557C395.22 127.387 395.85 125.487 396.5 123.597C397.51 120.657 398.61 117.737 399.51 114.757C399.89 113.497 400.46 112.947 401.76 113.177C402.1 113.237 402.45 113.217 402.95 113.247C400.71 119.787 398.51 126.227 396.3 132.707H392.66C390.46 126.267 388.26 119.827 386.01 113.227H386Z" fill="#2E3D7C"/>
<path d="M136.01 132.697H124.17V113.287H135.72V115.557H126.93V121.357H134.8V123.707H126.92V130.307H136V132.697H136.01Z" fill="#2A397A"/>
<path d="M142.23 124.898V132.668H139.61V113.408C142.29 113.408 144.94 113.158 147.53 113.468C150.62 113.848 152.17 116.078 152.08 119.218C151.99 122.138 150.25 124.168 147.29 124.578C145.68 124.798 144.03 124.788 142.24 124.888L142.23 124.898ZM142.27 122.388C143.51 122.388 144.63 122.408 145.74 122.388C146.13 122.388 146.53 122.288 146.92 122.188C148.46 121.798 149.23 120.728 149.23 119.008C149.23 117.278 148.49 116.088 146.93 115.838C145.42 115.598 143.86 115.628 142.27 115.528V122.398V122.388Z" fill="#2C3B7B"/>
<path d="M361.51 129.367C361.82 130.097 362.12 130.777 362.41 131.447C356.22 135.717 348.15 132.107 347.4 124.787C347.24 123.257 347.26 121.647 347.54 120.147C348.53 114.917 353.12 112.057 358.54 113.217C359.81 113.487 361.02 114.007 362.41 114.467C361.95 115.367 361.6 116.057 361.27 116.697C359.98 116.327 358.78 115.867 357.54 115.667C353.77 115.037 350.86 117.077 350.31 120.867C350.08 122.417 350.1 124.077 350.39 125.617C351.09 129.327 354.28 131.117 358.38 130.267C359.39 130.057 360.37 129.707 361.5 129.377L361.51 129.367Z" fill="#2E3D7C"/>
<path d="M159.3 113.197C160.32 113.197 161.08 113.117 161.81 113.237C162.15 113.287 162.52 113.677 162.71 114.017C164.03 116.387 165.3 118.777 166.58 121.167C166.74 121.467 166.91 121.767 167.16 122.227C168.05 120.547 168.86 119.017 169.68 117.477C170.09 116.707 170.65 115.977 170.93 115.167C171.6 113.237 172.94 112.827 174.89 113.337C174.69 113.707 174.51 114.077 174.3 114.427C172.51 117.547 170.7 120.647 168.96 123.787C168.65 124.347 168.47 125.047 168.45 125.697C168.39 128.007 168.43 130.317 168.43 132.707H165.78C165.78 130.417 165.83 128.157 165.75 125.887C165.72 125.097 165.52 124.227 165.14 123.537C163.29 120.147 161.34 116.807 159.29 113.207L159.3 113.197Z" fill="#2E3D7C"/>
<path d="M317.61 132.717H314.8V115.627H308.88V113.277H323.16V115.537H317.61V132.717Z" fill="#2A397A"/>
<path d="M377.61 113.287V115.607H371.96V132.717H369.27V115.627H363.33V113.287H377.61Z" fill="#2A397A"/>
<path d="M97.7 122.187C100.47 125.687 103.2 129.137 106.07 132.757C104.95 132.757 104.04 132.797 103.14 132.737C102.83 132.717 102.46 132.517 102.26 132.267C99.61 128.967 96.99 125.647 94.29 122.237C96.27 119.947 98.22 117.687 100.16 115.427C100.29 115.277 100.46 115.147 100.55 114.977C101.59 113.097 103.24 112.867 105.31 113.317C102.75 116.287 100.25 119.197 97.69 122.177L97.7 122.187Z" fill="#2E3D7C"/>
<path d="M380.49 113.247H383.1V132.717H380.49V113.247Z" fill="#384682"/>
<path d="M91.1801 113.247H93.7101V132.697H91.1801V113.247Z" fill="#2A397A"/>
<path d="M281.07 49.4975C279.97 50.8175 278.86 52.1275 277.71 53.4975C277.46 53.3375 277.22 53.2175 277.03 53.0375C272.18 48.5675 267.3 44.1275 262.51 39.6075C253.84 31.4375 245.27 23.1775 236.56 15.0475C233.06 11.7875 228.94 9.39746 224.55 7.47746C217.49 4.39746 210.97 5.49746 204.93 10.0075C196.99 15.9375 194.26 26.1675 198.46 34.7875C199.49 36.8975 201.01 38.8875 202.7 40.5275C212.33 49.8875 222.1 59.1075 231.78 68.4075C236.48 72.9175 241.11 77.5075 245.77 82.0675C245.91 82.2075 246.03 82.3575 246.21 82.5575C245 83.9675 243.82 85.3575 242.55 86.8475C241.94 86.2875 241.38 85.7975 240.85 85.2875C231.12 75.9175 221.38 66.5575 211.66 57.1675C206.57 52.2475 201.58 47.2275 196.44 42.3775C193.37 39.4775 191.61 35.9775 190.88 31.8875C189.87 26.2075 190.26 20.6775 192.62 15.3475C194.06 12.0975 196.69 9.84746 199.23 7.53746C203.42 3.72746 208.16 0.967463 213.9 0.247463C221.06 -0.652537 227.68 0.927463 233.59 4.99746C236.81 7.20746 239.73 9.84746 242.78 12.2875C243.97 13.5075 245.16 14.7175 246.35 15.9375C247.4 16.8175 248.46 17.6975 249.51 18.5775C251.03 19.9975 252.55 21.4175 254.07 22.8375C255.08 23.7975 256.08 24.7675 257.09 25.7275C258.3 27.1975 259.51 28.6675 260.72 30.1375C261.7 30.8775 262.67 31.6175 263.65 32.3475C264.86 33.5875 266.06 34.8175 267.27 36.0575C268.32 36.7875 269.37 37.5075 270.42 38.2375C271.95 39.6675 273.48 41.1075 275.01 42.5375C276.01 43.3375 277.02 44.1275 278.02 44.9275C279.04 46.4475 280.05 47.9675 281.07 49.4875V49.4975Z" fill="#37437F"/>
<path d="M253.5 75.0375C252.74 76.0075 251.99 77.0874 251.12 78.0675C249.81 79.5375 248.61 79.6174 247.07 78.2674C245.6 76.9774 244.21 75.5874 242.79 74.2374C231.97 63.9274 221.13 53.6274 210.33 43.2874C208.02 41.0774 205.57 38.9374 203.69 36.3974C199.67 30.9674 198.82 24.8774 201.99 18.8074C205.18 12.6874 210.55 9.58745 217.47 9.40745C222.18 9.27745 226.23 11.0474 229.63 14.2274C236.41 20.5574 243.11 26.9674 249.87 33.3074C257.86 40.7974 265.87 48.2574 273.88 55.7274C274.05 55.8874 274.26 56.0174 274.56 56.2575C272.95 57.5174 271.46 58.6774 269.82 59.9674C267.66 57.9375 265.54 55.9474 263.43 53.9474C251.07 42.2374 238.74 30.4874 226.35 18.8174C221.46 14.2074 213.8 14.1474 209.39 18.5274C204.86 23.0174 204.88 29.9775 209.62 34.6075C216.02 40.8675 222.53 47.0074 229.03 53.1674C235.5 59.2974 241.98 65.4174 248.53 71.4574C249.98 72.7974 251.74 73.7874 253.5 75.0474V75.0375Z" fill="#35427F"/>
<path d="M267.42 62.4274C266.1 63.8274 264.84 65.1574 263.5 66.5774C259.72 63.2774 255.88 60.1374 252.29 56.7374C243.89 48.8074 235.61 40.7474 227.29 32.7374C225.3 30.8274 223.28 28.9374 221.39 26.9374C220.13 25.6074 218.79 24.9974 216.93 25.6474C216.85 26.7874 217.18 27.7374 218.06 28.6674C230.16 41.2874 243.17 52.9574 255.92 64.8974C257.55 66.4274 259.18 67.9574 260.86 69.5274C259.51 70.7974 258.2 72.0274 256.7 73.4374C254.23 71.3374 251.5 69.1974 248.98 66.8374C237.18 55.7574 225.45 44.5974 213.68 33.4774C212.03 31.9174 210.54 30.2674 209.94 28.0174C208.57 22.8774 213.58 17.8274 218.96 18.8674C221.21 19.3074 222.98 20.5274 224.6 22.0674C235.3 32.2774 246.01 42.4874 256.74 52.6574C259.9 55.6574 263.16 58.5474 266.37 61.4874C266.69 61.7774 267.01 62.0674 267.41 62.4374L267.42 62.4274Z" fill="#33407E"/>
<path d="M281.07 49.4974C280.05 47.9774 279.04 46.4574 278.02 44.9374C279.39 43.5374 280.84 42.2174 282.12 40.7374C286.22 35.9974 288.53 30.5774 287.93 24.1874C287.38 18.3374 284.66 13.6374 279.99 10.1374C272.93 4.83744 263 4.50744 255.21 9.41744C252.12 11.3674 249.29 13.7574 246.34 15.9374C245.15 14.7174 243.96 13.5074 242.77 12.2874C247.51 5.91744 253.73 1.89745 261.58 0.477445C273.8 -1.72255 286.54 3.70745 292 16.2074C293.42 19.4674 295.03 22.6874 295.15 26.3174C295.2 27.9174 295.13 29.6574 294.58 31.1374C292.43 36.9574 289.56 42.3874 284.87 46.6274C283.69 47.6974 282.33 48.5474 281.05 49.5074L281.07 49.4974Z" fill="#F3A863"/>
<path d="M275 42.5374C273.47 41.1074 271.94 39.6674 270.41 38.2374C272.28 36.6274 274.32 35.1774 275.98 33.3774C278.51 30.6374 279.41 27.3174 278.36 23.6174C275.89 14.9774 265.6 13.0674 259.43 17.8974C257.52 19.3874 255.85 21.1774 254.07 22.8274C252.55 21.4074 251.03 19.9874 249.51 18.5674C251.72 16.8674 253.92 15.1474 256.15 13.4674C262.52 8.66741 269.43 8.23741 276.02 12.1974C284.5 17.2974 286.87 27.8974 281.12 35.8274C279.35 38.2674 277.06 40.3174 275 42.5474V42.5374Z" fill="#F3A863"/>
<path d="M257.08 25.7275C258.45 24.2775 259.75 22.7475 261.21 21.3875C264.64 18.2075 270.41 18.6475 273.31 22.2175C275.13 24.4575 275.26 27.0175 273.49 29.6275C272.62 30.9075 271.52 32.0275 270.43 33.1475C269.43 34.1775 268.32 35.0975 267.25 36.0575C266.04 34.8175 264.84 33.5875 263.63 32.3475C263.87 31.8875 264 31.3375 264.35 30.9975C265.12 30.2575 266.03 29.6575 266.82 28.9275C268.16 27.7075 268.27 26.7575 267.33 25.0475C265.11 26.7475 262.9 28.4375 260.69 30.1275C259.48 28.6575 258.27 27.1875 257.06 25.7175L257.08 25.7275Z" fill="#F2A761"/>
</svg>
