<svg width="68" height="84" viewBox="0 0 68 84" fill="none" xmlns="http://www.w3.org/2000/svg">
<path d="M8.875 84C6.57187 84 4.60096 83.1782 2.96225 81.5346C1.32354 79.891 0.502792 77.9128 0.5 75.6V8.4C0.5 6.09 1.32075 4.1132 2.96225 2.4696C4.60375 0.826 6.57467 0.0028 8.875 0H59.125C61.4281 0 63.4004 0.8232 65.0419 2.4696C66.6834 4.116 67.5028 6.0928 67.5 8.4V75.6C67.5 77.91 66.6806 79.8882 65.0419 81.5346C63.4032 83.181 61.4309 84.0028 59.125 84H8.875ZM8.875 75.6H59.125V8.4H8.875V75.6ZM13.0625 67.2H54.9375L40.4906 48.3L30.8594 60.9L24.3687 52.5L13.0625 67.2Z" fill="#0C2C7E"/>
</svg>
