<svg width="64" height="65" viewBox="0 0 64 65" fill="none" xmlns="http://www.w3.org/2000/svg">
<path fill-rule="evenodd" clip-rule="evenodd" d="M32 64.5251C36.2023 64.5251 40.3635 63.6974 44.2459 62.0893C48.1283 60.4811 51.6559 58.124 54.6274 55.1526C57.5989 52.1811 59.956 48.6534 61.5641 44.771C63.1723 40.8886 64 36.7274 64 32.5251C64 28.3228 63.1723 24.1617 61.5641 20.2793C59.956 16.3969 57.5989 12.8692 54.6274 9.89773C51.6559 6.92625 48.1283 4.56915 44.2459 2.961C40.3635 1.35285 36.2023 0.525146 32 0.525146C23.5131 0.525147 15.3737 3.89656 9.37258 9.89773C3.37142 15.8989 0 24.0382 0 32.5251C0 41.0121 3.37142 49.1514 9.37258 55.1526C15.3737 61.1537 23.5131 64.5251 32 64.5251ZM27.6729 18.2674L47.7404 29.4176C48.2945 29.7256 48.7561 30.1761 49.0774 30.7225C49.3988 31.2689 49.5683 31.8913 49.5683 32.5251C49.5683 33.159 49.3988 33.7814 49.0774 34.3278C48.7561 34.8742 48.2945 35.3247 47.7404 35.6327L27.6729 46.7829C27.0231 47.1441 26.2902 47.3292 25.5469 47.32C24.8035 47.3107 24.0755 47.1074 23.4349 46.7302C22.7943 46.3529 22.2634 45.8149 21.8948 45.1693C21.5262 44.5237 21.3326 43.793 21.3333 43.0496V22.0007C21.3326 21.2573 21.5262 20.5266 21.8948 19.881C22.2634 19.2354 22.7943 18.6974 23.4349 18.3201C24.0755 17.9429 24.8035 17.7396 25.5469 17.7303C26.2902 17.7211 27.0231 17.9062 27.6729 18.2674Z" fill="#0C2C7E"/>
</svg>
