<svg width="80" height="85" viewBox="0 0 80 85" fill="none" xmlns="http://www.w3.org/2000/svg">
<path d="M61.3637 39.765C75.3677 39.1713 79.1297 24.062 79.1297 15.98C79.1297 15.1168 78.4305 14.4175 77.5672 14.4175H69.7039C68.8407 14.4175 68.1414 15.1168 68.1414 15.98C68.1414 16.8433 68.8407 17.5425 69.7039 17.5425H75.9383C75.6063 22.2105 73.6102 35.5585 61.9653 36.5935C62.0005 36.3318 62.0552 36.0779 62.0825 35.8084C62.0825 35.7928 62.0864 35.7732 62.0864 35.7576L64.7075 1.6836C64.7427 1.25001 64.5903 0.82032 64.2974 0.5C64.0044 0.17969 63.5864 0 63.1529 0H15.9769C15.5433 0 15.1253 0.17969 14.8324 0.5C14.5355 0.82031 14.3871 1.24609 14.4222 1.6836L17.0472 35.8086C17.0785 36.0742 17.1292 36.3281 17.1644 36.5938C5.5194 35.5586 3.5234 22.2108 3.1914 17.5428H9.4258C10.2891 17.5428 10.9883 16.8435 10.9883 15.9803C10.9883 15.117 10.2891 14.4178 9.4258 14.4178H1.5625C0.69922 14.4178 0 15.117 0 15.9803C0 24.0623 3.7617 39.1683 17.766 39.7653C19.7387 47.7731 24.7777 53.8673 31.454 56.5893C31.454 56.5932 31.4501 56.5971 31.4501 56.6049V63.4994C31.4501 66.6283 29.5712 69.4017 26.6649 70.5658L19.5008 73.4291C15.9383 73.6439 13.0985 76.5775 13.0985 80.1908V82.8119C13.0985 83.6752 13.7977 84.3744 14.661 84.3744H64.458C65.3213 84.3744 66.0205 83.6752 66.0205 82.8119V80.1908C66.0205 76.5775 63.1807 73.64 59.6182 73.4291L52.4541 70.5658C49.5479 69.4017 47.6689 66.6283 47.6689 63.4994V56.6049C47.6689 56.601 47.665 56.5971 47.665 56.5893C54.3447 53.8627 59.38 47.7729 61.353 39.7653L61.3637 39.765ZM51.1447 73.39H46.1174C45.2542 73.39 44.5549 74.0893 44.5549 74.9525C44.5549 75.8158 45.2542 76.515 46.1174 76.515H59.2224C61.2497 76.515 62.9021 78.1673 62.9021 80.1947V81.2533H16.2301V80.1947C16.2301 78.1674 17.8824 76.515 19.9098 76.515H33.0148C33.8781 76.515 34.5773 75.8158 34.5773 74.9525C34.5773 74.0893 33.8781 73.39 33.0148 73.39H27.9875C31.9914 71.7103 34.5773 67.8548 34.5773 63.4994V57.5736C36.1789 57.9525 37.839 58.1713 39.5656 58.1713C41.2922 58.1713 42.9562 57.9525 44.5539 57.5736V63.4994C44.5539 67.8549 47.1408 71.7103 51.1447 73.39ZM39.5667 55.042C29.2547 55.042 21.4537 47.1748 20.1567 35.519L17.6645 3.12804H61.4655L58.9733 35.491C57.6647 47.186 49.8678 55.042 39.5633 55.042H39.5667ZM50.8827 22.48L44.4569 21.5386L41.5819 15.6714C40.8202 14.1206 38.3124 14.1206 37.5507 15.6714L34.6757 21.5347L28.2538 22.4761C27.4023 22.5972 26.7069 23.1832 26.4413 23.9995C26.1718 24.8199 26.3866 25.7065 27.0038 26.3081L31.66 30.8745L30.5623 37.3237C30.4139 38.1753 30.7576 39.019 31.4608 39.5268C32.16 40.0308 33.0624 40.0932 33.8241 39.6948L39.5702 36.6557L45.3163 39.6948C45.6483 39.8706 46.0077 39.9565 46.3671 39.9565C46.828 39.9565 47.2889 39.812 47.6796 39.5268C48.3788 39.019 48.7226 38.1752 48.578 37.3237L47.4803 30.8706L52.1365 26.3042C52.7537 25.6988 52.9685 24.8159 52.699 23.9956C52.4334 23.1792 51.7381 22.5933 50.8904 22.4722L50.8827 22.48ZM44.703 29.2222C44.3358 29.5816 44.1718 30.0933 44.2577 30.6011L45.1952 36.105L40.2968 33.5152C39.8398 33.2731 39.2929 33.2731 38.8359 33.5152L33.9375 36.105L34.875 30.6011C34.961 30.0972 34.7969 29.5816 34.4297 29.2222L30.4492 25.316L35.9414 24.5114C36.4492 24.4371 36.8906 24.1168 37.1172 23.652L39.5664 18.6598L42.0156 23.652C42.2422 24.1129 42.6836 24.4332 43.1914 24.5114L48.6836 25.316L44.703 29.2222Z" fill="#FFA653"/>
</svg>
