<svg width="62" height="62" viewBox="0 0 62 62" fill="none" xmlns="http://www.w3.org/2000/svg">
<path d="M31 62C13.8787 62 0 48.1213 0 31C0 13.8818 13.8787 0 31 0C48.1213 0 62 13.8818 62 31C62 48.1213 48.1213 62 31 62ZM31 15.5C30.1778 15.5 29.3893 15.8266 28.808 16.408C28.2266 16.9893 27.9 17.7778 27.9 18.6V34.1C27.9 34.9222 28.2266 35.7107 28.808 36.292C29.3893 36.8734 30.1778 37.2 31 37.2C31.8222 37.2 32.6107 36.8734 33.192 36.292C33.7734 35.7107 34.1 34.9222 34.1 34.1V18.6C34.1 17.7778 33.7734 16.9893 33.192 16.408C32.6107 15.8266 31.8222 15.5 31 15.5ZM31 46.5C31.8222 46.5 32.6107 46.1734 33.192 45.592C33.7734 45.0107 34.1 44.2222 34.1 43.4C34.1 42.5778 33.7734 41.7893 33.192 41.208C32.6107 40.6266 31.8222 40.3 31 40.3C30.1778 40.3 29.3893 40.6266 28.808 41.208C28.2266 41.7893 27.9 42.5778 27.9 43.4C27.9 44.2222 28.2266 45.0107 28.808 45.592C29.3893 46.1734 30.1778 46.5 31 46.5Z" fill="#0C2C7E"/>
</svg>
