<svg width="64" height="64" viewBox="0 0 64 64" fill="none" xmlns="http://www.w3.org/2000/svg">
<path d="M32 0C40.4869 0 48.6263 3.37142 54.6274 9.37258C60.6286 15.3737 64 23.5131 64 32C64 40.4869 60.6286 48.6263 54.6274 54.6274C48.6263 60.6286 40.4869 64 32 64C23.5131 64 15.3737 60.6286 9.37258 54.6274C3.37142 48.6263 0 40.4869 0 32C0 23.5131 3.37142 15.3737 9.37258 9.37258C15.3737 3.37142 23.5131 0 32 0ZM28.0137 38.3131L20.9051 31.2C20.6503 30.9452 20.3478 30.743 20.0148 30.6051C19.6818 30.4672 19.325 30.3962 18.9646 30.3962C18.6042 30.3962 18.2473 30.4672 17.9143 30.6051C17.5814 30.743 17.2788 30.9452 17.024 31.2C16.5093 31.7147 16.2202 32.4127 16.2202 33.1406C16.2202 33.8684 16.5093 34.5665 17.024 35.0811L26.0754 44.1326C26.3295 44.3887 26.6318 44.592 26.9649 44.7307C27.298 44.8695 27.6552 44.9409 28.016 44.9409C28.3768 44.9409 28.734 44.8695 29.0671 44.7307C29.4002 44.592 29.7025 44.3887 29.9566 44.1326L48.6994 25.3851C48.9577 25.1314 49.1631 24.829 49.3039 24.4954C49.4447 24.1618 49.5181 23.8037 49.5197 23.4416C49.5214 23.0795 49.4514 22.7207 49.3137 22.3858C49.176 22.051 48.9734 21.7467 48.7175 21.4905C48.4617 21.2343 48.1576 21.0313 47.8229 20.8932C47.4882 20.7552 47.1295 20.6847 46.7674 20.686C46.4053 20.6872 46.0471 20.7602 45.7133 20.9006C45.3796 21.041 45.0769 21.2461 44.8229 21.504L28.0137 38.3131Z" fill="#70B464"/>
</svg>
