<svg width="118" height="252" viewBox="0 0 118 252" fill="none" xmlns="http://www.w3.org/2000/svg">
<path d="M65.5611 164.964C64.0227 167.803 62.3895 170.599 60.9711 173.499C58.6082 178.32 56.9308 183.374 55.9073 188.672C55.1618 192.529 54.113 196.358 52.363 199.893C49.6968 205.279 46.8222 210.561 44.0233 215.881C42.4912 218.794 40.9465 221.7 39.367 224.587C39.1269 225.027 38.6689 225.346 38.3119 225.721C37.9265 225.687 37.5127 225.725 37.1558 225.608C34.2274 224.641 31.3085 223.643 28.3896 222.657C28.4686 221.649 28.4465 220.623 28.6392 219.637C29.5458 215.006 30.9326 210.523 32.5689 206.091C34.9034 199.776 37.0547 193.389 39.1964 187.004C40.8423 182.092 42.0363 177.056 42.9145 171.948C43.5748 168.113 43.9349 164.202 44.9236 160.456C46.2283 155.512 47.9878 150.685 49.6115 145.826C50.8467 142.127 52.1797 138.459 53.456 134.772C53.5634 134.46 53.5981 134.125 53.6676 133.8C53.8887 133.55 54.2015 133.335 54.3152 133.045C54.928 131.468 55.5093 129.879 56.0621 128.277C56.1632 127.981 56.0779 127.62 56.0779 127.292C55.9768 127.282 55.8789 127.27 55.7778 127.26C55.026 129.273 54.2741 131.285 53.5255 133.294C52.9569 129.671 52.2019 126.06 51.8733 122.414C51.4816 118.061 51.4563 113.676 51.2731 109.304C51.3774 107.017 51.4785 104.733 51.5827 102.446C52.821 102.557 54.0625 102.762 55.3008 102.762C58.8767 102.759 62.4464 102.547 65.9749 101.906C66.3603 103.394 66.7457 104.882 67.1311 106.369C67.0805 106.467 67.049 106.584 66.9795 106.663C64.5313 109.39 63.7131 112.637 63.6878 116.229C63.6689 118.952 63.4541 121.681 63.1919 124.395C63.0592 125.782 62.9581 127.137 63.5362 128.413C64.2154 129.908 64.1238 131.452 63.9816 132.988C63.8363 134.555 64.0764 136.033 64.5881 137.492C64.6355 137.66 64.6829 137.827 64.7271 137.992C65.103 138.797 65.4158 139.644 65.8707 140.402C67.9777 143.94 71.0861 145.191 74.2861 144.96C76.1941 144.821 78.0895 144.483 79.988 144.234C80.942 148.347 81.6686 152.533 82.9101 156.557C84.2937 161.046 86.0596 165.428 87.8096 169.794C90.0714 175.433 91.5561 181.28 92.8482 187.194C94.0486 192.687 95.2774 198.178 96.4557 203.678C97.1822 207.08 97.8425 210.498 98.5059 213.916C98.5595 214.185 98.4142 214.491 98.3605 214.779C97.8772 214.889 97.4002 215.025 96.9137 215.107C93.6442 215.663 90.5958 216.791 87.838 218.658C87.5474 218.355 87.1589 218.102 86.982 217.742C84.0473 211.819 81.596 205.687 79.331 199.482C76.9049 192.836 74.5831 186.148 72.078 179.533C70.6502 175.758 68.9475 172.087 67.368 168.372C67.4533 168.265 67.5733 168.17 67.6207 168.047C68.2272 166.499 68.7832 164.929 69.4277 163.397C70.8839 159.944 72.3939 156.51 73.8628 153.06C74.3082 152.018 74.7031 150.95 75.1201 149.895C75.2875 149.617 75.4518 149.336 75.6192 149.058L75.3918 148.963C75.297 149.269 75.2054 149.579 75.1106 149.885C74.6431 150.549 74.1503 151.196 73.7112 151.882C73.0668 152.886 72.4982 153.942 71.8316 154.93C71.1935 155.872 70.6438 156.867 69.9836 157.802C68.3726 160.089 67.0268 162.566 65.5769 164.967L65.5611 164.964ZM56.8992 124.114C56.9719 124.174 57.0445 124.234 57.1172 124.294C57.2941 124.063 57.5784 123.855 57.6321 123.599C57.9575 122.057 58.425 120.509 58.4724 118.949C58.5419 116.709 58.3429 114.454 58.1565 112.211C58.0554 111.004 57.7553 109.81 57.5121 108.616C57.4805 108.461 57.2404 108.347 57.0982 108.211C57.0287 108.375 56.8771 108.549 56.8992 108.698C57.1741 110.53 57.5152 112.356 57.7585 114.191C58.027 116.204 58.147 118.225 57.7458 120.238C57.4868 121.533 57.1804 122.819 56.8961 124.111L56.8992 124.114Z" fill="#FFA653"/>
<path d="M79.9955 144.226C78.0938 144.475 76.2016 144.813 74.2936 144.952C71.0935 145.183 67.982 143.932 65.8781 140.394C65.4264 139.632 65.1136 138.789 64.7346 137.983C68.3642 136.571 71.9939 135.159 75.6267 133.747C75.5951 133.643 75.5666 133.542 75.535 133.437C75.0233 133.576 74.4957 133.671 74.0061 133.858C70.8661 135.055 67.7324 136.271 64.5956 137.481C64.0838 136.022 63.8437 134.543 63.9891 132.976C64.1312 131.441 64.2228 129.896 63.5436 128.402C62.9656 127.129 63.0666 125.77 63.1993 124.384C63.4615 121.67 63.6763 118.941 63.6953 116.217C63.7205 112.626 64.5387 109.375 66.9869 106.652C67.0596 106.573 67.0912 106.456 67.1385 106.358C67.3849 106.172 67.6313 105.988 67.8809 105.802C68.3674 105.704 68.8507 105.568 69.3403 105.515C70.4428 105.395 71.5706 105.145 72.6509 105.265C74.2051 105.439 75.3329 106.5 76.3722 107.615C76.5807 107.84 76.8681 107.988 77.1177 108.171C77.1777 108.086 77.2409 107.998 77.3009 107.912C76.1352 106.772 75.1591 105.404 73.4786 104.883C72.5983 104.611 72.1455 104.009 72.1202 103.076C74.4642 102.387 76.8428 102.002 79.2974 102.283C80.125 102.333 80.9558 102.387 81.7835 102.438C82.7501 102.296 83.0312 101.534 83.1355 100.757C83.2934 99.604 83.2145 98.4162 83.423 97.2758C83.8842 94.7517 85.2994 92.8563 87.5201 91.5706C90.4643 93.0111 93.4084 94.4421 96.3462 95.8921C97.9573 96.6882 99.5873 97.2158 101.375 96.5113C102.569 97.5032 103.89 98.3783 104.926 99.5124C106.518 101.253 108.309 102.634 110.435 103.641C111.38 104.09 112.337 104.649 113.054 105.388C113.695 106.052 114.04 107.018 114.463 107.874C114.646 108.241 114.652 108.696 114.829 109.065C116.077 111.675 115.423 114.36 115.174 117.026C114.867 116.48 114.532 115.946 114.261 115.383C112.138 110.977 109.51 106.889 106.468 103.066C106.006 102.488 105.466 101.97 104.964 101.424C104.888 101.48 104.815 101.541 104.74 101.597C104.866 101.853 104.958 102.138 105.128 102.356C105.848 103.272 106.616 104.153 107.324 105.079C110.088 108.699 112.444 112.562 114.28 116.742C114.558 117.374 114.984 117.942 115.344 118.539C115.275 119.32 115.202 120.1 115.133 120.88C115.022 120.808 114.889 120.754 114.81 120.656C114.04 119.711 113.37 118.663 112.492 117.829C110.378 115.819 108.129 113.956 106.013 111.95C102.841 108.942 99.8464 105.764 97.2876 102.204C96.9717 101.762 96.6274 101.341 96.2925 100.912C96.1757 101 96.0619 101.089 95.9451 101.18C96.3052 101.689 96.6306 102.229 97.0349 102.703C99.3409 105.404 101.546 108.209 104.019 110.749C106.654 113.453 109.544 115.908 112.331 118.464C113.585 119.613 114.482 121.003 115.152 122.558C115.24 122.763 115.515 122.886 115.704 123.044C115.739 123.531 115.925 124.068 115.783 124.494C114.472 128.452 113.105 132.392 111.752 136.334C109.813 136.044 107.88 135.671 105.927 135.484C103.305 135.235 100.668 135.153 98.0395 134.954C95.4933 134.764 93.0578 134.192 90.8339 132.856C89.1786 131.861 88.0508 130.411 87.2263 128.724C87.0368 128.339 87.3085 127.738 87.3401 127.233C87.3495 127.047 87.2706 126.854 87.2327 126.664C86.9073 125.126 85.8206 124.109 84.7687 123.069C83.7199 122.033 83.2397 120.785 82.946 119.329C82.5827 117.522 81.894 115.778 81.3096 114.022C81.218 113.744 80.9147 113.539 80.7094 113.298C80.6368 113.352 80.5609 113.406 80.4883 113.463C80.6241 113.75 80.7536 114.044 80.899 114.325C81.7708 115.996 82.2826 117.772 82.5005 119.642C82.6395 120.823 83.047 121.907 83.8494 122.81C84.4401 123.477 85.0245 124.15 85.6532 124.782C87.1 126.244 87.0779 128.497 85.5932 129.934C84.5317 130.964 83.1987 131.412 81.8182 131.776C81.2591 131.924 80.7031 132.082 80.144 132.237C80.1977 132.363 80.2482 132.487 80.3019 132.613C82.8733 132.161 85.3815 131.58 86.8346 129.147C87.3938 129.988 87.8487 130.932 88.5342 131.662C90.3948 133.636 92.7956 134.717 95.427 135.093C98.0837 135.472 100.781 135.563 103.457 135.807C104.891 135.936 106.319 136.11 107.75 136.271C109.061 136.42 110.353 136.938 111.692 136.473C111.348 137.873 110.388 138.678 109.052 138.982C106.177 139.639 103.302 140.33 100.393 140.801C97.7583 141.228 95.0511 141.221 92.426 141.679C88.2593 142.409 84.1369 143.366 79.9923 144.229L79.9955 144.226ZM71.9275 109.264C71.3336 109.397 70.686 109.527 70.0479 109.691C69.3814 109.865 68.7496 110.089 68.7528 110.967C68.7591 112.679 68.7528 114.388 68.7528 116.069C70.7397 115.418 72.7836 114.748 74.6253 114.145C73.7376 112.543 72.8373 110.91 71.9275 109.264ZM107.693 133.798L107.952 133.668C107.88 133.437 107.842 133.188 107.731 132.976C107.257 132.06 106.746 131.166 106.275 130.25C104.929 127.634 103.359 125.202 101.164 123.186C99.6884 121.831 98.2701 120.387 97.0096 118.836C94.6215 115.895 92.2933 112.888 89.2923 110.55C87.0652 108.816 84.6455 107.322 82.3047 105.733C82.2004 105.663 82.0172 105.71 81.8719 105.704C81.954 106.014 82.112 106.178 82.3015 106.282C86.7083 108.762 90.6664 111.826 93.8286 115.775C96.3968 118.982 99.183 121.961 102.089 124.842C102.639 125.385 103.166 125.985 103.558 126.649C104.774 128.711 105.915 130.815 107.093 132.897C107.27 133.21 107.488 133.501 107.69 133.801L107.693 133.798ZM81.278 111.008C81.9825 112.468 83.145 113.412 84.3233 114.328C86.9104 116.344 89.4755 118.372 91.4625 121.038C93.9423 124.368 95.645 128.029 96.4126 132.12C96.4442 132.284 96.5958 132.427 96.6906 132.581C96.8896 132.234 96.9401 131.953 96.8833 131.694C95.8345 126.93 93.8507 122.583 90.439 119.089C87.6939 116.277 84.6328 113.776 81.7076 111.144C81.6066 111.052 81.4265 111.052 81.2843 111.011L81.278 111.008ZM98.6933 116.688C99.0156 116.991 99.2999 117.263 99.5905 117.528C100.342 118.214 101.132 118.865 101.83 119.601C102.023 119.806 101.95 120.264 102.001 120.605C101.66 120.561 101.221 120.637 100.996 120.451C100.15 119.74 99.3662 118.95 98.5733 118.179C97.4424 117.083 96.3241 115.974 95.1838 114.887C95.0763 114.783 94.8584 114.796 94.691 114.752C94.7225 115.052 94.8173 115.181 94.931 115.295C96.0809 116.448 97.3003 117.541 98.3617 118.77C99.2525 119.8 100.162 120.735 101.467 121.199C102.222 121.468 102.56 121.253 102.588 120.441C102.598 120.147 102.566 119.806 102.427 119.557C101.634 118.154 100.317 117.333 98.9745 116.549C98.9492 116.533 98.8797 116.593 98.6965 116.685L98.6933 116.688ZM65.9381 118.422V123.256C66.8574 122.362 66.7563 118.972 65.9381 118.422Z" fill="#5595E7"/>
<path d="M65.2309 3.18191C65.629 2.86285 65.9986 2.4964 66.4313 2.23104C68.7089 0.841058 71.195 0.0860459 73.8549 0.00706967C78.5143 -0.131928 82.0871 1.7793 84.6869 5.6902C87.5079 9.92964 90.4141 14.1185 93.4057 18.2411C94.4702 19.7101 95.8475 20.961 97.168 22.2247C97.5755 22.6164 98.2452 22.7743 98.8201 22.9418C100.178 23.3398 101.565 23.6431 102.917 24.0601C104.254 24.4739 105.583 24.4644 106.948 24.3096C109.554 24.0095 112.021 23.2924 114.207 21.8266C115.117 21.2169 115.882 20.3892 116.712 19.6564C116.915 19.4794 117.11 19.2931 117.474 18.9582C117.559 19.4415 117.679 19.7416 117.657 20.0354C117.351 24.4139 116.264 28.527 113.62 32.1314C111.794 34.6239 109.649 36.7784 107.119 38.5601C105.122 39.9659 102.835 40.5345 100.488 40.882C96.3909 41.4885 92.4359 40.7809 88.6672 39.1761C85.4577 37.8114 82.5041 36.0139 80.5329 32.997C79.3799 31.2343 78.7134 29.2567 78.3027 27.2002C77.5066 23.204 76.6664 19.2141 75.984 15.1989C75.6492 13.234 74.7046 11.5945 73.7348 9.94544C73.1789 9.00088 72.5787 8.05317 71.8332 7.2634C71.4446 6.84957 70.6991 6.77375 70.1147 6.5463C69.9346 6.27778 69.7893 5.98083 69.5745 5.75022C68.3741 4.47712 66.8767 3.69368 65.2246 3.18191H65.2309ZM110.505 25.7975C106.601 29.6453 102.007 31.5123 96.6341 30.1096C91.2133 28.6944 88.1176 24.7866 86.7276 19.3183C85.4356 21.675 90.1741 28.0531 94.5303 29.9833C100.779 32.7506 108.088 29.8917 110.505 25.8007V25.7975ZM105.653 33.0254C105.735 33.1486 105.82 33.2687 105.902 33.3919C106.256 33.2308 106.642 33.1171 106.954 32.8991C108.063 32.1188 109.181 31.3448 110.233 30.4856C112.479 28.6533 114.002 26.284 115.063 23.6115C115.149 23.3935 115.101 23.1218 115.117 22.8754C115.029 22.8344 114.94 22.7964 114.849 22.7554C113.13 27.3802 110.012 30.7572 105.653 33.0223V33.0254ZM78.9471 8.67234C78.8271 8.70077 78.7039 8.7292 78.5838 8.75763C78.647 9.13672 78.7102 9.51265 78.7765 9.89173C78.9503 10.8458 79.1746 11.7935 79.2914 12.7538C79.5979 15.3411 79.7305 17.9536 80.1854 20.5125C80.4634 22.0699 81.2026 23.5451 81.7712 25.0425C81.8439 25.2352 82.1313 25.349 82.3209 25.4974C82.0081 24.3191 81.5217 23.3272 81.13 22.2973C79.9296 19.1288 79.9927 15.7612 79.62 12.4632C79.4778 11.1901 79.1746 9.93596 78.944 8.67234H78.9471ZM76.1578 5.96188C75.2796 4.40131 71.3846 3.41252 70.3453 4.46133C72.3923 4.50555 74.2877 4.75828 76.1578 5.96188Z" fill="#403829"/>
<path d="M40.7756 100.478C37.4113 97.6602 34.047 94.8423 30.6827 92.0245C31.4061 91.5569 32.1516 91.1178 32.8371 90.6029C33.1309 90.3818 33.5574 89.8416 33.4815 89.7152C33.0108 88.9412 33.7595 88.4232 33.7627 87.7977C33.7627 87.3364 33.5036 86.8752 33.3615 86.4172C33.6016 85.0935 33.2825 84.7302 31.7757 84.9293C31.1692 84.1679 30.5342 84.0795 29.5076 84.607C28.4935 85.1283 27.4732 85.6432 26.4592 86.1644C25.0945 86.8626 23.9857 86.6099 22.8896 85.4947C21.904 84.4901 20.7067 83.6909 19.6042 82.8C17.1624 80.7182 14.7268 78.6301 12.2723 76.5609C8.75007 73.5914 5.22467 70.6282 1.68664 67.6777C0.378832 66.5878 0.14191 65.1505 0.299858 63.593C0.555734 61.0974 1.53817 58.8513 2.88388 56.7727C5.2689 53.0955 8.46576 50.4861 12.8441 49.5605C14.3572 49.2415 15.6998 49.5258 16.9602 50.5999C24.2384 56.82 31.564 62.9833 38.8802 69.1624C39.9448 70.0628 41.0251 70.9441 42.0992 71.8318C41.9918 72.3468 41.8907 72.8585 41.777 73.3735C41.3284 75.4016 40.3302 77.297 40.3807 79.4483C40.3902 79.8653 40.2227 80.3613 39.9732 80.6993C38.9402 82.1019 38.7823 83.7099 38.7444 85.362C38.7286 86.0318 38.7064 86.6983 38.6875 87.368C37.8314 86.7015 36.9753 86.0381 36.1224 85.3684C31.2387 81.5238 26.3676 77.6666 21.4649 73.8442C19.5126 72.3215 17.6173 70.5998 15.109 70.0944C13.1568 69.6995 11.1446 69.5984 9.15441 69.4278C7.2622 69.2667 5.47739 68.8244 3.89159 67.7346C2.40056 66.711 1.87302 65.2042 1.77825 63.4888C1.77193 63.3498 1.95199 63.2013 2.04676 63.056C2.16364 63.176 2.32475 63.274 2.38793 63.4161C2.45111 63.5583 2.41952 63.7447 2.42899 63.9121C2.49849 65.1568 3.05763 66.0571 4.19801 66.6226C6.68411 67.8546 8.89538 67.1817 11.0245 65.7286C12.5408 64.6924 13.6938 63.3119 14.8469 61.9061C16.4232 59.9886 17.7531 57.9763 18.2459 55.4869C18.8461 52.4606 16.3726 49.6016 13.4 50.0028C11.5868 50.2461 9.89677 50.8747 8.32045 51.8224C5.78381 53.3451 4.23276 55.7112 2.74173 58.1563C1.73718 59.8022 1.336 61.6534 0.963239 63.4825C0.555734 65.4853 2.03413 67.6872 4.17274 68.9002C6.50721 70.2239 9.08176 70.2807 11.631 70.3913C14.1582 70.4987 16.48 71.1021 18.4923 72.6627C24.0584 76.9906 29.6087 81.3406 35.1684 85.6748C36.3499 86.5941 37.5534 87.4786 38.7507 88.3789V88.3694C38.7886 88.4326 38.8265 88.4927 38.8644 88.5558C38.9876 89.2666 38.9876 90.0248 39.2498 90.6787C40.526 93.8378 40.7471 97.1453 40.7787 100.491L40.7756 100.478Z" fill="#60525D"/>
<path d="M101.381 96.5134C99.5934 97.2178 97.9602 96.6903 96.3523 95.8942C93.4145 94.4442 90.4672 93.0131 87.5262 91.5726C86.0257 90.6881 84.541 89.7751 83.0152 88.9348C82.1528 88.4578 81.2209 88.104 80.3206 87.6965C78.9781 87.5227 77.6387 87.3521 76.2961 87.1784C75.1178 87.0236 73.9395 86.8656 72.7644 86.7108C71.4408 86.0569 70.1204 85.4061 68.7967 84.7522C68.7778 84.7301 68.762 84.708 68.743 84.689C67.5142 83.5707 67.8048 82.0291 67.8396 80.6707C67.8554 80.0263 68.3292 79.4292 67.8459 78.7153C67.6911 78.4878 67.8807 78.0298 67.9091 77.676C67.9375 77.3063 68.0291 76.9241 67.9723 76.5671C67.8143 75.6131 68.364 74.836 69.3369 74.7538C69.6434 74.7286 69.9498 74.7349 70.2562 74.7286C70.9606 74.9781 71.684 75.1835 72.3601 75.4899C73.5605 76.0332 74.347 75.6668 74.5966 74.3716C74.7387 73.6387 74.8556 72.8995 74.982 72.1603C75.1557 72.3845 75.3516 72.593 75.5001 72.8331C75.9771 73.5976 76.353 74.4411 76.9216 75.1266C77.8819 76.2797 78.9591 77.3348 79.9858 78.431C80.3649 78.8385 80.7439 79.2428 81.123 79.6504C81.9127 80.9614 83.0626 81.8838 84.4968 82.3103C85.972 82.7494 87.5104 82.9768 89.0204 83.2959C89.3995 83.9909 89.9586 83.4823 90.4388 83.5107C93.1776 83.6845 95.7553 84.37 98.0582 85.9211C98.2319 86.038 98.4499 86.0853 98.6489 86.1643C98.6994 86.0917 98.75 86.019 98.8005 85.9495C98.6015 85.7157 98.4372 85.4283 98.194 85.2545C97.7897 84.9639 97.3411 84.7269 96.8957 84.4963C94.4285 83.2169 91.7908 82.8126 89.0425 82.9926C88.1612 81.6374 87.2893 80.279 86.4016 78.9269C85.3339 77.3 84.2535 75.6763 83.1795 74.0525C81.9601 71.8412 80.7439 69.6267 79.5246 67.4154C79.5688 66.0791 79.5656 64.7397 79.6762 63.4097C79.7741 62.2503 79.891 61.072 80.1911 59.9537C81.0061 56.8926 83.8397 55.49 86.7933 56.6209C88.4297 57.2464 89.5858 58.4279 90.4135 59.9442C91.3201 61.609 92.2173 63.2833 93.086 64.9671C93.8789 66.4992 94.6339 68.0535 95.4046 69.5983C96.6398 72.2456 97.8749 74.8928 99.1038 77.5433C100.5 80.5475 101.918 83.5391 102.661 86.7961C103.198 89.1559 103.422 91.541 102.765 93.8913C102.506 94.8233 101.855 95.6446 101.381 96.5165V96.5134Z" fill="#FDA285"/>
<path d="M71.4405 29.014C71.1941 29.5668 70.9067 30.107 70.714 30.6756C70.5813 31.0673 70.4297 31.5443 70.5307 31.9171C71.2541 34.5897 72.0439 37.2464 72.8115 39.9095C68.8186 43.8962 65.985 48.5969 64.2255 53.9452C63.6884 55.5752 63.2272 57.2306 62.7281 58.8733C62.1627 59.3408 61.5783 59.7894 61.0381 60.2854C59.6229 61.5901 58.1382 62.7968 56.1322 62.9642C55.2066 63.0432 54.1389 63.1475 53.3429 62.7873C50.7051 61.5932 49.7701 58.4247 50.9705 56.4692C51.3906 55.7869 51.5896 54.9466 52.0856 54.34C53.4597 52.6594 53.8894 50.366 55.7658 48.9886C56.8493 48.1957 57.6422 47.0142 58.6436 46.0918C59.3796 45.4157 59.6829 44.6797 59.4807 43.7162C59.9482 43.3434 60.4158 42.9706 60.8833 42.5979C61.1518 42.2693 61.4203 41.9408 61.692 41.6122C61.8183 40.9804 61.9415 40.3486 62.0679 39.7168C65.0689 38.8102 67.2865 37.0411 68.3574 34.0179C67.5234 34.656 66.7874 35.4268 65.925 36.0018C64.614 36.8737 63.2114 37.6097 61.8499 38.4026C61.1644 38.5069 60.4853 38.6427 59.7966 38.7122C57.4179 38.9555 55.5952 37.8056 53.9936 36.2482C51.4949 33.8157 50.1523 30.742 49.3373 27.4123C48.7782 25.1283 48.5381 22.8064 48.6581 20.4529C48.8098 19.6158 48.9045 18.766 49.1257 17.9478C49.7954 15.4711 51.6623 13.8347 53.3334 12.0625H53.4155H53.4977C54.4611 12.5995 55.3646 13.3609 56.3976 13.6294C58.2329 14.1064 60.1441 14.2928 62.0268 14.5803C63.7579 14.8425 65.4985 15.0604 66.9043 16.2609C67.7351 17.1896 68.3353 18.2384 68.4521 19.5084C68.5185 20.2255 68.5027 20.9521 68.6101 21.6597C68.6448 21.8903 68.9481 22.0798 69.1313 22.2883C69.2293 22.0893 69.3493 21.8998 69.4156 21.6913C69.621 21.0658 69.7126 20.3803 70.0253 19.8148C70.477 18.9935 71.4532 18.7028 72.0944 19.0535C72.7831 19.4294 73.0263 20.1591 72.5746 21.1005C71.3584 23.6309 71.5542 26.3414 71.4532 29.0203L71.4405 29.014ZM56.4228 32.6058C57.0831 33.9073 57.8886 34.3022 58.9437 34.0684C60.302 33.7652 61.3255 32.9154 62.2827 31.9835C62.6365 31.6391 62.924 31.2316 63.2399 30.8525C63.1767 30.7609 63.1135 30.6693 63.0472 30.5808C61.0223 31.7244 58.9626 32.7701 56.4197 32.6121L56.4228 32.6058ZM61.3982 18.2542C61.2023 18.2985 60.9875 18.3585 60.7696 18.3932C60.242 18.4722 59.6924 18.6491 59.7619 19.262C59.8314 19.8875 60.4316 19.8085 60.9054 19.7706C62.0079 19.6821 62.9872 19.8685 63.8085 20.7215C63.9885 20.9078 64.6014 20.9299 64.8225 20.7688C65.2205 20.475 65.0594 20.0517 64.7183 19.6979C63.8148 18.7565 62.6586 18.4375 61.3982 18.2574V18.2542ZM53.8072 24.2375C53.8104 23.1823 53.2323 22.2504 52.6068 22.3073C51.9908 22.361 51.5233 23.3877 51.656 24.3923C51.7729 25.28 52.272 25.956 52.7995 25.9465C53.3523 25.937 53.8041 25.1694 53.8072 24.2375ZM60.4094 23.2866C60.539 23.732 60.5958 24.2217 60.8233 24.6102C60.9781 24.8693 61.3919 25.1473 61.6604 25.1188C61.9321 25.0936 62.2732 24.7461 62.3964 24.4586C62.5512 24.0922 62.5639 23.6467 62.5575 23.2361C62.5417 22.2757 62.0711 21.5933 61.4772 21.587C60.8612 21.5807 60.4916 22.2062 60.4063 23.2834L60.4094 23.2866ZM52.749 19.4578C51.4127 19.4357 50.3829 20.0043 49.7511 21.1732C49.6248 21.407 49.8238 21.8113 49.8743 22.1399C50.1586 22.0704 50.5977 22.0925 50.702 21.9156C51.3117 20.9015 52.2278 20.633 53.3176 20.6046C53.545 20.5982 53.763 20.3139 53.9873 20.1591C53.7978 19.9254 53.643 19.6347 53.4029 19.4736C53.2513 19.3694 52.9733 19.4547 52.749 19.4547V19.4578ZM57.3421 29.5636C57.3074 29.4025 57.3074 29.3551 57.2947 29.352C56.4228 29.1056 55.3678 29.0266 55.7911 27.6334C55.8069 27.5829 55.611 27.4028 55.5099 27.3997C55.412 27.3997 55.2161 27.5576 55.2256 27.624C55.2951 28.2084 55.2256 28.9223 55.5415 29.3425C55.9616 29.9048 56.7008 29.7058 57.3421 29.5636Z" fill="#FEA385"/>
<path d="M62.7313 58.8778C63.2272 57.2351 63.6916 55.5797 64.2286 53.9496C65.9913 48.6014 68.8217 43.9007 72.8146 39.914C73.8697 39.576 74.8869 39.7339 75.9073 40.0972C77.8121 40.7764 79.7296 41.4145 81.625 42.1158C82.1051 42.2928 82.6106 42.5581 82.9486 42.9246C83.533 43.5532 83.2992 44.2387 82.5032 44.5609C82.2536 44.662 82.023 44.8137 81.7861 44.94C81.1922 44.8326 80.5983 44.6936 80.0013 44.6336C79.8496 44.6178 79.6696 44.8389 79.5053 44.9527C79.6285 45.1075 79.7328 45.3728 79.8781 45.3981C80.5004 45.5023 81.1353 45.5339 81.7671 45.594C82.2315 46.2163 82.6959 46.8355 83.1634 47.4578C82.8854 47.4578 82.6074 47.4578 82.3294 47.4641C80.3235 47.5399 78.5102 48.0296 77.0792 49.5902C75.8125 50.9675 75.0607 52.5976 74.6184 54.3666C73.5412 58.6787 72.4735 62.9972 71.5132 67.3377C70.973 69.7765 70.6571 72.2658 70.2433 74.7299C69.9368 74.7362 69.6273 74.7299 69.324 74.7551C68.351 74.8373 67.8014 75.6144 67.9593 76.5684C68.0194 76.9254 67.9246 77.3076 67.8961 77.6772C67.8677 78.0311 67.6813 78.486 67.833 78.7166C68.3131 79.4305 67.8424 80.0307 67.8267 80.672C67.7919 82.0304 67.4981 83.572 68.7301 84.6903C68.7491 84.7093 68.768 84.7314 68.7838 84.7535C68.7585 85.0599 68.7301 85.3632 68.7048 85.6696C68.3763 89.7132 68.0036 93.7505 67.7445 97.7972C67.6276 99.6295 67.7224 101.474 67.7445 103.316C67.754 104.147 67.8298 104.975 67.874 105.805C67.6276 105.992 67.3781 106.175 67.1317 106.361C66.7463 104.873 66.3609 103.386 65.9755 101.898C65.2331 99.0135 64.4276 96.145 63.7642 93.245C62.8987 89.451 62.1437 85.6286 61.3413 81.8188C61.1897 80.4667 60.9528 79.1178 60.9022 77.7625C60.7032 72.4016 60.9844 67.0723 62.1784 61.8188C62.3996 60.8458 62.5512 59.8602 62.7344 58.8778H62.7313ZM65.0626 61.2692C64.9773 61.2249 64.892 61.1807 64.8067 61.1365C64.7783 60.9817 64.7088 60.8206 64.7309 60.6721C65.072 58.4608 65.4701 56.221 66.7874 54.3824C69.5546 50.5221 72.9157 47.3283 77.4899 45.6571C77.67 45.5908 77.7837 45.3412 77.929 45.177C77.7173 45.1043 77.4678 44.9211 77.3004 44.9779C76.5643 45.2212 75.7714 45.4139 75.146 45.8404C73.4085 47.025 71.7185 48.2855 70.0537 49.5775C66.6926 52.1869 64.7277 55.6366 64.0864 59.8381C63.979 60.5331 63.9348 61.2407 63.8622 61.9326C65.2268 62.1316 66.0892 61.6704 66.5378 60.5489C66.6073 60.372 66.503 60.1256 66.4809 59.9108C66.2819 60.0087 66.0387 60.0656 65.8965 60.2172C65.5901 60.5394 65.3342 60.9122 65.0594 61.266L65.0626 61.2692Z" fill="#2254B5"/>
<path d="M21.1463 228.674C22.3056 227.985 23.4618 227.29 24.6243 226.608C25.4235 226.141 26.2196 226.314 27.003 226.665C27.3821 227.363 27.9412 228.023 28.096 228.769C28.3266 229.9 28.3266 231.088 28.3329 232.253C28.3424 233.643 28.1465 235.043 28.2508 236.423C28.3139 237.273 28.6235 238.18 29.0784 238.906C30.2314 240.751 30.7211 240.78 32.3795 239.418C32.2184 240.274 32.0984 241.137 31.8899 241.98C31.3497 244.169 30.7527 246.346 30.2125 248.535C29.8555 249.985 29.0437 250.888 27.5811 251.381C26.9272 251.602 26.2638 251.704 25.7457 251.542C24.6969 251.217 23.6734 250.708 22.7542 250.102C20.5366 248.636 18.1737 247.594 15.5612 247.085C13.0151 246.586 11.1166 245 9.31282 243.244C7.15525 241.14 4.93766 239.102 2.74851 237.033C2.56845 236.862 2.41366 236.66 2.25255 236.467C0.401401 234.215 0.439309 232.932 2.78325 230.449C3.29816 229.903 4.05316 229.641 4.78603 229.96C8.74105 231.672 12.715 230.863 16.6921 230.118C17.346 229.995 17.9905 229.818 18.6381 229.666C18.7107 229.83 18.7391 230.077 18.8655 230.149C19.9522 230.769 20.4703 231.7 20.5176 232.936C20.524 233.128 20.6661 233.315 20.7451 233.501C20.8272 233.482 20.9125 233.463 20.9946 233.441C20.9946 233.122 21.0168 232.8 20.9915 232.481C20.8746 231.084 19.7563 229.761 18.6317 229.669C19.3583 229.385 20.0849 229.101 20.8114 228.816C20.8525 228.917 20.8714 229.075 20.9409 229.107C22.3814 229.707 22.9311 230.968 23.3449 232.329C23.4018 232.512 23.506 232.68 23.645 232.967C24.0683 231.571 22.7763 229.48 21.1463 228.668V228.674ZM29.9092 246.889C29.5554 246.744 29.4038 246.649 29.2458 246.621C27.3062 246.279 25.3635 245.96 23.427 245.613C21.4085 245.25 19.3583 244.997 17.3871 244.454C12.7814 243.184 9.52447 240.176 7.27845 236.044C6.54873 234.705 6.10016 233.214 5.37992 231.868C5.11456 231.375 4.47646 231.012 3.92996 230.759C3.44348 230.535 2.95068 230.926 2.84643 231.445C4.29639 231.075 4.77656 231.4 5.36412 232.876C5.9201 234.269 6.48239 235.681 7.24686 236.96C9.66978 241.02 13.0499 243.976 17.7409 245.022C21.5538 245.872 25.433 246.422 29.2837 247.091C29.4101 247.113 29.5586 247.003 29.9124 246.883L29.9092 246.889ZM27.9443 235.643C27.7927 234.66 27.0377 234.288 26.2606 234.256C24.4379 234.19 22.6089 234.256 20.7861 234.319C18.5622 234.398 16.3889 234.25 14.4524 233.021C13.8396 232.632 13.3215 232.089 12.7624 231.618C12.7119 231.915 12.7466 232.244 12.9235 232.376C13.6943 232.958 14.4524 233.602 15.3148 234.003C17.7946 235.153 20.4639 234.733 23.0574 234.66C24.7854 234.61 26.4881 234.31 27.9443 235.643ZM17.9178 233.716C18.6823 232.885 18.0189 231.047 16.6921 230.532C17.0554 231.119 17.4092 231.536 17.5893 232.016C17.7788 232.519 17.8041 233.084 17.9178 233.716Z" fill="#2254B5"/>
<path d="M83.3099 230.689C83.5342 230.351 83.7585 230.01 83.9828 229.672C85.2906 229.422 86.5763 229.381 87.8146 230.145C87.6219 229.779 87.3913 229.529 87.107 229.371C86.2035 228.872 85.2463 228.961 84.2828 229.169C84.7346 228.44 85.1831 227.707 85.6349 226.977C85.7928 227.116 85.9666 227.384 86.1087 227.369C87.0817 227.258 87.9946 227.277 88.7212 228.079C88.7875 228.152 88.9865 228.101 89.2235 228.111C89.1129 227.918 89.0687 227.817 89.0055 227.738C88.0799 226.623 86.8732 226.74 85.638 226.974C86.5036 225.375 87.347 223.764 88.2537 222.191C88.459 221.834 88.8981 221.613 89.2298 221.328C90.367 221.284 91.0872 221.954 91.6811 222.797C92.3793 223.796 93.0426 224.819 93.7186 225.83C92.215 225.603 91.3115 225.988 90.5376 227.362C89.2898 229.574 87.685 231.488 85.796 233.156C84.6398 234.173 83.4205 235.165 81.6799 234.499C81.5598 234.451 81.364 234.597 81.206 234.65C81.3197 234.777 81.4114 234.979 81.5504 235.023C82.8424 235.427 84.027 235.14 85.0947 234.36C87.0027 232.97 88.5822 231.264 89.8932 229.302C90.4807 228.427 91.0714 227.549 91.738 226.734C92.1708 226.206 92.771 226.026 93.4691 226.348C93.6081 226.411 93.864 226.225 94.0661 226.152C94.3062 226.285 94.5526 226.405 94.7832 226.55C96.0436 227.334 97.68 227.119 98.6182 226.001C99.3921 225.078 99.9481 224.036 100.087 222.813C100.368 223.173 100.766 223.492 100.912 223.9C101.771 226.355 103.11 228.515 104.693 230.566C106.478 232.881 105.799 235.099 103.047 236.11C102.115 236.451 101.111 236.621 100.125 236.786C97.6136 237.2 95.3139 238.176 93.0648 239.313C90.3986 240.662 87.7293 242.004 84.7472 242.529C82.8929 242.854 81.0165 243.088 79.219 242.361C78.4483 242.049 77.8038 241.426 77.1025 240.943C77.987 240.397 78.6567 241.05 79.4212 241.313C80.3784 241.641 81.3956 242.074 82.3654 242.03C84.9146 241.916 87.2144 240.883 89.4004 239.607C91.9717 238.103 94.5463 236.606 97.1145 235.099C98.6498 234.198 100.223 233.358 101.695 232.363C102.542 231.791 103.218 230.97 103.969 230.259C103.903 230.174 103.837 230.085 103.77 230C103.552 230.101 103.249 230.145 103.126 230.316C102.166 231.643 100.823 232.483 99.4427 233.273C96.4448 234.988 93.4565 236.719 90.4239 238.365C88.598 239.357 86.7532 240.381 84.8041 241.066C82.8518 241.755 80.7669 241.932 78.96 240.438C78.96 238.741 78.9537 237.042 78.9505 235.345C80.2331 234.015 81.5188 232.682 82.8013 231.352C83.4015 231.302 84.0143 231.144 84.5956 231.226C85.161 231.305 85.6917 231.63 86.2382 231.848C86.2825 231.769 86.3235 231.69 86.3678 231.614C86.055 231.381 85.7707 231.02 85.4201 230.935C84.7377 230.771 84.0175 230.761 83.3131 230.686L83.3099 230.689Z" fill="#2254B5"/>
<path d="M40.7907 100.481C40.7591 97.1358 40.538 93.8283 39.2617 90.6693C38.9995 90.0153 38.9964 89.2572 38.8763 88.5464C38.8384 88.4832 38.8005 88.4232 38.7626 88.36V88.3695C38.7405 88.0346 38.7184 87.6997 38.6963 87.3649C38.7152 86.6952 38.7374 86.0286 38.7532 85.3589C38.7911 83.7067 38.949 82.0988 39.982 80.6961C40.2315 80.3581 40.399 79.8621 40.3895 79.4452C40.3389 77.2938 41.3372 75.3984 41.7858 73.3703C41.8995 72.8585 42.0006 72.3436 42.108 71.8287C42.3923 70.5366 42.8345 69.2541 42.9198 67.9462C43.0367 66.1803 42.9009 64.3955 42.8282 62.6201C42.7208 59.9507 43.3052 57.6351 45.8324 56.1914C46.382 55.8787 46.8338 55.3953 47.3297 54.991C47.3613 55.4711 47.4561 55.9576 47.4087 56.4315C47.3044 57.5245 47.1307 58.6112 46.9854 59.7011C46.3188 61.6471 45.6523 63.5899 44.9858 65.5359C44.3224 66.7079 43.5548 67.8325 43.201 69.1846C43.5421 69.1024 43.7854 68.954 43.9496 68.7423C44.2403 68.3727 44.4803 67.9683 44.7425 67.5798C44.752 68.0252 44.7836 68.4706 44.7646 68.9161C44.6825 70.9536 45.1469 72.887 46.2462 74.5707C47.7246 76.8358 48.6059 79.224 48.4606 81.9471C48.4417 82.3262 48.5712 82.5379 48.9882 82.4652C48.6691 84.9703 48.3185 87.4723 48.0468 89.9806C47.8699 91.6075 47.8036 93.247 47.6898 94.8803C47.6772 95.2088 47.6677 95.5373 47.6551 95.8659C47.6045 95.9891 47.5224 96.1123 47.5066 96.2387C47.3455 97.5023 47.156 98.7659 47.0486 100.036C46.8938 101.859 46.7959 103.688 46.6758 105.514C46.5621 105.997 46.4484 106.483 46.3315 106.967C45.8987 106.689 45.706 106.976 45.4723 107.289C45.0932 107.798 44.7299 108.335 44.2561 108.745C43.3368 109.541 41.7099 109.943 40.7686 108.587C40.8254 106.18 40.8918 103.773 40.936 101.366C40.9423 101.072 40.8444 100.775 40.7938 100.478L40.7907 100.481Z" fill="#2254B5"/>
<path d="M71.4584 29.0187C71.5564 26.3398 71.3605 23.6325 72.5799 21.099C73.0316 20.1576 72.7884 19.431 72.0997 19.0519C71.4616 18.7012 70.4823 18.995 70.0306 19.8132C69.721 20.3787 69.6294 21.0642 69.4209 21.6897C69.3514 21.8982 69.2314 22.0877 69.1366 22.2868C68.9565 22.0783 68.6501 21.8887 68.6154 21.6581C68.508 20.9473 68.5238 20.2239 68.4574 19.5068C68.3437 18.2369 67.7435 17.1912 66.9095 16.2561C67.2096 16.2056 67.5319 16.2088 67.8004 16.0919C69.8948 15.1821 70.9372 13.4509 71.4237 11.3185C71.5216 10.8889 71.5627 10.4435 71.5658 10.0012C71.5658 9.87171 71.351 9.73903 71.2341 9.6095C71.1646 9.76114 71.0509 9.90961 71.0288 10.0676C70.972 10.4719 71.0193 10.9047 70.9056 11.2901C70.3402 13.2456 69.4872 14.983 67.3644 15.7065C67.1717 15.7728 67.058 16.0698 66.9095 16.2593C65.5038 15.0589 63.7632 14.8409 62.0321 14.5787C60.1494 14.2912 58.2382 14.1048 56.4028 13.6278C55.3699 13.3593 54.4664 12.598 53.5029 12.0578C53.7493 10.6172 54.0052 9.18303 54.7254 7.99523C55.5499 8.07105 56.2797 8.26691 56.9715 8.1753C58.2287 8.00471 59.4828 7.74251 60.6959 7.37606C62.3101 6.88956 63.7759 6.1156 64.7299 4.62769C66.3978 4.71614 67.5887 5.71756 68.7259 6.779C69.1998 7.22126 69.5947 7.32235 70.0717 6.8485C71.588 8.507 72.9052 10.3108 73.477 12.5095C74.5163 16.5152 74.8385 20.5367 73.3475 24.536C72.8831 25.7807 72.523 27.0632 72.065 28.3111C71.9639 28.5827 71.6606 28.7818 71.4521 29.0155L71.4584 29.0187ZM54.8139 11.2933C54.7728 11.4165 54.7318 11.5365 54.6939 11.6597C54.9276 11.8303 55.1456 12.0325 55.3983 12.1683C58.9079 14.0985 62.5502 14.2881 66.2556 12.8633C67.9552 12.2126 69.3672 11.1195 70.2201 9.44839C70.3433 9.20515 70.3244 8.88608 70.3749 8.60493C70.2865 8.58281 70.198 8.5607 70.1096 8.53859C68.7575 11.565 66.1482 12.6548 63.1472 13.1287C60.162 13.5994 57.4263 12.7686 54.8171 11.2933H54.8139Z" fill="#403829"/>
<path d="M79.9784 78.4251C78.9517 77.3289 77.8745 76.2738 76.9142 75.1207C76.3456 74.4352 75.9697 73.5917 75.4927 72.8272C75.3442 72.5872 75.1484 72.3787 74.9746 72.1544C75.022 71.8827 75.0694 71.6078 75.1136 71.3362C75.7896 67.1631 76.3456 62.9678 77.1764 58.8263C77.8019 55.7052 77.6913 52.3914 79.6278 49.564C80.348 48.512 81.0904 47.8834 82.3223 47.776C83.507 47.6717 84.4578 48.2625 85.4371 48.7837C86.5617 49.6019 87.0134 50.7897 87.4051 52.0723C87.6894 53.0105 88.1285 53.9614 88.7224 54.7354C91.2338 57.9987 93.2429 61.5305 94.8192 65.3308C95.2962 66.4807 95.6974 67.6148 95.5521 68.8753C95.5236 69.1185 95.451 69.3554 95.4004 69.5955C94.6296 68.0508 93.8747 66.4965 93.0818 64.9644C92.2099 63.2806 91.3127 61.6095 90.4093 59.9415C89.5848 58.4251 88.4286 57.2437 86.7891 56.6182C83.8355 55.4872 81.0019 56.8898 80.1869 59.951C79.8899 61.0693 79.7699 62.2476 79.672 63.407C79.5614 64.7369 79.5677 66.0764 79.5203 67.4126C79.5077 67.6906 79.4698 67.9686 79.4824 68.2466C79.6435 71.6394 79.8141 75.0323 79.9816 78.4251H79.9784Z" fill="#2254B5"/>
<path d="M32.3804 239.427C30.722 240.789 30.2324 240.76 29.0793 238.916C28.6276 238.192 28.3149 237.282 28.2517 236.433C28.1474 235.052 28.3433 233.653 28.3338 232.263C28.3275 231.097 28.3307 229.909 28.0969 228.778C27.9453 228.033 27.383 227.372 27.0039 226.674C27.4683 225.335 27.9295 223.992 28.3938 222.653C31.3159 223.642 34.2316 224.637 37.1599 225.603C37.5201 225.723 37.9307 225.682 38.3161 225.717C36.5913 229.615 34.8634 233.51 33.1512 237.412C32.8638 238.069 32.6363 238.754 32.3804 239.427Z" fill="#FEA385"/>
<path d="M85.4412 48.787C84.4619 48.2657 83.5142 47.675 82.3265 47.7792C81.0945 47.8866 80.3521 48.5184 79.6319 49.5673C77.6954 52.3946 77.806 55.7084 77.1805 58.8296C76.3497 62.9711 75.7937 67.1663 75.1177 71.3394C75.0735 71.6142 75.023 71.8859 74.9787 72.1576C74.8524 72.8937 74.7355 73.6329 74.5933 74.3658C74.3438 75.6641 73.5572 76.0274 72.3568 75.4841C71.6808 75.1777 70.9542 74.9755 70.2529 74.7228C70.6699 72.2555 70.9858 69.7694 71.5228 67.3274C72.4832 62.9869 73.5509 58.6685 74.6281 54.3564C75.0703 52.5873 75.8222 50.9604 77.0889 49.5799C78.5199 48.0225 80.3332 47.5297 82.3391 47.4538C82.6171 47.4444 82.8951 47.4475 83.1731 47.4475C83.5806 47.5265 83.9912 47.5928 84.3987 47.6845C84.9895 47.814 85.438 48.092 85.4444 48.7838L85.4412 48.787Z" fill="#4D404C"/>
<path d="M100.088 222.818C99.9493 224.04 99.3934 225.083 98.6194 226.005C97.6812 227.124 96.0449 227.342 94.7844 226.555C94.5538 226.41 94.3074 226.29 94.0674 226.157C93.9505 226.05 93.8367 225.942 93.7199 225.838C93.0407 224.827 92.3805 223.8 91.6823 222.805C91.0916 221.962 90.3682 221.292 89.231 221.336C88.7666 220.442 88.3023 219.551 87.8379 218.657C90.5957 216.79 93.6409 215.663 96.9136 215.107C97.4001 215.024 97.8802 214.889 98.3604 214.778C98.8405 216.999 99.3207 219.217 99.7977 221.437C99.8956 221.899 99.9904 222.36 100.085 222.818H100.088Z" fill="#FEA385"/>
<path d="M19.6087 82.7971C20.7111 83.688 21.9084 84.484 22.894 85.4918C23.9901 86.6101 25.0989 86.8596 26.4636 86.1615C27.4808 85.6434 28.498 85.1253 29.512 84.6041C30.5386 84.0765 31.1704 84.165 31.7801 84.9263C33.2869 84.7273 33.606 85.0906 33.3659 86.4142C33.5081 86.8754 33.7703 87.3367 33.7671 87.7947C33.7671 88.4234 33.0184 88.9415 33.486 89.7123C33.5618 89.8386 33.1353 90.3788 32.8415 90.5999C32.156 91.1149 31.4105 91.554 30.6871 92.0215C30.267 92.1574 29.8342 92.2679 29.4267 92.4322C27.0796 93.3926 25.7718 93.1082 24.0533 91.2665C22.5307 89.6364 21.046 87.9906 20.1172 85.9119C19.8772 85.3749 19.3717 84.9579 18.9927 84.484C18.7779 84.2155 18.5757 83.9375 18.3672 83.6627C18.6831 83.4258 18.999 83.1857 19.318 82.9519C19.4065 82.8887 19.5107 82.8445 19.6087 82.7939V82.7971Z" fill="#FCA284"/>
<path d="M46.6587 105.514C46.7819 103.688 46.8766 101.859 47.0314 100.037C47.1388 98.7667 47.3284 97.5031 47.4895 96.2395C47.5053 96.1099 47.5874 95.9899 47.6379 95.8667C48.8004 96.7891 49.9598 97.7084 51.1223 98.6277C51.2771 99.8976 51.4287 101.164 51.5835 102.434C51.4824 104.722 51.3781 107.006 51.2739 109.293C49.7323 108.032 48.1939 106.775 46.6523 105.514H46.6587Z" fill="#60525D"/>
<path d="M53.3326 12.0642C51.6615 13.8364 49.7945 15.4728 49.1249 17.9495C48.9037 18.7677 48.809 19.6174 48.6573 20.4546C48.3193 19.4279 47.9181 18.4138 47.6623 17.365C47.4948 16.6827 47.5391 15.9498 47.4854 15.2422C48.1772 14.7304 48.9985 14.326 49.5355 13.6816C50.3505 12.7054 51.175 11.8904 52.5176 11.8272C52.5428 11.8272 52.565 11.7388 52.6629 11.5366C52.2838 11.4892 51.9553 11.3881 51.6394 11.4197C50.7833 11.5082 50.2147 12.0547 49.6587 12.6739C49.0396 13.3625 48.3193 13.9564 47.6433 14.5914C47.7002 13.015 48.0887 11.5366 48.9953 10.2256C49.3776 10.2793 49.7566 10.3614 50.142 10.3835C50.9286 10.4309 51.7152 10.453 52.5018 10.4625C52.6376 10.4625 52.7766 10.3678 52.9156 10.314C52.8398 10.1845 52.7829 9.95708 52.6882 9.94128C52.0216 9.83387 51.3488 9.74226 50.6759 9.69804C50.1673 9.66329 49.6524 9.70751 49.1406 9.71699C51.0834 6.56426 54.1255 5.03528 57.5182 4.01807C55.9135 5.17744 54.6309 6.61165 53.8854 8.45969C53.4242 9.60326 52.8682 10.7626 53.3326 12.061V12.0642Z" fill="#403829"/>
<path d="M61.6855 41.6151C61.417 41.9437 61.1485 42.2722 60.8768 42.6008C58.1885 42.5344 56.3121 43.956 54.7642 45.962C54.6758 46.0789 54.6916 46.2747 54.66 46.4358L54.6536 46.4422C53.7533 46.8307 53.7407 47.7184 53.5164 48.4829C52.8372 49.4243 52.098 50.3309 51.4947 51.3197C50.3417 53.2088 49.2645 55.1485 48.1557 57.066C48.1715 56.4405 48.2031 55.8151 48.1999 55.1896C48.1999 54.6841 48.1588 54.1787 48.1367 53.6732C48.639 51.7967 49.1918 49.9329 49.6183 48.0406C49.8552 46.995 50.3354 46.3948 51.4094 46.1357C53.0615 45.7377 54.2367 44.5309 55.535 43.5232C56.4543 42.8093 57.4272 42.149 58.4412 41.5867C59.49 41.0054 60.6114 40.9233 61.6886 41.6151H61.6855Z" fill="#2254B5"/>
<path d="M65.5696 164.959C67.0227 162.558 68.3652 160.081 69.9763 157.794C70.6365 156.859 71.1862 155.864 71.8243 154.922C72.4908 153.934 73.0594 152.879 73.7039 151.874C74.143 151.192 74.6358 150.541 75.1033 149.877L75.1128 149.887C74.6958 150.942 74.3009 152.01 73.8555 153.052C72.3834 156.502 70.8766 159.933 69.4203 163.389C68.7727 164.921 68.2168 166.491 67.6134 168.039C67.566 168.162 67.446 168.257 67.3607 168.364C66.7636 167.23 66.1634 166.093 65.5664 164.959H65.5696Z" fill="#BF7E3F"/>
<path d="M46.2706 107.462C46.1379 109.679 46.1316 111.922 45.2945 114.026C44.8238 115.211 43.933 115.972 42.6725 116.272C42.0502 116.421 41.5859 116.244 41.4974 115.58C41.2384 113.657 41.0236 111.73 40.793 109.803C42.205 110.343 43.5981 110.393 44.7859 109.338C45.3735 108.814 45.7841 108.093 46.2738 107.458L46.2706 107.462Z" fill="#7797D6"/>
<path d="M111.674 136.472C110.332 136.937 109.043 136.418 107.732 136.27C106.301 136.109 104.873 135.935 103.439 135.806C100.763 135.565 98.0657 135.474 95.409 135.092C92.7776 134.716 90.3768 133.635 88.5162 131.661C87.8307 130.934 87.3726 129.99 86.8166 129.146C85.3635 131.582 82.8553 132.16 80.2839 132.612C80.2302 132.485 80.1797 132.362 80.126 132.236C80.6851 132.081 81.2411 131.92 81.8002 131.775C83.1807 131.411 84.5138 130.966 85.5752 129.933C87.0567 128.496 87.082 126.243 85.6352 124.781C85.0097 124.149 84.4253 123.476 83.8314 122.809C83.0291 121.906 82.6216 120.825 82.4826 119.641C82.2646 117.771 81.7528 115.995 80.881 114.324C80.7325 114.043 80.6061 113.749 80.4703 113.462C80.543 113.408 80.6188 113.354 80.6914 113.297C80.8968 113.537 81.2 113.743 81.2916 114.021C81.8792 115.777 82.5679 117.521 82.928 119.328C83.2186 120.781 83.6988 122.032 84.7507 123.068C85.8026 124.104 86.8893 125.125 87.2147 126.663C87.2557 126.853 87.3347 127.046 87.3221 127.232C87.2937 127.734 87.022 128.338 87.2084 128.723C88.0297 130.407 89.1574 131.86 90.8159 132.855C93.0398 134.191 95.4785 134.763 98.0215 134.953C100.65 135.149 103.287 135.231 105.909 135.483C107.862 135.67 109.795 136.043 111.735 136.333C111.747 136.393 111.728 136.441 111.671 136.469L111.674 136.472Z" fill="#4D3F4A"/>
<path d="M58.6802 3.83036C59.4984 3.67241 60.3102 3.4102 61.1316 3.38809C61.9782 3.36282 62.8311 3.57132 63.6808 3.67872C63.8009 3.90933 63.9241 4.13995 64.0441 4.3674C63.7661 4.7528 63.564 5.23613 63.2038 5.50781C61.5643 6.74616 59.6153 7.19159 57.6377 7.55488C56.7848 7.71283 55.9667 7.82971 55.1074 7.22949C56.0235 6.08276 56.8417 4.94234 58.2379 4.39583C58.4306 4.32001 58.5349 4.02622 58.6802 3.83036Z" fill="#403829"/>
<path d="M115.709 123.043C115.52 122.882 115.245 122.759 115.157 122.557C114.484 121.002 113.59 119.616 112.336 118.463C109.55 115.907 106.659 113.452 104.024 110.748C101.551 108.208 99.3492 105.403 97.04 102.702C96.6357 102.228 96.3103 101.688 95.9502 101.179C96.0671 101.091 96.1808 101.003 96.2977 100.911C96.6294 101.341 96.9737 101.761 97.2928 102.203C99.8515 105.766 102.846 108.941 106.018 111.949C108.134 113.955 110.383 115.818 112.497 117.828C113.372 118.662 114.042 119.71 114.815 120.655C114.894 120.753 115.03 120.807 115.138 120.879C115.33 121.599 115.52 122.323 115.713 123.043H115.709Z" fill="#4D3F4A"/>
<path d="M78.9675 240.44C80.7744 241.934 82.8561 241.758 84.8115 241.069C86.7606 240.383 88.6054 239.36 90.4313 238.368C93.4639 236.722 96.4523 234.988 99.4501 233.275C100.831 232.486 102.173 231.645 103.133 230.319C103.257 230.148 103.56 230.104 103.778 230.003C103.844 230.088 103.911 230.176 103.977 230.262C103.225 230.973 102.549 231.794 101.702 232.366C100.23 233.361 98.6572 234.201 97.122 235.101C94.5506 236.605 91.9792 238.106 89.4078 239.609C87.2218 240.886 84.9253 241.919 82.3728 242.032C81.3999 242.077 80.3858 241.641 79.4287 241.315C78.6642 241.053 77.9945 240.399 77.11 240.946C76.9647 240.778 76.8194 240.614 76.6709 240.446C77.4354 240.446 78.203 240.446 78.9675 240.446V240.44Z" fill="#FFA653"/>
<path d="M58.6972 3.8286C58.5519 4.0213 58.4477 4.31825 58.255 4.39407C56.8587 4.94058 56.0405 6.08416 55.1244 7.22773C55.9837 7.82795 56.7987 7.71107 57.6548 7.55312C59.6323 7.18983 61.5782 6.7444 63.2208 5.50605C63.581 5.23437 63.7863 4.75104 64.0611 4.36564C64.2854 4.45409 64.5097 4.54254 64.7308 4.631C63.7768 6.12207 62.3079 6.89603 60.6968 7.37937C59.4838 7.74582 58.2265 8.00802 56.9724 8.17861C56.2806 8.27022 55.5509 8.07436 54.7264 7.99854C54.0093 9.18634 53.7503 10.6237 53.5039 12.0611H53.4218H53.3396C52.8784 10.7627 53.4312 9.6065 53.8924 8.45976C54.638 6.61172 55.9205 5.17751 57.5252 4.01814C57.9138 3.95496 58.3055 3.88862 58.6941 3.82544L58.6972 3.8286Z" fill="#DCC3A2"/>
<path d="M78.9711 240.441C78.2066 240.441 77.439 240.441 76.6745 240.441C75.8311 238.839 76.0522 237.616 77.4264 236.473C77.9128 236.068 78.4499 235.721 78.9616 235.348C78.9616 237.045 78.9679 238.744 78.9711 240.441Z" fill="#FFA653"/>
<path d="M115.349 118.543C114.992 117.946 114.562 117.381 114.284 116.746C112.449 112.567 110.092 108.703 107.328 105.083C106.621 104.157 105.853 103.276 105.133 102.36C104.959 102.139 104.87 101.854 104.744 101.601C104.82 101.545 104.893 101.485 104.968 101.428C105.471 101.974 106.011 102.489 106.472 103.07C109.514 106.893 112.142 110.981 114.265 115.388C114.537 115.95 114.872 116.484 115.178 117.03C115.235 117.533 115.292 118.038 115.349 118.54V118.543Z" fill="#4D3F4A"/>
<path d="M61.8633 38.397C63.2248 37.604 64.6274 36.868 65.9383 35.9961C66.8039 35.4211 67.5368 34.6472 68.3707 34.0122C67.2998 37.0386 65.0823 38.8045 62.0812 39.7111C62.0086 39.272 61.9359 38.8361 61.8633 38.397Z" fill="#C17964"/>
<path d="M64.7146 4.62699C64.4903 4.53853 64.2661 4.45008 64.0449 4.36163C63.9249 4.13102 63.8017 3.90041 63.6816 3.67295C64.0323 3.0064 64.6641 3.22121 65.2169 3.18014C66.869 3.69191 68.3664 4.47535 69.5668 5.74845C69.7847 5.97906 69.9301 6.27917 70.107 6.54453C70.0912 6.64562 70.0754 6.74671 70.0564 6.8478C69.5826 7.32165 69.1877 7.22057 68.7107 6.7783C67.5735 5.71686 66.3825 4.71544 64.7146 4.62699Z" fill="#EF9D4E"/>
<path d="M46.2671 107.465C45.7775 108.097 45.3668 108.821 44.7792 109.345C43.5946 110.4 42.2015 110.35 40.7863 109.809C40.6852 109.405 39.6996 109.032 40.7453 108.59C41.6866 109.945 43.3135 109.547 44.2327 108.748C44.7034 108.337 45.0699 107.8 45.4489 107.292C45.6827 106.979 45.8754 106.691 46.3082 106.969C46.2955 107.134 46.2829 107.301 46.2671 107.465Z" fill="#5B7FB9"/>
<path d="M53.5364 133.283C54.2882 131.27 55.04 129.258 55.7887 127.249C55.8898 127.259 55.9877 127.271 56.0888 127.281C56.0888 127.612 56.1772 127.972 56.073 128.266C55.5233 129.865 54.9421 131.457 54.3261 133.033C54.2124 133.324 53.8996 133.539 53.6785 133.788C53.6311 133.621 53.5837 133.45 53.5332 133.283H53.5364Z" fill="#DB8740"/>
<path d="M48.137 53.667C48.1592 54.1724 48.2002 54.6779 48.2002 55.1833C48.2002 55.8088 48.1718 56.4343 48.156 57.0598C47.758 57.9412 47.3599 58.8225 46.9619 59.7008C47.1072 58.6109 47.281 57.5242 47.3852 56.4311C47.4294 55.9573 47.3378 55.4708 47.3062 54.9906C47.3979 54.7063 47.4484 54.3967 47.5969 54.144C47.7137 53.9481 47.9507 53.8218 48.137 53.6638V53.667Z" fill="#5B7FB9"/>
<path d="M47.6433 14.5925C48.3193 13.9575 49.0427 13.3636 49.6587 12.6749C50.2147 12.0558 50.7833 11.5093 51.6394 11.4208C51.9553 11.3892 52.2838 11.4903 52.6629 11.5377C52.565 11.7399 52.5428 11.8252 52.5176 11.8283C51.175 11.8915 50.3505 12.7065 49.5355 13.6827C48.9985 14.324 48.1772 14.7315 47.4854 15.2432C47.5391 15.0253 47.5896 14.8105 47.6433 14.5956V14.5925Z" fill="#DCC3A2"/>
<path d="M21.1366 228.677C22.7666 229.489 24.0586 231.58 23.6353 232.976C23.4963 232.686 23.3921 232.518 23.3352 232.338C22.9183 230.973 22.3718 229.716 20.9313 229.116C20.8586 229.087 20.8428 228.926 20.8018 228.825C20.9123 228.778 21.026 228.727 21.1366 228.68V228.677Z" fill="#FFA653"/>
<path d="M49.1443 9.71772C49.6561 9.70824 50.171 9.66717 50.6796 9.69876C51.3524 9.74299 52.0253 9.83144 52.6918 9.94201C52.7835 9.9578 52.8435 10.1853 52.9193 10.3148C52.7803 10.3653 52.6413 10.4633 52.5055 10.4633C51.7189 10.4506 50.9323 10.4285 50.1457 10.3843C49.7603 10.3622 49.3813 10.28 48.999 10.2263C49.0464 10.0589 49.0938 9.89146 49.1443 9.72088V9.71772Z" fill="#DCC3A2"/>
<path d="M84.2816 229.174C85.2419 228.966 86.2022 228.877 87.1057 229.376C87.39 229.534 87.6206 229.784 87.8133 230.15C86.575 229.386 85.2924 229.427 83.9814 229.676C84.0825 229.509 84.1805 229.341 84.2816 229.174Z" fill="#FFA653"/>
<path d="M83.3233 230.69C84.0277 230.763 84.748 230.775 85.4303 230.94C85.7809 231.025 86.0652 231.382 86.378 231.619C86.3338 231.698 86.2927 231.777 86.2485 231.852C85.702 231.634 85.1713 231.312 84.6058 231.23C84.0246 231.148 83.4117 231.303 82.8115 231.357C82.9284 231.195 83.0453 231.031 83.1622 230.87C83.2159 230.81 83.2727 230.75 83.3264 230.69H83.3201H83.3233Z" fill="#FFA653"/>
<path d="M81.7696 45.5862C81.1378 45.5261 80.506 45.4945 79.8806 45.3903C79.7353 45.365 79.631 45.0997 79.5078 44.9449C79.6752 44.8311 79.8521 44.61 80.0038 44.6258C80.604 44.6858 81.1947 44.8248 81.7886 44.9322C81.7823 45.1502 81.7728 45.3682 81.7665 45.5862H81.7696Z" fill="#5B7FB9"/>
<path d="M51.5792 102.436C51.4245 101.166 51.2728 99.8991 51.118 98.6292C51.0833 98.228 51.0485 97.8268 51.0106 97.4224C50.938 96.2251 50.9317 95.0215 50.7863 93.8337C50.3093 89.9923 49.785 86.1573 49.2764 82.3222C49.409 82.2811 49.5512 82.259 49.6712 82.1958C52.0468 80.929 54.5645 80.7079 57.1769 81.1312C58.5637 81.3555 59.9505 81.5861 61.3373 81.8136C62.1396 85.6234 62.8946 89.4458 63.7602 93.2398C64.4236 96.1398 65.2291 99.0114 65.9714 101.892C62.4429 102.534 58.8764 102.742 55.2973 102.749C54.059 102.749 52.8176 102.543 51.5792 102.433V102.436Z" fill="#FDA285"/>
<path d="M56.8975 124.114C57.1818 122.825 57.4882 121.536 57.7472 120.241C58.1484 118.229 58.0284 116.204 57.7599 114.194C57.5135 112.359 57.1754 110.533 56.9006 108.701C56.8785 108.552 57.0301 108.375 57.0996 108.214C57.2418 108.347 57.4819 108.461 57.5135 108.619C57.7599 109.813 58.06 111.004 58.1579 112.214C58.3443 114.453 58.5401 116.709 58.4738 118.952C58.4264 120.509 57.9589 122.057 57.6335 123.602C57.5798 123.858 57.2955 124.066 57.1186 124.297C57.0459 124.237 56.9733 124.177 56.9006 124.117L56.8975 124.114Z" fill="#DB8740"/>
<path d="M64.5781 137.486C67.715 136.276 70.8455 135.06 73.9887 133.862C74.4815 133.676 75.009 133.581 75.5176 133.442C75.5492 133.546 75.5776 133.647 75.6092 133.752C71.9796 135.164 68.3499 136.576 64.7171 137.988C64.6697 137.821 64.6224 137.653 64.5781 137.489V137.486Z" fill="#4D3F4A"/>
<path d="M75.0977 149.882C75.1924 149.576 75.284 149.266 75.3788 148.96L75.6062 149.055C75.4388 149.333 75.2746 149.614 75.1071 149.892L75.0977 149.882Z" fill="#BF7E3F"/>
<path d="M72.7426 86.7122C73.9209 86.867 75.096 87.0249 76.2743 87.1797C77.6169 87.3534 78.9563 87.524 80.2988 87.6978C80.2957 88.1432 80.3115 88.5886 80.283 89.0309C80.0682 92.3953 79.8439 95.7565 79.626 99.1177C79.5122 100.176 79.3985 101.231 79.2816 102.289C76.8303 102.008 74.4516 102.394 72.1045 103.082C72.1582 99.9043 72.1677 96.7232 72.2814 93.5452C72.3635 91.2643 72.5847 88.9898 72.7426 86.7122Z" fill="#2254B5"/>
<path d="M72.7593 86.7089C72.6014 88.9865 72.3802 91.2611 72.2981 93.5419C72.1844 96.7199 72.1749 99.9011 72.1212 103.079C72.1465 104.01 72.5993 104.612 73.4796 104.886C75.1633 105.404 76.1362 106.775 77.3019 107.916C77.2419 108.001 77.1787 108.089 77.1187 108.175C76.8691 107.991 76.5816 107.843 76.3732 107.619C75.3339 106.503 74.2061 105.442 72.6519 105.268C71.5715 105.145 70.4438 105.398 69.3413 105.518C68.8485 105.572 68.3684 105.707 67.8819 105.805C67.8377 104.974 67.7618 104.147 67.7524 103.316C67.7271 101.477 67.6355 99.6294 67.7524 97.7971C68.0114 93.7504 68.3842 89.71 68.7127 85.6695C68.738 85.3631 68.7664 85.0598 68.7917 84.7534C70.1153 85.4042 71.4389 86.0581 72.7593 86.712V86.7089Z" fill="#4D404C"/>
<path d="M79.6318 99.1194C79.853 95.7582 80.0741 92.3938 80.2889 89.0326C80.3173 88.5903 80.3015 88.1449 80.3047 87.6995C81.205 88.1101 82.1337 88.464 82.9993 88.941C84.5251 89.7813 86.0098 90.6974 87.5103 91.5788C85.2895 92.8645 83.8743 94.7599 83.4131 97.284C83.2046 98.4244 83.2836 99.6122 83.1256 100.765C83.0182 101.542 82.7402 102.304 81.7736 102.446C81.0597 101.337 80.3458 100.228 79.6318 99.1194Z" fill="#0C2C7E"/>
<path d="M71.9179 109.263C72.8277 110.909 73.7312 112.543 74.6157 114.144C72.774 114.748 70.7302 115.417 68.7432 116.068C68.7432 114.387 68.7463 112.678 68.7432 110.966C68.74 110.091 69.3718 109.864 70.0383 109.69C70.6765 109.526 71.324 109.396 71.9179 109.263Z" fill="#4D3F4A"/>
<path d="M107.671 133.799C107.472 133.499 107.251 133.208 107.074 132.896C105.895 130.811 104.752 128.707 103.539 126.647C103.147 125.984 102.62 125.383 102.07 124.84C99.1605 121.959 96.3743 118.98 93.8092 115.774C90.6471 111.825 86.6857 108.761 82.2822 106.281C82.0926 106.173 81.9378 106.012 81.8525 105.703C81.9979 105.709 82.1811 105.662 82.2853 105.731C84.6261 107.32 87.0427 108.814 89.2729 110.549C92.2739 112.886 94.6021 115.894 96.9903 118.835C98.2507 120.386 99.6691 121.83 101.144 123.185C103.34 125.203 104.91 127.636 106.255 130.248C106.726 131.165 107.238 132.062 107.712 132.975C107.822 133.186 107.86 133.436 107.933 133.666L107.674 133.796L107.671 133.799Z" fill="#4D3F4A"/>
<path d="M81.2749 111.01C81.417 111.054 81.5971 111.054 81.6982 111.142C84.6265 113.774 87.6876 116.276 90.4295 119.087C93.8412 122.584 95.825 126.928 96.8738 131.692C96.9307 131.951 96.8801 132.232 96.6811 132.579C96.5863 132.428 96.4347 132.286 96.4031 132.118C95.6386 128.027 93.9328 124.366 91.453 121.036C89.4692 118.37 86.9041 116.342 84.3138 114.327C83.1355 113.407 81.973 112.466 81.2686 111.006L81.2749 111.01Z" fill="#4D3F4A"/>
<path d="M98.6921 116.688C98.8785 116.596 98.9448 116.536 98.9701 116.552C100.309 117.339 101.63 118.157 102.423 119.56C102.562 119.806 102.593 120.147 102.584 120.444C102.555 121.256 102.217 121.471 101.462 121.202C100.158 120.738 99.2481 119.803 98.3572 118.773C97.2958 117.544 96.0765 116.451 94.9266 115.298C94.816 115.184 94.7213 115.055 94.6865 114.755C94.8539 114.796 95.0719 114.786 95.1793 114.89C96.3197 115.977 97.438 117.086 98.5689 118.182C99.3649 118.953 100.145 119.743 100.992 120.454C101.213 120.64 101.655 120.564 101.996 120.608C101.946 120.267 102.022 119.809 101.826 119.604C101.128 118.868 100.338 118.217 99.5861 117.531C99.2954 117.266 99.0143 116.994 98.6889 116.691L98.6921 116.688Z" fill="#4D3F4A"/>
<path d="M79.6383 99.1138C80.3522 100.223 81.0661 101.331 81.78 102.44C80.9524 102.39 80.1216 102.336 79.2939 102.285C79.4077 101.23 79.5214 100.172 79.6383 99.1138Z" fill="#EF9D4E"/>
<path d="M65.9346 118.426C66.7527 118.975 66.8538 122.365 65.9346 123.259V118.426Z" fill="#4D404C"/>
<path d="M110.505 25.7951C108.092 29.8892 100.779 32.7482 94.5306 29.9777C90.1744 28.0475 85.436 21.6694 86.728 19.3127C88.1179 24.7811 91.2105 28.6888 96.6345 30.1041C102.008 31.5067 106.604 29.6397 110.505 25.792V25.7951Z" fill="#DCC3A2"/>
<path d="M105.64 33.0269C109.999 30.7587 113.12 27.3849 114.835 22.76C114.924 22.8011 115.012 22.839 115.104 22.8801C115.088 23.1265 115.135 23.3981 115.05 23.6161C113.986 26.2887 112.466 28.658 110.22 30.4902C109.171 31.3463 108.05 32.1203 106.941 32.9037C106.628 33.1248 106.243 33.2354 105.889 33.3965C105.807 33.2733 105.722 33.1533 105.64 33.0301V33.0269Z" fill="#DCC3A2"/>
<path d="M78.9431 8.66919C79.1737 9.93281 79.4738 11.187 79.6191 12.46C79.9919 15.7613 79.9287 19.1256 81.1291 22.2942C81.5177 23.324 82.0042 24.316 82.3201 25.4943C82.1305 25.3426 81.8431 25.2321 81.7704 25.0394C81.2018 23.542 80.4626 22.0636 80.1846 20.5093C79.7266 17.9505 79.597 15.3379 79.2906 12.7507C79.1769 11.7903 78.9494 10.8426 78.7757 9.88858C78.7062 9.51265 78.6462 9.13357 78.583 8.75448C78.703 8.72605 78.8263 8.69762 78.9463 8.66919H78.9431Z" fill="#E3CEB1"/>
<path d="M76.1592 5.96108C74.2859 4.75749 72.3905 4.50476 70.3467 4.46054C71.3891 3.41173 75.281 4.40052 76.1592 5.96108Z" fill="#DCC3A2"/>
<path d="M38.6931 87.3634C38.7152 87.6983 38.7373 88.0331 38.7594 88.368C37.5653 87.4677 36.3586 86.5831 35.1772 85.6639C29.6142 81.3296 24.0671 76.9796 18.501 72.6517C16.4919 71.0912 14.1669 70.4878 11.6398 70.3804C9.09049 70.273 6.51594 70.213 4.18147 68.8893C2.04286 67.6794 0.564465 65.4744 0.971971 63.4715C1.34473 61.6425 1.74592 59.7913 2.75046 58.1454C4.24149 55.7034 5.79254 53.3342 8.32918 51.8115C9.9055 50.8638 11.5955 50.2383 13.4088 49.9919C16.3814 49.5907 18.8548 52.4496 18.2546 55.476C17.7618 57.9685 16.4319 59.9808 14.8556 61.8952C13.6994 63.2978 12.5495 64.6783 11.0332 65.7176C8.90411 67.174 6.69284 67.8437 4.20674 66.6116C3.06636 66.0462 2.50722 65.1458 2.43773 63.9012C2.42825 63.7337 2.45984 63.5474 2.39666 63.4052C2.33348 63.263 2.17237 63.162 2.05549 63.0451C1.96072 63.1904 1.78066 63.3389 1.78698 63.4779C1.87859 65.1932 2.40614 66.7001 3.90032 67.7236C5.48612 68.8135 7.27093 69.2558 9.16315 69.4169C11.1533 69.5875 13.1687 69.6917 15.1178 70.0834C17.626 70.5889 19.5214 72.3074 21.4736 73.8332C26.3731 77.6557 31.2443 81.516 36.1312 85.3574C36.9841 86.0271 37.8402 86.6906 38.6962 87.3571L38.6931 87.3634ZM7.77636 54.6515L7.60894 54.8189C7.58367 54.8284 7.55524 54.8347 7.53944 54.8505C7.52681 54.86 7.53312 54.8884 7.52996 54.9074C7.55839 54.8789 7.58683 54.8505 7.61526 54.8221C7.67212 54.7652 7.72582 54.7115 7.78268 54.6546C7.80795 54.6483 7.83638 54.6483 7.8585 54.6325C7.87113 54.6231 7.87113 54.5946 7.87429 54.5757C7.8427 54.6009 7.81111 54.6262 7.77952 54.6483L7.77636 54.6515ZM6.8034 54.1839C6.86027 54.1271 6.91397 54.0702 6.97083 54.0134C7.07507 53.9502 7.17616 53.8838 7.28041 53.8207C7.33727 53.767 7.39413 53.7101 7.45099 53.6564C7.50469 53.5995 7.56155 53.5427 7.61526 53.4858C7.70371 53.4289 7.79216 53.3689 7.88061 53.312C7.84902 53.2805 7.81427 53.2457 7.78268 53.2141C7.72582 53.3026 7.66896 53.391 7.6121 53.4826C7.55524 53.5363 7.49837 53.59 7.43835 53.6469C7.38465 53.7038 7.32779 53.7606 7.27409 53.8175C7.16037 53.8712 7.04349 53.9249 6.92976 53.9786C6.8729 54.0355 6.81604 54.0892 6.75918 54.146C6.74338 54.1934 6.73075 54.2376 6.71495 54.285C6.74338 54.2534 6.77497 54.2219 6.8034 54.1903V54.1839ZM5.40399 55.8045C5.29658 55.9214 5.19234 56.0383 5.08809 56.1552C5.02807 56.2626 4.97121 56.3732 4.91119 56.4806C4.79747 56.6448 4.68374 56.8123 4.57002 56.9765C3.9635 57.9811 3.33171 58.9699 2.75994 59.9934C2.56093 60.3504 2.50722 60.7864 2.38718 61.1844C2.42825 61.197 2.46932 61.2065 2.51038 61.2191C3.21167 59.8165 3.9098 58.4139 4.61109 57.0113C4.72165 56.8439 4.83222 56.6733 4.94278 56.5058C4.99964 56.3953 5.05966 56.2879 5.11652 56.1773C5.22709 56.0636 5.33765 55.9499 5.44505 55.8361C5.50823 55.7319 5.56825 55.6245 5.63143 55.5202C5.7957 55.3496 5.95996 55.179 6.12423 55.0085C6.15266 54.9737 6.18425 54.9421 6.21268 54.9074C6.16214 54.92 6.11159 54.9326 6.06105 54.9484C5.89994 55.1253 5.73884 55.3022 5.58089 55.4792C5.52087 55.5866 5.46085 55.694 5.40399 55.8045ZM8.01644 54.4303C9.2895 53.8586 10.3478 53.2836 11.4692 52.9045C12.8844 52.4244 13.8542 52.9582 14.0722 54.2661C14.1796 54.9137 14.2301 55.6403 14.05 56.2563C13.1213 59.3901 11.1786 61.7593 8.31654 63.3199C7.76373 63.62 7.01821 63.7495 6.3959 63.6769C5.98523 63.6295 5.4103 63.1335 5.30922 62.7355C5.14495 62.1005 5.14495 61.3139 5.37872 60.7074C5.80202 59.6017 6.35483 58.515 7.03085 57.542C7.69423 56.5848 8.57874 55.7793 9.46325 54.7936C9.21685 54.8537 9.09681 54.8505 9.02099 54.9074C6.60755 56.6543 5.01859 58.9446 4.61741 61.9299C4.30151 64.2866 5.69145 65.348 7.87429 64.375C9.04626 63.8538 10.1961 63.1556 11.1596 62.3122C13.3045 60.4294 15.1273 58.2402 15.5474 55.3022C15.8538 53.1509 15.1241 52.2727 13.0803 52.3296C12.6664 52.3422 12.2463 52.3991 11.8451 52.5002C10.4773 52.8382 9.14103 53.252 8.0196 54.4367L8.01644 54.4303ZM8.97361 52.3327C9.00204 52.4022 9.02731 52.4749 9.05574 52.5444C9.2516 52.4591 9.45061 52.3738 9.64647 52.2885C10.9322 51.7136 12.2589 51.3598 13.6899 51.4514C15.1557 51.5461 15.9581 52.1242 16.3529 53.5458C16.6846 54.7431 16.533 55.9183 16.0465 57.0555C15.1083 59.2669 13.75 61.156 11.9778 62.7987C10.6384 64.037 9.19789 64.991 7.4352 65.4681C5.73568 65.9261 4.18779 65.2153 3.95718 63.819C3.77712 62.7197 3.61602 61.6172 4.07407 60.5336C4.16568 60.3157 4.17515 60.0661 4.22254 59.8323C4.13409 59.8134 4.04564 59.7944 3.95718 59.7786C3.68236 61.0359 3.14533 62.3059 3.21167 63.5442C3.27485 64.6973 3.96666 65.825 5.3029 66.2199C7.00558 66.7254 8.54715 66.3084 10.0066 65.4112C12.0915 64.1286 13.573 62.2458 14.9914 60.322C16.0813 58.8404 17.0384 57.264 17.427 55.4223C17.8661 53.3342 16.5899 51.1355 14.6471 50.8638C12.578 50.5763 10.7489 51.4229 8.97677 52.3391L8.97361 52.3327ZM8.6893 52.7624C8.66087 52.7181 8.63244 52.6739 8.60401 52.6328C8.44922 52.7308 8.29443 52.8256 8.13964 52.9235C8.17123 52.9709 8.19966 53.0151 8.23125 53.0625C8.38288 52.9645 8.53767 52.8635 8.6893 52.7655V52.7624ZM4.54791 59.0299C4.53843 59.0078 4.52896 58.9825 4.51632 58.9604C4.51 59.0046 4.50684 59.0489 4.50052 59.0899C4.51632 59.071 4.52896 59.0489 4.54475 59.0299H4.54791ZM6.3959 54.5883L6.35483 54.5599L6.34851 54.6073L6.3959 54.5883Z" fill="#B1A86B"/>
<path d="M38.7588 88.3621C38.7967 88.4252 38.8346 88.4853 38.8725 88.5484C38.8346 88.4884 38.7967 88.4252 38.7588 88.3621Z" fill="#B1A86B"/>
<path d="M89.0097 83.2922C87.4997 82.9732 85.9613 82.7457 84.4861 82.3066C83.0519 81.8801 81.902 80.9577 81.1123 79.6467C81.7978 77.7829 82.4833 75.919 83.1688 74.0552C84.2428 75.6789 85.3232 77.3027 86.3909 78.9296C87.2786 80.2817 88.1536 81.64 89.0318 82.9953C89.0255 83.0964 89.016 83.1943 89.0097 83.2954V83.2922Z" fill="#0C2C7E"/>
<path d="M83.1741 74.0556C82.4886 75.9194 81.8031 77.7833 81.1176 79.6471C80.7385 79.2396 80.3594 78.8352 79.9803 78.4277C79.8129 75.0349 79.6455 71.6421 79.4812 68.2493C79.4686 67.9713 79.5033 67.6933 79.5191 67.4153C80.7385 69.6298 81.9547 71.8411 83.1741 74.0524V74.0556Z" fill="#CB6A5A"/>
<path d="M89.0098 83.298C89.0161 83.1969 89.0256 83.099 89.0319 82.9979C91.7802 82.8147 94.4179 83.2222 96.885 84.5016C97.3305 84.7322 97.779 84.9692 98.1834 85.2598C98.4266 85.4336 98.5909 85.7179 98.7899 85.9548C98.7393 86.0274 98.6888 86.1001 98.6383 86.1696C98.4393 86.0906 98.2213 86.0432 98.0475 85.9264C95.7415 84.3753 93.1669 83.6898 90.4281 83.516C89.948 83.4844 89.3888 83.9962 89.0098 83.3012V83.298Z" fill="#E38267"/>
<path d="M61.3551 81.8134C59.9684 81.5859 58.5816 81.3553 57.1948 81.131C54.5823 80.7077 52.0615 80.9288 49.6891 82.1956C49.5691 82.2588 49.4269 82.2809 49.2942 82.322C49.1932 82.3694 49.0889 82.4168 48.9878 82.4673C48.574 82.5368 48.4413 82.3283 48.4603 81.9492C48.6056 79.2261 47.7242 76.8379 46.2458 74.5728C45.1465 72.8891 44.679 70.9557 44.7643 68.9182C44.7833 68.4727 44.7517 68.0273 44.7422 67.5819C44.8243 66.8995 44.9033 66.2203 44.9854 65.538C45.652 63.592 46.3185 61.6492 46.985 59.7032C47.3831 58.8218 47.7811 57.9405 48.1791 57.0622C49.2879 55.1447 50.3651 53.2082 51.5181 51.3159C52.1215 50.3272 52.8607 49.4237 53.5399 48.4791C53.919 47.7999 54.298 47.1176 54.6803 46.4384L54.6866 46.432C55.3973 45.8097 56.0955 45.1716 56.822 44.5714C57.596 43.9364 58.3604 43.2225 59.5008 43.7184C59.703 44.6819 59.3997 45.418 58.6637 46.094C57.6623 47.0133 56.8694 48.1948 55.7859 48.9909C53.9063 50.3682 53.4799 52.6617 52.1057 54.3423C51.6098 54.9488 51.4107 55.7891 50.9906 56.4715C49.7902 58.4301 50.7252 61.5955 53.363 62.7896C54.159 63.1497 55.2236 63.0455 56.1523 62.9665C58.1551 62.7991 59.6398 61.5923 61.0582 60.2876C61.5984 59.7917 62.1828 59.3462 62.7482 58.8755C62.565 59.8548 62.4134 60.8436 62.1923 61.8166C60.9982 67.0701 60.717 72.3994 60.916 77.7603C60.9666 79.1156 61.2035 80.4645 61.3551 81.8165V81.8134Z" fill="#5595E7"/>
<path d="M56.4346 32.6113C58.9775 32.7725 61.0372 31.7237 63.0621 30.5801C63.1252 30.6717 63.1884 30.7633 63.2548 30.8518C62.9389 31.2308 62.6482 31.6415 62.2976 31.9827C61.3373 32.9178 60.3169 33.7676 58.9586 34.0677C57.9035 34.3014 57.0948 33.9097 56.4377 32.605L56.4346 32.6113Z" fill="#FCEDE0"/>
<path d="M61.4069 18.2588C62.6674 18.4388 63.8235 18.7579 64.727 19.6993C65.0682 20.0563 65.2293 20.4764 64.8312 20.7702C64.6101 20.9345 63.9973 20.9092 63.8172 20.7228C62.9959 19.8699 62.0166 19.6835 60.9141 19.772C60.4403 19.8099 59.8401 19.8888 59.7706 19.2634C59.7011 18.6473 60.2539 18.4736 60.7783 18.3946C60.9963 18.3599 61.2079 18.2998 61.4069 18.2556V18.2588Z" fill="#403829"/>
<path d="M53.8262 24.2373C53.8231 25.1693 53.3682 25.9369 52.8185 25.9464C52.291 25.9559 51.7919 25.2798 51.675 24.3921C51.5423 23.3876 52.0098 22.3609 52.6258 22.3072C53.2513 22.2503 53.8294 23.1822 53.8262 24.2373Z" fill="#57272C"/>
<path d="M60.4111 23.2922C60.4964 22.2149 60.8629 21.5894 61.482 21.5958C62.0759 21.6021 62.5466 22.2813 62.5624 23.2448C62.5687 23.6555 62.5561 24.1009 62.4013 24.4673C62.2781 24.7548 61.9401 25.0991 61.6652 25.1276C61.3967 25.1528 60.9797 24.878 60.8281 24.619C60.5975 24.2304 60.5438 23.7407 60.4143 23.2953L60.4111 23.2922Z" fill="#57272C"/>
<path d="M52.7491 19.4611C52.9703 19.4611 53.2483 19.3758 53.403 19.48C53.6431 19.6411 53.7979 19.9318 53.9874 20.1656C53.7663 20.3203 53.5452 20.6047 53.3177 20.611C52.2279 20.6394 51.3118 20.9079 50.7021 21.922C50.5979 22.0989 50.1588 22.0768 49.8745 22.1463C49.8239 21.8209 49.6249 21.4134 49.7513 21.1796C50.3799 20.0076 51.4129 19.4421 52.7491 19.4642V19.4611Z" fill="#403829"/>
<path d="M59.49 43.7123C58.3496 43.2195 57.582 43.9303 56.8112 44.5653C56.0815 45.1655 55.3865 45.8036 54.6758 46.4259C54.7074 46.2648 54.6916 46.069 54.78 45.9521C56.3279 43.9461 58.2043 42.5245 60.8926 42.5909C60.4251 42.9636 59.9576 43.3364 59.49 43.7092V43.7123Z" fill="#9791B4"/>
<path d="M57.3473 29.5671C56.706 29.7092 55.9668 29.9082 55.5467 29.3459C55.234 28.9258 55.3003 28.215 55.2308 27.6274C55.2213 27.5579 55.4172 27.4 55.5151 27.4031C55.6162 27.4031 55.812 27.5863 55.7963 27.6369C55.3698 29.0332 56.428 29.109 57.2999 29.3554C57.3126 29.3586 57.3126 29.406 57.3473 29.5671Z" fill="#E38267"/>
<path d="M65.0654 61.2629C65.3402 60.9091 65.5961 60.5364 65.9025 60.2141C66.0447 60.0625 66.2879 60.0088 66.4869 59.9077C66.509 60.1225 66.6133 60.3689 66.5438 60.5458C66.0952 61.6641 65.2328 62.1285 63.8682 61.9295C63.9408 61.2377 63.985 60.53 64.0925 59.835C64.7337 55.6335 66.6986 52.1838 70.0597 49.5745C71.7213 48.2824 73.4114 47.0251 75.152 45.8373C75.7774 45.4108 76.5703 45.215 77.3064 44.9749C77.4769 44.918 77.7233 45.1012 77.935 45.1739C77.7897 45.3382 77.676 45.5877 77.4959 45.6541C72.9186 47.3252 69.5574 50.519 66.7934 54.3794C65.4761 56.2179 65.0749 58.4577 64.7369 60.669C64.7148 60.8175 64.7843 60.9786 64.8127 61.1334C64.898 61.1776 64.9833 61.2219 65.0686 61.2661L65.0654 61.2629Z" fill="#5B7FB9"/>
<path d="M29.9146 246.893C29.5639 247.017 29.4123 247.124 29.2859 247.102C25.4352 246.432 21.556 245.883 17.7431 245.033C13.0521 243.987 9.67198 241.027 7.24906 236.971C6.48459 235.691 5.9223 234.276 5.36632 232.886C4.7756 231.411 4.29859 231.086 2.84863 231.455C2.95288 230.937 3.44568 230.545 3.93215 230.77C4.47865 231.022 5.11676 231.383 5.38212 231.878C6.10236 233.224 6.55093 234.715 7.28065 236.055C9.52667 240.187 12.7836 243.194 17.3893 244.464C19.3605 245.007 21.4107 245.26 23.4292 245.624C25.3657 245.971 27.3084 246.293 29.248 246.631C29.4091 246.66 29.5576 246.754 29.9114 246.9L29.9146 246.893Z" fill="#FFA653"/>
<path d="M27.9536 235.647C26.4974 234.314 24.7947 234.614 23.0667 234.665C20.4732 234.741 17.8039 235.158 15.3241 234.008C14.4586 233.607 13.7036 232.962 12.9328 232.381C12.7527 232.245 12.7211 231.92 12.7717 231.623C13.334 232.094 13.8489 232.637 14.4617 233.025C16.3982 234.254 18.5715 234.403 20.7954 234.324C22.6182 234.257 24.4472 234.194 26.2699 234.261C27.047 234.289 27.802 234.665 27.9536 235.647Z" fill="#FFA653"/>
<path d="M18.6436 229.674C19.7713 229.769 20.8896 231.093 21.0033 232.486C21.0286 232.805 21.0065 233.124 21.0065 233.446C20.9243 233.465 20.839 233.484 20.7569 233.506C20.6779 233.317 20.5358 233.13 20.5295 232.941C20.4821 231.706 19.964 230.774 18.8773 230.154C18.751 230.082 18.7225 229.839 18.6499 229.671L18.6436 229.674Z" fill="#FFA653"/>
<path d="M17.9268 233.719C17.8131 233.088 17.7879 232.522 17.5983 232.02C17.4183 231.54 17.0676 231.123 16.7012 230.535C18.0279 231.05 18.6913 232.889 17.9268 233.719Z" fill="#FFA653"/>
<path d="M93.7187 225.833C93.8356 225.941 93.9493 226.048 94.0662 226.152C93.864 226.225 93.6081 226.411 93.4691 226.348C92.771 226.026 92.1708 226.206 91.738 226.734C91.0715 227.549 90.4808 228.427 89.8932 229.302C88.5822 231.264 87.0027 232.97 85.0947 234.36C84.027 235.137 82.8424 235.427 81.5504 235.023C81.4114 234.979 81.3198 234.78 81.2061 234.65C81.3672 234.597 81.5599 234.451 81.6799 234.499C83.4205 235.165 84.6398 234.173 85.796 233.156C87.6882 231.488 89.2898 229.574 90.5376 227.362C91.3115 225.991 92.215 225.603 93.7187 225.83V225.833Z" fill="#FFA653"/>
<path d="M85.6465 226.98C86.8816 226.746 88.0884 226.63 89.0139 227.745C89.0803 227.824 89.1213 227.925 89.2319 228.117C88.995 228.108 88.796 228.159 88.7296 228.086C88.0031 227.283 87.0901 227.265 86.1172 227.375C85.975 227.391 85.8044 227.119 85.6465 226.983V226.98Z" fill="#FFA653"/>
<path d="M48.9734 82.4693C49.0745 82.4219 49.1787 82.3745 49.2798 82.324C49.7884 86.1622 50.3128 89.9941 50.7898 93.8355C50.9382 95.0233 50.9446 96.2269 51.014 97.4242C50.7803 97.2789 50.5307 97.1589 50.3159 96.9883C49.4283 96.2933 48.5532 95.5857 47.6719 94.8812C47.7888 93.248 47.8519 91.6084 48.0288 89.9815C48.3037 87.4732 48.6543 84.9713 48.9702 82.4661L48.9734 82.4693Z" fill="#60525D"/>
<path d="M47.6773 94.8799C48.5587 95.5844 49.4337 96.292 50.3214 96.987C50.5362 97.1544 50.7857 97.2776 51.0195 97.4229C51.0542 97.8241 51.089 98.2253 51.1269 98.6297C49.9644 97.7104 48.8051 96.7879 47.6426 95.8687C47.6552 95.5401 47.6647 95.2116 47.6773 94.883V94.8799Z" fill="#B1A86B"/>
<path d="M44.986 65.541C44.9038 66.2234 44.8249 66.9026 44.7427 67.5849C44.4806 67.9735 44.2405 68.381 43.9498 68.7474C43.7856 68.9591 43.5423 69.1076 43.2012 69.1897C43.555 67.8345 44.3226 66.713 44.986 65.541Z" fill="#5B7FB9"/>
<path d="M54.799 11.285C57.4083 12.7602 60.1439 13.5911 63.1291 13.1204C66.1302 12.6465 68.7426 11.5566 70.0915 8.53027C70.1799 8.55239 70.2684 8.5745 70.3568 8.59661C70.3095 8.88093 70.3284 9.19683 70.202 9.44008C69.3491 11.1144 67.9371 12.2042 66.2376 12.855C62.5321 14.2797 58.8898 14.087 55.3802 12.16C55.1275 12.021 54.9095 11.822 54.6758 11.6514C54.7168 11.5282 54.7579 11.4082 54.7958 11.285H54.799Z" fill="#DCC3A2"/>
<path d="M66.8916 16.2599C67.0401 16.0704 67.1538 15.7734 67.3465 15.7071C69.4693 14.9836 70.3222 13.2462 70.8877 11.2907C70.9982 10.9053 70.9509 10.4725 71.0109 10.0682C71.033 9.90706 71.1436 9.76174 71.2162 9.61011C71.3331 9.73963 71.5511 9.87231 71.5479 10.0018C71.5479 10.4409 71.5037 10.8895 71.4058 11.3192C70.9193 13.4547 69.8737 15.1827 67.7824 16.0925C67.5108 16.2094 67.1885 16.2062 66.8916 16.2567V16.2599Z" fill="#DCC3A2"/>
<path d="M54.6736 46.4373C54.2945 47.1165 53.9154 47.7988 53.5332 48.478C53.7606 47.7135 53.7701 46.8258 54.6736 46.4373Z" fill="#9791B4"/>
<path d="M7.99272 54.4314C9.11415 53.2468 10.4504 52.8329 11.8182 52.4949C12.2194 52.397 12.6395 52.337 13.0534 52.3243C15.0972 52.2706 15.8269 53.1488 15.5205 55.297C15.1004 58.2349 13.2745 60.4273 11.1327 62.3069C10.1692 63.1504 9.01938 63.8485 7.84741 64.3698C5.66457 65.3428 4.27463 64.2813 4.59053 61.9247C4.99171 58.9394 6.58067 56.6459 8.99411 54.9021C9.06993 54.8453 9.18997 54.8484 9.43637 54.7884C8.5487 55.7709 7.66735 56.5796 7.00397 57.5368C6.32795 58.5098 5.77513 59.5965 5.35183 60.7021C5.11807 61.3087 5.12123 62.0953 5.28234 62.7302C5.38342 63.1283 5.95835 63.6242 6.36902 63.6716C6.99133 63.7443 7.73685 63.6148 8.28966 63.3147C11.1548 61.7541 13.0976 59.3848 14.0232 56.251C14.2064 55.6382 14.1527 54.9084 14.0453 54.2608C13.8273 52.953 12.8575 52.4223 11.4423 52.8993C10.3177 53.2784 9.26262 53.8533 7.98956 54.4251L7.99272 54.4314Z" fill="#65585D"/>
<path d="M8.96017 52.3273C10.7323 51.4144 12.5582 50.5646 14.6305 50.8521C16.5764 51.1237 17.8495 53.3224 17.4104 55.4106C17.025 57.2523 16.0678 58.8287 14.9748 60.3102C13.5565 62.2341 12.0717 64.1201 9.98999 65.3995C8.53055 66.2966 6.98898 66.7136 5.28631 66.2082C3.95323 65.8133 3.25826 64.6855 3.19508 63.5325C3.12874 62.2941 3.66576 61.0242 3.94059 59.7669C4.02904 59.7858 4.11749 59.8048 4.20594 59.8206C4.15856 60.0544 4.14908 60.3071 4.05747 60.5219C3.59942 61.6055 3.76053 62.7111 3.94059 63.8073C4.17119 65.2036 5.71908 65.9144 7.4186 65.4563C9.1813 64.9825 10.6218 64.0253 11.9612 62.7869C13.7365 61.1474 15.0917 59.2551 16.0299 57.0438C16.5132 55.9065 16.6649 54.7314 16.3363 53.5341C15.9446 52.1125 15.1391 51.5344 13.6733 51.4396C12.2423 51.348 10.9156 51.7018 9.62987 52.2768C9.43401 52.3652 9.235 52.4474 9.03914 52.5327C9.01071 52.4632 8.98544 52.3905 8.95701 52.321L8.96017 52.3273Z" fill="#65585D"/>
<path d="M4.60965 57.0152C3.90836 58.4178 3.21023 59.8205 2.50894 61.2231C2.46788 61.2104 2.42681 61.201 2.38574 61.1883C2.50578 60.7871 2.55948 60.3512 2.7585 59.9974C3.33027 58.9738 3.96206 57.985 4.56858 56.9805L4.60965 57.0152Z" fill="#65585D"/>
<path d="M5.56543 55.4751C5.72654 55.2981 5.88764 55.1212 6.04875 54.9443C6.0677 54.9664 6.08982 54.9854 6.11193 55.0075C5.94766 55.1781 5.7834 55.3487 5.61597 55.5161L5.56543 55.4751Z" fill="#65585D"/>
<path d="M8.67271 52.7633C8.52108 52.8612 8.36629 52.9623 8.21466 53.0602C8.18307 53.0129 8.15464 52.9686 8.12305 52.9212C8.27784 52.8233 8.43262 52.7285 8.58741 52.6306C8.61584 52.6748 8.64427 52.7191 8.67271 52.7601V52.7633Z" fill="#65585D"/>
<path d="M4.91866 56.5072C4.80809 56.6746 4.69753 56.8452 4.58696 57.0126L4.5459 56.9779C4.65962 56.8105 4.77334 56.6462 4.88707 56.4788L4.91866 56.5072Z" fill="#65585D"/>
<path d="M5.07031 56.1588C5.17772 56.0419 5.28196 55.925 5.38937 55.8081L5.43043 55.8429C5.31987 55.9566 5.20931 56.0703 5.09874 56.184L5.07031 56.1588Z" fill="#65585D"/>
<path d="M7.59961 53.4741C7.65647 53.3857 7.71333 53.2972 7.77019 53.2087C7.80178 53.2403 7.83653 53.2751 7.86812 53.3067C7.77967 53.3635 7.69122 53.4236 7.60277 53.4804L7.59961 53.4773V53.4741Z" fill="#65585D"/>
<path d="M5.40918 55.8017C5.4692 55.6943 5.52922 55.5869 5.58608 55.4763L5.63662 55.5174C5.57345 55.6248 5.51343 55.729 5.45025 55.8364L5.40918 55.8017Z" fill="#65585D"/>
<path d="M4.53055 59.0243C4.51476 59.0433 4.50212 59.0654 4.48633 59.0844C4.49265 59.0401 4.4958 58.9959 4.50212 58.9548C4.5116 58.9769 4.52108 59.0022 4.53371 59.0243H4.53055Z" fill="#65585D"/>
<path d="M4.88477 56.4804C4.94479 56.373 5.00165 56.2624 5.06167 56.155L5.0901 56.1803C5.03324 56.2909 4.97322 56.3983 4.91636 56.5088L4.88477 56.4804Z" fill="#65585D"/>
<path d="M7.27252 53.82C7.16827 53.8832 7.06719 53.9495 6.96294 54.0127L6.92188 53.9717C7.0356 53.918 7.15248 53.8643 7.2662 53.8105L7.27568 53.82H7.27252Z" fill="#65585D"/>
<path d="M6.388 54.5831L6.33594 54.5993L6.34245 54.5505L6.388 54.5831Z" fill="#65585D"/>
<path d="M7.58995 54.8236C7.56224 54.8513 7.53454 54.879 7.50684 54.9067C7.50684 54.8883 7.50684 54.8606 7.51607 54.8513C7.53454 54.8359 7.56224 54.8298 7.58379 54.8206L7.58995 54.8267V54.8236Z" fill="#65585D"/>
<path d="M6.05664 54.9463C6.10718 54.9337 6.15773 54.9211 6.20827 54.9053C6.17984 54.94 6.14825 54.9716 6.11982 55.0064C6.09771 54.9874 6.07875 54.9653 6.05664 54.9432V54.9463Z" fill="#65585D"/>
<path d="M7.41309 53.643C7.46995 53.5893 7.52681 53.5356 7.58683 53.4788L7.58999 53.4819C7.53629 53.5388 7.47942 53.5956 7.42572 53.6525L7.41309 53.6399V53.643Z" fill="#65585D"/>
<path d="M6.73535 54.1398C6.79221 54.083 6.84907 54.0293 6.90593 53.9724L6.947 54.0135C6.8933 54.0703 6.83644 54.1272 6.78274 54.1841L6.73535 54.1367V54.1398Z" fill="#65585D"/>
<path d="M7.26074 53.811C7.31444 53.7541 7.37131 53.6972 7.42501 53.6404L7.43764 53.653C7.38078 53.7067 7.32392 53.7636 7.27022 53.8173L7.26074 53.8078V53.811Z" fill="#65585D"/>
<path d="M7.60277 54.8186L7.77019 54.6511H7.77335C7.71649 54.7111 7.66279 54.768 7.60593 54.8217L7.59961 54.8154L7.60277 54.8186Z" fill="#65585D"/>
<path d="M7.75293 54.6521C7.78371 54.6275 7.81449 54.6028 7.84528 54.5813C7.83912 54.5998 7.8422 54.6275 7.82989 54.6367C7.81142 54.649 7.78063 54.6521 7.75601 54.6583L7.75293 54.6552V54.6521Z" fill="#65585D"/>
<path d="M6.79255 54.1783C6.76412 54.2099 6.73253 54.2414 6.7041 54.273C6.7199 54.2256 6.73253 54.1814 6.74833 54.134L6.79571 54.1783H6.79255Z" fill="#65585D"/>
</svg>
