<svg width="142" height="81" viewBox="0 0 142 81" fill="none" xmlns="http://www.w3.org/2000/svg">
<path d="M124.87 16.0112L72.0413 59.6376C68.9699 59.2907 65.7773 60.2468 63.4237 62.6004C59.323 66.704 59.323 73.3557 63.4237 77.4551C67.5273 81.5587 74.1763 81.5587 78.2798 77.4551C80.632 75.1029 81.5881 71.9131 81.2426 68.846L124.87 16.0112ZM74.5838 73.7576C72.5221 75.8207 69.1828 75.8207 67.1198 73.7576C65.0609 71.6988 65.0609 68.3609 67.1198 66.2992C69.1828 64.2376 72.5221 64.2376 74.5838 66.2992C76.6426 68.3609 76.6426 71.6988 74.5838 73.7576Z" fill="#FFA653"/>
<path d="M100.479 30.8164L116.574 17.1956C104.207 6.49524 88.1073 0 70.5098 0C31.6315 0 0 31.6287 0 70.5056H20.6999C20.6999 43.0412 43.0454 20.6985 70.5098 20.6985C81.7658 20.6999 92.1263 24.496 100.479 30.8164Z" fill="#0C2C7E"/>
<path d="M120.355 28.2455H127.056C126.608 27.6772 126.156 27.1075 125.684 26.5491H121.788L120.355 28.2455Z" fill="#5595E7"/>
<path d="M113.214 36.6857H132.745C132.428 36.1146 132.087 35.5505 131.747 34.9893H114.649L113.214 36.6857Z" fill="#5595E7"/>
<path d="M134.078 39.2095H111.079L110.084 40.3827C110.207 40.5548 110.317 40.7339 110.44 40.9059H134.888C134.623 40.3376 134.362 39.7693 134.078 39.2095Z" fill="#5595E7"/>
<path d="M113.185 45.1254H136.677C136.459 44.5543 136.223 43.9916 135.991 43.429H112.163C112.523 43.986 112.848 44.5613 113.185 45.1254Z" fill="#5595E7"/>
<path d="M115.466 49.3476H138.082C137.911 48.7793 137.742 48.211 137.557 47.6511H114.614C114.911 48.2095 115.188 48.7778 115.466 49.3476Z" fill="#5595E7"/>
<path d="M116.781 32.466H130.141C129.758 31.8963 129.364 31.3294 128.962 30.7695H118.215L116.781 32.466Z" fill="#5595E7"/>
<path d="M117.284 53.5665H139.195C139.067 52.9997 138.926 52.4328 138.784 51.8701H116.593C116.83 52.4328 117.071 52.9926 117.284 53.5665Z" fill="#5595E7"/>
<path d="M118.657 57.7855H140.018C139.924 57.2158 139.818 56.6518 139.71 56.0891H118.127C118.302 56.6532 118.499 57.2088 118.657 57.7855Z" fill="#5595E7"/>
<path d="M119.593 62.0063H140.572C140.51 61.4394 140.458 60.8682 140.388 60.3098H119.228C119.346 60.8753 119.493 61.4267 119.593 62.0063Z" fill="#5595E7"/>
<path d="M120.136 66.2272H140.898C140.869 65.6575 140.836 65.092 140.8 64.5308H119.925C119.995 65.0962 120.09 65.6476 120.136 66.2272Z" fill="#5595E7"/>
<path d="M120.317 70.4462H141.017C141.017 69.8737 140.993 69.3152 140.985 68.7498H120.247C120.265 69.3181 120.317 69.8666 120.317 70.4462Z" fill="#5595E7"/>
</svg>
