<svg width="105" height="252" viewBox="0 0 105 252" fill="none" xmlns="http://www.w3.org/2000/svg">
<path d="M97.6103 58.065C99.048 60.6521 100.565 63.1914 101.905 65.8326C103.382 68.7475 104.296 71.8755 104.661 75.1659C104.673 75.2805 104.759 75.3855 104.811 75.4968V78.9431C103.453 81.6034 102.261 84.3719 100.706 86.8985C97.7053 91.7832 93.5762 95.5922 89.3276 99.2803C86.8937 101.396 84.6437 103.739 82.3109 105.982C81.1154 107.344 79.8923 108.68 78.7367 110.077C77.8355 111.166 76.7534 111.914 75.3923 112.076C74.1815 112.219 72.94 112.334 71.7292 112.222C69.7581 112.041 68.1979 112.808 66.8154 114.135C66.1195 114.803 65.4911 115.551 64.7799 116.2C64.5684 116.394 64.1485 116.48 63.8787 116.404C63.7377 116.362 63.5844 115.821 63.6611 115.586C63.9063 114.844 64.1638 114.071 64.5899 113.438C65.1478 112.61 65.8712 111.904 66.5242 111.147C66.5579 111.096 66.5885 111.045 66.6222 110.991C66.564 111.016 66.5027 111.038 66.4445 111.064C64.9731 112.006 63.5109 112.964 62.0272 113.886C61.6318 114.132 61.172 114.272 60.7428 114.459C60.5804 113.985 60.4148 113.511 60.2524 113.034C62.5667 110.991 64.8842 108.948 67.1985 106.905C67.1495 106.832 67.1035 106.755 67.0545 106.682C66.8092 106.819 66.5425 106.921 66.328 107.096C65.0068 108.165 63.6611 109.209 62.392 110.342C61.5521 111.093 60.8287 111.987 60.0531 112.817C59.0844 112.525 59.1733 111.866 59.5105 111.121C59.8109 110.873 60.1665 110.672 60.3995 110.37C61.8862 108.464 63.4128 106.609 65.5156 105.384C65.5984 105.336 65.6383 105.212 65.8528 104.897C65.3378 105.05 65.0252 105.066 64.7983 105.221C64.1914 105.641 63.5569 106.055 63.048 106.59C61.8034 107.894 60.6263 109.263 59.4216 110.606C58.7227 110.039 58.7564 109.266 59.1549 108.636C60.0225 107.261 61.0126 105.972 61.9506 104.645C62.1069 104.502 62.2633 104.356 62.4165 104.213C63.3484 103.64 64.2772 103.064 65.2091 102.491L65.8682 102.144C68.25 100.976 70.7145 101.059 73.2312 101.546C75.9012 102.062 77.8661 100.938 79.0647 98.4784C80.8886 94.7267 82.6205 90.9272 84.3893 87.1468C86.0875 83.7959 87.7888 80.4483 89.4809 77.0943C89.5483 76.9575 89.5544 76.7856 89.5882 76.6297C89.8058 76.5406 90.0909 76.5151 90.2288 76.3529C91.1393 75.2773 92.2397 74.5263 93.5364 74.0553C93.7081 73.9949 93.8276 73.7785 93.9686 73.6353C92.206 73.7944 90.9676 74.8541 89.7077 75.8755C88.8249 75.0163 87.9513 74.1444 87.0562 73.298C86.7741 73.0339 86.4431 72.827 86.1335 72.5947C85.4407 71.6337 84.7295 70.6822 84.0582 69.7053C83.3593 68.6807 82.6972 67.6305 82.0136 66.5772C82.2711 66.3672 82.3784 66.2527 82.5071 66.1763C86.391 63.8883 90.2564 61.5622 94.1771 59.3442C95.2346 58.7459 96.4608 58.4786 97.6103 58.0586V58.065Z" fill="#FDA680"/>
<path d="M61.9567 104.652C61.0187 105.976 60.0285 107.268 59.161 108.642C58.7625 109.273 58.7257 110.046 59.4277 110.612C59.4584 110.784 59.486 110.956 59.5166 111.125C59.1794 111.869 59.0905 112.528 60.0592 112.821C60.1266 112.891 60.191 112.964 60.2554 113.034C60.4178 113.508 60.5834 113.982 60.7458 114.459C61.175 114.272 61.6348 114.132 62.0302 113.887C63.5139 112.964 64.9761 112.009 66.4475 111.064C66.4751 111.093 66.5026 111.118 66.5272 111.147C65.8742 111.904 65.1508 112.611 64.5929 113.438C64.1668 114.071 63.9063 114.844 63.6641 115.586C63.5875 115.821 63.7377 116.366 63.8817 116.404C64.1515 116.48 64.5714 116.391 64.783 116.2C65.4941 115.551 66.1225 114.803 66.8184 114.135C68.2009 112.808 69.7612 112.041 71.7322 112.222C72.94 112.334 74.1814 112.222 75.3953 112.076C76.7564 111.914 77.8385 111.166 78.7397 110.078C79.8984 108.684 81.1215 107.344 82.3139 105.982C82.1852 109.88 82.4733 113.728 83.5524 117.486C83.8681 118.584 83.2826 119.303 82.5377 119.939C80.3521 120.62 78.194 121.435 75.9686 121.947C73.3967 122.539 70.739 122.549 68.1426 122.154C65.537 121.759 62.9744 121.651 60.4332 122.399C58.3426 123.013 56.2887 123.755 54.2073 124.41C51.9083 125.136 49.5541 125.435 47.1508 125.301C46.2373 125.113 45.3238 124.929 44.4073 124.741C43.2854 123.799 43.2731 122.517 43.3589 121.18C43.6042 117.269 43.8494 113.355 44.0456 109.441C44.205 106.291 44.3184 103.14 44.3981 99.987C44.4226 99.0387 44.2632 98.084 44.1866 97.1326C43.6042 93.594 43.0064 90.0586 42.4424 86.5169C41.5534 80.9354 40.6675 75.3538 39.8368 69.7628C39.7172 68.9609 39.4138 68.5886 38.6934 68.4167C37.8351 68.2131 36.9921 67.9299 36.143 67.6816C35.2632 67.4939 35.2602 66.9147 35.3552 66.1192C35.769 62.6411 36.1369 59.1534 37.2312 55.8185C38.767 51.1344 41.44 47.3635 45.5721 44.7733C46.3783 44.2673 47.0313 43.5036 47.8252 42.9658C49.4866 41.8361 51.1941 40.7765 52.8831 39.6882C52.4907 41.1838 52.8126 42.463 54.0204 43.4081C55.0902 44.2482 56.2612 44.4582 57.098 43.9745C56.6076 43.8695 56.1999 43.774 55.786 43.6945C54.0112 43.3445 53.0548 41.957 53.3123 40.1209C53.3398 39.9173 53.2724 39.7009 53.2509 39.4909C53.6249 39.2681 53.9989 39.0454 54.3759 38.8258C54.3606 41.7025 54.8572 42.1893 57.6069 42.1384C59.722 42.097 61.5888 41.2633 63.3882 40.2387C66.0704 38.7112 68.4185 36.7669 70.08 34.0334C70.4233 34.1289 70.7697 34.2244 71.113 34.3167C68.4246 39.4081 63.8572 41.8584 58.8422 43.7327C59.112 43.8313 59.3511 43.86 59.5411 43.7709C61.6041 42.8385 63.753 42.0557 65.6934 40.8974C68.207 39.3986 70.2485 37.3015 71.487 34.4853C75.5885 36.3214 79.6624 38.2307 83.8007 39.9714C89.0302 42.1702 92.3194 46.4693 95.2928 51.1344C96.2921 52.7 97.2087 54.3229 98.1406 55.9331C98.7966 57.0659 98.7015 57.3905 97.6133 58.062C96.4638 58.482 95.2346 58.7493 94.1801 59.3476C90.2594 61.5655 86.394 63.8917 82.5101 66.1797C82.3814 66.256 82.2741 66.3706 82.0166 66.5806C82.7032 67.6339 83.3623 68.684 84.0612 69.7087C84.7325 70.6888 85.4437 71.6371 86.1365 72.5981C85.7318 75.618 85.3058 78.6315 84.9348 81.6545C84.7111 83.4811 84.5731 85.3172 84.3953 87.1469C82.6266 90.9273 80.8947 94.7268 79.0708 98.4786C77.8753 100.938 75.9073 102.062 73.2373 101.546C70.7237 101.059 68.256 100.977 65.8742 102.144C65.7363 101.982 65.5616 101.842 65.4635 101.658C62.8027 96.5948 60.6477 91.3124 59.1242 85.7563C59.0629 85.5368 58.9311 85.3395 58.833 85.1326C58.7564 85.1549 58.6828 85.1772 58.6062 85.1963C58.643 85.4445 58.6522 85.7022 58.7196 85.9377C59.8814 90.0236 61.2302 94.0331 63.0663 97.8517C63.8051 99.3855 64.4979 100.942 65.2121 102.485C64.2802 103.058 63.3514 103.634 62.4195 104.207C61.6103 103.783 60.7979 103.36 59.9887 102.937C60.3872 103.86 61.1995 104.21 61.9536 104.639L61.9567 104.652ZM43.1474 76.5121C42.3136 80.2798 52.5275 98.5327 56.3593 100.213C55.2802 98.8159 54.051 97.5462 52.972 96.1525C51.8623 94.7237 50.8354 93.2153 49.8913 91.6624C48.9441 90.1064 48.0888 88.4834 47.2949 86.8319C46.504 85.1835 45.8143 83.4779 45.1307 81.7754C44.4594 80.0984 43.8525 78.3928 43.1443 76.509L43.1474 76.5121ZM70.4509 49.6006C70.3865 49.677 70.3221 49.7533 70.2608 49.8297C70.6624 50.2116 71.0272 50.6507 71.4716 50.9657C73.599 52.4741 75.0428 54.5489 75.8766 57.0246C77.0231 60.4168 78.1665 63.7962 79.8064 66.9752C80.4471 68.2162 81.1644 68.3085 82.0779 67.2298C82.035 67.1916 81.9982 67.1279 81.9492 67.1152C81.8633 67.0929 81.7376 67.0548 81.6825 67.0961C80.8487 67.7517 80.3705 67.2266 80.0823 66.4979C79.0861 63.984 78.0316 61.486 77.2039 58.9084C76.4376 56.5154 75.9349 54.0302 75.3003 51.5894C75.2758 51.4972 75.0857 51.4494 74.7884 51.268C74.9968 52.4454 75.1716 53.4351 75.3432 54.4247C74.1048 52.3277 72.2809 50.9594 70.4509 49.5974V49.6006ZM40.8422 54.0174C40.0606 54.848 39.1869 62.5552 39.7755 63.7708C40.1433 60.4168 40.4836 57.2887 40.8422 54.0174ZM47.9693 112.264C48.6161 113.922 53.8763 117.909 55.0565 117.823C52.7727 116.031 50.4093 114.176 47.9693 112.264ZM58.9035 118.946C61.0738 119.758 63.1062 120.515 65.0803 121.253C64.7002 120.044 60.4577 118.685 58.9035 118.946Z" fill="#2254B5"/>
<path d="M83.6735 123.754C84.0261 125.123 84.5533 126.469 84.6913 127.859C84.9917 130.898 85.1388 133.96 85.2645 137.015C85.3871 140.038 85.5373 143.07 85.4361 146.09C85.3442 148.852 84.9365 151.602 84.6667 154.357C84.4889 156.162 84.3111 157.966 84.1334 159.77C83.4007 158.962 82.757 158.03 81.914 157.374C80.8534 156.547 80.2219 155.471 79.71 154.271C79.4372 153.635 79.2594 152.954 78.9988 152.311C78.8333 151.907 78.5973 151.535 78.3919 151.147C78.2754 151.204 78.162 151.258 78.0455 151.315C78.5359 152.62 78.9314 153.976 79.5506 155.21C80.0073 156.12 80.6235 157.049 81.399 157.654C83.0635 158.952 83.9709 160.674 84.5594 162.66C84.9886 164.05 85.6017 165.412 85.8009 166.835C86.04 168.553 85.9205 170.322 85.9787 172.072C86.0278 173.59 86.132 175.108 86.1473 176.626C86.1504 176.97 85.945 177.374 85.7212 177.648C85.4944 177.928 85.1265 178.08 84.82 178.29C84.5288 178.386 84.2406 178.491 83.9464 178.57C78.7505 180.002 73.5516 181.431 68.3527 182.857C66.5349 182.567 66.2131 182.259 65.7502 180.34C65.6368 179.878 65.5203 179.417 65.4191 178.952C65.318 178.494 65.2352 178.033 65.1187 177.431C64.7815 177.59 64.5516 177.699 64.3187 177.807C64.052 176.445 63.8159 175.073 63.5155 173.718C62.3967 168.658 61.2594 163.605 60.1283 158.548C60.0118 158.03 59.8953 157.508 59.7819 156.989C59.5642 157.33 59.5121 157.645 59.5734 157.931C60.5268 162.507 61.5016 167.08 62.458 171.659C62.8994 173.759 63.3193 175.866 63.7485 177.969C63.3715 178.154 62.9944 178.335 62.6174 178.52C61.8357 178.656 61.0571 178.815 60.2723 178.924C57.7342 179.267 55.1562 179.404 52.6702 179.98C50.6439 180.451 48.679 180.865 46.6191 180.464C46.196 179.181 45.5615 177.931 45.3837 176.613C44.6695 171.29 44.0441 165.953 43.4893 160.61C43.1061 156.941 42.7138 153.256 42.6555 149.575C42.5911 145.565 42.8854 141.549 43.0693 137.54C43.1674 135.376 43.3085 133.215 43.5169 131.061C43.6978 129.196 44.0043 127.347 44.2526 125.492C45.9048 125.747 47.551 126.052 49.2063 126.243C50.8401 126.431 52.4862 126.529 54.1293 126.612C54.6719 126.641 55.3003 126.841 55.7386 126.24C54.2458 126.036 52.7683 125.96 51.2907 125.867C50.9045 125.842 50.5244 125.762 50.1412 125.705C52.0724 125.396 54.0404 125.234 55.9287 124.751C59.8432 123.748 63.8006 123.188 67.8224 123.229C70.333 123.255 72.8404 123.459 75.351 123.579C75.305 123.621 75.2652 123.691 75.2131 123.7C72.8803 124.168 70.5537 124.671 68.2148 125.081C66.5227 125.381 64.8428 125.855 63.0802 125.342C62.5836 125.199 61.9552 125.543 61.3851 125.661C61.4096 125.753 61.4341 125.845 61.4586 125.937C64.9348 125.549 66.9825 127.408 68.2914 130.577C68.4324 129.632 68.1443 128.792 67.5649 128.111C66.958 127.398 66.2284 126.8 65.5172 126.119C68.5458 125.543 71.5131 124.992 74.4743 124.41C75.3878 124.232 76.2921 123.977 77.1994 123.758C79.3605 123.758 81.5216 123.758 83.6827 123.758L83.6735 123.754ZM49.4055 131.866L48.9825 131.933C49.053 132.693 49.0315 133.476 49.2063 134.211C49.85 136.948 50.506 139.681 51.2539 142.386C51.8517 144.553 53.7522 145.454 55.4413 146.612C53.6143 141.982 52.4004 137.199 51.8854 132.219C51.7015 134.408 51.9375 136.547 52.474 138.641C53.0257 140.798 53.6572 142.933 54.2703 145.135C53.133 144.585 52.3422 143.719 51.9007 142.571C50.8585 139.853 50.0615 137.056 49.7335 134.135C49.6477 133.374 49.5159 132.62 49.4055 131.866ZM70.6027 133.365C70.382 135.691 75.8507 144.076 77.9781 144.623C77.1197 141.832 76.2951 139.147 75.4706 136.461C75.3326 136.502 75.1916 136.544 75.0537 136.585L76.9726 143.331C74.0176 140.56 72.4971 136.833 70.6027 133.368V133.365Z" fill="#73B6FF"/>
<path d="M68.3564 182.856C73.5554 181.428 78.7512 179.999 83.9501 178.57C84.2444 178.487 84.5325 178.382 84.8237 178.29C86.1235 182.672 87.4324 187.051 88.7229 191.439C90.274 196.715 91.6841 202.042 91.9079 207.575C92.0734 211.671 91.9385 215.785 91.773 219.881C91.5982 224.12 91.3837 228.349 91.9814 232.568C92.0274 232.896 92.1929 233.208 92.3002 233.529C92.2297 235.696 91.0771 236.915 89.3145 236.549C88.116 236.301 87.1933 235.553 86.7641 234.312C86.4055 233.268 86.1357 232.193 85.7985 231.139C84.9862 228.603 83.7202 227.878 81.3231 228.555C78.6592 218.723 76.0598 208.871 73.3101 199.063C71.7866 193.625 70.0148 188.26 68.3564 182.86V182.856Z" fill="#FEA780"/>
<path d="M46.5978 180.459C48.6577 180.86 50.6227 180.447 52.6489 179.976C55.1349 179.4 57.716 179.263 60.251 178.919C61.0358 178.814 61.8144 178.652 62.5961 178.515C63.3686 181.949 64.282 185.357 64.8737 188.825C65.4101 191.973 65.8668 195.19 65.8577 198.372C65.8485 201.299 65.1863 204.224 64.7878 207.145C64.1533 211.797 63.4145 216.434 62.8903 221.099C62.6911 222.881 62.9578 224.72 63.013 226.534C62.8198 227.078 62.6512 227.638 62.4213 228.166C62.1577 228.765 61.9738 229.532 61.514 229.885C60.0825 230.989 57.6455 231.457 55.8767 229.681C54.856 228.657 54.1141 227.498 53.6421 226.127C53.2803 225.077 52.6642 224.303 51.5423 224.1C51.5423 222.938 51.6097 221.77 51.5208 220.615C51.3522 218.432 51.1223 216.249 50.8648 214.076C50.4357 210.48 49.9759 206.89 49.5099 203.301C48.9152 198.709 48.2899 194.117 47.6983 189.525C47.309 186.509 46.9626 183.482 46.5947 180.463L46.5978 180.459Z" fill="#FEA780"/>
<path d="M70.075 34.0331C68.4136 36.7665 66.0655 38.7108 63.3833 40.2383C61.5839 41.2629 59.7171 42.0967 57.6019 42.138C54.8523 42.1921 54.3557 41.7053 54.371 38.8254C54.7879 38.1476 55.2048 37.4698 55.6217 36.792C56.1428 37.8198 56.8601 38.6472 58.0709 38.3163C59.0825 38.0394 60.2167 37.7244 60.9647 37.0338C62.6445 35.4841 64.1343 33.7053 65.667 31.9869C66.0685 31.5382 66.3506 30.9718 66.6878 30.4563C66.6264 30.4054 66.5651 30.3577 66.5008 30.3067C66.0716 30.6504 65.6517 31.0036 65.2133 31.3314C62.3012 33.4857 59.2235 35.2455 55.591 35.6751C53.6506 35.6751 52.4306 34.4117 51.4252 32.9448C49.6748 30.3927 48.7154 27.4874 48.2954 24.3975C48.0348 22.485 47.8724 20.5566 47.667 18.6378C47.6915 17.2281 47.713 15.8215 47.7344 14.4118C48.0011 14.4659 48.2678 14.52 48.5345 14.5741L48.2923 14.3673C48.5253 13.2885 48.7583 12.2066 48.9912 11.1278L49.0219 10.7619L49.0127 10.7714C49.0771 10.7046 49.1414 10.6378 49.2028 10.571L49.1966 10.5805C49.261 10.45 49.3254 10.3196 49.3867 10.1891V10.1955C49.4449 10.065 49.5093 9.93453 49.5706 9.80406L49.5645 9.81043C49.6288 9.7436 49.6902 9.67996 49.7545 9.61313L49.7515 9.6195L49.9384 9.23127V9.23764C50.0764 9.11035 50.2113 8.97988 50.3492 8.8526C50.4565 8.73804 50.5638 8.62348 50.6711 8.50892C52.2927 7.48427 52.7954 7.567 54.1043 9.04989C54.2882 9.25991 54.512 9.42857 54.7174 9.61632C55.4286 10.31 55.916 9.84861 56.3788 9.26628C57.8441 9.32674 59.3277 9.26628 60.7746 9.48903C62.0038 9.67678 63.3189 9.90908 64.0975 11.1628C64.1711 12.563 64.2446 13.9632 64.3151 15.3633C64.5665 15.7865 64.7627 16.2607 65.0815 16.6203C65.7804 17.4031 66.1115 18.2495 65.8325 19.3187C65.7068 19.8056 65.5995 20.3179 65.6057 20.8175C65.6057 21.0403 65.9153 21.2567 66.0839 21.4762C66.2709 21.3044 66.5805 21.1612 66.6234 20.9576C66.7644 20.3116 66.8349 19.6433 66.8839 18.9814C67.0679 16.4134 68.6557 15.2838 70.9241 16.1366H70.9211C71.4759 17.088 71.2736 18.0395 70.8414 18.9496C70.5716 19.5192 70.2068 20.0379 69.8666 20.5693C69.1891 21.6258 68.8795 22.7332 69.2382 24.0061C69.606 25.3139 69.6244 26.5773 68.6404 27.6783C68.4534 27.8883 68.432 28.2606 68.3339 28.5597C68.3155 29.0753 68.1377 29.6576 68.3063 30.0967C68.8274 31.4396 69.4803 32.7284 70.0811 34.0394L70.075 34.0331ZM51.9892 27.1373C51.9493 27.2296 51.9126 27.3251 51.8727 27.4173C52.1486 27.9265 52.3908 28.4643 52.7096 28.9448C53.5158 30.1604 54.5825 30.4245 55.8148 29.7244C57.0164 29.0434 57.7 27.9106 58.2365 26.5263C56.1888 27.2423 54.1718 28.0092 51.9861 27.1373H51.9892ZM62.2062 16.1588C61.9609 15.7865 61.872 15.6242 61.7586 15.4842C60.885 14.4277 58.1598 14.0777 57.0808 14.921C56.8969 15.0674 56.7804 15.4588 56.8203 15.707C56.8417 15.8502 57.2923 16.0729 57.4609 16.0093C58.776 15.5224 59.9531 15.7197 61.1057 16.5312C61.2835 16.6553 61.7586 16.3211 62.2031 16.162L62.2062 16.1588ZM50.0304 14.4755C49.4051 14.781 48.7491 15.0419 48.1728 15.4301C48.0073 15.5415 47.9459 16.1016 48.0686 16.318C48.1667 16.4898 48.697 16.6044 48.884 16.4866C49.7024 15.9711 50.4872 16.0316 51.3485 16.337C51.5907 16.423 51.9493 16.1429 52.2528 16.0316C52.1455 15.7388 52.1149 15.2901 51.9156 15.1851C51.3577 14.886 50.7263 14.7269 50.0335 14.4755H50.0304ZM59.6465 19.2869C59.5852 18.9751 59.6067 18.6059 59.4442 18.3736C59.2174 18.0459 58.8495 17.6035 58.5522 17.6099C58.2671 17.6163 57.838 18.0968 57.7552 18.4436C57.6234 18.9878 57.6418 19.6179 57.7736 20.1684C57.8502 20.4898 58.2855 20.9607 58.5215 20.9385C58.8526 20.9066 59.2082 20.5216 59.4412 20.2034C59.6067 19.9743 59.5852 19.6019 59.6465 19.2933V19.2869ZM51.6091 19.3537C51.603 19.2646 51.652 19.0228 51.557 18.8923C51.2872 18.5168 50.9592 18.1859 50.6557 17.8358C50.3523 18.1445 50.0273 18.4309 49.7576 18.7682C49.6534 18.8987 49.6534 19.131 49.638 19.3219C49.5706 20.1779 50.0304 21.0339 50.5791 21.0944C51.1677 21.158 51.6091 20.4611 51.6122 19.3537H51.6091ZM67.7668 19.0928C67.8741 19.166 67.9813 19.236 68.0917 19.3092C68.2572 19.1119 68.4228 18.9146 68.5883 18.7173C68.6557 18.765 68.7201 18.8128 68.7875 18.8605C68.4933 19.3219 68.199 19.7802 67.8618 20.3084C69.3822 20.3657 68.8059 18.5391 69.7715 18.0777C69.3301 17.9663 68.8642 17.8868 68.5515 18.0777C68.2143 18.2845 68.0212 18.7428 67.7668 19.0928ZM54.9412 23.3251C54.4722 23.2296 54.1595 23.166 53.8468 23.1023C53.807 22.625 53.7702 22.2081 53.7273 21.6958C53.1387 22.4054 53.0682 23.236 53.5372 23.5797C53.9817 23.9042 54.4538 23.9615 54.9412 23.3251Z" fill="#FDA680"/>
<path d="M81.3043 228.546C83.7014 227.868 84.9674 228.594 85.7797 231.13C86.1169 232.183 86.3867 233.259 86.7453 234.303C87.1714 235.544 88.0972 236.292 89.2957 236.54C91.0583 236.903 92.2109 235.684 92.2814 233.52C92.7596 233.049 92.9742 233.424 93.1428 233.829C94.1084 236.129 95.0648 238.436 96.0212 240.743C96.1316 241.008 96.2266 241.278 96.3063 241.549C96.9623 243.776 96.6558 244.556 94.7 245.654C90.6047 247.954 86.1568 249.1 81.6261 249.956C79.1616 250.42 76.6816 250.815 74.2017 251.197C72.292 251.49 70.4037 251.245 68.589 250.611C67.1421 250.109 66.1122 249.106 65.8516 247.442C66.1766 247.506 66.5076 247.544 66.8203 247.642C67.5682 247.871 68.4388 247.948 69.0243 248.409C70.3485 249.456 71.7924 249.638 73.3005 249.326C75.6731 248.839 78.0335 248.279 80.3724 247.639C85.4027 246.265 90.2276 244.317 94.8043 241.736C95.0372 241.606 95.1598 241.259 95.3346 241.014C95.0679 241.014 94.7491 240.915 94.5437 241.03C87.7753 244.801 80.5318 247.111 73.0216 248.584C71.8904 248.807 70.7409 248.775 69.7753 247.957C68.5859 246.952 67.2893 246.522 65.7842 247.05C66.0202 245.103 67.087 243.741 68.5859 242.653C69.8642 241.724 71.0812 240.696 72.3993 239.837C72.8223 239.56 73.4875 239.681 74.0423 239.62C74.6125 239.814 75.1765 240.027 75.7528 240.193C75.949 240.25 76.1789 240.187 76.3935 240.177C76.2954 239.945 76.2494 239.566 76.0931 239.509C75.4218 239.267 74.7198 239.117 74.027 238.936C73.9075 238.917 73.7879 238.901 73.6653 238.882C73.6438 238.809 73.6193 238.732 73.5979 238.659C73.791 238.462 74.0148 238.287 74.1711 238.061C74.9129 236.995 75.9153 236.505 77.169 236.543C77.7668 236.759 78.3615 236.998 78.9684 237.179C79.1861 237.243 79.4436 237.16 79.6827 237.148C79.5601 236.925 79.4834 236.568 79.3026 236.498C78.6067 236.234 77.8772 236.062 77.1599 235.859C77.0372 235.846 76.9177 235.837 76.7951 235.824C76.7828 235.687 76.7705 235.55 76.7583 235.417C77.635 234.166 78.5301 232.931 79.3761 231.658C80.0505 230.643 80.6605 229.584 81.2981 228.543L81.3043 228.546Z" fill="#FFA653"/>
<path d="M51.5568 224.101C52.6787 224.304 53.2949 225.078 53.6566 226.128C54.1286 227.499 54.8705 228.661 55.8912 229.682C57.66 231.458 60.1 230.99 61.5285 229.886C61.9883 229.533 62.1722 228.766 62.4359 228.168C62.6658 227.639 62.8313 227.083 63.0275 226.535C63.8091 226.697 64.128 227.229 64.3977 227.999C65.1242 230.086 65.9825 232.123 66.7826 234.182C67.1719 235.181 67.644 236.161 67.9015 237.199C68.2509 238.612 67.7175 239.544 66.3289 239.821C63.99 240.289 61.6297 240.651 59.2693 240.966C55.7502 241.434 52.222 241.822 48.6968 242.249C44.7056 242.729 40.7053 243.159 36.7387 242.118C35.9202 241.905 35.1079 241.53 34.3936 241.062C32.6709 239.932 32.7996 237.243 34.7032 236.009C36.2053 235.035 37.9066 234.395 39.4117 233.428C41.5912 232.028 43.6757 230.465 45.8 228.976C45.8705 228.925 45.9747 228.925 46.0636 228.9C46.3333 229.103 46.5786 229.399 46.8821 229.495C48.0377 229.864 48.5895 230.545 48.6906 231.773C48.7121 232.05 48.8838 232.314 48.9849 232.584C49.0738 232.575 49.1627 232.565 49.2516 232.559C49.3987 232.234 49.6777 231.91 49.6746 231.588C49.6593 230.131 48.8102 229.081 47.4277 228.613C47.1917 228.534 46.9985 228.304 46.787 228.145C47.6974 227.178 48.5558 226.15 49.5367 225.269C50.1068 224.756 50.8763 224.483 51.5568 224.104V224.101ZM41.6249 240.654C42.94 240.556 44.2305 240.527 45.5026 240.352C50.3797 239.69 55.2598 239.019 60.1245 238.268C61.7523 238.016 63.3463 237.53 64.9433 237.106C65.1763 237.046 65.3449 236.731 65.5442 236.534C65.2652 236.432 64.9893 236.301 64.7012 236.241C64.5694 236.212 64.4161 236.336 64.2659 236.374C62.4512 236.823 60.6518 237.386 58.8156 237.689C55.1923 238.284 51.5476 238.761 47.9059 239.226C45.8429 239.487 43.7615 239.795 41.6954 239.767C39.5803 239.735 37.3027 239.967 35.6903 237.87C35.4512 237.561 34.5837 237.746 34.0105 237.771C33.9369 237.771 33.8082 238.198 33.8419 238.401C33.8603 238.506 34.2373 238.675 34.3507 238.612C34.9853 238.271 35.2673 238.79 35.6995 239.07C36.4842 239.576 37.3058 240.129 38.1825 240.343C39.3013 240.613 40.4907 240.565 41.6218 240.651L41.6249 240.654ZM42.943 231.662C42.943 231.859 42.894 232.037 42.9522 232.091C43.5929 232.699 44.1171 233.361 44.1784 234.322C44.1845 234.43 44.534 234.631 44.5616 234.602C44.721 234.452 44.911 234.258 44.9417 234.055C45.1072 232.947 44.1661 231.789 42.9461 231.662H42.943Z" fill="#FFA653"/>
<path d="M36.1412 67.6846C36.9904 67.9328 37.8333 68.216 38.6916 68.4196C39.4151 68.5915 39.7185 68.9638 39.835 69.7657C40.6658 75.3568 41.5547 80.9383 42.4406 86.5198C43.0047 90.0615 43.6024 93.5969 44.1848 97.1355C41.2053 98.3002 38.4525 97.3646 35.7703 96.0822C32.3463 94.4466 29.3391 92.1427 26.4454 89.6574C23.6191 87.2294 21.1116 84.4991 18.9873 81.3902C19.7812 81.3329 20.5752 81.2724 21.3691 81.2151C23.846 80.811 26.0132 79.7991 27.6562 77.7561C30.4182 79.0003 33.1801 80.2446 35.9451 81.4888C36.3098 81.7816 36.644 82.138 37.0486 82.3543C38.2931 83.0194 39.5622 83.6304 40.8252 84.2541C40.9907 84.3368 41.1807 84.3655 41.3585 84.4164C41.4015 84.34 41.4444 84.2636 41.4873 84.1905C41.0704 83.8563 40.6903 83.4331 40.2243 83.204C38.9338 82.5675 37.6096 82.0139 36.2976 81.4283C35.7335 76.8524 35.8929 72.2701 36.1412 67.6846Z" fill="#FDA680"/>
<path d="M70.9179 16.1335C68.6526 15.2807 67.0617 16.4072 66.8777 18.9783C66.8318 19.6402 66.7582 20.3085 66.6172 20.9545C66.5712 21.1581 66.2647 21.3013 66.0777 21.4732C65.9091 21.2536 65.6025 21.0372 65.5995 20.8144C65.5933 20.3148 65.7006 19.8057 65.8263 19.3156C66.1022 18.2464 65.7711 17.4 65.0753 16.6172C64.7565 16.2608 64.5603 15.7834 64.309 15.3602C64.735 15.653 65.1458 15.968 65.5903 16.2258C65.8263 16.3626 66.1206 16.3976 66.3873 16.4803C66.4149 16.3944 66.4455 16.3053 66.4731 16.2194C66.2831 16.0826 66.1022 15.933 65.906 15.8121C64.7963 15.1216 64.3304 13.9632 64.499 12.6522C64.6278 11.6498 64.7381 10.6156 64.6247 9.62278C64.4745 8.29581 64.0515 7.01976 63.0184 6.08103C62.0283 5.18047 60.1032 5.13911 59.4227 6.0142C59.4687 6.05239 59.5147 6.12239 59.5576 6.12239C59.7385 6.10967 59.9162 6.08421 60.094 6.05239C61.265 5.83918 62.3808 5.87419 63.1472 7.00067C63.9963 8.24808 64.3365 9.64187 64.0913 11.1661C63.3127 9.91235 61.9976 9.68005 60.7684 9.49231C59.3246 9.27274 57.841 9.3332 56.3757 9.26956C56.5934 8.75723 56.8141 8.24172 56.952 7.91713C56.6669 7.0484 56.532 6.24968 56.1581 5.6037C55.7688 4.93226 55.1434 4.40721 54.6223 3.81851C54.5334 3.90124 54.4445 3.98716 54.3587 4.0699C54.7204 4.51222 55.0852 4.95454 55.5327 5.50505H54.3311C56.4922 7.30934 56.575 8.55675 54.7143 9.61959C54.5089 9.43184 54.2851 9.26001 54.1012 9.05317C52.7923 7.57028 52.2895 7.48754 50.668 8.5122C50.8825 8.11443 51.0665 7.69757 51.3148 7.32525C51.5477 6.97521 51.8481 6.67291 52.121 6.35151C52.0382 6.29105 51.9585 6.23377 51.8757 6.17331C49.6625 7.98078 48.1666 10.2433 47.8202 13.3618C46.9251 11.9139 46.6063 10.4215 46.5971 8.79541C46.5879 7.10568 47.0385 5.68962 48.2647 4.53131C49.4755 3.38573 51.0205 3.49393 52.5133 3.27436C52.3171 3.03888 52.1424 2.93387 51.9585 2.91796C48.6111 2.61883 46.0729 5.04364 46.0637 8.53447C46.0637 9.27592 46.0729 10.0142 46.0791 10.7556C45.1135 8.56948 45.5028 5.05955 47.0508 3.7485C48.7643 2.29743 50.4503 0.540879 52.9302 0.840002C54.1318 0.986382 55.1894 0.703169 56.3113 0.416774C60.5538 -0.668344 64.4132 0.429503 67.9047 2.96569C70.875 5.1232 72.4537 8.31809 73.4377 11.8439C74.3481 15.1025 73.8883 18.3451 72.8246 21.4477C72.092 23.5893 71.0191 25.61 70.0198 27.6434C69.7102 28.2703 69.1032 28.6776 68.3246 28.5567C68.4227 28.2575 68.4411 27.8852 68.6312 27.6752C69.6151 26.5742 69.5968 25.3108 69.2289 24.003C68.8703 22.7301 69.1799 21.6195 69.8573 20.5662C70.1976 20.038 70.5624 19.5161 70.8321 18.9465C71.2643 18.0364 71.4666 17.0849 70.9118 16.1303C71.2337 16.3021 71.5402 16.5185 71.8774 16.6331C72.2943 16.7763 72.7388 16.8336 73.1741 16.929C73.2047 16.8399 73.2323 16.7508 73.263 16.6617C71.0406 16.0348 70.265 14.1446 69.5906 12.194C69.1983 11.0579 68.8948 9.89008 68.5269 8.7445C67.5491 5.68962 65.7528 3.53211 62.5494 2.97842C61.3171 2.76521 60.186 3.0357 59.2143 3.8726C59.907 3.81214 60.563 3.5703 61.2405 3.49711C64.3519 3.16616 66.8072 5.47005 67.7575 8.06988C68.3216 9.61005 68.7047 11.2234 69.2871 12.754C69.7316 13.9219 70.3692 15.0102 70.9179 16.1335Z" fill="#403829"/>
<path d="M27.6696 77.7607C26.0266 79.8036 23.8593 80.8124 21.3825 81.2197C20.9779 81.102 20.5824 80.9238 20.1717 80.8728C15.4019 80.2778 12.2722 75.2404 13.5719 70.429C14.0654 68.6056 15.2977 67.4918 16.5177 66.3081C18.1945 64.682 20.1809 64.1378 22.4309 64.5229C22.8784 64.5993 23.3444 64.5483 23.8011 64.5579C26.8879 66.2413 29.1073 68.6311 29.1809 72.4528C29.2054 73.7671 28.6781 75.1004 28.3379 76.4083C28.2122 76.8856 27.8995 77.312 27.6727 77.7639L27.6696 77.7607Z" fill="#5F515C"/>
<path d="M23.8003 64.5553C23.3435 64.5457 22.8776 64.5966 22.4301 64.5203C20.1801 64.1352 18.1937 64.6794 16.5169 66.3055C15.2969 67.4892 14.0646 68.5998 13.5711 70.4264C12.2713 75.2378 15.4011 80.2752 20.1709 80.8702C20.5816 80.9211 20.9801 81.0993 21.3817 81.2171C20.5878 81.2744 19.7938 81.3348 18.9999 81.3921C18.2979 81.1884 17.5806 81.0389 16.9031 80.7716C13.9328 79.6005 12.1978 77.2998 11.41 74.159C11.3701 74.0827 11.3303 74.0063 11.2935 73.9299L11.3027 73.9458C11.3027 73.564 11.318 73.1821 11.2935 72.8002C11.0299 68.6221 13.6446 65.3094 16.6763 64.097C16.8602 64.0238 17.0227 63.8966 17.4365 63.6547C16.8541 63.3238 16.4556 63.0978 16.054 62.8687C15.9345 62.7955 15.8149 62.7255 15.6954 62.6523C15.1375 61.6181 14.2976 61.965 13.4852 62.1686L13.1603 62.0668C12.8078 61.8409 12.4583 61.6118 12.1058 61.3858C11.0299 60.2943 9.01589 60.2084 7.92768 61.2108C6.49921 62.5314 6.24784 63.9093 7.06937 65.93C5.86773 67.7979 5.91065 68.2402 7.41576 69.879C7.96446 70.4741 8.50091 71.0851 9.04348 71.6865C8.8473 71.7438 8.64498 71.8679 8.45799 71.8456C6.28769 71.6038 3.11195 68.6412 2.62148 66.4136C2.30881 64.988 2.10956 63.5752 2.40691 62.0891C3.10582 58.6078 6.3398 55.4002 9.86501 55.5784C10.898 55.6293 11.9341 55.6929 12.9672 55.7502C16.0142 57.4177 18.0588 59.8329 18.2489 63.6293C20.2414 63.3874 22.0959 63.5179 23.7972 64.5584L23.8003 64.5553Z" fill="#4E414B"/>
<path d="M12.0943 61.3809C12.4469 61.6068 12.7963 61.8359 13.1488 62.0618C11.0981 63.7261 8.90326 65.2472 7.63419 67.9011C9.52247 66.1223 11.3004 64.4548 13.063 62.7778C13.2347 62.6155 13.3358 62.3737 13.4707 62.1669C14.28 61.9632 15.1199 61.6163 15.6808 62.6505C13.3695 63.7675 11.6652 65.5813 10.2766 67.7706C10.5862 67.6847 10.8253 67.5065 11.046 67.3029C12.3886 66.0714 13.719 64.8271 15.0678 63.602C15.3682 63.3283 15.7176 63.112 16.0426 62.8669C16.4441 63.096 16.8426 63.322 17.4251 63.6529C17.0112 63.898 16.8488 64.0221 16.6648 64.0952C13.6332 65.3076 11.0184 68.6203 11.282 72.7985C11.3065 73.1771 11.2881 73.5622 11.2912 73.944C10.7272 73.4254 10.1631 72.9067 9.59911 72.388C9.41212 72.1525 9.22206 71.917 9.03507 71.6815C8.4925 71.0769 7.95606 70.4691 7.40735 69.8741C5.90224 68.2384 5.85933 67.7929 7.06096 65.925C7.43187 65.5081 7.79359 65.0817 8.17676 64.6776C9.35694 63.4174 10.3256 61.8836 12.0974 61.384L12.0943 61.3809ZM9.42744 68.5089C9.49182 68.6044 9.55312 68.703 9.6175 68.7985C9.78916 68.6107 9.96082 68.4262 10.1325 68.2384C10.0742 68.1748 10.0191 68.1111 9.96082 68.0475L9.42438 68.5089H9.42744Z" fill="#FBA57F"/>
<path d="M9.03191 71.681C9.21889 71.9165 9.40895 72.152 9.59594 72.3875C5.05916 72.6739 1.06189 69.4853 0.369106 65.0303C-0.397242 60.1107 2.80609 55.4584 7.54826 54.6278C9.47945 54.2905 11.3034 54.5896 12.9556 55.7448C11.9226 55.6875 10.8865 55.627 9.85343 55.5729C6.32823 55.3947 3.09424 58.5992 2.39533 62.0836C2.09799 63.5697 2.29724 64.9826 2.60991 66.4082C3.09731 68.6357 6.27612 71.5951 8.44642 71.8401C8.6334 71.8624 8.83879 71.7383 9.03191 71.681Z" fill="#62545F"/>
<path d="M75.3262 123.579C72.8187 123.455 70.3082 123.254 67.7976 123.229C63.7758 123.187 59.8214 123.751 55.9039 124.75C54.0125 125.234 52.0476 125.396 50.1164 125.705C49.1232 125.571 48.127 125.44 47.1338 125.307C49.5371 125.437 51.8913 125.141 54.1903 124.416C56.2687 123.76 58.3255 123.019 60.4161 122.405C62.9573 121.657 65.52 121.765 68.1256 122.16C70.725 122.551 73.3797 122.545 75.9515 121.953C78.1739 121.44 80.332 120.626 82.5207 119.945C82.6341 120.709 82.7506 121.472 82.864 122.236C81.4999 122.506 80.1358 122.758 78.7778 123.051C78.1126 123.194 77.4597 123.407 76.8007 123.588C76.3071 123.588 75.8167 123.585 75.3231 123.582L75.3262 123.579Z" fill="#0C2C7E"/>
<path d="M55.5762 35.675C59.2087 35.2485 62.2894 33.4888 65.1984 31.3313C65.6399 31.0067 66.0568 30.6503 66.4859 30.3066C66.5472 30.3576 66.6085 30.4053 66.6729 30.4562C66.3357 30.9685 66.0537 31.535 65.6521 31.9868C64.1194 33.7052 62.6296 35.484 60.9498 37.0337C60.2019 37.7243 59.0677 38.0393 58.0561 38.3161C56.8452 38.6471 56.1279 37.8197 55.6068 36.7919C55.5976 36.4196 55.5854 36.0473 55.5762 35.675Z" fill="#C07A5F"/>
<path d="M65.7842 247.054C67.2893 246.522 68.5859 246.955 69.7753 247.96C70.7409 248.778 71.8874 248.81 73.0216 248.587C80.5318 247.114 87.7753 244.804 94.5437 241.033C94.7521 240.918 95.0679 241.017 95.3346 241.017C95.1598 241.262 95.0372 241.606 94.8043 241.739C90.2276 244.32 85.4027 246.268 80.3724 247.642C78.0335 248.282 75.6701 248.842 73.3005 249.329C71.7924 249.641 70.3516 249.459 69.0243 248.412C68.4388 247.951 67.5682 247.875 66.8203 247.645C66.5045 247.55 66.1735 247.512 65.8516 247.445C65.8302 247.315 65.8056 247.184 65.7842 247.054Z" fill="#0C2C7E"/>
<path d="M46.0705 10.7528C46.0644 10.0113 46.0521 9.27305 46.0552 8.5316C46.0644 5.03759 48.6056 2.61596 51.9499 2.91508C52.1308 2.93099 52.3055 3.036 52.5048 3.27148C51.0119 3.49105 49.467 3.38286 48.2561 4.52844C47.03 5.68675 46.5794 7.10281 46.5886 8.79254C46.5977 10.4186 46.9165 11.9111 47.8116 13.3589C48.158 10.2404 49.657 7.97472 51.8672 6.17044C51.9499 6.2309 52.0296 6.28818 52.1124 6.34864C51.8426 6.67322 51.5422 6.97552 51.3062 7.32238C51.0579 7.69469 50.8709 8.11156 50.6594 8.50933C50.5521 8.62388 50.4448 8.73844 50.3375 8.853C50.1996 8.98029 50.0647 9.11076 49.9268 9.23804V9.23168C49.8655 9.36215 49.8011 9.49261 49.7398 9.6199L49.7428 9.61354C49.6785 9.68036 49.6172 9.74401 49.5528 9.81083L49.5589 9.80447C49.4945 9.93494 49.4332 10.0654 49.3689 10.1927L49.3719 10.1863C49.3076 10.3168 49.2432 10.4473 49.1819 10.5777L49.188 10.5682C49.1236 10.635 49.0593 10.7018 48.9979 10.7687L49.0071 10.7591C48.9979 10.88 48.9888 11.0041 48.9765 11.1251C48.7435 12.2038 48.5106 13.2858 48.2776 14.3645L48.5197 14.5713C48.2531 14.5173 47.9864 14.4632 47.7197 14.4091C47.4254 13.9508 47.1311 13.4926 46.8368 13.0344L46.0674 10.7496L46.0705 10.7528Z" fill="#EBD1AF"/>
<path d="M63.7566 177.967C63.3274 175.864 62.9044 173.757 62.4661 171.657C61.5066 167.081 60.5349 162.508 59.5815 157.929C59.5202 157.643 59.5723 157.328 59.79 156.987C59.9065 157.506 60.0199 158.028 60.1364 158.547C61.2675 163.603 62.4078 168.656 63.5236 173.716C63.824 175.072 64.0601 176.44 64.3268 177.805C64.3053 177.977 64.2869 178.146 64.2532 178.426C64.0386 178.228 63.8976 178.098 63.7566 177.967Z" fill="#5E82BC"/>
<path d="M71.4875 34.488C70.2491 37.3042 68.2075 39.4012 65.6939 40.9C63.7535 42.0584 61.6047 42.8412 59.5417 43.7735C59.3516 43.8595 59.1125 43.834 58.8428 43.7354C63.8578 41.8611 68.4252 39.4108 71.1135 34.3193C71.2392 34.3766 71.3649 34.4339 71.4906 34.4912L71.4875 34.488Z" fill="#4E414B"/>
<path d="M84.5696 162.658C83.9841 160.673 83.0737 158.951 81.4092 157.653C80.6337 157.048 80.0145 156.119 79.5608 155.209C78.9416 153.974 78.5461 152.619 78.0557 151.314C78.1721 151.257 78.2856 151.203 78.4021 151.145C78.6074 151.533 78.8435 151.906 79.009 152.31C79.2696 152.953 79.4504 153.634 79.7202 154.27C80.2321 155.47 80.8636 156.545 81.9242 157.373C82.7672 158.031 83.4109 158.961 84.1435 159.769C84.3612 160.456 84.6187 161.134 84.7781 161.837C84.8332 162.079 84.6463 162.381 84.5666 162.655L84.5696 162.658Z" fill="#5E82BC"/>
<path d="M47.1384 125.303C48.1316 125.436 49.1279 125.567 50.121 125.7C50.5042 125.755 50.8874 125.837 51.2706 125.863C52.7481 125.955 54.2287 126.031 55.7184 126.235C55.2801 126.837 54.6517 126.636 54.1091 126.607C52.4661 126.525 50.82 126.426 49.1861 126.238C47.5277 126.047 45.8816 125.742 44.2324 125.487C44.2876 125.239 44.3428 124.994 44.3949 124.746C45.3084 124.934 46.2219 125.118 47.1384 125.306V125.303Z" fill="#5E82BC"/>
<path d="M76.8301 123.581C77.4891 123.4 78.139 123.187 78.8073 123.044C80.1652 122.751 81.5324 122.499 82.8934 122.229C83.1571 122.738 83.4237 123.244 83.6874 123.753C81.5263 123.753 79.3652 123.753 77.2041 123.753C77.0784 123.696 76.9558 123.636 76.8331 123.578L76.8301 123.581Z" fill="#0C2C7E"/>
<path d="M46.7781 228.139C46.9896 228.298 47.1828 228.527 47.4188 228.607C48.8013 229.074 49.6473 230.125 49.6657 231.582C49.6688 231.903 49.3929 232.231 49.2427 232.553C49.1538 232.562 49.0649 232.572 48.976 232.578C48.8748 232.308 48.7062 232.043 48.6817 231.767C48.5806 230.538 48.0257 229.857 46.8731 229.488C46.5697 229.393 46.3275 229.097 46.0547 228.893C46.2969 228.642 46.536 228.387 46.7781 228.136V228.139Z" fill="#0C2C7E"/>
<path d="M46.8514 13.0374C47.1457 13.4956 47.44 13.9538 47.7343 14.412C47.7128 15.8217 47.6883 17.2283 47.6668 18.638C47.3787 17.8106 46.9556 17.0055 46.8422 16.1527C46.7073 15.1344 46.8361 14.0779 46.8514 13.0374Z" fill="#F2E2C9"/>
<path d="M53.2562 39.4893C53.2808 39.6993 53.3482 39.9157 53.3176 40.1193C53.0601 41.9554 54.0165 43.346 55.7913 43.6929C56.2052 43.7724 56.6129 43.8679 57.1033 43.9729C56.2665 44.4534 55.0955 44.2434 54.0257 43.4065C52.8179 42.4614 52.4991 41.1822 52.8884 39.6866L53.2562 39.4893Z" fill="#4E414B"/>
<path d="M36.2969 81.4282C37.6088 82.0138 38.9362 82.5706 40.2236 83.2039C40.6896 83.433 41.0666 83.8562 41.4866 84.1904C41.4436 84.2667 41.4007 84.3431 41.3578 84.4163C41.18 84.3622 40.99 84.3336 40.8244 84.254C39.5615 83.6303 38.2924 83.0161 37.0479 82.3542C36.6432 82.1379 36.3091 81.7815 35.9443 81.4887C36.0608 81.4696 36.1804 81.4473 36.2969 81.425V81.4282Z" fill="#EA8E6A"/>
<path d="M77.1875 235.869C77.9048 236.076 78.6344 236.247 79.3302 236.508C79.508 236.575 79.5846 236.932 79.7103 237.157C79.4712 237.173 79.2137 237.256 78.9961 237.189C78.3861 237.011 77.7944 236.769 77.1967 236.553C77.1967 236.324 77.1906 236.095 77.1875 235.865V235.869Z" fill="#0C2C7E"/>
<path d="M74.0439 238.946C74.7337 239.127 75.4387 239.276 76.11 239.518C76.2664 239.576 76.3123 239.954 76.4104 240.187C76.1959 240.196 75.9659 240.26 75.7698 240.203C75.1935 240.037 74.6294 239.824 74.0593 239.63C74.0562 239.401 74.0501 239.175 74.047 238.946H74.0439Z" fill="#0C2C7E"/>
<path d="M76.7575 235.423C76.7698 235.559 76.782 235.696 76.7943 235.83C76.6962 235.839 76.5981 235.852 76.5 235.862C76.5858 235.715 76.6717 235.569 76.7575 235.423Z" fill="#FDEEDE"/>
<path d="M73.6115 238.669C73.636 238.742 73.6575 238.819 73.6789 238.892C73.59 238.911 73.5011 238.933 73.4092 238.952C73.4766 238.857 73.541 238.761 73.6084 238.669H73.6115Z" fill="#FDEEDE"/>
<path d="M11.2715 73.9297C11.3113 74.0061 11.3512 74.0824 11.388 74.1588C11.3481 74.0824 11.3083 74.0061 11.2715 73.9297Z" fill="#FBA57F"/>
<path d="M65.2065 102.492C64.4923 100.946 63.7995 99.393 63.0607 97.8592C61.2246 94.0406 59.8758 90.0279 58.714 85.9452C58.6466 85.7066 58.6374 85.4488 58.6006 85.2038C58.6772 85.1815 58.7508 85.1592 58.8274 85.1401C58.9255 85.347 59.0604 85.5443 59.1186 85.7638C60.6421 91.3199 62.7971 96.5991 65.4579 101.665C65.556 101.85 65.7276 101.99 65.8686 102.152C65.651 102.267 65.4303 102.384 65.2126 102.499L65.2065 102.492Z" fill="#4E414B"/>
<path d="M60.2558 113.033C60.1914 112.963 60.1239 112.893 60.0596 112.82C60.8351 111.99 61.5585 111.099 62.3985 110.345C63.6675 109.209 65.0102 108.165 66.3344 107.099C66.549 106.924 66.8188 106.822 67.0609 106.685C67.11 106.758 67.156 106.835 67.205 106.908C64.8906 108.951 62.5732 110.994 60.2588 113.037L60.2558 113.033Z" fill="#EA8E6A"/>
<path d="M59.5264 111.125C59.4957 110.954 59.4682 110.782 59.4375 110.613C60.6422 109.27 61.8224 107.902 63.0639 106.597C63.5727 106.063 64.2073 105.649 64.8142 105.229C65.041 105.073 65.3537 105.054 65.8687 104.904C65.6541 105.223 65.6143 105.343 65.5315 105.391C63.4286 106.616 61.9021 108.472 60.4154 110.378C60.1793 110.68 59.8237 110.88 59.5264 111.129V111.125Z" fill="#EA8E6A"/>
<path d="M89.5909 76.636C89.6308 76.3846 89.6707 76.1332 89.7074 75.885C90.9673 74.8635 92.2088 73.8039 93.9683 73.6448C93.8243 73.788 93.7047 74.0012 93.5361 74.0648C92.2394 74.5358 91.139 75.2868 90.2286 76.3623C90.0906 76.5246 89.8055 76.5501 89.5879 76.6392L89.5909 76.636Z" fill="#EA8E6A"/>
<path d="M61.9415 104.649C61.1874 104.223 60.3751 103.87 59.9766 102.947C60.7858 103.37 61.5982 103.793 62.4074 104.216C62.2511 104.36 62.0947 104.506 61.9415 104.649Z" fill="#4E414B"/>
<path d="M66.4473 111.06C66.5055 111.035 66.5668 111.013 66.6251 110.987C66.5913 111.038 66.5607 111.089 66.527 111.143C66.4994 111.115 66.4718 111.089 66.4473 111.06Z" fill="#5F515C"/>
<path d="M43.1389 76.5085C43.847 78.3924 44.4508 80.098 45.1252 81.775C45.8088 83.4775 46.4985 85.1799 47.2894 86.8315C48.0803 88.4798 48.9386 90.1028 49.8858 91.662C50.8299 93.2149 51.8568 94.7233 52.9665 96.152C54.0455 97.5458 55.2747 98.8155 56.3538 100.212C52.522 98.5323 42.3081 80.2794 43.1419 76.5117L43.1389 76.5085Z" fill="#4E414B"/>
<path d="M70.4635 49.5972C72.2935 50.9591 74.1174 52.3243 75.3559 54.4245C75.1811 53.4349 75.0064 52.4452 74.801 51.2678C75.0984 51.4492 75.2884 51.4969 75.3129 51.5892C75.9475 54.0299 76.4502 56.5152 77.2166 58.9082C78.0442 61.4826 79.0956 63.9837 80.095 66.4976C80.3831 67.2264 80.8644 67.7514 81.6951 67.0959C81.7503 67.0513 81.8759 67.0895 81.9618 67.115C82.0108 67.1277 82.0476 67.1914 82.0905 67.2295C81.177 68.3083 80.4597 68.2192 79.8191 66.975C78.1822 63.796 77.0357 60.4165 75.8892 57.0243C75.0524 54.5486 73.6117 52.4738 71.4843 50.9655C71.0398 50.6505 70.675 50.2113 70.2734 49.8295C70.3378 49.7531 70.4022 49.6767 70.4635 49.6004V49.5972Z" fill="#4E414B"/>
<path d="M40.8496 54.0178C40.4909 57.2891 40.1507 60.4172 39.7828 63.7712C39.1943 62.5556 40.0679 54.8515 40.8496 54.0178Z" fill="#4E414B"/>
<path d="M47.9668 112.26C50.4068 114.176 52.7703 116.028 55.054 117.82C53.8769 117.902 48.6167 113.915 47.9668 112.26Z" fill="#4E414B"/>
<path d="M58.9004 118.943C60.4545 118.682 64.697 120.041 65.0772 121.25C63.103 120.512 61.0707 119.754 58.9004 118.943Z" fill="#4E414B"/>
<path d="M49.4142 131.863C49.5246 132.62 49.6564 133.374 49.7422 134.131C50.0702 137.053 50.8672 139.85 51.9095 142.567C52.3509 143.716 53.1418 144.582 54.279 145.132C53.6659 142.93 53.0345 140.795 52.4827 138.637C51.9462 136.544 51.7102 134.405 51.8941 132.216C52.4061 137.199 53.623 141.979 55.45 146.609C53.761 145.45 51.8604 144.547 51.2627 142.383C50.5178 139.675 49.8587 136.941 49.215 134.208C49.0433 133.473 49.0617 132.69 48.9912 131.929L49.4142 131.863Z" fill="#5E82BC"/>
<path d="M76.8263 123.584C76.9489 123.641 77.0746 123.702 77.1972 123.759C76.2898 123.979 75.3886 124.23 74.472 124.411C71.5109 124.991 68.5436 125.544 65.515 126.12C66.2261 126.801 66.9557 127.399 67.5626 128.112C68.1389 128.793 68.4271 129.633 68.2891 130.578C66.9802 127.409 64.9356 125.551 61.4564 125.939C61.4319 125.847 61.4073 125.754 61.3828 125.662C61.9499 125.541 62.5814 125.197 63.078 125.344C64.8406 125.856 66.5204 125.382 68.2125 125.083C70.5545 124.672 72.8811 124.17 75.2108 123.702C75.2629 123.692 75.3028 123.622 75.3487 123.581C75.8423 123.581 76.3327 123.584 76.8263 123.587V123.584Z" fill="#5E82BC"/>
<path d="M70.6022 133.361C72.4966 136.83 74.017 140.556 76.9721 143.325L75.0531 136.579C75.1911 136.537 75.3321 136.496 75.47 136.454C76.2946 139.14 77.1192 141.826 77.9775 144.617C75.8501 144.072 70.3815 135.687 70.6022 133.358V133.361Z" fill="#5E82BC"/>
<path d="M51.9777 27.1342C54.1633 28.0061 56.1834 27.2392 58.228 26.5232C57.6916 27.9074 57.0049 29.0403 55.8064 29.7213C54.571 30.4213 53.5073 30.1572 52.7011 28.9416C52.3823 28.4611 52.1401 27.9265 51.8643 27.4142C51.9041 27.3219 51.9409 27.2265 51.9807 27.1342H51.9777Z" fill="#FDF0E3"/>
<path d="M64.1061 11.161C64.3513 9.63353 64.0111 8.23975 63.162 6.99552C62.3956 5.87222 61.2798 5.83721 60.1088 6.04724C59.931 6.07906 59.7532 6.1077 59.5724 6.11724C59.5295 6.11724 59.4804 6.04724 59.4375 6.00905C60.118 5.13395 62.0461 5.17532 63.0332 6.07587C64.0662 7.01461 64.4862 8.29066 64.6395 9.61762C64.7529 10.6105 64.6395 11.6478 64.5138 12.647C64.3452 13.9581 64.8111 15.1164 65.9208 15.8069C66.117 15.931 66.2978 16.0774 66.4879 16.2142C66.4603 16.3002 66.4297 16.3893 66.4021 16.4752C66.1354 16.3924 65.8442 16.3574 65.6051 16.2206C65.1606 15.9629 64.7498 15.6478 64.3237 15.3551C64.2502 13.9549 64.1797 12.5548 64.1061 11.1546V11.161Z" fill="#EBD1AF"/>
<path d="M62.1953 16.1546C61.7508 16.3169 61.2757 16.6478 61.0979 16.5237C59.9453 15.7122 58.7682 15.5149 57.4532 16.0018C57.2815 16.0655 56.834 15.8427 56.8125 15.6995C56.7727 15.4545 56.8891 15.0599 57.0731 14.9135C58.1521 14.0702 60.8741 14.4203 61.7508 15.4768C61.8673 15.6168 61.9532 15.7791 62.1984 16.1514L62.1953 16.1546Z" fill="#FFC997"/>
<path d="M50.0311 14.4722C50.727 14.7204 51.3554 14.8795 51.9133 15.1818C52.1125 15.29 52.1432 15.7355 52.2505 16.0282C51.9439 16.1396 51.5853 16.4165 51.3462 16.3337C50.4848 16.0282 49.7001 15.9678 48.8816 16.4833C48.6946 16.601 48.1643 16.4865 48.0662 16.3146C47.9467 16.0983 48.0049 15.5382 48.1704 15.4268C48.7467 15.0386 49.4058 14.7808 50.0281 14.4722H50.0311Z" fill="#FFC997"/>
<path d="M59.6481 19.284C59.5868 19.5959 59.6052 19.9682 59.4428 20.1941C59.2098 20.5155 58.8573 20.8974 58.5231 20.9292C58.2871 20.9515 57.8518 20.4805 57.7752 20.1591C57.6464 19.6086 57.6281 18.9817 57.7568 18.4344C57.8396 18.0875 58.2687 17.6102 58.5538 17.6007C58.8511 17.5943 59.219 18.0366 59.4458 18.3644C59.6083 18.5967 59.5868 18.9658 59.6481 19.2777V19.284Z" fill="#592B30"/>
<path d="M54.7006 9.61529C56.5643 8.55245 56.4785 7.30504 54.3174 5.50076H55.519C55.0684 4.95024 54.7067 4.50792 54.345 4.0656C54.4339 3.98286 54.5228 3.89695 54.6086 3.81421C55.1297 4.40291 55.755 4.92797 56.1444 5.5994C56.5214 6.24538 56.6532 7.04411 56.9383 7.91284C56.8004 8.23742 56.5796 8.74975 56.362 9.26526C55.8991 9.84759 55.4117 10.309 54.7006 9.61529Z" fill="#EBD1AF"/>
<path d="M51.5998 19.3475C51.5998 20.4549 51.1584 21.1518 50.5668 21.0881C50.0181 21.0277 49.5583 20.1717 49.6257 19.3157C49.6411 19.1279 49.6411 18.8924 49.7453 18.762C50.015 18.4247 50.34 18.1383 50.6434 17.8296C50.9469 18.1796 51.2749 18.5106 51.5447 18.8861C51.6366 19.0165 51.5876 19.2584 51.5968 19.3475H51.5998Z" fill="#56262C"/>
<path d="M67.7607 19.0845C68.0152 18.7344 68.2083 18.2762 68.5455 18.0694C68.8582 17.8784 69.3241 17.958 69.7655 18.0694C68.7999 18.5308 69.3762 20.3573 67.8558 20.3001C68.193 19.7718 68.4872 19.3104 68.7815 18.8522C68.7141 18.8044 68.6497 18.7567 68.5823 18.709C68.4167 18.9063 68.2512 19.1036 68.0857 19.3009C67.9784 19.2277 67.8711 19.1577 67.7607 19.0845Z" fill="#EA8E6A"/>
<path d="M54.9527 23.3202C54.4653 23.9566 53.9933 23.9025 53.5488 23.5748C53.0798 23.2311 53.1503 22.4005 53.7388 21.6909C53.7818 22.2032 53.8185 22.6169 53.8584 23.0974C54.1711 23.1611 54.4837 23.2247 54.9527 23.3202Z" fill="#EA8E6A"/>
<path d="M49.7383 9.61772C49.7996 9.48725 49.864 9.35678 49.9253 9.22949C49.864 9.35996 49.7996 9.49043 49.7383 9.61772Z" fill="#F2E2C9"/>
<path d="M49.1943 10.5774C49.2587 10.447 49.3231 10.3165 49.3844 10.186C49.32 10.3165 49.2556 10.447 49.1943 10.5774Z" fill="#F2E2C9"/>
<path d="M49.3818 10.1924C49.4462 10.062 49.5075 9.93149 49.5719 9.8042C49.5075 9.93467 49.4462 10.0651 49.3818 10.1924Z" fill="#F2E2C9"/>
<path d="M48.9893 11.1284C48.9985 11.0075 49.0077 10.8834 49.0199 10.7625C49.0107 10.8834 49.0015 11.0075 48.9893 11.1284Z" fill="#F2E2C9"/>
<path d="M49.0195 10.7661C49.0839 10.6993 49.1483 10.6325 49.2096 10.5657C49.1452 10.6325 49.0808 10.6993 49.0195 10.7661Z" fill="#F2E2C9"/>
<path d="M41.6244 240.651C40.4932 240.565 39.3039 240.613 38.185 240.342C37.3083 240.129 36.4868 239.575 35.702 239.069C35.2667 238.789 34.9878 238.271 34.3532 238.611C34.2398 238.672 33.8597 238.506 33.8444 238.401C33.8107 238.198 33.9394 237.774 34.013 237.771C34.5862 237.746 35.4537 237.561 35.6928 237.87C37.3052 239.967 39.5828 239.735 41.6979 239.766C43.7671 239.798 45.8454 239.49 47.9084 239.225C51.5501 238.764 55.1948 238.283 58.8181 237.688C60.6574 237.386 62.4537 236.823 64.2684 236.374C64.4156 236.336 64.5719 236.215 64.7037 236.241C64.9918 236.301 65.2647 236.431 65.5467 236.533C65.3474 236.731 65.1788 237.042 64.9459 237.106C63.3488 237.529 61.7517 238.016 60.1271 238.268C55.2623 239.019 50.3822 239.69 45.5051 240.352C44.233 240.524 42.9425 240.556 41.6274 240.654L41.6244 240.651Z" fill="#0C2C7E"/>
<path d="M42.9364 231.655C44.1565 231.782 45.0975 232.94 44.932 234.048C44.9014 234.251 44.7113 234.445 44.5519 234.595C44.5243 234.62 44.1749 234.423 44.1687 234.315C44.1105 233.354 43.5832 232.692 42.9426 232.084C42.8843 232.03 42.9334 231.852 42.9334 231.655H42.9364Z" fill="#0C2C7E"/>
<path d="M70.9302 16.1321C70.3785 15.0088 69.7439 13.9205 69.2994 12.7526C68.714 11.222 68.3338 9.60864 67.7698 8.06847C66.8195 5.46864 64.3642 3.16476 61.2528 3.4957C60.5784 3.56889 59.9193 3.81074 59.2266 3.8712C60.2014 3.0311 61.3294 2.76062 62.5617 2.97701C65.765 3.53389 67.5614 5.68821 68.5392 8.74309C68.9071 9.88867 69.2105 11.0565 69.6029 12.1926C70.2804 14.1432 71.0528 16.0366 73.2753 16.6603C73.2446 16.7494 73.217 16.8385 73.1864 16.9276C72.7541 16.8322 72.3097 16.7749 71.8897 16.6317C71.5525 16.5171 71.246 16.3007 70.9241 16.1289L70.9272 16.1321H70.9302Z" fill="#EBD1AF"/>
<path d="M12.1051 61.3769C10.3333 61.8765 9.36462 63.4103 8.18444 64.6704C7.80433 65.0777 7.43955 65.501 7.06864 65.9178C6.24711 63.9003 6.49847 62.5193 7.92695 61.1987C9.0121 60.1963 11.0261 60.279 12.1051 61.3737V61.3769Z" fill="#B3988F"/>
<path d="M13.4849 62.1634C13.3501 62.3702 13.2489 62.612 13.0772 62.7743C11.3116 64.4545 9.53672 66.1188 7.64844 67.8976C8.91444 65.2469 11.1093 63.7226 13.1631 62.0583C13.2704 62.0934 13.3807 62.1252 13.488 62.1602L13.4849 62.1634Z" fill="#EA8E6A"/>
<path d="M16.0492 62.8656C15.7212 63.1074 15.3748 63.327 15.0744 63.6006C13.7287 64.8258 12.3953 66.07 11.0526 67.3015C10.8319 67.502 10.5959 67.6834 10.2832 67.7693C11.6718 65.5799 13.3793 63.7661 15.6875 62.6492C15.807 62.7224 15.9266 62.7924 16.0461 62.8656H16.0492Z" fill="#EA8E6A"/>
<path d="M9.41699 68.51L9.95344 68.0486C10.0117 68.1122 10.0669 68.1759 10.1251 68.2395C9.95344 68.4273 9.78177 68.6118 9.61011 68.7996C9.54574 68.7041 9.48443 68.6055 9.42006 68.51H9.41699Z" fill="#EA8E6A"/>
</svg>
