<svg width="334" height="197" viewBox="0 0 334 197" fill="none" xmlns="http://www.w3.org/2000/svg">
<path d="M121.15 30.9003C122.144 29.8697 123.035 28.7102 124.147 27.8253C133.234 20.553 142.815 14.0232 153.518 9.34792C160.909 6.12031 168.615 3.7742 176.582 2.4757C181.997 1.59421 187.455 0.899188 192.921 0.448272C197.46 0.0719442 202.061 -0.158599 206.597 0.12958C221.108 1.04497 235.144 4.19121 248.57 9.86664C260.673 14.9827 271.966 21.5057 282.039 29.9612C287.552 34.589 292.966 39.3931 297.95 44.577C305.371 52.2934 311.715 60.9048 317.166 70.1469C317.356 70.4656 317.373 70.886 317.471 71.2556C315.088 69.4248 312.433 68.2415 309.399 68.2348C293.871 68.2043 278.34 68.1805 262.812 68.2382C256.12 68.2619 251.248 73.9 251.316 79.9213C251.431 90.5364 251.346 101.152 251.346 111.77C250.143 111.76 248.943 111.75 247.739 111.736C245.945 108.427 243.501 105.942 239.443 105.383V101.426C239.456 99.7649 239.47 98.1037 239.483 96.4424C240.317 96.4187 241.172 96.5034 241.972 96.3305C242.447 96.2254 243.111 95.7779 243.209 95.3677C243.796 92.9707 243.213 91.957 241.063 91.262C241.084 87.3122 241.141 83.3591 241.107 79.4093C241.09 77.2497 239.789 75.9071 237.632 75.8223C235.663 75.7444 233.683 75.8427 231.709 75.863C230.367 75.7817 229.024 75.6291 227.682 75.6291C217.487 75.6291 207.292 75.6528 197.097 75.6732C197.07 73.2965 197.043 70.9199 197.019 68.5433C197.08 65.5089 197.138 62.478 197.199 59.4436C200.264 59.0368 201.39 56.6737 200.105 53.3376C200.301 52.9002 200.386 52.3171 200.718 52.0493C202.105 50.9271 202.664 49.537 202.576 47.7707C202.522 46.7163 202.783 45.6483 202.769 44.5905C202.736 42.1495 202.641 39.705 202.529 37.264C202.481 36.2605 202.261 35.2671 202.23 34.2635C202.166 32.1615 201.335 31.2699 199.294 31.2292C194.402 31.1343 189.513 31.0359 184.621 30.9376C183.831 30.9308 183.041 30.9139 182.251 30.9139C161.885 30.9071 141.523 30.9037 121.157 30.9003H121.15Z" fill="#EBF3FE"/>
<path d="M22.5084 180.767C13.4562 173.586 7.74345 164.337 5.64144 152.976C3.8649 143.371 5.29223 134.109 8.94702 125.087C12.1475 117.191 16.8533 110.329 23.3661 104.942C29.3772 99.9716 35.7002 95.3336 42.1791 90.9906C51.6246 84.6642 61.4668 78.9345 70.8852 72.5675C77.4387 68.1397 83.7176 63.261 89.8338 58.2399C95.5669 53.5341 100.927 48.3706 106.463 43.4207C106.782 43.1359 107.216 42.9833 107.599 42.7664C107.603 43.9055 107.606 45.0413 107.609 46.1804C107.609 46.8517 107.603 47.523 107.603 48.1943C107.603 51.4016 107.972 51.8626 111.01 52.4492C109.311 53.1476 108.386 54.3647 108.61 56.2497C108.888 58.6094 110.705 59.1756 112.797 59.4774V67.8244C112.807 68.0583 112.82 68.2922 112.83 68.5228C112.793 73.4795 112.759 78.4328 112.722 83.3894C112.597 84.0404 112.373 84.6879 112.363 85.3389C112.325 88.3156 112.363 91.2923 112.329 94.2656C112.322 94.8488 112.112 95.4285 111.996 96.0083C109.284 94.764 106.575 93.5198 103.666 92.1874V88.5461C106.867 88.7394 109.054 87.3595 109.444 84.2811C109.759 81.8061 109.63 79.2193 109.301 76.7342C108.982 74.3169 107.223 72.9777 104.822 72.9675C94.5565 72.9302 84.294 72.9268 74.028 72.9709C71.6412 72.9811 69.9088 74.4728 69.6341 76.8088C69.3731 79.0328 69.251 81.301 69.3697 83.5318C69.5019 86.078 70.6207 87.468 72.3464 87.8647L72.3295 87.8545C72.56 87.9732 72.7905 88.0918 73.0211 88.2105C73.8043 88.319 74.5908 88.4241 75.374 88.5326V92.8078C74.2653 93.0044 73.4381 93.1434 72.6143 93.2994C67.5423 94.2521 62.6093 99.2461 62.2127 104.342C61.8635 108.807 61.9957 113.313 61.9143 117.798C61.9347 117.991 61.9584 118.188 61.9788 118.381C61.9381 118.656 61.8635 118.934 61.8635 119.208C61.8635 127.752 61.877 136.296 61.8872 144.839C61.2769 144.894 60.6633 144.995 60.053 144.995C48.8107 145.005 37.5717 144.995 26.3293 145.006C23.7526 145.006 23.0068 145.758 22.9864 148.348C22.9695 150.664 22.9661 152.98 22.9864 155.295C23.0102 157.933 23.6475 158.591 26.2513 158.747C26.2581 159.642 26.2649 160.533 26.2683 161.428C24.6002 161.415 23.4712 162.201 23.1525 163.829C22.9186 165.012 22.9593 166.246 22.8745 167.456C22.7457 168.165 22.5152 168.874 22.5084 169.585C22.4711 173.308 22.4914 177.034 22.4914 180.757L22.5084 180.767Z" fill="#EBF3FE"/>
<path d="M251.347 111.767C251.347 101.151 251.431 90.5329 251.316 79.9178C251.252 73.8965 256.12 68.2584 262.813 68.2346C278.34 68.177 293.868 68.2007 309.399 68.2313C312.434 68.238 315.088 69.4213 317.472 71.252C319.075 73.154 320.486 75.1543 320.896 77.6903C320.893 77.7479 320.882 77.8022 320.882 77.8598C320.882 107.729 320.879 137.598 320.893 167.467C320.893 167.948 321.079 168.426 321.177 168.907C321.174 173.25 321.211 177.597 321.154 181.937C321.093 186.659 319.55 190.667 315.265 193.175C314.258 193.762 313.132 194.142 312.061 194.616C300.418 194.62 288.779 194.627 277.137 194.63C278.49 193.623 279.846 192.616 281.199 191.609C286.043 191.609 290.892 191.613 295.736 191.609C296.299 191.609 296.886 191.667 297.411 191.521C297.689 191.443 297.984 191.002 298.035 190.69C298.065 190.49 297.696 190.097 297.438 190.016C297.025 189.887 296.55 189.928 296.102 189.928C291.37 189.928 286.637 189.928 281.9 189.928C281.894 184.839 281.883 179.75 281.877 174.661C281.921 174.552 281.921 174.447 281.877 174.339C281.988 173.752 282.195 173.169 282.199 172.583C282.219 160.964 282.219 149.342 282.199 137.723C282.199 137.14 281.978 136.553 281.863 135.97C281.907 130.464 281.955 124.955 281.999 119.449C284.287 119.036 284.958 118.249 284.979 115.96C285.013 112.54 284.324 111.868 280.843 111.855C279.158 111.848 277.476 111.797 275.791 111.767C276.872 110.566 277.92 109.332 279.049 108.176C281.765 105.396 281.88 101.633 279.283 99.0122C276.649 96.3541 272.658 96.3643 269.915 98.9715C266.576 102.141 263.169 105.244 259.833 108.417C258.744 109.454 257.788 110.634 256.771 111.75L251.35 111.77L251.347 111.767ZM297.632 181.808C300.12 181.784 301.212 181.174 303.761 178.729C307.338 175.298 311.105 172.057 314.563 168.514C317.696 165.304 317.38 161.537 314.38 158.638C312.101 156.434 308.24 156.139 305.287 159.201C304.348 160.174 303.341 161.086 302.371 162.032C299.11 165.209 295.743 168.287 292.631 171.599C290.725 173.63 290.949 176.17 292.136 178.56C293.248 180.804 295.204 181.736 297.628 181.804L297.632 181.808ZM298.001 161.801C299.476 161.839 301.107 161.3 302.425 160.028C306.524 156.078 310.61 152.118 314.668 148.128C317.268 145.572 317.37 142.615 315.058 139.33C313.461 137.062 310.088 136.286 307.308 137.75C306.145 138.364 305.148 139.35 304.182 140.276C300.296 144.016 296.353 147.701 292.631 151.6C290.712 153.61 290.864 156.221 292.166 158.536C293.312 160.574 295.14 161.852 298.001 161.798V161.801ZM297.804 141.798C297.879 141.937 297.954 142.076 298.032 142.212C299.5 141.483 301.225 141.039 302.388 139.978C306.552 136.177 310.525 132.173 314.563 128.24C316.241 126.606 316.946 124.718 316.482 122.317C315.553 117.523 309.752 115.211 306.128 118.439C301.632 122.446 297.269 126.616 293.01 130.878C290.925 132.963 290.769 135.713 292.109 138.255C293.251 140.429 295.15 141.846 297.804 141.795V141.798ZM262.386 102.108C263.589 101.582 265.03 101.321 265.952 100.487C270.258 96.5982 274.472 92.601 278.602 88.5258C279.592 87.546 280.327 86.1865 280.839 84.8677C281.734 82.5656 280.473 79.5346 278.276 78.1141C275.944 76.6054 272.431 76.6054 270.658 78.2599C266.288 82.3317 261.952 86.4408 257.649 90.5872C255.7 92.4654 255.215 95.2794 256.32 97.7611C257.456 100.3 259.433 101.667 262.386 102.108ZM291.363 115.154C291.363 117.784 293 120.493 295.329 121.314C297.954 122.239 300.462 121.897 302.537 119.907C306.565 116.045 310.549 112.136 314.553 108.251C316.285 106.566 317.099 104.582 316.438 102.169C315.831 99.9445 314.651 98.1849 312.346 97.3882C310.01 96.5847 307.853 96.9949 306.006 98.5307C304.192 100.039 302.527 101.731 300.805 103.348C298.876 105.159 296.95 106.973 295.028 108.79C293.177 110.543 291.264 112.268 291.363 115.147V115.154ZM290.973 94.9065C291.332 97.9408 292.716 100.039 295.16 101.185C297.404 102.236 299.822 102.162 301.778 100.345C306.067 96.3575 310.288 92.2959 314.539 88.2648C316.353 86.5425 317.116 84.471 316.431 82.0198C314.983 76.8292 309.576 75.5679 306.324 78.3006C301.72 82.1723 297.445 86.4509 293.197 90.7194C292.132 91.7907 291.698 93.4927 290.976 94.9031L290.973 94.9065ZM286.372 186.022V78.5311C285.325 80.189 285.365 184.523 286.372 186.022ZM298.14 72.9743C298.11 72.7336 298.079 72.4929 298.049 72.2488C297.54 72.1437 297.031 71.9505 296.519 71.9471C289.698 71.9267 282.877 71.9165 276.055 71.9674C275.52 71.9708 274.987 72.476 274.452 72.7506C274.967 73.0421 275.482 73.5812 276.001 73.5846C282.765 73.6422 289.532 73.6388 296.296 73.5948C296.913 73.5914 297.526 73.1879 298.14 72.9709V72.9743Z" fill="#B9C9E7"/>
<path d="M321.177 168.904C321.079 168.423 320.892 167.945 320.892 167.463C320.879 137.594 320.882 107.725 320.882 77.8565C320.882 77.7989 320.892 77.7446 320.896 77.687C321.201 77.9854 321.621 78.2261 321.794 78.5855C326.887 89.2413 331.009 100.233 332.694 111.977C333.427 117.076 334.03 122.253 333.999 127.389C333.942 137.93 332.162 148.223 327.537 157.808C325.69 161.635 323.313 165.209 321.177 168.901V168.904Z" fill="#EBF3FE"/>
<path d="M22.8915 167.47C22.9728 166.259 22.9355 165.022 23.1661 163.842C23.4848 162.218 24.6171 161.428 26.2818 161.442C39.8737 161.442 53.4622 161.442 67.0541 161.442C70.78 161.442 71.6785 162.32 71.6785 165.968C71.6785 173.976 71.631 181.984 71.7158 189.992C71.7361 191.853 71.4581 193.423 69.9426 194.613C54.9166 194.613 39.8906 194.613 24.8646 194.613C22.7558 193.216 22.7898 191.067 22.844 188.904H59.3478V167.473C50.2888 167.473 41.3383 167.473 32.3878 167.473C32.2183 164.954 31.5775 163.947 30.0756 163.835C28.1804 163.696 27.3938 164.697 27.2108 167.48L22.8881 167.466L22.8915 167.47Z" fill="#5595E7"/>
<path d="M107.613 46.1907C107.609 45.0515 107.606 43.9158 107.602 42.7766C107.602 39.9084 107.599 37.0368 107.606 34.1686C107.613 32.2055 108.843 30.9443 110.854 30.924C114.285 30.8901 117.719 30.907 121.15 30.9037C141.516 30.907 161.878 30.9104 182.244 30.9172C183.034 30.9172 183.824 30.9342 184.614 30.9409C184.614 35.9485 184.614 40.956 184.614 46.0517H178.569C178.539 45.394 178.488 44.8447 178.488 44.2955C178.478 41.1323 178.471 37.9691 178.481 34.8059C178.484 33.7142 178.4 32.6531 176.986 32.6395C175.569 32.6259 175.443 33.7346 175.433 34.789C175.406 37.9522 175.423 41.1154 175.413 44.2785C175.413 44.8719 175.348 45.4652 175.318 46.0246H170.67C170.67 42.1053 170.659 38.3285 170.676 34.5517C170.68 33.5346 170.432 32.7107 169.263 32.6395C167.944 32.5581 167.686 33.5244 167.632 34.5381C167.574 35.6094 167.618 36.6842 167.618 37.7555C167.618 40.5017 167.618 43.2479 167.618 46.0585H162.872C162.872 45.3465 162.872 44.7396 162.872 44.1328C162.872 40.9119 162.845 37.6945 162.885 34.4737C162.902 33.2362 162.221 32.5412 161.177 32.7243C160.641 32.8192 159.905 33.8295 159.881 34.4533C159.753 37.725 159.824 41.0035 159.817 44.2785C159.817 44.8719 159.756 45.4686 159.726 46.0314H155.176C155.128 45.6211 155.071 45.3465 155.071 45.0719C155.064 41.5697 155.071 38.0674 155.057 34.5652C155.054 33.46 154.565 32.6327 153.382 32.6598C152.213 32.687 151.996 33.5922 152.006 34.5923C152.023 36.7961 152.009 38.9964 152.009 41.2001C152.009 42.8139 152.009 44.4277 152.009 46.0347H147.263C147.263 45.2889 147.263 44.6786 147.263 44.0683C147.263 40.9052 147.263 37.742 147.259 34.5788C147.259 33.4667 146.761 32.6565 145.591 32.6565C144.405 32.6565 144.198 33.5617 144.205 34.5652C144.221 37.108 144.211 39.6473 144.211 42.1901C144.211 43.4649 144.211 44.7396 144.211 46.0449H139.455C139.455 42.4918 139.472 39.0608 139.441 35.6264C139.434 34.9653 139.4 34.2262 139.102 33.6702C138.855 33.2091 138.217 32.7378 137.719 32.7005C137.319 32.67 136.712 33.1921 136.475 33.6193C136.193 34.1279 136.125 34.7992 136.119 35.4026C136.081 37.7759 136.105 40.1457 136.105 42.519C136.105 45.1137 134.787 46.3071 132.152 46.0992C132.054 46.0924 131.959 46.0008 131.653 45.8347C131.653 45.3465 131.653 44.7396 131.653 44.1362C131.653 41.0848 131.677 38.0369 131.64 34.9856C131.626 33.86 131.325 32.6565 129.962 32.6802C128.623 32.7039 128.365 33.8905 128.311 35.0263C128.294 35.3653 128.311 35.7044 128.311 36.0434C128.311 38.8676 128.233 41.6951 128.345 44.5159C128.399 45.9161 127.883 46.3534 126.595 46.1771C126.317 46.1398 126.026 46.1365 125.751 46.1771C124.303 46.4009 123.764 45.8991 123.829 44.343C123.954 41.1866 123.896 38.0166 123.846 34.8568C123.829 33.799 123.476 32.6632 122.211 32.6768C120.916 32.6904 120.489 33.7041 120.499 34.9348C120.523 38.0403 120.513 41.1493 120.499 44.2548C120.499 44.8515 120.438 45.4482 120.408 46.0347H115.76C115.76 45.3431 115.76 44.7905 115.76 44.2345C115.76 40.9594 115.753 37.6809 115.76 34.4059C115.76 33.3413 115.312 32.4666 114.227 32.6938C113.634 32.8192 113.068 33.6939 112.759 34.355C112.522 34.867 112.705 35.5755 112.705 36.196C112.705 39.4541 112.705 42.7122 112.705 46.1873H107.616L107.613 46.1907Z" fill="#EAF0F8"/>
<path d="M32.3916 167.473H59.3516V188.903H22.8478C22.7359 187.479 22.5834 186.059 22.5223 184.635C22.4681 183.347 22.5088 182.055 22.5088 180.767C22.5088 177.044 22.4884 173.318 22.5257 169.595C22.5325 168.887 22.7631 168.178 22.8919 167.466C24.3328 167.47 25.7737 167.473 27.2146 167.48L27.2722 167.571C27.2688 171.752 27.2383 175.935 27.2756 180.116C27.2858 181.289 27.4214 182.472 27.635 183.628C27.9266 185.208 29.6387 185.839 31.0185 185.038C32.2594 184.316 32.3374 183.17 32.3374 181.974C32.3442 177.169 32.3374 172.369 32.3306 167.565L32.3916 167.473Z" fill="#EAF0F8"/>
<path d="M24.8682 194.613C39.8942 194.613 54.9202 194.613 69.9461 194.613C71.543 194.62 73.1398 194.63 74.7333 194.637C81.7344 194.627 88.732 194.616 95.7331 194.606C100.941 194.606 106.148 194.61 111.359 194.613C115.428 194.62 119.499 194.627 123.571 194.633C127.718 194.637 131.864 194.64 136.01 194.644C139.238 194.623 142.469 194.6 145.697 194.579C147.195 194.555 148.69 194.532 150.189 194.508C150.46 194.566 150.735 194.674 151.006 194.674C158.129 194.664 165.252 194.644 172.375 194.627C177.322 194.647 182.268 194.688 187.215 194.671C188.032 194.671 188.849 194.423 189.663 194.291C190.195 194.427 190.73 194.681 191.263 194.681C199.379 194.684 207.496 194.654 215.616 194.633C219.728 194.633 223.844 194.627 227.956 194.623C231.92 194.623 235.883 194.616 239.846 194.613C249.451 194.616 259.059 194.62 268.664 194.627C271.488 194.627 274.309 194.63 277.133 194.633C288.776 194.63 300.415 194.623 312.057 194.62C317.655 194.664 323.256 194.705 328.853 194.749C328.88 195.04 328.904 195.335 328.931 195.627C328.134 195.762 327.337 196.013 326.541 196.013C313.037 196.037 299.537 196.023 286.033 196.023C191.629 196.023 97.2214 196.027 2.81737 196.017C1.88164 196.017 0.945905 195.834 0.0101706 195.735C0.0101706 195.501 0.00339034 195.264 0 195.03C0.830634 194.908 1.66127 194.684 2.49529 194.678C9.95065 194.633 17.4094 194.627 24.8648 194.613H24.8682Z" fill="#0C2C7E"/>
<path d="M107.613 46.1907H112.702C112.702 42.7122 112.702 39.4575 112.702 36.1994C112.702 35.5789 112.519 34.8704 112.756 34.3584C113.062 33.6973 113.631 32.8226 114.224 32.6971C115.309 32.47 115.76 33.3447 115.757 34.4093C115.747 37.6843 115.757 40.9628 115.757 44.2379C115.757 44.7905 115.757 45.3465 115.757 46.0381H120.405C120.435 45.4516 120.497 44.8549 120.497 44.2582C120.507 41.1527 120.517 38.0437 120.497 34.9382C120.486 33.7075 120.914 32.6938 122.209 32.6802C123.473 32.6666 123.826 33.8024 123.843 34.8602C123.894 38.0234 123.951 41.1899 123.826 44.3464C123.765 45.8991 124.3 46.4009 125.748 46.1805C126.023 46.1365 126.318 46.1432 126.592 46.1805C127.881 46.3568 128.396 45.9195 128.342 44.5193C128.233 41.6985 128.308 38.871 128.308 36.0468C128.308 35.7078 128.294 35.3687 128.308 35.0297C128.366 33.8939 128.623 32.7073 129.959 32.6836C131.322 32.6599 131.624 33.8634 131.637 34.989C131.674 38.0403 131.651 41.0882 131.651 44.1395C131.651 44.7464 131.651 45.3499 131.651 45.8381C131.956 46.0042 132.047 46.0958 132.149 46.1026C134.785 46.3105 136.102 45.1171 136.102 42.5224C136.102 40.1491 136.082 37.7759 136.116 35.406C136.126 34.8025 136.194 34.1313 136.472 33.6227C136.709 33.1921 137.313 32.67 137.716 32.7039C138.214 32.7446 138.852 33.2125 139.099 33.6736C139.398 34.2296 139.432 34.9687 139.438 35.6298C139.469 39.0608 139.452 42.4952 139.452 46.0483H144.209C144.209 44.743 144.209 43.4683 144.209 42.1935C144.209 39.6507 144.222 37.1114 144.202 34.5686C144.195 33.5651 144.398 32.6632 145.588 32.6599C146.758 32.6599 147.253 33.4668 147.256 34.5822C147.263 37.7454 147.26 40.9085 147.26 44.0717C147.26 44.682 147.26 45.2923 147.26 46.0381H152.006C152.006 44.4277 152.006 42.8173 152.006 41.2035C152.006 38.9998 152.017 36.7995 152.003 34.5957C151.996 33.5956 152.21 32.6904 153.379 32.6632C154.563 32.6361 155.048 33.4634 155.054 34.5686C155.064 38.0708 155.058 41.5731 155.068 45.0753C155.068 45.3499 155.125 45.6245 155.173 46.0347H159.723C159.753 45.472 159.814 44.8752 159.814 44.2819C159.824 41.0069 159.75 37.7284 159.879 34.4567C159.902 33.8363 160.635 32.826 161.174 32.7277C162.218 32.5412 162.9 33.2396 162.883 34.4771C162.842 37.6945 162.869 40.9153 162.869 44.1362C162.869 44.743 162.869 45.3499 162.869 46.0619H167.615C167.615 43.2513 167.615 40.5051 167.615 37.7589C167.615 36.6842 167.575 35.6094 167.629 34.5415C167.683 33.5278 167.941 32.5581 169.26 32.6429C170.426 32.7175 170.677 33.5379 170.674 34.5551C170.657 38.3319 170.667 42.1087 170.667 46.028H175.315C175.345 45.472 175.41 44.8752 175.41 44.2819C175.423 41.1187 175.406 37.9556 175.43 34.7924C175.44 33.738 175.566 32.6293 176.983 32.6429C178.397 32.6565 178.485 33.7176 178.478 34.8093C178.468 37.9725 178.478 41.1357 178.485 44.2989C178.485 44.8481 178.536 45.4008 178.566 46.0551H184.611C184.611 40.9594 184.611 35.9519 184.611 30.9443C189.504 31.0427 194.392 31.141 199.285 31.2359C201.326 31.2766 202.156 32.1683 202.221 34.2703C202.251 35.2738 202.472 36.2672 202.519 37.2707C202.631 39.7118 202.726 42.1528 202.76 44.5972C202.773 45.6584 202.516 46.723 202.567 47.7774C202.655 49.5471 202.095 50.9338 200.709 52.056C200.376 52.3272 200.292 52.907 200.095 53.3443C199.369 53.107 198.654 52.6934 197.922 52.6629C195.406 52.551 192.884 52.5781 190.365 52.5408C186.089 52.4764 181.811 52.3543 177.536 52.3476C156.261 52.3137 134.987 52.3069 113.712 52.3001C112.814 52.3001 111.916 52.4086 111.017 52.4662C107.976 51.8797 107.606 51.4186 107.606 48.2113C107.606 47.5401 107.613 46.8688 107.613 46.1975V46.1907Z" fill="#B2C6E4"/>
<path d="M112.837 68.5362C112.826 68.3023 112.813 68.0684 112.803 67.8378C112.877 65.5968 113.027 63.3592 112.999 61.1216C112.982 59.857 113.254 59.362 114.671 59.3552C131.528 59.2976 148.388 59.1111 165.245 59.084C175.049 59.067 184.854 59.2806 194.659 59.3925C195.507 59.4027 196.351 59.4298 197.195 59.4467C197.134 62.4811 197.076 65.512 197.015 68.5464C196.415 68.4345 195.815 68.2311 195.215 68.2277C191.177 68.1972 187.136 68.2006 183.098 68.2277C182.684 68.2277 182.271 68.4379 181.857 68.5498C181.518 68.5498 181.183 68.5464 180.844 68.543C180.165 68.543 179.484 68.5498 178.806 68.5532C176.66 68.5532 174.51 68.5532 172.364 68.5532C172.252 68.5464 172.141 68.5396 172.025 68.5362C171.91 68.5362 171.798 68.5362 171.683 68.5362C171.571 68.5362 171.459 68.5464 171.347 68.5532C168.747 68.5532 166.15 68.5532 163.549 68.5532C157.674 68.5532 151.795 68.5532 145.92 68.5532C145.353 68.5532 144.791 68.5532 144.224 68.5532C143.323 68.5498 142.417 68.5464 141.516 68.5396C141.4 68.5396 141.288 68.5396 141.173 68.5396C141.061 68.5396 140.949 68.5464 140.834 68.5532C140.268 68.5532 139.705 68.5532 139.139 68.5532L136.084 68.5396C128.398 68.5464 120.716 68.5566 113.03 68.5634C112.965 68.5464 112.901 68.5396 112.837 68.5396V68.5362Z" fill="#F27C27"/>
<path d="M197.192 59.4466C196.348 59.4263 195.5 59.4025 194.656 59.3924C184.851 59.2805 175.047 59.0703 165.242 59.0838C148.385 59.111 131.525 59.2974 114.668 59.3551C113.254 59.3585 112.983 59.8568 112.996 61.1214C113.024 63.3591 112.874 65.6001 112.8 67.8377C112.8 65.0915 112.8 62.3454 112.8 59.4907C110.708 59.1889 108.887 58.6228 108.613 56.2631C108.392 54.3814 109.315 53.1643 111.013 52.4625C111.912 52.4049 112.81 52.2964 113.708 52.2964C134.983 52.3032 156.257 52.3099 177.532 52.3439C181.807 52.3506 186.085 52.4761 190.361 52.5371C192.88 52.5744 195.402 52.5473 197.918 52.6592C198.65 52.6931 199.369 53.1033 200.091 53.3406C201.376 56.6767 200.25 59.0432 197.185 59.4466H197.192Z" fill="#F8AA23"/>
<path d="M231.706 75.8662C233.679 75.8459 235.659 75.7475 237.629 75.8255C239.789 75.9103 241.087 77.2529 241.104 79.4125C241.138 83.3623 241.08 87.3154 241.06 91.2651C240.867 91.2651 240.674 91.2685 240.48 91.2719C230.035 91.2787 219.586 91.2821 209.14 91.3024C208.547 91.3024 207.953 91.4753 207.357 91.5669C205.743 91.4855 204.132 91.3228 202.519 91.3363C199.562 91.3601 196.609 91.4889 193.656 91.5703C193.697 89.9972 193.738 88.4274 193.778 86.8543H198.996C198.962 86.4305 198.935 86.2678 198.938 86.105C199.01 83.5826 199.023 81.0568 199.227 78.548C199.26 78.1276 200.132 77.775 200.617 77.3919C200.915 77.8529 201.437 78.2937 201.478 78.7751C201.674 81.1246 201.732 83.4877 201.861 85.8474C201.881 86.2135 202.013 86.5763 202.074 86.8543C203.163 86.8543 204.119 86.7933 205.065 86.8713C206.231 86.9662 206.675 86.5627 206.624 85.3524C206.54 83.3792 206.489 81.3891 206.679 79.4295C206.736 78.8158 207.509 78.0089 208.136 77.775C209.133 77.402 209.682 78.1106 209.726 79.1447C209.835 81.6535 209.947 84.159 210.062 86.8543C211.13 86.8543 212.361 86.817 213.588 86.8645C214.5 86.8984 214.754 86.4746 214.741 85.6406C214.71 83.6064 214.741 81.5755 214.727 79.5413C214.724 78.5954 214.676 77.7004 216.053 77.6936C217.358 77.6936 217.707 78.5141 217.762 79.5447C217.829 80.8975 217.758 82.257 217.789 83.6097C217.873 87.3425 217.05 86.7662 221.135 86.8746C222.291 86.9052 222.583 86.4475 222.549 85.3829C222.484 83.3521 222.545 81.3179 222.525 79.2837C222.518 78.3988 222.654 77.7106 223.773 77.7004C224.841 77.6936 225.536 78.0869 225.573 79.2294C225.607 80.3008 225.583 81.3755 225.583 82.4502C225.583 86.9492 225.583 86.9153 230.146 86.8814C231.299 86.8713 231.737 86.5695 231.709 85.3558C231.642 82.196 231.693 79.0294 231.699 75.8662H231.706Z" fill="#F58F1F"/>
<path d="M275.787 111.767C277.472 111.797 279.154 111.848 280.839 111.855C284.324 111.872 285.009 112.543 284.975 115.96C284.955 118.252 284.283 119.035 281.995 119.449C279.127 119.439 276.255 119.425 273.387 119.415C260.473 119.429 247.559 119.442 234.646 119.456C233.771 118.934 232.638 118.605 232.079 117.852C231.004 116.405 231.679 113.485 233.144 112.058C234.035 111.99 234.923 111.875 235.815 111.861C239.789 111.804 243.762 111.773 247.736 111.733C248.939 111.743 250.139 111.753 251.343 111.767C253.15 111.76 254.957 111.753 256.764 111.746C257.761 111.753 258.758 111.76 259.754 111.763C261.161 111.75 262.568 111.739 263.972 111.726C264.389 111.733 264.806 111.739 265.223 111.746C267.01 111.783 268.796 111.824 270.583 111.861C271.207 111.865 271.834 111.872 272.458 111.875C273.567 111.838 274.675 111.797 275.787 111.76V111.767ZM237.951 113.753H282.778C281.351 112.716 239.26 112.733 237.951 113.753Z" fill="#0C2C7E"/>
<path d="M231.706 75.8663C231.703 79.0294 231.648 82.1926 231.716 85.3558C231.743 86.5696 231.306 86.8713 230.153 86.8815C225.59 86.9154 225.59 86.9527 225.59 82.4503C225.59 81.3756 225.61 80.3042 225.58 79.2295C225.546 78.0835 224.851 77.6937 223.779 77.7004C222.661 77.7072 222.525 78.3955 222.532 79.2837C222.552 81.3179 222.491 83.3521 222.556 85.3829C222.589 86.4475 222.298 86.9052 221.142 86.8747C217.06 86.7662 217.88 87.3392 217.796 83.6098C217.765 82.2537 217.836 80.8975 217.768 79.5448C217.718 78.5141 217.368 77.6903 216.06 77.6937C214.683 77.697 214.727 78.5921 214.734 79.5414C214.744 81.5756 214.714 83.6098 214.748 85.6406C214.761 86.478 214.507 86.9018 213.595 86.8645C212.368 86.8171 211.137 86.8544 210.069 86.8544C209.95 84.159 209.842 81.6502 209.733 79.1447C209.689 78.1107 209.14 77.4021 208.143 77.775C207.516 78.009 206.743 78.8159 206.685 79.4295C206.496 81.3891 206.546 83.3793 206.631 85.3524C206.682 86.5628 206.234 86.9662 205.072 86.8713C204.126 86.7933 203.173 86.8544 202.081 86.8544C202.02 86.5763 201.888 86.2136 201.868 85.8474C201.739 83.4911 201.678 81.1281 201.485 78.7752C201.444 78.2937 200.925 77.8496 200.623 77.3919C200.139 77.775 199.267 78.1276 199.233 78.548C199.03 81.0603 199.016 83.5861 198.945 86.1051C198.942 86.2678 198.969 86.434 199.003 86.8544C197.24 86.8544 195.511 86.8544 193.785 86.8544C193.768 85.8237 193.751 84.793 193.731 83.7624C193.731 82.6978 193.724 81.6298 193.724 80.5653C193.724 76.9037 193.822 76.7613 197.098 75.6764C207.292 75.6594 217.487 75.6323 227.682 75.6323C229.024 75.6323 230.367 75.7849 231.709 75.8663H231.706Z" fill="#F8AA23"/>
<path d="M247.735 111.736C243.761 111.777 239.788 111.804 235.814 111.865C234.922 111.878 234.034 111.994 233.143 112.062C232.064 110.57 230.98 109.085 229.908 107.59C228.688 105.888 227.084 105.416 224.975 105.444C215.123 105.566 205.267 105.501 195.411 105.505C195.405 104.155 195.394 102.803 195.388 101.453C210.071 101.446 224.758 101.436 239.442 101.429V105.386C243.5 105.942 245.944 108.43 247.738 111.739L247.735 111.736Z" fill="#5595E7"/>
<path d="M193.656 91.5705C196.609 91.4858 199.565 91.3603 202.518 91.3366C204.129 91.323 205.742 91.4857 207.353 91.5671C217.748 91.5705 228.142 91.5807 238.537 91.5671C239.185 91.5671 239.829 91.3773 240.476 91.2722C240.67 91.2722 240.863 91.2688 241.056 91.2654C243.206 91.9604 243.789 92.9741 243.202 95.3711C243.101 95.7813 242.439 96.2288 241.965 96.3339C241.165 96.5102 240.31 96.4221 239.476 96.4458C234.855 96.4153 230.234 96.3611 225.613 96.3644C215.524 96.3746 205.434 96.4153 195.348 96.4424C194.788 96.4221 194.215 96.317 193.669 96.3916C191.873 96.6391 191.466 95.761 191.527 94.1438C191.622 91.6078 191.544 91.6044 193.649 91.5739L193.656 91.5705Z" fill="#F8AA23"/>
<path d="M195.355 96.4387C205.445 96.4116 215.534 96.3709 225.621 96.3607C230.242 96.3573 234.863 96.415 239.484 96.4421C239.47 98.1034 239.457 99.7646 239.443 101.426C224.759 101.433 210.072 101.443 195.389 101.45C195.379 99.7782 195.369 98.1101 195.355 96.4387Z" fill="#2254B5"/>
<path d="M197.094 75.6766C193.818 76.7615 193.72 76.9039 193.72 80.5655C193.72 81.63 193.724 82.698 193.727 83.7626C189.791 83.7151 185.855 83.671 181.918 83.6236C181.901 83.5591 181.878 83.4981 181.844 83.4405C181.844 78.7008 181.847 73.9645 181.851 69.2248C181.851 68.9976 181.854 68.7705 181.857 68.5433C182.271 68.4314 182.685 68.2246 183.098 68.2212C187.136 68.1975 191.177 68.1941 195.215 68.2212C195.815 68.2246 196.415 68.4314 197.016 68.5399C197.043 70.9166 197.07 73.2932 197.094 75.6698V75.6766Z" fill="#F58F1F"/>
<path d="M181.848 69.2246C181.848 73.9643 181.845 78.7006 181.841 83.4403C178.807 83.4878 175.776 83.5353 172.741 83.5827C172.036 83.5827 171.331 83.5827 170.626 83.5827L165.957 83.559C162.642 83.5454 159.326 83.498 156.01 83.5319C153.318 83.5624 150.626 83.6946 147.931 83.7827C146.029 83.8099 144.124 83.8404 142.222 83.8675C141.411 83.8641 140.598 83.8607 139.787 83.8573C139.56 83.8234 139.336 83.7895 139.109 83.7556C138.767 83.698 138.424 83.637 138.082 83.5793C136.739 83.5285 135.397 83.4742 134.051 83.4234C134.051 80.6602 134.153 77.8903 133.993 75.1374C133.925 73.9677 133.536 72.6692 132.878 71.7131C131.691 69.9807 129.43 69.4348 127.599 70.0959C125.555 70.835 124.29 72.6455 124.239 75.0797C124.182 77.8971 124.202 80.7179 124.192 83.5386C120.371 83.4946 116.55 83.4505 112.729 83.4064C112.766 78.4497 112.8 73.4964 112.837 68.5398C112.902 68.5398 112.966 68.5499 113.031 68.5635C113.471 68.7839 113.909 69.1975 114.35 69.1975C121.161 69.2382 127.972 69.2382 134.787 69.1975C135.221 69.1975 135.651 68.7703 136.085 68.5398C137.102 68.5432 138.123 68.5499 139.14 68.5533C139.703 69.6281 140.269 69.6281 140.835 68.5533C140.947 68.5465 141.059 68.5432 141.174 68.5398C141.289 68.5398 141.401 68.5398 141.516 68.5398C142.418 68.5432 143.323 68.5465 144.225 68.5533C144.791 69.6315 145.354 69.6315 145.92 68.5533C151.796 68.5533 157.675 68.5533 163.55 68.5533C163.815 68.7771 164.076 69.1873 164.347 69.1941C166.415 69.2483 168.487 69.2483 170.555 69.1941C170.826 69.1873 171.084 68.7771 171.351 68.5533C171.463 68.5465 171.575 68.5398 171.687 68.5364C171.802 68.5364 171.914 68.5364 172.029 68.5364C172.141 68.5398 172.253 68.5465 172.369 68.5533C172.579 68.7703 172.779 69.1738 172.996 69.1805C174.725 69.2314 176.457 69.2314 178.186 69.1805C178.4 69.1738 178.603 68.7703 178.814 68.5533C179.492 68.5533 180.173 68.5465 180.851 68.5432C181.187 68.7737 181.522 69.0009 181.861 69.2314L181.848 69.2246Z" fill="#FFA653"/>
<path d="M61.9282 117.811C62.0096 113.323 61.8774 108.82 62.2266 104.355C62.6232 99.2595 67.5562 94.2655 72.6281 93.3128C73.452 93.1569 74.2792 93.0179 75.3879 92.8212C75.3879 91.4142 75.3879 89.9801 75.3879 88.546C83.1789 88.546 90.9699 88.5562 98.7643 88.5358C101.863 88.5257 103.826 86.5423 103.87 83.4469C103.894 81.867 103.924 80.2837 103.86 78.7038C103.745 75.8729 102.073 73.9879 99.5949 73.9777C91.1258 73.9472 82.6568 73.9506 74.1877 73.9777C72.3162 73.9845 70.9974 74.8999 70.6414 76.7374C70.3125 78.4292 70.4549 80.2058 70.3058 81.9348C70.1091 84.2369 70.4753 86.3084 72.3603 87.8747C70.6346 87.4814 69.5158 86.088 69.3836 83.5419C69.2683 81.3076 69.387 79.0429 69.648 76.8188C69.9227 74.4829 71.6585 72.9911 74.0419 72.9809C84.3079 72.9369 94.5704 72.9403 104.836 72.9775C107.237 72.9877 108.996 74.3269 109.315 76.7442C109.644 79.2293 109.769 81.8162 109.457 84.2911C109.068 87.3695 106.881 88.7494 103.68 88.5562V92.1974C106.589 93.5332 109.301 94.7774 112.01 96.0183C115.119 98.6594 116.882 102.043 117.059 106.088C117.228 109.966 117.076 113.858 117.065 117.747C113.465 117.723 109.864 117.696 106.267 117.672C106.267 114.343 106.216 111.014 106.267 107.684C106.379 100.249 100.476 93.6315 92.5871 93.9163C86.7828 94.1265 80.9548 93.7773 75.1573 94.0621C72.896 94.174 70.4515 94.9368 68.4987 96.0929C64.4778 98.4729 63.0775 102.555 62.8911 107.017C62.7419 110.566 62.864 114.126 62.864 117.679C62.5554 117.723 62.2435 117.767 61.935 117.815L61.9282 117.811Z" fill="#B9C9E7"/>
<path d="M26.265 158.76C23.6612 158.608 23.0205 157.946 23.0001 155.309C22.9798 152.993 22.9798 150.678 23.0001 148.362C23.0205 145.775 23.7629 145.022 26.343 145.019C37.5854 145.009 48.8244 145.019 60.0667 145.009C60.677 145.009 61.2906 144.907 61.9009 144.853L62.0602 144.873L62.2162 144.846C64.125 144.846 66.0337 144.843 67.9425 144.839C69.8445 144.907 71.7431 144.978 73.645 145.05C76.4319 145.334 76.7574 145.697 76.7574 148.518C76.7574 150.833 76.7574 153.149 76.7574 155.465C76.7574 158.021 76.0318 158.719 73.4077 158.73C57.8054 158.716 42.1996 158.702 26.5973 158.692C26.4888 158.692 26.3769 158.74 26.2684 158.763L26.265 158.76ZM41.4741 150.942C41.4741 150.942 41.4639 150.942 41.4605 150.942C41.4605 150.098 41.5826 149.226 41.4131 148.416C41.3215 147.975 40.7587 147.358 40.3722 147.331C39.9993 147.304 39.2534 147.911 39.2331 148.274C39.1314 150.01 39.1551 151.762 39.2941 153.495C39.3246 153.895 39.9823 154.244 40.3519 154.617C40.7282 154.183 41.3046 153.8 41.4266 153.302C41.6097 152.559 41.4741 151.735 41.4741 150.945V150.942ZM37.0327 150.752C37.0327 150.752 37.0463 150.752 37.0531 150.752C37.0531 149.966 37.1785 149.152 37.0056 148.406C36.9039 147.962 36.3309 147.63 35.9682 147.247C35.5613 147.636 34.8324 148.003 34.8019 148.426C34.6731 150.04 34.7002 151.678 34.829 153.295C34.8595 153.661 35.541 154.248 35.9139 154.241C36.2936 154.234 36.8971 153.671 36.9853 153.261C37.1548 152.457 37.0361 151.59 37.0361 150.749L37.0327 150.752ZM59.1174 151.081H59.1242C59.1242 150.233 59.2361 149.365 59.0801 148.548C58.9886 148.067 58.4733 147.667 58.1512 147.233C57.8088 147.613 57.1951 147.975 57.168 148.375C57.0527 150.118 57.0493 151.874 57.151 153.617C57.1714 153.976 57.8291 154.295 58.1919 154.634C58.5004 154.298 59.0123 153.993 59.0734 153.614C59.209 152.79 59.114 151.929 59.114 151.081H59.1174ZM67.9391 151.013C67.9391 150.108 68.0035 149.199 67.9086 148.304C67.8679 147.942 67.4272 147.304 67.2509 147.331C66.8237 147.399 66.1049 147.772 66.0981 148.033C66.0541 149.986 66.1185 151.942 66.2541 153.892C66.271 154.142 66.9457 154.58 67.2271 154.522C67.5187 154.461 67.8611 153.915 67.9052 153.549C68.0069 152.715 67.9357 151.857 67.9391 151.01V151.013ZM45.8951 150.867C45.8951 150.867 45.8781 150.867 45.868 150.867C45.868 150.023 45.9934 149.148 45.8171 148.345C45.7222 147.921 45.1018 147.613 44.7186 147.25C44.4339 147.664 43.9355 148.06 43.9084 148.491C43.81 150.064 43.7965 151.651 43.9084 153.22C43.9423 153.685 44.5051 154.112 44.8271 154.556C45.1831 154.115 45.7324 153.722 45.8476 153.227C46.0205 152.478 45.8917 151.661 45.8917 150.871L45.8951 150.867ZM52.6961 150.739H52.7029C52.7029 151.64 52.6114 152.556 52.7436 153.437C52.8046 153.841 53.3132 154.18 53.6183 154.546C53.9675 154.231 54.6083 153.925 54.6218 153.593C54.6998 151.742 54.6625 149.884 54.5608 148.036C54.5439 147.752 53.8963 147.233 53.6692 147.294C53.2894 147.396 52.8012 147.847 52.7402 148.213C52.6012 149.033 52.6961 149.894 52.6961 150.742V150.739ZM63.5215 150.85C63.5215 150.85 63.5317 150.85 63.535 150.85C63.535 150.067 63.63 149.264 63.4977 148.504C63.4198 148.053 62.979 147.667 62.6976 147.25C62.3077 147.602 61.6127 147.935 61.5856 148.311C61.4636 150.04 61.4771 151.783 61.572 153.515C61.5924 153.875 62.1823 154.203 62.5078 154.546C62.8468 154.156 63.3893 153.803 63.474 153.363C63.63 152.552 63.5181 151.691 63.5181 150.85H63.5215ZM27.9161 150.85C27.9161 150.85 27.9263 150.85 27.9331 150.85C27.9331 150.064 28.0314 149.26 27.8958 148.494C27.8178 148.047 27.3703 147.66 27.0889 147.25C26.7058 147.609 26.0175 147.945 25.987 148.328C25.8616 150.006 25.8751 151.698 25.9667 153.38C25.9836 153.705 26.5871 154.234 26.9194 154.234C27.2482 154.234 27.8042 153.725 27.8653 153.373C28.0077 152.556 27.9093 151.695 27.9093 150.85H27.9161ZM32.3371 150.772H32.3473C32.3473 150.04 32.4592 149.287 32.31 148.589C32.2049 148.104 31.7336 147.701 31.4251 147.26C31.059 147.697 30.4114 148.111 30.3741 148.576C30.2419 150.138 30.2588 151.725 30.3741 153.288C30.4012 153.651 31.0081 154.119 31.4319 154.234C31.6353 154.288 32.2388 153.668 32.2998 153.295C32.4354 152.474 32.3405 151.617 32.3405 150.772H32.3371ZM48.2785 150.806C48.2785 151.596 48.1904 152.403 48.3158 153.173C48.3802 153.576 48.8244 153.919 49.0956 154.288C49.4787 153.959 50.1703 153.654 50.1974 153.302C50.3127 151.617 50.3161 149.918 50.1907 148.233C50.1635 147.884 49.4244 147.586 49.0142 147.263C48.7667 147.653 48.37 148.02 48.309 148.437C48.1938 149.21 48.2751 150.013 48.2785 150.803V150.806Z" fill="#0C2C7E"/>
<path d="M117.058 117.747C117.069 113.862 117.218 109.97 117.052 106.091C116.875 102.047 115.112 98.6664 112.003 96.0219C112.119 95.4422 112.329 94.8624 112.336 94.2793C112.37 91.3026 112.329 88.3259 112.37 85.3525C112.38 84.7016 112.604 84.0506 112.729 83.4031C116.55 83.4472 120.371 83.4912 124.195 83.5353C124.188 83.6201 124.219 83.6879 124.283 83.7421C124.27 99.5987 124.259 115.455 124.246 131.312C121.876 131.353 119.506 131.397 117.14 131.437C117.113 126.874 117.089 122.311 117.062 117.751L117.058 117.747Z" fill="#E0E8F5"/>
<path d="M72.3538 87.8782C70.4688 86.3119 70.1026 84.237 70.2993 81.9383C70.4484 80.2059 70.3061 78.4293 70.6349 76.7409C70.9909 74.9034 72.3097 73.988 74.1812 73.9812C82.6503 73.9541 91.1194 73.9473 99.5884 73.9812C102.067 73.9914 103.738 75.8764 103.853 78.7073C103.918 80.2872 103.884 81.8705 103.864 83.4504C103.82 86.5458 101.857 88.5326 98.7578 88.5393C90.9668 88.5631 83.1758 88.5495 75.3814 88.5495C74.5948 88.441 73.8117 88.3359 73.0285 88.2274C72.798 88.1088 72.5674 87.9901 72.3369 87.8714L72.3538 87.8816V87.8782ZM83.1961 80.5822C83.1961 79.7923 83.2911 78.9853 83.1554 78.2225C83.0842 77.8259 82.6096 77.5004 82.318 77.141C81.9587 77.4427 81.3043 77.7241 81.284 78.0496C81.1789 79.7312 81.1755 81.4264 81.2806 83.108C81.3009 83.4301 81.9519 83.7149 82.3113 84.0166C82.6062 83.6606 83.0842 83.3385 83.1554 82.9453C83.2911 82.1791 83.1961 81.3721 83.1961 80.5856V80.5822ZM76.7579 80.5619C76.7579 81.3484 76.6833 82.1452 76.7918 82.9182C76.8392 83.2436 77.2969 83.7691 77.5275 83.7488C77.9411 83.7115 78.6497 83.3521 78.6666 83.0911C78.7683 81.4128 78.7717 79.7244 78.6666 78.0496C78.6463 77.7241 77.9953 77.4427 77.6394 77.1376C77.3444 77.4936 76.8664 77.8157 76.7986 78.209C76.6629 78.9718 76.7579 79.7753 76.7613 80.5619H76.7579ZM74.032 80.5144C74.032 79.7821 74.1541 79.0193 73.988 78.3276C73.8829 77.8801 73.354 77.5377 73.0149 77.1478C72.6929 77.497 72.1165 77.8259 72.0928 78.1954C71.9877 79.7651 71.9877 81.3518 72.086 82.9215C72.1097 83.3013 72.6589 83.6471 72.9675 84.0098C73.3201 83.6335 73.8829 83.3046 73.9812 82.8741C74.1473 82.1214 74.0286 81.3077 74.032 80.5178V80.5144ZM95.0827 80.4601C95.0827 81.2467 94.9843 82.0502 95.1233 82.8097C95.1912 83.1826 95.6929 83.7081 96.0252 83.7284C96.354 83.7488 96.9948 83.2368 97.0152 82.9283C97.1203 81.3654 97.1237 79.7889 97.0253 78.2225C97.0016 77.8462 96.4456 77.5072 96.1337 77.1478C95.7845 77.5241 95.2352 77.8496 95.1301 78.2836C94.9606 78.9718 95.0861 79.7312 95.0827 80.4601ZM85.9287 80.4635C85.9287 81.2467 85.8304 82.0502 85.9694 82.8097C86.0372 83.1792 86.539 83.7081 86.8679 83.725C87.1933 83.742 87.8307 83.2301 87.8511 82.9182C87.9562 81.3586 87.9596 79.7821 87.8612 78.2191C87.8375 77.8462 87.2815 77.5038 86.9696 77.1478C86.6238 77.5241 86.0813 77.853 85.9762 78.2903C85.8067 78.9786 85.9321 79.7346 85.9287 80.4635ZM92.3534 80.65C92.3534 79.8601 92.445 79.0566 92.3128 78.2903C92.2517 77.9377 91.7466 77.6631 91.4414 77.3546C91.177 77.6462 90.7023 77.9242 90.6854 78.2259C90.6108 79.799 90.6108 81.3823 90.6888 82.9554C90.7023 83.2504 91.1939 83.5182 91.4686 83.7996C91.7635 83.4809 92.2449 83.1995 92.3161 82.8368C92.4518 82.1282 92.3568 81.3789 92.3534 80.6466V80.65Z" fill="#EAF0F8"/>
<path d="M26.2646 158.76C26.3731 158.736 26.485 158.689 26.5935 158.689C42.1959 158.699 57.8016 158.713 73.404 158.726C73.404 159.567 73.404 160.408 73.404 161.384C75.6551 161.767 76.8011 163.124 76.757 165.429C76.7468 165.88 76.7909 166.327 76.8113 166.778C76.7909 174.613 76.7367 182.452 76.7807 190.287C76.7909 192.138 76.262 193.579 74.733 194.63C73.1361 194.623 71.5393 194.616 69.9458 194.606C71.4613 193.42 71.7393 191.85 71.719 189.985C71.6342 181.977 71.6817 173.969 71.6817 165.961C71.6817 162.317 70.7832 161.439 67.0572 161.435C53.4654 161.435 39.8769 161.435 26.285 161.435C26.2782 160.54 26.2714 159.648 26.268 158.753L26.2646 158.76Z" fill="#2254B5"/>
<path d="M67.9393 144.839C66.0305 144.839 64.1218 144.843 62.213 144.846C62.2062 136.635 62.2028 128.42 62.1825 120.208C62.1825 119.605 62.0571 118.998 61.9926 118.395C61.9723 118.201 61.9486 118.005 61.9282 117.811C62.2367 117.767 62.5487 117.723 62.8572 117.676C64.5557 117.713 66.2509 117.754 67.9495 117.791C67.9461 126.806 67.9427 135.821 67.9393 144.836V144.839Z" fill="#2254B5"/>
<path d="M61.9922 118.395C62.06 118.998 62.1821 119.605 62.1821 120.208C62.2024 128.42 62.2058 136.631 62.2126 144.846L62.0566 144.873L61.8973 144.853C61.8871 136.309 61.8769 127.765 61.8735 119.222C61.8735 118.947 61.9481 118.669 61.9888 118.395H61.9922Z" fill="#F08C67"/>
<path d="M281.86 135.97C281.979 136.553 282.196 137.14 282.196 137.723C282.216 149.342 282.216 160.964 282.196 172.583C282.196 173.169 281.985 173.752 281.874 174.339C281.762 174.362 281.653 174.386 281.541 174.41C278.819 174.434 276.096 174.457 273.374 174.481C273.367 174.424 273.374 174.366 273.398 174.312C273.394 161.54 273.388 148.765 273.384 135.994C273.377 135.916 273.371 135.838 273.364 135.763C276.195 135.835 279.026 135.902 281.857 135.974L281.86 135.97Z" fill="#F0EBEB"/>
<path d="M273.374 174.481C276.096 174.457 278.819 174.434 281.541 174.41C281.653 174.495 281.761 174.576 281.873 174.661C281.88 179.75 281.89 184.839 281.897 189.928C281.663 190.487 281.429 191.05 281.195 191.609C279.843 192.616 278.486 193.623 277.134 194.63C274.309 194.63 271.489 194.627 268.665 194.623C272.089 193.281 273.669 190.921 273.448 187.107C273.204 182.913 273.381 178.692 273.374 174.481Z" fill="#2254B5"/>
<path d="M297.631 181.808C295.207 181.74 293.251 180.804 292.139 178.563C290.952 176.173 290.728 173.634 292.634 171.603C295.746 168.287 299.113 165.209 302.374 162.035C303.344 161.089 304.351 160.181 305.29 159.204C308.24 156.143 312.101 156.438 314.383 158.642C317.383 161.54 317.699 165.304 314.566 168.518C311.108 172.061 307.341 175.302 303.764 178.733C301.215 181.177 300.123 181.787 297.635 181.811L297.631 181.808ZM306.989 172.474C309.047 170.552 311.159 168.684 313.145 166.694C314.881 164.954 314.919 162.425 313.403 160.74C311.884 159.055 309.118 158.794 307.3 160.394C305.104 162.327 303.063 164.442 300.957 166.477C298.957 168.379 296.885 170.213 294.973 172.2C293.163 174.078 293.214 176.688 294.899 178.424C296.584 180.16 299.055 180.153 301.076 178.278C303.1 176.4 305.022 174.417 306.989 172.478V172.474Z" fill="#ABBBD9"/>
<path d="M298 161.801C295.139 161.859 293.312 160.581 292.166 158.54C290.864 156.224 290.715 153.614 292.63 151.603C296.349 147.704 300.292 144.016 304.181 140.279C305.147 139.35 306.144 138.367 307.307 137.754C310.087 136.289 313.46 137.065 315.057 139.333C317.373 142.619 317.268 145.575 314.667 148.131C310.609 152.122 306.52 156.082 302.425 160.031C301.106 161.303 299.475 161.842 298 161.805V161.801ZM306.954 152.573C309.067 150.555 311.243 148.599 313.267 146.497C314.908 144.792 314.854 142.385 313.359 140.7C311.928 139.086 309.324 138.72 307.592 140.195C305.286 142.154 303.184 144.355 300.994 146.453C299.072 148.267 297.119 150.047 295.241 151.905C293.203 153.919 293.084 156.506 294.858 158.35C296.631 160.198 299.133 160.123 301.272 158.102C303.194 156.285 305.066 154.42 306.958 152.576L306.954 152.573Z" fill="#ABBBD9"/>
<path d="M297.804 141.798C295.15 141.849 293.251 140.432 292.109 138.259C290.773 135.716 290.925 132.966 293.01 130.881C297.269 126.62 301.632 122.453 306.128 118.442C309.749 115.215 315.553 117.527 316.482 122.321C316.946 124.718 316.241 126.61 314.563 128.244C310.525 132.176 306.548 136.184 302.388 139.981C301.225 141.042 299.5 141.486 298.032 142.215C297.957 142.076 297.882 141.937 297.804 141.802V141.798ZM306.985 132.56C308.949 130.698 310.935 128.864 312.864 126.969C314.787 125.087 315.004 122.514 313.458 120.768C311.813 118.91 308.989 118.751 306.962 120.565C304.948 122.368 303.066 124.324 301.127 126.213C299.103 128.162 297.065 130.102 295.055 132.068C294.011 133.092 293.4 134.306 293.621 135.835C293.878 137.625 294.872 138.777 296.553 139.405C298.388 140.09 299.869 139.371 301.154 138.191C303.144 136.364 305.046 134.441 306.982 132.56H306.985Z" fill="#ABBBD9"/>
<path d="M262.386 102.107C259.433 101.667 257.456 100.297 256.32 97.761C255.212 95.2826 255.696 92.4686 257.649 90.587C261.952 86.4406 266.288 82.3315 270.658 78.2597C272.435 76.6052 275.944 76.6052 278.276 78.1139C280.473 79.5345 281.731 82.5655 280.839 84.8675C280.327 86.1863 279.595 87.5459 278.602 88.5257C274.472 92.6043 270.258 96.5981 265.952 100.487C265.03 101.321 263.589 101.582 262.386 102.107ZM265.379 86.4338C263.379 88.3324 261.331 90.1869 259.392 92.1499C257.575 93.9875 257.578 96.615 259.263 98.3644C260.884 100.049 263.406 100.127 265.325 98.395C267.413 96.5099 269.383 94.4961 271.404 92.5365C273.597 90.431 275.906 88.4307 277.94 86.1829C279.422 84.5488 279.175 82.0366 277.778 80.6363C276.106 78.9615 273.608 78.6632 271.828 80.2159C269.58 82.1756 267.522 84.3522 265.383 86.4372L265.379 86.4338Z" fill="#ABBBD9"/>
<path d="M291.366 115.153C291.264 112.272 293.176 110.549 295.027 108.793C296.95 106.976 298.875 105.162 300.804 103.352C302.527 101.735 304.191 100.043 306.005 98.534C307.853 96.9948 310.013 96.588 312.345 97.3915C314.654 98.1848 315.83 99.9444 316.437 102.172C317.095 104.582 316.285 106.569 314.552 108.254C310.548 112.143 306.565 116.049 302.537 119.91C300.462 121.9 297.953 122.243 295.329 121.317C292.996 120.497 291.359 117.784 291.362 115.157L291.366 115.153ZM301.126 106.213C299.099 108.163 296.956 110.01 295.102 112.112C294.292 113.031 293.732 114.448 293.664 115.676C293.566 117.432 294.722 118.71 296.394 119.354C298.16 120.039 299.713 119.493 301.025 118.279C303.049 116.405 305.005 114.458 306.988 112.546C308.951 110.685 310.942 108.847 312.874 106.956C314.793 105.074 315 102.518 313.447 100.748C311.796 98.8697 309.029 98.7205 306.965 100.565C304.947 102.369 303.066 104.325 301.126 106.217V106.213Z" fill="#ABBBD9"/>
<path d="M290.973 94.9063C291.695 93.4959 292.129 91.794 293.194 90.7226C297.442 86.4542 301.717 82.1722 306.321 78.3038C309.573 75.5712 314.98 76.8324 316.428 82.023C317.113 84.4742 316.35 86.5457 314.536 88.268C310.288 92.2991 306.064 96.3607 301.775 100.348C299.822 102.165 297.401 102.24 295.157 101.189C292.712 100.043 291.329 97.944 290.97 94.9097L290.973 94.9063ZM307.016 92.4924C309.02 90.5938 311.061 88.7291 313.021 86.783C314.838 84.976 314.97 82.3824 313.431 80.7041C311.739 78.8564 309.067 78.6801 307.091 80.4499C305.036 82.2908 303.111 84.281 301.127 86.2067C299.096 88.1629 296.947 90.014 295.089 92.1194C294.282 93.0382 293.743 94.4655 293.672 95.6962C293.573 97.3711 294.638 98.6967 296.238 99.3341C298.039 100.049 299.68 99.5578 301.053 98.2627C303.063 96.3641 305.029 94.4181 307.013 92.4924H307.016Z" fill="#ABBBD9"/>
<path d="M281.859 135.97C279.028 135.899 276.197 135.831 273.366 135.76C273.373 130.312 273.38 124.864 273.39 119.412C276.258 119.422 279.13 119.436 281.998 119.446C281.954 124.952 281.906 130.461 281.862 135.967L281.859 135.97Z" fill="#2254B5"/>
<path d="M286.373 186.022C285.366 184.527 285.325 80.1923 286.373 78.531V186.022Z" fill="#E0E8F5"/>
<path d="M259.755 111.767C258.758 111.76 257.761 111.756 256.765 111.75C257.782 110.634 258.738 109.454 259.826 108.417C263.162 105.24 266.57 102.141 269.909 98.9715C272.652 96.3643 276.642 96.3541 279.277 99.0121C281.874 101.633 281.758 105.4 279.043 108.176C277.914 109.332 276.869 110.566 275.784 111.767C274.676 111.804 273.567 111.845 272.455 111.882C274.154 110.173 275.876 108.485 277.547 106.749C279.256 104.976 279.351 102.297 277.822 100.66C276.154 98.8731 273.503 98.6833 271.618 100.375C269.529 102.253 267.566 104.267 265.546 106.22C263.613 108.068 261.684 109.915 259.752 111.767H259.755Z" fill="#ABBBD9"/>
<path d="M298.139 72.9741C297.526 73.1911 296.912 73.5945 296.295 73.5979C289.531 73.642 282.764 73.6454 276.001 73.5878C275.482 73.5844 274.967 73.0453 274.451 72.7537C274.987 72.4825 275.519 71.9774 276.055 71.9706C282.876 71.9163 289.698 71.9299 296.519 71.9502C297.027 71.9502 297.539 72.1469 298.048 72.252C298.078 72.4927 298.109 72.7334 298.139 72.9775V72.9741Z" fill="#E0E8F5"/>
<path d="M281.198 191.613C281.432 191.053 281.666 190.49 281.9 189.931C286.633 189.931 291.366 189.928 296.102 189.931C296.55 189.931 297.024 189.89 297.438 190.019C297.699 190.1 298.065 190.494 298.035 190.694C297.987 191.009 297.689 191.45 297.411 191.524C296.885 191.67 296.295 191.613 295.736 191.613C290.891 191.613 286.043 191.613 281.198 191.613Z" fill="#E0E8F5"/>
<path d="M281.877 174.661C281.765 174.576 281.656 174.495 281.544 174.41C281.656 174.386 281.765 174.363 281.877 174.339C281.921 174.447 281.921 174.552 281.877 174.661Z" fill="#F06732"/>
<path d="M27.2143 167.483C27.3974 164.703 28.184 163.7 30.0792 163.839C31.5811 163.951 32.2219 164.958 32.3914 167.477L32.3304 167.568C30.6454 167.568 28.957 167.575 27.2686 167.578L27.2109 167.487L27.2143 167.483Z" fill="#E0E8F5"/>
<path d="M27.2723 167.575C28.9607 167.575 30.6457 167.568 32.3341 167.565C32.3341 172.369 32.3477 177.17 32.3409 181.974C32.3409 183.171 32.2595 184.317 31.022 185.039C29.6456 185.842 27.9334 185.208 27.6385 183.628C27.4249 182.476 27.2893 181.289 27.2791 180.116C27.2418 175.936 27.2723 171.752 27.2757 167.572L27.2723 167.575Z" fill="#FEFEFE"/>
<path d="M273.387 119.415C273.38 124.864 273.374 130.312 273.363 135.764C273.37 135.841 273.377 135.919 273.384 135.994C264.386 135.994 255.391 135.994 246.39 135.994V174.312H273.397C273.374 174.366 273.367 174.424 273.374 174.481C273.38 178.692 273.201 182.91 273.448 187.107C273.672 190.921 272.089 193.281 268.664 194.623C259.06 194.62 249.455 194.616 239.846 194.61C240.04 194.508 240.23 194.393 240.43 194.311C243.084 193.223 244.111 191.223 243.552 188.236C243.098 185.812 241.06 184.161 238.497 184.161C235.002 184.161 231.506 184.178 228.011 184.188C227.963 184.15 227.923 184.106 227.892 184.056C229.76 183.991 231.635 183.964 233.5 183.828C233.859 183.801 234.185 183.354 234.527 183.099C234.527 181.201 234.527 179.306 234.527 177.407C234.53 174.678 234.534 171.945 234.541 169.216C234.578 168.541 234.649 167.87 234.649 167.195C234.608 155.282 234.554 143.368 234.51 131.458C234.503 129.488 234.52 127.522 234.527 125.552C234.568 123.521 234.605 121.49 234.646 119.459C247.559 119.446 260.473 119.432 273.387 119.419V119.415Z" fill="#5595E7"/>
<path d="M172.374 194.62C165.251 194.637 158.128 194.657 151.005 194.667C150.734 194.667 150.459 194.559 150.188 194.505C150.734 194.02 151.3 193.562 151.812 193.047C153.114 191.741 152.965 190.036 153.036 188.395C153.053 186.869 153.083 185.344 153.087 183.818C153.107 174.664 153.124 165.514 153.141 156.36C155.168 156.353 157.196 156.35 159.227 156.343C166.774 156.316 174.32 156.289 181.867 156.261L181.85 156.4C181.85 165.304 181.918 174.203 181.827 183.106C181.786 187.144 180.233 190.558 176.609 192.691C175.28 193.474 173.788 193.986 172.374 194.623V194.62Z" fill="#F8AA20"/>
<path d="M74.7329 194.633C76.262 193.582 76.7908 192.145 76.7807 190.29C76.7366 182.455 76.7908 174.617 76.8112 166.782C86.633 166.775 96.4514 166.768 106.273 166.761L106.266 166.883C106.26 171.681 106.304 176.478 106.233 181.275C106.178 184.9 105.117 188.27 102.262 190.609C100.306 192.213 97.9228 193.291 95.7327 194.606L74.7329 194.637V194.633Z" fill="#EAF0F8"/>
<path d="M234.526 183.096C234.184 183.35 233.858 183.801 233.499 183.825C231.634 183.96 229.763 183.988 227.891 184.052C224.186 184.059 220.48 183.994 216.778 184.096C214.252 184.167 212.374 186.029 212.024 188.51C211.624 191.331 212.591 192.975 215.615 194.63C207.498 194.65 199.382 194.681 191.262 194.677C190.73 194.677 190.194 194.423 189.662 194.287C189.601 194.084 189.604 193.789 189.468 193.691C185.803 191.087 184.586 187.442 184.922 183.123C201.457 183.116 217.995 183.106 234.529 183.099L234.526 183.096Z" fill="#73B6FF"/>
<path d="M95.7334 194.603C97.9236 193.287 100.307 192.209 102.263 190.605C105.121 188.266 106.179 184.896 106.233 181.272C106.304 176.475 106.26 171.677 106.267 166.88C109.861 166.86 113.455 166.839 117.052 166.815C116.954 172.504 116.859 178.19 116.76 183.879C115.306 183.947 113.851 183.988 112.4 184.093C110.231 184.249 108.464 185.74 107.922 187.815C107.122 190.877 108.081 192.772 111.359 194.609C106.152 194.609 100.944 194.606 95.7334 194.603Z" fill="#B9C9E7"/>
<path d="M153.036 188.395C152.965 190.036 153.114 191.741 151.812 193.047C151.3 193.562 150.731 194.02 150.188 194.505C148.69 194.528 147.191 194.552 145.693 194.576C143.726 192.955 141.763 191.338 139.671 189.612C139.515 192.101 138.017 193.569 136.006 194.64C131.86 194.637 127.714 194.633 123.564 194.63C123.577 192.752 123.591 190.87 123.605 188.988C126.252 188.944 128.9 188.897 131.548 188.856C132.562 188.839 133.637 189.039 134.576 188.765C135.24 188.571 135.722 187.748 136.284 187.205C135.722 186.663 135.223 186.019 134.576 185.618C134.203 185.391 133.586 185.564 133.077 185.557C129.921 185.513 126.764 185.469 123.611 185.425C123.594 184.947 123.577 184.469 123.557 183.988C123.794 183.971 124.035 183.954 124.272 183.937C127.137 183.998 130.006 184.001 132.864 184.161C133.698 184.208 134.657 184.506 135.298 185.015C136.173 185.713 136.664 185.459 137.281 184.795C138.234 183.767 139.224 182.771 140.197 181.76C140.685 182.12 141.224 182.432 141.658 182.849C143.77 184.883 145.835 186.968 147.957 188.988C148.673 189.67 149.686 190.016 150.28 189.036C150.595 188.514 150.497 187.29 150.087 186.863C147.635 184.303 145.038 181.882 142.489 179.418C142.499 179.323 142.499 179.224 142.492 179.129L143.58 178.075C144.594 178.97 145.611 179.862 146.625 180.757C147.09 181.238 147.544 181.733 148.022 182.201C149.927 184.076 152.124 185.717 153.04 188.395H153.036Z" fill="#0C2C7E"/>
<path d="M184.923 183.12C184.59 187.436 185.804 191.084 189.469 193.687C189.605 193.786 189.601 194.081 189.662 194.284C188.845 194.416 188.028 194.66 187.215 194.664C182.268 194.681 177.322 194.64 172.375 194.62C173.792 193.982 175.281 193.47 176.61 192.687C180.23 190.555 181.783 187.144 181.827 183.103C181.919 174.203 181.851 165.3 181.851 156.397C182.838 156.417 183.824 156.441 184.811 156.461C184.801 160.716 184.79 164.971 184.777 169.223C184.757 171.945 184.733 174.671 184.712 177.393C184.784 179.302 184.851 181.207 184.923 183.116V183.12Z" fill="#F58F1F"/>
<path d="M123.554 183.988C123.571 184.466 123.588 184.944 123.609 185.425C123.564 185.476 123.541 185.53 123.537 185.598C122.3 185.588 121.062 185.561 119.822 185.571C118.72 185.578 117.743 185.829 117.723 187.198C117.703 188.612 118.771 188.788 119.822 188.829C121.059 188.877 122.296 188.826 123.537 188.816C123.541 188.883 123.564 188.941 123.609 188.992C123.595 190.873 123.581 192.752 123.568 194.633C119.499 194.627 115.428 194.62 111.359 194.613C108.081 192.775 107.121 190.88 107.921 187.819C108.464 185.744 110.227 184.252 112.4 184.096C113.851 183.991 115.309 183.95 116.76 183.883C119.025 183.92 121.29 183.954 123.554 183.991V183.988Z" fill="#FFA653"/>
<path d="M215.615 194.63C212.591 192.979 211.628 191.331 212.025 188.51C212.374 186.029 214.252 184.167 216.778 184.096C220.48 183.991 224.186 184.059 227.891 184.052C227.922 184.106 227.959 184.151 228.01 184.184C227.983 184.639 227.956 185.096 227.929 185.551C226.579 185.557 225.23 185.534 223.881 185.578C222.836 185.612 221.911 186.002 221.908 187.202C221.904 188.402 222.833 188.792 223.874 188.829C225.223 188.877 226.573 188.85 227.922 188.856C227.932 190.779 227.946 192.698 227.956 194.62C223.843 194.62 219.728 194.627 215.615 194.63Z" fill="#FFA653"/>
<path d="M227.96 194.62C227.95 192.698 227.936 190.779 227.926 188.856V188.792C231.414 188.812 234.91 188.846 238.402 188.846C239.497 188.846 240.487 188.585 240.49 187.209C240.49 185.829 239.504 185.568 238.409 185.568C234.917 185.568 231.421 185.598 227.929 185.615V185.554C227.96 185.1 227.987 184.642 228.014 184.188C231.509 184.178 235.005 184.161 238.5 184.161C241.063 184.161 243.101 185.815 243.555 188.236C244.118 191.223 243.087 193.223 240.433 194.311C240.229 194.393 240.043 194.511 239.85 194.61C235.886 194.61 231.923 194.616 227.96 194.62Z" fill="#0C2C7E"/>
<path d="M136.007 194.64C138.018 193.569 139.513 192.101 139.672 189.612C141.764 191.335 143.731 192.955 145.694 194.576C142.466 194.596 139.235 194.62 136.007 194.64Z" fill="#8EC6EB"/>
<path d="M136.081 68.5364C135.647 68.7669 135.216 69.1907 134.782 69.1941C127.971 69.2348 121.16 69.2348 114.345 69.1941C113.904 69.1941 113.464 68.7805 113.026 68.5601C120.712 68.5533 128.395 68.5432 136.081 68.5364Z" fill="#F8AA23"/>
<path d="M171.344 68.5464C171.08 68.7701 170.819 69.1804 170.547 69.1872C168.479 69.2414 166.408 69.2414 164.34 69.1872C164.068 69.1804 163.811 68.7701 163.543 68.5464C166.143 68.5464 168.74 68.5464 171.341 68.5464H171.344Z" fill="#F8AA23"/>
<path d="M178.802 68.5464C178.596 68.7668 178.392 69.1668 178.175 69.1736C176.446 69.2245 174.714 69.2245 172.985 69.1736C172.771 69.1668 172.568 68.7668 172.357 68.5464C174.504 68.5464 176.653 68.5464 178.799 68.5464H178.802Z" fill="#F8AA23"/>
<path d="M145.917 68.55C145.351 69.6282 144.788 69.6282 144.222 68.55C144.788 68.55 145.351 68.55 145.917 68.55Z" fill="#F8AA23"/>
<path d="M140.832 68.5532C140.266 69.628 139.7 69.628 139.137 68.5532C139.703 68.5532 140.266 68.5532 140.832 68.5532Z" fill="#F8AA23"/>
<path d="M181.848 69.2246C181.512 68.9941 181.176 68.7669 180.837 68.5364C181.176 68.5364 181.512 68.5398 181.851 68.5432C181.851 68.7703 181.848 68.9975 181.844 69.2246H181.848Z" fill="#F8AA23"/>
<path d="M184.811 156.465C183.824 156.445 182.838 156.421 181.851 156.401L181.868 156.262C181.865 137.476 181.865 118.686 181.851 99.9006C181.851 94.5404 181.817 89.1837 181.797 83.8236C181.855 83.7659 181.895 83.7015 181.916 83.6235C185.852 83.671 189.788 83.7185 193.724 83.7625C193.741 84.7932 193.758 85.8239 193.778 86.8545C193.738 88.4276 193.697 89.9974 193.656 91.5705C191.551 91.6044 191.629 91.6044 191.534 94.1404C191.473 95.7542 191.876 96.6323 193.677 96.3882C194.222 96.3136 194.795 96.4153 195.355 96.439C195.365 98.1105 195.375 99.7785 195.385 101.45C195.392 102.799 195.402 104.152 195.409 105.501C193.483 105.305 191.687 105.915 190.51 107.295C188.788 109.319 187.16 111.516 185.967 113.879C184.112 117.544 185.096 121.619 184.906 125.521C184.902 128.847 184.906 132.173 184.892 135.499C184.869 142.487 184.838 149.478 184.808 156.465H184.811Z" fill="#B9C9E7"/>
<path d="M240.48 91.2686C239.833 91.3703 239.188 91.5601 238.541 91.5635C228.146 91.5805 217.751 91.5703 207.356 91.5635C207.953 91.472 208.546 91.2991 209.14 91.2991C219.585 91.2753 230.034 91.2753 240.48 91.2686Z" fill="#F08C67"/>
<path d="M184.909 125.521C185.099 121.619 184.119 117.544 185.97 113.879C187.163 111.516 188.791 109.319 190.513 107.295C191.686 105.915 193.486 105.305 195.412 105.501C205.268 105.501 215.12 105.562 224.976 105.44C227.088 105.413 228.688 105.881 229.909 107.586C230.98 109.082 232.065 110.57 233.143 112.058C231.678 113.486 231.004 116.405 232.079 117.852C232.638 118.605 233.77 118.937 234.645 119.456C234.604 121.487 234.567 123.518 234.53 125.548C233.007 125.542 231.485 125.535 229.966 125.531C221.175 125.508 212.381 125.484 203.589 125.46C203.589 123.49 203.705 121.511 203.556 119.548C203.434 117.91 203.549 116.161 202.193 114.825C200.62 113.275 198.751 112.94 196.751 113.533C194.985 114.055 193.388 116.571 193.371 118.578C193.354 120.887 193.374 123.196 193.381 125.508C190.557 125.515 187.733 125.518 184.905 125.525L184.909 125.521Z" fill="#73B6FF"/>
<path d="M265.549 106.22C267.566 104.267 269.532 102.253 271.621 100.375C273.503 98.6831 276.157 98.873 277.825 100.66C279.354 102.297 279.259 104.976 277.551 106.749C275.879 108.485 274.16 110.173 272.458 111.882C271.835 111.875 271.207 111.872 270.583 111.868C269.811 110.98 269.034 110.092 268.261 109.207C270.204 107.244 272.143 105.274 274.092 103.314C274.75 102.653 275.221 101.938 274.401 101.144C273.601 100.371 272.994 101.005 272.391 101.568C270.373 103.45 268.336 105.308 266.305 107.176C266.054 106.861 265.803 106.542 265.552 106.227L265.549 106.22Z" fill="#0C2C7E"/>
<path d="M237.951 113.753C239.26 112.733 281.351 112.716 282.778 113.753H237.951Z" fill="#EFF6FF"/>
<path d="M265.548 106.22C265.799 106.535 266.05 106.854 266.301 107.169C266.291 107.268 266.288 107.366 266.291 107.464C265.599 108.108 264.928 108.776 264.209 109.39C263.365 110.112 263.348 110.878 263.972 111.729C262.565 111.743 261.161 111.753 259.754 111.767C261.687 109.919 263.616 108.068 265.548 106.22Z" fill="#FFA653"/>
<path d="M263.972 111.729C263.348 110.878 263.365 110.112 264.209 109.39C264.928 108.776 265.599 108.109 266.291 107.468C266.847 108.048 267.403 108.627 267.959 109.207C267.047 110.055 266.135 110.906 265.223 111.753C264.806 111.746 264.389 111.74 263.972 111.733V111.729Z" fill="#FEECBB"/>
<path d="M265.223 111.749C266.135 110.902 267.047 110.051 267.959 109.203L268.108 109.207L268.257 109.2C269.03 110.088 269.806 110.976 270.579 111.861C268.793 111.824 267.006 111.783 265.219 111.746L265.223 111.749Z" fill="#FACD56"/>
<path d="M172.745 83.5828C175.779 83.5354 178.81 83.4879 181.845 83.4404C181.879 83.4981 181.902 83.5591 181.919 83.6235C181.899 83.7015 181.858 83.7693 181.801 83.8235C178.783 83.7422 175.766 83.6608 172.745 83.5794V83.5828Z" fill="#FEECBB"/>
<path d="M172.744 83.5827C175.761 83.6641 178.782 83.7454 181.799 83.8268C181.816 89.1869 181.85 94.5437 181.85 99.9038C181.86 118.69 181.86 137.479 181.867 156.265C174.32 156.292 166.773 156.319 159.227 156.346C157.199 156.353 155.172 156.36 153.141 156.367C152.788 154.627 152.046 153.105 150.191 152.685C149.079 152.434 148.869 151.895 148.947 150.942C149.001 150.277 148.995 149.606 149.015 148.938C152.263 148.887 153.087 148.053 153.097 144.826C153.107 142.242 153.127 139.656 153.144 137.072C153.877 137.072 154.629 136.964 155.341 137.086C159.05 137.713 162.491 136.781 165.777 135.235C173.018 131.831 177.497 123.501 176.409 115.601C175.754 110.851 173.673 106.729 170.106 103.603C165.519 99.5851 160.088 98.073 153.955 99.0427C145.353 100.402 138.542 108.153 138.098 116.733C137.806 122.321 139.661 127.101 143.224 131.309C140.169 131.309 137.111 131.315 134.057 131.319V84.5116C133.948 84.5116 133.84 84.5116 133.731 84.5116V131.349C130.66 131.349 127.588 131.342 124.516 131.342C124.526 120.554 124.543 109.763 124.54 98.9748C124.54 93.8927 124.499 88.8106 124.476 83.7251C127.629 83.7081 130.778 83.6878 133.931 83.6708C135.315 83.6437 136.698 83.62 138.078 83.5929C138.42 83.6505 138.762 83.7115 139.108 83.7692C139.335 83.8031 139.559 83.837 139.786 83.8709C140.597 83.8743 141.41 83.8777 142.221 83.881C144.123 83.8539 146.028 83.8234 147.93 83.7963C150.622 83.7081 153.314 83.5759 156.009 83.5454C159.325 83.5081 162.641 83.559 165.956 83.5725C167.513 83.5793 169.069 83.5895 170.625 83.5963C171.33 83.5963 172.035 83.5963 172.74 83.5963L172.744 83.5827Z" fill="#E5ECF6"/>
<path d="M133.932 83.6571C130.779 83.674 127.629 83.6944 124.476 83.7113C124.409 83.7012 124.344 83.7113 124.283 83.7385C124.215 83.6876 124.188 83.6164 124.192 83.535C124.205 80.7143 124.182 77.8969 124.239 75.0761C124.29 72.6419 125.555 70.8314 127.599 70.0923C129.426 69.4312 131.691 69.9771 132.878 71.7095C133.532 72.669 133.922 73.9641 133.993 75.1338C134.153 77.8867 134.047 80.6566 134.051 83.4198C134.02 83.5011 133.983 83.5791 133.932 83.6537V83.6571Z" fill="#FACD56"/>
<path d="M147.931 83.7827C146.025 83.8098 144.123 83.8404 142.221 83.8675C144.127 83.8404 146.029 83.8098 147.931 83.7827Z" fill="#FEECBB"/>
<path d="M133.932 83.657C133.983 83.5858 134.02 83.5079 134.051 83.4231C135.393 83.474 136.739 83.5282 138.082 83.579C136.699 83.6062 135.315 83.6299 133.936 83.657H133.932Z" fill="#FEECBB"/>
<path d="M139.787 83.8573C139.56 83.8234 139.333 83.7895 139.109 83.7556C139.336 83.7895 139.56 83.8234 139.787 83.8573Z" fill="#FEECBB"/>
<path d="M67.9494 117.795C66.2508 117.757 64.5556 117.717 62.8571 117.679C62.8571 114.123 62.735 110.566 62.8842 107.017C63.0707 102.555 64.4675 98.473 68.4918 96.0929C70.4447 94.9368 72.8891 94.174 75.1505 94.0621C80.9479 93.7807 86.7759 94.1265 92.5802 93.9163C100.47 93.6315 106.372 100.25 106.26 107.685C106.209 111.014 106.26 114.343 106.26 117.672V117.781C95.4044 117.784 84.5451 117.791 73.6892 117.795L73.7197 117.642C73.7129 114.604 73.7333 111.566 73.6892 108.529C73.6655 107.067 72.4653 105.671 71.2414 105.505C69.6005 105.281 68.7427 106.267 68.1392 107.556C67.9392 107.986 67.9494 108.539 67.946 109.037C67.9222 111.905 67.9256 114.777 67.9189 117.645L67.9494 117.798V117.795Z" fill="#EAF0F8"/>
<path d="M117.047 166.819C113.454 166.839 109.86 166.86 106.263 166.883L106.269 166.761C106.266 150.433 106.263 134.109 106.259 117.781C106.259 117.781 106.256 117.673 106.259 117.673C109.86 117.696 113.46 117.723 117.058 117.747C117.085 122.311 117.108 126.871 117.136 131.434C117.139 132.505 117.146 133.58 117.149 134.651C117.149 137.584 117.149 140.52 117.146 143.453C117.146 145.25 117.146 147.047 117.142 148.843C117.142 149.989 117.142 151.139 117.142 152.285C117.142 154.865 117.136 157.448 117.136 160.028L117.054 166.816L117.047 166.819Z" fill="#0C2C7E"/>
<path d="M106.263 117.781C106.267 134.109 106.27 150.433 106.274 166.761C96.4518 166.768 86.6334 166.775 76.8116 166.782C76.7913 166.331 76.7506 165.88 76.7573 165.432C76.8014 163.127 75.6589 161.771 73.4043 161.388C73.4043 160.408 73.4043 159.57 73.4043 158.73C76.0284 158.723 76.7506 158.021 76.754 155.468C76.754 153.152 76.754 150.837 76.754 148.521C76.754 145.7 76.4251 145.338 73.6416 145.053C73.6586 135.967 73.6755 126.884 73.6925 117.798C84.5484 117.795 95.4076 117.788 106.263 117.784V117.781Z" fill="#73B6FF"/>
<path d="M73.6927 117.794C73.6757 126.881 73.6588 135.967 73.6418 145.049C71.7399 144.978 69.8413 144.91 67.9393 144.839C67.9427 135.824 67.9461 126.809 67.9495 117.794L67.9189 117.642C69.8514 117.642 71.7873 117.642 73.7198 117.642L73.6893 117.794H73.6927Z" fill="#5595E7"/>
<path d="M41.474 150.942C41.474 151.732 41.6096 152.556 41.4265 153.298C41.3045 153.793 40.7247 154.18 40.3518 154.614C39.9822 154.241 39.3245 153.892 39.294 153.492C39.155 151.759 39.1312 150.006 39.233 148.271C39.2533 147.908 39.9992 147.301 40.3721 147.328C40.7586 147.355 41.3214 147.972 41.4129 148.413C41.5825 149.223 41.4604 150.095 41.4604 150.939C41.4638 150.939 41.4706 150.939 41.474 150.939V150.942Z" fill="#73B6FF"/>
<path d="M37.0322 150.752C37.0322 151.593 37.1509 152.461 36.9814 153.264C36.8966 153.671 36.2897 154.237 35.91 154.244C35.5371 154.251 34.8556 153.665 34.8251 153.298C34.6963 151.681 34.6692 150.044 34.798 148.43C34.8319 148.009 35.5574 147.643 35.9643 147.25C36.327 147.633 36.8966 147.965 37.0017 148.409C37.1746 149.155 37.0492 149.969 37.0492 150.756C37.0424 150.756 37.0356 150.756 37.0288 150.756L37.0322 150.752Z" fill="#73B6FF"/>
<path d="M59.1171 151.081C59.1171 151.929 59.2121 152.79 59.0764 153.614C59.0154 153.99 58.5035 154.295 58.195 154.634C57.8322 154.295 57.1745 153.976 57.1541 153.617C57.0524 151.874 57.0558 150.118 57.1711 148.375C57.1982 147.975 57.8119 147.613 58.1543 147.233C58.4797 147.67 58.9917 148.07 59.0832 148.548C59.2392 149.365 59.1273 150.233 59.1273 151.081H59.1205H59.1171Z" fill="#73B6FF"/>
<path d="M67.9353 151.013C67.9353 151.861 68.0031 152.715 67.9048 153.552C67.8607 153.919 67.5183 154.461 67.2267 154.525C66.9453 154.587 66.2706 154.149 66.2537 153.895C66.1181 151.945 66.0537 149.989 66.0977 148.036C66.1045 147.772 66.8233 147.399 67.2505 147.335C67.4234 147.307 67.8675 147.941 67.9082 148.308C68.0065 149.203 67.9387 150.111 67.9387 151.016L67.9353 151.013Z" fill="#73B6FF"/>
<path d="M45.8949 150.867C45.8949 151.657 46.0237 152.474 45.8508 153.224C45.7355 153.719 45.1863 154.112 44.8303 154.553C44.5082 154.108 43.9454 153.681 43.9115 153.217C43.7963 151.647 43.8098 150.06 43.9115 148.487C43.9386 148.06 44.4404 147.66 44.7218 147.246C45.1049 147.609 45.7287 147.918 45.8203 148.341C45.9966 149.148 45.8711 150.02 45.8711 150.864C45.8813 150.864 45.8881 150.864 45.8983 150.864L45.8949 150.867Z" fill="#73B6FF"/>
<path d="M52.6957 150.739C52.6957 149.894 52.6008 149.033 52.7398 148.209C52.8008 147.843 53.2924 147.392 53.6687 147.291C53.8993 147.23 54.5468 147.748 54.5604 148.033C54.6655 149.881 54.6994 151.739 54.6214 153.59C54.6079 153.922 53.9705 154.224 53.6179 154.543C53.3127 154.176 52.8042 153.837 52.7432 153.434C52.6076 152.552 52.7025 151.637 52.7025 150.735H52.6957V150.739Z" fill="#73B6FF"/>
<path d="M63.5205 150.851C63.5205 151.691 63.6323 152.552 63.4764 153.363C63.3916 153.804 62.8458 154.153 62.5101 154.546C62.1847 154.204 61.5947 153.875 61.5744 153.515C61.4761 151.783 61.4659 150.04 61.588 148.311C61.6151 147.931 62.3135 147.603 62.7 147.25C62.978 147.667 63.4187 148.054 63.5001 148.504C63.6323 149.267 63.5374 150.067 63.5374 150.851C63.534 150.851 63.5272 150.851 63.5238 150.851H63.5205Z" fill="#73B6FF"/>
<path d="M27.9153 150.851C27.9153 151.695 28.0137 152.552 27.8713 153.373C27.8103 153.726 27.2542 154.237 26.9254 154.234C26.5897 154.234 25.9896 153.705 25.9727 153.38C25.8778 151.698 25.8642 150.006 25.993 148.328C26.0235 147.942 26.7084 147.609 27.0949 147.25C27.3763 147.664 27.8238 148.047 27.9018 148.494C28.0374 149.257 27.9391 150.061 27.9391 150.851C27.9323 150.851 27.9289 150.851 27.9221 150.851H27.9153Z" fill="#73B6FF"/>
<path d="M32.3362 150.772C32.3362 151.617 32.4311 152.474 32.2955 153.295C32.2345 153.668 31.631 154.288 31.4276 154.234C31.0038 154.119 30.3969 153.651 30.3698 153.288C30.2545 151.722 30.2376 150.135 30.3698 148.575C30.4105 148.111 31.0546 147.697 31.4208 147.26C31.7293 147.701 32.2006 148.104 32.3057 148.589C32.4582 149.287 32.343 150.043 32.343 150.772H32.3328H32.3362Z" fill="#73B6FF"/>
<path d="M48.2781 150.806C48.2781 150.016 48.1934 149.213 48.3087 148.44C48.3697 148.023 48.7697 147.657 49.0138 147.267C49.4241 147.589 50.1632 147.887 50.1903 148.236C50.3157 149.918 50.3123 151.62 50.1971 153.305C50.1733 153.658 49.4817 153.966 49.0952 154.292C48.824 153.922 48.3798 153.58 48.3154 153.176C48.19 152.407 48.2781 151.6 48.2781 150.81V150.806Z" fill="#73B6FF"/>
<path d="M117.143 148.843C117.143 147.046 117.143 145.25 117.146 143.456C118.726 143.934 119.425 143.51 119.452 141.974C119.486 140.011 119.493 138.045 119.452 136.079C119.415 134.478 118.77 134.106 117.153 134.655C117.15 133.58 117.143 132.509 117.14 131.437C119.509 131.397 121.879 131.353 124.246 131.312L124.378 131.366L124.517 131.329C127.589 131.329 130.66 131.336 133.732 131.336C133.84 131.325 133.949 131.315 134.057 131.305C137.112 131.305 140.17 131.298 143.225 131.295C145.344 131.315 147.466 131.315 149.585 131.363C151.955 131.42 153.043 132.543 153.084 134.889C153.098 135.614 153.125 136.336 153.148 137.062C153.132 139.645 153.108 142.232 153.101 144.816C153.091 148.043 152.267 148.877 149.019 148.928C147.839 148.911 146.659 148.884 145.48 148.884C136.034 148.867 126.592 148.854 117.146 148.84L117.143 148.843ZM136.417 139.093C136.417 138.021 136.58 136.913 136.356 135.892C136.224 135.296 135.475 134.838 135 134.319C134.573 134.801 133.813 135.258 133.783 135.763C133.647 137.954 133.64 140.167 133.786 142.358C133.82 142.859 134.637 143.31 135.095 143.785C135.536 143.293 136.251 142.856 136.359 142.3C136.566 141.269 136.417 140.167 136.417 139.096V139.093ZM130.66 138.974C130.66 137.903 130.769 136.814 130.613 135.767C130.535 135.248 130.067 134.57 129.603 134.373C128.775 134.024 128.111 134.58 128.111 135.438C128.111 137.845 128.175 140.252 128.362 142.649C128.392 143.042 129.175 143.375 129.613 143.737C129.959 143.28 130.538 142.849 130.606 142.354C130.759 141.246 130.654 140.106 130.657 138.977L130.66 138.974ZM139.475 138.73C139.475 139.798 139.363 140.883 139.516 141.93C139.607 142.551 140.116 143.107 140.438 143.693C140.97 143.259 141.923 142.859 141.96 142.388C142.133 140.103 142.143 137.798 141.998 135.513C141.971 135.092 140.957 134.733 140.401 134.343C140.092 134.848 139.601 135.326 139.516 135.868C139.37 136.801 139.475 137.774 139.475 138.73ZM124.893 138.937C124.893 137.754 124.998 136.553 124.836 135.39C124.781 134.987 124.1 134.455 123.649 134.394C123.327 134.35 122.595 134.97 122.581 135.319C122.479 137.665 122.456 140.022 122.571 142.368C122.595 142.853 123.324 143.3 123.727 143.765C124.117 143.229 124.737 142.731 124.839 142.144C125.022 141.103 124.89 140.008 124.893 138.937Z" fill="#2254B5"/>
<path d="M124.516 131.325L124.377 131.363L124.245 131.308C124.259 115.452 124.269 99.5952 124.282 83.7386C124.347 83.7081 124.411 83.6979 124.479 83.7115C124.499 88.7936 124.54 93.8757 124.543 98.9578C124.543 109.746 124.53 120.537 124.52 131.325H124.516Z" fill="#FEECBB"/>
<path d="M83.1953 80.5823C83.1953 81.3722 83.2903 82.1791 83.1546 82.942C83.0835 83.3352 82.6054 83.6573 82.3105 84.0133C81.9511 83.7116 81.3001 83.4268 81.2798 83.1047C81.1747 81.4231 81.1781 79.7279 81.2832 78.0463C81.3035 77.7242 81.9545 77.4394 82.3172 77.1377C82.6088 77.4971 83.0835 77.8225 83.1546 78.2192C83.2903 78.9854 83.1953 79.7923 83.1953 80.5789V80.5823Z" fill="#B9C9E7"/>
<path d="M76.7571 80.5619C76.7571 79.7754 76.6622 78.9719 76.7944 78.209C76.8656 77.8158 77.3436 77.4937 77.6352 77.1377C77.9946 77.4394 78.6421 77.7242 78.6625 78.0497C78.7676 79.7245 78.7642 81.4163 78.6625 83.0911C78.6455 83.3522 77.9369 83.7116 77.5233 83.7489C77.2928 83.7692 76.8351 83.2437 76.7876 82.9182C76.6791 82.1486 76.7537 81.3485 76.7503 80.5619H76.7571Z" fill="#B9C9E7"/>
<path d="M74.0312 80.5143C74.0312 81.3042 74.1499 82.1179 73.9837 82.8706C73.8888 83.3045 73.3226 83.6334 72.97 84.0063C72.6615 83.6436 72.1123 83.2978 72.0885 82.918C71.9902 81.3483 71.9902 79.7616 72.0953 78.1919C72.1191 77.8257 72.6954 77.4935 73.0175 77.1443C73.3565 77.5342 73.8854 77.88 73.9905 78.3241C74.1566 79.0158 74.0346 79.7786 74.0312 80.5109V80.5143Z" fill="#B9C9E7"/>
<path d="M95.0816 80.4603C95.0816 79.7314 94.9595 78.972 95.129 78.2837C95.2375 77.8498 95.7834 77.5209 96.1326 77.1479C96.4445 77.5039 97.0005 77.8464 97.0242 78.2227C97.1226 79.7856 97.1192 81.3655 97.0141 82.9285C96.9937 83.2404 96.3529 83.7489 96.0241 83.7286C95.6918 83.7083 95.1901 83.1828 95.1223 82.8098C94.9799 82.0504 95.0816 81.2469 95.0816 80.4603Z" fill="#B9C9E7"/>
<path d="M85.9282 80.4637C85.9282 79.7348 85.8062 78.9787 85.9757 78.2905C86.0808 77.8565 86.6233 77.5243 86.9691 77.1479C87.281 77.5039 87.837 77.843 87.8607 78.2193C87.9591 79.7822 87.9557 81.3554 87.8506 82.9183C87.8302 83.2302 87.1962 83.7456 86.8674 83.7252C86.5385 83.7083 86.0367 83.1794 85.9689 82.8098C85.8265 82.0504 85.9282 81.2503 85.9282 80.4637Z" fill="#B9C9E7"/>
<path d="M92.3564 80.6499C92.3564 81.3822 92.4513 82.1349 92.3157 82.8401C92.2479 83.2029 91.763 83.4843 91.4681 83.8029C91.1969 83.5215 90.7053 83.2537 90.6883 82.9588C90.6103 81.3856 90.6103 79.8023 90.6849 78.2292C90.6985 77.9275 91.1765 77.6461 91.441 77.3579C91.7461 77.6664 92.2513 77.941 92.3123 78.2936C92.4445 79.0599 92.353 79.8634 92.353 80.6533L92.3564 80.6499Z" fill="#B2C6E4"/>
<path d="M273.396 174.312H246.389V135.994C255.39 135.994 264.385 135.994 273.383 135.994C273.386 148.765 273.393 161.54 273.396 174.312ZM260.435 159.747C257.448 159.747 254.458 159.818 251.478 159.716C250.047 159.669 249.904 160.374 249.996 161.472C250.074 162.418 249.637 163.52 251.372 163.5C257.346 163.425 263.32 163.425 269.29 163.5C271.006 163.523 270.63 162.459 270.687 161.493C270.752 160.428 270.687 159.665 269.226 159.716C266.3 159.818 263.368 159.747 260.435 159.747ZM260.245 155.339C263.232 155.339 266.222 155.268 269.202 155.37C270.64 155.417 270.769 154.702 270.68 153.614C270.606 152.668 271.04 151.566 269.304 151.586C263.33 151.661 257.356 151.661 251.386 151.586C249.671 151.562 250.047 152.63 249.989 153.597C249.925 154.665 249.996 155.421 251.454 155.373C254.38 155.271 257.312 155.343 260.245 155.343V155.339ZM260.15 147.541C262.459 147.541 264.771 147.487 267.08 147.562C268.592 147.609 268.27 146.602 268.314 145.745C268.358 144.833 268.345 144.11 267.046 144.127C262.483 144.185 257.919 144.195 253.356 144.124C251.925 144.1 252.044 144.927 252.027 145.863C252.01 146.843 251.996 147.626 253.393 147.565C255.641 147.47 257.899 147.538 260.153 147.538L260.15 147.541Z" fill="#FEFEFE"/>
<path d="M306.988 172.474C305.022 174.413 303.1 176.397 301.076 178.275C299.055 180.15 296.587 180.153 294.898 178.421C293.21 176.685 293.162 174.078 294.973 172.196C296.885 170.209 298.957 168.375 300.957 166.477C301.269 166.717 301.577 166.958 301.889 167.199C301.886 167.29 301.882 167.385 301.882 167.477C301.076 168.243 300.184 168.941 299.502 169.802C299.194 170.192 299.309 170.915 299.231 171.487C299.865 171.498 300.662 171.759 301.103 171.471C302.018 170.87 302.744 169.982 303.547 169.213C303.645 169.219 303.74 169.223 303.839 169.223L306.995 172.474H306.988Z" fill="#FFA653"/>
<path d="M306.988 172.474C305.937 171.389 304.886 170.308 303.832 169.223C305.778 167.263 307.714 165.297 309.674 163.351C310.352 162.679 310.762 162.001 309.945 161.184C309.107 160.35 308.545 161.042 307.961 161.584C305.941 163.459 303.91 165.324 301.886 167.195C301.574 166.955 301.266 166.714 300.954 166.473C303.062 164.436 305.1 162.323 307.297 160.387C309.114 158.791 311.881 159.048 313.4 160.733C314.915 162.418 314.878 164.951 313.142 166.687C311.155 168.677 309.043 170.545 306.985 172.467L306.988 172.474Z" fill="#0C2C7E"/>
<path d="M306.955 152.573C305.06 154.417 303.188 156.285 301.27 158.099C299.134 160.12 296.632 160.191 294.855 158.346C293.082 156.502 293.201 153.915 295.238 151.901C297.116 150.043 299.073 148.264 300.992 146.45C301.293 146.694 301.592 146.938 301.893 147.182C301.887 147.277 301.883 147.372 301.883 147.467C301.066 148.236 300.154 148.935 299.476 149.81C299.181 150.189 299.364 150.939 299.334 151.522C299.927 151.528 300.68 151.766 301.08 151.491C301.992 150.861 302.731 149.982 303.541 149.203L303.683 149.209H303.826C304.87 150.328 305.914 151.45 306.959 152.569L306.955 152.573Z" fill="#FFA653"/>
<path d="M306.955 152.573C305.911 151.454 304.866 150.332 303.822 149.213C304.124 148.816 304.382 148.375 304.734 148.03C306.351 146.457 307.996 144.907 309.637 143.358C310.315 142.717 310.776 142.032 309.962 141.195C309.138 140.347 308.569 141.022 307.975 141.571C305.951 143.446 303.917 145.314 301.89 147.185C301.588 146.941 301.29 146.697 300.988 146.453C303.178 144.355 305.28 142.158 307.585 140.195C309.321 138.72 311.922 139.086 313.352 140.7C314.847 142.388 314.902 144.792 313.261 146.497C311.237 148.599 309.06 150.555 306.948 152.573H306.955Z" fill="#0C2C7E"/>
<path d="M306.984 132.56C305.045 134.441 303.143 136.364 301.156 138.191C299.872 139.371 298.39 140.09 296.556 139.405C294.874 138.777 293.884 137.625 293.623 135.835C293.403 134.306 294.01 133.092 295.057 132.068C297.068 130.102 299.105 128.162 301.129 126.213C301.384 126.535 301.638 126.857 301.892 127.179C301.885 127.274 301.882 127.369 301.882 127.464C301.102 128.196 300.319 128.929 299.543 129.661C298.963 130.21 298.451 130.909 299.322 131.458C299.766 131.736 300.712 131.668 301.177 131.366C302.058 130.793 302.76 129.939 303.536 129.2C303.631 129.207 303.73 129.21 303.825 129.207C304.879 130.322 305.933 131.441 306.988 132.556L306.984 132.56Z" fill="#FFA653"/>
<path d="M306.985 132.559C305.931 131.444 304.876 130.325 303.822 129.21C304.124 128.813 304.381 128.372 304.734 128.027C306.351 126.453 307.995 124.904 309.636 123.355C310.314 122.714 310.775 122.029 309.962 121.192C309.138 120.344 308.568 121.019 307.975 121.568C305.951 123.443 303.917 125.311 301.889 127.182C301.635 126.86 301.381 126.538 301.126 126.216C303.066 124.328 304.944 122.375 306.961 120.568C308.989 118.754 311.813 118.913 313.457 120.771C315.003 122.517 314.786 125.091 312.864 126.972C310.931 128.864 308.945 130.702 306.985 132.563V132.559Z" fill="#0C2C7E"/>
<path d="M271.403 92.5333C269.383 94.4929 267.413 96.5068 265.324 98.3918C263.402 100.128 260.883 100.046 259.262 98.3613C257.581 96.6119 257.577 93.9878 259.391 92.1468C261.331 90.1838 263.378 88.3327 265.379 86.4341C265.677 86.6951 265.975 86.9562 266.274 87.2206C265.463 88.0682 264.562 88.8514 263.883 89.7939C263.595 90.194 263.778 90.9297 263.748 91.5128C264.338 91.5128 265.08 91.7332 265.484 91.4586C266.396 90.8381 267.142 89.9702 267.959 89.2006H268.111H268.264C269.311 90.3092 270.359 91.4179 271.403 92.5299V92.5333Z" fill="#FFA653"/>
<path d="M266.277 87.2205C265.979 86.9595 265.68 86.6984 265.382 86.434C267.521 84.3489 269.579 82.1723 271.827 80.2127C273.607 78.6599 276.105 78.9617 277.777 80.6331C279.177 82.0333 279.425 84.5455 277.94 86.1797C275.902 88.4275 273.593 90.4244 271.403 92.5298C270.355 91.4178 269.311 90.3091 268.264 89.1971C268.504 88.8987 268.718 88.5733 268.989 88.3054C270.756 86.556 272.59 84.871 274.268 83.0402C274.61 82.6707 274.39 81.7824 274.427 81.1349C273.871 81.1484 273.105 80.9314 272.797 81.2128C270.681 83.1487 268.66 85.1897 266.609 87.2002C266.497 87.2036 266.385 87.2104 266.27 87.2171L266.277 87.2205Z" fill="#0C2C7E"/>
<path d="M306.988 112.543C305.005 114.458 303.045 116.405 301.024 118.279C299.716 119.493 298.163 120.039 296.393 119.354C294.722 118.707 293.566 117.432 293.664 115.676C293.732 114.452 294.291 113.031 295.102 112.112C296.956 110.01 299.099 108.163 301.126 106.213C301.38 106.535 301.635 106.857 301.889 107.179C301.882 107.274 301.879 107.369 301.879 107.464C301.099 108.196 300.319 108.929 299.539 109.661C298.96 110.207 298.444 110.909 299.316 111.458C299.76 111.736 300.706 111.668 301.174 111.366C302.055 110.793 302.757 109.939 303.533 109.2C303.632 109.207 303.727 109.21 303.825 109.207C304.879 110.319 305.937 111.431 306.991 112.543H306.988Z" fill="#FFA653"/>
<path d="M301.892 107.176C301.638 106.854 301.384 106.532 301.129 106.21C303.069 104.321 304.95 102.362 306.968 100.558C309.032 98.7136 311.799 98.8628 313.45 100.741C315.003 102.507 314.799 105.064 312.877 106.949C310.944 108.844 308.954 110.678 306.991 112.539C305.937 111.427 304.879 110.315 303.825 109.203C304.123 108.807 304.377 108.359 304.73 108.017C306.351 106.444 307.995 104.898 309.636 103.348C310.314 102.707 310.775 102.023 309.961 101.185C309.137 100.338 308.568 101.012 307.974 101.561C305.95 103.436 303.916 105.304 301.889 107.176H301.892Z" fill="#0C2C7E"/>
<path d="M307.015 92.4927C305.031 94.4184 303.065 96.3645 301.055 98.2631C299.682 99.5582 298.041 100.05 296.24 99.3344C294.64 98.697 293.579 97.3714 293.674 95.6966C293.745 94.4659 294.281 93.0385 295.091 92.1198C296.949 90.011 299.098 88.1598 301.129 86.2036C301.475 86.4816 301.821 86.7596 302.167 87.041C302.173 87.1733 302.177 87.3021 302.184 87.4343C301.255 88.2209 300.241 88.9362 299.441 89.8347C299.142 90.1703 299.336 90.9467 299.305 91.5197C299.902 91.5129 300.655 91.7367 301.065 91.4586C301.98 90.8348 302.726 89.9601 303.54 89.1905L303.689 89.1973H303.838C304.899 90.2958 305.957 91.3942 307.018 92.4893L307.015 92.4927Z" fill="#FFA653"/>
<path d="M307.015 92.4925C305.954 91.394 304.896 90.2955 303.835 89.1971C304.299 88.6512 304.723 88.0715 305.232 87.5697C306.751 86.0746 308.361 84.6676 309.799 83.0978C310.144 82.7215 309.954 81.857 310.012 81.2162C309.388 81.2637 308.558 81.0738 308.178 81.4027C306.113 83.2097 304.157 85.1456 302.167 87.0374C301.821 86.7594 301.475 86.478 301.129 86.2C303.113 84.2743 305.035 82.2842 307.093 80.4432C309.07 78.6734 311.741 78.8497 313.433 80.6975C314.969 82.3757 314.84 84.9693 313.023 86.7764C311.063 88.7224 309.022 90.5871 307.018 92.4857L307.015 92.4925Z" fill="#0C2C7E"/>
<path d="M184.909 125.521C187.733 125.514 190.557 125.511 193.385 125.504C193.497 126.901 193.7 128.298 193.707 129.695C193.744 135.736 193.724 141.778 193.724 147.819C193.724 151.094 193.666 154.369 193.741 157.644C193.819 160.974 195.619 162.533 199.098 162.466C201.6 162.418 203.176 160.479 203.224 157.512C203.305 152.556 203.481 147.602 203.539 142.649C203.603 136.919 203.576 131.19 203.59 125.463C212.381 125.487 221.176 125.511 229.967 125.535C231.489 125.538 233.011 125.545 234.53 125.552C234.523 127.521 234.506 129.488 234.513 131.457C234.557 143.371 234.611 155.285 234.652 167.195C234.652 167.87 234.581 168.541 234.544 169.216C217.955 169.219 201.366 169.223 184.777 169.229C184.787 164.974 184.801 160.72 184.811 156.468C184.838 149.481 184.868 142.49 184.892 135.502C184.902 132.176 184.902 128.85 184.906 125.524L184.909 125.521Z" fill="#E0E8F5"/>
<path d="M184.777 169.226C201.366 169.223 217.955 169.219 234.544 169.212C234.54 171.942 234.533 174.674 234.53 177.403C217.924 177.403 201.318 177.4 184.712 177.397C184.733 174.674 184.756 171.948 184.777 169.226Z" fill="#B2C6E4"/>
<path d="M184.712 177.397C201.318 177.397 217.924 177.4 234.53 177.404C234.53 179.302 234.53 181.198 234.53 183.096C217.995 183.103 201.457 183.113 184.923 183.12C184.851 181.211 184.784 179.306 184.712 177.397Z" fill="#E0E8F5"/>
<path d="M117.143 148.844C126.589 148.857 136.031 148.871 145.476 148.888C146.656 148.888 147.836 148.918 149.016 148.932C148.995 149.6 149.002 150.271 148.948 150.939C148.87 151.888 149.08 152.427 150.192 152.681C152.047 153.102 152.789 154.627 153.142 156.363C153.125 165.517 153.108 174.668 153.087 183.822C153.084 185.347 153.054 186.873 153.037 188.399C152.121 185.724 149.924 184.083 148.019 182.204C147.541 181.737 147.087 181.242 146.622 180.76C146.622 172.64 146.625 164.524 146.612 156.404C146.612 154.529 145.466 153.071 143.649 152.651C142.781 152.451 141.876 152.329 140.987 152.325C133.037 152.295 125.09 152.295 117.14 152.288V148.847L117.143 148.844Z" fill="#73B6FF"/>
<path d="M117.048 166.819C117.075 164.558 117.102 162.293 117.129 160.031C121.286 160.042 125.442 160.082 129.599 160.042C130.708 160.031 131.064 160.398 131.04 161.496C130.982 164.08 131.036 166.663 131.043 169.246C130.843 169.352 130.65 169.463 130.447 169.558C126.344 171.44 125.625 175.552 128.829 178.763C129.585 179.519 130.318 180.299 131.064 181.069C131.043 181.977 131.023 182.886 130.999 183.794C128.755 183.845 126.51 183.893 124.266 183.944C124.029 183.961 123.788 183.977 123.551 183.994C121.286 183.957 119.021 183.923 116.756 183.886C116.855 178.197 116.95 172.511 117.048 166.822V166.819Z" fill="#E0E8F5"/>
<path d="M131.046 169.243C131.04 166.66 130.985 164.076 131.043 161.493C131.067 160.394 130.707 160.028 129.602 160.038C125.445 160.082 121.289 160.038 117.132 160.028C117.132 157.445 117.139 154.865 117.139 152.285C125.089 152.291 133.036 152.291 140.987 152.322C141.875 152.325 142.78 152.447 143.648 152.647C145.465 153.064 146.608 154.526 146.611 156.401C146.625 164.52 146.618 172.637 146.622 180.757C145.608 179.862 144.591 178.97 143.577 178.075C141.4 175.946 139.17 173.868 137.068 171.667C135.393 169.914 133.481 168.985 131.046 169.243Z" fill="#2254B5"/>
<path d="M131.046 169.243C133.484 168.989 135.396 169.914 137.068 171.667C139.17 173.867 141.4 175.946 143.577 178.075C143.214 178.427 142.852 178.777 142.489 179.129C141.584 178.282 140.682 177.434 139.77 176.593C138.983 175.868 138.108 175.186 137.146 176.22C136.278 177.149 136.63 178.082 137.471 178.885C138.369 179.743 139.265 180.607 140.16 181.465C140.163 181.563 140.177 181.662 140.193 181.76C139.22 182.77 138.234 183.767 137.278 184.794C136.661 185.459 136.169 185.71 135.294 185.015C134.654 184.506 133.698 184.205 132.86 184.16C130.002 184.005 127.134 184.001 124.269 183.937C126.513 183.886 128.758 183.838 131.002 183.788C131.863 183.788 132.721 183.788 134.009 183.788C132.83 182.696 131.945 181.879 131.063 181.062C130.321 180.292 129.585 179.516 128.829 178.756C125.622 175.542 126.344 171.43 130.446 169.551C130.65 169.457 130.846 169.345 131.043 169.24L131.046 169.243Z" fill="#FFA653"/>
<path d="M123.608 185.425C126.765 185.469 129.921 185.513 133.074 185.557C133.583 185.564 134.2 185.391 134.573 185.618C135.224 186.018 135.722 186.663 136.281 187.205C135.719 187.747 135.237 188.571 134.573 188.765C133.633 189.039 132.562 188.839 131.545 188.856C128.897 188.897 126.249 188.944 123.601 188.988C123.557 188.937 123.537 188.876 123.53 188.812C123.53 187.741 123.53 186.669 123.53 185.598C123.534 185.534 123.557 185.476 123.601 185.425H123.608Z" fill="#F6A082"/>
<path d="M140.194 181.764C140.177 181.665 140.167 181.567 140.16 181.469C140.937 180.787 141.71 180.102 142.486 179.421C145.035 181.889 147.632 184.306 150.084 186.866C150.494 187.293 150.592 188.517 150.277 189.039C149.687 190.019 148.67 189.673 147.955 188.992C145.832 186.971 143.764 184.886 141.655 182.852C141.221 182.435 140.686 182.123 140.194 181.764Z" fill="#F6A082"/>
<path d="M142.486 179.421C141.71 180.102 140.937 180.784 140.16 181.469C139.265 180.608 138.37 179.743 137.472 178.889C136.631 178.085 136.275 177.153 137.146 176.224C138.109 175.193 138.98 175.875 139.77 176.597C140.682 177.434 141.584 178.285 142.489 179.133C142.496 179.231 142.496 179.326 142.486 179.424V179.421Z" fill="#FEECBB"/>
<path d="M123.537 185.598C123.537 186.669 123.537 187.741 123.537 188.812C122.3 188.822 121.059 188.873 119.825 188.826C118.777 188.785 117.709 188.609 117.726 187.195C117.747 185.825 118.723 185.574 119.825 185.568C121.062 185.561 122.3 185.585 123.541 185.595L123.537 185.598Z" fill="#FEECBB"/>
<path d="M227.926 188.856C226.576 188.85 225.227 188.877 223.878 188.829C222.833 188.792 221.908 188.405 221.911 187.202C221.915 186.005 222.837 185.615 223.884 185.578C225.234 185.534 226.583 185.558 227.932 185.551L227.926 185.612C227.926 186.67 227.926 187.731 227.922 188.792V188.856H227.926Z" fill="#FEECBB"/>
<path d="M227.923 188.792C227.923 187.73 227.923 186.673 227.926 185.611C231.418 185.594 234.914 185.564 238.406 185.564C239.501 185.564 240.491 185.828 240.487 187.205C240.487 188.585 239.494 188.842 238.399 188.842C234.907 188.842 231.411 188.809 227.919 188.788L227.923 188.792Z" fill="#F6A082"/>
<path d="M203.586 125.46C203.573 131.19 203.6 136.92 203.536 142.646C203.481 147.603 203.302 152.556 203.22 157.509C203.173 160.472 201.596 162.412 199.094 162.462C195.616 162.53 193.815 160.971 193.737 157.641C193.66 154.37 193.721 151.091 193.721 147.816C193.721 141.775 193.741 135.733 193.704 129.691C193.697 128.295 193.493 126.898 193.382 125.501C193.375 123.192 193.354 120.883 193.371 118.571C193.388 116.564 194.982 114.048 196.752 113.526C198.755 112.936 200.623 113.269 202.193 114.818C203.549 116.154 203.43 117.907 203.556 119.541C203.702 121.5 203.59 123.48 203.59 125.453L203.586 125.46Z" fill="#FEFEFE"/>
<path d="M268.261 109.203L268.111 109.21L267.962 109.207C267.406 108.627 266.85 108.047 266.294 107.468C266.291 107.369 266.294 107.271 266.304 107.173C268.335 105.305 270.373 103.447 272.39 101.565C272.994 101.002 273.6 100.368 274.401 101.141C275.221 101.935 274.75 102.653 274.092 103.311C272.143 105.267 270.203 107.237 268.261 109.203Z" fill="#F6A082"/>
<path d="M153.145 137.065C153.124 136.34 153.094 135.618 153.08 134.892C153.039 132.546 151.951 131.424 149.581 131.366C147.462 131.315 145.34 131.319 143.221 131.298C139.658 127.094 137.803 122.311 138.095 116.723C138.539 108.146 145.35 100.392 153.951 99.0325C160.085 98.0629 165.516 99.5749 170.103 103.592C173.67 106.718 175.751 110.841 176.406 115.591C177.494 123.494 173.015 131.82 165.774 135.224C162.488 136.77 159.047 137.703 155.338 137.076C154.626 136.953 153.873 137.062 153.141 137.062L153.145 137.065ZM157.216 120.419C160.146 120.419 163.078 120.419 166.007 120.419C167.021 120.419 168.048 120.51 169.045 120.375C170.283 120.209 171.11 119.551 171.022 118.117C170.94 116.761 170.259 116.018 168.913 116.018C161.136 116.001 153.361 115.998 145.584 116.021C144.231 116.025 143.546 116.811 143.536 118.171C143.523 119.636 144.326 120.398 146.062 120.412C149.781 120.442 153.501 120.422 157.22 120.422L157.216 120.419ZM157.25 108.224C154.88 108.224 152.511 108.176 150.144 108.241C148.659 108.281 147.55 109.39 147.618 110.641C147.703 112.167 148.768 112.709 150.083 112.946C150.303 112.987 150.534 112.957 150.758 112.957C154.985 112.957 159.217 112.97 163.444 112.943C164.105 112.94 164.909 112.936 165.39 112.58C166.035 112.106 166.814 111.295 166.825 110.617C166.835 109.939 166.082 109.102 165.448 108.614C164.98 108.251 164.167 108.251 163.505 108.237C161.42 108.193 159.332 108.22 157.247 108.224H157.25ZM157.274 127.884C159.64 127.884 162.01 127.905 164.377 127.878C165.723 127.861 166.879 127.494 166.93 125.843C166.977 124.294 166.106 123.487 164.309 123.48C159.63 123.46 154.952 123.46 150.273 123.48C148.571 123.487 147.574 124.392 147.618 125.847C147.669 127.505 148.829 127.861 150.171 127.881C152.538 127.911 154.907 127.891 157.274 127.891V127.884Z" fill="#B2C6E4"/>
<path d="M134.057 131.305C133.948 131.315 133.84 131.325 133.731 131.336C133.731 115.723 133.731 100.111 133.731 84.498C133.84 84.498 133.948 84.498 134.057 84.498V131.305Z" fill="#F0EBEB"/>
<path d="M73.7198 117.642C71.7873 117.642 69.8514 117.642 67.9189 117.642C67.9257 114.774 67.9223 111.902 67.9461 109.034C67.9495 108.535 67.9393 107.983 68.1393 107.552C68.7394 106.264 69.6006 105.277 71.2415 105.501C72.462 105.667 73.6656 107.064 73.6893 108.525C73.7368 111.563 73.713 114.601 73.7198 117.638V117.642Z" fill="#FEFEFE"/>
<path d="M117.15 134.655C118.767 134.106 119.411 134.479 119.448 136.079C119.493 138.042 119.486 140.008 119.448 141.975C119.421 143.51 118.723 143.934 117.143 143.456C117.143 140.524 117.143 137.587 117.146 134.655H117.15Z" fill="#73B6FF"/>
<path d="M136.417 139.092C136.417 140.164 136.563 141.266 136.359 142.296C136.247 142.852 135.535 143.29 135.095 143.781C134.637 143.307 133.82 142.856 133.786 142.354C133.64 140.164 133.647 137.953 133.783 135.76C133.813 135.255 134.576 134.797 135 134.315C135.471 134.834 136.224 135.295 136.356 135.889C136.58 136.912 136.417 138.018 136.417 139.089V139.092Z" fill="#73B6FF"/>
<path d="M130.657 138.974C130.657 140.103 130.759 141.246 130.607 142.351C130.539 142.849 129.959 143.276 129.613 143.734C129.176 143.371 128.393 143.039 128.362 142.646C128.176 140.249 128.111 137.838 128.111 135.435C128.111 134.577 128.776 134.021 129.603 134.37C130.068 134.567 130.535 135.245 130.613 135.763C130.769 136.811 130.661 137.899 130.657 138.971V138.974Z" fill="#73B6FF"/>
<path d="M139.475 138.73C139.475 137.774 139.37 136.801 139.516 135.868C139.601 135.326 140.092 134.848 140.401 134.343C140.96 134.729 141.97 135.089 141.998 135.512C142.143 137.798 142.133 140.106 141.96 142.388C141.923 142.859 140.97 143.259 140.438 143.693C140.116 143.107 139.607 142.551 139.516 141.93C139.363 140.883 139.475 139.798 139.475 138.73Z" fill="#73B6FF"/>
<path d="M124.893 138.937C124.893 140.008 125.025 141.103 124.842 142.144C124.737 142.731 124.116 143.229 123.73 143.765C123.327 143.3 122.601 142.849 122.574 142.368C122.459 140.022 122.482 137.666 122.584 135.319C122.598 134.97 123.33 134.35 123.652 134.394C124.103 134.458 124.784 134.987 124.839 135.391C124.998 136.553 124.896 137.75 124.893 138.937Z" fill="#73B6FF"/>
<path d="M260.436 159.747C263.365 159.747 266.298 159.818 269.227 159.716C270.688 159.665 270.753 160.428 270.688 161.493C270.63 162.459 271.007 163.523 269.291 163.5C263.318 163.422 257.344 163.425 251.373 163.5C249.637 163.52 250.075 162.418 249.997 161.472C249.909 160.377 250.048 159.669 251.478 159.716C254.462 159.818 257.452 159.747 260.436 159.747Z" fill="#F0EBEB"/>
<path d="M260.246 155.339C257.316 155.339 254.384 155.268 251.454 155.37C249.997 155.421 249.925 154.665 249.99 153.593C250.051 152.627 249.671 151.562 251.387 151.583C257.36 151.661 263.334 151.657 269.305 151.583C271.04 151.562 270.606 152.664 270.681 153.61C270.766 154.702 270.637 155.417 269.203 155.366C266.219 155.265 263.229 155.336 260.246 155.336V155.339Z" fill="#F0EBEB"/>
<path d="M260.152 147.541C257.897 147.541 255.642 147.47 253.391 147.568C251.998 147.626 252.008 146.846 252.025 145.866C252.042 144.931 251.92 144.103 253.354 144.127C257.917 144.198 262.481 144.188 267.044 144.131C268.343 144.114 268.36 144.836 268.312 145.748C268.268 146.606 268.59 147.612 267.078 147.565C264.769 147.49 262.46 147.545 260.148 147.545L260.152 147.541Z" fill="#F0EBEB"/>
<path d="M301.886 167.198C303.91 165.33 305.941 163.462 307.961 161.587C308.548 161.045 309.11 160.35 309.944 161.187C310.762 162.004 310.351 162.679 309.673 163.354C307.714 165.3 305.778 167.266 303.832 169.226C303.733 169.226 303.638 169.226 303.54 169.216C302.988 168.636 302.432 168.056 301.875 167.476C301.875 167.385 301.875 167.29 301.882 167.198H301.886Z" fill="#F6A082"/>
<path d="M301.879 167.477C302.435 168.057 302.988 168.636 303.544 169.216C302.74 169.986 302.015 170.874 301.099 171.471C300.662 171.759 299.865 171.498 299.228 171.488C299.306 170.915 299.191 170.196 299.499 169.803C300.181 168.938 301.072 168.24 301.879 167.477Z" fill="#FEECBB"/>
<path d="M301.893 147.182C303.924 145.311 305.955 143.446 307.979 141.568C308.572 141.019 309.142 140.344 309.965 141.191C310.779 142.029 310.318 142.714 309.64 143.354C307.999 144.907 306.358 146.453 304.737 148.026C304.385 148.369 304.127 148.813 303.825 149.21H303.683L303.541 149.203C302.988 148.623 302.435 148.043 301.883 147.464C301.883 147.369 301.886 147.274 301.893 147.179V147.182Z" fill="#F6A082"/>
<path d="M301.879 147.467C302.432 148.047 302.984 148.626 303.537 149.206C302.727 149.982 301.988 150.864 301.076 151.495C300.676 151.769 299.923 151.528 299.33 151.525C299.364 150.942 299.181 150.193 299.472 149.813C300.15 148.935 301.062 148.24 301.879 147.47V147.467Z" fill="#FEECBB"/>
<path d="M301.893 127.179C303.924 125.308 305.955 123.443 307.979 121.565C308.572 121.016 309.142 120.341 309.965 121.188C310.779 122.026 310.318 122.711 309.64 123.352C307.999 124.904 306.358 126.45 304.737 128.023C304.385 128.366 304.127 128.81 303.825 129.207C303.727 129.207 303.632 129.207 303.537 129.196C302.985 128.617 302.435 128.04 301.883 127.461C301.883 127.366 301.886 127.271 301.893 127.176V127.179Z" fill="#F6A082"/>
<path d="M301.879 127.464C302.432 128.044 302.981 128.623 303.534 129.2C302.757 129.939 302.055 130.793 301.174 131.366C300.709 131.668 299.763 131.736 299.319 131.458C298.445 130.912 298.957 130.21 299.54 129.661C300.319 128.928 301.099 128.196 301.879 127.464Z" fill="#FEECBB"/>
<path d="M266.613 87.2035C268.664 85.1964 270.685 83.1554 272.801 81.2162C273.109 80.9348 273.875 81.1517 274.431 81.1382C274.391 81.7857 274.611 82.674 274.272 83.0436C272.594 84.8709 270.76 86.5593 268.993 88.3088C268.722 88.5766 268.508 88.9021 268.268 89.2004H268.115H267.963C267.515 88.5359 267.064 87.8714 266.617 87.2035H266.613Z" fill="#F6A082"/>
<path d="M266.613 87.2036C267.064 87.8681 267.511 88.536 267.959 89.2005C267.145 89.9667 266.399 90.8346 265.484 91.4551C265.08 91.7297 264.338 91.5059 263.748 91.5093C263.778 90.9262 263.595 90.1905 263.883 89.7904C264.562 88.8479 265.463 88.0647 266.274 87.2172C266.386 87.2104 266.497 87.207 266.613 87.2002V87.2036Z" fill="#FEECBB"/>
<path d="M301.893 107.176C303.924 105.305 305.955 103.44 307.979 101.562C308.572 101.012 309.142 100.338 309.965 101.185C310.779 102.023 310.318 102.708 309.64 103.348C307.999 104.898 306.355 106.444 304.734 108.017C304.381 108.359 304.127 108.807 303.829 109.203C303.731 109.203 303.636 109.203 303.537 109.197C302.985 108.617 302.435 108.041 301.883 107.461C301.883 107.366 301.886 107.271 301.893 107.176Z" fill="#F6A082"/>
<path d="M301.879 107.461C302.432 108.041 302.981 108.62 303.534 109.197C302.758 109.936 302.059 110.79 301.174 111.363C300.71 111.665 299.764 111.733 299.316 111.455C298.442 110.906 298.96 110.207 299.54 109.658C300.32 108.926 301.1 108.193 301.879 107.461Z" fill="#FEECBB"/>
<path d="M302.167 87.0442C304.161 85.1524 306.114 83.2165 308.179 81.4095C308.555 81.0806 309.389 81.2705 310.013 81.223C309.955 81.8638 310.142 82.7283 309.799 83.1046C308.362 84.671 306.751 86.0813 305.232 87.5765C304.724 88.0749 304.3 88.658 303.835 89.2038H303.686L303.537 89.1971C303.086 88.6105 302.635 88.0274 302.181 87.4409L302.164 87.0476L302.167 87.0442Z" fill="#F6A082"/>
<path d="M302.181 87.4375C302.632 88.024 303.086 88.6072 303.537 89.1937C302.724 89.9667 301.978 90.838 301.062 91.4618C300.652 91.7398 299.899 91.5195 299.303 91.5229C299.333 90.9499 299.14 90.1735 299.438 89.8379C300.242 88.936 301.252 88.2241 302.181 87.4375Z" fill="#FEECBB"/>
<path d="M131.067 181.062C131.949 181.879 132.834 182.696 134.014 183.788H131.006C131.027 182.879 131.047 181.97 131.071 181.062H131.067Z" fill="#8EC6EB"/>
<path d="M157.217 120.419C153.498 120.419 149.778 120.439 146.059 120.409C144.323 120.395 143.523 119.636 143.533 118.168C143.543 116.808 144.228 116.022 145.581 116.018C153.359 115.994 161.133 115.998 168.91 116.015C170.256 116.015 170.937 116.757 171.019 118.113C171.104 119.548 170.28 120.209 169.042 120.371C168.045 120.504 167.018 120.412 166.004 120.415C163.075 120.415 160.143 120.415 157.213 120.415L157.217 120.419Z" fill="#88A5D5"/>
<path d="M157.251 108.22C159.336 108.22 161.424 108.19 163.509 108.234C164.17 108.247 164.984 108.247 165.452 108.61C166.086 109.098 166.839 109.936 166.828 110.614C166.818 111.288 166.038 112.099 165.394 112.577C164.913 112.929 164.109 112.933 163.448 112.94C159.22 112.967 154.989 112.953 150.762 112.953C150.534 112.953 150.304 112.984 150.087 112.943C148.771 112.709 147.707 112.163 147.622 110.638C147.554 109.386 148.663 108.278 150.148 108.237C152.514 108.173 154.884 108.22 157.254 108.217L157.251 108.22Z" fill="#88A5D5"/>
<path d="M157.274 127.884C154.908 127.884 152.538 127.908 150.172 127.874C148.826 127.857 147.669 127.498 147.619 125.84C147.575 124.385 148.571 123.48 150.273 123.473C154.952 123.457 159.631 123.453 164.309 123.473C166.103 123.48 166.977 124.287 166.93 125.837C166.879 127.488 165.726 127.854 164.377 127.871C162.011 127.901 159.641 127.878 157.274 127.878V127.884Z" fill="#88A5D5"/>
</svg>
