<svg width="58" height="67" viewBox="0 0 58 67" fill="none" xmlns="http://www.w3.org/2000/svg">
<path d="M57.7227 26.6598C57.0374 25.1771 55.2556 24.5031 53.7479 25.1771C51.6919 26.0532 48.8136 27.3338 46.8262 28.1426C46.8262 28.1426 46.8262 28.0752 46.7577 28.0752C45.5927 25.1097 43.8794 20.594 39.562 18.909C37.7116 18.1676 35.2445 17.0892 34.9704 16.9544C28.8711 14.3933 18.5915 15.8086 16.9467 16.4152C15.9873 16.6848 14.4796 17.2914 9.47685 26.5924C8.72301 28.0752 9.27126 29.8276 10.7104 30.6364C11.1901 30.906 11.6698 30.9734 12.1496 30.9734C13.2461 30.9734 14.274 30.3668 14.8223 29.4232C16.3985 26.525 18.4544 23.0203 19.4138 21.9419C20.5103 21.7397 22.9089 21.4701 25.4446 21.4701C22.7719 25.0423 20.3047 30.7712 19.6194 34.3433C18.3859 38.3198 16.467 42.4311 15.5076 43.7117C11.6698 43.4421 3.99437 42.7007 3.92584 42.7007C1.93844 42.4311 0.225162 43.7791 0.0195687 45.6663C-0.186024 47.5534 1.25313 49.3058 3.172 49.4406C3.58318 49.508 14.9593 50.519 16.467 50.5864C17.9747 50.6538 21.0586 49.845 24.4166 41.2853C26.7467 42.8355 31.5438 45.9359 32.983 47.486C32.5718 49.845 30.5844 56.2479 28.8026 61.5723C28.1858 63.3921 29.2138 65.3467 31.0641 65.9533C31.4068 66.0881 31.818 66.1555 32.1606 66.1555C33.6683 66.1555 35.0389 65.2119 35.5186 63.7965C37.3004 58.5394 40.2473 49.3732 40.1787 46.7446C40.1102 44.1835 37.7116 41.8919 32.4347 38.2524C34.0795 34.4107 36.6151 29.0188 39.0822 25.9858C39.9046 27.199 40.5214 28.8166 41.0011 30.0972C41.6864 31.7821 42.7829 34.8151 45.3186 34.8151C45.7298 34.8151 46.1409 34.7477 46.6207 34.5455C48.3339 33.9389 55.3241 30.906 56.1465 30.5016C57.7227 29.895 58.408 28.1426 57.7227 26.6598Z" fill="#0C2C7E"/>
<path d="M46.4354 11.8477C47.9702 8.32352 46.3095 4.24294 42.7261 2.7335C39.1426 1.22405 34.9935 2.85734 33.4587 6.38155C31.9239 9.90576 33.5846 13.9863 37.168 15.4958C40.7515 17.0052 44.9006 15.3719 46.4354 11.8477Z" fill="#0C2C7E"/>
</svg>
