<svg width="66" height="66" viewBox="0 0 66 66" fill="none" xmlns="http://www.w3.org/2000/svg">
<path d="M32.812 0C14.7202 0 0 14.7202 0 32.812C0 50.9038 14.7202 65.624 32.812 65.624C50.9038 65.624 65.624 50.9038 65.624 32.812C65.624 14.7202 50.9038 0 32.812 0ZM32.812 59.3226C26.9397 59.3226 21.2374 57.3652 16.6211 53.7898L27.087 43.3238H51.0399C51.6622 43.3238 52.1714 42.8147 52.1714 42.1924V34.363C52.1714 33.7407 51.6622 33.2316 51.0399 33.2316H37.1793L53.7895 16.6214C57.3649 21.2377 59.3223 26.9403 59.3223 32.8123C59.3223 47.4311 47.4301 59.3226 32.812 59.3226ZM32.812 6.30215C38.6843 6.30215 44.3866 8.25955 49.0029 11.835L27.6069 33.231H10.3066C9.67299 33.231 9.17515 33.7401 9.17515 34.3624V42.1918C9.17515 42.8254 9.67299 43.3232 10.3066 43.3232H17.5027L11.8341 49.0032C8.25869 44.3869 6.30128 38.6843 6.30128 32.8123C6.30128 18.1935 18.193 6.30243 32.8111 6.30243L32.812 6.30215ZM25.3447 35.4935L19.7779 41.0603H19.3027V35.4935H25.3447ZM17.0396 35.4935V41.0603H11.4389V35.4935H17.0396ZM34.9171 35.4935H49.9088V41.0603H29.3499L34.9171 35.4935Z" fill="#0C2C7E"/>
<path d="M56.4488 28.9536C56.4488 27.9692 56.0868 27.4035 55.8492 27.0302C55.6681 26.7586 55.6116 26.6568 55.6116 26.3287C55.6116 26.0006 55.6794 25.8987 55.8492 25.6272C56.0868 25.2538 56.4488 24.688 56.4488 23.7037C56.4488 23.0814 55.9397 22.5723 55.3174 22.5723C54.6951 22.5723 54.1859 23.0814 54.1859 23.7037C54.1859 24.0205 54.118 24.1224 53.9483 24.4052C53.7107 24.7786 53.3486 25.3444 53.3486 26.3287C53.3486 27.313 53.7107 27.8788 53.9483 28.2521C54.1293 28.5237 54.1859 28.6255 54.1859 28.9536C54.1859 29.2818 54.118 29.3723 53.9483 29.6438C53.7107 30.0172 53.3486 30.5716 53.3486 31.5673C53.3486 32.563 53.7107 33.1173 53.9483 33.4907C54.118 33.7623 54.1859 33.8641 54.1859 34.1809C54.1859 34.4977 54.118 34.5995 53.9483 34.8711C53.7107 35.2445 53.3486 35.7989 53.3486 36.7945C53.3486 37.4168 53.8578 37.926 54.4801 37.926C55.1024 37.926 55.6116 37.4168 55.6116 36.7945C55.6116 36.4777 55.6794 36.3759 55.8492 36.1043C56.0868 35.731 56.4488 35.1766 56.4488 34.1809C56.4488 33.1852 56.0868 32.6308 55.8492 32.2575C55.6794 31.9859 55.6116 31.8841 55.6116 31.5673C55.6116 31.2505 55.6794 31.1486 55.8492 30.8771C56.0868 30.5037 56.4488 29.9493 56.4488 28.9536Z" fill="#0C2C7E"/>
<path d="M52.4762 21.8141C52.4762 21.1918 51.9784 20.6826 51.3447 20.6826C50.7111 20.6826 50.2133 21.1918 50.2133 21.8141C50.1907 21.8593 50.1567 21.8933 50.1228 21.9272C49.9304 22.1761 49.5684 22.64 49.5684 23.432C49.5684 24.224 49.9304 24.688 50.1228 24.9369C50.1567 24.9708 50.1793 25.0048 50.2133 25.05C50.1907 25.0953 50.1567 25.1292 50.1228 25.1632C49.9304 25.4121 49.5684 25.876 49.5684 26.668C49.5684 27.46 49.9304 27.9239 50.1228 28.1728C50.1567 28.2068 50.1793 28.2407 50.2133 28.286C50.1907 28.3312 50.1567 28.3652 50.1228 28.3991C49.9304 28.648 49.5684 29.1119 49.5684 29.9039C49.5684 30.5262 50.0662 31.0354 50.6998 31.0354C51.3334 31.0354 51.8313 30.5262 51.8313 29.9039C51.8539 29.8587 51.8879 29.8247 51.9218 29.7908C52.1141 29.5419 52.4762 29.078 52.4762 28.286C52.4762 27.494 52.1141 27.03 51.9218 26.7811C51.8879 26.7472 51.8652 26.7132 51.8426 26.668C51.8652 26.6227 51.8992 26.5888 51.9331 26.5548C52.1255 26.3059 52.4875 25.842 52.4875 25.05C52.4875 24.258 52.1255 23.7941 51.9331 23.5452C51.8992 23.5112 51.8765 23.4773 51.8426 23.4207C51.8652 23.3755 51.8992 23.3415 51.9331 23.3076C52.1255 23.0587 52.4875 22.5948 52.4875 21.8028L52.4762 21.8141Z" fill="#0C2C7E"/>
</svg>
