<svg width="29" height="27" viewBox="0 0 29 27" fill="none" xmlns="http://www.w3.org/2000/svg">
<path d="M13.7373 0.180496L0.237302 12.2594C0.162644 12.3261 0.102912 12.4078 0.0620172 12.4991C0.0211228 12.5905 -1.09952e-05 12.6894 4.2915e-09 12.7895V26.2895C1.8355e-05 26.4779 0.0748827 26.6586 0.208128 26.7919C0.341373 26.9251 0.522087 27 0.710524 27H10.6579C10.8463 27 11.027 26.9251 11.1603 26.7919C11.2935 26.6586 11.3684 26.4779 11.3684 26.2895V17.0527H17.0526V26.2895C17.0526 26.4779 17.1275 26.6586 17.2607 26.7919C17.394 26.9251 17.5747 27 17.7631 27H27.7104C27.8989 27 28.0796 26.9251 28.2128 26.7919C28.3461 26.6586 28.4209 26.4779 28.421 26.2895V12.7895C28.421 12.6894 28.3998 12.5905 28.3589 12.4991C28.3181 12.4078 28.2583 12.3261 28.1837 12.2594L14.6837 0.180496C14.5535 0.0642495 14.385 0 14.2105 0C14.0359 0 13.8675 0.0642495 13.7373 0.180496ZM14.2105 1.66399L26.9999 13.1073V25.579H18.4736V16.3421C18.4736 16.1537 18.3987 15.973 18.2655 15.8397C18.1323 15.7065 17.9515 15.6316 17.7631 15.6316H10.6579C10.4694 15.6316 10.2887 15.7065 10.1555 15.8397C10.0222 15.973 9.94736 16.1537 9.94734 16.3421V25.579H1.42105V13.1073L14.2105 1.66399Z" fill="#0C2C7E"/>
</svg>
