<svg width="40" height="27" viewBox="0 0 40 27" fill="none" xmlns="http://www.w3.org/2000/svg">
<path d="M17.5721 25.0262C17.5663 25.0202 17.5604 25.0121 17.5546 25.006C17.5233 24.9695 17.4901 24.931 17.4569 24.8925C17.4413 24.8743 17.4257 24.8561 17.4081 24.8358C17.3613 24.7811 17.3164 24.7264 17.2714 24.6717C17.2695 24.6697 17.2675 24.6677 17.2656 24.6636C17.2187 24.6069 17.1719 24.5482 17.125 24.4894C17.1094 24.4712 17.0957 24.451 17.0801 24.4327C17.0488 24.3922 17.0176 24.3517 16.9864 24.3112C16.9688 24.2889 16.9512 24.2646 16.9336 24.2423C16.9063 24.2059 16.877 24.1674 16.8497 24.1309C16.8321 24.1066 16.8145 24.0823 16.795 24.058C16.7677 24.0215 16.7403 23.983 16.713 23.9466C16.6954 23.9223 16.6778 23.898 16.6603 23.8737C16.6329 23.8352 16.6056 23.7967 16.5783 23.7582C16.5626 23.7339 16.5451 23.7096 16.5275 23.6873C16.4982 23.6448 16.4689 23.6022 16.4396 23.5597C16.426 23.5394 16.4123 23.5192 16.3986 23.4989C16.3557 23.4361 16.3147 23.3733 16.2737 23.3105C16.2737 23.3105 16.2737 23.3085 16.2717 23.3085C16.2287 23.2437 16.1877 23.1789 16.1467 23.114C16.1331 23.0938 16.1213 23.0735 16.1077 23.0513C16.0803 23.0067 16.053 22.9621 16.0257 22.9176C16.0101 22.8933 15.9944 22.8669 15.9788 22.8406C15.9534 22.8001 15.928 22.7596 15.9046 22.717C15.889 22.6907 15.8734 22.6644 15.8577 22.636C15.8343 22.5955 15.8109 22.555 15.7874 22.5145C15.7718 22.4881 15.7562 22.4598 15.7406 22.4334C15.7172 22.3909 15.6937 22.3484 15.6703 22.3078C15.6547 22.2815 15.641 22.2552 15.6273 22.2288C15.602 22.1823 15.5766 22.1357 15.5531 22.0911C15.5414 22.0688 15.5297 22.0465 15.516 22.0222C15.4789 21.9534 15.4418 21.8845 15.4067 21.8136C14.3269 19.713 13.6259 17.2782 13.3799 14.7746C13.3115 14.0839 13.2783 13.3729 13.2783 12.666C13.2783 11.4324 13.3838 10.2028 13.5907 9.01173C13.6064 8.9145 13.6259 8.81727 13.6435 8.72004C13.6474 8.69978 13.6513 8.67952 13.6552 8.65927C13.6669 8.59647 13.6786 8.53368 13.6923 8.4729C13.6981 8.44252 13.704 8.41214 13.7118 8.38175C13.7118 8.37568 13.7138 8.37162 13.7157 8.36757C13.7157 8.36352 13.7177 8.35947 13.7177 8.35542C13.7177 8.35137 13.7177 8.35137 13.7196 8.34732C13.7196 8.34327 13.7216 8.33922 13.7216 8.33719C13.7391 8.25009 13.7587 8.16298 13.7782 8.07588L13.7938 8.00093C13.8075 7.94219 13.8212 7.88345 13.8348 7.82268C13.8387 7.80242 13.8446 7.78216 13.8485 7.76191C13.8524 7.74773 13.8543 7.73557 13.8583 7.7214C13.8817 7.62416 13.9051 7.52693 13.9305 7.4297C13.9325 7.42363 13.9344 7.41755 13.9364 7.40945C13.9617 7.31019 13.9891 7.21094 14.0164 7.11371C14.0438 7.01243 14.073 6.90912 14.1023 6.81189V6.80986V6.80784V6.80581C14.1277 6.71871 14.159 6.61135 14.1941 6.50197C14.1941 6.49792 14.1961 6.49589 14.198 6.49387C14.2175 6.42905 14.239 6.36017 14.2605 6.29333V6.28928C14.28 6.22851 14.2995 6.16774 14.3191 6.10697C12.9718 5.02121 11.4721 4.22719 9.95299 3.79979C9.87879 3.77953 9.80654 3.75928 9.73429 3.74105C9.32033 3.63369 8.90246 3.55267 8.48266 3.5C7.57275 5.83959 7.26033 8.5094 7.57664 11.2582C7.7309 12.6032 8.03356 13.9279 8.47876 15.2102C8.51391 15.3094 8.54906 15.4067 8.58421 15.5059C8.65645 15.7024 8.73065 15.8969 8.81071 16.0913C9.00597 16.5775 9.22857 17.0657 9.47069 17.5417C9.52341 17.645 9.57613 17.7463 9.63081 17.8496C9.64252 17.8719 9.65424 17.8942 9.66595 17.9144C9.71867 18.0137 9.77335 18.1109 9.82607 18.2081C9.83583 18.2243 9.84559 18.2405 9.8534 18.2567C9.90417 18.3459 9.95494 18.433 10.0057 18.5201C10.0155 18.5363 10.0252 18.5525 10.033 18.5687C10.0897 18.6639 10.1463 18.7591 10.2049 18.8523C10.2166 18.8725 10.2303 18.8928 10.2439 18.9151C10.3025 19.0103 10.363 19.1055 10.4236 19.1987C10.4236 19.2007 10.4255 19.2027 10.4275 19.2027C10.488 19.2959 10.5485 19.387 10.611 19.4782C10.6247 19.4985 10.6384 19.5187 10.652 19.539C10.7145 19.6281 10.775 19.7172 10.8375 19.8043C10.8492 19.8205 10.861 19.8347 10.8707 19.8509C10.9293 19.9299 10.9859 20.0089 11.0445 20.0879C11.0562 20.1021 11.066 20.1183 11.0777 20.1325C11.1421 20.2176 11.2066 20.3026 11.273 20.3857C11.2886 20.4039 11.3023 20.4242 11.3179 20.4424C11.3843 20.5275 11.4526 20.6126 11.521 20.6956C11.5229 20.6976 11.5249 20.6997 11.5249 20.7017C11.5932 20.7847 11.6615 20.8658 11.7318 20.9468C11.7475 20.965 11.7631 20.9832 11.7787 21.0015C11.847 21.0805 11.9154 21.1595 11.9857 21.2364C11.9974 21.2506 12.0111 21.2648 12.0228 21.277C12.0853 21.3479 12.1516 21.4167 12.2141 21.4856C12.2258 21.4998 12.2395 21.5119 12.2532 21.5261C12.3235 21.6011 12.3957 21.676 12.468 21.7489C12.4836 21.7651 12.5012 21.7813 12.5187 21.7996C12.5929 21.8725 12.6671 21.9474 12.7413 22.0183C12.7433 22.0204 12.7452 22.0224 12.7472 22.0244C12.8214 22.0953 12.8956 22.1662 12.9717 22.2351C12.9893 22.2513 13.0069 22.2675 13.0225 22.2837C13.0967 22.3526 13.1729 22.4194 13.249 22.4863C13.2627 22.4984 13.2764 22.5106 13.29 22.5227C13.3584 22.5835 13.4287 22.6422 13.499 22.701C13.5126 22.7131 13.5263 22.7253 13.54 22.7354C13.6181 22.8002 13.6942 22.863 13.7723 22.9258C13.7899 22.94 13.8075 22.9542 13.827 22.9684C13.9071 23.0312 13.9871 23.094 14.0672 23.1547C14.0691 23.1567 14.0711 23.1588 14.075 23.1608C14.155 23.2216 14.2351 23.2783 14.3152 23.337C14.3347 23.3492 14.3523 23.3634 14.3698 23.3775C14.4499 23.4343 14.5299 23.491 14.612 23.5457C14.6276 23.5558 14.6413 23.5659 14.6569 23.5761C14.7311 23.6247 14.8053 23.6733 14.8775 23.7219C14.8931 23.732 14.9068 23.7422 14.9224 23.7503C15.0044 23.8029 15.0865 23.8536 15.1685 23.9042C15.188 23.9164 15.2075 23.9285 15.227 23.9386C15.311 23.9893 15.395 24.0399 15.4809 24.0885C15.4848 24.0906 15.4867 24.0926 15.4887 24.0926C15.5727 24.1412 15.6566 24.1858 15.7406 24.2324C15.7601 24.2425 15.7796 24.2526 15.7992 24.2648C15.8831 24.3093 15.9671 24.3539 16.053 24.3964L16.0999 24.4207C16.178 24.4592 16.2541 24.4977 16.3303 24.5342C16.3459 24.5423 16.3615 24.5484 16.3771 24.5565C16.4631 24.597 16.549 24.6355 16.6349 24.6719C16.6544 24.68 16.6759 24.6902 16.6954 24.6983C16.7833 24.7347 16.8712 24.7732 16.959 24.8076C16.9629 24.8097 16.9668 24.8097 16.9688 24.8117C17.0547 24.8461 17.1426 24.8806 17.2304 24.913C17.25 24.9211 17.2714 24.9292 17.2929 24.9353C17.3808 24.9677 17.4687 24.998 17.5546 25.0284C17.5604 25.0224 17.5663 25.0242 17.5721 25.0262Z" fill="#0C2C7E"/>
<path d="M0.000352293 13.1279C0.427978 17.7544 3.08357 22.1721 7.01406 24.7488C7.48269 25.0547 7.96692 25.3342 8.4512 25.5794C11.3665 27.0499 14.5666 27.3802 17.3999 26.5638H17.396C17.314 26.5395 17.2339 26.5131 17.1539 26.4868C17.1305 26.4787 17.109 26.4706 17.0855 26.4625C17.027 26.4422 16.9684 26.422 16.9098 26.4017C16.8825 26.3916 16.8551 26.3815 16.8278 26.3734C16.7712 26.3531 16.7145 26.3329 16.6579 26.3106C16.6325 26.3025 16.6091 26.2924 16.5837 26.2822C16.5095 26.2539 16.4353 26.2255 16.3611 26.1931C16.3553 26.1911 16.3494 26.189 16.3455 26.187C16.2654 26.1546 16.1854 26.1202 16.1073 26.0857C16.0839 26.0756 16.0624 26.0655 16.0389 26.0554C15.9823 26.031 15.9257 26.0047 15.8671 25.9784C15.8398 25.9662 15.8144 25.9541 15.7871 25.9419C15.7324 25.9156 15.6757 25.8893 15.6191 25.8629C15.5957 25.8508 15.5723 25.8406 15.5469 25.8285C15.4727 25.792 15.3965 25.7556 15.3223 25.7171C15.3184 25.715 15.3165 25.713 15.3126 25.713C15.2345 25.6725 15.1564 25.632 15.0782 25.5915C15.0548 25.5793 15.0333 25.5672 15.0119 25.555C14.9572 25.5246 14.9006 25.4943 14.8459 25.4639C14.8185 25.4497 14.7932 25.4355 14.7678 25.4193C14.7131 25.3889 14.6584 25.3565 14.6057 25.3261C14.5823 25.3119 14.5588 25.2978 14.5354 25.2856C14.4612 25.2411 14.387 25.1965 14.3128 25.1499C14.3109 25.1499 14.3089 25.1479 14.307 25.1458C14.2308 25.0993 14.1547 25.0506 14.0805 25.002C14.057 24.9878 14.0356 24.9716 14.0121 24.9575C13.9594 24.923 13.9067 24.8886 13.852 24.8521C13.8266 24.8359 13.8012 24.8177 13.7739 24.7995C13.7212 24.763 13.6704 24.7265 13.6177 24.6921L13.5474 24.6435C13.4732 24.5908 13.399 24.5382 13.3267 24.4835C12.9362 24.1958 12.5535 23.8839 12.1864 23.5537C12.0029 23.3876 11.8193 23.2174 11.6417 23.0432C11.5831 22.9845 11.5226 22.9257 11.464 22.867C10.1714 21.5585 9.05055 19.9946 8.16403 18.2486C7.90238 17.7341 7.66221 17.2034 7.44936 16.6767C7.40836 16.5775 7.3693 16.4782 7.33025 16.3769C7.31853 16.3445 7.30487 16.3121 7.29315 16.2777C7.26777 16.2108 7.24238 16.142 7.217 16.0751C7.20138 16.0346 7.18966 15.9961 7.17404 15.9576C7.15061 15.8969 7.12913 15.8341 7.10766 15.7713C7.09203 15.7308 7.07837 15.6882 7.0647 15.6457C7.04517 15.5849 7.02369 15.5242 7.00417 15.4654C6.9905 15.4229 6.97683 15.3803 6.96121 15.3378C6.94168 15.277 6.92216 15.2163 6.90263 15.1555C6.88896 15.113 6.87529 15.0704 6.86358 15.0279C6.84405 14.9651 6.82648 14.9023 6.80695 14.8395C6.79524 14.799 6.78352 14.7585 6.7718 14.718C6.75228 14.6491 6.73275 14.5802 6.71322 14.5113C6.70346 14.4769 6.6937 14.4425 6.68393 14.408C6.6566 14.3088 6.63121 14.2095 6.60583 14.1103C6.60583 14.1062 6.60388 14.1022 6.60192 14.0961C6.57459 13.9928 6.5492 13.8874 6.52577 13.7841L6.50234 13.6869C6.48672 13.614 6.46915 13.5431 6.45353 13.4722C6.44571 13.4317 6.43595 13.3932 6.42814 13.3527C6.41447 13.2879 6.40081 13.223 6.38714 13.1562C6.37933 13.1137 6.36956 13.0711 6.36175 13.0306C6.35004 12.9658 6.33637 12.903 6.32465 12.8402C6.31684 12.7977 6.30903 12.7551 6.30122 12.7126C6.28951 12.6478 6.27779 12.5829 6.26803 12.5201C6.26022 12.4796 6.25436 12.4371 6.24655 12.3946C6.23483 12.3277 6.22507 12.2609 6.21531 12.192C6.20945 12.1535 6.20359 12.115 6.19773 12.0765C6.19578 12.0624 6.19383 12.0462 6.18992 12.032C4.00103 11.8031 1.87887 12.1799 0.000352293 13.1279Z" fill="#0C2C7E"/>
<path d="M22.7094 24.9293C22.7289 24.9212 22.7484 24.9151 22.7699 24.907C22.8597 24.8746 22.9476 24.8402 23.0355 24.8057C23.0355 24.8057 23.0374 24.8057 23.0394 24.8037C23.1292 24.7672 23.219 24.7308 23.3069 24.6923C23.3264 24.6842 23.3459 24.6761 23.3635 24.668C23.4514 24.6295 23.5373 24.591 23.6252 24.5505C23.6388 24.5444 23.6525 24.5384 23.6662 24.5302C23.7462 24.4938 23.8263 24.4533 23.9063 24.4148C23.92 24.4067 23.9337 24.4006 23.9473 24.3945C24.0333 24.35 24.1192 24.3054 24.2051 24.2608C24.2227 24.2507 24.2402 24.2406 24.2578 24.2325C24.4335 24.1393 24.6054 24.038 24.7792 23.9347C24.7967 23.9246 24.8143 23.9145 24.8299 23.9023C24.9139 23.8517 24.9979 23.799 25.0818 23.7443C25.0935 23.7362 25.1072 23.7281 25.1189 23.72C25.197 23.6694 25.2732 23.6187 25.3493 23.566C25.3611 23.5579 25.3747 23.5498 25.3864 23.5417C25.4685 23.485 25.5505 23.4283 25.6325 23.3696C25.6481 23.3574 25.6657 23.3453 25.6832 23.3331C25.8492 23.2136 26.0152 23.09 26.1773 22.9604C26.1929 22.9482 26.2105 22.934 26.2261 22.9219C26.3042 22.8591 26.3842 22.7943 26.4623 22.7295C26.4741 22.7193 26.4858 22.7092 26.4975 22.6991C26.5697 22.6383 26.642 22.5775 26.7123 22.5147C26.724 22.5046 26.7357 22.4945 26.7494 22.4823C26.8275 22.4155 26.9017 22.3466 26.9778 22.2778C26.9935 22.2636 27.0091 22.2494 27.0247 22.2332C27.179 22.0914 27.3313 21.9435 27.4816 21.7936L27.5285 21.745C27.6007 21.6721 27.673 21.5971 27.7452 21.5202C27.7569 21.508 27.7686 21.4938 27.7804 21.4817C27.8467 21.4128 27.9112 21.3419 27.9756 21.271C27.9873 21.2568 27.9991 21.2447 28.0127 21.2305C28.083 21.1535 28.1514 21.0745 28.2197 20.9955C28.2353 20.9773 28.2509 20.9591 28.2666 20.9408C28.3369 20.8598 28.4052 20.7788 28.4735 20.6978C28.4755 20.6957 28.4774 20.6937 28.4794 20.6897C28.5477 20.6066 28.6141 20.5236 28.6805 20.4405C28.6961 20.4202 28.7118 20.402 28.7274 20.3818C28.7918 20.2987 28.8563 20.2157 28.9207 20.1286C28.9324 20.1124 28.9441 20.0961 28.9558 20.0799C29.0125 20.003 29.0691 19.926 29.1257 19.849C29.1374 19.8328 29.1491 19.8166 29.1609 19.8004C29.2233 19.7133 29.2839 19.6262 29.3444 19.5371C29.36 19.5148 29.3737 19.4925 29.3893 19.4723C29.4499 19.3831 29.5084 19.294 29.569 19.2049C29.5729 19.1988 29.5768 19.1927 29.5807 19.1887C29.6393 19.0995 29.6978 19.0084 29.7545 18.9172C29.7681 18.895 29.7818 18.8727 29.7974 18.8484C29.854 18.7572 29.9107 18.664 29.9654 18.5709C29.9771 18.5526 29.9888 18.5324 29.9985 18.5141C30.0474 18.4311 30.0962 18.346 30.143 18.2609C30.1548 18.2407 30.1665 18.2224 30.1762 18.2022C30.229 18.107 30.2817 18.0118 30.3344 17.9145C30.3481 17.8902 30.3617 17.8659 30.3734 17.8416C30.4242 17.7464 30.475 17.6492 30.5238 17.552C30.5258 17.5479 30.5277 17.5439 30.5297 17.5398C30.5921 17.4183 30.6527 17.2947 30.7132 17.1711C30.7249 17.1468 30.7366 17.1225 30.7484 17.0982C30.7952 17.001 30.8421 16.9017 30.887 16.8025C30.9065 16.7579 30.926 16.7113 30.9475 16.6668C30.9827 16.5878 31.0178 16.5108 31.051 16.4318C31.0744 16.3751 31.0979 16.3184 31.1213 16.2596C31.1486 16.1928 31.1779 16.1259 31.2053 16.0571C31.2306 15.9922 31.256 15.9274 31.2814 15.8626C31.3048 15.8018 31.3283 15.7431 31.3517 15.6823C31.379 15.6114 31.4044 15.5405 31.4298 15.4696C31.4493 15.4149 31.4708 15.3582 31.4903 15.3035C31.5177 15.2286 31.5411 15.1536 31.5684 15.0787C31.586 15.026 31.6036 14.9754 31.6212 14.9227C31.6466 14.8457 31.6719 14.7667 31.6954 14.6877C31.711 14.6371 31.7266 14.5885 31.7422 14.5378C31.7657 14.4588 31.7891 14.3798 31.8125 14.2988C31.8262 14.2502 31.8418 14.1996 31.8555 14.1509C31.8789 14.0699 31.8984 13.9909 31.9219 13.9099C31.9355 13.8593 31.9492 13.8106 31.9609 13.76C31.9804 13.681 32 13.602 32.0195 13.521C32.0312 13.4683 32.0449 13.4177 32.0566 13.365C32.0742 13.288 32.0917 13.2111 32.1093 13.1321C32.121 13.0774 32.1328 13.0227 32.1445 12.966C32.1601 12.891 32.1757 12.8161 32.1894 12.7431C32.2011 12.6844 32.2128 12.6236 32.2245 12.5649C32.2382 12.494 32.2499 12.4251 32.2636 12.3542C32.2753 12.2894 32.287 12.2246 32.2968 12.1577C32.3085 12.0929 32.3183 12.0281 32.328 11.9633C32.3397 11.8903 32.3495 11.8174 32.3612 11.7445C32.369 11.6878 32.3768 11.629 32.3846 11.5723C32.3983 11.467 32.412 11.3596 32.4256 11.2523V11.2482C32.4803 10.7783 32.5155 10.2982 32.533 9.82622C32.6111 7.58589 32.2616 5.40834 31.5196 3.48993C29.4831 3.74921 27.4836 4.64253 25.6831 6.09891C25.6929 6.12727 25.7027 6.15765 25.7124 6.18804C25.7124 6.19007 25.7124 6.19007 25.7144 6.19209C25.728 6.2326 25.7417 6.27515 25.7554 6.31768C25.8062 6.47366 25.855 6.63368 25.9018 6.79776C25.9643 7.01247 26.0268 7.23934 26.0873 7.4723C26.1049 7.54117 26.1205 7.60397 26.1361 7.66879C26.1518 7.73766 26.1713 7.80856 26.1869 7.87945C26.1986 7.92604 26.2103 7.97669 26.2221 8.02733L26.2338 8.07999C26.2338 8.08404 26.2357 8.09012 26.2377 8.0962V8.10025L26.2845 8.31902C26.3314 8.53779 26.3724 8.7606 26.4115 8.97935C26.4388 9.12925 26.4622 9.27914 26.4857 9.425C26.4974 9.49792 26.5091 9.57489 26.5189 9.64984C26.5306 9.72479 26.5403 9.80176 26.5501 9.87874C26.5501 9.88481 26.5521 9.89089 26.5521 9.89899C26.5599 9.96786 26.5696 10.0347 26.5774 10.1016C26.5892 10.1907 26.597 10.2798 26.6087 10.3689C26.6165 10.4338 26.6224 10.5006 26.6282 10.5674C26.6477 10.766 26.6653 10.9665 26.679 11.167C26.6829 11.2237 26.6868 11.2845 26.6907 11.3473V11.3635V11.3696V11.3736C26.6926 11.402 26.6946 11.4283 26.6946 11.4567C26.6966 11.4891 26.6985 11.5215 26.7005 11.5539C26.7044 11.6309 26.7083 11.7038 26.7122 11.7808C26.7141 11.8193 26.7161 11.8577 26.7161 11.8962C26.7161 11.9084 26.7161 11.9226 26.718 11.9347C26.718 11.9671 26.72 11.9995 26.7219 12.032C26.7239 12.0725 26.7239 12.1109 26.7258 12.1494C26.7258 12.192 26.7278 12.2345 26.7278 12.2771C26.7278 12.3014 26.7278 12.3257 26.7297 12.35V12.3662V12.3945C26.7317 12.4837 26.7317 12.5748 26.7317 12.666C26.7317 13.3749 26.6966 14.0839 26.6302 14.7746C26.3841 17.2783 25.6832 19.7131 24.6033 21.8115C24.5682 21.8804 24.5311 21.9513 24.494 22.0202C24.4823 22.0424 24.4706 22.0647 24.4569 22.089C24.4315 22.1356 24.4061 22.1822 24.3827 22.2268C24.3671 22.2531 24.3534 22.2794 24.3397 22.3058C24.3163 22.3483 24.2929 22.3908 24.2694 22.4314C24.2538 22.4597 24.2382 22.486 24.2226 22.5124C24.1991 22.5529 24.1757 22.5934 24.1523 22.6339C24.1367 22.6603 24.121 22.6866 24.1054 22.7149C24.082 22.7555 24.0566 22.798 24.0312 22.8385C24.0156 22.8628 24 22.8891 23.9843 22.9155C23.957 22.96 23.9297 23.0046 23.9023 23.0492C23.8887 23.0694 23.877 23.0917 23.8633 23.112C23.8223 23.1768 23.7813 23.2416 23.7383 23.3064C23.7383 23.3064 23.7383 23.3085 23.7364 23.3085C23.6954 23.3712 23.6544 23.434 23.6114 23.4968C23.5977 23.5171 23.5841 23.5373 23.5704 23.5576C23.5411 23.6001 23.5118 23.6427 23.4825 23.6852C23.4669 23.7095 23.4493 23.7338 23.4318 23.7561C23.4044 23.7946 23.3771 23.8331 23.3497 23.8716C23.3322 23.8959 23.3146 23.9202 23.297 23.9445C23.2697 23.981 23.2423 24.0194 23.215 24.0559C23.1974 24.0802 23.1799 24.1045 23.1603 24.1288C23.133 24.1653 23.1037 24.2038 23.0764 24.2402C23.0588 24.2625 23.0412 24.2868 23.0237 24.3091L22.9299 24.4306C22.9143 24.4509 22.9006 24.4691 22.885 24.4874C22.8382 24.5461 22.7913 24.6048 22.7444 24.6616C22.7425 24.6636 22.7405 24.6656 22.7386 24.6697C22.6937 24.7244 22.6487 24.7791 22.6019 24.8337C22.5863 24.852 22.5706 24.8702 22.5531 24.8905C22.5218 24.9269 22.4886 24.9654 22.4554 25.0039C22.4496 25.01 22.4437 25.0181 22.4379 25.0242C22.4418 25.0221 22.4476 25.0201 22.4535 25.0201C22.5335 24.9917 22.6215 24.9597 22.7094 24.9293Z" fill="#0C2C7E"/>
<path d="M17.7437 22.8265L17.8609 22.9967C17.896 23.0453 17.9312 23.0898 17.9644 23.1385C18.0034 23.1911 18.0425 23.2458 18.0815 23.2965C18.1167 23.343 18.1538 23.3896 18.1909 23.4362C18.2299 23.4869 18.269 23.5375 18.31 23.5902C18.3471 23.6368 18.3842 23.6813 18.4213 23.7279C18.4623 23.7765 18.5033 23.8272 18.5443 23.8758C18.5834 23.9203 18.6205 23.9649 18.6595 24.0095C18.7005 24.0581 18.7435 24.1047 18.7845 24.1513C18.8235 24.1958 18.8626 24.2363 18.9016 24.2809C18.9446 24.3275 18.9876 24.3741 19.0305 24.4187C19.0696 24.4612 19.1106 24.5017 19.1516 24.5442C19.1945 24.5888 19.2395 24.6334 19.2844 24.6779C19.3254 24.7184 19.3664 24.759 19.4074 24.7974C19.4523 24.842 19.4972 24.8846 19.5441 24.9271C19.5851 24.9656 19.6261 25.0041 19.669 25.0425C19.7159 25.0851 19.7628 25.1276 19.8096 25.1681C19.8526 25.2046 19.8936 25.2411 19.9365 25.2775C19.958 25.2958 19.9795 25.314 20.0029 25.3342C20.0244 25.316 20.0478 25.2978 20.0693 25.2775C20.1123 25.2411 20.1533 25.2046 20.1962 25.1681C20.2431 25.1276 20.29 25.0851 20.3368 25.0425C20.3798 25.0041 20.4208 24.9656 20.4618 24.9271C20.5067 24.8846 20.5516 24.842 20.5985 24.7974C20.6395 24.7569 20.6805 24.7185 20.7215 24.6779C20.7664 24.6334 20.8094 24.5888 20.8543 24.5442C20.8933 24.5037 20.9343 24.4612 20.9753 24.4187C21.0183 24.3741 21.0613 24.3255 21.1042 24.2809C21.1433 24.2384 21.1823 24.1958 21.2214 24.1513C21.2643 24.1047 21.3053 24.0561 21.3463 24.0095C21.3854 23.9649 21.4244 23.9203 21.4615 23.8758C21.5025 23.8272 21.5435 23.7786 21.5846 23.7279C21.6217 23.6834 21.6588 23.6368 21.6959 23.5922C21.7369 23.5416 21.7759 23.4909 21.8169 23.4382C21.8521 23.3917 21.8892 23.3451 21.9243 23.2985C21.9634 23.2458 22.0024 23.1911 22.0434 23.1385C22.0786 23.0919 22.1118 23.0453 22.145 22.9987C22.186 22.942 22.225 22.8853 22.266 22.8265C22.2973 22.7819 22.3305 22.7354 22.3617 22.6888C22.4086 22.6199 22.4515 22.551 22.4964 22.4842C22.5355 22.4234 22.5745 22.3647 22.6136 22.3039C22.6663 22.2208 22.7171 22.1378 22.7698 22.0547C22.7991 22.0082 22.8264 21.9595 22.8538 21.9109C22.8909 21.8481 22.928 21.7874 22.9631 21.7246C22.9924 21.6719 23.0217 21.6213 23.049 21.5686C23.0822 21.5078 23.1154 21.4471 23.1506 21.3863C23.1798 21.3336 23.2072 21.2769 23.2365 21.2242C23.2677 21.1635 23.299 21.1027 23.3302 21.0419C23.3575 20.9872 23.3849 20.9305 23.4122 20.8758C23.4435 20.8151 23.4727 20.7543 23.502 20.6935C23.5294 20.6368 23.5567 20.5801 23.5821 20.5234C23.6114 20.4626 23.6407 20.3998 23.668 20.337C23.6934 20.2803 23.7188 20.2216 23.7442 20.1628C23.7715 20.1 23.7988 20.0372 23.8262 19.9724C23.8516 19.9137 23.875 19.8549 23.8984 19.7962C23.9258 19.7314 23.9511 19.6686 23.9765 19.6037C24 19.545 24.0234 19.4842 24.0468 19.4255C24.0722 19.3607 24.0976 19.2958 24.121 19.229C24.1425 19.1682 24.164 19.1095 24.1874 19.0487C24.2108 18.9819 24.2343 18.915 24.2577 18.8502C24.2792 18.7894 24.2987 18.7287 24.3202 18.6679C24.3436 18.6011 24.3651 18.5322 24.3866 18.4653C24.4061 18.4046 24.4256 18.3438 24.4451 18.283C24.4666 18.2142 24.4862 18.1453 24.5076 18.0764C24.5252 18.0157 24.5428 17.9549 24.5604 17.8921C24.5799 17.8232 24.5994 17.7523 24.6189 17.6814C24.6346 17.6207 24.6521 17.5579 24.6678 17.4971C24.6873 17.4262 24.7029 17.3533 24.7224 17.2824C24.738 17.2216 24.7537 17.1608 24.7673 17.098C24.7849 17.0251 24.8005 16.9522 24.8181 16.8773C24.8318 16.8165 24.8454 16.7557 24.8572 16.6949C24.8728 16.62 24.8884 16.543 24.904 16.4681C24.9157 16.4073 24.9274 16.3486 24.9392 16.2878C24.9548 16.2088 24.9665 16.1298 24.9821 16.0528C24.9919 15.9941 25.0036 15.9374 25.0134 15.8786C25.027 15.7956 25.0407 15.7125 25.0524 15.6274C25.0602 15.5727 25.07 15.5181 25.0778 15.4634C25.0915 15.3702 25.1032 15.277 25.1149 15.1818C25.1208 15.1372 25.1266 15.0906 25.1325 15.0441C25.15 14.9043 25.1637 14.7645 25.1793 14.6227C25.2418 13.9826 25.275 13.3243 25.275 12.668C25.275 12.5829 25.275 12.4979 25.2731 12.4148V12.4067V12.3824C25.2731 12.3196 25.2711 12.2548 25.2692 12.192V12.1839C25.2692 12.1515 25.2672 12.117 25.2653 12.0846V12.0785C25.2653 12.038 25.2633 11.9955 25.2613 11.953V11.9347C25.2613 11.9104 25.2594 11.8861 25.2594 11.8618V11.8517C25.2555 11.7788 25.2516 11.7058 25.2496 11.6329C25.2457 11.5762 25.2438 11.5195 25.2399 11.4607V11.4445V11.4405C25.236 11.3878 25.2321 11.3351 25.2282 11.2805C25.2164 11.0921 25.2008 10.9057 25.1813 10.7234V10.7153C25.1774 10.6586 25.1696 10.5998 25.1637 10.5431C25.154 10.4581 25.1442 10.375 25.1364 10.292C25.1286 10.2251 25.1188 10.1562 25.111 10.0853C25.111 10.0772 25.109 10.0712 25.109 10.0631C25.1012 10.0023 25.0934 9.9395 25.0837 9.87873C25.0739 9.80783 25.0641 9.73693 25.0524 9.66806C25.0309 9.53234 25.0095 9.39257 24.9841 9.25281C24.9489 9.05025 24.9099 8.84565 24.8669 8.64308C24.8532 8.58029 24.8396 8.51547 24.8259 8.45267C24.824 8.44254 24.8201 8.43039 24.8181 8.41621L24.8103 8.37975C24.8005 8.33519 24.7908 8.29062 24.779 8.24808C24.7634 8.17719 24.7459 8.11034 24.7302 8.04349C24.7146 7.98272 24.7009 7.92601 24.6873 7.86929C24.6326 7.65457 24.574 7.44593 24.5154 7.24541C24.4608 7.055 24.4022 6.86864 24.3436 6.69039C24.3436 6.68837 24.3436 6.68634 24.3417 6.68432C24.3241 6.62759 24.3046 6.57291 24.287 6.52024C24.2635 6.45137 24.2401 6.38452 24.2167 6.31565C24.1933 6.25083 24.1718 6.18804 24.1483 6.12524C23.2228 3.6013 21.8013 1.49465 20.0186 0C18.2358 1.49491 16.8143 3.60156 15.8888 6.12731C15.877 6.16175 15.8653 6.19618 15.8517 6.23062C15.8399 6.26506 15.8263 6.29949 15.8146 6.33393C15.8126 6.33798 15.8106 6.34203 15.8106 6.34608C15.7872 6.4109 15.7657 6.47572 15.7443 6.54054V6.54257C15.7189 6.61549 15.6935 6.69246 15.6701 6.77147C15.6701 6.77349 15.6681 6.77552 15.6681 6.77957C15.6486 6.84236 15.6291 6.90516 15.6095 6.96795C15.5783 7.06518 15.5509 7.15836 15.5236 7.25154C15.5236 7.25357 15.5217 7.25559 15.5217 7.25762C15.4963 7.34675 15.4709 7.43992 15.4436 7.5331C15.4182 7.62426 15.3928 7.71541 15.3693 7.80859C15.3674 7.81669 15.3654 7.8248 15.3635 7.8329C15.3401 7.92203 15.3186 8.00912 15.2971 8.09826C15.2952 8.10231 15.2952 8.10838 15.2932 8.11446C15.2912 8.12054 15.2912 8.12661 15.2893 8.13066C15.2717 8.20358 15.2541 8.27651 15.2385 8.35146V8.35551L15.2229 8.42438C15.2034 8.50945 15.1878 8.58846 15.1702 8.66948C15.1702 8.67151 15.1702 8.67353 15.1682 8.67758C15.1682 8.68366 15.1663 8.68974 15.1643 8.69784C15.1448 8.78494 15.1272 8.8761 15.1096 8.96725C15.1077 8.97738 15.1057 8.98548 15.1038 8.99561C15.1038 8.99966 15.1018 9.00574 15.0999 9.01181C15.0823 9.10297 15.0647 9.19412 15.0491 9.2873C14.8578 10.3892 14.7601 11.5276 14.7601 12.6721C14.7601 13.3284 14.7914 13.9868 14.8558 14.6268C14.8695 14.7686 14.8851 14.9084 14.9027 15.0481C14.9085 15.0947 14.9144 15.1393 14.9202 15.1859C14.932 15.2791 14.9437 15.3722 14.9573 15.4654C14.9652 15.5201 14.9749 15.5768 14.9827 15.6315C14.9944 15.7146 15.0081 15.7976 15.0218 15.8807C15.0315 15.9394 15.0413 15.9982 15.053 16.0569C15.0667 16.1359 15.0804 16.2149 15.096 16.2919C15.1077 16.3526 15.1194 16.4134 15.1311 16.4742C15.1468 16.5491 15.1604 16.6241 15.178 16.701C15.1917 16.7618 15.2053 16.8226 15.219 16.8854C15.2346 16.9583 15.2522 17.0312 15.2698 17.1042C15.2854 17.1649 15.2991 17.2277 15.3147 17.2885C15.3323 17.3614 15.3498 17.4323 15.3694 17.5032C15.385 17.564 15.4025 17.6268 15.4182 17.6896C15.4377 17.7605 15.4572 17.8293 15.4768 17.9002C15.4943 17.961 15.5119 18.0238 15.5314 18.0866C15.551 18.1555 15.5724 18.2243 15.5939 18.2912C15.6134 18.3519 15.633 18.4147 15.6525 18.4755C15.674 18.5424 15.6954 18.6092 15.7189 18.6781C15.7384 18.7388 15.7599 18.7996 15.7814 18.8604C15.8048 18.9272 15.8282 18.992 15.8517 19.0589C15.8731 19.1196 15.8946 19.1804 15.918 19.2412C15.9415 19.306 15.9669 19.3708 15.9922 19.4356C16.0157 19.4964 16.0391 19.5572 16.0625 19.6159C16.0879 19.6807 16.1133 19.7435 16.1406 19.8063C16.1641 19.8651 16.1895 19.9259 16.2148 19.9846C16.2422 20.0474 16.2695 20.1102 16.2969 20.171C16.3222 20.2297 16.3476 20.2884 16.375 20.3452C16.4023 20.4059 16.4316 20.4687 16.4609 20.5295C16.4882 20.5862 16.5136 20.645 16.5409 20.7017C16.5702 20.7624 16.5995 20.8232 16.6308 20.884C16.6581 20.9407 16.6854 20.9974 16.7147 21.0521C16.746 21.1129 16.7772 21.1716 16.8084 21.2324C16.8377 21.2871 16.8651 21.3418 16.8944 21.3965C16.9276 21.4572 16.9608 21.516 16.9939 21.5767C17.0232 21.6294 17.0525 21.6821 17.0818 21.7347C17.117 21.7955 17.1541 21.8583 17.1912 21.9191C17.2205 21.9677 17.2478 22.0163 17.2771 22.0649C17.3259 22.146 17.3747 22.2249 17.4255 22.304C17.4665 22.3688 17.5094 22.4336 17.5505 22.4984C17.5934 22.5653 17.6383 22.6321 17.6832 22.6969C17.6774 22.7354 17.7105 22.7799 17.7437 22.8265Z" fill="#0C2C7E"/>
<path d="M32.9863 24.7488C36.9188 22.1722 39.5726 17.7545 40 13.13C38.1215 12.182 35.9971 11.8052 33.8025 12.0321C33.8025 12.0381 33.8006 12.0442 33.7986 12.0503C33.7889 12.1131 33.7791 12.1759 33.7694 12.2407C33.7576 12.3197 33.7459 12.3967 33.7323 12.4757C33.7225 12.5304 33.7127 12.5851 33.703 12.6377C33.6873 12.7228 33.6717 12.8099 33.6561 12.895C33.6463 12.9456 33.6366 12.9942 33.6268 13.0449C33.6092 13.134 33.5917 13.2252 33.5721 13.3143C33.5624 13.3629 33.5526 13.4095 33.5409 13.4561C33.5214 13.5472 33.4999 13.6384 33.4784 13.7295C33.4667 13.7761 33.455 13.8227 33.4452 13.8693C33.4237 13.9605 33.4003 14.0516 33.3769 14.1428C33.3652 14.1893 33.3534 14.2359 33.3398 14.2805C33.3163 14.3696 33.291 14.4608 33.2656 14.5519C33.2519 14.5985 33.2382 14.6451 33.2265 14.6917C33.2011 14.7808 33.1758 14.87 33.1484 14.9571C33.1328 15.0057 33.1191 15.0523 33.1055 15.0989C33.0781 15.186 33.0508 15.271 33.0234 15.3581C33.0078 15.4067 32.9922 15.4554 32.9746 15.504C32.9473 15.5891 32.918 15.6721 32.8887 15.7552C32.8711 15.8058 32.8536 15.8564 32.836 15.9071C32.8067 15.9881 32.7774 16.0691 32.7462 16.1502C32.7266 16.2028 32.7071 16.2555 32.6876 16.3082C32.6583 16.3851 32.6271 16.4641 32.5958 16.5431C32.5743 16.5978 32.5529 16.6525 32.5314 16.7052C32.5001 16.7801 32.4689 16.8551 32.4377 16.93C32.4142 16.9867 32.3908 17.0414 32.3674 17.0981C32.3361 17.1711 32.3049 17.242 32.2717 17.3129C32.2463 17.3696 32.2209 17.4283 32.1936 17.4871C32.1623 17.5559 32.1291 17.6268 32.0959 17.6957C32.0686 17.7544 32.0413 17.8132 32.0139 17.8719C31.9788 17.9448 31.9417 18.0198 31.9046 18.0927C31.8792 18.1454 31.8538 18.196 31.8284 18.2467C30.8189 20.2378 29.5029 21.9921 27.9759 23.3999C27.5561 23.7888 27.1187 24.1493 26.6677 24.4815C26.6638 24.4836 26.6598 24.4876 26.6559 24.4896C26.5876 24.5403 26.5173 24.5909 26.449 24.6395C26.4255 24.6557 26.4001 24.674 26.3748 24.6922C26.324 24.7287 26.2732 24.7631 26.2225 24.7975C26.1951 24.8158 26.1678 24.834 26.1404 24.8522C26.0897 24.8867 26.037 24.9211 25.9862 24.9535C25.9628 24.9697 25.9374 24.9859 25.9139 25.0001C25.8397 25.0487 25.7655 25.0953 25.6894 25.1419C25.6855 25.1459 25.6796 25.148 25.6738 25.15C25.6035 25.1946 25.5312 25.2371 25.4609 25.2796C25.4375 25.2938 25.4121 25.308 25.3867 25.3242C25.334 25.3546 25.2813 25.385 25.2286 25.4153C25.2012 25.4316 25.1739 25.4457 25.1466 25.4619C25.0919 25.4923 25.0392 25.5227 24.9845 25.5511C24.9611 25.5632 24.9376 25.5774 24.9142 25.5896C24.8361 25.6301 24.7599 25.6706 24.6818 25.7111C24.676 25.7151 24.6701 25.7172 24.6623 25.7212C24.592 25.7577 24.5198 25.7941 24.4475 25.8286C24.4221 25.8407 24.3968 25.8529 24.3714 25.865C24.3167 25.8914 24.262 25.9177 24.2074 25.942C24.18 25.9542 24.1527 25.9663 24.1253 25.9785C24.0687 26.0028 24.014 26.0291 23.9574 26.0534C23.934 26.0635 23.9106 26.0737 23.8871 26.0838C23.809 26.1182 23.729 26.1507 23.6489 26.1831C23.6411 26.1871 23.6333 26.1891 23.6255 26.1912C23.5532 26.2195 23.481 26.2479 23.4087 26.2762C23.3833 26.2864 23.358 26.2945 23.3345 26.3046C23.2779 26.3249 23.2213 26.3471 23.1666 26.3674C23.1393 26.3775 23.1119 26.3877 23.0865 26.3958C23.028 26.416 22.9694 26.4363 22.9089 26.4565C22.8874 26.4646 22.8659 26.4727 22.8425 26.4788C22.7605 26.5051 22.6804 26.5315 22.5984 26.5558H22.5945C25.9178 27.52 29.7136 26.892 32.9863 24.7488Z" fill="#0C2C7E"/>
</svg>
