<svg width="40" height="27" viewBox="0 0 40 27" fill="none" xmlns="http://www.w3.org/2000/svg">
<path d="M39.6057 12.2044C37.6223 11.1364 35.3628 10.6701 33.02 10.8365C33.0295 10.6846 33.038 10.5331 33.0435 10.3827C33.1312 8.00204 32.6977 5.68414 31.7889 3.67959C31.6596 3.39365 31.3639 3.2188 31.0496 3.24121C28.8622 3.39714 26.7119 4.21111 24.7771 5.60743C23.7491 3.34433 22.2644 1.4688 20.4439 0.144215C20.1792 -0.0480715 19.8203 -0.0480715 19.5557 0.144215C17.7347 1.4688 16.2495 3.34533 15.222 5.60892C13.9263 4.67738 12.5053 3.98894 11.0637 3.60138C10.978 3.57797 10.8998 3.55804 10.8286 3.5406C10.2517 3.39664 9.66073 3.2995 9.07178 3.25118C9.03168 3.24719 8.99158 3.24371 8.95098 3.24121C8.6357 3.2183 8.33997 3.39315 8.21065 3.67959C7.23424 5.83359 6.8137 8.29097 6.97861 10.836C4.63632 10.6701 2.37673 11.1369 0.393833 12.2039C0.136698 12.3424 -0.0161797 12.6159 0.00136361 12.9058C0.140207 15.1908 0.861489 17.4858 2.08702 19.5417C3.34713 21.6558 5.1155 23.4656 7.20066 24.7748C7.67934 25.0751 8.17456 25.3491 8.67179 25.5887C10.582 26.5128 12.6566 27 14.6766 27C14.6907 27 14.7047 27 14.7187 27C16.5808 26.994 18.3978 26.5741 20.0008 25.7845C21.6228 26.5845 23.4443 27 25.328 27C25.565 27 25.8031 26.9935 26.0412 26.9801C28.37 26.8515 30.7067 26.0889 32.7994 24.7748C34.8846 23.4656 36.6529 21.6563 37.9131 19.5417C39.1386 17.4853 39.8599 15.1908 39.9987 12.9058C40.0158 12.6164 39.8629 12.3424 39.6057 12.2044ZM30.6276 4.78498C31.2982 6.46524 31.6135 8.36967 31.5413 10.3284C31.5263 10.7444 31.4932 11.1683 31.4436 11.5837L31.4431 11.5877C31.4315 11.6824 31.419 11.777 31.4055 11.8717C31.3985 11.922 31.3914 11.9718 31.3839 12.0216C31.3744 12.0869 31.3639 12.1526 31.3533 12.2179C31.3443 12.2737 31.3353 12.3295 31.3258 12.3853C31.3158 12.4445 31.3047 12.5038 31.2937 12.5631C31.2827 12.6234 31.2711 12.6842 31.2596 12.7444C31.2491 12.7987 31.2376 12.8535 31.2265 12.9078C31.213 12.9721 31.2 13.0363 31.1859 13.1001C31.1749 13.1509 31.1629 13.2012 31.1513 13.252C31.1358 13.3188 31.1203 13.3855 31.1042 13.4523C31.0927 13.5001 31.0802 13.5479 31.0681 13.5958C31.0506 13.664 31.0336 13.7323 31.015 13.8005C31.0025 13.8468 30.9894 13.8932 30.9764 13.9395C30.9574 14.0082 30.9378 14.077 30.9178 14.1457C30.9042 14.1916 30.8902 14.2369 30.8767 14.2822C30.8556 14.351 30.8351 14.4192 30.8135 14.488C30.799 14.5338 30.7834 14.5796 30.7684 14.6254C30.7463 14.6927 30.7243 14.7604 30.7012 14.8272C30.6852 14.8745 30.6681 14.9213 30.6516 14.9682C30.6286 15.0334 30.6055 15.0992 30.5814 15.1639C30.5634 15.2133 30.5443 15.2626 30.5253 15.3119C30.5017 15.3742 30.4782 15.4364 30.4536 15.4987C30.4326 15.5515 30.411 15.6043 30.3895 15.6571C30.3659 15.7149 30.3428 15.7732 30.3183 15.831C30.2937 15.8893 30.2682 15.947 30.2431 16.0048C30.2205 16.0571 30.198 16.1094 30.1749 16.1612C30.1459 16.2265 30.1153 16.2918 30.0852 16.357C30.0647 16.4014 30.0451 16.4457 30.0241 16.4895C29.9865 16.5687 29.9474 16.6474 29.9088 16.7266C29.8942 16.7565 29.8802 16.7864 29.8652 16.8158C29.8105 16.9249 29.7549 17.033 29.6973 17.1411C29.6968 17.1421 29.6962 17.1431 29.6957 17.1441C29.6496 17.2308 29.603 17.3165 29.5554 17.4021C29.5439 17.4231 29.5323 17.4435 29.5208 17.4644C29.4732 17.5491 29.4251 17.6338 29.3765 17.7175C29.3699 17.7284 29.3639 17.7389 29.3574 17.7493C29.3123 17.8256 29.2672 17.9013 29.2211 17.9765C29.2095 17.9949 29.1985 18.0134 29.187 18.0318C29.1364 18.114 29.0852 18.1952 29.0331 18.2759C29.0236 18.2903 29.0141 18.3048 29.005 18.3192C28.9579 18.3915 28.9108 18.4632 28.8627 18.5349C28.8532 18.5494 28.8436 18.5638 28.8336 18.5783C28.7795 18.658 28.7253 18.7367 28.6702 18.8149C28.6592 18.8308 28.6477 18.8468 28.6361 18.8627C28.5845 18.9354 28.5324 19.0077 28.4792 19.0789C28.4732 19.0869 28.4672 19.0953 28.4612 19.1033C28.4036 19.181 28.3454 19.2577 28.2863 19.334C28.2742 19.3494 28.2622 19.3648 28.2502 19.3803C28.1304 19.5337 28.0086 19.6847 27.8838 19.8321C27.8717 19.8466 27.8597 19.861 27.8472 19.875C27.7845 19.9482 27.7219 20.0214 27.6582 20.0931C27.6547 20.0971 27.6507 20.1011 27.6472 20.1051C27.586 20.1738 27.5244 20.2421 27.4622 20.3093C27.4512 20.3213 27.4402 20.3333 27.4286 20.3457C27.3635 20.4154 27.2983 20.4847 27.2322 20.5529C27.2241 20.5609 27.2166 20.5689 27.2086 20.5768C27.1464 20.6406 27.0843 20.7039 27.0211 20.7661C27.0121 20.7751 27.0036 20.7836 26.9946 20.7925C26.9269 20.8593 26.8587 20.9251 26.7901 20.9898C26.7795 20.9998 26.7695 21.0092 26.759 21.0192C26.6928 21.0815 26.6262 21.1427 26.559 21.2035C26.5545 21.2075 26.5505 21.2115 26.546 21.2155C26.4753 21.2787 26.4041 21.3415 26.3329 21.4033C26.3209 21.4132 26.3094 21.4237 26.2973 21.4337C26.154 21.5567 26.0081 21.6763 25.8613 21.7918C25.8487 21.8013 25.8367 21.8113 25.8242 21.8207C25.75 21.8785 25.6758 21.9353 25.6006 21.9911C25.5991 21.9921 25.5971 21.9936 25.5956 21.9946C25.5224 22.0489 25.4488 22.1022 25.3751 22.155C25.363 22.1635 25.3515 22.1719 25.3395 22.1804C25.2643 22.2332 25.1891 22.2855 25.1134 22.3368C25.1054 22.3423 25.0969 22.3478 25.0889 22.3533C25.0182 22.4006 24.947 22.4474 24.8758 22.4932C24.8653 22.5002 24.8548 22.5067 24.8443 22.5137C24.7681 22.562 24.6919 22.6098 24.6147 22.6561C24.6022 22.6636 24.5901 22.6711 24.5776 22.6785C24.5054 22.7219 24.4332 22.7647 24.3601 22.8066C24.353 22.8106 24.3455 22.815 24.3385 22.819C24.2613 22.8634 24.1836 22.9062 24.1054 22.9485C24.0904 22.9565 24.0754 22.965 24.0598 22.9729C23.9821 23.0148 23.9039 23.0556 23.8252 23.0955C23.8247 23.096 23.8242 23.096 23.8232 23.0965C23.7445 23.1363 23.6653 23.1747 23.5861 23.2126C23.5691 23.2205 23.5521 23.2285 23.535 23.237C23.4568 23.2738 23.3781 23.3102 23.2989 23.3451C23.2924 23.3481 23.2854 23.351 23.2789 23.354C23.2057 23.3864 23.132 23.4178 23.0588 23.4482C23.0408 23.4557 23.0228 23.4631 23.0047 23.4706C22.927 23.5025 22.8493 23.5334 22.7711 23.5633C22.7561 23.5687 22.7416 23.5742 22.7265 23.5797C22.6589 23.6051 22.5907 23.63 22.5225 23.6544C22.511 23.6584 22.4995 23.6629 22.4874 23.6669C22.5035 23.6484 22.5195 23.629 22.5356 23.6101C22.5812 23.5573 22.6258 23.504 22.6709 23.4507C22.709 23.4053 22.7471 23.3595 22.7847 23.3137C22.8298 23.2584 22.8739 23.2026 22.918 23.1468C22.9546 23.101 22.9907 23.0551 23.0268 23.0083C23.0709 22.9505 23.1145 22.8923 23.1581 22.834C23.1927 22.7876 23.2278 22.7413 23.2618 22.694C23.3055 22.6337 23.3486 22.5724 23.3917 22.5112C23.4242 22.4643 23.4573 22.4185 23.4899 22.3712C23.5335 22.3079 23.5756 22.2437 23.6182 22.1794C23.6488 22.1331 23.6799 22.0872 23.71 22.0409C23.7536 21.9732 23.7962 21.9044 23.8393 21.8357C23.8668 21.7913 23.8949 21.7475 23.922 21.7027C23.9686 21.626 24.0142 21.5477 24.0598 21.47C24.0819 21.4322 24.1044 21.3953 24.126 21.3574C24.1926 21.2409 24.2578 21.1233 24.3215 21.0048C25.327 19.1312 25.9796 16.9608 26.2086 14.7286C26.2718 14.1119 26.3044 13.4797 26.3044 12.8485C26.3044 12.7678 26.3039 12.6876 26.3029 12.6074C26.3029 12.5945 26.3029 12.582 26.3024 12.5691C26.3019 12.5098 26.3004 12.45 26.2989 12.3907C26.2983 12.3554 26.2968 12.3195 26.2958 12.2841C26.2948 12.2473 26.2938 12.2094 26.2923 12.1726C26.2923 12.1696 26.2923 12.1661 26.2918 12.1631C26.2913 12.1282 26.2898 12.0938 26.2878 12.059C26.2848 11.9932 26.2818 11.928 26.2783 11.8622C26.2783 11.8617 26.2783 11.8612 26.2783 11.8602C26.2783 11.8592 26.2783 11.8582 26.2783 11.8572C26.2763 11.8214 26.2743 11.786 26.2723 11.7501C26.2713 11.7332 26.2703 11.7162 26.2693 11.6988C26.2693 11.6968 26.2693 11.6948 26.2688 11.6928C26.2688 11.6869 26.2683 11.6804 26.2678 11.6744L26.2668 11.6624C26.2633 11.6121 26.2603 11.5623 26.2562 11.512C26.2452 11.3556 26.2312 11.1972 26.2156 11.0398C26.2136 11.0198 26.2121 11.0004 26.2101 10.9805C26.2096 10.9735 26.2086 10.9665 26.2081 10.9596C26.2031 10.9073 26.1971 10.8544 26.1916 10.8036C26.1826 10.7249 26.1735 10.6457 26.1635 10.565C26.156 10.5052 26.148 10.445 26.14 10.3852C26.1395 10.3787 26.1385 10.3727 26.1375 10.3663C26.1284 10.2975 26.1184 10.2293 26.1084 10.162C26.0984 10.0953 26.0883 10.0285 26.0773 9.96226C26.0563 9.83175 26.0332 9.69874 26.0091 9.56474C25.9735 9.36996 25.9335 9.1717 25.8908 8.97493C25.8763 8.90967 25.8623 8.84491 25.8472 8.78065C25.8472 8.78015 25.8472 8.78015 25.8472 8.77965C25.8462 8.77417 25.8447 8.76869 25.8437 8.76321L25.8317 8.7129C25.8217 8.66956 25.8111 8.62622 25.8011 8.58637C25.7856 8.5231 25.7695 8.45984 25.754 8.39857C25.7395 8.34028 25.7244 8.283 25.7084 8.22322C25.6668 8.0673 25.6237 7.91436 25.5801 7.76741C25.5655 7.71809 25.551 7.66977 25.5365 7.62245C25.4808 7.43863 25.4222 7.2573 25.362 7.08345C25.3615 7.08195 25.361 7.07996 25.36 7.07847C25.357 7.069 25.3535 7.05954 25.3505 7.05057C26.9825 5.79473 28.7885 5.02011 30.6276 4.78498ZM20.0003 1.69197C21.6208 3.00908 22.914 4.85472 23.7586 7.06302L23.7636 7.07598C23.7831 7.12679 23.8022 7.1781 23.8217 7.2309C23.8438 7.29068 23.8658 7.35096 23.8869 7.41123C23.8954 7.43514 23.9034 7.45955 23.912 7.48396C23.9205 7.50837 23.929 7.53179 23.937 7.55669C23.9375 7.55868 23.938 7.56018 23.939 7.56217C23.9932 7.71959 24.0463 7.88398 24.0979 8.05335C24.152 8.2292 24.2052 8.41501 24.2553 8.60331C24.2688 8.65412 24.2824 8.70493 24.2959 8.75873C24.3109 8.81801 24.326 8.87679 24.341 8.93956C24.35 8.97642 24.3591 9.01378 24.3676 9.05114L24.3761 9.08751C24.3791 9.10096 24.3816 9.11291 24.3841 9.12288C24.3881 9.13981 24.3916 9.15725 24.3956 9.17419C24.4042 9.21304 24.4132 9.2514 24.4217 9.28976C24.4608 9.46959 24.4974 9.65191 24.53 9.82925C24.552 9.9518 24.5736 10.0753 24.5926 10.1964C24.6027 10.2577 24.6117 10.3199 24.6212 10.3827C24.6292 10.4365 24.6372 10.4898 24.6443 10.5441C24.6448 10.5506 24.6458 10.5571 24.6468 10.5635L24.6488 10.58C24.6563 10.6363 24.6638 10.6925 24.6708 10.7459C24.6799 10.8186 24.6884 10.8928 24.6969 10.969C24.7024 11.0193 24.7084 11.0696 24.7129 11.12C24.7129 11.123 24.7134 11.1254 24.7139 11.1284C24.731 11.2908 24.745 11.4547 24.7565 11.6161C24.7565 11.6181 24.7565 11.6196 24.757 11.6216C24.7606 11.6674 24.7636 11.7128 24.7666 11.7586V11.7616C24.7666 11.7621 24.7666 11.7626 24.7666 11.7631C24.7666 11.7691 24.7671 11.7755 24.7676 11.7815C24.7711 11.8328 24.7736 11.8836 24.7761 11.9329C24.7796 11.9972 24.7826 12.061 24.7856 12.1252C24.7856 12.1292 24.7861 12.1332 24.7861 12.1372C24.7871 12.1576 24.7881 12.178 24.7886 12.198C24.7886 12.2034 24.7891 12.2094 24.7891 12.2149C24.7906 12.2513 24.7916 12.2881 24.7926 12.3245C24.7926 12.3265 24.7926 12.3285 24.7926 12.331C24.7936 12.3599 24.7946 12.3892 24.7951 12.4181C24.7951 12.4206 24.7951 12.4236 24.7951 12.4261C24.7966 12.4819 24.7976 12.5382 24.7981 12.594C24.7981 12.601 24.7981 12.6084 24.7986 12.6154C24.7986 12.6174 24.7986 12.6194 24.7986 12.6219C24.7996 12.6961 24.8001 12.7708 24.8001 12.8461C24.8001 13.4264 24.7706 14.0077 24.7124 14.5741C24.6999 14.6982 24.6854 14.8217 24.6698 14.9448C24.6648 14.9861 24.6583 15.027 24.6528 15.0678C24.6418 15.1495 24.6312 15.2312 24.6187 15.3129C24.6112 15.3617 24.6032 15.4105 24.5951 15.4594C24.5836 15.5326 24.5721 15.6053 24.5596 15.678C24.5505 15.7298 24.5405 15.7817 24.531 15.8335C24.5185 15.9027 24.5059 15.9714 24.4924 16.0402C24.4819 16.0935 24.4708 16.1463 24.4598 16.1996C24.4458 16.2664 24.4322 16.3331 24.4177 16.3999C24.4057 16.4537 24.3931 16.507 24.3811 16.5608C24.3661 16.626 24.351 16.6913 24.335 16.756C24.322 16.8098 24.3079 16.8636 24.2944 16.9174C24.2779 16.9812 24.2618 17.045 24.2443 17.1087C24.2297 17.1625 24.2147 17.2158 24.1997 17.2696C24.1821 17.3324 24.1641 17.3957 24.1455 17.4579C24.13 17.5112 24.114 17.5645 24.0974 17.6173C24.0784 17.6796 24.0593 17.7414 24.0393 17.8031C24.0222 17.856 24.0052 17.9083 23.9881 17.9611C23.9676 18.0223 23.947 18.0836 23.926 18.1444C23.9079 18.1962 23.8899 18.248 23.8714 18.2998C23.8498 18.3606 23.8272 18.4214 23.8047 18.4816C23.7856 18.5324 23.7666 18.5837 23.747 18.6341C23.724 18.6943 23.6999 18.7546 23.6764 18.8144C23.6563 18.8642 23.6368 18.9145 23.6162 18.9638C23.5917 19.0241 23.5661 19.0834 23.5405 19.1432C23.52 19.1915 23.4994 19.2403 23.4779 19.2886C23.4513 19.3489 23.4237 19.4087 23.3967 19.469C23.3756 19.5153 23.3546 19.5621 23.333 19.6084C23.3045 19.6697 23.2744 19.7305 23.2448 19.7918C23.2238 19.8356 23.2027 19.8794 23.1811 19.9233C23.1491 19.9875 23.1165 20.0508 23.0834 20.1141C23.0629 20.1534 23.0433 20.1933 23.0223 20.2326C22.9837 20.3054 22.9441 20.3771 22.9045 20.4488C22.8884 20.4777 22.8729 20.5071 22.8568 20.536C22.8007 20.6361 22.7436 20.7353 22.6849 20.8334C22.6734 20.8528 22.6614 20.8713 22.6498 20.8902C22.6027 20.9689 22.5551 21.0471 22.506 21.1243C22.4839 21.1592 22.4614 21.1931 22.4393 21.2274C22.4002 21.2882 22.3611 21.3495 22.321 21.4098C22.2955 21.4481 22.2689 21.486 22.2433 21.5238C22.2057 21.5786 22.1681 21.6339 22.1301 21.6882C22.102 21.7276 22.0734 21.7664 22.0453 21.8058C22.0082 21.8576 21.9707 21.9094 21.9326 21.9602C21.903 22.0001 21.8729 22.0389 21.8428 22.0778C21.8052 22.1271 21.7672 22.1764 21.7291 22.2252C21.698 22.2646 21.6669 22.3029 21.6353 22.3418C21.5972 22.3891 21.5586 22.4364 21.52 22.4833C21.488 22.5221 21.4554 22.56 21.4228 22.5983C21.3837 22.6442 21.3446 22.6895 21.305 22.7343C21.2714 22.7722 21.2378 22.8096 21.2043 22.8469C21.1647 22.8908 21.1246 22.9346 21.084 22.9779C21.0494 23.0148 21.0153 23.0512 20.9802 23.0875C20.9396 23.1299 20.8985 23.1722 20.8574 23.2141C20.8223 23.2499 20.7867 23.2853 20.7511 23.3202C20.7095 23.3615 20.6674 23.4019 20.6253 23.4422C20.5892 23.4766 20.5532 23.511 20.5171 23.5448C20.4745 23.5847 20.4309 23.6235 20.3877 23.6629C20.3512 23.6958 20.3146 23.7291 20.2775 23.7615C20.2334 23.7999 20.1893 23.8377 20.1446 23.8756C20.1076 23.907 20.07 23.9389 20.0324 23.9697C20.0198 23.9797 20.0073 23.9897 19.9953 23.9996C19.9827 23.9897 19.9702 23.9797 19.9582 23.9697C19.9206 23.9389 19.8835 23.907 19.8459 23.8756C19.8013 23.8377 19.7572 23.8004 19.7131 23.7615C19.676 23.7291 19.6394 23.6963 19.6028 23.6629C19.5597 23.624 19.5161 23.5847 19.4735 23.5448C19.4369 23.511 19.4008 23.4766 19.3652 23.4422C19.3231 23.4019 19.281 23.361 19.2394 23.3202C19.2038 23.2848 19.1682 23.2494 19.1331 23.2141C19.092 23.1722 19.0509 23.1299 19.0103 23.0875C18.9758 23.0512 18.9412 23.0148 18.9066 22.9779C18.8665 22.9346 18.8264 22.8908 18.7863 22.8469C18.7527 22.8096 18.7191 22.7722 18.6855 22.7343C18.6459 22.6895 18.6068 22.6442 18.5677 22.5983C18.5352 22.56 18.5026 22.5221 18.4705 22.4833C18.4314 22.4364 18.3933 22.3891 18.3547 22.3418C18.3236 22.3029 18.2921 22.2646 18.261 22.2252C18.2224 22.1764 18.1848 22.1271 18.1472 22.0778C18.1171 22.0389 18.0876 21.9996 18.058 21.9602C18.0199 21.9089 17.9828 21.8571 17.9452 21.8053C17.9171 21.7664 17.8886 21.7276 17.8605 21.6882C17.8224 21.6339 17.7848 21.5786 17.7472 21.5233C17.7212 21.4855 17.6951 21.4476 17.6695 21.4093C17.6294 21.349 17.5903 21.2882 17.5512 21.2269C17.5292 21.1926 17.5066 21.1587 17.4846 21.1243C17.4354 21.0466 17.3873 20.9674 17.3397 20.8882C17.3287 20.8698 17.3172 20.8518 17.3061 20.8334C17.2475 20.7353 17.1903 20.6361 17.1342 20.536C17.1182 20.5071 17.1026 20.4777 17.0866 20.4488C17.047 20.3771 17.0074 20.3054 16.9688 20.2326C16.9477 20.1933 16.9282 20.1534 16.9076 20.1141C16.8751 20.0508 16.842 19.9875 16.8104 19.9238C16.7889 19.8799 16.7678 19.8361 16.7462 19.7923C16.7167 19.7315 16.6871 19.6707 16.6585 19.6094C16.637 19.5631 16.6159 19.5168 16.5949 19.4705C16.5673 19.4107 16.5402 19.3504 16.5137 19.2901C16.4926 19.2423 16.4721 19.194 16.4515 19.1457C16.426 19.0859 16.4004 19.0256 16.3753 18.9653C16.3548 18.916 16.3352 18.8662 16.3152 18.8164C16.2911 18.7561 16.2671 18.6958 16.244 18.6356C16.2245 18.5847 16.2054 18.5339 16.1869 18.4831C16.1643 18.4228 16.1423 18.3621 16.1202 18.3013C16.1017 18.2495 16.0836 18.1977 16.0656 18.1459C16.0445 18.0846 16.0235 18.0238 16.0034 17.9621C15.9859 17.9098 15.9688 17.8569 15.9523 17.8046C15.9327 17.7429 15.9132 17.6806 15.8941 17.6188C15.8781 17.566 15.8621 17.5127 15.8465 17.4594C15.828 17.3967 15.8104 17.3339 15.7924 17.2711C15.7774 17.2178 15.7623 17.164 15.7483 17.1107C15.7312 17.047 15.7147 16.9832 15.6982 16.9194C15.6846 16.8656 15.6706 16.8123 15.6576 16.758C15.6415 16.6933 15.6265 16.628 15.6114 16.5628C15.5989 16.509 15.5864 16.4557 15.5749 16.4018C15.5603 16.3356 15.5463 16.2688 15.5327 16.2021C15.5217 16.1488 15.5107 16.096 15.5002 16.0427C15.4866 15.9739 15.4741 15.9047 15.4616 15.836C15.452 15.7841 15.442 15.7323 15.433 15.6805C15.4205 15.6078 15.4089 15.5351 15.3974 15.4618C15.3899 15.413 15.3814 15.3642 15.3739 15.3154C15.3618 15.2342 15.3508 15.1525 15.3398 15.0708C15.3343 15.0294 15.3282 14.9886 15.3227 14.9477C15.3072 14.8247 15.2932 14.7012 15.2801 14.5771C15.222 14.0107 15.1924 13.4294 15.1924 12.849C15.1924 11.8383 15.2821 10.832 15.4596 9.85665C15.4741 9.77545 15.4896 9.69475 15.5057 9.61455C15.5067 9.61007 15.5077 9.60559 15.5082 9.6011C15.5102 9.59263 15.5122 9.58367 15.5137 9.5747C15.5292 9.4945 15.5458 9.41429 15.5628 9.33708C15.5643 9.3316 15.5653 9.32562 15.5663 9.32014C15.5668 9.31666 15.5678 9.31367 15.5683 9.31018C15.5693 9.3047 15.5708 9.29922 15.5718 9.29374C15.5859 9.22898 15.6004 9.16472 15.616 9.09797L15.6305 9.0347C15.646 8.96895 15.6616 8.90319 15.6786 8.83794C15.6796 8.83395 15.6811 8.82847 15.6821 8.82349C15.6831 8.81901 15.6846 8.81452 15.6856 8.81004C15.7047 8.73233 15.7252 8.65462 15.7458 8.57691C15.7478 8.56943 15.7498 8.56196 15.7518 8.55499C15.7733 8.47478 15.7959 8.39458 15.819 8.31438C15.8195 8.31338 15.8195 8.31189 15.82 8.31089C15.844 8.2282 15.8681 8.14501 15.8931 8.06281C15.9187 7.98062 15.9443 7.89842 15.9718 7.81374C15.9899 7.75795 16.0079 7.70265 16.0265 7.64736C16.0275 7.64487 16.0285 7.64188 16.029 7.63939C16.0515 7.57064 16.0751 7.50239 16.0976 7.43813C16.1197 7.37636 16.1418 7.31509 16.1643 7.25431C16.1648 7.25282 16.1653 7.25133 16.1658 7.24983C16.1713 7.23489 16.1773 7.21944 16.1829 7.2045C16.1994 7.15917 16.2159 7.11433 16.2335 7.069V7.06851C17.0866 4.85473 18.3798 3.00908 20.0003 1.69197ZM9.37252 4.78548C9.73893 4.83231 10.1053 4.90155 10.4677 4.99172C10.5344 5.00816 10.6011 5.02559 10.6692 5.04402C12.0521 5.41614 13.4185 6.10508 14.6491 7.04808C14.636 7.08594 14.6235 7.1238 14.6105 7.16216C14.6105 7.16265 14.61 7.16365 14.61 7.16415C14.5884 7.22692 14.5679 7.28968 14.5483 7.34996V7.35046C14.5157 7.44809 14.4862 7.54374 14.4626 7.62095C14.4626 7.62195 14.4621 7.62245 14.4621 7.62344C14.4621 7.62394 14.4616 7.62444 14.4616 7.62494C14.4616 7.62544 14.4611 7.62594 14.4611 7.62643C14.434 7.71361 14.4075 7.80328 14.3834 7.88946C14.3829 7.89195 14.3819 7.89394 14.3814 7.89643C14.3674 7.94525 14.3533 7.99457 14.3398 8.04388C14.3288 8.08274 14.3182 8.1211 14.3077 8.16095C14.3062 8.16693 14.3042 8.1729 14.3027 8.17838C14.2796 8.26506 14.2571 8.35124 14.2355 8.43792C14.232 8.45037 14.229 8.46283 14.226 8.47528C14.2165 8.51165 14.208 8.54851 14.1995 8.58537C14.1909 8.61975 14.1824 8.65362 14.1744 8.68799V8.68899C14.1744 8.68999 14.1739 8.69098 14.1734 8.69198L14.1589 8.75375C14.1403 8.83096 14.1228 8.90917 14.1062 8.98688C14.1057 8.98987 14.1047 8.99336 14.1037 8.99685C14.1032 8.99934 14.1027 9.00133 14.1022 9.00382C14.1012 9.00731 14.1007 9.01129 14.0997 9.01528C14.0987 9.01926 14.0982 9.02225 14.0972 9.02673C14.0797 9.10744 14.0626 9.19013 14.0461 9.27282C14.0431 9.28478 14.0411 9.29723 14.0386 9.30968C14.0376 9.31566 14.036 9.32214 14.035 9.32811C14.0175 9.41479 14.001 9.50197 13.9854 9.58815C13.7924 10.6492 13.6947 11.7451 13.6947 12.8451C13.6947 13.4757 13.7268 14.1084 13.7904 14.7246C14.0195 16.9568 14.6716 19.1272 15.6776 21.0008C15.7413 21.1193 15.8064 21.2369 15.8731 21.3535C15.8951 21.3918 15.9182 21.4297 15.9403 21.4675C15.9854 21.5448 16.0305 21.6225 16.0771 21.6987C16.1047 21.744 16.1332 21.7883 16.1613 21.8337C16.2039 21.9019 16.246 21.9697 16.2891 22.0369C16.3197 22.0843 16.3513 22.1311 16.3823 22.1779C16.4244 22.2412 16.4661 22.3049 16.5092 22.3672C16.5422 22.415 16.5758 22.4623 16.6089 22.5097C16.651 22.5699 16.6936 22.6302 16.7367 22.6895C16.7713 22.7373 16.8069 22.7847 16.842 22.8315C16.8851 22.8893 16.9277 22.9466 16.9718 23.0033C17.0084 23.0507 17.045 23.097 17.0821 23.1438C17.1257 23.1991 17.1698 23.2544 17.2139 23.3092C17.252 23.3555 17.2901 23.4014 17.3287 23.4472C17.3733 23.5005 17.4179 23.5533 17.463 23.6056C17.4791 23.6245 17.4951 23.644 17.5111 23.6624C17.5001 23.6584 17.4886 23.6544 17.4776 23.6504C17.4084 23.626 17.3397 23.6011 17.271 23.5752C17.2565 23.5697 17.242 23.5648 17.2279 23.5588C17.1497 23.5289 17.0721 23.498 16.9944 23.4661C16.9763 23.4586 16.9578 23.4512 16.9397 23.4437C16.8665 23.4133 16.7939 23.3824 16.7212 23.3505C16.7137 23.3471 16.7061 23.3441 16.6991 23.3411C16.6204 23.3062 16.5427 23.2703 16.4645 23.2335C16.447 23.225 16.429 23.2165 16.4114 23.2081C16.3327 23.1707 16.2545 23.1324 16.1763 23.093C16.1743 23.092 16.1718 23.091 16.1698 23.0895C16.0931 23.0507 16.0174 23.0108 15.9413 22.97C15.9247 22.961 15.9082 22.9525 15.8921 22.9436C15.8154 22.9017 15.7388 22.8594 15.6626 22.816C15.6535 22.8111 15.6445 22.8056 15.6355 22.8006C15.5653 22.7602 15.4952 22.7189 15.425 22.677C15.4109 22.6686 15.3969 22.6601 15.3829 22.6516C15.3072 22.6058 15.232 22.559 15.1573 22.5117C15.1448 22.5037 15.1328 22.4957 15.1202 22.4878C15.0516 22.4439 14.9834 22.3991 14.9152 22.3533C14.9047 22.3463 14.8942 22.3393 14.8841 22.3323C14.81 22.282 14.7358 22.2312 14.6621 22.1789C14.6481 22.1689 14.6345 22.159 14.6205 22.1495C14.5498 22.0992 14.4796 22.0484 14.4095 21.9961C14.405 21.9926 14.401 21.9896 14.3964 21.9866C14.3233 21.9318 14.2501 21.876 14.1779 21.8197C14.1639 21.8088 14.1493 21.7973 14.1353 21.7864C13.9899 21.6723 13.8466 21.5542 13.7047 21.4332C13.6912 21.4217 13.6777 21.4098 13.6641 21.3983C13.594 21.338 13.5243 21.2767 13.4551 21.2145C13.4486 21.2085 13.4421 21.2025 13.4356 21.197C13.3714 21.1388 13.3072 21.08 13.2436 21.0202C13.2316 21.0087 13.219 20.9973 13.207 20.9858C13.1398 20.9221 13.0727 20.8578 13.006 20.792C12.9955 20.7816 12.9849 20.7711 12.9744 20.7607C12.9138 20.7004 12.8536 20.6396 12.794 20.5783C12.7845 20.5684 12.7749 20.5589 12.7654 20.549C12.7002 20.4817 12.6361 20.4135 12.5719 20.3447C12.5594 20.3313 12.5474 20.3178 12.5348 20.3049C12.4747 20.2396 12.4145 20.1733 12.3554 20.1066C12.3504 20.1006 12.3449 20.0951 12.3399 20.0897C12.2772 20.0189 12.215 19.9467 12.1529 19.8745C12.1399 19.859 12.1268 19.8441 12.1138 19.8286C11.99 19.6822 11.8687 19.5327 11.7499 19.3803C11.7374 19.3639 11.7243 19.3474 11.7118 19.331C11.6537 19.2553 11.5955 19.1795 11.5384 19.1023C11.5319 19.0934 11.5253 19.0844 11.5188 19.0759C11.4667 19.0052 11.4151 18.9335 11.3634 18.8617C11.3519 18.8453 11.3404 18.8293 11.3289 18.8129C11.2737 18.7352 11.2196 18.6565 11.1655 18.5773C11.1554 18.5628 11.1459 18.5479 11.1364 18.5334C11.0883 18.4622 11.0411 18.3905 10.9945 18.3182C10.985 18.3038 10.9755 18.2893 10.966 18.2744C10.9138 18.1937 10.8627 18.112 10.8121 18.0303C10.8011 18.0124 10.79 17.9939 10.779 17.976C10.7324 17.9003 10.6868 17.8241 10.6417 17.7469C10.6356 17.7369 10.6296 17.7269 10.6236 17.7165C10.5745 17.6323 10.5259 17.5476 10.4783 17.4619C10.4672 17.442 10.4557 17.4221 10.4447 17.4016C10.3966 17.315 10.3489 17.2273 10.3023 17.1391C10.0793 16.7177 9.87476 16.2868 9.69382 15.8569C9.65773 15.7712 9.62214 15.685 9.58755 15.5988C9.06727 14.3051 8.72091 12.9566 8.55701 11.5852C8.2688 9.17767 8.55049 6.83836 9.37252 4.78548ZM9.32992 24.2452C8.88181 24.029 8.43571 23.7824 8.00464 23.5114C4.39472 21.2449 1.95218 17.3663 1.54267 13.2989C3.24338 12.4869 5.16111 12.1616 7.14552 12.3484C7.14602 12.3509 7.14652 12.3534 7.14652 12.3559C7.14953 12.3758 7.15304 12.3952 7.15604 12.4147C7.16807 12.4889 7.1801 12.5631 7.19264 12.6373C7.19865 12.6707 7.20466 12.7046 7.21068 12.738C7.22121 12.7982 7.23223 12.858 7.24376 12.9183C7.25078 12.9556 7.2583 12.9935 7.26582 13.0309C7.27684 13.0872 7.28787 13.1434 7.2999 13.1992C7.30792 13.2381 7.31594 13.2765 7.32446 13.3153C7.33649 13.3706 7.34852 13.4259 7.36105 13.4812C7.36957 13.5196 7.37809 13.5579 7.38712 13.5963C7.40015 13.6531 7.41368 13.7098 7.42772 13.7661C7.43674 13.8025 7.44526 13.8389 7.45428 13.8747C7.46982 13.937 7.48586 13.9998 7.5024 14.062C7.51042 14.0919 7.51794 14.1218 7.52596 14.1517C7.55052 14.2429 7.57558 14.3345 7.60114 14.4252C7.60566 14.4411 7.61067 14.4571 7.61518 14.473C7.63673 14.5487 7.65879 14.624 7.68184 14.6992C7.69187 14.7325 7.70239 14.7654 7.71292 14.7988C7.73096 14.8571 7.74901 14.9149 7.76756 14.9732C7.77959 15.01 7.79162 15.0469 7.80365 15.0832C7.82169 15.1375 7.83973 15.1918 7.85778 15.2461C7.87081 15.284 7.88384 15.3219 7.89688 15.3597C7.91542 15.413 7.93397 15.4663 7.95352 15.5196C7.96705 15.557 7.98008 15.5943 7.99412 15.6317C8.01416 15.6865 8.03472 15.7413 8.05527 15.7956C8.0683 15.831 8.08183 15.8658 8.09486 15.9012C8.11792 15.961 8.14148 16.0208 8.16504 16.0805C8.17657 16.1099 8.18809 16.1393 8.20012 16.1687C8.23571 16.2574 8.2723 16.3461 8.3099 16.4347C8.50738 16.904 8.73094 17.3752 8.97454 17.8355C10.174 20.1001 11.8361 22.0235 13.7809 23.3969C13.8461 23.4432 13.9122 23.4885 13.9779 23.5334C13.999 23.5473 14.0195 23.5613 14.0406 23.5757C14.0862 23.6061 14.1313 23.6365 14.1769 23.6664C14.2015 23.6823 14.226 23.6983 14.2511 23.7142C14.2937 23.7416 14.3363 23.769 14.3794 23.7964C14.405 23.8123 14.4305 23.8283 14.4556 23.8442C14.4992 23.8711 14.5428 23.898 14.5864 23.9244C14.6105 23.9389 14.6345 23.9538 14.6591 23.9683C14.7082 23.9976 14.7578 24.0265 14.807 24.0554C14.8255 24.0664 14.844 24.0774 14.8626 24.0878C14.9308 24.1272 14.9994 24.1655 15.0681 24.2034C15.0776 24.2089 15.0876 24.2138 15.0972 24.2188C15.1558 24.2512 15.215 24.2826 15.2741 24.314C15.2967 24.3259 15.3197 24.3379 15.3428 24.3498C15.3889 24.3737 15.4355 24.3982 15.4821 24.4216C15.5082 24.4345 15.5337 24.4475 15.5598 24.4604C15.6039 24.4823 15.6485 24.5043 15.6926 24.5257C15.7192 24.5386 15.7453 24.5511 15.7718 24.5635C15.8175 24.5855 15.8631 24.6064 15.9092 24.6273C15.9337 24.6388 15.9583 24.6502 15.9829 24.6612C16.037 24.6856 16.0911 24.7095 16.1453 24.7334C16.1613 24.7404 16.1773 24.7479 16.1934 24.7543C16.2636 24.7847 16.3342 24.8141 16.4049 24.843C16.4219 24.85 16.4395 24.857 16.4565 24.8639C16.5102 24.8854 16.5633 24.9068 16.6169 24.9277C16.6425 24.9377 16.6681 24.9471 16.6936 24.9571C16.7392 24.9745 16.7853 24.992 16.831 25.0084C16.8585 25.0184 16.8861 25.0283 16.9137 25.0383C16.9583 25.0542 17.0034 25.0702 17.048 25.0856C17.0756 25.0951 17.1026 25.1045 17.1302 25.114C17.1773 25.1299 17.2244 25.1454 17.2715 25.1608C17.2901 25.1668 17.3081 25.1733 17.3267 25.1793C14.7789 25.8154 11.9313 25.5031 9.32992 24.2452ZM31.9959 23.5114C29.0612 25.3536 25.6703 25.929 22.6744 25.1798C22.6879 25.1753 22.7015 25.1708 22.715 25.1663C22.7691 25.1489 22.8228 25.1314 22.8769 25.113C22.9 25.105 22.923 25.0971 22.9461 25.0896C22.9957 25.0727 23.0453 25.0552 23.0949 25.0373C23.1185 25.0288 23.1426 25.0203 23.1661 25.0114C23.2162 24.993 23.2669 24.974 23.317 24.9551C23.3385 24.9466 23.3606 24.9387 23.3821 24.9302C23.4413 24.9073 23.5004 24.8839 23.5591 24.8599C23.5711 24.855 23.5831 24.8505 23.5952 24.8455C23.6673 24.8161 23.7395 24.7857 23.8112 24.7548C23.8222 24.7499 23.8333 24.7454 23.8443 24.7404C23.9034 24.7145 23.9631 24.6886 24.0222 24.6617C24.0443 24.6517 24.0663 24.6413 24.0884 24.6313C24.1365 24.6089 24.1851 24.5865 24.2332 24.564C24.2578 24.5521 24.2824 24.5406 24.3074 24.5287C24.3535 24.5063 24.3997 24.4838 24.4458 24.4609C24.4703 24.4485 24.4949 24.4365 24.5195 24.4241C24.5676 24.3997 24.6157 24.3752 24.6633 24.3498C24.6849 24.3389 24.7064 24.3274 24.7275 24.3165C24.7886 24.2841 24.8498 24.2512 24.9104 24.2178C24.9179 24.2138 24.926 24.2094 24.9335 24.2054C25.0026 24.167 25.0718 24.1282 25.1405 24.0888C25.1575 24.0788 25.1746 24.0689 25.1916 24.0589C25.2427 24.0295 25.2934 23.9996 25.344 23.9693C25.3675 23.9553 25.3906 23.9409 25.4142 23.9269C25.4588 23.9 25.5034 23.8726 25.5475 23.8452C25.5721 23.8298 25.5971 23.8143 25.6217 23.7984C25.6653 23.771 25.7089 23.7431 25.752 23.7147C25.7761 23.6993 25.8001 23.6838 25.8242 23.6679C25.8708 23.6375 25.9174 23.6061 25.9635 23.5752C25.9836 23.5618 26.0036 23.5488 26.0232 23.5349C26.0893 23.49 26.155 23.4442 26.2207 23.3979C28.1655 22.0245 29.8276 20.1011 31.027 17.8365C31.0406 17.8111 31.0531 17.7857 31.0661 17.7603C31.1112 17.6741 31.1564 17.5879 31.2 17.5013C31.2225 17.4564 31.2441 17.4116 31.2661 17.3668C31.3002 17.2975 31.3343 17.2288 31.3674 17.1595C31.3899 17.1127 31.4115 17.0654 31.433 17.0181C31.4646 16.9503 31.4962 16.8826 31.5273 16.8143C31.5483 16.7675 31.5689 16.7197 31.5899 16.6728C31.62 16.6041 31.6506 16.5349 31.6802 16.4661C31.6997 16.4198 31.7187 16.373 31.7383 16.3266C31.7674 16.2559 31.7969 16.1852 31.825 16.1144C31.8431 16.0691 31.8606 16.0233 31.8786 15.9779C31.9067 15.9052 31.9348 15.8325 31.9624 15.7592C31.9789 15.7149 31.9954 15.6706 32.0115 15.6257C32.039 15.551 32.0656 15.4758 32.0922 15.4006C32.1072 15.3577 32.1217 15.3144 32.1368 15.2715C32.1633 15.1943 32.1889 15.1166 32.214 15.0389C32.2275 14.9976 32.241 14.9557 32.2541 14.9144C32.2791 14.8347 32.3037 14.7545 32.3283 14.6743C32.3403 14.6344 32.3523 14.5941 32.3638 14.5542C32.3879 14.472 32.4115 14.3893 32.434 14.3066C32.4445 14.2683 32.4556 14.2299 32.4656 14.1916C32.4887 14.1064 32.5107 14.0207 32.5323 13.935C32.5413 13.8986 32.5508 13.8623 32.5598 13.8259C32.5814 13.7372 32.6024 13.6486 32.6225 13.5594C32.63 13.5255 32.6385 13.4917 32.646 13.4578C32.6666 13.3646 32.6861 13.2715 32.7057 13.1778C32.7117 13.1474 32.7187 13.1175 32.7247 13.0872C32.7453 12.9845 32.7643 12.8814 32.7829 12.7778C32.7869 12.7564 32.7909 12.7355 32.7949 12.714C32.8165 12.593 32.8365 12.4709 32.8556 12.3494C34.84 12.1626 36.7577 12.4879 38.4584 13.2999C38.0489 17.3668 35.6064 21.2454 31.9959 23.5114Z" fill="#0C2C7E"/>
</svg>
