<svg width="27" height="27" viewBox="0 0 27 27" fill="none" xmlns="http://www.w3.org/2000/svg">
<path d="M13.5 0C6.05509 0 0 6.05509 0 13.5C0 20.9449 6.05509 27 13.5 27C20.9449 27 27 20.9449 27 13.5C27 6.05509 20.9449 0 13.5 0ZM13.5 3.13241C16.0207 3.13241 18.0694 5.18113 18.0694 7.70182C18.0694 10.2225 16.0207 12.2712 13.5 12.2712C10.9793 12.2712 8.93059 10.2225 8.93059 7.70182C8.93059 5.18113 10.9793 3.13241 13.5 3.13241ZM21.4853 20.0945C19.5103 22.4873 16.602 23.8569 13.5 23.8569C10.398 23.8569 7.48946 22.4872 5.5188 20.0945C5.04947 19.5276 4.97826 18.7036 5.3395 18.0458C6.59855 15.7571 9.00205 14.3333 11.6096 14.3333H15.3865C16.693 14.3333 17.9481 14.6879 19.0319 15.3326C20.1182 15.9733 21.0332 16.9014 21.6646 18.0458C22.0259 18.7036 21.9546 19.5276 21.4853 20.0945Z" fill="#0C2C7E"/>
</svg>
