<svg width="29" height="27" viewBox="0 0 29 27" fill="none" xmlns="http://www.w3.org/2000/svg">
<path d="M14.8629 15.6223H22.8237C23.0117 15.6223 23.1651 15.7842 23.1651 15.9827V22.2576C23.1651 22.4561 23.0117 22.618 22.8237 22.618H14.8629C14.6749 22.618 14.5215 22.4561 14.5215 22.2576V15.9827C14.5215 15.7842 14.6749 15.6223 14.8629 15.6223ZM22.4823 16.343H15.2043V21.8973H22.4823V16.343ZM5.83487 27V15.9827C5.83487 15.7842 5.98825 15.6223 6.17626 15.6223H12.1485C12.3369 15.6223 12.4899 15.7842 12.4899 15.9827V27H24.4999C24.7663 27 24.9958 26.8996 25.1834 26.7007C25.3718 26.5019 25.4666 26.26 25.4662 25.9788L25.4525 12.6584C24.9977 12.3724 24.646 11.9803 24.4097 11.5231C24.1733 11.9803 23.8213 12.3724 23.3821 12.6487C22.9379 12.9279 22.4409 13.0681 21.9453 13.0681C21.4509 13.0681 20.9535 12.9279 20.509 12.6487C20.0686 12.3724 19.717 11.9803 19.4806 11.5231C19.2443 11.9803 18.8926 12.3724 18.453 12.6487C18.0092 12.9279 17.5118 13.0681 17.0163 13.0681C16.5208 13.0681 16.0233 12.9279 15.5704 12.6431C15.1297 12.3607 14.7841 11.973 14.552 11.5231C14.3156 11.9799 13.9636 12.3724 13.5232 12.6487C13.0787 12.9279 12.5812 13.0681 12.0872 13.0681C11.5917 13.0681 11.0943 12.9279 10.6418 12.6431C10.2041 12.3631 9.86039 11.9783 9.62214 11.5315L9.57076 11.4319L9.52015 11.5315C9.27809 11.9847 8.92833 12.3748 8.49102 12.6487C8.04649 12.9279 7.54906 13.0681 7.05505 13.0681C6.55952 13.0681 6.06247 12.9279 5.60994 12.6431C5.16808 12.3607 4.82326 11.973 4.59072 11.5231C4.35437 11.9803 4.00232 12.3724 3.53762 12.6636L3.53267 25.9796C3.53229 26.5416 3.96655 27 4.499 27H5.83487ZM11.8071 27V16.343H6.51766V27H11.8071ZM3.01887 12.1422C3.036 12.1317 3.05427 12.1225 3.07368 12.1148C3.11592 12.0928 3.15779 12.0687 3.20651 12.0381C3.54866 11.8228 3.81659 11.5231 3.99547 11.174C4.14581 10.8803 4.23487 10.5509 4.25009 10.2091L4.25123 9.98289C4.25846 9.78524 4.41679 9.63058 4.60404 9.63861C4.78254 9.64584 4.92374 9.79769 4.93059 9.98289L4.93097 10.2095C4.94619 10.5509 5.03525 10.8803 5.18558 11.174C5.36218 11.5179 5.62365 11.8136 5.95895 12.0281C6.29996 12.2422 6.67712 12.3478 7.05505 12.3478C7.4326 12.3478 7.81091 12.2426 8.14431 12.0329C8.47656 11.8248 8.74374 11.5267 8.92871 11.1804C9.11862 10.8241 9.22519 10.4135 9.23128 9.99133C9.23394 9.7989 9.38199 9.64142 9.56544 9.63861C9.75307 9.6354 9.90759 9.79368 9.91063 9.99133C9.91672 10.4135 10.0233 10.8241 10.2136 11.1804C10.3959 11.5215 10.6574 11.8144 10.9908 12.0281C11.3321 12.2422 11.7093 12.3478 12.0872 12.3478C12.4648 12.3478 12.8427 12.2426 13.1765 12.0329C13.5107 11.8232 13.7778 11.5235 13.9571 11.1736C14.1078 10.8799 14.1961 10.5509 14.2113 10.2095L14.2121 9.98289C14.2193 9.78524 14.3776 9.63058 14.5653 9.63861C14.7438 9.64584 14.8846 9.79769 14.8914 9.98289L14.8918 10.2095C14.907 10.5513 14.9961 10.8803 15.1464 11.174C15.323 11.5179 15.5845 11.8136 15.9194 12.0281C16.2612 12.2422 16.6384 12.3478 17.0163 12.3478C17.3942 12.3478 17.7714 12.2422 18.1044 12.0329C18.4386 11.8228 18.7065 11.5231 18.8858 11.174C19.0357 10.8803 19.1248 10.5509 19.1404 10.2091L19.1411 9.98289C19.1484 9.78524 19.3067 9.63058 19.4939 9.63861C19.6724 9.64584 19.8136 9.79769 19.8205 9.98289L19.8209 10.2095C19.8361 10.5509 19.9251 10.8799 20.0755 11.174C20.2544 11.5231 20.5223 11.8228 20.8568 12.0329C21.1902 12.2426 21.5674 12.3478 21.9453 12.3478C22.3233 12.3478 22.7004 12.2422 23.0331 12.0329C23.3676 11.8228 23.6355 11.5231 23.8144 11.174C23.9648 10.8799 24.0538 10.5509 24.069 10.2095L24.0694 9.98289C24.077 9.78524 24.2354 9.63058 24.4226 9.63861C24.6011 9.64584 24.7423 9.79769 24.7492 9.98289L24.7499 10.2091C24.7651 10.5509 24.8542 10.8803 25.0045 11.174C25.1834 11.5231 25.4513 11.8228 25.7859 12.0329C25.8342 12.0638 25.8833 12.0915 25.9781 12.1402C26.2616 12.2783 26.568 12.3478 26.8736 12.3478C27.2519 12.3478 27.6291 12.2422 27.9617 12.0329C28.297 11.8232 28.5642 11.5235 28.7435 11.174C28.9102 10.8482 29.0015 10.4782 29 10.0962L25.6599 3.97588H3.34009L1.87273e-05 10.0962C-0.00150364 10.4782 0.0898384 10.8482 0.256538 11.174C0.433132 11.5179 0.694599 11.8136 1.0299 12.0281C1.37129 12.2422 1.74846 12.3478 2.12639 12.3478C2.43124 12.3478 2.73686 12.2792 3.01887 12.1422ZM24.501 0H4.49862C3.96655 0 3.53229 0.458369 3.53229 1.01998V3.12583H25.4673V1.01998C25.4673 0.458369 25.0331 0 24.501 0Z" fill="#0C2C7E"/>
</svg>
