<svg width="82" height="56" viewBox="0 0 82 56" fill="none" xmlns="http://www.w3.org/2000/svg">
<path d="M67.2298 49.3701H13.8398V55.8201C35.0002 52.655 46.6606 52.8633 67.2298 55.8201V49.3701Z" fill="#0C2C7E"/>
<path d="M23.2404 24.43L14.9404 19.39L19.2204 7.72998L27.6404 16.95L23.2404 24.43Z" fill="#0C2C7E"/>
<path d="M57.8297 24.43L66.1197 19.39L61.8397 7.72998L53.4297 16.95L57.8297 24.43Z" fill="#0C2C7E"/>
<path d="M56.44 28.19L40.53 0L24.62 28.19L0 13.49L13.83 47.21H67.23L81.06 13.49L56.44 28.19ZM49.38 32.67C48.65 35.72 44.47 40.03 40.53 42.34C36.59 40.03 32.41 35.72 31.68 32.67C30.95 29.62 32.03 26.67 34.06 25.57C36.09 24.47 38.63 24.91 40.53 27.7C42.43 24.95 44.98 24.46 47 25.57C49.02 26.68 50.11 29.62 49.38 32.67Z" fill="#FFA653"/>
</svg>
