<svg width="62" height="62" viewBox="0 0 62 62" fill="none" xmlns="http://www.w3.org/2000/svg">
<path fill-rule="evenodd" clip-rule="evenodd" d="M31 0C22.779 0 14.8928 3.26656 9.07969 9.07968C3.26656 14.8928 0 22.779 0 31C0 39.221 3.26656 47.1072 9.07969 52.9203C14.8928 58.7334 22.779 62 31 62C39.221 62 47.1072 58.7334 52.9203 52.9203C58.7334 47.1072 62 39.221 62 31C62 22.779 58.7334 14.8928 52.9203 9.07968C47.1072 3.26656 39.221 0 31 0ZM31 3.64706C38.2551 3.64706 45.2113 6.52838 50.3415 11.6585C55.4716 16.7887 58.3529 23.7449 58.3529 31C58.3529 38.2551 55.4716 45.2113 50.3415 50.3415C45.2113 55.4716 38.2551 58.353 31 58.353C23.7449 58.353 16.7887 55.4716 11.6586 50.3415C6.5284 45.2113 3.64706 38.2551 3.64706 31C3.64706 23.7449 6.5284 16.7887 11.6586 11.6585C16.7887 6.52838 23.7449 3.64706 31 3.64706ZM19.0287 18.8857C15.7309 18.8857 12.7383 20.8561 11.4352 23.8854C11.2441 24.3297 11.2373 24.8317 11.4163 25.281C11.5953 25.7302 11.9454 26.09 12.3897 26.2811C12.834 26.4722 13.3359 26.479 13.7852 26.3C14.2345 26.121 14.5943 25.7709 14.7854 25.3266C15.5166 23.6267 17.1782 22.5327 19.0287 22.5327C20.8798 22.5327 22.5418 23.6274 23.2726 25.3282C23.4636 25.7725 23.8232 26.1228 24.2725 26.3019C24.7217 26.4811 25.2237 26.4745 25.668 26.2835C25.888 26.189 26.0872 26.052 26.2543 25.8805C26.4214 25.7089 26.5531 25.5062 26.6418 25.2837C26.7305 25.0613 26.7745 24.8236 26.7714 24.5841C26.7682 24.3447 26.7179 24.1082 26.6234 23.8882C25.3209 20.8574 22.3275 18.8857 19.0287 18.8857ZM42.9704 18.8857C39.6726 18.8857 36.68 20.8561 35.3769 23.8854C35.1858 24.3297 35.179 24.8317 35.358 25.281C35.537 25.7302 35.8871 26.09 36.3314 26.2811C36.7757 26.4722 37.2777 26.479 37.7269 26.3C38.1762 26.121 38.536 25.7709 38.7271 25.3266C39.4583 23.6267 41.1199 22.5327 42.9704 22.5327C44.8215 22.5327 46.4835 23.6274 47.2143 25.3282C47.4053 25.7725 47.7649 26.1228 48.2141 26.3019C48.6634 26.4811 49.1654 26.4745 49.6097 26.2835C49.8297 26.189 50.029 26.052 50.196 25.8805C50.3631 25.7089 50.4948 25.5062 50.5835 25.2837C50.6722 25.0613 50.7162 24.8236 50.7131 24.5841C50.7099 24.3447 50.6596 24.1082 50.5651 23.8882C49.2626 20.8574 46.2692 18.8857 42.9704 18.8857ZM16.6559 33.8606C16.3916 33.8606 16.1306 33.9181 15.8907 34.029C15.6509 34.1399 15.438 34.3016 15.2668 34.5029C15.0956 34.7042 14.9702 34.9403 14.8993 35.1949C14.8284 35.4494 14.8136 35.7164 14.8561 35.9772C15.4665 39.7259 17.4403 43.1331 20.4024 45.5835C23.3646 48.0339 27.12 49.3729 30.9996 49.3736C30.9999 49.3736 31.0001 49.3736 31.0004 49.3736C34.88 49.3729 38.6354 48.0339 41.5976 45.5835C44.5597 43.1331 46.5335 39.7259 47.1439 35.9772C47.1863 35.7164 47.1716 35.4494 47.1007 35.1949C47.0298 34.9403 46.9044 34.7042 46.7332 34.5029C46.562 34.3016 46.3491 34.1399 46.1093 34.029C45.8694 33.9181 45.6083 33.8606 45.3441 33.8606H16.6559ZM19.005 37.5076H42.995C42.2652 39.5326 40.9896 41.3532 39.2729 42.7733C36.9759 44.6735 34.0399 45.7258 31.0004 45.7266C27.9605 45.726 25.0243 44.6737 22.7271 42.7733C21.0104 41.3532 19.7348 39.5326 19.005 37.5076Z" fill="#0C2C7E"/>
</svg>
