<svg width="239" height="228" viewBox="0 0 239 228" fill="none" xmlns="http://www.w3.org/2000/svg">
<path d="M31.8794 41.7763C33.0815 38.8462 34.0402 35.7821 35.5284 33.0135C39.5677 25.4833 45.4316 19.5483 52.3082 14.7395C57.2328 11.2935 58.8048 9.44231 64.5527 7.737C65.2098 7.54402 67.5433 6.5556 68.1811 6.29173C87.3587 0.254133 100.501 0.254161 120.215 0.254161C127.559 -2.10889 139.872 12.7034 145.005 15.7832C147.823 17.4767 150.645 19.1662 153.432 20.9109C153.942 21.2299 154.302 21.797 154.731 22.25C153.961 22.2815 153.192 22.3405 152.423 22.3405C131.689 22.3445 110.958 22.3405 90.2242 22.3484C83.3863 22.3484 79.7721 26.0505 79.7721 33.0529C79.7721 47.2231 79.7837 61.3933 79.7914 75.5635C79.7914 78.6629 79.7914 81.7624 79.7914 85.2794C75.2341 80.8448 70.2747 81.3647 65.3231 82.7549C60.3599 84.1491 56.363 87.1934 53.1895 91.2342C49.2159 90.1866 46.5487 91.5808 45.2615 95.464C44.817 96.803 44.3686 98.3311 44.5735 99.6701C45.1108 103.132 45.8645 106.582 46.8193 109.949C47.546 112.517 48.8448 114.912 49.6411 117.464C50.3291 119.661 51.2066 121.918 50.592 123.702C45.965 124.769 41.6396 125.423 37.5384 126.778C27.3646 130.141 19.6414 136.439 15.1073 146.639C10.032 158.056 5.68335 169.714 2.57554 181.848C2.25858 181.245 1.79859 180.674 1.6517 180.028C-1.01545 168.359 0.538458 157.414 6.78886 147.127C10.2987 141.35 15.401 137.408 20.5305 133.375C27.1674 128.156 31.8175 121.398 34.0518 113.183C35.165 109.091 35.7062 104.77 35.9845 100.517C36.3633 94.7669 34.562 89.3241 32.8457 83.9167C31.8794 80.8724 30.9826 77.8044 30.0974 74.7364C29.9389 74.189 29.9776 73.5825 29.9235 73.0035C30.3062 73.2398 30.7043 73.4564 31.0715 73.7124C39.4093 79.5294 50.9669 77.3357 56.6993 68.8407C62.4318 60.3417 60.4449 48.3652 52.1652 42.6546C45.6558 38.1649 38.8101 38.1294 31.8833 41.7803L31.8794 41.7763Z" fill="#FFDAB9"/>
<path d="M2.57182 181.844C5.67962 169.714 10.0282 158.056 15.1035 146.635C19.6377 136.439 27.3608 130.137 37.5347 126.774C41.6359 125.419 45.9652 124.765 50.5882 123.698C51.2028 121.914 50.3254 119.657 49.6373 117.46C48.8372 114.908 47.5423 112.513 46.8156 109.945C45.8608 106.574 45.107 103.128 44.5697 99.6663C44.361 98.3312 44.8133 96.8031 45.2578 95.4601C46.545 91.5769 49.216 90.1788 53.1858 91.2303C56.3593 87.1896 60.3562 84.1452 65.3194 82.7511C70.2671 81.3608 75.2304 80.841 79.7877 85.2755C79.7877 81.7586 79.7877 78.6591 79.7877 75.5596C79.78 61.3894 79.7722 47.2192 79.7684 33.049C79.7684 26.0466 83.3864 22.3446 90.2205 22.3446C110.955 22.3446 131.685 22.3446 152.419 22.3367C153.188 22.3367 153.958 22.2776 154.727 22.2461C163.675 22.2776 172.624 22.3012 181.576 22.3485C186.149 22.3761 189.481 24.6288 190.795 28.6932C191.17 29.8471 191.193 31.135 191.278 32.3677C191.379 33.8682 191.371 35.3766 191.406 36.881C191.371 38.9093 191.309 40.9375 191.309 42.9658C191.302 85.8545 191.298 128.743 191.294 171.636C191.294 172.337 191.294 173.038 191.294 173.715C193.88 169.923 196.296 166.303 198.808 162.763C199.241 162.156 200.366 161.349 200.702 161.53C201.371 161.888 201.92 162.818 202.148 163.621C202.724 165.65 203.095 167.737 203.59 169.994C205.128 167.056 206.497 164.255 208.031 161.554C213.056 152.704 220.057 145.938 228.943 141.188C230.567 141.287 231.463 142.13 231.726 143.792C231.927 145.06 232.287 146.3 232.573 147.553C232.639 147.706 232.7 147.86 232.766 148.017C232.72 148.136 232.739 148.242 232.832 148.329C233.029 151.07 233.354 153.807 233.408 156.548C233.616 167.733 231.552 178.544 228.023 189.095C227.625 190.288 227.254 191.493 226.806 192.887C229.434 191.836 230.207 192.375 229.921 194.975C229.581 198.082 229.048 201.17 228.599 204.265C225.975 212.209 221.935 219.29 216.017 225.154C215.29 225.875 214.054 226.407 213.041 226.422C204.425 226.56 195.809 226.552 187.193 226.596C155.206 226.765 123.22 226.989 91.2333 227.092C68.8872 227.163 46.5411 227.072 24.195 227.056C20.1827 227.056 19.5101 226.158 20.5925 222.244C20.6775 221.933 20.7741 221.625 20.9249 221.113C17.0672 221.361 13.5265 220.503 10.0437 219.014C3.55364 216.234 0.530868 211.204 0.0940738 204.226C-0.34272 197.275 0.805313 190.512 2.22006 183.77C2.35535 183.128 2.45585 182.482 2.57182 181.84V181.844ZM121.04 159.884C121.677 160.943 122.311 162.003 122.949 163.062C123.757 165.11 124.569 167.158 125.377 169.206C125.415 169.738 125.458 170.273 125.496 170.805C125.458 171.656 125.431 172.506 125.377 173.357C124.951 180.036 122.18 185.133 115.926 187.874C112.563 188.969 109.18 188.925 105.543 187.779C105.744 188.736 105.883 189.414 106.026 190.087C106.513 195.211 107 200.335 107.487 205.458C107.526 205.982 107.565 206.502 107.607 207.026V222.421H109.393C134.901 222.421 160.409 222.421 185.917 222.421C188.948 222.421 189.686 221.716 189.864 218.62C189.898 218.03 189.887 217.439 189.887 216.848C189.887 181.537 189.895 146.229 189.887 110.918C189.887 99.107 189.848 87.292 189.825 75.4809C189.825 70.7548 189.825 66.0249 189.825 61.2988C189.844 52.1146 189.864 42.9303 189.879 33.7461C189.879 32.6985 189.925 31.6391 189.825 30.5993C189.578 27.9331 188.959 27.3935 186.362 27.3935C177.796 27.3935 169.23 27.429 160.664 27.3581C159.149 27.3463 158.19 27.7047 157.475 29.1618C155.921 32.3362 153.335 33.75 149.802 33.7225C140.143 33.6398 130.483 33.6358 120.823 33.7225C117.182 33.754 114.604 32.2259 113.108 28.9413C112.509 27.6259 111.712 27.3581 110.421 27.366C102.049 27.4132 93.6762 27.3896 85.3037 27.3896C81.875 27.3896 81.3957 27.8583 81.2411 31.4106C81.2179 31.9345 81.2218 32.4583 81.2218 32.986C81.2141 47.2231 81.1406 61.4642 81.2334 75.7014C81.2682 80.9749 80.5685 86.3153 82.2654 91.5021C82.4935 92.1952 82.2654 93.0577 82.1881 93.8336C81.875 97.13 81.4576 100.419 81.245 103.723C81.0942 106.074 81.2063 108.445 81.2063 110.808C81.2063 115.715 81.2063 120.618 81.2063 125.423C84.434 125.825 86.5947 127.873 88.9758 129.488C89.1305 129.594 89.2812 129.7 89.4358 129.807C89.5634 129.897 89.6948 129.988 89.8224 130.078C89.6484 130.401 89.4783 130.728 89.3044 131.051C87.5688 129.937 85.7791 128.897 84.1093 127.688C82.4239 126.471 81.0092 126.841 79.6331 128.129C78.1178 129.547 76.6103 130.976 75.1144 132.418C72.3429 135.088 71.9215 136.766 73.3479 139.861C76.2392 146.143 78.9373 152.527 82.1379 158.639C86.1966 166.386 90.6998 173.889 96.6835 180.328C99.3236 183.167 102.277 185.495 106.134 186.59C109.347 177.882 115.137 172.01 124.028 169.292C123.131 165.894 121.689 162.889 119.594 160.337C115.806 155.721 111.801 151.29 107.889 146.781C108.581 146.899 109.273 147.017 109.961 147.131C111.585 148.856 113.212 150.581 114.836 152.306L116.216 153.905L121.02 159.892L121.04 159.884ZM204.672 185.353C204.177 190.823 203.934 196.329 203.13 201.752C201.959 209.649 199.759 217.301 196.562 224.611C198.371 225.201 199.237 224.587 199.836 222.783C202.62 214.422 205.577 206.124 208.383 197.771C208.684 196.881 208.63 195.723 208.364 194.801C207.448 191.623 206.361 188.496 205.341 185.349C205.82 185.298 206.303 185.243 206.756 185.196C207.764 188.023 208.746 190.772 209.805 193.742C212.708 185.377 215.546 177.248 218.317 169.096C218.549 168.418 218.468 167.54 218.282 166.819C217.687 164.484 216.922 162.188 216.353 159.844C216.234 159.348 216.678 158.71 216.864 158.135C217.065 158.202 217.262 158.269 217.463 158.336C218.147 160.522 218.831 162.712 219.674 165.405C221.065 161.439 222.31 158.033 223.439 154.583C223.829 153.393 224.289 153.082 225.422 153.917C222.198 163.172 218.982 172.42 215.662 181.95C217.633 181.348 219.233 180.887 220.814 180.363C222.051 179.954 222.484 180.367 222.271 181.659C220.203 182.281 218.162 182.837 216.168 183.534C215.588 183.738 214.865 184.246 214.676 184.786C211.87 192.797 209.144 200.839 206.4 208.869C206.35 208.999 206.299 209.133 206.249 209.263C206.4 209.259 206.547 209.255 206.698 209.251C209.106 208.353 211.51 207.455 214.003 206.526C214.22 207.065 214.401 207.522 214.622 208.081C213.451 208.538 212.411 209.117 211.301 209.346C206.752 210.279 204.104 212.918 203.223 217.656C202.778 220.034 201.665 222.283 200.787 224.78C203.362 224.78 205.615 224.867 207.857 224.729C208.534 224.685 209.434 224.193 209.79 223.618C217.15 211.642 223.3 199.082 227.424 185.534C230.949 173.952 232.72 162.2 231.208 150.081C230.907 147.655 230.312 145.265 229.794 142.555C228.796 143.106 228.182 143.425 227.59 143.784C216.357 150.554 209.133 160.644 204.483 172.841C204.216 173.542 204.181 174.377 204.208 175.141C204.328 178.544 204.51 181.946 204.668 185.349L204.672 185.353ZM72.3352 133.78C70.3676 132.804 68.5548 131.823 66.6723 131.012C65.9611 130.704 65.0063 130.523 64.2951 130.736C59.556 132.177 52.865 131.461 49.6489 126.219C49.417 125.845 48.5821 125.585 48.1066 125.675C44.705 126.345 41.23 126.821 37.956 127.912C28.1726 131.173 20.5461 137.14 16.3366 146.997C14.1836 152.042 12.0499 157.103 10.0901 162.227C5.96953 173.002 2.75736 184.026 1.50882 195.581C1.35807 196.967 1.81806 197.743 2.73417 198.602C8.71786 204.226 14.3034 210.2 18.2036 217.585C19.4676 219.979 21.7057 220.964 24.2646 220.125C30.3875 218.12 35.9846 215.001 41.1527 211.181C46.0154 207.585 50.6191 203.623 55.3388 199.827C45.8995 210.669 35.571 220.239 21.4313 224.465C21.3308 226.292 22.6527 225.816 23.5534 225.82C46.2937 225.839 69.0341 225.855 91.7783 225.8C94.3372 225.792 96.927 225.52 99.4473 225.064C105.489 223.973 106.927 222.358 106.656 216.12C106.332 208.656 105.531 201.217 105.075 193.758C104.959 191.867 104.19 190.839 102.694 189.78C96.2313 185.2 91.6585 178.831 87.4026 172.234C81.0788 162.432 76.8654 151.566 72.3777 140.846C71.3611 138.42 70.6498 136.002 72.3352 133.772V133.78ZM61.7516 121.154C61.2955 120.591 60.8896 120.012 60.4064 119.512C59.5985 118.673 58.8177 117.791 59.6604 116.613C60.4412 115.526 61.5738 115.369 62.7721 115.928C64.2332 116.613 65.6866 117.306 67.1361 118.015C69.5134 119.177 69.6178 119.193 71.1137 116.893C74.1326 112.261 73.5102 107.047 73.5296 102.356C68.3306 102.112 63.3596 101.88 58.1838 101.639C57.1904 104.617 56.1119 107.842 54.8982 111.485C54.2488 108.701 54.3222 106.161 52.1962 104.573C49.2315 106.744 50.279 109.646 51.1719 113.344C51.6164 115.183 52.0532 117.074 52.0996 118.948C52.1537 121.095 51.7053 123.253 51.6319 125.411C51.6087 126.093 51.9141 126.955 52.3663 127.455C54.7668 130.09 60.6345 130.953 63.491 129.428V123.521C62.2889 122.926 60.7891 122.182 59.2854 121.438C59.328 121.343 59.3744 121.245 59.4169 121.15H61.7477L61.7516 121.154ZM72.6096 117.188C72.2308 117.68 71.9641 118.051 71.6742 118.397C69.8961 120.516 69.5946 120.579 67.1671 119.421C65.5359 118.645 63.924 117.826 62.2541 117.145C61.8366 116.975 61.2375 117.271 60.7195 117.35C60.9746 117.814 61.1215 118.448 61.5081 118.708C62.7991 119.567 64.1443 120.358 65.532 121.04C66.9699 121.745 67.2019 122.438 66.22 123.867C64.4613 126.431 64.7821 128.117 67.3178 129.85C68.6862 130.787 70.2633 131.449 71.8133 132.051C72.3622 132.264 73.3015 132.158 73.7499 131.795C75.4043 130.468 76.9311 128.976 78.5624 127.495C76.5407 124.001 74.6235 120.677 72.6096 117.196V117.188ZM79.6292 126.676V99.7884C77.9284 100.493 76.3552 101.147 75.3966 101.549C74.6815 106.389 74.0127 110.879 73.3634 115.369C73.3208 115.66 73.3518 116.026 73.4909 116.266C75.4507 119.63 77.4375 122.973 79.6292 126.676ZM194.63 195.573C196.052 187.578 197.394 180.064 198.743 172.471C198.286 172.368 197.826 172.262 197.254 172.132C196.551 175.976 195.878 179.639 195.175 183.486C194.042 182.277 193.126 181.301 192.225 180.34C190.652 181.442 191.746 182.163 192.38 182.758C194.123 184.392 194.827 186.019 194.348 188.693C192.894 196.778 190.637 204.797 191.286 213.166C191.286 213.201 191.197 213.245 191.151 213.28C191.201 213.284 191.251 213.288 191.259 213.288C191.414 212.989 191.638 212.721 191.692 212.421C192.148 209.976 192.751 207.538 192.964 205.069C193.377 200.287 194.475 196.097 199.748 194.659C199.806 194.644 199.891 194.604 199.906 194.557C200.084 194.077 200.254 193.592 200.424 193.108L199.902 192.848C198.313 193.671 196.725 194.494 194.63 195.577V195.573ZM191.255 219.278C192.929 217.919 194.467 216.671 196.118 215.332C195.751 214.867 195.453 214.489 195.055 213.989C193.737 215.757 190.88 216.057 191.255 219.278Z" fill="#0C2C7E"/>
<path d="M228.943 141.192C220.06 145.942 213.056 152.708 208.031 161.557C206.496 164.259 205.128 167.059 203.589 169.997C203.095 167.741 202.724 165.653 202.148 163.625C201.92 162.822 201.371 161.896 200.702 161.534C200.362 161.353 199.237 162.156 198.808 162.767C196.291 166.311 193.879 169.926 191.293 173.719C191.293 173.042 191.293 172.341 191.293 171.64C191.293 128.751 191.297 85.8623 191.309 42.9696C191.309 40.9414 191.375 38.9131 191.406 36.8849C195.947 36.3138 200.478 36.0972 204.977 37.259C209.511 38.4287 213.705 40.3585 217.308 43.395C223.597 48.696 227.667 55.3597 229.159 63.6539C230.311 70.0616 229.213 76.0833 227.064 82.0736C224.598 88.95 221.85 95.7673 220.041 102.825C217.165 114.045 219.329 124.722 225.027 134.686C226.283 136.88 227.632 139.022 228.935 141.188L228.943 141.192ZM212.909 62.4685C212.604 62.4173 212.298 62.3661 211.993 62.3149C211.15 63.2916 210.203 64.1934 209.496 65.2607C208.858 66.2217 208.27 66.4698 207.115 66.2296C205.827 65.9618 204.444 66.1666 203.102 66.1666C203.041 66.3399 202.979 66.5131 202.921 66.6864C203.547 67.3914 204.053 68.2972 204.822 68.758C206.871 69.9907 207.099 71.822 206.937 73.9488C206.871 74.8152 207.111 75.7092 207.207 76.5875C207.416 76.6111 207.625 76.6308 207.834 76.6544C208.344 76.0203 208.951 75.4453 209.341 74.7443C210.586 72.5152 212.333 71.4873 214.896 71.8929C215.53 71.9953 216.233 71.6527 216.902 71.5149C216.995 71.3258 217.087 71.1368 217.184 70.9477C214.177 68.9667 211.425 66.8479 212.913 62.4645L212.909 62.4685Z" fill="#FFDAB9"/>
<path d="M228.595 204.269C229.044 201.173 229.573 198.086 229.917 194.978C230.203 192.379 229.43 191.84 226.802 192.891C227.246 191.497 227.617 190.292 228.019 189.098C231.545 178.548 233.613 167.737 233.404 156.552C233.354 153.811 233.029 151.07 232.828 148.333C233.725 149.998 234.861 151.582 235.48 153.35C237.845 160.1 239.252 167.059 238.962 174.267C238.537 184.802 235.599 194.541 229.689 203.269C229.419 203.67 228.966 203.942 228.599 204.273L228.595 204.269Z" fill="#FFDAB9"/>
<path d="M31.8796 41.7762C38.8026 38.1254 45.6483 38.1608 52.1615 42.6505C60.4413 48.3612 62.4281 60.3377 56.6957 68.8367C50.9632 77.3317 39.4056 79.5293 31.0679 73.7084C30.7006 73.4524 30.3025 73.2358 29.9198 72.9995C25.7877 69.3172 23.1592 64.792 22.9273 59.1208C22.6258 51.63 25.8225 45.9115 31.8796 41.7762ZM41.4891 75.969C51.1952 75.9493 59.1464 68.0963 59.042 58.1243C58.9376 47.8295 51.4503 40.26 41.3692 40.1261C31.6902 39.9961 23.8279 48.2469 23.8047 58.0416C23.7815 68.0254 31.6361 75.9887 41.4852 75.969H41.4891Z" fill="#354379"/>
<path d="M235.039 115.939C233.435 114.463 232.167 115.105 230.845 115.691C230.717 115.746 229.913 114.793 229.995 114.663C230.713 113.466 230.648 112.336 230.06 111.123C229.929 110.851 230.01 110.182 230.165 110.119C230.505 109.981 231.065 109.949 231.336 110.15C232.264 110.839 233.083 110.993 234.134 110.343C234.973 109.823 235.708 110.347 235.271 111.245C234.691 112.43 234.954 113.301 235.468 114.337C235.619 114.644 235.248 115.223 235.043 115.936L235.039 115.939Z" fill="#0C2C7E"/>
<path d="M232.766 148.017C232.7 147.864 232.638 147.71 232.573 147.553C232.638 147.706 232.7 147.86 232.766 148.017Z" fill="#E4E4F1"/>
<path d="M189.829 75.4807C189.848 87.2918 189.887 99.1069 189.891 110.918C189.898 146.229 189.891 181.537 189.891 216.848C189.891 217.439 189.898 218.03 189.867 218.62C189.69 221.716 188.951 222.421 185.921 222.421C160.413 222.421 134.905 222.421 109.397 222.421H107.611V207.026C128.337 207.026 149.064 207.022 169.79 207.014C172.515 207.014 173.242 206.313 173.269 203.544C173.304 200.004 173.277 196.463 173.277 192.919C173.277 189.346 172.461 188.512 168.99 188.512C152.125 188.512 135.26 188.519 118.399 188.484C117.576 188.484 116.757 188.082 115.937 187.87C122.191 185.128 124.963 180.032 125.388 173.353C125.442 172.502 125.469 171.651 125.508 170.801C126.54 170.793 127.568 170.777 128.6 170.777C142.257 170.777 155.917 170.777 169.574 170.773C172.171 170.773 172.84 170.076 172.91 167.634C172.991 164.897 173.161 162.16 173.289 159.423C174.831 159.399 176.373 159.407 177.915 159.344C179.609 159.273 180.161 158.426 179.384 156.93C177.622 153.515 175.774 150.148 173.961 146.761C173.153 145.15 172.399 143.508 171.526 141.937C170.575 140.231 169.524 140.219 168.6 141.877C167.726 143.453 166.949 145.083 166.13 146.69C165.067 148.561 164 150.435 162.937 152.306C146.915 152.302 130.892 152.298 114.866 152.294C113.243 150.569 111.616 148.844 109.992 147.119C117.51 147.088 125.029 147.076 132.543 146.997C133.386 146.989 134.221 146.615 135.059 146.41H135.048C135.168 146.265 135.284 146.115 135.403 145.965C135.492 145.887 135.512 145.796 135.454 145.69C135.465 145.446 135.477 145.201 135.488 144.957C135.863 143.366 135.245 142.575 133.641 142.594C130.885 142.626 128.129 142.665 125.369 142.701C119.926 142.649 114.472 142.417 109.037 142.618C106.169 142.724 104.148 141.732 102.045 139.881C98.129 136.435 93.9312 133.319 89.8532 130.066C89.7256 129.976 89.5942 129.885 89.4666 129.795C89.312 129.688 89.1612 129.582 89.0066 129.476C86.6255 127.861 84.4609 125.813 81.2371 125.411C81.2371 120.606 81.2371 115.703 81.2371 110.796C81.2371 108.433 81.125 106.062 81.2758 103.711C81.4884 100.407 81.9058 97.118 82.2189 93.8216C82.2924 93.0418 82.5243 92.1793 82.2962 91.4901C80.5954 86.3072 81.2989 80.9629 81.2642 75.6894C81.1714 61.4523 81.2448 47.2112 81.2526 32.974C81.2526 32.4502 81.2526 31.9225 81.2719 31.3987C81.4265 27.8502 81.902 27.3776 85.3345 27.3776C93.707 27.3776 102.08 27.4012 110.452 27.354C111.743 27.3461 112.539 27.6139 113.139 28.9293C114.634 32.2139 117.213 33.742 120.854 33.7105C130.514 33.6238 140.173 33.6278 149.833 33.7105C153.366 33.7381 155.952 32.3242 157.506 29.1499C158.221 27.6927 159.18 27.3343 160.695 27.3461C169.261 27.417 177.827 27.3816 186.392 27.3816C188.99 27.3816 189.605 27.9211 189.856 30.5874C189.952 31.6271 189.91 32.6865 189.91 33.7341C189.894 42.9184 189.875 52.1026 189.856 61.2869C189.415 61.7161 188.874 62.0824 188.549 62.5905C186.377 65.9814 186.137 65.9971 183.049 63.6341C182.307 63.067 181.244 62.937 180.331 62.6062C178.391 61.3105 176.45 60.0108 174.51 58.7151C167.954 56.1237 162.086 57.5021 156.915 62.106C155.678 63.2048 154.147 64.4139 154.402 66.5209V66.4894C153.985 66.8517 153.563 67.218 153.142 67.5803C149.81 66.2728 146.474 64.9653 143.142 63.6577C142.864 62.5274 142.272 62.7125 141.588 63.2757C139.872 63.1418 138.144 62.8346 136.435 62.9095C133.513 63.0355 130.603 63.4018 127.688 63.6656C126.525 63.3899 125.145 62.2281 124.596 64.4533C122.369 65.5836 120.081 66.5958 117.936 67.86C111.809 71.4636 107.182 76.6031 104.294 83.1369C101.693 89.0286 100.522 95.2197 101.333 101.813C102.261 109.343 105.029 115.967 110.066 121.426C117.793 129.806 127.321 133.741 138.735 132.595C149.292 131.535 157.626 126.549 163.606 117.751C169.102 109.666 170.946 100.639 169.056 90.9112C172.423 90.5528 175.546 89.5761 178.298 87.4494C182.225 84.4168 184.096 80.2894 184.757 75.4571C186.454 75.461 188.155 75.4649 189.852 75.4689L189.829 75.4807ZM115.918 48.31V48.2982C110.062 48.2982 104.206 48.3257 98.3494 48.2785C96.8457 48.2667 96.2659 48.9165 96.2582 50.3894C96.2504 51.8309 96.7645 52.6067 98.2798 52.5988C109.861 52.5555 121.445 52.5398 133.026 52.5043C134.623 52.5004 135.597 51.7994 135.562 50.0271C135.523 48.2785 134.282 48.3139 133.103 48.3139C127.375 48.3021 121.65 48.31 115.922 48.31H115.918ZM182.913 33.4072C182.778 33.2458 182.639 33.0804 182.504 32.9189C182.14 33.2261 181.487 33.5057 181.46 33.8444C181.34 35.2071 181.371 36.5855 181.452 37.9521C181.472 38.2514 181.932 38.5232 182.187 38.8107C182.43 38.5113 182.863 38.2199 182.879 37.9088C182.952 36.4122 182.913 34.9077 182.913 33.4072ZM179.438 34.0846C179.276 33.9113 179.11 33.742 178.948 33.5687C178.607 33.9389 178.031 34.2776 177.973 34.6872C177.834 35.7191 177.877 36.7863 177.962 37.8261C177.989 38.1687 178.372 38.4798 178.592 38.8028C178.874 38.472 179.369 38.1608 179.4 37.8103C179.5 36.5737 179.438 35.3213 179.438 34.0768V34.0846ZM174.154 35.6363C174.506 36.6839 174.866 37.7473 175.225 38.8107C175.472 38.1293 175.832 37.4677 175.944 36.7667C176.099 35.7939 175.99 34.8802 174.154 35.6363Z" fill="#EFF6FF"/>
<path d="M72.3349 133.78C70.6457 136.009 71.3608 138.428 72.3774 140.854C76.8652 151.578 81.0785 162.444 87.4023 172.242C91.6582 178.839 96.2348 185.207 102.694 189.788C104.19 190.847 104.959 191.875 105.075 193.765C105.531 201.225 106.331 208.664 106.656 216.127C106.927 222.366 105.489 223.981 99.447 225.071C96.9268 225.528 94.3369 225.8 91.778 225.808C69.0377 225.863 46.2973 225.843 23.5531 225.828C22.6525 225.828 21.3305 226.3 21.431 224.473C35.5669 220.247 45.8992 210.677 55.3386 199.834C50.6189 203.635 46.0151 207.597 41.1524 211.189C35.9843 215.009 30.3911 218.124 24.2643 220.133C21.7093 220.972 19.4712 219.983 18.2034 217.592C14.3031 210.208 8.71758 204.23 2.73389 198.61C1.81778 197.747 1.36166 196.975 1.50854 195.589C2.75708 184.034 5.96539 173.006 10.0898 162.235C12.0496 157.111 14.1833 152.05 16.3363 147.005C20.5458 137.144 28.1723 131.181 37.9557 127.92C41.2297 126.829 44.7048 126.349 48.1063 125.683C48.5818 125.589 49.4206 125.848 49.6486 126.227C52.8647 131.469 59.5558 132.185 64.2948 130.744C65.006 130.527 65.9569 130.712 66.672 131.02C68.5545 131.831 70.3674 132.812 72.3349 133.788V133.78ZM68.9178 161.467C68.1563 161.573 67.3833 161.64 66.6295 161.798C61.9253 162.782 62.3427 161.625 62.3002 166.969C62.2925 167.745 62.1688 168.67 61.7474 169.261C60.5608 170.927 59.204 172.467 57.882 174.03C56.6335 175.507 55.327 176.929 54.0939 178.418C53.7885 178.788 53.4136 179.398 53.5179 179.769C54.3915 182.872 55.3695 185.944 56.2895 188.941C58.3227 188.311 60.209 187.728 62.3273 187.07C62.3273 188.22 62.3273 189.059 62.3273 189.898C62.3311 191.186 62.938 191.67 64.1788 191.371C67.9863 190.449 71.813 189.603 75.5896 188.571C76.181 188.409 76.9541 187.472 76.9773 186.865C77.1551 182.025 77.1705 177.177 77.2362 172.329C77.2478 171.297 77.2594 170.265 77.271 169.229C77.3097 167.721 77.3599 166.217 77.3831 164.708C77.4527 160.163 76.1771 159.285 71.9792 160.998C71.8478 161.053 71.8556 161.467 71.8014 161.715C71.6777 161.695 71.5502 161.695 71.4226 161.715L69.2928 161.404C69.1652 161.424 69.0415 161.443 68.914 161.463L68.9178 161.467ZM49.1964 177.937C49.1423 177.748 49.0882 177.555 49.034 177.366C43.8428 178.548 38.6515 179.733 33.0389 181.013C33.4602 177.216 33.8236 173.956 34.183 170.695C33.151 172.683 32.2387 174.672 31.7865 176.76C30.6384 182.057 27.2948 185.034 22.4283 186.586C22.3742 186.602 22.3703 186.775 22.2273 187.303C31.3806 184.124 40.2866 181.033 49.1964 177.937Z" fill="#FFA653"/>
<path d="M107.908 146.773C111.82 151.282 115.825 155.713 119.613 160.329C121.708 162.885 123.15 165.89 124.047 169.285C115.156 172.002 109.366 177.874 106.153 186.582C102.296 185.487 99.3387 183.159 96.7025 180.32C90.7188 173.881 86.2156 166.382 82.1569 158.631C78.9563 152.519 76.2543 146.131 73.3669 139.853C71.9405 136.758 72.3618 135.08 75.1334 132.41C76.6293 130.968 78.1368 129.539 79.6521 128.121C81.0281 126.833 82.4429 126.463 84.1282 127.68C85.7981 128.889 87.5878 129.929 89.3234 131.043C95.5158 136.285 101.712 141.527 107.905 146.773H107.908Z" fill="#FFA653"/>
<path d="M206.403 208.877C209.148 200.843 211.877 192.805 214.679 184.794C214.868 184.254 215.587 183.742 216.171 183.542C218.166 182.845 220.211 182.289 222.275 181.667C222.487 180.375 222.054 179.962 220.817 180.371C219.236 180.895 217.636 181.356 215.665 181.958C218.981 172.428 222.201 163.18 225.425 153.925C224.292 153.09 223.829 153.401 223.442 154.591C222.313 158.037 221.069 161.443 219.677 165.413C218.834 162.719 218.15 160.53 217.466 158.344C217.265 158.277 217.068 158.21 216.867 158.143C216.681 158.714 216.237 159.356 216.357 159.852C216.925 162.196 217.69 164.488 218.286 166.827C218.467 167.548 218.548 168.426 218.32 169.104C215.549 177.256 212.712 185.385 209.809 193.75C208.749 190.78 207.768 188.031 206.759 185.204C206.307 185.255 205.823 185.306 205.344 185.357C205.12 185.357 204.9 185.357 204.675 185.357C204.517 181.954 204.335 178.556 204.215 175.149C204.188 174.381 204.223 173.546 204.49 172.849C209.14 160.648 216.364 150.562 227.597 143.792C228.189 143.433 228.807 143.118 229.801 142.563C230.319 145.273 230.914 147.663 231.215 150.089C232.723 162.208 230.956 173.96 227.431 185.542C223.307 199.09 217.157 211.646 209.797 223.626C209.445 224.197 208.541 224.693 207.864 224.737C205.622 224.875 203.369 224.788 200.794 224.788C201.672 222.291 202.789 220.042 203.23 217.664C204.111 212.926 206.759 210.287 211.308 209.354C212.418 209.125 213.458 208.546 214.629 208.089C214.405 207.53 214.223 207.073 214.01 206.534C211.517 207.463 209.109 208.361 206.705 209.259C206.604 209.133 206.504 209.003 206.407 208.877H206.403Z" fill="#FBFCFC"/>
<path d="M107.484 205.458C106.997 200.335 106.51 195.211 106.022 190.087C127.128 190.087 148.233 190.107 169.334 190.052C171.178 190.048 171.835 190.579 171.762 192.501C171.63 195.904 171.727 199.318 171.723 202.725C171.723 204.537 170.834 205.444 169.056 205.447C148.531 205.451 128.005 205.454 107.48 205.458H107.484Z" fill="#EFF6FF"/>
<path d="M125.377 169.206C124.569 167.158 123.757 165.11 122.949 163.062C123.1 162.436 123.355 161.814 123.382 161.183C123.444 159.703 122.466 159.187 121.044 159.888C119.443 157.891 117.843 155.894 116.239 153.901C131.523 153.89 146.81 153.878 162.094 153.866C161.704 154.681 161.325 155.504 160.919 156.316C159.837 158.47 160.332 159.352 162.666 159.376C165.685 159.403 168.704 159.419 171.723 159.443C171.723 161.896 171.623 164.362 171.762 166.807C171.874 168.721 171.19 169.265 169.342 169.257C154.688 169.19 140.031 169.218 125.377 169.218V169.206ZM146.695 163.728C147.58 162.542 148.515 161.818 148.415 161.298C148.275 160.589 147.444 159.785 146.729 159.521C146.393 159.395 145.187 160.435 145.187 160.943C145.191 161.68 145.933 162.416 146.691 163.724L146.695 163.728ZM129.837 158.706C129.203 159.864 128.496 160.577 128.542 161.239C128.581 161.821 129.466 162.341 129.977 162.893C130.603 162.274 131.588 161.731 131.735 161.014C131.836 160.518 130.769 159.781 129.841 158.706H129.837ZM140.722 161.183C139.679 160.36 139.064 159.517 138.442 159.506C137.947 159.498 136.992 160.573 137.05 161.069C137.128 161.727 137.908 162.597 138.55 162.778C138.979 162.901 139.69 161.979 140.722 161.179V161.183Z" fill="#EFF6FF"/>
<path d="M61.7515 121.154H59.4207C59.3782 121.248 59.3318 121.347 59.2893 121.441C60.7929 122.186 62.2927 122.93 63.4948 123.525V129.432C60.6383 130.953 54.7706 130.094 52.3701 127.459C51.9179 126.963 51.6125 126.097 51.6357 125.415C51.7091 123.257 52.1614 121.099 52.1034 118.952C52.0532 117.074 51.6164 115.187 51.1757 113.348C50.2867 109.65 49.2353 106.751 52.2001 104.577C54.326 106.165 54.2526 108.701 54.902 111.489C56.1196 107.846 57.1942 104.617 58.1876 101.643C63.3634 101.884 68.3344 102.12 73.5334 102.36C73.5141 107.051 74.1364 112.261 71.1175 116.897C69.6177 119.197 69.5172 119.181 67.1399 118.019C65.6904 117.31 64.237 116.617 62.7759 115.932C61.5776 115.368 60.445 115.53 59.6642 116.617C58.8177 117.791 59.6024 118.677 60.4102 119.516C60.8934 120.016 61.2993 120.595 61.7554 121.158L61.7515 121.154Z" fill="#FBFBFC"/>
<path d="M107.483 205.458C128.009 205.455 148.534 205.451 169.06 205.447C170.835 205.447 171.724 204.54 171.727 202.725C171.727 199.315 171.634 195.904 171.766 192.501C171.839 190.579 171.182 190.048 169.338 190.052C148.233 190.107 127.131 190.087 106.026 190.087C105.887 189.41 105.744 188.732 105.543 187.779C109.184 188.925 112.563 188.969 115.926 187.874C116.745 188.086 117.568 188.484 118.388 188.488C135.253 188.524 152.118 188.516 168.979 188.516C172.454 188.516 173.265 189.355 173.265 192.923C173.265 196.463 173.292 200.004 173.258 203.548C173.231 206.317 172.508 207.014 169.779 207.018C149.052 207.026 128.326 207.026 107.599 207.03C107.561 206.506 107.522 205.986 107.48 205.462L107.483 205.458Z" fill="#0C2C7E"/>
<path d="M72.6093 117.192C74.6232 120.677 76.5443 123.997 78.5621 127.491C76.9309 128.976 75.404 130.468 73.7496 131.791C73.2974 132.154 72.3619 132.26 71.813 132.047C70.263 131.449 68.6859 130.783 67.3175 129.846C64.7818 128.113 64.461 126.427 66.2197 123.864C67.1977 122.438 66.9696 121.741 65.5317 121.036C64.144 120.354 62.7988 119.563 61.5078 118.704C61.1212 118.448 60.9744 117.81 60.7192 117.346C61.2372 117.263 61.8363 116.971 62.2538 117.141C63.9237 117.822 65.5356 118.641 67.1668 119.417C69.5943 120.571 69.8958 120.508 71.6739 118.393C71.9638 118.047 72.2305 117.676 72.6093 117.184V117.192Z" fill="#FAFAFB"/>
<path d="M107.909 146.773C101.716 141.531 95.5201 136.289 89.3276 131.043C89.5016 130.72 89.6717 130.393 89.8456 130.07C93.9275 133.324 98.1215 136.443 102.037 139.885C104.14 141.736 106.162 142.728 109.03 142.622C114.465 142.421 119.915 142.653 125.361 142.705C125.353 143.028 125.381 143.358 125.33 143.677C125.017 145.592 125.848 146.076 127.653 146.029C130.116 145.966 132.586 146.269 135.056 146.411C134.217 146.615 133.378 146.99 132.539 146.997C125.021 147.072 117.503 147.088 109.988 147.12C109.296 147.001 108.605 146.883 107.917 146.769L107.909 146.773Z" fill="#364277"/>
<path d="M204.672 185.353C204.896 185.353 205.117 185.353 205.341 185.353C206.361 188.5 207.448 191.627 208.364 194.805C208.63 195.727 208.681 196.881 208.383 197.775C205.577 206.128 202.62 214.426 199.837 222.787C199.237 224.591 198.375 225.205 196.562 224.615C199.759 217.305 201.959 209.653 203.13 201.756C203.934 196.333 204.177 190.827 204.672 185.357V185.353Z" fill="#F6F7F9"/>
<path d="M79.6255 126.679C77.4377 122.977 75.4508 119.634 73.4872 116.27C73.3442 116.026 73.3171 115.66 73.3596 115.372C74.009 110.879 74.6778 106.389 75.3929 101.553C76.3554 101.155 77.9247 100.501 79.6255 99.7922V126.679Z" fill="#E3E3F1"/>
<path d="M125.376 169.206C140.03 169.206 154.688 169.178 169.342 169.245C171.19 169.253 171.87 168.714 171.762 166.796C171.623 164.35 171.723 161.888 171.723 159.431C172.245 159.431 172.763 159.427 173.285 159.423C173.153 162.16 172.983 164.897 172.906 167.634C172.836 170.076 172.164 170.773 169.57 170.773C155.913 170.781 142.253 170.773 128.596 170.777C127.564 170.777 126.536 170.793 125.504 170.801C125.465 170.269 125.423 169.734 125.384 169.202L125.376 169.206Z" fill="#0C2C7E"/>
<path d="M194.63 195.577C196.725 194.494 198.314 193.671 199.902 192.848L200.424 193.108C200.254 193.592 200.084 194.077 199.906 194.557C199.887 194.604 199.806 194.644 199.748 194.659C194.475 196.097 193.377 200.287 192.964 205.069C192.751 207.538 192.144 209.976 191.692 212.421C191.638 212.721 191.414 212.989 191.259 213.288C191.251 213.288 191.201 213.284 191.151 213.28C191.197 213.241 191.29 213.197 191.286 213.166C190.641 204.797 192.894 196.782 194.348 188.693C194.827 186.019 194.123 184.392 192.38 182.758C191.75 182.167 190.656 181.442 192.225 180.34C193.126 181.301 194.042 182.277 195.175 183.486C195.878 179.639 196.551 175.976 197.254 172.132C197.826 172.262 198.286 172.368 198.743 172.471C197.39 180.068 196.052 187.582 194.63 195.573V195.577Z" fill="#F1F2F6"/>
<path d="M162.091 153.858C146.807 153.87 131.519 153.882 116.235 153.894C115.775 153.362 115.315 152.83 114.855 152.295C130.877 152.298 146.899 152.302 162.926 152.306C162.647 152.822 162.369 153.338 162.091 153.854V153.858Z" fill="#0C2C7E"/>
<path d="M189.829 75.4808C188.132 75.4769 186.431 75.473 184.734 75.469C184.92 70.5894 183.485 66.2927 180.308 62.6182C181.224 62.949 182.287 63.079 183.025 63.6461C186.114 66.0091 186.354 65.9933 188.526 62.6024C188.851 62.0944 189.392 61.732 189.833 61.2988C189.833 66.0249 189.833 70.7548 189.833 75.4808H189.829Z" fill="#F6F7F9"/>
<path d="M191.255 219.282C190.88 216.06 193.737 215.761 195.055 213.993C195.453 214.497 195.747 214.871 196.118 215.336C194.471 216.675 192.929 217.923 191.255 219.282Z" fill="#E8E8F3"/>
<path d="M121.04 159.884C122.462 159.183 123.44 159.699 123.378 161.179C123.351 161.81 123.096 162.432 122.945 163.058C122.307 161.999 121.673 160.939 121.036 159.88L121.04 159.884Z" fill="#0C2C7E"/>
<path d="M206.706 209.255C206.555 209.259 206.408 209.263 206.257 209.267C206.308 209.137 206.358 209.003 206.408 208.873C206.509 208.999 206.609 209.129 206.706 209.255Z" fill="#FBFCFC"/>
<path d="M212.909 62.4645C211.425 66.8479 214.173 68.9667 217.18 70.9477C217.088 71.1367 216.995 71.3258 216.898 71.5148C216.226 71.6527 215.526 71.9953 214.892 71.8929C212.329 71.4872 210.582 72.5152 209.337 74.7443C208.947 75.4453 208.34 76.0203 207.83 76.6544C207.621 76.6307 207.413 76.6111 207.204 76.5874C207.103 75.7052 206.864 74.8152 206.933 73.9487C207.096 71.822 206.867 69.9907 204.819 68.758C204.053 68.2972 203.543 67.3914 202.917 66.6864C202.979 66.5131 203.041 66.3398 203.099 66.1665C204.44 66.1665 205.824 65.9617 207.111 66.2295C208.271 66.4698 208.854 66.2217 209.492 65.2607C210.199 64.1934 211.146 63.2876 211.989 62.3148C212.295 62.366 212.6 62.4172 212.905 62.4684L212.909 62.4645Z" fill="#FEFEFE"/>
<path d="M41.4891 75.9691C31.64 75.9888 23.7855 68.0215 23.8086 58.0417C23.8318 48.247 31.6941 39.9962 41.3732 40.1261C51.4542 40.2601 58.9377 47.8296 59.0459 58.1244C59.1503 68.0924 51.1991 75.9494 41.493 75.9691H41.4891ZM43.3445 63.8272C43.2286 61.1373 45.0183 59.6171 46.6804 57.9511C50.3487 54.2767 49.9931 48.6054 45.9151 46.6047C42.8575 45.1042 39.6415 45.1239 36.6651 46.9041C34.5739 48.1525 33.708 50.2202 33.7157 52.784H38.5823C38.4664 52.6107 38.3504 52.4335 38.2344 52.2602C39.1931 51.4844 40.0512 50.4368 41.1412 50.0351C41.7906 49.7988 43.2904 50.3619 43.5378 50.9527C43.9669 51.9649 43.9862 53.3511 43.677 54.4303C43.4141 55.344 42.5135 56.1316 41.7636 56.8169C39.7226 58.6876 38.7292 60.9443 38.9341 63.8232H43.3407L43.3445 63.8272ZM41.1528 66.651C39.5603 66.6431 38.3736 67.7655 38.3775 69.27C38.3775 70.8296 39.4791 71.9323 41.0717 71.9796C42.7609 72.0268 43.9514 70.9005 43.9437 69.2621C43.936 67.7537 42.7686 66.6589 41.1528 66.651Z" fill="#FCFCFD"/>
<path d="M169.033 90.9231C170.923 100.651 169.079 109.678 163.582 117.763C157.603 126.561 149.269 131.547 138.712 132.607C127.302 133.753 117.769 129.814 110.042 121.438C105.006 115.975 102.238 109.351 101.31 101.824C100.499 95.2317 101.67 89.0406 104.271 83.1488C107.159 76.6151 111.782 71.4795 117.912 67.8719C120.062 66.6077 122.35 65.5916 124.573 64.4652C124.828 64.4652 125.087 64.4652 125.342 64.4613C125.164 68.0688 124.986 71.6803 124.801 75.3784H151.905C152.036 76.2094 152.098 77.064 152.315 77.8753C154.514 86.2128 160.127 90.5844 169.033 90.9271V90.9231ZM146.919 94.5543C146.806 92.1283 146.795 89.8322 146.582 87.5558C146.084 82.1918 141.847 78.1077 136.664 77.4697C130.069 76.6545 125.713 80.9079 124.63 85.8229C124.008 88.6546 124.082 91.6438 123.834 94.6724C122.273 94.7591 120.869 95.3262 120.858 97.3308C120.827 103.36 120.823 109.39 120.877 115.42C120.893 117.129 121.867 118.011 123.591 118.007C131.376 117.995 139.157 118.015 146.942 117.988C149.018 117.98 149.729 117.239 149.752 115.172C149.814 109.603 149.864 104.034 149.891 98.4651C149.907 95.6058 149.57 95.1923 146.919 94.5503V94.5543Z" fill="#FFC997"/>
<path d="M151.905 75.3744H124.801C124.982 71.6762 125.164 68.0648 125.342 64.4572C126.115 64.1973 126.892 63.9334 127.665 63.6735C130.58 63.4096 133.494 63.0434 136.413 62.9173C138.121 62.8425 139.845 63.1497 141.565 63.2836C142.083 63.4096 142.601 63.5396 143.119 63.6656C146.451 64.9732 149.787 66.2807 153.119 67.5882C152.713 70.1836 152.307 72.779 151.905 75.3744Z" fill="#FFC997"/>
<path d="M162.091 153.858C162.369 153.342 162.648 152.826 162.926 152.31C163.989 150.44 165.056 148.565 166.119 146.694C167.108 146.726 168.098 146.757 169.091 146.789V153.37C169.343 153.468 169.598 153.571 169.849 153.669C170.178 153.204 170.761 152.759 170.796 152.271C170.924 150.451 170.873 148.616 170.889 146.785C171.909 146.777 172.934 146.769 173.954 146.757C175.767 150.144 177.615 153.512 179.377 156.926C180.15 158.427 179.602 159.273 177.908 159.34C176.366 159.403 174.824 159.395 173.282 159.419C172.76 159.419 172.242 159.423 171.72 159.427C168.701 159.403 165.682 159.388 162.663 159.36C160.328 159.34 159.834 158.458 160.916 156.3C161.322 155.493 161.701 154.669 162.091 153.85V153.858Z" fill="#A12121"/>
<path d="M115.918 48.31C121.647 48.31 127.371 48.3021 133.1 48.3139C134.283 48.3139 135.523 48.2785 135.558 50.0271C135.597 51.7994 134.619 52.5004 133.022 52.5043C121.442 52.5398 109.857 52.5555 98.2761 52.5989C96.7647 52.6028 96.2467 51.8269 96.2545 50.3894C96.2622 48.9165 96.8459 48.2667 98.3457 48.2785C104.202 48.3257 110.058 48.2982 115.914 48.2982V48.31H115.918Z" fill="#0C2C7E"/>
<path d="M151.905 75.3744C152.311 72.7791 152.717 70.1837 153.119 67.5883C153.54 67.226 153.962 66.8597 154.383 66.4974L154.356 66.5368C154.48 66.7691 154.603 67.0015 154.727 67.2338C154.224 69.6481 153.208 72.082 153.304 74.4686C153.691 84.1176 161.059 90.4505 170.703 89.2374C179.156 88.1741 185.229 78.596 182.894 70.2703C181.468 65.1898 178.298 61.795 173.656 59.6801C173.93 59.3611 174.205 59.0381 174.479 58.7191C176.42 60.0148 178.36 61.3145 180.301 62.6102C183.478 66.2847 184.912 70.5814 184.727 75.4611C184.066 80.2934 182.195 84.4208 178.267 87.4534C175.511 89.5801 172.392 90.5568 169.025 90.9152C160.119 90.5725 154.507 86.201 152.307 77.8635C152.095 77.0522 152.033 76.2015 151.897 75.3665L151.905 75.3744Z" fill="#A12121"/>
<path d="M135.052 146.419C132.586 146.273 130.112 145.974 127.65 146.037C125.844 146.08 125.013 145.599 125.326 143.685C125.377 143.37 125.35 143.04 125.357 142.713C128.113 142.677 130.869 142.638 133.629 142.606C135.234 142.587 135.852 143.378 135.477 144.969C135.465 145.214 135.454 145.458 135.442 145.702C135.5 145.808 135.485 145.899 135.392 145.978C135.272 146.127 135.156 146.277 135.036 146.427H135.048L135.052 146.419Z" fill="#252D65"/>
<path d="M154.734 67.2378C154.611 67.0054 154.487 66.7731 154.363 66.5407L154.387 66.5328C154.131 64.4258 155.662 63.2168 156.899 62.1179C162.067 57.514 167.939 56.1356 174.495 58.727C174.22 59.046 173.946 59.369 173.671 59.688C164.8 57.0257 157.811 61.1846 154.738 67.2417L154.734 67.2378Z" fill="#A12121"/>
<path d="M169.091 146.793C168.102 146.761 167.112 146.73 166.119 146.698C166.938 145.091 167.715 143.461 168.589 141.885C169.513 140.223 170.564 140.239 171.515 141.945C172.388 143.516 173.142 145.158 173.95 146.769C172.93 146.777 171.905 146.785 170.885 146.797C170.286 146.797 169.686 146.797 169.087 146.797L169.091 146.793Z" fill="#A12121"/>
<path d="M182.914 33.4034C182.914 34.9039 182.953 36.4084 182.879 37.9049C182.864 38.2161 182.427 38.5075 182.188 38.8068C181.932 38.5233 181.469 38.2515 181.453 37.9483C181.372 36.5816 181.341 35.1993 181.461 33.8406C181.492 33.5019 182.141 33.2222 182.505 32.915C182.64 33.0765 182.779 33.2419 182.914 33.4034Z" fill="#0C2C7E"/>
<path d="M179.438 34.0847C179.438 35.3292 179.5 36.5816 179.399 37.8183C179.372 38.1688 178.874 38.4799 178.592 38.8107C178.371 38.4839 177.989 38.1727 177.961 37.834C177.876 36.7904 177.834 35.7231 177.973 34.6952C178.027 34.2856 178.607 33.9469 178.947 33.5767C179.11 33.7499 179.276 33.9193 179.438 34.0926V34.0847Z" fill="#0C2C7E"/>
<path d="M174.15 35.6364C175.986 34.8763 176.095 35.7939 175.94 36.7667C175.828 37.4677 175.472 38.1294 175.221 38.8107C174.862 37.7473 174.502 36.684 174.15 35.6364Z" fill="#0C2C7E"/>
<path d="M127.669 63.6735C126.896 63.9335 126.119 64.1974 125.346 64.4573C125.091 64.4573 124.832 64.4573 124.577 64.4612C125.126 62.2321 126.506 63.3939 127.669 63.6735Z" fill="#FDFDFD"/>
<path d="M143.119 63.6697C142.601 63.5436 142.083 63.4137 141.565 63.2877C142.245 62.7245 142.841 62.5394 143.119 63.6697Z" fill="#FDFDFD"/>
<path d="M154.383 66.5283C154.383 66.5283 154.359 66.54 154.359 66.5361C154.359 66.5322 154.387 66.5012 154.387 66.4973L154.383 66.5245V66.5283Z" fill="#FAFAFC"/>
<path d="M71.4226 161.715C71.5502 161.696 71.6739 161.696 71.8014 161.715C73.2471 161.715 74.6966 161.715 75.9838 161.715V187.267C71.7241 188.279 67.6963 189.233 63.5835 190.209V187.157C65.6322 186.535 67.7311 186.216 69.5015 185.263C70.8621 184.526 72.1841 183.179 72.8528 181.773C74.1709 178.989 74.0202 175.905 73.3862 172.92C72.9378 170.817 72.188 170.466 70.2514 171.215C68.0287 172.073 65.8254 172.971 63.6376 173.841V163.495C64.1517 163.417 64.5305 163.385 64.9016 163.294C67.0778 162.779 69.2541 162.247 71.4265 161.719L71.4226 161.715Z" fill="#FAFAFB"/>
<path d="M71.4225 161.715C69.2462 162.243 67.0739 162.771 64.8976 163.29C64.5304 163.377 64.1477 163.413 63.6336 163.491V173.837C65.8215 172.967 68.0286 172.069 70.2474 171.211C72.184 170.462 72.9339 170.813 73.3822 172.916C74.0162 175.901 74.1669 178.989 72.8488 181.769C72.184 183.175 70.8581 184.526 69.4975 185.259C67.731 186.216 65.6282 186.535 63.5795 187.153V190.205C67.6923 189.228 71.724 188.271 75.9798 187.263V161.711C74.6926 161.711 73.2431 161.711 71.7974 161.711C71.8554 161.463 71.8438 161.05 71.9752 160.994C76.1731 159.281 77.4448 160.159 77.3791 164.704C77.3559 166.213 77.3057 167.717 77.267 169.226C77.2554 170.257 77.2438 171.289 77.2322 172.325C77.1665 177.169 77.151 182.017 76.9732 186.862C76.95 187.468 76.177 188.405 75.5855 188.567C71.8052 189.595 67.9822 190.445 64.1748 191.367C62.9301 191.666 62.3271 191.182 62.3232 189.894C62.3232 189.055 62.3232 188.216 62.3232 187.066C60.205 187.724 58.3187 188.307 56.2854 188.937C55.3655 185.94 54.3875 182.868 53.5139 179.765C53.4096 179.394 53.7845 178.78 54.0899 178.414C55.3191 176.925 56.6295 175.503 57.878 174.026C59.2 172.463 60.5567 170.919 61.7434 169.257C62.1686 168.662 62.2923 167.737 62.2962 166.965C62.3387 161.621 61.9212 162.775 66.6255 161.794C67.3792 161.636 68.1485 161.569 68.9138 161.463C69.0414 161.443 69.1651 161.424 69.2926 161.404L71.4225 161.715ZM62.358 170.777C62.2227 170.702 62.0913 170.632 61.956 170.557C61.3839 171.222 60.7848 171.868 60.2514 172.561C58.5583 174.751 56.8653 176.937 55.2379 179.178C54.9944 179.513 54.948 180.162 55.0717 180.592C55.7056 182.825 56.4246 185.03 57.074 187.114C60.5761 186.33 64.0008 185.763 67.3058 184.774C72.2497 183.297 74.4143 176.535 71.4998 171.947C68.5157 173.172 65.5122 174.408 62.358 175.7V170.777Z" fill="#0C2C7E"/>
<path d="M49.1967 177.933C40.2868 181.025 31.377 184.12 22.2275 187.299C22.3706 186.771 22.3783 186.598 22.4285 186.582C27.2951 185.03 30.6387 182.053 31.7868 176.756C32.239 174.668 33.1513 172.679 34.1833 170.691C33.82 173.952 33.4605 177.209 33.0392 181.009C38.6556 179.729 43.843 178.548 49.0343 177.362C49.0884 177.551 49.1425 177.744 49.1967 177.933Z" fill="#2E396F"/>
<path d="M77.2358 172.333C77.2477 171.301 77.2595 170.269 77.2713 169.234C77.2595 170.265 77.2477 171.297 77.2358 172.333Z" fill="#3F4A7F"/>
<path d="M146.695 163.724C145.933 162.412 145.195 161.68 145.191 160.943C145.191 160.435 146.393 159.395 146.733 159.521C147.444 159.785 148.279 160.585 148.419 161.298C148.519 161.814 147.584 162.542 146.698 163.728L146.695 163.724Z" fill="#0C2C7E"/>
<path d="M169.113 156.016C168.567 155.036 168.536 155.471 168.533 154.92C168.533 154.541 169.395 153.764 169.639 153.858C170.149 154.055 170.747 154.653 170.847 155.185C170.919 155.571 170.249 156.115 169.614 157.001L169.113 156.016Z" fill="#EFF6FF"/>
<path d="M129.837 158.702C130.765 159.777 131.832 160.514 131.731 161.01C131.588 161.727 130.602 162.27 129.972 162.889C129.462 162.341 128.581 161.818 128.538 161.235C128.492 160.573 129.199 159.856 129.833 158.702H129.837Z" fill="#0C2C7E"/>
<path d="M140.723 161.179C139.691 161.979 138.98 162.897 138.551 162.778C137.909 162.597 137.128 161.727 137.051 161.069C136.993 160.573 137.948 159.498 138.442 159.506C139.065 159.514 139.679 160.36 140.723 161.183V161.179Z" fill="#0C2C7E"/>
<path d="M43.3481 63.8271H38.9415C38.7367 60.9482 39.7301 58.6915 41.771 56.8208C42.5248 56.1316 43.4216 55.3439 43.6844 54.4342C43.9975 53.3551 43.9782 51.9648 43.5453 50.9566C43.294 50.3698 41.7981 49.8027 41.1487 50.039C40.0586 50.4367 39.1966 51.4883 38.2419 52.2641C38.3578 52.4374 38.4738 52.6146 38.5898 52.7879H33.7232C33.7155 50.2241 34.5813 48.1564 36.6725 46.908C39.6489 45.1278 42.8611 45.1081 45.9225 46.6086C50.0005 48.6093 50.3523 54.2806 46.6879 57.955C45.0257 59.621 43.2399 61.1412 43.352 63.8311L43.3481 63.8271Z" fill="#0C2C7E"/>
<path d="M41.1523 66.6471C42.7681 66.6549 43.9354 67.7498 43.9432 69.2582C43.9509 70.8966 42.7604 72.019 41.0712 71.9757C39.4786 71.9323 38.3808 70.8296 38.377 69.2661C38.377 67.7616 39.5636 66.6352 41.1523 66.6471Z" fill="#29336A"/>
<path d="M146.919 94.5542C149.574 95.1962 149.907 95.6097 149.891 98.469C149.864 104.038 149.814 109.607 149.752 115.175C149.729 117.243 149.018 117.984 146.942 117.991C139.157 118.015 131.376 117.999 123.591 118.011C121.863 118.011 120.889 117.129 120.877 115.424C120.823 109.394 120.827 103.364 120.858 97.3347C120.87 95.3301 122.273 94.763 123.834 94.6763C124.082 91.6477 124.008 88.6546 124.631 85.8268C125.713 80.9118 130.065 76.6623 136.664 77.4736C141.847 78.1155 146.084 82.1957 146.582 87.5597C146.795 89.8361 146.81 92.1321 146.919 94.5582V94.5542ZM127.688 94.6921H143.123C143.123 92.2897 143.274 90.0015 143.088 87.7409C142.779 83.9207 139.532 81.022 135.67 80.8842C131.859 80.7464 128.214 83.452 127.746 87.1462C127.437 89.5801 127.688 92.0849 127.688 94.6921ZM137.506 111.036C137.615 109.307 137.495 107.815 137.847 106.452C138.221 104.987 138.361 103.672 137.116 102.738C135.929 101.852 134.468 101.801 133.405 102.919C132.327 104.05 132.23 105.456 133.142 106.866C133.409 107.279 133.622 107.878 133.548 108.338C133.08 111.261 133.053 111.261 136.045 111.178C136.548 111.162 137.05 111.084 137.506 111.036Z" fill="#0C2C7E"/>
<path d="M169.091 145.611C169.69 145.611 170.289 145.611 170.888 145.611C170.873 147.443 170.923 149.274 170.795 151.097C170.761 151.582 170.181 152.031 169.848 152.495C169.597 152.397 169.342 152.295 169.091 152.196V145.615V145.611Z" fill="#EFF6FF"/>
<path d="M154.735 67.2377C157.804 61.1805 164.792 57.0216 173.668 59.684C178.31 61.7989 181.48 65.1937 182.906 70.2742C185.241 78.6038 179.168 88.1819 170.714 89.2413C161.07 90.4504 153.703 84.1215 153.316 74.4725C153.219 72.0858 154.232 69.6519 154.739 67.2377H154.735ZM174.939 75.8155L174.383 75.1775C174.054 74.7049 173.726 74.2283 173.378 73.7321C174.858 72.1449 176.3 70.6011 177.641 69.1636C176.134 67.5213 174.746 66.009 173.343 64.4769C171.677 66.0799 170.196 67.5016 168.646 68.9942C167.038 67.4346 165.531 65.9696 164.22 64.6975C162.543 66.2453 161.043 67.6276 159.497 69.0572C161.066 70.7586 162.45 72.2631 163.842 73.7754C163.459 74.2795 163.15 74.6852 162.84 75.0947C162.589 75.3586 162.338 75.6225 162.091 75.8864C161.217 76.7134 160.34 77.5365 159.454 78.3754C161.066 80.0689 162.477 81.5497 163.958 83.1014C165.573 81.5615 167.096 80.1083 168.635 78.6353C170.227 80.1634 171.708 81.5891 172.883 82.7194C174.483 81.1992 175.995 79.7656 177.579 78.2612C176.733 77.4775 175.836 76.6504 174.939 75.8194V75.8155Z" fill="#A12121"/>
<path d="M62.3584 170.777V175.7C65.5087 174.404 68.5161 173.172 71.5002 171.947C74.4147 176.535 72.2501 183.293 67.3062 184.774C64.0012 185.763 60.5765 186.33 57.0744 187.113C56.425 185.03 55.706 182.821 55.0721 180.592C54.9484 180.162 54.9948 179.516 55.2383 179.178C56.8656 176.941 58.5587 174.751 60.2518 172.561C60.7891 171.868 61.3882 171.222 61.9564 170.557C62.0917 170.631 62.2231 170.702 62.3584 170.777Z" fill="#FAFBFC"/>
<path d="M127.688 94.6882C127.688 92.081 127.437 89.5762 127.746 87.1423C128.214 83.4442 131.859 80.7424 135.67 80.8803C139.532 81.0221 142.779 83.9168 143.088 87.737C143.274 89.9976 143.123 92.2858 143.123 94.6882H127.688Z" fill="#FFC997"/>
<path d="M138.382 111.174C137.926 111.221 136.548 111.158 136.045 111.174C132.391 111.289 132.198 111.174 133.142 108.953C133.142 108.953 133.409 107.271 133.142 106.862C132.23 105.448 132.327 104.042 133.405 102.915C134.468 101.801 135.933 101.848 137.116 102.734C138.361 103.668 138.225 104.983 137.846 106.448C137.495 107.815 138.491 109.445 138.382 111.174Z" fill="#FFC997"/>
<path d="M162.845 75.0908C163.154 74.6812 163.463 74.2756 163.846 73.7715C162.454 72.2592 161.07 70.7586 159.501 69.0533C161.051 67.6237 162.551 66.2413 164.225 64.6936C165.535 65.9657 167.042 67.4307 168.65 68.9903C170.201 67.4977 171.681 66.0759 173.347 64.473C174.75 66.005 176.138 67.5174 177.645 69.1597C176.3 70.6011 174.862 72.141 173.382 73.7282C173.726 74.2244 174.054 74.697 174.387 75.1735C171.526 75.2759 168.67 75.4177 165.805 75.4532C164.82 75.465 163.834 75.2169 162.845 75.0869V75.0908Z" fill="#EFF6FF"/>
<path d="M174.939 75.8156C175.836 76.6426 176.733 77.4736 177.579 78.2573C175.994 79.7618 174.483 81.1953 172.883 82.7156C171.708 81.5852 170.227 80.1635 168.635 78.6315C167.092 80.1005 165.573 81.5537 163.957 83.0976C162.477 81.5459 161.066 80.065 159.454 78.3715C160.339 77.5366 161.217 76.7096 162.09 75.8825C166.373 75.8589 170.656 75.8352 174.939 75.8156Z" fill="#EFF6FF"/>
<path d="M174.939 75.8155C170.656 75.8391 166.373 75.8627 162.09 75.8824C162.342 75.6186 162.593 75.3547 162.84 75.0908C163.826 75.2208 164.815 75.4689 165.801 75.4571C168.662 75.4216 171.522 75.2799 174.382 75.1775C174.568 75.3901 174.753 75.6028 174.939 75.8155Z" fill="#EFF6FF"/>
</svg>
