<svg width="63" height="63" viewBox="0 0 63 63" fill="none" xmlns="http://www.w3.org/2000/svg">
<path d="M31.5 3.31818C47.0939 3.31818 59.6818 15.9061 59.6818 31.5C59.6818 47.0939 47.0939 59.6818 31.5 59.6818C15.9061 59.6818 3.31818 47.0939 3.31818 31.5C3.31818 15.9061 15.9061 3.31818 31.5 3.31818ZM31.5 0.5C14.403 0.5 0.5 14.403 0.5 31.5C0.5 48.597 14.403 62.5 31.5 62.5C48.597 62.5 62.5 48.597 62.5 31.5C62.5 14.403 48.597 0.5 31.5 0.5ZM23.0455 36.197C23.0455 36.0091 23.0455 35.8212 22.9515 35.7273C22.8576 35.5394 22.7636 35.3515 22.6697 35.2576L14.7788 27.3667C14.2152 26.803 13.3697 26.803 12.8061 27.3667C12.2424 27.9303 12.2424 28.7758 12.8061 29.3394L18.2545 34.7879H13.1818C12.4303 34.7879 11.7727 35.4455 11.7727 36.197C11.7727 36.9485 12.4303 37.6061 13.1818 37.6061H21.6364C21.8242 37.6061 22.0121 37.6061 22.1061 37.5121C22.2939 37.4182 22.4818 37.3242 22.5758 37.2303C22.6697 37.1364 22.7636 36.9485 22.8576 36.7606C23.0455 36.5727 23.0455 36.3848 23.0455 36.197ZM49.8182 34.7879H44.7455L50.1939 29.3394C50.7576 28.7758 50.7576 27.9303 50.1939 27.3667C49.6303 26.803 48.7849 26.803 48.2212 27.3667L40.3303 35.2576C40.2364 35.3515 40.0485 35.5394 40.0485 35.7273C39.9545 35.8212 39.9545 36.0091 39.9545 36.197C39.9545 36.3848 39.9545 36.5727 40.0485 36.6667C40.1424 36.8545 40.2364 37.0424 40.3303 37.1364C40.4242 37.2303 40.6121 37.3242 40.8 37.4182C40.9879 37.5121 41.1758 37.5121 41.2697 37.5121H49.7242C50.4758 37.5121 51.1333 36.8545 51.1333 36.103C51.2273 35.4455 50.5697 34.7879 49.8182 34.7879ZM35.2576 46.5303C35.2576 45.7788 34.6 45.1212 33.8485 45.1212H29.1515C28.4 45.1212 27.7424 45.7788 27.7424 46.5303C27.7424 47.2818 28.4 47.9394 29.1515 47.9394H33.8485C34.6 47.9394 35.2576 47.2818 35.2576 46.5303Z" fill="#0C2C7E"/>
</svg>
