<svg width="62" height="62" viewBox="0 0 62 62" fill="none" xmlns="http://www.w3.org/2000/svg">
<path d="M57.9017 52.6687L43.5772 49.1395V47.4687H53.9377C54.6286 47.4687 55.3094 47.3399 55.9237 47.0929C56.538 46.8459 57.0679 46.4879 57.4694 46.0487C57.8709 45.6095 58.1324 45.1017 58.2321 44.5677C58.3318 44.0336 58.2669 43.4886 58.0427 42.9781L50.7966 26.4746C50.5962 26.0142 50.2504 25.6007 49.7914 25.2723C49.3323 24.9439 48.7748 24.7111 48.1702 24.5955L46.0678 24.1899C46.2814 24.8417 46.1973 25.5313 45.8301 26.1399L47.575 26.4765C47.7766 26.5149 47.9626 26.5925 48.1157 26.702C48.2689 26.8114 48.3842 26.9493 48.4511 27.1028L55.6972 43.6067C55.7933 43.8256 55.8211 44.0591 55.7783 44.288C55.7355 44.5169 55.6235 44.7345 55.4514 44.9227C55.2793 45.111 55.0522 45.2644 54.7889 45.3702C54.5256 45.476 54.2338 45.5313 53.9377 45.5312H42.3971L42.4619 37.0892H45.5903C45.9192 37.0892 46.2346 36.9871 46.4671 36.8054C46.6996 36.6238 46.8303 36.3774 46.8303 36.1205V32.8164C46.8303 32.5595 46.6996 32.3131 46.4671 32.1314C46.2346 31.9497 45.9192 31.8476 45.5903 31.8476C45.2615 31.8476 44.9461 31.9497 44.7135 32.1314C44.481 32.3131 44.3503 32.5595 44.3503 32.8164V35.1517H41.2292C40.9016 35.1518 40.5874 35.2531 40.355 35.4335C40.1227 35.6139 39.9912 35.8588 39.9892 36.1148L39.982 37.0576L39.5242 36.9459L33.3008 28.5284C33.0675 28.213 32.7322 27.951 32.3283 27.7689C31.9244 27.5867 31.4663 27.4909 31 27.4909C30.5337 27.4909 30.0756 27.5867 29.6718 27.7689C29.2679 27.951 28.9325 28.213 28.6993 28.5284L22.4758 36.9459L22.018 37.0576L22.0108 36.1148C22.0088 35.8588 21.8773 35.6139 21.645 35.4335C21.4127 35.2531 21.0984 35.1518 20.7709 35.1517H17.6497V32.8164C17.6497 32.5595 17.5191 32.3131 17.2865 32.1314C17.054 31.9497 16.7386 31.8476 16.4098 31.8476C16.0809 31.8476 15.7655 31.9497 15.533 32.1314C15.3004 32.3131 15.1698 32.5595 15.1698 32.8164V36.1205C15.1698 36.3774 15.3004 36.6238 15.533 36.8054C15.7655 36.9871 16.0809 37.0892 16.4098 37.0892H19.5381L19.6029 45.5312H8.06233C7.76625 45.5313 7.47444 45.476 7.21118 45.3702C6.94791 45.2644 6.72079 45.111 6.5487 44.9227C6.37661 44.7345 6.26452 44.5169 6.22176 44.288C6.179 44.0591 6.2068 43.8256 6.30285 43.6067L13.5489 27.1023C13.6159 26.949 13.7312 26.8113 13.8842 26.7019C14.0372 26.5926 14.223 26.5152 14.4244 26.4767L16.1701 26.1399C15.8028 25.5314 15.7186 24.8419 15.932 24.1901L13.8293 24.5957C13.2248 24.7113 12.6674 24.944 12.2085 25.2723C11.7496 25.6006 11.4039 26.0139 11.2034 26.4741L3.95734 42.9781C3.73318 43.4886 3.66826 44.0336 3.76799 44.5677C3.86771 45.1017 4.1292 45.6095 4.5307 46.0487C4.9322 46.4879 5.46211 46.8459 6.07637 47.0929C6.69063 47.3399 7.37149 47.4687 8.06233 47.4687H18.4229V49.1395L4.09841 52.6687C2.88687 52.9968 1.83867 53.6152 1.10297 54.4357C0.367266 55.2562 -0.0184605 56.2371 0.000679348 57.2388C0.000679348 59.8641 2.56903 62 5.72588 62H56.2742C59.431 62 61.9994 59.8641 61.9994 57.2336C62.0175 56.2327 61.6312 55.2528 60.8956 54.4333C60.1599 53.6138 59.1123 52.9963 57.9017 52.6687ZM23.6776 38.6826C23.9745 38.6099 24.2256 38.4529 24.3812 38.2424L29.7601 30.9669V36.1205C29.7601 36.3774 29.8907 36.6238 30.1232 36.8055C30.3558 36.9871 30.6712 37.0892 31 37.0892C31.3289 37.0892 31.6443 36.9871 31.8768 36.8055C32.1094 36.6238 32.24 36.3774 32.24 36.1205V30.9669L37.6189 38.2424C37.7745 38.4529 38.0256 38.6099 38.3224 38.6826L39.9665 39.0839L39.9395 42.625H38.2243L31.7314 38.9189C31.5093 38.7922 31.2397 38.7267 30.9648 38.7328C30.69 38.7389 30.4255 38.8161 30.2129 38.9524L23.7327 43.1113L22.0644 43.1189L22.0336 39.0839L23.6776 38.6826ZM20.9028 47.4647C21.2234 47.4554 21.5268 47.3489 21.7485 47.1677C21.9702 46.9865 22.0927 46.7449 22.0901 46.4943L22.0791 45.0564L24.1874 45.0469C24.472 45.0455 24.7474 44.9678 24.9673 44.8267L31.0448 40.9261L37.0885 44.3759C37.3008 44.4971 37.5569 44.5625 37.8199 44.5625H39.9247L39.9099 46.4943C39.9073 46.7449 40.0299 46.9865 40.2516 47.1677C40.4733 47.3489 40.7766 47.4554 41.0972 47.4647V48.9912H20.9028V47.4647ZM26.3114 60.0625H23.8702C23.2947 60.0625 22.7427 59.8839 22.3358 59.5659C21.9288 59.248 21.7002 58.8168 21.7002 58.3672C21.7002 57.9175 21.9288 57.4863 22.3358 57.1684C22.7427 56.8505 23.2947 56.6719 23.8702 56.6719H26.3114V60.0625ZM56.2742 60.0625H28.7913V54.7344H39.3311C39.66 54.7344 39.9754 54.6323 40.2079 54.4506C40.4404 54.2689 40.5711 54.0225 40.5711 53.7656C40.5711 53.5087 40.4404 53.2623 40.2079 53.0806C39.9754 52.8989 39.66 52.7969 39.3311 52.7969H27.5513C27.2225 52.7969 26.9071 52.8989 26.6746 53.0806C26.442 53.2623 26.3114 53.5087 26.3114 53.7656V54.7344H23.8702C23.0689 54.7342 22.2811 54.8958 21.5834 55.2036C20.8856 55.5114 20.3015 55.9549 19.8878 56.491C19.4741 57.0271 19.2448 57.6377 19.2221 58.2635C19.1995 58.8892 19.3843 59.5089 19.7585 60.0625H5.72588C3.93615 60.0625 2.48063 58.7957 2.48063 57.2336C2.45963 56.6441 2.67663 56.0645 3.10088 55.5768C3.52512 55.089 4.13509 54.718 4.84432 54.5163L19.4062 50.9287H42.5939L57.1557 54.5163C57.8658 54.7186 58.4764 55.0904 58.9007 55.5791C59.325 56.0678 59.5415 56.6485 59.5194 57.2388C59.5194 58.7957 58.0639 60.0625 56.2742 60.0625Z" fill="#0C2C7E"/>
<path d="M27.28 13.554C26.9512 13.554 26.6358 13.656 26.4032 13.8377C26.1707 14.0194 26.0401 14.2658 26.04 14.5227V14.5397C26.0403 14.6665 26.0726 14.792 26.1351 14.909C26.1976 15.0259 26.2891 15.1321 26.4044 15.2214C26.5196 15.3106 26.6563 15.3812 26.8066 15.429C26.9569 15.4768 27.1178 15.5009 27.28 15.5C27.6094 15.4988 27.9247 15.3958 28.1571 15.2135C28.3894 15.0311 28.5199 14.7843 28.5199 14.527C28.5199 14.2697 28.3894 14.0228 28.1571 13.8405C27.9247 13.6581 27.6094 13.5551 27.28 13.554Z" fill="#0C2C7E"/>
<path d="M18.3374 24.6371C18.258 24.8558 18.2795 25.0892 18.3981 25.2967C18.5168 25.5042 18.725 25.6725 18.9865 25.7721C20.1187 26.1703 21.3198 26.4363 22.5511 26.5615C22.9982 27.9129 23.6139 29.2267 24.3893 30.4842L25.9136 28.422C25.6081 27.8129 25.3491 27.1912 25.1245 26.5842C25.8342 26.5212 26.5306 26.387 27.1965 26.1849C28.7648 25.6937 30.0955 24.8293 31 23.7143C31.9044 24.8293 33.2351 25.6937 34.8034 26.1849C35.4697 26.3862 36.1666 26.5194 36.8766 26.581C36.6519 27.1888 36.3925 27.8114 36.0865 28.4215L37.6109 30.4838C38.3854 29.2276 39.0006 27.9151 39.4476 26.5652C40.6799 26.4402 41.8816 26.1729 43.0134 25.7721C43.2749 25.6725 43.4832 25.5042 43.6018 25.2967C43.7205 25.0892 43.742 24.8557 43.6625 24.6371C43.2554 23.5373 42.4813 22.5418 41.4197 21.7526C43.0651 18.9987 44.0197 16.0164 44.0197 13.8565C44.0089 12.045 43.3664 10.2701 42.1611 8.72258C40.9559 7.17506 39.2335 5.91348 37.1792 5.07349C37.1842 4.99651 37.1998 4.92173 37.1998 4.84375C37.1998 3.55911 36.5466 2.32708 35.3839 1.4187C34.2212 0.510322 32.6443 0 31 0C29.3556 0 27.7787 0.510322 26.616 1.4187C25.4533 2.32708 24.8001 3.55911 24.8001 4.84375C24.8001 4.92173 24.8157 4.99651 24.8208 5.07349C22.7665 5.91348 21.0441 7.17505 19.8388 8.72257C18.6335 10.2701 17.991 12.045 17.9802 13.8565C17.9802 16.0164 18.9348 18.9987 20.5802 21.7526C19.5186 22.5418 18.7446 23.5373 18.3374 24.6371ZM26.2998 24.3784C24.4277 24.96 22.3595 24.6393 21.1407 24.3429C22.3961 22.4499 25.3269 21.3706 28.4162 20.9892C28.7817 21.2401 29.1982 21.4417 29.6486 21.5856C29.3577 22.2024 28.9114 22.7673 28.3362 23.247C27.761 23.7267 27.0686 24.1114 26.2998 24.3784ZM35.7001 24.3784C34.9313 24.1114 34.2389 23.7267 33.6637 23.247C33.0885 22.7673 32.6422 22.2024 32.3512 21.5856C32.8016 21.4417 33.2181 21.2401 33.5836 20.9892C36.673 21.3705 39.6038 22.4496 40.8592 24.3429C39.1917 24.7997 37.3776 24.8122 35.7001 24.3784ZM31 1.9375C31.8612 1.93843 32.6954 2.17247 33.3606 2.59979C34.0258 3.0271 34.4809 3.6213 34.6486 4.28127C32.2656 3.73958 29.7343 3.73958 27.3513 4.28127C27.519 3.6213 27.9741 3.0271 28.6393 2.59979C29.3046 2.17247 30.1387 1.93843 31 1.9375ZM20.4602 13.8565C20.5246 11.7059 21.6633 9.6604 23.6328 8.15721C25.6024 6.65402 28.2466 5.81246 31 5.81246C33.7533 5.81246 36.3975 6.65402 38.3671 8.15721C40.3366 9.6604 41.4753 11.7059 41.5397 13.8565C41.4023 16.1776 40.6765 18.4544 39.4044 20.5548C38.1036 19.9672 36.6967 19.5363 35.2312 19.2768C35.3607 19.0468 35.3704 18.7865 35.2584 18.551C35.1464 18.3155 34.9214 18.1233 34.6311 18.0152C34.3408 17.907 34.008 17.8915 33.7033 17.9718C33.3985 18.052 33.1458 18.2219 32.9986 18.4453C32.4119 19.3308 31.6647 19.8594 31 19.8594C30.3352 19.8594 29.588 19.3308 29.0013 18.4453C28.8541 18.2219 28.6014 18.052 28.2967 17.9718C27.9919 17.8915 27.6591 17.907 27.3688 18.0152C27.0785 18.1233 26.8535 18.3155 26.7415 18.551C26.6295 18.7865 26.6392 19.0469 26.7687 19.2769C25.3032 19.5364 23.8963 19.9672 22.5955 20.5548C21.3234 18.4544 20.5976 16.1776 20.4602 13.8565Z" fill="#0C2C7E"/>
<path d="M25.4201 12.5938H27.7693C28.0982 12.5938 28.4136 12.4917 28.6461 12.31C28.8787 12.1283 29.0093 11.8819 29.0093 11.625C29.0093 11.3681 28.8787 11.1217 28.6461 10.94C28.4136 10.7583 28.0982 10.6562 27.7693 10.6562H25.4201C25.0913 10.6562 24.7759 10.7583 24.5434 10.94C24.3108 11.1217 24.1802 11.3681 24.1802 11.625C24.1802 11.8819 24.3108 12.1283 24.5434 12.31C24.7759 12.4917 25.0913 12.5938 25.4201 12.5938Z" fill="#0C2C7E"/>
<path d="M34.2307 12.5938H36.5799C36.9087 12.5938 37.2241 12.4917 37.4567 12.31C37.6892 12.1283 37.8198 11.8819 37.8198 11.625C37.8198 11.3681 37.6892 11.1217 37.4567 10.94C37.2241 10.7583 36.9087 10.6562 36.5799 10.6562H34.2307C33.9018 10.6562 33.5864 10.7583 33.3539 10.94C33.1214 11.1217 32.9907 11.3681 32.9907 11.625C32.9907 11.8819 33.1214 12.1283 33.3539 12.31C33.5864 12.4917 33.9018 12.5938 34.2307 12.5938Z" fill="#0C2C7E"/>
<path d="M34.72 13.554C34.3911 13.554 34.0757 13.656 33.8432 13.8377C33.6106 14.0194 33.48 14.2658 33.48 14.5227V14.5397C33.4802 14.6665 33.5125 14.792 33.575 14.909C33.6376 15.0259 33.7291 15.1321 33.8443 15.2214C33.9596 15.3106 34.0962 15.3812 34.2465 15.429C34.3968 15.4768 34.5577 15.5009 34.72 15.5C35.0493 15.4988 35.3647 15.3958 35.597 15.2135C35.8294 15.0311 35.9598 14.7843 35.9598 14.527C35.9598 14.2697 35.8294 14.0228 35.597 13.8405C35.3647 13.6581 35.0493 13.5551 34.72 13.554Z" fill="#0C2C7E"/>
</svg>
