<svg width="223" height="210" viewBox="0 0 223 210" fill="none" xmlns="http://www.w3.org/2000/svg">
<path d="M70.1568 158.948C69.5 159 71.8286 159.105 71.5 159.5C71.8729 158.298 69.7063 157.726 69.2042 158.229C69.2042 157.424 69.2042 158.335 68.6651 157.542C68.7464 157.18 69.027 156.641 68.883 156.486C67.4799 154.965 66.0105 153.506 64.5594 152.029C63.4702 150.685 62.381 149.338 61.2918 147.994C65.3422 147.983 69.3925 147.975 73.4428 147.964C75.599 149.962 77.5707 152.221 79.9447 153.909C88.6915 160.119 97.5823 166.122 106.384 172.255C107.307 172.897 107.872 172.643 108.655 172.107C115.02 167.754 121.356 163.353 127.806 159.129C134.541 154.721 140.677 149.618 145.872 143.504C157.514 129.802 163.192 113.756 163.414 95.8748C163.639 77.6059 163.477 59.3296 163.525 41.057C163.525 40.0011 163.248 39.4029 162.247 39.0005C156.173 36.5637 150.2 33.861 144.041 31.6604C129.8 26.5763 115.12 23.9659 99.9748 25.4354C93.484 26.0668 86.934 26.9825 80.661 28.6919C72.9259 30.8002 65.4492 33.8647 57.8618 36.5194C57.884 33.2998 57.9024 30.0765 57.9246 26.8569C70.7106 21.3556 84.0541 17.992 97.8887 16.6074C112.107 15.1859 126.042 16.9656 139.743 20.7574C150.403 23.7075 160.641 27.743 170.292 33.2075C171.596 33.9459 172.404 34.6807 172.353 36.4418C172.231 40.7395 172.415 45.0446 172.478 49.346C172.474 49.73 172.471 50.114 172.467 50.4979C172.438 52.7096 172.386 54.9175 172.382 57.1291C172.367 70.5797 172.46 84.034 172.316 97.4846C172.227 105.87 170.809 114.092 167.94 121.99C166.397 126.243 164.488 130.364 162.746 134.543C162.576 134.79 162.38 135.027 162.24 135.289C156.347 146.159 148.483 155.345 138.418 162.522C129.575 168.829 120.544 174.873 111.59 181.024C110.232 181.958 108.814 183.572 107.463 183.535C106.008 183.494 104.561 181.928 103.169 180.943C92.3394 173.3 81.525 165.635 70.6995 157.992C70.3598 157.752 70.3988 158.38 70 158.229C69.9003 158.38 69.3076 157.822 69.2042 157.974C69.518 158.299 69.8356 158.623 70.1494 158.945L70.1568 158.948Z" fill="#0C2C7E"/>
<path d="M73.4396 147.968C69.3892 147.979 65.3389 147.986 61.2886 147.997C60.8714 148.001 60.4505 148.008 60.0333 148.012C43.2412 147.997 26.4529 147.983 9.66085 147.971C6.65911 147.971 3.65737 147.971 0.552246 147.971V128.085C1.26114 128.085 1.97373 128.085 2.68263 128.085C17.444 128.085 32.2053 128.085 46.9666 128.078C47.3322 128.078 47.7014 128.03 48.0669 128.004C48.414 128.004 48.761 128.004 49.1081 128.004C52.3388 128.012 55.5694 128.019 58.8001 128.03C60.2068 128.137 61.6098 128.329 63.0165 128.333C78.328 128.362 93.6358 128.366 108.947 128.373C109.649 128.373 110.35 128.373 111.251 128.373V144.571C111.244 145.453 111.24 146.332 111.233 147.215C110.568 147.466 109.9 147.938 109.235 147.938C97.3058 147.983 85.3764 147.971 73.4433 147.971L73.4396 147.968ZM47.214 139.162C47.3654 140.897 47.4983 142.411 47.6312 143.921C47.8971 143.895 48.1592 143.873 48.4251 143.847V139.143C50.105 139.989 51.5006 140.69 52.8963 141.392C53.0181 141.167 53.1363 140.945 53.2581 140.72C51.9179 139.871 50.5739 139.018 49.1118 138.087C50.5037 137.194 51.844 136.334 53.1843 135.473C53.0698 135.256 52.9517 135.041 52.8372 134.824C51.4305 135.536 50.0201 136.252 48.2367 137.157V132.287C48.0152 132.272 47.7937 132.258 47.5759 132.243C47.454 133.768 47.3359 135.293 47.2066 136.939C45.6928 136.186 44.3637 135.529 43.0345 134.868C42.9274 135.075 42.8166 135.281 42.7096 135.488C44.0018 136.334 45.2941 137.176 46.7193 138.11C45.2793 139.018 43.9649 139.845 42.6542 140.668C42.7834 140.882 42.9089 141.097 43.0382 141.311C44.3969 140.609 45.7556 139.911 47.2214 139.158L47.214 139.162ZM9.53163 140.484C9.66085 140.713 9.79008 140.938 9.9193 141.167C11.3149 140.417 12.7143 139.664 14.5198 138.697V143.807C14.7265 143.796 14.9333 143.788 15.14 143.777C15.2139 142.241 15.2877 140.709 15.369 138.996C16.9234 139.764 18.3042 140.447 19.6851 141.13C19.7959 140.919 19.9067 140.705 20.0211 140.495C18.6772 139.631 17.3369 138.763 15.908 137.84C16.7683 137.338 17.5252 136.932 18.2415 136.467C18.8581 136.068 19.4304 135.603 20.0211 135.167L19.6187 134.609C18.2747 135.337 16.9344 136.064 15.417 136.888C15.2877 135.056 15.1844 133.568 15.081 132.077C14.8705 132.08 14.6601 132.084 14.4459 132.091C14.3758 133.646 14.3056 135.204 14.2318 136.836C12.6515 136.053 11.278 135.37 9.90823 134.691C9.80116 134.912 9.69039 135.13 9.58332 135.352C10.9051 136.164 12.2232 136.976 13.6779 137.87C12.2491 138.774 10.894 139.627 9.53901 140.484H9.53163ZM59.6345 134.886C59.509 135.119 59.3834 135.352 59.2579 135.584C60.6203 136.422 61.9827 137.26 63.4411 138.154C61.979 139.062 60.6019 139.915 59.2284 140.768C59.3576 140.978 59.4831 141.193 59.6124 141.403C60.9748 140.713 62.3372 140.026 63.8251 139.273C63.9765 140.942 64.1131 142.415 64.246 143.892C64.5008 143.866 64.7556 143.84 65.0066 143.814V139.073C66.6497 139.948 68.0305 140.683 69.4114 141.422L69.788 140.746C68.4404 139.9 67.0927 139.059 65.6675 138.165C67.0779 137.268 68.4256 136.415 69.7695 135.562C69.6477 135.329 69.5222 135.101 69.4003 134.868C67.9825 135.64 66.5647 136.408 64.8073 137.364V132.494C64.5968 132.483 64.3863 132.475 64.1759 132.464C64.0688 133.941 63.9617 135.414 63.8436 137.083C62.2892 136.275 60.96 135.581 59.6308 134.89L59.6345 134.886ZM31.0349 138.841V143.81C31.2712 143.799 31.5112 143.792 31.7475 143.781V138.922C33.4791 139.823 34.8784 140.55 36.2815 141.278C36.4107 141.06 36.5436 140.842 36.6728 140.624C35.3252 139.775 33.9776 138.926 32.4785 137.98C34.0551 137.006 35.351 136.201 36.647 135.396C36.5178 135.156 36.3922 134.916 36.263 134.68C34.8526 135.437 33.4385 136.197 31.6256 137.168V132.202C31.4373 132.198 31.249 132.195 31.0607 132.187C30.9795 133.749 30.902 135.311 30.817 136.961C29.2294 136.193 27.8522 135.529 26.475 134.861C26.3753 135.064 26.2757 135.267 26.176 135.47C27.4719 136.278 28.7679 137.083 30.2152 137.988C28.683 138.948 27.3833 139.767 26.08 140.583C26.2092 140.798 26.3384 141.008 26.4677 141.222C27.8375 140.502 29.2109 139.786 31.0312 138.833L31.0349 138.841ZM102.438 143.02C100.765 141.813 91.9965 141.902 90.826 143.02H102.438ZM74.1743 142.171C74.1854 142.441 74.2001 142.71 74.2112 142.976H85.1918C85.1918 142.743 85.1918 142.511 85.1918 142.278C81.5181 142.064 77.8443 142.19 74.1706 142.171H74.1743Z" fill="#5595E7"/>
<path d="M57.925 26.8606C57.9028 30.0802 57.8844 33.3035 57.8622 36.5231C57.8438 37.1323 57.8918 37.7562 57.7958 38.3544C57.4487 40.5918 58.213 42.3456 59.8302 43.9074C60.9858 45.0225 61.9089 46.3812 63.1863 47.9319H51.4563L42.5249 47.9393C42.2185 47.9393 41.912 47.9356 41.6056 47.9319C33.2502 47.9061 24.8911 47.8802 16.5357 47.8581C12.9653 47.847 12.0977 46.9793 12.0977 43.3942C12.0977 31.3466 12.0977 19.3027 12.0977 7.25515C12.0977 3.66266 12.8546 2.89099 16.3806 2.89099C28.7937 2.89099 41.2105 2.89099 53.6236 2.89099C56.81 2.89099 57.8142 3.88788 57.8327 7.07054C57.8659 13.2771 57.8881 19.4836 57.9139 25.6865C57.9139 26.0742 57.9213 26.4656 57.9213 26.8532L57.925 26.8606ZM21.1693 19.528C24.5034 18.8117 27.4165 18.184 30.5401 17.512C29.7057 16.6333 29.0115 15.9059 28.2029 15.053C31.7253 12.7787 35.3473 12.4279 38.9693 13.6537C44.4375 15.4998 47.0478 19.7126 47.5167 25.2841H51.1351C51.7443 20.9125 49.0564 15.186 44.7771 12.2507C38.3712 7.85697 31.8176 7.94189 25.264 12.103C24.6289 11.5085 24.0234 10.9363 23.2296 10.1904C22.5318 13.3472 21.8893 16.2567 21.1693 19.5243V19.528ZM41.6942 35.6111C36.2113 40.1562 23.8499 38.0258 22.3693 25.5241H18.8248C17.8759 35.3453 30.7099 47.5368 45.1131 38.5058C45.5119 39.1519 45.966 39.8866 46.4202 40.6214C46.5642 40.5438 46.7081 40.4626 46.8521 40.3851C47.502 37.4018 48.1518 34.4148 48.8533 31.21C45.5451 31.9189 42.6209 32.5466 39.5084 33.2186C40.3281 34.1158 41.0111 34.8653 41.6979 35.6185L41.6942 35.6111Z" fill="#FFC997"/>
<path d="M167.04 177.247C165.057 179.739 163.134 179.724 161.206 177.413C158.19 180.961 154.261 179.156 150.735 179.51C150.381 179.547 149.894 179.063 149.598 178.709C148.343 177.195 147.069 175.685 145.954 174.071C145.655 173.639 145.884 172.838 145.88 172.207C145.88 172.159 145.95 172.107 145.987 172.059C147.416 170.217 148.498 167.728 150.373 166.72C152.101 165.79 154.686 166.421 156.894 166.418C167.472 166.406 178.05 166.395 188.628 166.44C189.81 166.443 190.434 166.137 191.028 165.033C195.005 157.634 203.792 154.429 211.59 157.431C219.414 160.44 223.752 168.625 221.865 176.826C220.034 184.808 212.395 190.409 204.191 189.608C198.357 189.039 193.893 186.134 191.039 180.979C190.445 179.905 189.839 179.418 188.624 179.551C187.712 179.65 186.782 179.543 185.859 179.576C184.63 179.621 183.673 179.643 182.942 178.159C182.049 176.342 179.409 176.464 178.423 178.292C177.814 179.421 177.097 179.687 175.986 179.58C175.377 179.521 174.753 179.532 174.144 179.58C171.563 179.772 169.085 179.632 167.051 177.25L167.04 177.247ZM212.838 177.937C215.644 177.926 217.855 175.696 217.811 172.919C217.767 170.172 215.43 167.902 212.701 167.965C210.054 168.024 207.853 170.287 207.842 172.967C207.827 175.792 209.998 177.952 212.838 177.941V177.937ZM189.695 172.458C188.089 171.284 153.844 171.431 152.607 172.458H189.695Z" fill="#FFA653"/>
<path d="M28.1404 183.328C33.3981 184.432 37.6034 187.046 40.7935 191.329C41.7165 192.569 41.7165 193.444 40.8083 194.692C32.1575 206.614 14.387 205.569 7.06543 193.031C10.1226 187.773 14.7009 184.59 21.0293 183.283C18.1863 181.703 16.3254 179.639 15.8085 176.615C15.2842 173.543 16.1297 170.874 18.3635 168.71C21.956 165.225 27.7379 165.491 31.0609 169.253C34.8048 173.492 33.7562 178.687 28.1367 183.331L28.1404 183.328Z" fill="#0C2C7E"/>
<path d="M8.12129 200.445C2.74548 197.055 -2.61557 185.979 1.40152 174.681C5.13801 164.18 16.1001 157.424 27.5385 158.716C38.1646 159.916 47.3064 168.936 48.6947 179.591C50.1863 191.026 43.8764 201.674 33.0693 205.898C25.3379 208.918 15.273 207.094 12.1605 203.424C23.4623 208.538 33.7524 207.541 42.3035 198.148C46.5237 193.511 48.3919 187.758 47.9008 181.46C46.819 167.584 35.2293 158.808 23.3072 159.58C13.1316 160.237 5.88383 165.554 2.42426 175.128C-0.972549 184.524 1.54552 193.005 8.1176 200.448L8.12129 200.445Z" fill="#0C2C7E"/>
<path d="M57.9249 26.8605C57.9249 26.4728 57.9175 26.0814 57.9175 25.6938C68.1153 21.4736 78.6343 18.3389 89.5336 16.6147C105.281 14.1262 120.888 14.9791 136.347 18.8632C148.878 22.0127 160.759 26.7608 172.013 33.0929C172.471 33.3477 172.833 33.7723 173.239 34.1193C173.224 34.1784 173.184 34.2449 173.198 34.2929C173.232 34.4036 173.294 34.507 173.346 34.6104C173.346 35.4744 173.35 36.3383 173.354 37.1986C173.354 38.177 173.354 39.1555 173.354 40.1339C173.342 41.7326 173.328 43.335 173.317 44.9337C173.283 44.9743 173.217 45.0186 173.224 45.0482C173.243 45.1405 173.287 45.2254 173.32 45.314C173.313 45.6832 173.305 46.0488 173.298 46.418C173.283 46.5804 173.269 46.7466 173.254 46.909C173.239 47.725 173.224 48.5447 173.213 49.3606C172.97 49.3533 172.726 49.3459 172.482 49.3422C172.419 45.0408 172.231 40.7357 172.357 36.438C172.408 34.6768 171.6 33.9421 170.296 33.2037C160.649 27.7392 150.41 23.7037 139.747 20.7536C126.046 16.9618 112.111 15.1821 97.8927 16.6036C84.0581 17.9845 70.7146 21.3518 57.9286 26.8531L57.9249 26.8605Z" fill="#0C2C7E"/>
<path d="M70.1571 158.948C69.8433 158.623 69.5257 158.298 69.2119 157.977C69.3116 157.826 69.4113 157.674 69.5147 157.523C69.9134 157.678 70.3676 157.756 70.7072 157.996C81.5364 165.638 92.3471 173.303 103.176 180.946C104.568 181.928 106.016 183.498 107.47 183.538C108.822 183.575 110.239 181.962 111.598 181.027C120.552 174.876 129.583 168.832 138.426 162.526C148.49 155.348 156.355 146.166 162.247 135.292C162.391 135.03 162.583 134.794 162.753 134.547C162.894 134.831 163.034 135.119 163.174 135.403C159.334 143.072 154.032 149.633 148.007 155.673C142.317 161.378 135.627 165.746 129.033 170.254C122.287 174.865 115.519 179.451 108.803 184.11C107.858 184.768 107.208 184.875 106.237 184.188C94.3889 175.833 82.5185 167.514 70.6482 159.192C70.5005 159.089 70.3233 159.033 70.1608 158.952L70.1571 158.948Z" fill="#0C2C7E"/>
<path d="M41.6097 47.9356C41.9161 47.9356 42.2226 47.9393 42.529 47.9393C42.529 62.3905 42.5955 76.8417 42.4958 91.2892C42.4072 103.957 44.1794 116.252 49.1085 128.001C48.7614 128.001 48.4144 128.001 48.0673 128.001C45.2834 120.889 43.0792 113.616 42.289 105.995C41.8977 102.211 41.6503 98.3966 41.6355 94.5974C41.5654 79.0422 41.6097 63.487 41.6134 47.9319L41.6097 47.9356Z" fill="#0C2C7E"/>
<path d="M163.174 135.403C163.034 135.119 162.894 134.831 162.753 134.547C164.496 130.367 166.401 126.243 167.948 121.993C170.817 114.096 172.235 105.873 172.324 97.4884C172.468 84.0377 172.372 70.5834 172.39 57.1328C172.39 54.9212 172.445 52.7133 172.475 50.5017C172.73 50.498 172.981 50.4943 173.236 50.4906C173.269 57.7753 173.309 65.0599 173.335 72.3446C173.35 76.7531 173.35 81.1615 173.354 85.5663C173.354 85.9318 173.354 86.2937 173.354 86.6592C173.354 89.373 173.354 92.0867 173.354 94.8005C173.332 95.2214 173.309 95.6386 173.287 96.0595C173.272 109.713 170.005 122.562 163.688 134.65C163.547 134.916 163.352 135.152 163.178 135.403H163.174Z" fill="#0C2C7E"/>
<path d="M147.712 197.476C150.042 201.516 152.117 205.119 154.402 209.081H141.044C143.252 205.237 145.349 201.586 147.712 197.476ZM152.637 208.106C150.913 205.101 149.355 202.391 147.66 199.441C145.925 202.476 144.374 205.2 142.713 208.106H152.637Z" fill="#FFA653"/>
<path d="M22.9351 90.9939C22.9092 94.1138 20.5315 96.3845 17.3562 96.3254C14.3544 96.2663 12.069 93.8775 12.1059 90.8277C12.1391 87.8075 14.4874 85.4999 17.5334 85.4962C20.6902 85.4962 22.9646 87.8075 22.9351 90.9939ZM17.5851 86.4673C15.2701 86.4451 13.0548 88.6309 13.0659 90.9274C13.077 93.2867 15.2221 95.3839 17.5925 95.358C19.9518 95.3322 21.8865 93.4049 21.9603 91.016C22.0305 88.6272 19.9776 86.4894 17.5888 86.4673H17.5851Z" fill="#FFA653"/>
<path d="M179.154 31.9003C180.11 30.2979 198.361 23.6188 199.9 23.9142C199.963 24.0877 200.026 24.2612 200.089 24.4311C193.255 26.8679 186.417 29.3047 179.15 31.8967L179.154 31.9003Z" fill="#FFA653"/>
<path d="M173.398 19.3323C177.67 14.3184 181.946 9.30439 186.218 4.29041C186.458 4.48978 186.698 4.69285 186.938 4.89223C182.692 9.92467 178.442 14.9571 174.196 19.9896C173.93 19.7717 173.664 19.5539 173.398 19.3323Z" fill="#FFA653"/>
<path d="M161.325 13.8161L163.894 0C164.205 0.0553827 164.515 0.114457 164.825 0.16984C163.983 4.78506 163.145 9.40029 162.303 14.0155C161.978 13.9491 161.65 13.8826 161.325 13.8161Z" fill="#FFA653"/>
<path d="M60.0337 148.012C60.4509 148.008 60.8718 148.001 61.289 147.997C62.3782 149.345 63.4674 150.689 64.5566 152.033L63.8034 152.409C62.5481 150.944 61.289 149.478 60.0337 148.012Z" fill="#0C2C7E"/>
<path d="M63.803 152.409L64.5562 152.033C66.0072 153.51 67.4804 154.968 68.8798 156.489C69.0201 156.644 68.7431 157.183 68.6619 157.545C67.041 155.832 65.4202 154.123 63.7993 152.409H63.803Z" fill="#0C2C7E"/>
<path d="M191.438 87.5636H195.016C195.016 87.7298 195.016 87.8996 195.016 88.0658C193.819 88.7156 192.608 88.5827 191.386 88.1174C191.401 87.9328 191.419 87.7482 191.434 87.5599L191.438 87.5636Z" fill="#52C6D2"/>
<path d="M200.661 88.1139H197.036C197.036 87.9404 197.036 87.7631 197.036 87.5896H200.661C200.661 87.7631 200.661 87.9404 200.661 88.1139Z" fill="#52C6D2"/>
<path d="M178.116 88.1472H174.457C174.45 87.981 174.442 87.8112 174.435 87.645H178.05C178.072 87.8112 178.094 87.981 178.116 88.1472Z" fill="#52C6D2"/>
<path d="M206.306 88.125H202.721V87.5896H206.258L206.306 88.125Z" fill="#52C6D2"/>
<path d="M185.785 87.5564H189.304C188.185 88.8117 186.97 88.4794 185.759 88.1841C185.767 87.9736 185.774 87.7669 185.781 87.5564H185.785Z" fill="#52C6D2"/>
<path d="M180.225 87.608H183.766C183.766 87.7853 183.762 87.9625 183.758 88.1434H180.173C180.192 87.9662 180.207 87.7889 180.225 87.608Z" fill="#52C6D2"/>
<path d="M173.224 50.4906C172.969 50.4943 172.718 50.498 172.463 50.5017C172.467 50.1177 172.471 49.7337 172.474 49.3497C172.718 49.3571 172.962 49.3645 173.206 49.3682C173.209 49.7411 173.217 50.114 173.22 50.4906H173.224Z" fill="#0C2C7E"/>
<path d="M173.342 34.6106C173.291 34.5035 173.232 34.4038 173.195 34.293C173.18 34.245 173.22 34.1786 173.235 34.1195C173.272 34.282 173.305 34.4481 173.342 34.6106Z" fill="#9568A6"/>
<path d="M173.317 45.3215C173.284 45.2328 173.236 45.1479 173.221 45.0556C173.214 45.0224 173.28 44.9781 173.314 44.9412C173.314 45.0704 173.314 45.1959 173.317 45.3251V45.3215Z" fill="#9568A6"/>
<path d="M51.4598 47.9319H63.1899C61.9161 46.3812 60.993 45.0224 59.8337 43.9074C58.2165 42.3456 57.4522 40.5955 57.7993 38.3544C57.8916 37.7562 57.8473 37.1322 57.8658 36.523C65.4532 33.872 72.9262 30.8038 80.665 28.6956C86.938 26.9861 93.4879 26.0705 99.9788 25.4391C115.124 23.9696 129.804 26.58 144.045 31.6641C150.203 33.861 156.177 36.5673 162.251 39.0042C163.255 39.4066 163.532 40.0048 163.529 41.0607C163.481 59.3333 163.647 77.6096 163.418 95.8785C163.196 113.76 157.518 129.806 145.876 143.508C140.681 149.622 134.545 154.724 127.81 159.133C121.36 163.357 115.024 167.758 108.659 172.111C107.88 172.646 107.315 172.901 106.388 172.259C97.5862 166.126 88.6955 160.122 79.9487 153.912C77.5709 152.225 75.603 149.965 73.4468 147.968C85.3762 147.968 97.3056 147.979 109.239 147.935C109.907 147.935 110.572 147.462 111.236 147.211C111.421 147.071 111.761 146.934 111.764 146.794C111.794 143.519 111.786 140.24 111.786 136.965H111.605C111.487 139.502 111.369 142.034 111.255 144.567V128.37C110.354 128.37 109.652 128.37 108.951 128.37C93.6393 128.362 78.3315 128.359 63.0201 128.329C61.6133 128.329 60.2103 128.133 58.8036 128.026C53.941 117.537 51.4451 106.516 51.4303 94.9518C51.4081 79.2785 51.4488 63.6052 51.4635 47.9319H51.4598ZM89.7256 74.0356C88.9909 74.0614 88.2561 74.1057 87.5214 74.1094C84.5344 74.1279 83.3492 75.2466 83.3492 78.1671C83.3455 87.9366 83.3492 97.7061 83.3787 107.476C83.3861 109.979 84.4827 111.076 86.9565 111.079C100.533 111.101 114.112 111.112 127.689 111.098C130.388 111.098 131.669 109.92 131.687 107.199C131.743 97.4883 131.746 87.7816 131.687 78.0711C131.669 75.3057 130.292 74.1279 127.515 74.1131C126.718 74.1094 125.92 74.0651 125.126 74.0393C125.233 68.6672 124.864 63.4612 121.187 59.0379C113.278 49.5158 99.7572 50.3835 92.923 60.0311C89.9619 64.2107 89.5742 69.0918 89.733 74.0393L89.7256 74.0356Z" fill="#FFA653"/>
<path d="M51.4604 47.9319C51.4457 63.6052 51.4087 79.2785 51.4272 94.9518C51.442 106.512 53.9379 117.537 58.8005 128.026C55.5698 128.019 52.3392 128.012 49.1085 128.001C44.1795 116.256 42.4072 103.957 42.4958 91.2892C42.5955 76.838 42.5254 62.3905 42.5291 47.9393C45.505 47.9393 48.4845 47.9356 51.4604 47.9319Z" fill="#0C2C7E"/>
<path d="M47.2142 139.158C45.7484 139.911 44.3897 140.613 43.031 141.311C42.9017 141.097 42.7762 140.882 42.647 140.668C43.9577 139.841 45.2721 139.014 46.7121 138.11C45.2869 137.179 43.9946 136.334 42.7024 135.488C42.8094 135.281 42.9202 135.075 43.0273 134.868C44.3565 135.529 45.6856 136.186 47.1994 136.939C47.3287 135.292 47.4505 133.768 47.5686 132.243C47.7902 132.257 48.0117 132.272 48.2295 132.287V137.157C50.0166 136.252 51.4233 135.536 52.83 134.824C52.9445 135.041 53.0626 135.255 53.1771 135.473C51.8368 136.334 50.4929 137.194 49.1046 138.087C50.5704 139.018 51.9107 139.867 53.2509 140.72C53.1291 140.945 53.0109 141.167 52.8891 141.392C51.4934 140.69 50.0978 139.989 48.4179 139.143V143.847C48.152 143.873 47.8899 143.895 47.624 143.921C47.4911 142.411 47.3582 140.897 47.2068 139.162L47.2142 139.158Z" fill="#FCEAE5"/>
<path d="M9.52741 140.484C10.8824 139.627 12.2375 138.774 13.6663 137.87C12.2153 136.976 10.8935 136.164 9.57171 135.352C9.67879 135.13 9.78955 134.912 9.89662 134.691C11.2701 135.37 12.6399 136.053 14.2202 136.836C14.294 135.204 14.3642 133.646 14.4343 132.091C14.6448 132.088 14.8552 132.084 15.0694 132.077C15.1727 133.565 15.2761 135.056 15.4054 136.888C16.9228 136.064 18.2668 135.337 19.6071 134.61L20.0095 135.167C19.4188 135.603 18.8465 136.068 18.2299 136.467C17.5136 136.932 16.7567 137.338 15.8964 137.84C17.3253 138.763 18.6656 139.627 20.0095 140.495C19.8987 140.705 19.788 140.919 19.6735 141.13C18.2926 140.447 16.9118 139.764 15.3574 138.996C15.2761 140.709 15.2023 142.245 15.1284 143.777C14.9217 143.788 14.7149 143.796 14.5082 143.807V138.697C12.7027 139.668 11.307 140.417 9.9077 141.167C9.77847 140.938 9.64925 140.713 9.52002 140.484H9.52741Z" fill="#FDF2EF"/>
<path d="M59.631 134.883C60.9601 135.573 62.2893 136.264 63.8437 137.076C63.9656 135.411 64.069 133.934 64.176 132.457C64.3865 132.468 64.5969 132.475 64.8074 132.487V137.357C66.5649 136.404 67.9827 135.632 69.4005 134.861C69.5223 135.093 69.6478 135.322 69.7697 135.555C68.4257 136.408 67.0781 137.264 65.6677 138.158C67.0929 139.051 68.4405 139.897 69.7882 140.739L69.4115 141.414C68.0307 140.68 66.6461 139.941 65.0068 139.066V143.807C64.752 143.833 64.4973 143.858 64.2462 143.884C64.1096 142.407 63.9767 140.934 63.8253 139.265C62.3373 140.019 60.9749 140.705 59.6125 141.396C59.4833 141.185 59.3577 140.971 59.2285 140.761C60.602 139.908 61.9755 139.055 63.4413 138.147C61.9829 137.249 60.6205 136.415 59.2581 135.577C59.3836 135.344 59.5091 135.112 59.6347 134.879L59.631 134.883Z" fill="#FDF2EF"/>
<path d="M31.0313 138.841C29.211 139.793 27.8412 140.513 26.4678 141.23C26.3385 141.015 26.2093 140.805 26.0801 140.591C27.3797 139.775 28.6831 138.955 30.2153 137.995C28.768 137.094 27.472 136.286 26.1761 135.477C26.2758 135.274 26.3754 135.071 26.4751 134.868C27.8523 135.533 29.2295 136.201 30.8171 136.969C30.9021 135.318 30.9796 133.757 31.0608 132.195C31.2491 132.199 31.4374 132.202 31.6257 132.21V137.176C33.4386 136.201 34.849 135.444 36.2631 134.687C36.3923 134.927 36.5179 135.167 36.6471 135.403C35.3511 136.208 34.0515 137.009 32.4786 137.988C33.9777 138.933 35.3253 139.782 36.6729 140.631C36.5437 140.849 36.4108 141.067 36.2816 141.285C34.8822 140.558 33.4792 139.827 31.7476 138.929V143.788C31.5113 143.796 31.2713 143.807 31.035 143.818V138.848L31.0313 138.841Z" fill="#FDF2EF"/>
<path d="M102.435 143.02H90.8228C91.9932 141.902 100.758 141.813 102.435 143.02Z" fill="#FCDFD8"/>
<path d="M74.1704 142.171C77.8441 142.19 81.5215 142.064 85.1916 142.278C85.1916 142.511 85.1916 142.743 85.1916 142.976H74.211C74.1963 142.706 74.1852 142.437 74.1741 142.171H74.1704Z" fill="#FCDFD8"/>
<path d="M111.247 144.564L111.598 136.965H111.779C111.779 140.236 111.787 143.511 111.757 146.79C111.757 146.93 111.414 147.067 111.229 147.207C111.236 146.325 111.244 145.446 111.247 144.564Z" fill="#FFA653"/>
<path d="M21.1694 19.5279C21.8931 16.2604 22.5355 13.3472 23.2297 10.1941C24.0235 10.9399 24.629 11.5085 25.2641 12.1067C31.8177 7.94557 38.3713 7.86065 44.7772 12.2543C49.0565 15.1896 51.7481 20.9162 51.1352 25.2877H47.5168C47.0516 19.7162 44.4376 15.5035 38.9694 13.6574C35.3474 12.4316 31.7291 12.7823 28.203 15.0567C29.0153 15.9096 29.7058 16.6407 30.5402 17.5157C27.4129 18.1877 24.5035 18.8153 21.1694 19.5316V19.5279Z" fill="#0C2C7E"/>
<path d="M41.6941 35.611C41.0073 34.8578 40.3243 34.1083 39.5046 33.2111C42.6208 32.5428 45.5413 31.9152 48.8495 31.2026C48.1517 34.4111 47.4982 37.3943 46.8483 40.3776C46.7043 40.4552 46.5604 40.5364 46.4164 40.6139C45.9622 39.8792 45.5118 39.1444 45.1093 38.4983C30.7024 47.5294 17.8721 35.3378 18.821 25.5166H22.3655C23.8461 38.0183 36.2075 40.1524 41.6904 35.6036L41.6941 35.611Z" fill="#0C2C7E"/>
<path d="M212.837 177.937C209.998 177.948 207.827 175.789 207.842 172.964C207.853 170.283 210.054 168.02 212.701 167.961C215.429 167.902 217.766 170.173 217.811 172.916C217.855 175.696 215.647 177.926 212.837 177.934V177.937Z" fill="#EFF6FF"/>
<path d="M189.699 172.458H152.611C153.852 171.432 188.097 171.284 189.699 172.458Z" fill="#FEF6D7"/>
<path d="M152.637 208.106H142.712C144.37 205.2 145.925 202.479 147.66 199.44C149.355 202.39 150.909 205.101 152.637 208.106Z" fill="#FEFDF9"/>
<path d="M17.5806 86.4672C19.9694 86.4894 22.026 88.6271 21.9521 91.016C21.882 93.4085 19.9436 95.3321 17.5843 95.358C15.2139 95.3838 13.0687 93.2867 13.0577 90.9274C13.0466 88.6308 15.2619 86.4451 17.5769 86.4672H17.5806Z" fill="#FEFDF9"/>
<path d="M125.119 74.0357C125.916 74.0615 126.714 74.1021 127.508 74.1095C130.284 74.128 131.665 75.3021 131.68 78.0675C131.739 87.778 131.739 97.4847 131.68 107.195C131.665 109.913 130.38 111.09 127.681 111.094C114.105 111.105 100.525 111.094 86.9492 111.076C84.4754 111.072 83.3789 109.979 83.3715 107.472C83.3383 97.7026 83.3383 87.933 83.3419 78.1635C83.3419 75.243 84.5271 74.1243 87.5141 74.1058C88.2489 74.1021 88.9836 74.0578 89.7183 74.032C91.7121 74.0357 93.7059 74.0394 95.6997 74.0431C103.509 74.0431 111.318 74.0431 119.123 74.0431L125.112 74.032L125.119 74.0357ZM105.595 99.3714H109.043C109.124 98.3893 109.257 97.4921 109.261 96.5912C109.265 95.0036 109.272 93.6116 110.646 92.2972C112.182 90.8277 111.709 88.3576 110.077 86.8992C108.604 85.5885 106.377 85.559 104.867 86.8291C103.195 88.2395 102.663 90.6837 104.236 92.2012C105.731 93.6448 105.587 95.1771 105.598 96.846C105.606 97.6287 105.598 98.4114 105.598 99.3714H105.595Z" fill="#0C2C7E"/>
<path d="M95.7071 74.0467C93.7134 74.0467 91.7196 74.0393 89.7258 74.0356C89.5707 69.0881 89.9547 64.2071 92.9158 60.0275C99.7501 50.3799 113.271 49.5159 121.179 59.0343C124.857 63.4576 125.226 68.6635 125.119 74.0356C123.122 74.0393 121.128 74.043 119.13 74.0467C118.997 71.728 119.16 69.3466 118.669 67.1091C117.532 61.9068 112.783 58.2774 107.537 58.2368C102.324 58.1962 97.6677 61.6041 96.3865 66.7953C95.8105 69.1287 95.9102 71.6247 95.7034 74.0504L95.7071 74.0467Z" fill="#EFF6FF"/>
<path d="M95.7075 74.0466C95.9143 71.6246 95.8146 69.125 96.3906 66.7915C97.6681 61.6003 102.328 58.1924 107.541 58.233C112.788 58.2773 117.536 61.9067 118.673 67.1053C119.164 69.3428 119.001 71.7279 119.134 74.0429C111.325 74.0429 103.516 74.0429 95.7112 74.0429L95.7075 74.0466Z" fill="#FFA653"/>
<path d="M105.595 99.3713C105.595 98.4113 105.598 97.6286 105.595 96.8458C105.584 95.177 105.728 93.6447 104.232 92.201C102.659 90.6873 103.191 88.2393 104.864 86.8289C106.374 85.5551 108.6 85.5847 110.073 86.8991C111.709 88.3538 112.178 90.8239 110.642 92.297C109.268 93.6115 109.261 95.0071 109.257 96.5911C109.257 97.4883 109.121 98.3891 109.039 99.3713H105.591H105.595Z" fill="#EFF6FF"/>
</svg>
