<svg width="234" height="234" viewBox="0 0 234 234" fill="none" xmlns="http://www.w3.org/2000/svg">
<circle cx="117" cy="117" r="117" fill="#FFDAB9"/>
<path d="M43.2818 207.414C39.1934 207.309 35.1103 207.187 31.0219 207.103C29.9285 207.082 28.7823 207.208 29.2154 205.502C31.0959 204.256 33.0344 203.083 34.8462 201.741C38.9082 198.741 42.9807 195.746 46.9159 192.577C53.244 187.485 59.4136 182.203 65.7469 177.121C68.52 174.897 71.6471 173.112 74.4096 170.872C80.5105 165.923 86.4952 160.826 92.5063 155.76C96.0295 152.786 99.5158 149.765 103.018 146.765C107.402 150.198 111.733 153.69 116.218 156.991C116.921 157.509 118.547 157.551 119.292 157.086C121.268 155.85 122.969 154.186 124.828 152.749C127.215 150.911 129.651 149.131 132.07 147.325C134.632 149.733 137.056 152.316 139.787 154.519C144.588 158.396 149.628 161.983 154.482 165.807C162.97 172.494 171.406 179.25 179.831 186.011C188.246 192.767 197.067 199.053 204.441 207.024C202.328 207.098 200.21 207.172 198.097 207.24C196.169 207.288 194.241 207.33 192.308 207.378C191.262 207.293 190.216 207.129 189.175 207.129C141.583 207.119 93.9959 207.119 46.4036 207.129C45.363 207.129 44.3224 207.309 43.2818 207.409V207.414Z" fill="#5595E7"/>
<path d="M103.018 146.77C99.5163 149.77 96.0353 152.792 92.5068 155.766C86.4957 160.831 80.511 165.928 74.4101 170.878C71.6475 173.117 68.5205 174.898 65.7474 177.127C59.414 182.208 53.2445 187.495 46.9164 192.582C42.9812 195.746 38.9087 198.741 34.8467 201.747C33.0349 203.088 31.0963 204.256 29.2159 205.508C28.9835 201.615 28.7511 197.727 28.5239 193.834C28.5398 193.57 28.5662 193.306 28.5662 193.047C28.7352 169.346 28.9676 145.64 29.0363 121.938C29.0627 112.383 28.6824 102.822 28.619 93.2669C28.6032 91.2121 29.1472 89.1521 29.4377 87.092C32.1369 89.2894 34.8044 91.5396 37.5511 93.6789C41.3807 96.658 45.279 99.5527 49.1508 102.479C54.5967 107.249 59.937 112.151 65.5255 116.751C72.5191 122.504 79.7398 127.976 86.8179 133.628C92.2533 137.965 97.6252 142.391 103.024 146.775L103.018 146.77Z" fill="#73B6FF"/>
<path d="M103.018 146.77C97.6196 142.386 92.253 137.959 86.8123 133.623C79.7342 127.976 72.5082 122.498 65.5199 116.746C59.9314 112.145 54.5964 107.243 49.1452 102.474C49.1399 91.7298 49.1294 80.9858 49.1241 70.2419C49.1241 62.9578 49.198 55.6684 49.0924 48.3843C49.0607 46.3771 49.7262 45.8594 51.6595 45.8805C60.1744 45.9651 68.6892 45.8964 77.2041 45.8858C104.243 45.87 131.283 45.8489 158.317 45.833C166.499 45.8647 174.686 45.8911 182.869 45.9281C186.313 45.9439 186.994 46.6306 186.994 50.1274C186.999 56.9942 186.994 63.8558 186.989 70.7226C186.994 81.1179 187.005 91.5079 187.01 101.903C185.753 103.24 184.628 104.724 183.222 105.881C177.777 110.376 172.262 114.792 166.742 119.197C158.502 125.779 150.209 132.297 141.99 138.91C138.609 141.63 135.366 144.52 132.059 147.335C129.645 149.142 127.205 150.922 124.818 152.76C122.958 154.191 121.257 155.861 119.282 157.097C118.537 157.561 116.91 157.519 116.208 157.002C111.728 153.705 107.392 150.209 103.007 146.775L103.018 146.77ZM150.88 98.9399C150.869 82.7712 139.275 66.5444 118.463 66.1694C100.187 65.8366 85.2594 79.8554 85.2066 98.3747C85.159 115.404 99.3733 130.57 117.486 131.055C134.711 131.515 150.473 116.292 150.88 98.9399Z" fill="#EFF6FF"/>
<path d="M132.07 147.33C135.376 144.52 138.62 141.625 142 138.905C150.219 132.292 158.507 125.773 166.753 119.192C172.272 114.786 177.787 110.371 183.233 105.875C184.633 104.719 185.763 103.234 187.02 101.898C187.48 101.666 187.997 101.507 188.388 101.195C193.1 97.4345 197.817 93.6842 202.471 89.8599C203.627 88.9091 204.552 87.6836 205.582 86.585C207.51 86.5269 207.029 87.9689 207.029 89.0095C207.05 99.3097 207.04 109.605 207.045 119.905C207.061 144.372 207.087 168.839 207.108 193.311C207.098 193.66 207.082 194.008 207.071 194.357C206.918 195.588 206.765 196.819 206.612 198.055C206.612 200.347 206.612 202.634 206.612 204.927C206.612 205.275 206.612 205.629 206.612 205.978C206.416 206.517 206.221 207.061 206.025 207.599C205.497 207.415 204.969 207.224 204.441 207.039C197.067 199.069 188.246 192.783 179.831 186.027C171.406 179.261 162.97 172.51 154.482 165.823C149.633 161.998 144.594 158.412 139.787 154.535C137.056 152.332 134.632 149.749 132.07 147.34V147.33Z" fill="#73B6FF"/>
<path d="M158.322 45.833C131.283 45.8489 104.244 45.87 77.2095 45.8859C80.5636 42.8222 83.8597 39.7004 87.2773 36.7107C95.0896 29.8862 102.944 23.1144 110.809 16.3533C115.637 12.2015 119.979 12.1487 124.707 16.2423C135.461 25.5654 146.173 34.9412 156.896 44.3012C157.419 44.7555 157.852 45.3154 158.328 45.8278L158.322 45.833Z" fill="#0C2C7E"/>
<path d="M49.124 70.2419C49.1293 80.9859 49.1399 91.7298 49.1452 102.474C45.2733 99.5421 41.3804 96.6528 37.5455 93.6736C34.7935 91.5344 32.1313 89.2842 29.4321 87.0868C35.9979 81.4718 42.5583 75.8569 49.124 70.2419Z" fill="#0C2C7E"/>
<path d="M205.582 86.5849C204.552 87.6836 203.623 88.9091 202.471 89.8599C197.817 93.6894 193.1 97.4398 188.389 101.195C187.998 101.507 187.48 101.671 187.021 101.898C187.015 91.5026 187.005 81.1126 187 70.7173C193.195 76.0047 199.391 81.2922 205.582 86.5796V86.5849Z" fill="#0C2C7E"/>
<path d="M150.88 98.9399C150.473 116.287 134.711 131.515 117.486 131.056C99.3682 130.57 85.1591 115.404 85.2067 98.3747C85.2595 79.8555 100.187 65.8366 118.463 66.1694C139.275 66.5444 150.875 82.7765 150.88 98.9399ZM146.897 98.7762C146.945 83.0248 134.183 69.8352 118.822 69.7718C102.173 69.7031 89.1894 82.2589 89.0838 98.5332C88.9781 114.686 101.872 127.754 118.03 127.775C132.936 127.791 147.188 115.737 146.897 98.7762Z" fill="#2D3663"/>
<path d="M146.897 98.7761C147.188 115.737 132.936 127.791 118.03 127.775C101.872 127.759 88.9728 114.686 89.0837 98.5332C89.1946 82.2588 102.178 69.7031 118.822 69.7718C134.183 69.8352 146.945 83.0194 146.897 98.7761ZM117.982 123.169C131.077 123.55 142.814 112.145 142.687 98.6916C142.56 85.444 132.012 73.9552 118.051 74.0133C104.619 74.0714 93.489 84.5988 93.4045 98.5702C93.3253 111.813 104.761 123.55 117.982 123.169Z" fill="#EFF6FF"/>
<path d="M117.983 123.169C104.761 123.549 93.3255 111.813 93.4047 98.5701C93.4892 84.6041 104.613 74.0767 118.051 74.0133C132.012 73.9499 142.561 85.4439 142.687 98.6916C142.814 112.145 131.077 123.549 117.983 123.169ZM127.131 85.7609C122.726 91.0747 118.447 96.2407 114.142 101.438C112.611 99.9488 111.322 98.5014 109.822 97.3394C109.299 96.9326 108.084 96.9274 107.45 97.2549C106.082 97.9574 104.883 98.998 103.488 99.991C107.593 104.375 110.878 107.893 114.375 111.633C120.302 104.19 126.049 96.9749 131.906 89.6168C130.163 88.2118 128.748 87.0656 127.137 85.7661L127.131 85.7609Z" fill="#5595E7"/>
<path d="M127.131 85.7609C128.742 87.0603 130.158 88.2065 131.901 89.6116C126.043 96.9697 120.296 104.185 114.369 111.628C110.873 107.888 107.587 104.375 103.483 99.9858C104.877 98.9927 106.076 97.9574 107.445 97.2496C108.078 96.9221 109.293 96.9327 109.816 97.3341C111.322 98.4962 112.605 99.9435 114.137 101.433C118.442 96.2354 122.721 91.0748 127.126 85.7556L127.131 85.7609Z" fill="#EFF6FF"/>
</svg>
