<svg width="172" height="160" viewBox="0 0 172 160" fill="none" xmlns="http://www.w3.org/2000/svg">
<path d="M96.0757 5.13112C96.1474 5.27796 96.2328 5.41828 96.2874 5.57164C97.2846 8.31922 98.6166 10.5316 101.578 12.1273C104.747 13.834 105.31 17.3679 104.798 20.6768C104.081 25.2844 103.032 29.843 102.127 34.4245C102.076 34.692 102.028 34.9596 101.981 35.2272C101.649 37.1884 101.68 38.7057 103.825 40.1448C108.592 43.3459 108.333 50.5477 102.978 53.9969C101.858 54.718 100.673 55.3478 99.5182 56.0168C99.3952 56.1408 99.2689 56.268 99.1459 56.392C97.5032 56.5128 95.8639 56.6302 94.2212 56.751C93.0225 56.4051 91.8237 56.0592 90.625 55.7133H90.6489C90.5499 55.5925 90.4543 55.4783 90.3552 55.3641C88.7842 53.6999 87.9953 51.7355 87.8724 49.51C87.8553 48.828 87.8416 48.1493 87.8245 47.4673C88.2788 46.9941 88.7808 46.5569 89.177 46.0413C90.9529 43.7212 94.6105 42.7847 94.5662 39.1267C96.9773 39.3486 98.4287 37.9258 98.8625 36.2159C99.4191 34.0198 99.3747 31.6312 99.2177 29.3503C99.163 28.5573 97.814 27.1215 97.3734 27.2227C96.366 27.4544 95.5053 28.4105 94.6857 29.1675C94.3066 29.5167 94.1529 30.0943 93.8968 30.5707C93.3298 29.9866 93.2513 29.4677 93.0532 28.988C92.2336 27.0008 91.7486 24.7557 90.444 23.1078C88.6408 20.8236 88.3642 18.5166 88.7876 15.9093C88.8833 15.3089 88.914 14.702 89.013 13.6806C80.3692 18.7809 71.978 23.4342 61.6129 22.6967C61.6812 23.6495 61.7051 24.2956 61.7768 24.9352C62.1867 28.541 62.6033 32.1468 63.02 35.7558C61.5958 38.6764 61.0528 41.7013 61.5822 44.4195C62.0842 42.0211 62.6716 39.2278 63.2556 36.4346C63.8328 38.1771 64.41 39.9229 64.9871 41.6654C64.9154 41.9069 64.7344 42.1777 64.7925 42.3866C66.0595 47.0953 67.8764 51.556 71.196 55.338C70.571 55.7949 69.9426 56.2517 69.3176 56.7085C67.6851 56.9109 66.0493 57.1132 64.4168 57.3188C57.7913 57.1915 52.0094 50.5869 52.8802 44.2857C53.4677 40.0632 54.6937 36.1278 57.5215 32.7439C57.9416 32.2414 58.225 31.6312 58.5324 31.0504C60.3971 27.5033 60.0522 26.0904 56.7941 23.6822C55.7593 22.9186 54.7279 22.1485 53.7545 21.3164C49.6051 17.7824 49.3216 14.715 52.7232 10.6328C55.0182 9.16764 57.6103 8.81522 60.2878 8.76954C64.2529 9.29164 68.2179 9.81375 72.1829 10.3359C72.2034 10.1923 72.2273 10.052 72.2478 9.90838C69.4781 9.48743 66.7118 9.06648 63.9421 8.64554C69.6625 4.72649 75.7757 1.57102 82.7598 0.301648C88.1627 -0.680562 92.7595 0.686701 96.0688 5.12785L96.0757 5.13112ZM97.8277 44.2792C97.9404 44.3869 98.0531 44.4946 98.1658 44.599C98.3741 45.1929 98.5858 45.7835 98.7942 46.3774C98.9957 46.2665 99.1937 46.1588 99.3952 46.0478C98.9957 45.5551 98.5961 45.0623 98.1965 44.5729L97.8618 44.2466C97.6398 43.9431 97.4178 43.6396 97.1924 43.3361C97.0763 43.4699 96.9568 43.6037 96.8407 43.7408C97.1685 43.9202 97.4998 44.0997 97.8277 44.2792ZM94.6515 53.5955C94.6174 53.465 94.5866 53.3312 94.5525 53.2007C93.7636 53.3312 92.9747 53.4617 92.1858 53.589C92.2267 53.7684 92.2677 53.9479 92.3087 54.1241C93.0874 53.9479 93.8694 53.7717 94.6481 53.5955H94.6515ZM96.7075 40.9508C96.5948 40.9573 96.4821 40.9671 96.366 40.9736V42.7618C96.4787 42.7618 96.5914 42.7553 96.7075 42.7553V40.9508ZM62.1798 46.7461C62.3062 46.7233 62.436 46.6972 62.5623 46.6743C62.4872 46.3709 62.4121 46.0674 62.3403 45.7639C62.2345 45.7835 62.1286 45.8064 62.0193 45.8259C62.074 46.1327 62.1286 46.4394 62.1798 46.7461ZM96.3113 51.6768C96.202 51.6115 96.0962 51.543 95.9869 51.4777C95.8537 51.7159 95.7205 51.9541 95.5839 52.1956C95.6727 52.2446 95.7581 52.2935 95.8469 52.3425C96.0005 52.1206 96.1542 51.8987 96.3079 51.6768H96.3113Z" fill="#B83442"/>
<path d="M163.4 127.484C163.413 133.928 163.492 140.37 163.413 146.811C163.366 150.89 160.398 153.987 155.61 155.282C146.594 155.282 137.577 155.286 128.561 155.289C123.719 153.948 120.788 150.897 120.74 146.821C120.662 140.376 120.737 133.932 120.747 127.484C134.965 127.484 149.186 127.484 163.403 127.484H163.4Z" fill="#2254B5"/>
<path d="M128.562 155.288C137.578 155.288 146.594 155.285 155.61 155.281C158.1 155.35 160.586 155.428 163.076 155.477C164.479 155.507 165.886 155.484 167.392 155.484V160H0V155.295C3.82502 155.295 7.60223 155.295 11.3794 155.295C13.5447 155.324 15.7133 155.389 17.8751 155.343C18.2406 155.337 18.5958 154.841 18.9543 154.573C19.8491 154.9 20.7405 155.484 21.6421 155.497C23.9371 155.533 26.2355 155.317 28.534 155.2C31.0271 155.229 33.5202 155.262 36.0098 155.291C37.0071 155.366 38.0077 155.503 39.005 155.51C42.5739 155.526 46.1427 155.497 49.7116 155.484C69.9637 155.477 90.2125 155.471 110.465 155.464C112.384 155.441 114.303 155.419 116.226 155.396C118.545 155.438 120.864 155.52 123.183 155.507C124.976 155.497 126.769 155.366 128.558 155.288H128.562Z" fill="#FFA653"/>
<path d="M139.863 107.314C140.354 106.707 141.048 106.165 141.304 105.48C142.714 101.724 145.365 98.8327 148.565 96.506C149.627 95.7359 151.577 96.0818 153.12 95.9154C154.398 96.369 156.034 96.5028 156.864 97.3545C158.025 98.5455 159.258 98.8881 160.77 99.0317C160.996 99.0546 161.255 99.4755 161.365 99.7594C161.751 100.732 162.28 101.3 163.499 101.531C164.128 101.649 164.961 102.83 164.958 103.532C164.951 105.427 165.699 106.132 167.659 106.384C170.121 106.7 170.722 108.253 169.589 110.169C171.648 113.174 172.625 116.277 171.573 119.749C171.177 121.058 168.895 121.74 167.324 120.934C166.395 120.458 165.716 120.526 164.872 120.97C163.154 121.871 161.402 122.706 159.664 123.567C153.67 123.571 147.677 123.587 141.683 123.558C141.055 123.558 140.426 123.3 139.794 123.159C139.852 122.784 139.893 122.406 139.975 122.037C140.734 118.66 141.205 115.396 138.978 112.195C137.602 110.215 138.039 109.115 139.859 107.314H139.863Z" fill="#636928"/>
<path d="M18.9537 154.577C18.5951 154.848 18.2399 155.341 17.8745 155.347C15.7092 155.393 13.544 155.328 11.3788 155.298C9.50722 154.554 8.60902 153.432 8.77978 151.614C9.13838 147.806 9.61651 144.008 10.0434 140.206C12.9736 140.203 15.9039 140.2 18.8341 140.197C18.4585 143.832 18.0657 147.467 17.7105 151.105C17.5842 152.42 17.7139 153.69 18.9537 154.577Z" fill="#B83030"/>
<path d="M139.794 123.16C140.422 123.297 141.05 123.554 141.682 123.558C147.676 123.584 153.669 123.571 159.663 123.567C161.022 123.567 162.399 123.46 163.737 123.616C164.448 123.701 165.616 124.184 165.677 124.608C165.855 125.832 164.66 125.744 163.768 125.819C163.656 125.829 163.543 125.842 163.43 125.852C163.317 125.858 163.208 125.855 163.095 125.852C162.675 125.747 162.255 125.551 161.835 125.548C158.14 125.525 154.441 125.525 150.743 125.548C150.319 125.548 149.896 125.734 149.476 125.832C148.765 125.832 148.051 125.835 147.341 125.839C146.918 125.737 146.498 125.555 146.074 125.551C142.836 125.529 139.602 125.529 136.365 125.555C135.945 125.558 135.525 125.744 135.104 125.845C130.286 125.861 125.463 125.874 120.645 125.891C120.477 125.881 120.306 125.855 120.139 125.868C119.183 125.927 118.285 125.636 118.459 124.638C118.534 124.207 119.545 123.724 120.194 123.626C121.287 123.46 122.431 123.58 123.551 123.577C124.743 123.577 125.938 123.577 127.13 123.577C129.439 123.577 131.747 123.577 134.056 123.577C134.295 123.561 134.538 123.545 134.777 123.528C136.45 123.408 138.12 123.284 139.794 123.163V123.16Z" fill="#2254B5"/>
<path d="M163.096 125.848C163.209 125.854 163.318 125.857 163.431 125.848C163.42 126.392 163.41 126.934 163.4 127.479C149.182 127.479 134.962 127.479 120.744 127.479C120.71 126.947 120.679 126.412 120.645 125.88C125.464 125.864 130.286 125.851 135.105 125.834C139.183 125.834 143.26 125.831 147.342 125.828C148.052 125.828 148.766 125.825 149.476 125.821C154.015 125.828 158.557 125.834 163.096 125.841V125.848Z" fill="#0C2C7E"/>
<path d="M11.3243 133.775C14.1043 132.401 16.7135 132.368 19.0256 134.669C18.6567 136.189 18.2879 137.713 17.919 139.234C17.0687 139.234 16.2183 139.198 15.3713 139.24C13.7081 139.322 12.0449 139.449 10.3817 139.557C10.2622 139.56 10.1426 139.563 10.0231 139.567C9.67476 139.123 9.04978 138.692 9.02246 138.232C8.92 136.382 9.90358 134.956 11.3209 133.771L11.3243 133.775Z" fill="#8B1B1B"/>
<path d="M63.9487 8.64844C66.7184 9.06938 69.4847 9.49033 72.2545 9.91128C72.234 10.0549 72.2101 10.1952 72.1896 10.3388C68.2245 9.81665 64.2595 9.29454 60.2944 8.77244C61.5137 8.73328 62.7329 8.69086 63.9521 8.6517L63.9487 8.64844Z" fill="#A32928"/>
<path d="M10.0229 139.569C10.1425 139.566 10.262 139.563 10.3815 139.559C13.0147 139.543 15.6444 139.53 18.2775 139.514C18.4858 139.55 18.6907 139.585 18.899 139.621C18.899 139.801 18.899 139.98 18.899 140.16L18.8342 140.199C15.9039 140.202 12.9737 140.205 10.0434 140.209C10.0366 139.997 10.0298 139.785 10.0229 139.572V139.569Z" fill="#651111"/>
<path d="M56.6377 139.776C53.6425 138.393 52.3755 136.06 52.3926 132.94C52.4165 127.941 52.3687 122.942 52.3687 117.943C52.3687 116.876 52.4301 115.812 52.4609 114.745C53.1712 114.738 53.8918 114.653 54.5851 114.745C55.8112 114.905 57.0167 115.309 58.2428 115.375C65.6948 115.753 73.1501 116.092 80.6055 116.373C82.5693 116.448 84.5466 116.269 86.5172 116.207C89.9529 116.102 93.3954 116.112 96.8209 115.864C100.076 115.629 103.31 115.133 106.551 114.751C106.558 120.896 106.585 127.044 106.561 133.188C106.544 137.57 103.781 140.181 99.2149 140.214C98.6446 140.217 98.0777 140.233 97.5073 140.243C96.3462 140.321 95.185 140.4 94.0238 140.478C93.6618 140.39 93.2998 140.23 92.9378 140.227C88.8464 140.214 84.755 140.227 80.6636 140.227C79.8747 140.237 79.0857 140.243 78.2968 140.253C73.7819 140.253 69.2636 140.25 64.7487 140.246C63.7174 140.246 62.686 140.243 61.6546 140.24L56.6342 139.776H56.6377Z" fill="#2254B5"/>
<path d="M33.2503 101.371C29.6882 97.5109 28.0352 92.8119 26.8058 87.9368C25.2689 81.838 24.9035 75.638 25.0572 69.3858C25.0811 68.4362 24.6781 67.3854 24.1897 66.5305C22.7314 63.9754 21.5156 61.3812 21.6522 58.3889C21.6727 57.9092 21.8572 57.4296 21.8469 56.9531C21.8298 56.3397 21.8845 55.6185 21.5771 55.1388C20.4911 53.4452 20.7267 51.8855 22.4207 50.7433C23.5306 49.9961 24.6508 49.2586 25.7676 48.5179C26.3242 48.11 26.8775 47.7021 27.4342 47.2975C28.0284 47.0005 28.6739 46.7721 29.2032 46.3936C31.4129 44.8142 33.5508 45.0459 35.675 46.5241C36.9284 47.1832 38.1818 47.8457 39.4352 48.5048L39.4283 48.4983L39.7767 49.1607L39.7699 49.1542C39.886 49.2651 40.0021 49.3761 40.1182 49.487H40.1148C40.2309 49.5915 40.3436 49.7024 40.4597 49.8134H40.4563C40.5724 49.921 40.6851 50.0287 40.8013 50.1397C40.9174 50.2474 41.0301 50.355 41.1462 50.466C41.2623 50.5737 41.375 50.6846 41.4911 50.7923H41.4877C41.6038 50.9 41.7199 51.0077 41.8326 51.1186H41.8258C42.6455 51.5722 43.4685 52.0323 44.2882 52.4891C44.8483 53.2331 45.4084 53.9804 45.9684 54.7244C45.6474 55.0605 45.3264 55.3999 45.0054 55.736C42.9767 55.7066 40.9242 55.811 39.1141 54.6787C39.0527 54.6396 38.9912 54.5971 38.9331 54.5547C38.9775 54.6102 39.0219 54.6657 39.0663 54.7244C40.0158 56.2646 38.8375 57.1457 37.6012 58.1866C38.4038 58.3693 38.9297 58.4901 39.4557 58.6076L39.4386 58.5978C39.5547 58.7218 39.6742 58.8458 39.7904 58.9698C40.9959 60.138 39.4762 60.8983 39.2781 61.825C39.6845 62.184 40.0499 62.5038 40.4153 62.8268L40.4768 64.5041V64.4975C40.3641 64.6085 40.2446 64.7194 40.1285 64.8337L40.1353 64.8271C40.0192 64.9381 39.9031 65.049 39.7869 65.16L39.7938 65.1534L39.4454 65.4863H39.4557C39.2268 65.7017 38.9946 65.9235 38.7658 66.1422V66.1357C38.5404 66.2466 38.3082 66.3575 38.0759 66.4685L38.0862 66.4587C37.9701 66.5697 37.8505 66.6806 37.7344 66.7948L37.7447 66.7883L37.048 67.1244L37.0616 67.1146C36.8294 67.2255 36.5971 67.3398 36.3615 67.4507L36.382 67.4409C34.951 67.702 33.5235 67.9663 32.0925 68.2273C32.1403 68.4231 32.1881 68.6189 32.2325 68.8147C33.5781 68.4525 34.9237 68.0935 36.2693 67.7313C36.4196 72.4955 38.6428 76.4668 41.5082 80.1933C42.5328 82.347 43.5573 84.5039 44.5853 86.6576C44.8005 88.7297 45.0122 90.8018 45.2274 92.8707L45.4323 92.9033C45.4835 91.2652 45.5347 89.6304 45.5825 87.9923C48.0893 90.7823 48.4513 94.065 47.7683 97.488C47.2116 100.272 45.6167 102.51 43.0314 103.969C41.5628 104.798 39.9748 104.98 38.1237 104.148C38.6394 103.978 38.858 103.907 39.0766 103.835C37.0719 104.021 35.6477 103.081 34.2987 101.916C34.0118 101.668 33.6054 101.547 33.2537 101.368L33.2503 101.371ZM30.2893 51.4971C30.2483 51.6342 30.2073 51.7745 30.1697 51.9116C32.8541 52.6621 35.5384 53.4126 38.2228 54.1631C38.274 53.9837 38.3287 53.8042 38.3799 53.6247C35.6853 52.9166 32.9873 52.2085 30.2927 51.5004L30.2893 51.4971Z" fill="#FE9F7E"/>
<path d="M49.7729 155.201C49.7627 151.732 49.749 148.26 49.7388 144.791C49.8344 144.713 49.9334 144.635 50.0291 144.56C51.6137 144.527 53.2018 144.498 54.7864 144.465C57.0746 144.465 59.3662 144.465 61.6544 144.465C66.0054 144.445 70.3529 144.429 74.7039 144.41C75.8889 144.41 77.0706 144.41 78.2557 144.41C79.1026 144.419 79.9496 144.429 80.7966 144.442C81.8963 144.432 82.996 144.419 84.0957 144.41C85.2876 144.315 85.7008 144.844 85.5915 145.956C85.5027 146.844 85.5744 147.744 85.5744 148.639C85.8545 147.614 85.7589 146.576 85.9023 145.574C85.9603 145.16 86.5239 144.501 86.8859 144.485C90.3933 144.312 93.9075 144.253 97.4218 144.165C101.657 144.178 105.895 144.191 110.13 144.204C110.232 144.292 110.331 144.38 110.434 144.468C110.434 147.944 110.434 151.419 110.434 154.894C109.716 154.995 108.999 155.181 108.282 155.184C88.7779 155.204 69.2737 155.204 49.7695 155.207L49.7729 155.201Z" fill="#252727"/>
<path d="M44.5782 86.6607C43.5536 84.5071 42.5291 82.3501 41.5011 80.1964C44.6704 78.6008 47.3582 76.4699 49.4346 73.6603C50.0698 72.8021 50.6914 71.9309 51.5008 70.8149C51.0842 70.0448 50.3157 68.8341 52.1599 67.9988C52.3444 67.9139 52.3853 67.4147 52.3888 67.1047C52.4332 64.2331 53.4885 61.9293 56.3094 60.5881C57.0129 61.0287 58.2014 61.3615 58.3415 61.9293C59.3763 66.067 62.1118 68.4164 66.3057 69.4215C65.9915 71.1836 65.6022 72.9359 65.387 74.7078C65.1001 77.0671 64.2532 79.1555 62.9246 81.1786C59.5812 86.2626 56.3948 91.4445 53.1469 96.5873C53.1299 94.923 53.3211 93.2229 53.0342 91.6012C52.7166 89.8129 51.9619 88.0933 51.3949 86.3475C51.3471 86.2006 51.2993 86.0505 51.2481 85.9037C51.2037 85.9331 51.1183 85.9885 51.1183 85.9918C51.1969 86.1191 51.2822 86.2431 51.3676 86.3703C51.4257 86.6868 51.4496 87.0164 51.552 87.3199C52.6244 90.4982 53.1264 93.7222 52.3956 97.0441C52.1907 97.9708 51.9653 98.8943 51.7501 99.821C51.856 99.8504 51.9653 99.8798 52.0711 99.9092C52.3888 98.9792 52.7098 98.0524 53.0274 97.1224C53.3792 98.7475 53.7343 100.369 54.0861 101.994C51.6647 103.166 48.8984 103.835 47.2762 106.194C47.0542 106.204 46.8288 106.214 46.6068 106.223C46.6068 106.028 46.6068 105.829 46.6068 105.633C46.7195 105.525 46.8357 105.421 46.9484 105.313C47.0611 105.202 47.1738 105.091 47.2865 104.983C47.4026 104.765 47.5153 104.546 47.6314 104.327C47.7475 104.223 47.8602 104.115 47.9763 104.011C48.089 103.792 48.2051 103.574 48.3178 103.352C48.3657 103.296 48.4135 103.241 48.4579 103.185L48.2905 103.326C48.1744 103.541 48.0583 103.76 47.9388 103.975C47.8295 104.086 47.7202 104.197 47.6109 104.308C47.4948 104.523 47.3787 104.742 47.2626 104.957C47.1464 105.065 47.0337 105.173 46.9176 105.28C46.8049 105.391 46.6956 105.499 46.5829 105.607C46.3507 105.812 46.1219 106.018 45.8896 106.223C44.8582 106.674 43.8269 107.121 42.7955 107.571C38.2396 108.113 34.4146 104.51 33.2432 101.374C33.5949 101.554 34.0013 101.675 34.2882 101.923C35.6372 103.087 37.0614 104.027 39.0661 103.841C38.8475 103.913 38.6289 103.985 38.1132 104.155C39.9643 104.987 41.5489 104.804 43.0209 103.975C45.6062 102.516 47.2011 100.281 47.7578 97.4944C48.4408 94.0714 48.0788 90.7886 45.572 87.9986C45.2373 87.5516 44.9061 87.1078 44.5714 86.6607H44.5782ZM50.688 85.0716C50.7426 85.1173 50.8007 85.163 50.8553 85.2119C50.8109 85.1564 50.7631 85.101 50.7187 85.0455C50.6026 84.8268 50.4899 84.6082 50.3738 84.3896C50.2611 84.2819 50.1484 84.1742 50.0357 84.0665C49.9196 83.8512 49.8069 83.6358 49.6908 83.4172C49.5815 83.2573 49.4722 83.0974 49.3595 82.9342C49.2946 82.9962 49.2263 83.0582 49.1614 83.1235C49.3287 83.2312 49.4927 83.3356 49.66 83.4433C49.7761 83.6586 49.8923 83.8773 50.0084 84.0926C50.1211 84.2036 50.2304 84.3113 50.3431 84.4222C50.4592 84.6408 50.5753 84.8562 50.6914 85.0748L50.688 85.0716ZM49.3561 101.113L49.7352 101.156C49.7625 100.976 49.7932 100.793 49.8205 100.614C49.7215 100.601 49.5439 100.559 49.5337 100.581C49.4551 100.751 49.4107 100.934 49.3526 101.113H49.3561ZM51.6852 100.624C51.6135 100.598 51.5384 100.572 51.4667 100.545C51.371 100.712 51.2754 100.875 51.1798 101.041C51.3027 101.084 51.4291 101.13 51.552 101.172C51.5964 100.989 51.6408 100.81 51.6852 100.627V100.624Z" fill="#D9522A"/>
<path d="M106.551 114.751C103.31 115.132 100.076 115.632 96.8209 115.863C93.3954 116.108 89.9529 116.102 86.5172 116.206C84.5467 116.265 82.5693 116.444 80.6055 116.372C73.1502 116.092 65.6948 115.752 58.2428 115.374C57.0168 115.312 55.8112 114.907 54.5851 114.744C53.8884 114.653 53.1678 114.738 52.4609 114.744C52.437 114.189 52.4165 113.635 52.3926 113.08C52.4097 112.431 52.4233 111.781 52.4404 111.132C53.1747 111.181 53.9123 111.204 54.6432 111.288C58.9088 111.778 63.1675 112.685 67.4331 112.701C80.5236 112.747 93.6755 113.68 106.657 111.115C106.681 111.778 106.708 112.44 106.732 113.103C106.67 113.651 106.609 114.202 106.547 114.751H106.551Z" fill="#0C2C7E"/>
<path d="M36.0095 155.296C33.5164 155.266 31.0233 155.234 28.5336 155.204C29.869 152.832 29.5241 150.339 29.2064 147.817C28.8854 145.294 28.7181 142.759 28.4824 140.227C31.5322 140.213 34.582 140.2 37.6283 140.184C38.0074 143.94 38.4514 147.693 38.7451 151.455C38.9227 153.713 38.1611 154.633 36.0095 155.296Z" fill="#A0503A"/>
<path d="M66.3094 69.4213C62.1155 68.4162 59.3799 66.0668 58.3451 61.9323C58.2017 61.3646 57.0166 61.0317 56.3097 60.5912C52.5325 59.0477 48.7587 57.5042 44.9814 55.964C44.9849 55.889 44.9917 55.8139 44.9951 55.7389C45.3161 55.4028 45.6372 55.0634 45.9548 54.7273C46.6651 54.8676 47.4062 54.9263 48.079 55.1646C51.9519 56.5383 55.8076 57.9578 59.6702 59.361C62.2555 60.0071 64.8442 60.6532 67.4295 61.2993C68.3312 61.8214 69.202 62.3957 70.1344 62.8558C71.702 63.6324 72.5421 64.7354 72.2108 66.4812L72.2416 66.4583C71.0599 68.9057 68.8639 69.4931 66.3059 69.4245L66.3094 69.4213Z" fill="#393837"/>
<path d="M18.8986 139.619C18.6903 139.583 18.4854 139.547 18.2771 139.511C18.1575 139.42 18.038 139.325 17.9185 139.234C18.2873 137.71 18.6561 136.189 19.025 134.668C20.958 133.409 22.932 132.169 25.4046 133.125C26.4804 133.539 27.4434 134.221 28.4578 134.779C28.772 136.261 29.0862 137.746 29.4004 139.227C29.3081 139.305 29.2125 139.38 29.1169 139.459C28.912 139.504 28.7071 139.553 28.5056 139.599C25.3021 139.606 22.1021 139.612 18.8986 139.615V139.619Z" fill="#D9AF38"/>
<path d="M29.3982 139.231C29.084 137.746 28.7698 136.265 28.4556 134.783C32.2908 130.959 37.6868 133.236 38.6124 137.231C38.8104 138.089 39.2715 139.26 37.6732 139.554C37.581 139.57 37.4854 139.573 37.3931 139.564C36.8638 139.459 36.3344 139.273 35.8017 139.263C33.6672 139.224 31.5292 139.237 29.3947 139.231H29.3982Z" fill="#702F1E"/>
<path d="M52.4405 111.131C52.4234 111.781 52.4097 112.43 52.3926 113.083C49.8791 112.332 47.3347 111.663 44.8587 110.805C43.3868 110.296 42.4647 109.239 42.8028 107.568C43.8342 107.118 44.8655 106.67 45.8969 106.22C46.136 106.22 46.3751 106.22 46.6141 106.22C46.8361 106.21 47.0615 106.201 47.2835 106.191C49.3975 107.046 51.5149 107.904 53.6289 108.759C52.7444 109.124 51.8599 109.49 50.6714 109.979C51.5525 110.554 51.9965 110.844 52.4405 111.131Z" fill="#252727"/>
<path d="M61.6575 144.465C59.3693 144.465 57.0777 144.465 54.7896 144.465C55.4043 142.902 56.0224 141.339 56.6406 139.779C58.314 139.932 59.9875 140.089 61.6609 140.242C61.6609 141.649 61.6609 143.059 61.6609 144.465H61.6575Z" fill="#FEFDFD"/>
<path d="M67.4327 61.2937C64.8474 60.6476 62.2586 60.0015 59.6733 59.3554C61.258 58.6767 62.8392 57.998 64.4239 57.3192C66.0598 57.1169 67.6922 56.9146 69.3247 56.7123C68.6929 58.2394 68.0645 59.7666 67.4327 61.2937Z" fill="#D9522A"/>
<path d="M27.4302 47.3016C26.8735 47.7095 26.3203 48.1174 25.7636 48.5221C24.3258 48.3002 22.888 48.0815 21.4502 47.8531C20.1183 47.641 18.7898 47.4191 17.2427 47.1646C18.4585 45.0207 20.1012 45.0174 21.6449 45.3894C23.6154 45.8658 25.504 46.649 27.4268 47.3016H27.4302Z" fill="#393837"/>
<path d="M49.7728 155.201C69.277 155.198 88.7812 155.198 108.285 155.178C109.003 155.178 109.72 154.989 110.437 154.888C110.447 155.08 110.457 155.273 110.468 155.465C90.2156 155.472 69.9669 155.482 49.7148 155.488C49.7045 155.387 49.7216 155.289 49.7728 155.201Z" fill="#53504C"/>
<path d="M43.1303 47.6016C43.3796 47.8104 43.6289 48.0193 43.8782 48.2314C43.9943 48.4304 44.1139 48.6295 44.23 48.8285L44.2163 48.8155C44.3359 48.9297 44.452 49.0439 44.5715 49.1581L44.5578 49.1418C44.4451 50.0228 44.3359 50.9039 44.2232 51.785H44.2334C43.4274 51.5598 42.6214 51.3379 41.8154 51.116L41.8223 51.1193C41.7061 51.0083 41.59 50.8974 41.4773 50.7897L41.4807 50.793C41.3646 50.682 41.2519 50.5743 41.1358 50.4634C41.0197 50.3557 40.907 50.2447 40.7909 50.1371C40.6748 50.0261 40.5621 49.9184 40.4459 49.8075L40.4494 49.8107C40.3332 49.6998 40.2205 49.5889 40.1044 49.4812L40.1078 49.4844C39.9917 49.3735 39.8756 49.2625 39.7595 49.1516L39.7663 49.1581C39.6502 48.9362 39.5341 48.7176 39.418 48.4957L39.4248 48.5022C39.6365 48.2836 39.8244 47.9116 40.0669 47.8757C41.0778 47.7256 42.1057 47.6799 43.1235 47.5918L43.1303 47.6016Z" fill="#FD9E7E"/>
<path d="M37.3961 139.564C37.4917 139.57 37.5839 139.567 37.6761 139.554C37.6591 139.766 37.6454 139.978 37.6283 140.187C34.5785 140.2 31.5288 140.213 28.4824 140.229C28.4893 140.021 28.4995 139.812 28.5063 139.606C28.7112 139.56 28.9161 139.512 29.1176 139.466C31.8771 139.498 34.6366 139.531 37.3961 139.564Z" fill="#5A2618"/>
<path d="M43.1302 47.6008C42.109 47.6857 41.0811 47.7346 40.0736 47.8847C39.8311 47.9206 39.6433 48.2926 39.4315 48.5113C38.1781 47.8521 36.9248 47.1897 35.6714 46.5305C38.1577 46.8895 40.6439 47.2452 43.1302 47.6041V47.6008Z" fill="#DA7F62"/>
<path d="M41.8159 51.1125C42.6219 51.3344 43.4279 51.5596 44.2339 51.7815C44.2475 52.0164 44.2646 52.2514 44.2783 52.4863C43.4586 52.0295 42.6356 51.5694 41.8159 51.1093V51.1125Z" fill="#DA7F62"/>
<path d="M44.2231 51.7816C44.3358 50.9005 44.4451 50.0195 44.5578 49.1384C45.0667 50.0913 45.2614 51.0082 44.2231 51.7816Z" fill="#DA7F62"/>
<path d="M50.0291 144.559C49.9334 144.637 49.8344 144.716 49.7388 144.791C49.8378 144.712 49.9334 144.634 50.0291 144.559Z" fill="#53504C"/>
<path d="M99.1528 56.3891C99.2758 56.2651 99.4021 56.1378 99.5251 56.0138C103.634 56.549 107.749 57.0384 111.844 57.6388C113.237 57.8444 114.586 58.3241 115.952 58.6798C116.833 59.1268 117.714 59.5772 118.596 60.0242C120.255 61.3686 121.222 63.0687 121.475 65.1376C122.192 67.7285 122.906 70.3195 123.623 72.9104C124.056 74.48 124.401 76.0789 124.951 77.6126C125.522 79.205 126.235 80.4124 128.175 81.3424C130.002 82.2169 131.539 82.7978 133.592 82.9055C136.116 83.0392 137.98 86.6091 137.099 88.9292C135.678 88.1918 134.329 87.0072 132.823 86.7919C126.29 85.8521 120.279 88.6062 117.988 94.8551C116.628 94.5223 115.269 94.1894 113.91 93.8566C113.555 93.6445 113.2 93.4291 112.848 93.217C112.411 92.5579 111.977 91.8987 111.54 91.2396C111.56 91.0242 111.584 90.8121 111.605 90.5967C112.909 90.3422 114.258 90.2084 115.505 89.7907C116.41 89.4905 117.178 88.8183 118.008 88.3092C118.117 88.1983 118.23 88.0841 118.339 87.9731L118.329 87.9829L119.029 87.0007L119.022 87.0072L120.061 86.0348C120.286 85.8097 120.511 85.5845 120.733 85.3626L120.723 85.3724C121.147 85.1472 121.57 84.9253 121.99 84.7002C121.71 84.6251 121.434 84.5533 121.154 84.4783C120.406 83.718 119.798 82.677 118.876 82.2561C117.158 81.4729 115.293 80.9215 113.432 80.5103C110.235 79.8055 109.129 78.6601 109.252 75.9974C108.005 75.7624 106.806 75.4785 105.587 75.3382C105.201 75.2925 104.679 75.5405 104.371 75.8146C103.716 76.3955 103.162 77.0807 102.565 77.7236C102.247 77.2276 101.718 76.7577 101.649 76.2323C100.778 69.6179 99.9725 63.0002 99.1528 56.3793V56.3891ZM128.827 82.4878C126.58 82.1778 124.487 82.8141 122.591 84.1781C124.702 83.607 126.809 83.0327 128.827 82.4878Z" fill="#D9522A"/>
<path d="M117.985 94.8606C120.277 88.6116 126.287 85.8575 132.821 86.7973C134.323 87.0127 135.676 88.1972 137.096 88.9347C140.409 93.1604 139.108 97.5265 137.506 101.893C137.247 102.601 136.854 103.263 136.523 103.945C136.594 101.351 136.714 98.7568 136.69 96.1625C136.687 95.6502 136.164 94.7724 135.788 94.7268C135.273 94.6615 134.491 95.0988 134.139 95.5458C133.36 96.528 132.78 97.6505 132.124 98.7078C130.276 97.7713 129.293 98.1041 129.221 99.6215C129.194 100.196 129.289 100.852 129.566 101.348C130.57 103.155 131.676 104.911 132.742 106.686C132.093 108.308 131.441 109.93 130.792 111.552C129.385 112.514 127.978 113.477 126.571 114.439C126.062 111.408 125.55 108.377 125.034 105.312C123.135 105.283 122.821 106.569 122.476 107.753C122.155 108.85 121.991 109.93 120.27 109.46C119.979 109.382 119.064 110.184 119.071 110.569C119.085 111.326 119.354 112.227 119.856 112.798C120.977 114.081 122.305 115.197 123.548 116.384L123.415 116.401C123.319 116.512 123.224 116.623 123.132 116.733L123.145 116.724C120.406 117.928 117.667 119.132 114.928 120.333C113.781 120.594 112.644 120.897 111.486 121.109C109.293 121.511 107.896 120.261 108.651 118.251C109.252 116.649 110.427 115.21 111.523 113.826C112.319 112.821 113.402 112.021 114.355 111.131C114.624 110.945 114.915 110.781 115.164 110.573C116.093 109.796 116.851 108.961 116.247 107.649C115.639 106.327 114.515 106.027 113.176 106.262C112.244 106.425 111.339 106.716 110.42 106.951C108.798 106.755 107.459 106.131 106.66 104.686C110.779 103.355 114.898 102.023 119.013 100.692C119.894 100.966 120.779 101.24 121.66 101.517L121.748 101.214C121.479 101.012 121.205 100.813 120.772 100.489C122.513 100.594 124.009 100.685 125.502 100.773C125.509 100.613 125.519 100.454 125.526 100.294C123.582 100.225 121.636 100.157 119.693 100.088C121.458 97.5624 121.055 96.3942 117.992 95.1934C117.992 95.0824 117.985 94.9715 117.982 94.8606H117.985ZM124.146 90.9252C124.177 90.8795 124.204 90.8371 124.235 90.7914C124.207 90.8371 124.18 90.886 124.153 90.9317C124.125 90.9774 124.098 91.0231 124.074 91.0688C124.098 91.0198 124.122 90.9741 124.146 90.9252ZM125.857 103.984C125.97 104.095 126.082 104.203 126.195 104.314C126.335 104.48 126.479 104.647 126.619 104.813C126.656 104.777 126.694 104.741 126.728 104.705C126.554 104.572 126.376 104.438 126.202 104.304C126.086 104.196 125.973 104.089 125.857 103.981C125.813 103.837 125.768 103.691 125.727 103.547L125.591 103.629C125.679 103.746 125.768 103.864 125.857 103.981V103.984ZM124.487 102.682C124.375 102.571 124.262 102.46 124.149 102.353C123.74 101.984 123.33 101.619 122.92 101.25C122.811 101.406 122.698 101.566 122.589 101.723C123.108 101.932 123.627 102.144 124.146 102.353C124.262 102.46 124.378 102.568 124.491 102.676C124.641 102.718 124.791 102.757 124.942 102.8C124.791 102.761 124.638 102.718 124.487 102.679V102.682ZM129.771 88.778C129.74 88.6279 129.709 88.4778 129.675 88.3277C128.575 88.5855 127.476 88.8466 126.38 89.1043C126.414 89.2316 126.444 89.3556 126.479 89.4829C127.575 89.2479 128.675 89.013 129.771 88.778Z" fill="#FFA653"/>
<path d="M130.792 111.553C131.441 109.931 132.093 108.309 132.742 106.684C133.978 106.247 135.218 105.813 136.454 105.379C138.162 105.105 139.091 106.084 139.863 107.314C138.042 109.115 137.605 110.215 138.982 112.196C141.205 115.397 140.737 118.66 139.979 122.037C139.897 122.406 139.856 122.785 139.798 123.16C138.124 123.281 136.454 123.401 134.781 123.525C134.682 123.065 134.579 122.605 134.48 122.145C134.364 122.161 134.252 122.178 134.135 122.197C134.111 122.657 134.084 123.118 134.06 123.578C131.752 123.578 129.443 123.578 127.134 123.578C125.942 123.578 124.747 123.578 123.555 123.578C122.667 121.336 121.786 119.094 123.149 116.728L123.135 116.738C123.231 116.627 123.326 116.516 123.419 116.405L123.552 116.389C124.563 115.929 125.574 115.469 126.584 115.012C128.61 114.77 129.976 115.837 131.376 117.58C131.154 115.279 130.976 113.419 130.795 111.556L130.792 111.553ZM132.694 119.322C132.739 119.349 132.786 119.378 132.831 119.404C132.783 119.378 132.735 119.355 132.684 119.329C132.64 119.303 132.592 119.277 132.547 119.251C132.595 119.274 132.646 119.3 132.694 119.322ZM133.37 120.308C133.323 120.282 133.275 120.256 133.227 120.23L133.374 120.301C133.48 120.66 133.586 121.019 133.688 121.375C133.835 121.3 133.982 121.228 134.125 121.153C133.872 120.869 133.62 120.589 133.364 120.305L133.37 120.308Z" fill="#D9522A"/>
<path d="M123.62 72.9129C122.903 70.322 122.189 67.731 121.472 65.1401C121.67 64.9802 121.994 64.8529 122.052 64.6571C123.213 60.6728 125.853 58.2385 130.16 57.5173C130.32 57.4912 130.471 57.3836 130.624 57.3118C131.321 57.3118 132.021 57.3118 132.718 57.3118C135.054 57.9644 137.257 58.7117 139.029 60.5325C143.527 65.1466 141.526 73.4774 135.279 75.5822C131.43 76.8776 127.95 76.3392 124.928 73.5949C124.583 73.2816 124.064 73.1381 123.623 72.9162L123.62 72.9129ZM137.813 66.9185C137.82 63.3421 135.375 61.0154 131.782 60.8751C127.704 60.7152 125.068 63.8381 125.235 66.8467C125.444 70.6222 127.79 72.8248 131.639 72.8705C134.661 72.9064 137.813 71.1312 137.813 66.9185Z" fill="#73B6FF"/>
<path d="M116.338 31.1757C117.557 31.1757 118.777 31.1692 119.996 31.1692C122.649 31.1692 125.303 31.1692 127.957 31.1725C128.947 31.1725 129.937 31.1725 130.928 31.1725C133.807 31.1757 136.682 31.179 139.561 31.1823C140.128 31.1888 140.729 31.0876 141.259 31.2279C141.85 31.3813 142.376 31.7533 142.929 32.0307C142.41 32.729 141.945 33.4763 141.337 34.0995C141.15 34.292 140.576 34.1517 140.176 34.1517C130.34 34.1485 120.505 34.1485 110.669 34.1321C109.043 34.1321 107.411 34.1256 105.795 33.9755C105.502 33.9494 105.02 33.1728 105.085 32.8171C105.188 32.246 105.567 31.4205 106.024 31.2769C106.847 31.0191 107.821 31.1855 108.729 31.1757C111.267 31.1757 113.801 31.1757 116.338 31.1757Z" fill="#2254B5"/>
<path d="M139.562 31.1783C136.683 31.175 133.807 31.1718 130.928 31.1685C130.946 28.62 130.987 26.0747 130.959 23.5262C130.949 22.7496 130.744 21.9795 130.625 21.2028C131.468 21.1637 132.329 21.2028 133.148 21.0462C133.538 20.9712 133.9 20.56 134.18 20.2272C134.661 19.6496 135.334 19.1112 135.727 20.002C136.314 21.3334 137.356 21.0103 138.374 21.1082C138.947 21.1637 139.497 21.4149 140.057 21.5748C139.815 21.9305 139.565 22.2797 139.34 22.6452C139.258 22.7789 139.193 22.9486 139.2 23.102C139.313 25.7941 139.436 28.4862 139.559 31.1783H139.562Z" fill="#73B6FF"/>
<path d="M116.339 31.1747C113.805 31.1747 111.267 31.1747 108.73 31.1747C108.631 28.8023 108.539 26.43 108.429 24.061C108.409 23.5813 108.501 22.9874 108.252 22.6415C107.101 21.0524 108.221 21.0328 109.375 21.1013C110.724 21.1829 111.991 21.2318 112.319 18.9705C113.631 21.2351 115.485 21.532 117.121 21.4276C116.947 23.0037 116.755 24.4232 116.646 25.8492C116.51 27.6211 116.434 29.3995 116.335 31.1747H116.339Z" fill="#73B6FF"/>
<path d="M127.956 31.1715C125.303 31.1715 122.649 31.1715 119.996 31.1682C119.9 28.5186 119.808 25.8689 119.695 23.2225C119.685 22.9712 119.589 22.6808 119.432 22.4817C118.698 21.5582 119.196 21.1928 120.129 21.1079C121.399 20.9937 122.871 21.5191 123.629 19.943C123.667 19.8647 124.442 19.9332 124.49 20.067C125.033 21.5289 126.317 20.9709 127.355 21.1112C127.83 21.1732 128.284 21.3755 128.749 21.5126C128.537 21.8683 128.274 22.2044 128.124 22.5796C127.99 22.9222 127.922 23.3073 127.922 23.676C127.922 26.1756 127.943 28.6719 127.956 31.1715Z" fill="#73B6FF"/>
<path d="M136.454 105.379C135.217 105.813 133.978 106.251 132.741 106.685C131.676 104.909 130.569 103.154 129.565 101.346C129.289 100.85 129.193 100.194 129.22 99.6199C129.292 98.1025 130.276 97.7697 132.123 98.7062C132.779 97.6489 133.36 96.5264 134.138 95.5442C134.493 95.0971 135.272 94.6599 135.788 94.7251C136.163 94.7708 136.683 95.6486 136.689 96.1609C136.713 98.7551 136.594 101.349 136.522 103.944C136.501 104.42 136.478 104.9 136.457 105.376L136.454 105.379Z" fill="#636928"/>
<path d="M118.596 60.0272C117.714 59.5801 116.833 59.1298 115.952 58.6827C116.065 55.3804 116.239 52.0749 116.266 48.7725C116.283 46.8277 116.044 44.8829 115.979 42.9348C115.962 42.4127 116.027 41.7861 116.324 41.3913C116.584 41.0454 117.209 40.8398 117.69 40.8072C117.871 40.7941 118.339 41.5251 118.251 41.7763C118.124 42.1288 117.626 42.4029 117.229 42.6052C117.031 42.7063 116.703 42.5791 116.096 42.5269C116.437 43.2578 116.608 43.8745 117.001 44.3151C117.134 44.4652 117.817 44.1748 118.596 44.0116V60.0239V60.0272Z" fill="#0C2C7E"/>
<path d="M132.714 57.3124C132.017 57.3124 131.317 57.3124 130.621 57.3124C130.627 52.9626 130.638 48.6128 130.645 44.263C130.757 44.263 130.873 44.2565 130.986 44.2565C131.095 44.2663 131.201 44.276 131.31 44.2826C131.765 44.4947 132.216 44.7068 132.67 44.9189C132.656 45.8913 132.646 46.8637 132.636 47.8394C131.717 48.7857 131.717 51.1646 132.636 52.1044C132.659 53.8404 132.687 55.5764 132.711 57.3124H132.714Z" fill="#0C2C7E"/>
<path d="M132.639 43.2486C131.987 42.7297 131.334 42.2109 130.682 41.6953C131.017 41.4701 131.543 40.9905 131.655 41.0655C132.27 41.4799 132.782 42.0314 133.329 42.5372L132.636 43.2486H132.639Z" fill="#0C2C7E"/>
<path d="M132.64 52.1047C131.721 51.1616 131.717 48.7828 132.64 47.8397C132.64 49.2625 132.64 50.6819 132.64 52.1047Z" fill="#0C2C7E"/>
<path d="M132.673 44.9183C132.219 44.7062 131.768 44.4941 131.314 44.282C131.782 44.468 132.823 43.5314 132.673 44.9183Z" fill="#0C2C7E"/>
<path d="M130.99 44.2566C130.877 44.2566 130.761 44.2631 130.648 44.2631C130.515 43.8389 130.382 43.4147 130.252 42.9937C130.378 42.9611 130.501 42.9252 130.628 42.8926C130.751 43.3462 130.87 43.803 130.993 44.2566H130.99Z" fill="#0C2C7E"/>
<path d="M99.1525 56.3879C99.9756 63.0056 100.778 69.6265 101.649 76.2409C101.717 76.7663 102.25 77.2362 102.564 77.7322C103.678 79.2822 104.788 80.8355 105.901 82.3855C104.579 82.5747 103.206 82.6139 101.943 82.9859C99.5794 83.6809 97.2263 84.4608 94.9655 85.4169C93.4047 86.0794 91.9328 87.0028 90.5872 88.0111C90.2047 88.2983 90.3925 89.287 90.3208 89.9527C90.2901 91.4244 91.5503 91.816 92.5953 92.2173C97.5644 94.1296 102.844 94.4428 108.104 94.8311C108.671 95.5947 109.241 96.3616 109.808 97.1251C109.316 97.4678 108.862 97.8887 108.319 98.1367C106.43 99.0014 104.511 99.8074 102.605 100.64C99.4804 101.756 96.3213 102.79 93.2442 104.017C91.1814 104.839 89.2382 105.932 87.2437 106.905C86.909 107.029 86.5743 107.15 86.2397 107.274C85.2766 107.225 84.3169 107.136 83.3538 107.127C73.8118 107.035 64.2834 107.202 54.8164 108.491C54.6662 107.916 54.5808 107.319 54.3554 106.771C53.7065 105.195 53.1054 103.638 54.0958 101.987C53.7441 100.362 53.3889 98.7404 53.0371 97.1153C53.0747 96.9391 53.1122 96.7629 53.1498 96.5867C56.3977 91.444 59.584 86.2621 62.9275 81.1781C64.2594 79.1549 65.1064 77.0665 65.3899 74.7073C65.605 72.9354 65.9944 71.1831 66.3086 69.4209C68.8665 69.4862 71.0659 68.8988 72.2442 66.4515C71.6499 70.1029 71.0591 73.7544 70.4444 77.5364C78.9311 76.9066 87.1242 76.2964 95.4504 75.6797C95.2763 73.2323 95.0987 70.9122 94.9518 68.5921C94.6991 64.6437 94.4703 60.6953 94.2278 56.7436C95.8705 56.6229 97.5098 56.5054 99.1525 56.3846V56.3879ZM60.5779 95.4707L60.0758 95.908C60.1134 95.9439 60.151 95.9765 60.1885 96.0124C60.3354 95.846 60.4822 95.6796 60.6291 95.5131C60.7452 95.2978 60.8613 95.0857 60.974 94.8703C61.1414 94.7267 61.3121 94.5831 61.4795 94.4363C61.4419 94.4004 61.4043 94.3645 61.3668 94.3319C61.2199 94.4983 61.0731 94.668 60.9296 94.8344C60.8101 95.0465 60.694 95.2586 60.5744 95.4707H60.5779ZM57.2241 99.7683L57.7228 99.3278C57.6852 99.2919 57.6476 99.2592 57.6101 99.2233C57.4632 99.3898 57.3164 99.5594 57.1729 99.7259C57.0909 99.8466 57.009 99.9673 56.9338 100.095C56.9304 100.101 57.0124 100.157 57.0534 100.186C57.1114 100.046 57.1661 99.9086 57.2241 99.7683ZM58.5356 98.0812C58.3682 98.2248 58.2009 98.3717 58.0335 98.5152C58.0711 98.5511 58.1087 98.587 58.1428 98.6229C58.2897 98.4598 58.44 98.2933 58.5868 98.1302C58.6278 98.0714 58.6722 98.0127 58.7132 97.9572C58.6551 97.9997 58.5936 98.0421 58.5356 98.0845V98.0812ZM59.5636 96.7792C59.3928 96.9228 59.222 97.0664 59.0513 97.21L59.1606 97.3177C59.3074 97.1512 59.4577 96.9881 59.6045 96.8217C59.6455 96.7662 59.6899 96.7074 59.7309 96.652C59.6728 96.6944 59.6182 96.7368 59.5601 96.7792H59.5636ZM61.9952 93.565C62.2206 93.3431 62.4494 93.1212 62.6748 92.8993C62.7533 92.7819 62.8353 92.6644 62.907 92.5404C62.9104 92.5339 62.8319 92.4817 62.7909 92.4523C62.7363 92.5893 62.685 92.7264 62.6304 92.8635C62.405 93.0854 62.1796 93.304 61.9508 93.5259C61.9064 93.5813 61.8654 93.6368 61.821 93.6923C61.8791 93.6499 61.9337 93.6075 61.9918 93.565H61.9952ZM71.8309 96.0418C74.2591 97.6407 82.9884 99.4746 84.2349 98.8807C80.287 97.9768 76.0282 97.0011 71.8309 96.0418ZM75.2735 86.6276L75.2598 87.2704H84.6208C84.6208 87.2117 84.6277 87.1529 84.6277 87.0975C81.5096 86.9408 78.3915 86.7842 75.2735 86.6308V86.6276Z" fill="#FEFDFD"/>
<path d="M64.9943 41.6697C64.4172 39.9272 63.84 38.1814 63.2628 36.4389C63.1843 36.2138 63.1057 35.9886 63.0272 35.7602C62.6105 32.1544 62.1905 28.5486 61.7841 24.9396C61.7123 24.3 61.6884 23.6539 61.6201 22.701C71.9852 23.4418 80.3764 18.7885 89.0203 13.6849C88.9178 14.703 88.8905 15.3132 88.7948 15.9137C88.3714 18.5209 88.648 20.828 90.4512 23.1122C91.7524 24.7601 92.2408 27.0019 93.0604 28.9924C93.2585 29.4688 93.3371 29.9909 93.904 30.575C94.1601 30.1019 94.3104 29.5243 94.6929 29.1719C95.516 28.4148 96.3766 27.4587 97.3807 27.227C97.8246 27.1259 99.1702 28.5617 99.2249 29.3546C99.382 31.6355 99.4264 34.0242 98.8697 36.2203C98.4359 37.9302 96.9879 39.3529 94.5734 39.131C94.6143 42.789 90.9601 43.7255 89.1842 46.0456C88.7914 46.5612 88.286 46.9985 87.8352 47.4716C86.6774 48.3592 85.5197 49.2468 84.3619 50.1344C82.6236 51.4657 80.8374 52.6568 78.4297 52.4479C78.0814 52.4186 77.7057 52.6307 77.3437 52.7351C76.8007 52.5361 76.2542 52.337 75.7112 52.1379C71.2817 49.4524 66.9034 46.7178 64.9977 41.6763L64.9943 41.6697ZM84.5429 41.6763C84.659 41.5653 84.7752 41.4576 84.8879 41.3467C84.9323 41.288 84.9732 41.2292 85.0176 41.1705C84.9562 41.2129 84.8981 41.2553 84.8366 41.2977C84.7239 41.4087 84.6078 41.5196 84.4951 41.6339C84.3824 41.7415 84.2663 41.846 84.1536 41.9536C84.0375 42.0581 83.9214 42.1657 83.8018 42.2702C83.5764 42.3811 83.351 42.4888 83.1222 42.5997C82.4631 42.9 81.8005 43.1969 81.1414 43.4971C81.2404 43.6603 81.3429 43.8234 81.4419 43.9866C82.0259 43.5493 82.6099 43.1153 83.1905 42.6781C83.4159 42.5638 83.6379 42.4496 83.8633 42.3322C83.976 42.2212 84.0887 42.1103 84.198 41.9993C84.3107 41.8916 84.4234 41.784 84.5361 41.6763H84.5429ZM75.6224 36.0865C75.5131 35.4698 75.4073 34.853 75.2946 34.2395C74.936 32.3045 74.5774 30.3694 74.2188 28.4344C74.1368 28.4638 74.0514 28.4899 73.9695 28.5192C74.2837 31.7302 74.5945 34.9411 74.9087 38.1521C74.9838 38.1423 75.0589 38.1325 75.1375 38.1227C75.3116 37.457 75.4858 36.7913 75.6634 36.1224C75.7112 36.0669 75.7556 36.0147 75.8034 35.9592C75.7454 36.0016 75.6839 36.0441 75.6258 36.0865H75.6224ZM71.8555 29.8767C70.0249 30.5391 68.191 31.2048 66.3911 31.8574C68.6725 33.3422 71.2646 32.4611 71.9101 29.9322C71.9511 29.8767 71.9921 29.818 72.0296 29.7625C71.9716 29.8017 71.9101 29.8408 71.8521 29.88L71.8555 29.8767ZM85.8783 27.2825C84.0443 27.8111 82.2069 28.3398 80.4071 28.8553C82.6611 30.6533 84.6386 30.1117 85.8988 27.3021C85.9432 27.2531 85.991 27.2042 86.0354 27.1552C85.9841 27.1977 85.9295 27.2401 85.8783 27.2825ZM79.4372 23.556C81.961 22.8087 84.1331 22.1626 86.5545 21.4447C84.6181 20.5506 82.8319 20.394 81.196 21.3044C80.4344 21.7286 80.0383 22.7532 79.4372 23.556ZM71.5959 25.677C70.7353 24.5414 69.4307 24.4827 68.1534 24.8058C66.7293 25.1647 65.4827 25.8696 65.0934 27.4228C67.2689 26.8387 69.3555 26.2774 71.5959 25.677ZM78.44 35.3947C78.4127 35.2805 78.3853 35.1695 78.358 35.0553C77.7569 35.1695 77.1559 35.2838 76.5548 35.3947C76.5923 35.5383 76.6265 35.6819 76.6641 35.8254C77.2549 35.6819 77.8491 35.5383 78.44 35.3947ZM75.9776 38.436C75.9366 38.5828 75.8991 38.7264 75.8581 38.8732C76.5582 38.932 77.2617 38.994 77.9618 39.0527C77.9721 38.9744 77.9823 38.8928 77.9892 38.8145C77.3198 38.6872 76.647 38.5632 75.9776 38.436ZM73.3172 27.0345C73.2215 27.0671 73.1293 27.0965 73.0337 27.1291C73.1191 27.351 73.2079 27.5697 73.2933 27.7916C73.3786 27.7622 73.464 27.7361 73.5494 27.7067C73.4709 27.4816 73.3957 27.2597 73.3172 27.0345Z" fill="#FD9E7E"/>
<path d="M94.2278 56.7482C94.4668 60.6966 94.6991 64.6483 94.9518 68.5967C95.0986 70.9168 95.2762 73.2369 95.4504 75.6843C87.1242 76.3043 78.9277 76.9112 70.4443 77.541C71.0591 73.759 71.6533 70.1076 72.2441 66.4561L72.2134 66.4789C72.6881 64.7854 73.2653 63.1114 73.6136 61.3949C73.9517 59.7209 74.0508 58.0045 74.2557 56.3044C74.9524 56.1184 75.6525 55.9292 76.3492 55.7432C76.9093 55.5931 77.4728 55.443 78.0329 55.2928C78.0261 55.5245 78.0192 55.7595 78.0124 55.9912C75.5091 60.9316 77.4831 64.2176 80.6319 67.0304C81.4652 67.7744 82.4078 67.9963 83.4084 67.311C87.5818 64.4525 90.2115 60.7097 90.635 55.7171C91.8337 56.063 93.0324 56.4088 94.2312 56.7547L94.2278 56.7482ZM79.037 70.0652C79.1497 70.1728 79.2658 70.2805 79.3785 70.3849C81.0485 71.8109 83.586 72.1536 84.7062 71.266C83.0327 70.9756 81.2227 70.6623 79.4126 70.349C79.2999 70.2414 79.1872 70.1337 79.0745 70.026C78.996 69.7976 78.9174 69.5692 78.8355 69.3407C78.7023 69.4876 78.5725 69.6344 78.4393 69.7845C78.6374 69.8792 78.8355 69.9705 79.037 70.0652Z" fill="#D9522A"/>
<path d="M90.6322 55.7142C90.2087 60.7069 87.579 64.4497 83.4057 67.3082C82.405 67.9935 81.4624 67.7716 80.6291 67.0276C77.4803 64.2148 75.5063 60.9288 78.0096 55.9884C78.218 56.6704 78.6073 57.3556 78.5868 58.0311C78.5629 58.886 78.2043 59.7345 77.9892 60.5861C79.4953 58.7881 78.9488 56.7095 79.0445 54.7125L79.0684 54.6929C81.1926 55.4206 82.9275 54.9311 84.2595 53.1788C84.6898 52.611 85.045 51.9812 85.5504 51.4852C86.2744 50.7771 87.1009 50.1636 87.883 49.511C88.0059 51.7332 88.7948 53.7009 90.3658 55.3651C90.4649 55.4793 90.5605 55.5935 90.6595 55.7077H90.6356L90.6322 55.7142Z" fill="#FD9E7E"/>
<path d="M64.994 41.6687C66.8997 46.7135 71.278 49.4448 75.7075 52.1304C74.9869 53.0506 74.2663 53.9708 73.5457 54.891C72.7636 55.0411 71.9815 55.1912 71.1995 55.3413C67.8799 51.5593 66.0596 47.0986 64.796 42.3899C64.7379 42.1778 64.9189 41.9102 64.9906 41.6687H64.994Z" fill="#A03640"/>
<path d="M71.203 55.3417C71.9851 55.1916 72.7672 55.0415 73.5492 54.8914C73.7849 55.3613 74.0205 55.8311 74.2528 56.301C74.0479 57.9979 73.9488 59.7176 73.6107 61.3916C73.2658 63.108 72.6886 64.782 72.2105 66.4756C72.5452 64.7298 71.7016 63.6268 70.134 62.8502C69.2017 62.3868 68.3274 61.8158 67.4292 61.2937C68.061 59.7665 68.6894 58.2394 69.3212 56.7122C69.9462 56.2554 70.5746 55.7985 71.1996 55.3417H71.203Z" fill="#FEFDFD"/>
<path d="M87.8791 49.5096C87.0971 50.1623 86.2672 50.7757 85.5466 51.4838C85.0411 51.9798 84.6859 52.6096 84.2556 53.1774C82.9271 54.933 81.1922 55.4225 79.0645 54.6915C79.0167 54.5545 78.9723 54.4141 78.9245 54.2771C78.8835 54.3065 78.8015 54.3554 78.805 54.3587C78.8801 54.4794 78.9621 54.5936 79.0406 54.7111C78.945 56.7081 79.4914 58.7868 77.9853 60.5848C78.2005 59.7331 78.5556 58.8879 78.583 58.0297C78.6035 57.3542 78.2141 56.669 78.0058 55.987C78.0126 55.7553 78.0195 55.5204 78.0263 55.2887C77.7975 54.4337 77.5687 53.582 77.3364 52.7271C77.6984 52.6259 78.0707 52.4106 78.4225 52.4399C80.8302 52.6488 82.6197 51.4577 84.3547 50.1264C85.5124 49.2388 86.6702 48.3512 87.8279 47.4636C87.8416 48.1424 87.8587 48.8244 87.8757 49.5064L87.8791 49.5096Z" fill="#DA7F62"/>
<path d="M63.024 35.7595C63.1025 35.9847 63.1811 36.2098 63.2596 36.4383C62.6722 39.2315 62.0882 42.0248 61.5862 44.4232C61.0568 41.705 61.5998 38.68 63.024 35.7595Z" fill="#A32928"/>
<path d="M94.6513 53.5981C93.8727 53.7743 93.0906 53.9505 92.3119 54.1267C92.2709 53.9472 92.2299 53.7678 92.189 53.5916C92.9779 53.461 93.7668 53.3305 94.5557 53.2032C94.5899 53.3338 94.6206 53.4676 94.6547 53.5981H94.6513Z" fill="#A32928"/>
<path d="M96.7111 40.9508V42.7553C96.5984 42.7553 96.4857 42.7619 96.3696 42.7619V40.9736C96.4823 40.9671 96.595 40.9573 96.7111 40.9508Z" fill="#A32928"/>
<path d="M98.1963 44.5732L99.395 46.0515C99.1935 46.1624 98.9954 46.2701 98.7939 46.381C98.5856 45.7871 98.3739 45.1965 98.1655 44.6026L98.1963 44.5732Z" fill="#A32928"/>
<path d="M97.8278 44.2789C97.4999 44.0994 97.1687 43.9199 96.8408 43.7404C96.9569 43.6067 97.0765 43.4729 97.1926 43.3358C97.4146 43.6393 97.6366 43.9428 97.862 44.2462L97.8278 44.2789Z" fill="#A32928"/>
<path d="M62.18 46.7461C62.1254 46.4394 62.0708 46.1327 62.0195 45.8259C62.1254 45.8063 62.2313 45.7835 62.3406 45.7639C62.4157 46.0674 62.4908 46.3709 62.5626 46.6743C62.4362 46.6972 62.3064 46.7233 62.18 46.7461Z" fill="#A32928"/>
<path d="M96.3114 51.6767C96.1577 51.8986 96.0041 52.1205 95.8504 52.3424C95.7616 52.2935 95.6762 52.2445 95.5874 52.1956C95.7206 51.9573 95.8538 51.7191 95.9904 51.4777C96.0997 51.5429 96.2056 51.6115 96.3148 51.6767H96.3114Z" fill="#A32928"/>
<path d="M97.8618 44.2466C97.9745 44.3543 98.0838 44.462 98.1965 44.5729L98.1657 44.6023C98.053 44.4946 97.9403 44.3869 97.8242 44.2825L97.8584 44.2498L97.8618 44.2466Z" fill="#A32928"/>
<path d="M123.141 116.725C121.778 119.087 122.659 121.333 123.547 123.574C122.427 123.574 121.283 123.454 120.19 123.623C119.545 123.721 118.53 124.204 118.455 124.635C118.284 125.633 119.179 125.924 120.135 125.865C120.303 125.855 120.47 125.881 120.641 125.888C120.675 126.42 120.706 126.955 120.74 127.487C120.73 133.932 120.655 140.38 120.733 146.824C120.784 150.903 123.711 153.954 128.554 155.292C126.761 155.371 124.971 155.501 123.178 155.511C120.859 155.524 118.541 155.442 116.225 155.403C116.136 153.84 116.03 152.28 115.959 150.714C115.723 145.467 115.467 140.22 115.286 134.973C115.118 130.094 115.04 125.216 114.92 120.337C117.659 119.133 120.398 117.929 123.137 116.728L123.141 116.725Z" fill="#F2E7C8"/>
<path d="M114.928 120.334C115.044 125.212 115.126 130.094 115.293 134.969C115.474 140.216 115.73 145.463 115.966 150.711C116.034 152.274 116.14 153.837 116.232 155.4C114.313 155.423 112.394 155.445 110.471 155.468C110.461 155.276 110.45 155.083 110.44 154.887C110.44 151.412 110.44 147.937 110.44 144.462C110.338 144.373 110.239 144.285 110.136 144.197C105.901 144.184 101.663 144.171 97.4282 144.158C97.4555 142.853 97.4829 141.548 97.5102 140.242C98.0805 140.233 98.6475 140.216 99.2178 140.213C103.78 140.18 106.543 137.573 106.564 133.187C106.588 127.043 106.564 120.895 106.554 114.751C106.615 114.202 106.677 113.651 106.738 113.103C109.279 112.447 111.82 111.788 114.361 111.132C113.405 112.023 112.322 112.822 111.526 113.827C110.43 115.211 109.255 116.653 108.654 118.252C107.899 120.262 109.296 121.512 111.489 121.11C112.646 120.898 113.784 120.595 114.931 120.334H114.928Z" fill="#FEFDFD"/>
<path d="M28.482 140.226C28.7177 142.758 28.885 145.294 29.2061 147.816C29.5271 150.339 29.8686 152.832 28.5333 155.204C26.2348 155.318 23.9364 155.537 21.6414 155.501C20.7398 155.488 19.8484 154.9 18.9536 154.577C17.7173 153.69 17.5841 152.42 17.7105 151.105C18.0657 147.467 18.4584 143.832 18.8341 140.197L18.8956 140.157C22.0888 140.18 25.282 140.203 28.4786 140.226H28.482Z" fill="#F7D05E"/>
<path d="M163.096 125.848C158.558 125.842 154.015 125.835 149.477 125.829C149.9 125.731 150.324 125.548 150.744 125.545C154.439 125.522 158.138 125.522 161.836 125.545C162.256 125.545 162.676 125.741 163.096 125.848Z" fill="#A0503A"/>
<path d="M147.341 125.835C143.263 125.835 139.182 125.838 135.104 125.842C135.525 125.741 135.945 125.555 136.365 125.551C139.602 125.525 142.836 125.525 146.074 125.548C146.498 125.548 146.918 125.734 147.341 125.835Z" fill="#A0503A"/>
<path d="M134.056 123.574C134.08 123.114 134.107 122.654 134.131 122.194C134.247 122.178 134.36 122.161 134.476 122.142C134.575 122.602 134.674 123.062 134.777 123.522C134.538 123.538 134.295 123.555 134.056 123.571V123.574Z" fill="#A0503A"/>
<path d="M17.9197 139.237C18.0392 139.328 18.1587 139.423 18.2783 139.514C15.6451 139.531 13.0154 139.544 10.3823 139.56C12.0455 139.452 13.7053 139.325 15.3719 139.243C16.2189 139.201 17.0693 139.237 17.9197 139.237Z" fill="#A03640"/>
<path d="M28.479 140.226C25.2858 140.203 22.0892 140.18 18.896 140.158C18.896 139.978 18.896 139.799 18.896 139.619C22.0995 139.613 25.2995 139.606 28.5029 139.603C28.4961 139.812 28.4859 140.017 28.479 140.226Z" fill="#A0503A"/>
<path d="M97.5077 140.242C97.4804 141.548 97.453 142.853 97.4257 144.158C93.9115 144.249 90.3972 144.308 86.8898 144.478C86.5278 144.494 85.9643 145.153 85.9063 145.568C85.7628 146.573 85.8584 147.607 85.5784 148.632C85.5784 147.738 85.5101 146.837 85.5955 145.95C85.7048 144.837 85.2915 144.308 84.0996 144.403C84.3148 144.08 84.4582 143.567 84.7588 143.466C87.8358 142.432 90.9334 141.463 94.0276 140.474C95.1888 140.396 96.3499 140.317 97.5111 140.239L97.5077 140.242Z" fill="#53504C"/>
<path d="M61.6572 144.464C61.6572 143.058 61.6572 141.648 61.6572 140.241C62.6886 140.241 63.72 140.248 64.7548 140.248C67.6611 141.224 70.5811 142.167 73.4636 143.211C73.9656 143.394 74.3003 144.001 74.7101 144.412C70.3591 144.431 66.0116 144.448 61.6606 144.467L61.6572 144.464Z" fill="#393837"/>
<path d="M74.7068 144.409C74.2969 143.997 73.9623 143.39 73.4602 143.208C70.5812 142.163 67.6612 141.22 64.7515 140.245C69.2664 140.245 73.7847 140.248 78.2996 140.251C78.2859 141.635 78.2722 143.018 78.2586 144.405C77.0735 144.405 75.8918 144.405 74.7068 144.405V144.409Z" fill="#FEFDFD"/>
<path d="M94.0238 140.478C90.9297 141.466 87.8321 142.436 84.755 143.47C84.4579 143.571 84.3144 144.083 84.0959 144.407C82.9962 144.416 81.8965 144.429 80.7968 144.439C80.7524 143.036 80.708 141.633 80.6636 140.23C84.755 140.226 88.8464 140.213 92.9378 140.23C93.2998 140.23 93.6618 140.393 94.0238 140.481V140.478Z" fill="#FEFDFD"/>
<path d="M80.6665 140.23C80.7109 141.633 80.7553 143.036 80.7997 144.439C79.9527 144.43 79.1058 144.42 78.2588 144.407C78.2724 143.023 78.2861 141.64 78.2998 140.253C79.0887 140.243 79.8776 140.236 80.6665 140.227V140.23Z" fill="#393837"/>
<path d="M44.9807 55.9607C48.7579 57.5041 52.5317 59.0476 56.3089 60.5878C53.488 61.929 52.4327 64.236 52.3883 67.1076C52.3849 67.4176 52.3439 67.9169 52.1595 68.0017C50.3187 68.8371 51.0837 70.0444 51.5003 70.8178C50.6909 71.9338 50.0694 72.8018 49.4341 73.6633C47.3577 76.4696 44.6699 78.6037 41.5006 80.1994C38.6353 76.4761 36.4154 72.5049 36.2651 67.7374C36.3232 67.646 36.3608 67.5514 36.3744 67.4437L36.3539 67.4535C36.5862 67.3425 36.8184 67.2283 37.054 67.1174L37.0404 67.1272C37.2726 67.0162 37.5049 66.9053 37.7371 66.7911L37.7268 66.7976C37.843 66.6867 37.9625 66.5757 38.0786 66.4615L38.0684 66.4713C38.3006 66.3603 38.5294 66.2494 38.7616 66.1384L38.7582 66.145C38.9871 65.9263 39.2193 65.7044 39.4481 65.4858H39.4379C39.554 65.3749 39.6701 65.2639 39.7862 65.153L39.7794 65.1595C39.8955 65.0486 40.0116 64.9376 40.1277 64.8267L40.1209 64.8332C40.237 64.7222 40.3531 64.6113 40.4692 64.4971V64.5036C41.3401 63.913 41.3196 63.355 40.4078 62.8263C40.0423 62.5065 39.6803 62.1835 39.2705 61.8246C39.4686 60.8978 40.9918 60.1342 39.7828 58.9693C39.6667 58.8453 39.5471 58.7213 39.431 58.5973L39.4481 58.6071C39.653 57.664 39.8545 56.7177 39.9604 56.2282C41.9139 56.1238 43.4473 56.0422 44.9841 55.9574L44.9807 55.9607Z" fill="#F2E7C8"/>
<path d="M44.9813 55.9617C43.4479 56.0432 41.911 56.1281 39.9576 56.2325C39.8517 56.7252 39.6468 57.6683 39.4453 58.6113C38.9193 58.4906 38.3934 58.3731 37.5908 58.1904C38.8271 57.1494 40.002 56.2684 39.0559 54.7282L39.1038 54.6825C40.9138 55.8148 42.9663 55.7104 44.995 55.7398C44.9916 55.8148 44.9847 55.8899 44.9813 55.9649V55.9617Z" fill="#DA7F62"/>
<path d="M30.289 51.4967C32.9836 52.2048 35.6816 52.9129 38.3761 53.621C38.3249 53.8005 38.2703 53.9799 38.2191 54.1594C35.5347 53.4089 32.8504 52.6584 30.166 51.9078C30.207 51.7708 30.248 51.6305 30.2855 51.4934L30.289 51.4967Z" fill="#DA7F62"/>
<path d="M44.5781 86.6609C44.9128 87.1079 45.2441 87.5517 45.5788 87.9988C45.5275 89.6369 45.4763 91.2717 45.4285 92.9098L45.2236 92.8772C45.0084 90.8051 44.7967 88.733 44.5815 86.6642L44.5781 86.6609Z" fill="#DA7F62"/>
<path d="M36.3744 67.4443C36.3608 67.5488 36.3266 67.6466 36.2652 67.738C34.9196 68.1002 33.574 68.4592 32.225 68.8214C32.1772 68.6256 32.1294 68.4298 32.085 68.234C33.5159 67.973 34.9435 67.7086 36.3744 67.4476V67.4443Z" fill="#DA7F62"/>
<path d="M40.4048 62.8334C41.3166 63.362 41.3371 63.9233 40.4663 64.5106C40.4458 63.9526 40.4253 63.3914 40.4048 62.8334Z" fill="#DA7F62"/>
<path d="M37.7338 66.7925C37.5016 66.9034 37.2693 67.0144 37.0371 67.1286C37.2693 67.0176 37.5016 66.9067 37.7338 66.7925Z" fill="#DA7F62"/>
<path d="M37.0507 67.1184C36.8185 67.2294 36.5862 67.3436 36.3506 67.4545C36.5828 67.3436 36.8151 67.2294 37.0507 67.1184Z" fill="#DA7F62"/>
<path d="M39.056 54.7274C39.0116 54.672 38.9672 54.6165 38.9229 54.5577C38.9843 54.6002 39.0424 54.6393 39.1039 54.6817L39.056 54.7274Z" fill="#DA7F62"/>
<path d="M41.4741 50.7864C41.5902 50.8973 41.7064 51.0083 41.8191 51.116C41.7029 51.005 41.5868 50.8941 41.4741 50.7864Z" fill="#DA7F62"/>
<path d="M40.79 50.1372C40.9027 50.2449 41.0189 50.3558 41.135 50.4635C41.0189 50.3558 40.9062 50.2449 40.79 50.1372Z" fill="#DA7F62"/>
<path d="M40.1079 49.4811C40.224 49.592 40.3367 49.703 40.4528 49.8107C40.3367 49.6997 40.224 49.5888 40.1079 49.4811Z" fill="#DA7F62"/>
<path d="M38.0793 66.4623C37.9632 66.5732 37.8437 66.6842 37.7275 66.7984C37.8437 66.6874 37.9632 66.5765 38.0793 66.4623Z" fill="#DA7F62"/>
<path d="M40.469 64.5048C40.3528 64.6157 40.2367 64.7267 40.1206 64.8409C40.2367 64.7299 40.3528 64.619 40.469 64.5048Z" fill="#DA7F62"/>
<path d="M54.0926 101.991C53.1022 103.639 53.7033 105.199 54.3522 106.775C54.5776 107.32 54.663 107.921 54.8132 108.495C54.4171 108.583 54.0243 108.671 53.6282 108.759C51.5141 107.904 49.3967 107.049 47.2827 106.191C48.9049 103.832 51.6678 103.166 54.0926 101.991Z" fill="#F2E7C8"/>
<path d="M53.147 96.5912C53.1094 96.7674 53.0719 96.9436 53.0343 97.1198C52.7167 98.0498 52.3957 98.9765 52.078 99.9065C51.9722 99.8772 51.8629 99.8478 51.757 99.8184C51.9722 98.8949 52.1976 97.9715 52.4025 97.0415C53.1333 93.7196 52.6279 90.4988 51.5589 87.3173C51.4565 87.0138 51.436 86.6842 51.3745 86.3677L51.4018 86.3448C51.9653 88.0939 52.7235 89.8103 53.0411 91.5985C53.328 93.2203 53.1333 94.9204 53.1538 96.5846L53.147 96.5912Z" fill="#A32928"/>
<path d="M49.356 101.115C49.4106 100.935 49.455 100.752 49.537 100.583C49.5506 100.557 49.7248 100.602 49.8238 100.615C49.7965 100.795 49.7658 100.977 49.7385 101.157L49.3594 101.115H49.356Z" fill="#A32928"/>
<path d="M51.6846 100.624C51.6402 100.806 51.5959 100.986 51.5515 101.169C51.4285 101.126 51.3021 101.08 51.1792 101.038C51.2748 100.872 51.3704 100.708 51.4661 100.542C51.5378 100.568 51.6129 100.594 51.6846 100.62V100.624Z" fill="#A32928"/>
<path d="M49.6568 83.4397C49.4895 83.332 49.3255 83.2276 49.1582 83.1199C49.2231 83.0579 49.2914 82.9959 49.3563 82.9307C49.4656 83.0906 49.5749 83.2504 49.6876 83.4136L49.6568 83.4397Z" fill="#A32928"/>
<path d="M46.6142 106.218C46.3751 106.218 46.136 106.218 45.897 106.218C46.1292 106.012 46.358 105.807 46.5903 105.601L46.6142 105.624C46.6142 105.82 46.6142 106.019 46.6142 106.215V106.218Z" fill="#A32928"/>
<path d="M51.3714 86.3699C51.286 86.2459 51.2006 86.1219 51.1221 85.9914C51.1221 85.9882 51.204 85.9327 51.2518 85.9033C51.2997 86.0502 51.3475 86.2003 51.3987 86.3471L51.3714 86.3667V86.3699Z" fill="#A32928"/>
<path d="M47.9453 103.969C48.0614 103.753 48.1775 103.535 48.2971 103.319L48.3244 103.346C48.2117 103.564 48.0956 103.783 47.9829 104.005L47.9453 103.969Z" fill="#A32928"/>
<path d="M47.27 104.951C47.3861 104.736 47.5022 104.517 47.6184 104.302L47.6389 104.321C47.5227 104.54 47.41 104.758 47.2939 104.977L47.2666 104.954L47.27 104.951Z" fill="#A32928"/>
<path d="M50.0051 84.0899C49.889 83.8745 49.7729 83.6559 49.6567 83.4405L49.6875 83.4144C49.8036 83.6298 49.9163 83.8452 50.0324 84.0638L50.0051 84.0899Z" fill="#A32928"/>
<path d="M50.3735 84.3873L50.7184 85.0432L50.6877 85.0726C50.5716 84.854 50.4555 84.6386 50.3394 84.42L50.3701 84.3906L50.3735 84.3873Z" fill="#A32928"/>
<path d="M46.9243 105.278C47.0404 105.17 47.1531 105.062 47.2693 104.954L47.2932 104.977C47.1805 105.088 47.0678 105.199 46.9551 105.307L46.9209 105.278H46.9243Z" fill="#A32928"/>
<path d="M46.9548 105.306C46.8421 105.414 46.726 105.518 46.6133 105.626L46.5894 105.603C46.7021 105.492 46.8113 105.385 46.924 105.277L46.9548 105.306Z" fill="#A32928"/>
<path d="M50.7187 85.0434C50.7631 85.0989 50.8109 85.1544 50.8553 85.2098C50.8007 85.1642 50.7426 85.1185 50.688 85.0695L50.7187 85.0402V85.0434Z" fill="#A32928"/>
<path d="M50.0356 84.0638C50.1483 84.1715 50.261 84.2792 50.3737 84.3869L50.343 84.4163C50.2303 84.3086 50.121 84.1976 50.0083 84.0899L50.0356 84.0638Z" fill="#A32928"/>
<path d="M48.2974 103.319L48.4647 103.179C48.4169 103.234 48.3691 103.29 48.3247 103.345L48.2974 103.319Z" fill="#A32928"/>
<path d="M47.9831 104.005C47.867 104.109 47.7543 104.217 47.6382 104.321L47.6177 104.302C47.727 104.191 47.8363 104.08 47.9455 103.969L47.9831 104.001V104.005Z" fill="#A32928"/>
<path d="M53.6285 108.755C54.0246 108.667 54.4174 108.579 54.8135 108.491C64.2839 107.202 73.8123 107.036 83.3509 107.127C84.314 107.137 85.2737 107.222 86.2368 107.274C86.0933 107.594 85.9533 107.914 85.8099 108.233C75.7453 108.194 65.6909 108.357 55.681 109.402C62.105 111.777 99.5014 111.647 102.749 109.118C98.3915 108.889 94.4606 108.687 90.5262 108.481C91.3664 108.165 92.2031 107.845 93.0433 107.529C93.4018 107.522 93.7604 107.512 94.1156 107.506C98.0465 107.953 101.974 108.397 105.905 108.844C106.571 109.173 107.237 109.503 108.159 109.956C107.486 110.475 107.069 110.795 106.653 111.115C93.6716 113.676 80.5231 112.743 67.4293 112.701C63.1637 112.688 58.9015 111.777 54.6394 111.288C53.9085 111.203 53.1708 111.183 52.4366 111.131C51.9926 110.841 51.5486 110.553 50.6675 109.979C51.856 109.49 52.7405 109.124 53.625 108.759L53.6285 108.755Z" fill="#5595E7"/>
<path d="M106.656 111.116C107.073 110.797 107.489 110.474 108.162 109.958C107.24 109.504 106.574 109.175 105.908 108.845C107.411 108.215 108.914 107.582 110.416 106.953C111.335 106.718 112.24 106.427 113.172 106.264C114.508 106.032 115.631 106.329 116.243 107.651C116.847 108.963 116.089 109.795 115.16 110.575C114.911 110.784 114.62 110.947 114.351 111.133C111.81 111.789 109.269 112.448 106.731 113.104C106.707 112.441 106.68 111.779 106.656 111.116Z" fill="#252727"/>
<path d="M37.3966 139.564C34.6371 139.531 31.8776 139.499 29.1182 139.466C29.2138 139.388 29.306 139.31 29.4016 139.234C31.5361 139.241 33.674 139.228 35.8085 139.267C36.3413 139.277 36.8672 139.463 37.4 139.567L37.3966 139.564Z" fill="#A0503A"/>
<path d="M105.902 82.3859C104.788 80.8359 103.678 79.2827 102.565 77.7327C103.159 77.0898 103.716 76.4045 104.372 75.8237C104.679 75.5529 105.201 75.3049 105.587 75.3473C106.803 75.4876 108.005 75.7715 109.252 76.0064C109.129 78.6659 110.235 79.8113 113.432 80.5194C115.293 80.9305 117.158 81.482 118.876 82.2652C119.795 82.6829 120.403 83.7271 121.15 84.4874C121.007 84.7843 120.864 85.0845 120.72 85.3815L120.73 85.3717C120.505 85.5936 120.28 85.8188 120.058 86.0406C119.713 86.3637 119.368 86.69 119.019 87.0131L119.026 87.0065C118.794 87.3329 118.558 87.6624 118.326 87.9888L118.336 87.979C118.227 88.0899 118.114 88.2041 118.005 88.3151C117.175 88.8209 116.407 89.4931 115.502 89.7965C114.255 90.211 112.906 90.348 111.602 90.6025C111.178 90.0478 110.751 89.4898 110.328 88.9351C108.852 86.752 107.377 84.569 105.902 82.3859ZM107.596 78.741C107.408 78.7508 107.223 78.7638 107.035 78.7736C107.264 80.3269 107.49 81.8801 107.718 83.4366C107.835 83.4236 107.954 83.4105 108.07 83.3975C107.913 81.8475 107.753 80.2942 107.596 78.7442V78.741Z" fill="#DA7F62"/>
<path d="M102.605 100.64C104.511 99.8112 106.43 99.0052 108.319 98.1404C108.859 97.8924 109.313 97.4715 109.808 97.1288C109.777 96.6165 109.88 96.052 109.685 95.6017C109.371 94.874 108.862 94.2246 108.435 93.5394L110.826 92.89C111.499 93.001 112.171 93.1119 112.844 93.2229C113.199 93.435 113.555 93.6503 113.906 93.8624C115.391 95.7007 115.481 97.6314 114.176 99.6545C114.036 99.8732 113.992 100.144 113.9 100.392C113.592 100.496 113.288 100.676 112.974 100.699C111.113 100.833 109.251 101.019 107.39 101.012C105.792 101.009 104.197 100.774 102.602 100.643L102.605 100.64Z" fill="#F2E7C8"/>
<path d="M110.826 92.8919C110.03 93.1072 109.231 93.3259 108.436 93.5412C108.094 93.2149 107.753 92.8919 107.411 92.5656C107.298 92.3469 107.186 92.1283 107.073 91.9129C106.96 91.5833 106.847 91.257 106.735 90.934C106.622 90.823 106.509 90.7154 106.397 90.6109L106.39 90.6044C106.277 90.1704 106.168 89.7364 106.055 89.3024C107.483 89.1817 108.91 89.0609 110.338 88.9402C110.761 89.4949 111.188 90.0529 111.612 90.6077C111.591 90.823 111.567 91.0351 111.547 91.2505C110.614 91.5246 109.672 91.7922 110.836 92.8951L110.826 92.8919Z" fill="#FCEDDC"/>
<path d="M113.903 100.389C113.992 100.141 114.04 99.8704 114.18 99.6517C115.48 97.6264 115.39 95.6957 113.91 93.8596C115.269 94.1925 116.629 94.5253 117.988 94.8581C117.988 94.9691 117.995 95.08 117.998 95.191C117.885 96.1438 117.663 97.0999 117.684 98.0495C117.708 99.035 117.353 99.5669 116.345 99.7659C115.522 99.9291 114.72 100.177 113.907 100.386L113.903 100.389Z" fill="#FD9E7E"/>
<path d="M128.827 82.4871C126.812 83.0353 124.702 83.6063 122.591 84.1774C124.487 82.8134 126.577 82.1771 128.827 82.4871Z" fill="#A32928"/>
<path d="M110.826 92.8901C109.661 91.7872 110.607 91.5196 111.536 91.2455C111.974 91.9046 112.407 92.5638 112.844 93.223C112.172 93.112 111.499 93.0011 110.826 92.8901Z" fill="#FEFDFD"/>
<path d="M120.708 85.3804C120.851 85.0835 120.995 84.7833 121.138 84.4863C121.418 84.5614 121.698 84.6332 121.975 84.7082C121.552 84.9334 121.128 85.1553 120.708 85.3804Z" fill="#A32928"/>
<path d="M119.008 87.0198C119.353 86.6967 119.698 86.3704 120.046 86.0474C119.701 86.3704 119.356 86.6967 119.008 87.0198Z" fill="#A32928"/>
<path d="M120.057 86.0409C120.283 85.819 120.508 85.5938 120.73 85.3719C120.505 85.5938 120.279 85.819 120.057 86.0409Z" fill="#A32928"/>
<path d="M113.743 99.9934C114.556 99.7846 115.358 99.5398 116.181 99.3734C117.189 99.1711 117.544 98.6425 117.52 97.657C117.5 96.7074 117.718 95.7513 117.834 94.7985C120.894 95.9993 121.301 97.1675 119.535 99.6932C119.31 99.8955 119.081 100.098 118.856 100.3C114.737 101.632 110.618 102.963 106.503 104.294C105.56 104.389 104.59 104.379 103.682 104.601C100.431 105.394 97.1998 106.268 93.9622 107.114C93.6036 107.12 93.245 107.13 92.8898 107.136C92.0804 107.048 91.271 106.954 90.4616 106.869C89.3346 106.748 88.211 106.634 87.084 106.513C89.0785 105.541 91.0217 104.448 93.0845 103.625C96.1616 102.398 99.3206 101.364 102.446 100.248C104.04 100.378 105.639 100.613 107.234 100.617C109.095 100.62 110.96 100.437 112.818 100.303C113.132 100.281 113.436 100.104 113.743 99.9967V99.9934Z" fill="#F2E7C8"/>
<path d="M126.581 115.006C125.57 115.466 124.559 115.926 123.548 116.383C122.305 115.198 120.977 114.079 119.856 112.796C119.354 112.225 119.084 111.325 119.071 110.568C119.064 110.183 119.979 109.38 120.27 109.458C121.991 109.928 122.158 108.848 122.476 107.752C122.821 106.567 123.135 105.281 125.034 105.311C125.549 108.378 126.058 111.41 126.571 114.438C126.574 114.627 126.577 114.813 126.581 115.002V115.006Z" fill="#636928"/>
<path d="M94.1191 107.503C97.3567 106.661 100.588 105.786 103.839 104.99C104.747 104.768 105.717 104.778 106.66 104.683C107.459 106.129 108.798 106.749 110.42 106.948C108.917 107.578 107.415 108.211 105.912 108.84C101.981 108.393 98.0534 107.95 94.1225 107.503H94.1191Z" fill="#FEFDFD"/>
<path d="M126.581 115.004C126.577 114.815 126.574 114.629 126.57 114.44C127.977 113.477 129.384 112.515 130.791 111.552C130.969 113.412 131.15 115.275 131.372 117.576C129.975 115.833 128.609 114.766 126.581 115.008V115.004Z" fill="#F2E7C8"/>
<path d="M119.012 100.693C119.237 100.491 119.466 100.289 119.691 100.086C121.635 100.155 123.581 100.223 125.525 100.292C125.518 100.452 125.507 100.612 125.501 100.772C124.008 100.68 122.512 100.592 120.771 100.488C121.208 100.811 121.477 101.013 121.747 101.212L121.658 101.516C120.777 101.241 119.893 100.967 119.012 100.69V100.693Z" fill="#D9AF38"/>
<path d="M129.77 88.7802C128.673 89.0151 127.574 89.25 126.477 89.485C126.443 89.3577 126.413 89.2337 126.378 89.1065C127.478 88.8487 128.578 88.5876 129.674 88.3298C129.705 88.4799 129.736 88.63 129.77 88.7802Z" fill="#D9AF38"/>
<path d="M124.146 102.358C123.627 102.149 123.107 101.937 122.588 101.728C122.698 101.571 122.81 101.411 122.92 101.255C123.329 101.623 123.739 101.989 124.149 102.358L124.146 102.361V102.358Z" fill="#D9AF38"/>
<path d="M126.202 104.308C126.376 104.442 126.553 104.576 126.728 104.709C126.69 104.745 126.652 104.781 126.618 104.817C126.478 104.651 126.335 104.484 126.195 104.318L126.202 104.311V104.308Z" fill="#D9AF38"/>
<path d="M124.487 102.682C124.638 102.722 124.791 102.764 124.942 102.803C124.791 102.761 124.641 102.722 124.491 102.679H124.487V102.682Z" fill="#D9AF38"/>
<path d="M125.856 103.986C125.767 103.869 125.679 103.751 125.59 103.634L125.726 103.552C125.771 103.696 125.815 103.843 125.856 103.986Z" fill="#D9AF38"/>
<path d="M124.153 90.9376C124.181 90.8913 124.208 90.8417 124.236 90.7954C124.205 90.8417 124.177 90.8847 124.146 90.931L124.153 90.9376Z" fill="#D9AF38"/>
<path d="M124.146 90.925C124.122 90.9747 124.097 91.021 124.073 91.0706C124.101 91.0243 124.129 90.978 124.153 90.9317L124.146 90.925Z" fill="#D9AF38"/>
<path d="M123.411 116.398C123.316 116.509 123.22 116.62 123.128 116.731C123.224 116.62 123.319 116.509 123.411 116.398Z" fill="#F2E7C8"/>
<path d="M124.494 102.68C124.378 102.573 124.262 102.465 124.149 102.357L124.152 102.354C124.265 102.465 124.378 102.576 124.49 102.684L124.494 102.68Z" fill="#D9AF38"/>
<path d="M125.856 103.985C125.973 104.093 126.085 104.201 126.201 104.309L126.195 104.315C126.082 104.204 125.969 104.096 125.856 103.985Z" fill="#D9AF38"/>
<path d="M133.37 120.307C133.622 120.591 133.875 120.872 134.131 121.156C133.984 121.231 133.838 121.303 133.694 121.378C133.588 121.019 133.482 120.66 133.38 120.304L133.373 120.311L133.37 120.307Z" fill="#A0503A"/>
<path d="M132.696 119.321C132.648 119.298 132.596 119.271 132.547 119.248C132.592 119.274 132.641 119.301 132.686 119.327L132.696 119.317V119.321Z" fill="#A0503A"/>
<path d="M132.684 119.329C132.732 119.355 132.781 119.378 132.832 119.405C132.787 119.378 132.739 119.348 132.694 119.322L132.684 119.329Z" fill="#A0503A"/>
<path d="M133.379 120.302L133.23 120.229C133.278 120.256 133.327 120.282 133.375 120.308L133.382 120.302H133.379Z" fill="#A0503A"/>
<path d="M137.813 66.9194C137.813 71.1321 134.661 72.904 131.638 72.8714C127.786 72.8257 125.443 70.6231 125.235 66.8476C125.067 63.839 127.704 60.7161 131.782 60.876C135.374 61.0163 137.82 63.343 137.813 66.9194Z" fill="#0C2C7E"/>
<path d="M110.327 88.9351C108.899 89.0558 107.472 89.1765 106.044 89.2973C105.809 89.1113 105.57 88.9253 105.334 88.7393C105.341 88.9253 105.348 89.1113 105.351 89.2973C104.456 89.4049 103.565 89.6007 102.67 89.6105C99.1422 89.6464 95.6144 89.6105 92.0865 89.6399C91.4956 89.6464 90.9082 89.8455 90.3174 89.9564C90.3891 89.2907 90.2013 88.302 90.5838 88.0148C91.9294 87.0065 93.4013 86.0798 94.9621 85.4206C97.2229 84.4645 99.576 83.6846 101.939 82.9896C103.203 82.6176 104.576 82.5784 105.898 82.3892C107.373 84.5722 108.848 86.7553 110.324 88.9383L110.327 88.9351Z" fill="#FDF4E9"/>
<path d="M90.3179 89.9569C90.9088 89.8459 91.4962 89.6436 92.087 89.6404C95.6149 89.611 99.1428 89.6469 102.671 89.611C103.565 89.6012 104.46 89.4087 105.352 89.2977C105.693 89.7317 106.038 90.1657 106.38 90.5997L106.386 90.6063C106.499 90.7139 106.612 90.8216 106.725 90.9293C106.837 91.2556 106.95 91.5787 107.063 91.905V91.9083C107.175 92.1236 107.288 92.3423 107.401 92.5576V92.5609C107.63 93.3179 107.862 94.075 108.091 94.832C102.831 94.447 97.5513 94.1337 92.5822 92.2183C91.5406 91.8169 90.2769 91.4253 90.3077 89.9536L90.3179 89.9569Z" fill="#FCEDDC"/>
<path d="M87.2445 106.907C88.3715 107.024 89.4951 107.142 90.6221 107.262C91.4315 107.351 92.2409 107.442 93.0503 107.53C92.2102 107.847 91.3734 108.166 90.5333 108.483C89.9425 108.724 89.3516 108.963 88.7608 109.204C88.9213 109.481 89.0852 109.759 89.2458 110.036C88.1017 109.436 86.961 108.835 85.8169 108.235C85.9603 107.915 86.1004 107.595 86.2438 107.275C86.5785 107.151 86.9132 107.031 87.2479 106.907H87.2445Z" fill="#F2E7C8"/>
<path d="M71.8315 96.0433C76.0288 97.0027 80.2876 97.9784 84.2355 98.8823C82.9924 99.4762 74.2632 97.6423 71.8315 96.0433Z" fill="#F2E7C8"/>
<path d="M75.27 86.6317C78.3881 86.7883 81.5062 86.9449 84.6242 87.0983C84.6242 87.157 84.6174 87.2158 84.6174 87.2713H75.2563L75.27 86.6284V86.6317Z" fill="#F2E7C8"/>
<path d="M108.101 94.8361C107.872 94.079 107.64 93.322 107.411 92.5649C107.753 92.8913 108.094 93.2143 108.436 93.5406C108.863 94.2226 109.371 94.8753 109.686 95.6029C109.88 96.0533 109.778 96.6178 109.809 97.1301C109.242 96.3665 108.671 95.5997 108.104 94.8361H108.101Z" fill="#F2E7C8"/>
<path d="M60.9297 94.8353C61.0765 94.6689 61.2234 94.4992 61.3668 94.3328C61.4044 94.3687 61.442 94.4045 61.4795 94.4372C61.3122 94.5808 61.1414 94.7243 60.9707 94.8712L60.9263 94.8353H60.9297Z" fill="#F2E7C8"/>
<path d="M62.6747 92.9001C62.4493 93.122 62.2205 93.3439 61.9951 93.5658L61.9541 93.5267L62.6337 92.8643L62.6781 92.9001H62.6747Z" fill="#F2E7C8"/>
<path d="M59.605 96.8224C59.4582 96.9889 59.3079 97.152 59.161 97.3184L59.0518 97.2108C59.2225 97.0672 59.3933 96.9236 59.564 96.78L59.6084 96.8224H59.605Z" fill="#F2E7C8"/>
<path d="M58.584 98.1321L58.1401 98.6248C58.1025 98.5889 58.0649 98.553 58.0308 98.5171C58.1981 98.3735 58.3655 98.2267 58.5328 98.0831L58.584 98.1321Z" fill="#F2E7C8"/>
<path d="M57.1704 99.7271C57.3173 99.5607 57.4641 99.391 57.6076 99.2246C57.6451 99.2605 57.6827 99.2931 57.7203 99.329L57.2216 99.7696L57.1704 99.7271Z" fill="#F2E7C8"/>
<path d="M60.6294 95.5136C60.4826 95.68 60.3357 95.8465 60.1889 96.0129C60.1513 95.977 60.1137 95.9443 60.0762 95.9085L60.5782 95.4712L60.6328 95.5136H60.6294Z" fill="#F2E7C8"/>
<path d="M60.5747 95.4723C60.6942 95.2602 60.8104 95.048 60.9299 94.8359L60.9743 94.8718C60.8582 95.0872 60.7455 95.3026 60.6294 95.5147L60.5747 95.4723Z" fill="#F2E7C8"/>
<path d="M62.6304 92.8655C62.685 92.7285 62.7362 92.5914 62.7909 92.4543C62.8319 92.4837 62.9104 92.5359 62.907 92.5424C62.8353 92.6664 62.7533 92.7839 62.6748 92.9014L62.6304 92.8655Z" fill="#F2E7C8"/>
<path d="M57.2215 99.7687C57.1635 99.909 57.1088 100.046 57.0508 100.186C57.0098 100.154 56.9278 100.102 56.9313 100.095C57.003 99.9678 57.0884 99.8471 57.1703 99.7263L57.2215 99.7687Z" fill="#F2E7C8"/>
<path d="M61.9955 93.5661C61.9374 93.6086 61.8828 93.651 61.8247 93.6934C61.8691 93.6379 61.9101 93.5825 61.9545 93.527L61.9955 93.5661Z" fill="#F2E7C8"/>
<path d="M59.5601 96.7801C59.6181 96.7377 59.6728 96.6953 59.7308 96.6528C59.6898 96.7083 59.6454 96.767 59.6045 96.8225L59.5601 96.7801Z" fill="#F2E7C8"/>
<path d="M58.5332 98.0815C58.5913 98.0391 58.6527 97.9966 58.7108 97.9542C58.6698 98.013 58.6254 98.0717 58.5844 98.1272L58.5332 98.0782V98.0815Z" fill="#F2E7C8"/>
<path d="M77.3407 52.7308C77.5695 53.5858 77.7983 54.4375 78.0305 55.2924C77.4704 55.4425 76.9069 55.5926 76.3469 55.7427C75.6502 55.9287 74.95 56.118 74.2533 56.304C74.0177 55.8341 73.782 55.3642 73.5498 54.8943C74.2704 53.9741 74.991 53.0539 75.7116 52.1337C76.2546 52.3327 76.8011 52.5318 77.3441 52.7308H77.3407Z" fill="#F2E7C8"/>
<path d="M79.437 23.552C80.0381 22.7493 80.4342 21.7246 81.1958 21.3004C82.8283 20.39 84.6145 20.5466 86.5543 21.4407C84.1329 22.1586 81.9608 22.8047 79.437 23.552Z" fill="#B83442"/>
<path d="M71.5958 25.6729C69.3554 26.2733 67.2687 26.8346 65.0933 27.4187C65.4826 25.8654 66.7291 25.1606 68.1533 24.8016C69.4306 24.4786 70.7352 24.5373 71.5958 25.6729Z" fill="#B83442"/>
<path d="M85.8979 27.2972C84.6411 30.11 82.6603 30.6484 80.4062 28.8504C82.2061 28.3316 84.04 27.8062 85.8774 27.2776L85.8979 27.2972Z" fill="#D76541"/>
<path d="M71.9135 29.9284C71.2646 32.4573 68.6725 33.3384 66.3911 31.8537C68.1909 31.201 70.0215 30.5386 71.8554 29.8729L71.9135 29.9284Z" fill="#D76541"/>
<path d="M75.6602 36.1188C75.4861 36.7845 75.3119 37.4501 75.1343 38.1191C75.0592 38.1289 74.984 38.1387 74.9055 38.1485C74.5913 34.9375 74.2805 31.7266 73.9663 28.5156C74.0483 28.4863 74.1337 28.4602 74.2156 28.4308C74.5742 30.3658 74.9328 32.3009 75.2914 34.2359C75.4041 34.8527 75.51 35.4661 75.6193 36.0829L75.6568 36.1188H75.6602Z" fill="#D76541"/>
<path d="M83.1976 42.674C82.6136 43.1113 82.0296 43.5453 81.4456 43.9825C81.3465 43.8194 81.2441 43.6562 81.145 43.4931C81.8042 43.1929 82.4667 42.8959 83.1258 42.5957L83.1976 42.674Z" fill="#D76541"/>
<path d="M78.4404 35.3905C77.8495 35.5341 77.2553 35.6777 76.6645 35.8213C76.6269 35.6777 76.5927 35.5341 76.5552 35.3905C77.1563 35.2763 77.7573 35.1621 78.3584 35.0511C78.3857 35.1654 78.4131 35.2763 78.4404 35.3905Z" fill="#D76541"/>
<path d="M75.9774 38.4321C76.6468 38.5594 77.3196 38.6834 77.989 38.8107C77.9787 38.889 77.9685 38.9705 77.9617 39.0489C77.2615 38.9901 76.558 38.9281 75.8579 38.8694C75.8989 38.7225 75.9365 38.579 75.9774 38.4321Z" fill="#D76541"/>
<path d="M73.3172 27.0298C73.3957 27.2549 73.4708 27.4768 73.5494 27.702C73.464 27.7314 73.3786 27.7575 73.2932 27.7868C73.2079 27.5649 73.1191 27.3463 73.0337 27.1244C73.1293 27.0918 73.2215 27.0624 73.3172 27.0298Z" fill="#D76541"/>
<path d="M83.125 42.5951C83.3504 42.4841 83.5758 42.3765 83.8046 42.2655L83.8695 42.3275C83.6441 42.4417 83.4221 42.5559 83.1967 42.6734L83.125 42.5951Z" fill="#D76541"/>
<path d="M83.8057 42.2653C83.9218 42.1608 84.0379 42.0532 84.1574 41.9487L84.2087 41.9977C84.096 42.1086 83.9833 42.2196 83.874 42.3273L83.8091 42.2653H83.8057Z" fill="#D76541"/>
<path d="M84.4946 41.6289C84.6073 41.5179 84.7234 41.407 84.8361 41.296L84.8874 41.345C84.7713 41.4559 84.6551 41.5636 84.539 41.6745L84.4912 41.6289H84.4946Z" fill="#D76541"/>
<path d="M84.1533 41.9493C84.266 41.8416 84.3821 41.7372 84.4948 41.6295L84.5427 41.6752C84.43 41.7829 84.3173 41.8906 84.2046 41.9982L84.1533 41.9493Z" fill="#D76541"/>
<path d="M84.8369 41.2935C84.8984 41.2511 84.9564 41.2087 85.0179 41.1663C84.9735 41.225 84.9325 41.2837 84.8916 41.3425L84.8403 41.2935H84.8369Z" fill="#D76541"/>
<path d="M75.623 36.0822C75.6811 36.0398 75.7426 35.9974 75.8006 35.955C75.7528 36.0104 75.7084 36.0626 75.6606 36.1181L75.623 36.0822Z" fill="#DA7F62"/>
<path d="M71.8545 29.8731C71.9126 29.8339 71.974 29.7948 72.0321 29.7556C71.9911 29.8111 71.9501 29.8698 71.9125 29.9253L71.8545 29.8698V29.8731Z" fill="#DA7F62"/>
<path d="M85.8779 27.2827C85.9299 27.2397 85.9852 27.1967 86.0372 27.1537C85.9922 27.2033 85.9437 27.2529 85.8987 27.3025L85.8779 27.2827Z" fill="#DA7F62"/>
<path d="M79.4135 70.3481C81.2236 70.6614 83.0336 70.9747 84.7071 71.2651C83.5869 72.1527 81.0494 71.81 79.3794 70.384L79.417 70.3481H79.4135Z" fill="#A32928"/>
<path d="M79.0381 70.0648C78.84 69.9701 78.6419 69.8788 78.4438 69.7841C78.577 69.6373 78.7068 69.4904 78.84 69.3403C78.9186 69.5688 78.9971 69.7972 79.0791 70.0256L79.0415 70.0615L79.0381 70.0648Z" fill="#A32928"/>
<path d="M79.0752 70.0281C79.1879 70.1358 79.3006 70.2434 79.4133 70.3511L79.3757 70.387C79.263 70.2793 79.1469 70.1717 79.0342 70.0672L79.0717 70.0313L79.0752 70.0281Z" fill="#A32928"/>
<path d="M79.0442 54.7115C78.9623 54.594 78.8803 54.4798 78.8086 54.359C78.8086 54.3558 78.8871 54.3036 78.9281 54.2775C78.9759 54.4145 79.0203 54.5548 79.0682 54.6919L79.0442 54.7115Z" fill="#FD9E7E"/>
<path d="M85.813 108.233C86.957 108.834 88.0977 109.434 89.2418 110.035C89.0813 109.757 88.9174 109.48 88.7569 109.202C89.3477 108.961 89.9385 108.723 90.5293 108.481C94.4602 108.687 98.3945 108.892 102.752 109.118C99.5045 111.647 62.1081 111.777 55.6841 109.402C65.694 108.357 75.7484 108.194 85.813 108.233Z" fill="#0C2C7E"/>
<path d="M107.595 78.7418C107.752 80.2918 107.913 81.845 108.07 83.395C107.954 83.4081 107.834 83.4211 107.718 83.4342C107.489 81.8809 107.264 80.3277 107.035 78.7712C107.223 78.7614 107.407 78.7483 107.595 78.7385V78.7418Z" fill="#A0503A"/>
<path d="M106.383 90.6022C106.042 90.1682 105.7 89.7342 105.355 89.3002C105.349 89.1142 105.342 88.9282 105.338 88.7422C105.574 88.9282 105.813 89.1142 106.049 89.3002C106.161 89.7342 106.271 90.1682 106.383 90.6022Z" fill="#F2E7C8"/>
</svg>
