<svg width="103" height="228" viewBox="0 0 103 228" fill="none" xmlns="http://www.w3.org/2000/svg">
<path d="M32.9204 51.1854C32.4189 49.3916 31.2757 48.804 29.0076 48.7257C25.7453 48.616 22.5238 47.7152 20.0387 45.6472C16.7314 42.8976 17.2284 37.4886 21.2406 35.5224C22.9892 34.6647 22.9982 33.7246 23.0299 32.4165C23.1338 28.5859 24.8733 25.5073 28.7319 23.4824C31.1266 22.2251 33.7472 22.1585 36.4582 22.374C37.1721 22.4327 38.261 22.1742 38.6405 21.7199C43.0414 16.4558 51.4318 17.1804 54.6308 22.7578C54.7257 22.9223 54.9199 23.0437 55.191 23.3061C55.9185 22.7382 56.5827 22.1507 57.3237 21.6455C63.5996 17.3723 71.0999 21.4104 73.2326 25.9969C74.0414 27.732 73.9239 29.7805 74.3847 31.6566C74.5384 32.2755 75.0399 33.0588 75.6453 33.3291C79.0838 34.8722 80.5793 37.2693 80.2088 41.0411C79.9106 44.0335 78.0491 46.1642 74.561 47.1473C73.2868 47.5076 71.9855 47.911 70.6662 48.0129C68.3122 48.193 67.3091 49.1801 67.5666 51.1933C66.044 50.9347 64.5168 50.4334 62.9987 50.4608C52.9726 50.641 42.9465 50.9308 32.9204 51.1893V51.1854ZM37.4251 43.7515C40.5699 43.1444 43.7146 42.5412 46.8593 41.9341C43.6242 42.1809 40.2355 41.8205 37.4296 43.7554C37.2715 43.8533 37.1134 43.9473 36.9507 44.0452C37.1088 43.9473 37.267 43.8494 37.4251 43.7515ZM48.5898 41.3505C48.5808 41.5385 48.5718 41.7226 48.5672 41.9106C52.7964 42.3375 57.0255 42.7684 61.2546 43.1953L61.3178 42.7096L48.5898 41.3505ZM62.5062 43.6026C62.5694 43.6222 62.6372 43.6535 62.7004 43.6535C62.723 43.6535 62.7411 43.5635 62.7592 43.5165C62.6959 43.4969 62.6282 43.4655 62.5649 43.4655C62.5423 43.4655 62.5242 43.5556 62.5062 43.6026Z" fill="#5595E7"/>
<path d="M18.0596 103.713C18.2313 103.564 18.403 103.415 18.5747 103.266C20.3368 102.796 22.1983 102.506 23.8385 101.813C26.7934 100.568 29.5496 98.9657 32.5091 97.728C38.907 95.0489 45.3772 92.5031 51.8202 89.8984C52.2766 90.3998 52.8414 90.8541 53.1577 91.4142C53.5914 92.1858 53.8309 93.0357 54.1562 93.8504C55.218 97.5596 56.2617 101.273 57.3416 104.982C58.0826 107.539 59.4878 109.838 59.908 112.596C60.6354 117.378 62.5286 122.023 63.9699 126.837C59.0811 128.756 54.2601 130.648 49.4436 132.54C48.7523 132.791 48.0565 133.037 47.3652 133.288C45.097 134.212 42.8288 135.141 40.5561 136.065C39.6706 136.449 38.785 136.833 37.8994 137.216C35.3375 137.874 32.7711 138.532 30.2093 139.187C27.9094 140.013 27.9546 138.258 27.6429 137.256C25.4786 130.249 23.3686 123.23 21.3444 116.195C20.1515 112.055 19.153 107.876 18.0686 103.713H18.0596Z" fill="#BB4C4C"/>
<path d="M18.0593 103.712C19.1437 107.876 20.1422 112.055 21.3351 116.195C23.3593 123.233 25.4738 130.252 27.6336 137.255C27.9408 138.258 27.8956 140.013 30.1999 139.186C34.9803 139.754 39.7606 140.326 44.5455 140.89C45.4673 141 46.398 141.062 47.3243 141.145C44.2609 143.502 42.2547 146.232 42.9009 150.02C43.172 151.622 43.1991 153.259 43.2759 154.881C43.434 158.265 43.5831 161.649 43.669 165.037C43.7051 166.486 44.4958 166.631 45.8739 166.239C45.3227 158.66 44.1841 151.14 46.4522 143.714C46.9447 146.922 47.0667 150.13 47.3423 153.33C47.6993 157.481 48.0743 161.633 48.6481 165.765C49.0864 168.914 49.85 172.032 50.469 175.165C49.5789 175.189 48.6888 175.212 47.7987 175.232C41.4866 174.84 35.1791 174.449 28.8671 174.061C25.4332 172.819 25.3609 172.803 26.3594 169.435C28.4965 162.24 27.6155 154.978 27.2134 147.713C27.0733 145.183 27.1908 142.641 27.1908 140.107C26.9874 140.259 26.7841 140.412 26.5808 140.565C25.5642 140.079 24.5476 139.59 23.5264 139.104C23.2147 137.847 22.9436 136.582 22.5821 135.34C19.582 125.035 16.5683 114.738 13.5591 104.437C15.0592 104.198 16.5637 103.959 18.0638 103.72L18.0593 103.712Z" fill="#FFA653"/>
<path d="M47.3201 141.141C46.3939 141.059 45.4631 140.992 44.5414 140.886C39.7565 140.326 34.9762 139.754 30.1958 139.183C32.7577 138.525 35.3241 137.867 37.8859 137.213C37.9402 139.222 39.4583 138.18 40.5427 138.313C40.5427 137.455 40.5427 136.758 40.5427 136.061C42.8109 135.137 45.0791 134.208 47.3517 133.284C47.2478 134.483 47.4466 135.485 49.7961 135.599C49.6651 134.49 49.5476 133.511 49.4302 132.536C54.2467 130.644 59.0677 128.752 63.9565 126.833C62.5196 122.02 60.6265 117.37 59.8945 112.592C59.4743 109.835 58.0691 107.535 57.3281 104.978C56.2528 101.273 55.2045 97.5556 54.1427 93.8465C55.9591 93.0475 57.78 92.2485 59.5963 91.4534C62.5603 91.9821 65.5198 92.5109 68.4838 93.0396C68.7323 93.3334 68.9356 93.8465 69.2383 93.8935C71.6737 94.2656 71.4207 96.0438 71.4704 97.3911C71.5653 99.9762 71.3032 102.573 71.1857 105.166C71.1857 108.542 71.2806 111.922 71.1586 115.294C70.9372 121.499 70.5712 127.703 70.2956 133.907C70.255 134.823 70.0065 135.74 71.4433 136.351C71.9855 136.578 71.8816 137.957 72.0713 138.807C65.321 139.5 58.5707 140.185 51.8249 140.906C51.4905 140.941 51.1968 141.309 50.8851 141.521C50.4965 144.658 51.9469 147.282 54.1021 149.734C53.8039 148.152 53.5057 146.573 53.2075 144.991C54.4003 147.22 55.5931 149.448 56.795 151.7C53.7948 152.652 53.5057 152.727 52.9047 151.481C51.6486 148.884 50.6456 146.19 49.5386 143.538C49.8368 142.007 49.516 140.91 47.3066 141.141H47.3201ZM51.0342 138.623C51.0884 138.932 51.1381 139.237 51.1923 139.547C55.3536 139.124 59.5195 138.697 63.6809 138.274C63.6628 138.109 63.6447 137.941 63.6221 137.777C59.4246 138.059 55.2271 138.341 51.0296 138.623H51.0342ZM58.408 131.616C57.7845 132.83 57.1384 133.503 57.2287 134.095C57.3055 134.6 58.2273 135.007 58.774 135.458C59.158 134.909 59.8403 134.361 59.8448 133.809C59.8493 133.264 59.1716 132.716 58.408 131.612V131.616Z" fill="#0C2C7E"/>
<path d="M49.5511 143.538C50.6581 146.193 51.6566 148.884 52.9172 151.481C53.5181 152.726 53.8073 152.652 56.8075 151.7C55.6011 149.448 54.4128 147.22 53.2199 144.991C52.4473 143.835 51.6702 142.68 50.8975 141.521C51.2093 141.309 51.4985 140.941 51.8373 140.906C58.5831 140.181 65.3335 139.496 72.0838 138.806C72.2374 143.796 72.1516 148.802 72.617 153.772C73.0688 158.574 74.0131 163.349 74.9168 168.111C75.1608 169.4 76.0373 170.595 76.697 171.989C74.9439 172.291 73.2947 172.573 71.65 172.855C65.5594 173.595 59.4687 174.335 53.3826 175.075C53.3148 174.625 53.2742 174.167 53.1793 173.72C51.1822 164.398 49.1264 155.08 48.9095 145.555C48.8959 144.885 49.3297 144.208 49.5601 143.534L49.5511 143.538Z" fill="#FFA653"/>
<path d="M53.379 175.076C59.4696 174.336 65.5603 173.595 71.6464 172.855C71.6464 177.316 71.7504 181.777 71.6058 186.235C71.425 191.8 70.9416 197.358 70.788 202.928C70.7202 205.423 71.1268 207.929 71.2985 210.201C69.4596 211.572 66.0618 209.41 65.7998 212.696C63.2831 210.742 61.5481 211.114 60.2197 213.851C59.9757 214.353 59.5148 214.772 59.1534 215.23C59.1082 214.909 59.0449 214.588 59.0178 214.267C58.7964 211.564 58.7603 211.384 55.7872 211.595C53.5326 211.756 52.8097 210.796 52.7781 209.214C52.5838 199.751 52.4256 190.288 52.3217 180.826C52.2991 178.961 52.5567 177.093 52.6877 175.225C52.9181 175.174 53.144 175.127 53.3745 175.08L53.379 175.076Z" fill="#EFF6FF"/>
<path d="M28.8627 174.053C35.1747 174.445 41.4823 174.836 47.7943 175.224C47.7943 177.139 47.8395 179.059 47.7717 180.97C47.4961 188.995 47.1437 197.021 46.9178 205.05C46.8681 206.832 47.2205 208.622 47.4103 210.639C46.1361 210.69 45.124 210.733 44.1074 210.772C41.6223 210.905 39.1328 211.039 36.6477 211.172C34.6461 211.293 32.64 211.54 30.6474 211.462C30.0374 211.438 28.9666 210.533 28.9576 210.016C28.7091 199.312 28.569 188.604 28.456 177.899C28.4425 176.615 28.7181 175.33 28.8582 174.049L28.8627 174.053Z" fill="#EFF6FF"/>
<path d="M67.5396 67.1852C69.7942 69.1358 69.0939 74.0238 66.1841 75.2302C64.7337 75.8294 64.0063 76.7185 63.1297 77.7526C61.9595 79.1312 60.4007 80.2593 58.9865 81.4774C58.4172 81.967 57.7937 82.4095 57.1972 82.8756C52.8732 84.4032 48.5492 84.0898 44.2207 82.8796C41.6091 81.4186 39.2867 79.7501 38.2204 77.0554C38.0713 76.6794 37.3981 76.3856 36.8966 76.1937C32.1252 74.3685 31.0499 70.7808 34.1811 67.0403C35.2383 66.7661 36.4989 66.8993 36.4538 65.3013C36.395 63.2528 36.7158 61.1926 36.874 59.1363C39.7521 58.9679 42.6348 58.6546 45.5129 58.6663C51.5991 58.6859 57.6852 58.8778 63.7759 58.9993C63.8165 59.1168 63.8572 59.2303 63.9069 59.3439C64.4129 61.8937 64.9145 64.4396 65.4296 67.0442C65.9718 67.0795 66.7534 67.1343 67.5351 67.1852H67.5396ZM56.0315 62.8102C57.8931 62.6262 59.7546 62.4381 61.9505 62.2227C59.9715 60.4289 57.5813 60.5699 56.0315 62.8102ZM44.4511 62.4146C44.4647 62.1718 44.4782 61.9251 44.4963 61.6822C43.1408 61.5921 41.7808 61.4629 40.4253 61.4472C40.2039 61.4472 39.8967 61.9329 39.7928 62.2345C39.7612 62.3285 40.2898 62.7162 40.5519 62.7045C41.8531 62.6575 43.1544 62.5204 44.4557 62.4146H44.4511ZM54.3869 76.6324H46.9452C49.7466 78.3401 52.1593 78.2186 54.3869 76.6324ZM59.5332 67.7962C58.9684 67.2244 58.5979 66.8523 58.2229 66.4802C57.8885 66.962 57.3102 67.4359 57.2921 67.9255C57.274 68.4307 57.7982 68.9517 58.0828 69.4687C58.5211 68.9634 58.9594 68.4582 59.5332 67.7962Z" fill="#F1A590"/>
<path d="M71.1902 105.166C71.3032 102.573 71.5698 99.9803 71.4749 97.3913C71.4252 96.04 71.6782 94.2658 69.2428 93.8937C68.9446 93.8467 68.7368 93.3375 68.4883 93.0398C73.6979 90.9091 78.8894 88.7432 84.1306 86.6673C85.5855 86.0915 86.2994 85.2573 86.5117 83.8982C87.0539 80.4358 87.5645 76.9656 88.3642 73.5463C88.7754 71.7916 89.783 70.1426 90.5195 68.4428C91.1249 68.1568 91.7259 67.8709 92.3313 67.5811C93.3298 69.7039 92.128 72.43 95.0558 74.5215C95.6658 73.2251 96.3345 72.1793 96.6418 71.0631C97.0168 69.6883 97.0845 68.2508 97.2833 66.8408C97.8255 66.8487 98.3677 66.8565 98.9099 66.8682C99.8543 67.7378 100.794 68.6112 101.738 69.4807C102.886 75.7396 101.309 81.8301 100.238 87.952C99.9808 89.4168 99.8769 90.9052 99.7097 92.3818C99.4476 94.7005 97.821 96.2163 95.5528 97.078C89.2046 99.4907 82.8067 101.805 76.3817 104.054C74.7461 104.625 72.9252 104.806 71.1902 105.17V105.166Z" fill="#73B6FF"/>
<path d="M63.775 58.9993C57.6888 58.8779 51.6027 58.6859 45.512 58.6664C42.6339 58.6546 39.7512 58.9719 36.8731 59.1364C35.5944 59.0619 34.3112 58.9836 33.0687 58.9092C32.8834 57.7968 32.7388 56.9273 32.5942 56.0539C32.7027 54.4285 32.8156 52.8069 32.9241 51.1815C42.9502 50.9269 52.9762 50.6331 63.0023 50.453C64.516 50.4256 66.0477 50.9308 67.5703 51.1854C68.0267 53.0067 68.4785 54.824 68.9348 56.6453C67.6833 56.7981 67.358 57.4796 67.5658 58.4627C67.123 58.6429 66.6802 58.8269 66.2374 59.0071C65.4151 59.0032 64.5973 58.9993 63.775 58.9914V58.9993Z" fill="#0C2C7E"/>
<path d="M13.5555 104.43C16.5647 114.731 19.5784 125.028 22.5785 135.333C22.94 136.578 23.2111 137.843 23.5228 139.097C22.4565 138.137 21.3269 137.22 20.3329 136.202C17.884 133.703 15.4984 131.161 13.0901 128.635C10.7632 126.422 9.75561 123.684 8.98298 120.856C9.79627 120.621 10.7135 120.519 11.4003 120.12C12.2271 119.642 12.8597 118.91 13.5736 118.287C12.7151 117.833 11.9063 117.261 10.9801 116.959C10.3249 116.748 9.49355 116.991 8.77966 116.869C8.40916 116.806 8.11999 116.383 7.79467 116.125C9.66524 115.365 11.2738 114.402 11.8702 112.095C9.95441 112.275 8.38656 112.428 6.8142 112.576L6.83227 112.592C7.50098 111.918 8.12902 111.206 8.85647 110.583C9.48903 110.046 10.2436 109.611 10.8581 109.192C9.30378 106.784 6.55666 110.121 4.93007 107.716C6.2223 107.25 7.35188 106.94 8.35042 106.435C8.8655 106.173 9.14564 105.565 9.53421 105.111C9.03268 104.853 8.55374 104.418 8.02962 104.371C6.85486 104.265 5.65752 104.351 4.46469 104.359C3.62429 99.7138 2.78389 95.0647 1.93896 90.4194C5.01592 94.4811 8.04769 98.5662 11.206 102.585C11.7572 103.286 12.81 103.693 13.6278 104.234L13.6639 104.351L13.5555 104.426V104.43Z" fill="#C26766"/>
<path d="M93.0489 22.7578C90.3154 18.5394 84.6314 15.8643 84.4506 10.3143C84.3783 8.05044 84.1344 5.78266 84.2383 3.52662C84.2654 2.9352 85.2233 1.96385 85.8875 1.86985C90.8214 1.15308 95.7825 0.592992 100.744 0.0250658C102.248 -0.14727 103.08 0.581241 102.994 1.83459C102.709 5.96283 102.519 10.1106 101.864 14.1997C101.638 15.6058 100.346 17.0276 99.1622 18.1399C97.757 19.4599 97.016 20.9012 96.7539 22.6089C95.5204 22.6598 94.287 22.7108 93.0489 22.7617V22.7578ZM98.1501 13.4281C98.4573 13.5104 98.7691 13.5965 99.0763 13.6788C99.5101 12.8876 100.301 12.1003 100.31 11.3052C100.332 8.77896 100.088 6.24875 99.8716 3.72637C99.8445 3.38562 99.3926 3.07228 99.1351 2.74328C98.8052 3.08011 98.1998 3.41304 98.1908 3.75771C98.1185 6.98118 98.1456 10.2046 98.1456 13.4281H98.1501ZM91.463 3.5227C91.463 6.77359 91.4224 9.81297 91.5172 12.8524C91.5308 13.2401 92.2537 13.6122 92.6513 13.9882C92.9315 13.5534 93.4601 13.1187 93.4556 12.6839C93.433 10.0911 93.2297 7.49818 93.2116 4.90139C93.2026 3.60104 92.5113 3.32687 91.463 3.5227ZM89.841 14.5914C90.3606 10.6629 90.0669 7.08301 88.7792 3.34645C86.9764 5.05806 87.7038 12.7584 89.841 14.5914ZM96.4196 2.94695C96.1846 2.83728 95.9542 2.72761 95.7193 2.61794C95.3849 3.04878 94.7614 3.4757 94.7614 3.90654C94.7614 6.82842 94.8517 9.75422 95.0234 12.6722C95.046 13.0678 95.7102 13.4359 96.4196 14.1723V2.94695Z" fill="#88796F"/>
<path d="M59.158 215.229C59.5194 214.771 59.9848 214.352 60.2243 213.851C61.5527 211.113 63.2832 210.741 65.8044 212.695C67.7563 215.903 69.7624 219.083 71.633 222.327C72.9659 224.637 72.8077 226.404 71.4297 227.356C70.029 228.331 67.0605 228.221 65.1402 226.874C63.9474 226.04 62.9443 224.939 62.0768 223.827C60.9246 222.346 59.7002 220.823 59.0586 219.154C58.6113 217.983 59.0902 216.545 59.1535 215.229H59.158Z" fill="#0C2C7E"/>
<path d="M98.91 66.868C98.3678 66.8602 97.8256 66.8523 97.2834 66.8406C95.4987 66.0533 93.714 65.27 91.9292 64.4827C89.5074 63.9814 90.1084 62.3285 90.0677 60.8833C90.0496 60.2017 89.8418 59.5163 89.6791 58.8426C89.6068 58.5371 89.2273 58.1141 89.3448 57.9692C90.8358 56.1793 89.2409 55.0747 88.2649 53.7744C87.8447 53.2143 87.7815 52.4466 87.5601 51.7769C88.4321 51.9257 89.3132 52.0432 90.1671 52.239C90.5783 52.333 90.9443 52.5876 91.3283 52.7678C91.8886 53.1477 92.4172 53.794 93.0227 53.8527C94.5318 54.0055 96.077 53.8958 97.6087 53.8919C100.776 55.486 101.942 57.7812 101.558 61.0008C101.368 62.5909 101.662 64.1851 100.496 65.5833C99.9673 66.0102 99.4386 66.4411 98.91 66.868Z" fill="#ECA48F"/>
<path d="M53.3789 175.076C53.1485 175.123 52.9226 175.174 52.6921 175.221C51.9511 175.201 51.2056 175.178 50.4646 175.158C49.8456 172.025 49.0865 168.911 48.6437 165.758C48.0699 161.626 47.6949 157.474 47.3379 153.322C47.0623 150.122 46.9403 146.914 46.4478 143.707C44.1751 151.133 45.3183 158.653 45.8695 166.232C44.4914 166.623 43.7007 166.482 43.6646 165.029C43.5787 161.645 43.4296 158.257 43.2715 154.873C43.1947 153.252 43.1676 151.614 42.8965 150.013C42.2549 146.225 44.261 143.499 47.3199 141.137C49.5293 140.906 49.8501 142.003 49.5519 143.534C49.326 144.208 48.8877 144.886 48.9013 145.555C49.1227 155.081 51.174 164.399 53.1711 173.72C53.2659 174.167 53.3066 174.621 53.3744 175.076H53.3789Z" fill="#EFF6FF"/>
<path d="M51.8164 89.8981C45.3733 92.4988 38.9031 95.0447 32.5052 97.7276C29.5457 98.9692 26.7896 100.571 23.8346 101.813C22.1945 102.502 20.3329 102.792 18.5708 103.266C19.1085 102.357 19.3751 101.057 20.229 100.606C27.5441 96.7602 34.9677 93.0706 42.3551 89.3341C43.7015 88.7309 45.0435 88.1317 46.3899 87.5285C47.5737 87.2974 48.762 87.0624 49.9458 86.8313C50.5241 87.7321 51.1025 88.633 51.6808 89.5378C51.7757 89.6474 51.8209 89.7688 51.8119 89.902L51.8164 89.8981Z" fill="#E1D4CB"/>
<path d="M44.1979 216.244C44.3108 217.752 44.6271 219.28 44.4238 220.752C44.3515 221.273 43.0276 221.998 42.2234 222.049C38.062 222.303 33.8826 222.476 29.7122 222.421C28.795 222.409 27.2904 221.457 27.1458 220.768C26.9696 219.93 27.6609 218.586 28.4832 218.022C30.7514 216.471 33.2862 215.21 35.7125 213.835C36.7562 214.051 38.2879 213.969 38.7488 214.537C40.1947 216.33 42.133 216.303 44.2024 216.244H44.1979Z" fill="#0C2C7E"/>
<path d="M6.80911 112.58C8.38147 112.431 9.94932 112.282 11.8651 112.098C11.2687 114.405 9.66015 115.369 7.78958 116.129C6.25336 115.988 4.72166 115.847 3.18996 115.71C3.2984 115.083 3.40232 114.456 3.51076 113.829C3.40232 113.873 3.28936 113.92 3.18092 113.963C2.31341 112.087 1.44138 110.21 0.582903 108.33C0.343434 107.806 -0.00447472 107.261 4.35672e-05 106.728C4.35672e-05 106.196 0.234995 105.338 0.632604 105.201C1.83899 104.778 3.1764 104.629 4.46411 104.374C5.65242 104.367 6.84977 104.28 8.02905 104.386C8.55317 104.433 9.03662 104.868 9.53364 105.127C9.14506 105.581 8.86493 106.188 8.34984 106.45C7.3513 106.956 6.22173 107.261 4.9295 107.731C6.5606 110.132 9.30772 106.795 10.8575 109.208C10.243 109.627 9.48845 110.062 8.85589 110.598C8.12393 111.217 7.50041 111.934 6.8317 112.607C6.80007 112.654 6.76392 112.701 6.7323 112.748C6.75941 112.694 6.78652 112.643 6.81362 112.588L6.80911 112.58Z" fill="#F2A791"/>
<path d="M93.0493 22.7576C94.2828 22.7067 95.5163 22.6558 96.7543 22.6049C96.5013 23.0553 96.0449 23.5018 96.0269 23.964C95.8778 27.5204 95.7513 31.0767 95.7377 34.637C95.7241 38.2013 95.8507 41.7655 95.9139 45.3336C95.1142 45.3493 94.3144 45.365 93.5147 45.3806C93.4469 39.3332 93.3882 33.2819 93.2978 27.2344C93.2752 25.7422 93.1352 24.2538 93.0493 22.7615V22.7576Z" fill="#9A9BA0"/>
<path d="M13.6278 104.241C12.8055 103.701 11.7572 103.293 11.206 102.592C8.05221 98.5777 5.01592 94.4886 1.93896 90.427C3.15439 88.5705 4.94363 88.3707 5.9738 90.0627C8.42271 94.0735 10.8084 98.1155 13.1534 102.173C13.5013 102.78 13.4787 103.548 13.6278 104.241Z" fill="#F2E6DA"/>
<path d="M93.5149 45.3768C94.3146 45.3612 95.1143 45.3455 95.9141 45.3298C98.0512 47.9462 97.5452 50.9621 97.6129 53.8879C96.0812 53.8918 94.536 54.0054 93.0269 53.8487C92.4214 53.7861 91.8973 53.1398 91.3325 52.7638C92.06 50.3041 92.7874 47.8405 93.5194 45.3768H93.5149Z" fill="#84756D"/>
<path d="M49.946 86.8275C48.7622 87.0586 47.5739 87.2936 46.3901 87.5246C45.6536 87.1604 44.9171 86.7961 44.1807 86.4358C44.1942 85.249 44.2078 84.0662 44.2213 82.8794C48.5453 84.0897 52.8739 84.403 57.1979 82.8755C57.2385 83.7803 57.2792 84.6889 57.3153 85.5937C54.8574 86.005 52.404 86.4162 49.9505 86.8314L49.946 86.8275Z" fill="#D88B75"/>
<path d="M32.5946 56.0537C32.7392 56.9232 32.8838 57.7967 33.069 58.909C34.3161 58.9834 35.5947 59.0578 36.8734 59.1362C36.7153 61.1925 36.3945 63.2487 36.4532 65.3011C36.4984 66.8991 35.2378 66.7699 34.1805 67.0401C33.6925 65.8886 33.2091 64.7371 32.703 63.5425C32.441 63.8049 32.1157 64.1339 31.6412 64.6118C30.7647 61.5019 31.3521 58.7523 32.5946 56.0537Z" fill="#453B36"/>
<path d="M51.8151 89.8982C51.8241 89.7611 51.779 89.6397 51.6841 89.5339C52.1404 89.1188 52.5109 88.5352 53.0712 88.3237C54.5577 87.7557 56.1301 87.3445 57.6663 86.8745C58.2311 86.8236 58.8004 86.7726 59.6046 86.7021C59.6046 88.3707 59.6046 89.9139 59.6046 91.4571C57.7883 92.2561 55.9674 93.0551 54.1511 93.8502C53.8258 93.0355 53.5863 92.1817 53.1525 91.414C52.8362 90.8539 52.2715 90.3995 51.8151 89.8982Z" fill="#FFA653"/>
<path d="M44.1979 216.244C42.1285 216.303 40.1902 216.33 38.7443 214.536C38.2834 213.965 36.7517 214.051 35.708 213.835C37.6509 213.381 36.7608 212.175 36.6478 211.176C39.1374 211.043 41.6224 210.91 44.1075 210.776C44.1391 212.598 44.1662 214.423 44.1979 216.244Z" fill="#F2A791"/>
<path d="M3.18994 115.71C4.72164 115.851 6.25786 115.992 7.78956 116.129C8.11488 116.387 8.40405 116.81 8.77455 116.873C9.48844 116.998 10.3198 116.752 10.975 116.963C11.9012 117.261 12.71 117.833 13.5685 118.291C12.85 118.914 12.2175 119.646 11.3952 120.124C10.7084 120.523 9.79116 120.625 8.97787 120.86C8.55315 120.848 8.13295 120.837 7.70823 120.825C6.05906 120.7 4.84363 120.245 4.92948 118.487C4.94756 118.111 4.34662 117.727 4.08456 117.316C3.75473 116.795 3.48363 116.246 3.18994 115.71Z" fill="#ECA28C"/>
<path d="M91.9332 64.4829C93.7179 65.2702 95.5027 66.0535 97.2874 66.8408C97.0886 68.2508 97.0163 69.6883 96.6458 71.063C96.3431 72.1832 95.6743 73.2251 95.0599 74.5215C92.132 72.43 93.3294 69.7078 92.3353 67.5811C92.1184 66.782 91.9016 65.983 91.6802 65.1801C91.766 64.9451 91.8474 64.714 91.9332 64.479V64.4829ZM94.3324 71.9247C96.2482 69.606 96.1488 69.2809 93.6953 68.8736C93.9258 69.9703 94.1291 70.9455 94.3324 71.9247Z" fill="#8A7B74"/>
<path d="M66.2385 59.0149C66.6813 58.8347 67.1241 58.6506 67.5669 58.4705C67.698 58.772 67.829 59.0776 67.9555 59.3791C67.9374 60.6834 67.9193 61.9916 67.9013 63.2959C67.9148 63.4369 67.9284 63.5779 67.9419 63.7189C67.8064 64.8743 67.6754 66.0297 67.5398 67.1891C66.7582 67.1382 65.9765 67.0833 65.4343 67.0481C64.9192 64.4474 64.4132 61.8976 63.9116 59.3517C64.6888 59.2421 65.4614 59.1285 66.2385 59.0188V59.0149Z" fill="#453B36"/>
<path d="M7.70801 120.821C8.13273 120.833 8.55745 120.844 8.97765 120.856C9.75027 123.688 10.7579 126.426 13.0848 128.635C9.52888 128.004 7.96555 126.292 7.73512 122.748C7.69445 122.105 7.71704 121.463 7.70801 120.821Z" fill="#F3E1D0"/>
<path d="M57.6669 86.8706C56.1307 87.3445 54.5629 87.7519 53.0718 88.3198C52.5116 88.5313 52.1411 89.1149 51.6847 89.5301C51.1064 88.6292 50.528 87.7245 49.9497 86.8236C52.4031 86.4124 54.8611 86.0011 57.3145 85.5898C57.432 86.0168 57.5495 86.4437 57.6669 86.8706Z" fill="#F1A590"/>
<path d="M98.9106 66.8679C99.4393 66.441 99.9679 66.0102 100.497 65.5833C103.339 66.3 101.418 68.1605 101.739 69.4804C100.795 68.6109 99.855 67.7375 98.9106 66.8679Z" fill="#AF5352"/>
<path d="M44.1794 86.4319C44.9159 86.7961 45.6524 87.1604 46.3888 87.5207C45.0424 88.1239 43.7005 88.7231 42.354 89.3263V86.1694C43.0498 86.2674 43.6146 86.3496 44.1749 86.4279L44.1794 86.4319Z" fill="#FFA653"/>
<path d="M67.9551 59.3791C67.8241 59.0775 67.693 58.772 67.5665 58.4704C67.3542 57.4873 67.6795 56.8058 68.9356 56.6531C69.2157 57.3268 69.4958 58.0043 69.8302 58.8034C69.1027 59.0266 68.5289 59.2068 67.9551 59.383V59.3791Z" fill="#84756D"/>
<path d="M91.6752 65.1838C91.8921 65.9829 92.109 66.7819 92.3304 67.5848C91.7249 67.8707 91.124 68.1566 90.5186 68.4426C90.9026 67.3576 91.2912 66.2688 91.6752 65.1838Z" fill="#C26766"/>
<path d="M48.59 41.3506L61.318 42.7097L61.2547 43.1954C57.0256 42.7684 52.7965 42.3376 48.5674 41.9107C48.5764 41.7227 48.5855 41.5386 48.59 41.3506Z" fill="#E1D4CB"/>
<path d="M37.4293 43.7554C40.2397 41.8205 43.6239 42.1808 46.859 41.9341C43.7143 42.5412 40.5695 43.1444 37.4248 43.7514L37.4293 43.7554Z" fill="#E1D4CB"/>
<path d="M62.5054 43.6033C62.5235 43.5562 62.5462 43.4657 62.5643 43.4657C62.6279 43.4657 62.6959 43.4972 62.7594 43.5168C62.7413 43.564 62.7186 43.6545 62.7005 43.6545C62.6369 43.6545 62.5689 43.623 62.5054 43.6033Z" fill="#E1D4CB"/>
<path d="M37.429 43.7515C37.2709 43.8494 37.1127 43.9473 36.9546 44.0452C37.1127 43.9473 37.2709 43.8533 37.4335 43.7554L37.429 43.7515Z" fill="#E1D4CB"/>
<path d="M49.4355 132.54C49.553 133.515 49.666 134.49 49.8015 135.602C47.452 135.489 47.2532 134.482 47.3571 133.288C48.0529 133.037 48.7442 132.79 49.4355 132.54Z" fill="#FFA653"/>
<path d="M40.5474 136.061C40.5474 136.758 40.5474 137.455 40.5474 138.313C39.4585 138.18 37.9448 139.222 37.8906 137.213C38.7762 136.829 39.6618 136.445 40.5474 136.061Z" fill="#FFA653"/>
<path d="M50.8986 141.525C51.6712 142.68 52.4484 143.836 53.221 144.995C53.5192 146.577 53.8174 148.156 54.1156 149.738C51.9649 147.286 50.5145 144.666 50.8986 141.525Z" fill="#A4968A"/>
<path d="M51.0337 138.623C55.2312 138.341 59.4287 138.059 63.6262 137.777C63.6442 137.941 63.6623 138.11 63.6849 138.274C59.5236 138.697 55.3577 139.124 51.1964 139.547C51.1421 139.238 51.0924 138.932 51.0382 138.623H51.0337Z" fill="#FFA653"/>
<path d="M58.408 131.619C59.1716 132.723 59.8493 133.272 59.8448 133.816C59.8403 134.368 59.158 134.913 58.774 135.465C58.2273 135.015 57.3055 134.607 57.2287 134.102C57.1383 133.511 57.7845 132.837 58.408 131.623V131.619Z" fill="#FFA653"/>
<path d="M56.0356 62.8105C57.5854 60.5662 59.9756 60.4291 61.9546 62.223C59.7587 62.4423 57.8972 62.6264 56.0356 62.8105Z" fill="#312A28"/>
<path d="M44.4552 62.4147C43.154 62.5204 41.8572 62.6575 40.5514 62.7045C40.2939 62.7124 39.7607 62.3285 39.7924 62.2345C39.8918 61.9329 40.199 61.4473 40.4249 61.4473C41.7849 61.4629 43.1404 61.5922 44.4959 61.6823C44.4823 61.9251 44.4688 62.1719 44.4507 62.4147H44.4552Z" fill="#453B36"/>
<path d="M54.3913 76.6365C52.1593 78.2227 49.751 78.3442 46.9497 76.6365H54.3913Z" fill="#D88B75"/>
<path d="M59.5367 67.7962C58.9629 68.4582 58.5246 68.9634 58.0863 69.4687C57.8017 68.9556 57.273 68.4308 57.2956 67.9255C57.3137 67.4359 57.8966 66.962 58.2264 66.4802C58.5969 66.8523 58.9674 67.2283 59.5367 67.7962Z" fill="#493D33"/>
<path d="M66.2382 59.0149C65.4611 59.1246 64.6884 59.2382 63.9113 59.3479C63.8616 59.2343 63.8164 59.1168 63.7803 58.9993C64.5981 59.0032 65.4204 59.011 66.2382 59.0149Z" fill="#84756D"/>
<path d="M6.80969 112.58C6.78247 112.635 6.75525 112.686 6.72803 112.741C6.75979 112.694 6.79608 112.647 6.82784 112.6L6.80969 112.584V112.58Z" fill="#C26766"/>
<path d="M94.3324 71.9286C94.1291 70.9533 93.9257 69.9741 93.6953 68.8774C96.1487 69.2848 96.2481 69.606 94.3324 71.9286Z" fill="#DECDC4"/>
<path d="M44.1798 67.7965C43.6059 68.4584 43.1677 68.9637 42.7294 69.4689C42.4447 68.9558 41.9161 68.431 41.9387 67.9257C41.9568 67.4362 42.5396 66.9622 42.8695 66.4805C43.24 66.8526 43.6105 67.2286 44.1798 67.7965Z" fill="#493D33"/>
<path d="M13.4976 104.364L18.3565 103.428L28.6142 139.464L26.4547 140.4L23.2154 138.996L13.4976 104.364Z" fill="#9F3737"/>
</svg>
