<svg width="137" height="37" viewBox="0 0 137 37" fill="none" xmlns="http://www.w3.org/2000/svg">
<path d="M85.4301 6.97683C85.4301 7.13105 85.4301 7.25821 85.4301 7.38808C85.4301 10.8621 85.4301 14.3361 85.4463 17.8073C85.4463 18.1807 85.514 18.5622 85.6168 18.922C85.8738 19.8257 86.5286 20.329 87.4214 20.4967C88.3278 20.6645 89.2477 20.6969 90.1541 20.4832C91.3093 20.2126 91.983 19.4929 92.1075 18.3079C92.1833 17.5692 92.1643 16.8198 92.1616 16.0758C92.1562 14.9502 92.1237 13.8274 92.1156 12.7019C92.1102 11.8144 92.121 10.927 92.1292 10.0396C92.1373 9.11966 92.1616 8.20246 92.1616 7.28256C92.1616 7.04447 92.2563 6.99577 92.4674 6.99847C93.5388 7.00659 94.6102 7.00659 95.6816 6.99847C95.9089 6.99847 95.9765 7.06882 95.9765 7.29338C95.9657 10.0098 95.9549 12.7262 95.9576 15.4399C95.9576 16.2056 96.0171 16.974 96.0225 17.7397C96.0387 19.7797 95.0945 21.2922 93.4197 22.3825C92.1481 23.2104 90.7195 23.4215 89.2396 23.4539C87.5107 23.4918 85.8251 23.2943 84.2504 22.5367C82.6406 21.7656 81.7424 20.5021 81.7126 18.6758C81.6801 16.5682 81.6314 14.4605 81.6125 12.3529C81.5962 10.5699 81.6098 8.78687 81.6098 6.97412H85.4328L85.4301 6.97683Z" fill="#F7A659"/>
<path d="M0 23.1805C0.200214 22.55 0.384195 21.9656 0.570881 21.3839C1.95074 17.1118 3.33059 12.8397 4.71315 8.57021C4.79703 8.31589 4.89443 8.06156 5.01889 7.82347C5.43014 7.02532 6.05513 6.74934 6.94798 6.83592C7.56486 6.89815 8.19796 6.90086 8.81484 6.84133C9.65358 6.76017 10.3056 7.00367 10.6763 7.76665C10.9739 8.3727 11.1822 9.02475 11.396 9.66869C12.6649 13.4673 13.9203 17.2741 15.1974 21.0701C15.3922 21.6491 15.6871 22.1983 15.9333 22.7611C15.9793 22.8666 16.0226 22.9748 16.0794 23.1155C14.8916 23.1155 13.739 23.1209 12.5864 23.1047C12.5134 23.1047 12.4106 22.9721 12.3781 22.8801C11.9587 21.7113 11.5529 20.5398 11.1417 19.371C11.12 19.3087 11.093 19.2492 11.0659 19.1789H4.80244C4.64822 19.6253 4.48859 20.0907 4.33166 20.556C4.06381 21.3542 3.80407 22.155 3.5254 22.9505C3.49293 23.0452 3.36577 23.1696 3.28189 23.1723C2.21047 23.1886 1.14176 23.1832 0.00541106 23.1832L0 23.1805ZM7.93282 9.77962C7.90847 9.77962 7.88412 9.77962 7.86247 9.77962C7.18336 12.0226 6.50426 14.2628 5.81974 16.5247H10.0351C9.32891 14.2601 8.63357 12.0199 7.93552 9.78232L7.93282 9.77962Z" fill="#2B3A7A"/>
<path d="M135.999 13.4486V16.0189H129.546V20.613H129.938C132.157 20.613 134.376 20.6184 136.594 20.6049C136.911 20.6049 136.997 20.6942 136.989 21.0053C136.968 21.6844 136.981 22.3662 136.981 23.0805C136.843 23.0886 136.727 23.1049 136.613 23.1049C133.096 23.1049 129.579 23.1049 126.061 23.1103C125.783 23.1103 125.693 23.0453 125.693 22.7504C125.701 17.599 125.699 12.4475 125.701 7.29605C125.701 7.19053 125.712 7.08501 125.718 6.96326H136.719V9.40371H129.538V13.4459H136.002L135.999 13.4486Z" fill="#F7A559"/>
<path d="M111.146 22.2963C111.404 21.4765 111.652 20.6891 111.907 19.8829C112.886 20.0912 113.833 20.2995 114.783 20.4916C115.237 20.5836 115.697 20.6458 116.157 20.7189C117.405 20.9164 118.262 20.3103 118.909 19.3363C119.504 18.4381 119.266 17.5046 118.273 17.088C117.383 16.7119 116.439 16.4603 115.508 16.1816C114.583 15.9029 113.668 15.6134 112.908 14.9803C111.755 14.0198 111.444 12.7211 111.487 11.3088C111.56 8.92248 112.984 7.34511 115.44 6.82564C117.361 6.4198 119.242 6.62813 121.111 7.10702C121.33 7.16384 121.55 7.22065 121.769 7.28559C122.253 7.42628 122.526 7.78071 122.437 8.28125C122.31 8.99012 122.118 9.68546 121.942 10.4295C121.314 10.2428 120.741 10.0588 120.162 9.9019C119.014 9.59076 117.856 9.39054 116.677 9.68816C115.976 9.86402 115.475 10.3213 115.181 10.976C114.883 11.6389 115.172 12.3586 115.925 12.7184C116.447 12.9701 117.012 13.1378 117.567 13.3137C118.741 13.6843 119.937 13.9901 121.025 14.5907C122.605 15.4619 123.219 16.7011 123.046 18.5544C123.011 18.9305 122.954 19.3039 122.905 19.6799C122.751 20.8812 122.101 21.7443 121.044 22.2854C119.266 23.1945 117.38 23.5381 115.389 23.3406C113.949 23.1972 112.572 22.8103 111.149 22.299L111.146 22.2963Z" fill="#F7A658"/>
<path d="M29.8406 8.00809C29.5078 8.80354 29.1858 9.57734 28.8585 10.362C28.2984 10.159 27.76 9.93989 27.208 9.77214C25.9662 9.39607 24.6999 9.2202 23.4527 9.69639C22.0241 10.2429 20.8526 11.1412 20.4251 12.6698C19.9679 14.3013 19.9652 15.995 20.5225 17.594C21.0339 19.0632 22.2 19.9533 23.707 20.3267C24.9976 20.6459 26.2854 20.4376 27.5598 20.1698C28.0874 20.0588 28.6068 19.9236 29.1615 19.791C29.4158 20.5215 29.6728 21.2412 29.9082 21.9663C29.9272 22.0285 29.8216 22.1854 29.7432 22.2152C29.0235 22.4966 28.3146 22.8483 27.5652 23.0079C25.1572 23.522 22.779 23.4057 20.4684 22.4858C19.0967 21.9392 18.0929 20.9869 17.5112 19.6368C16.1773 16.547 16.1584 13.4491 17.5761 10.3809C18.2958 8.82518 19.5485 7.82952 21.1448 7.27217C23.8856 6.31439 26.5912 6.37662 29.2318 7.66178C29.4347 7.75918 29.6241 7.88363 29.8379 8.00809H29.8406Z" fill="#2B3A7A"/>
<path d="M35.2514 9.45239H30.5112V6.98218H43.6469V9.40098H39.0258V23.113H35.2514V9.45239Z" fill="#293778"/>
<path d="M109.961 20.5943V23.097H99.3876C99.3822 22.9725 99.3714 22.8562 99.3714 22.7425C99.3714 17.6263 99.3714 12.5073 99.3633 7.39098C99.3633 7.07713 99.4472 6.99055 99.7583 6.99596C100.7 7.01761 101.641 7.00408 102.583 7.00408H102.964V20.5943H109.958H109.961Z" fill="#F7A658"/>
<path d="M45.7217 6.93896H49.312V23.1212H45.7217V6.93896Z" fill="#2C3A7A"/>
<path d="M52.5397 33.2703C52.4991 33.5923 52.4855 33.9197 52.4098 34.2335C52.0716 35.6729 50.9677 36.168 49.5635 35.9543C48.6192 35.8082 48.0565 35.2156 47.8238 34.3011C47.6506 33.6193 47.6452 32.9294 47.8238 32.2503C48.0592 31.352 48.6328 30.7974 49.5554 30.6215C50.9785 30.351 52.1122 31.0274 52.4125 32.3423C52.4828 32.6453 52.4964 32.9619 52.537 33.2757L52.5397 33.2703ZM51.7821 33.3217C51.7361 32.9889 51.7199 32.7048 51.6522 32.4343C51.4709 31.7065 50.9379 31.2898 50.1804 31.2546C49.4553 31.2222 48.8573 31.5874 48.6328 32.2449C48.3947 32.9402 48.3947 33.6491 48.6544 34.339C48.8952 34.983 49.458 35.3401 50.1425 35.3212C50.8541 35.3022 51.3763 34.9451 51.59 34.2822C51.6928 33.9575 51.7253 33.6085 51.7821 33.319V33.3217Z" fill="#2D3C7C"/>
<path d="M59.564 35.9136H58.8389V30.589C59.6018 30.6323 60.3729 30.6188 61.1224 30.7324C61.8475 30.8406 62.1992 31.2951 62.2777 31.9824C62.3616 32.7075 62.091 33.2324 61.4606 33.5651C61.4146 33.5895 61.3713 33.6138 61.301 33.649C61.6906 34.3985 62.0721 35.1317 62.4833 35.9217C62.2073 35.9217 61.9747 35.938 61.7474 35.9136C61.6689 35.9055 61.5769 35.8027 61.5336 35.7215C61.2387 35.1696 60.9492 34.6149 60.676 34.0522C60.5732 33.8438 60.4541 33.7356 60.2079 33.7654C60.0077 33.7897 59.8021 33.7708 59.564 33.7708V35.9163V35.9136ZM59.564 33.1431C60.0158 33.116 60.4352 33.1133 60.8491 33.0565C61.2387 33.0024 61.4768 32.7183 61.5255 32.3341C61.5796 31.9093 61.4227 31.5549 61.0818 31.4142C60.5921 31.214 60.078 31.2789 59.564 31.2843V33.1431Z" fill="#2E3D7C"/>
<path d="M82.1908 33.6463C82.5859 34.4038 82.9673 35.1371 83.3759 35.9217C83.108 35.9217 82.8754 35.9379 82.6481 35.9136C82.5696 35.9055 82.4776 35.8053 82.4343 35.7269C82.134 35.1668 81.831 34.6068 81.555 34.0332C81.4549 33.8221 81.3332 33.7464 81.1086 33.7653C80.8976 33.7843 80.6838 33.768 80.4403 33.768V35.9082H79.7314V30.5944C80.4863 30.6322 81.2331 30.616 81.9636 30.7161C82.6833 30.8162 83.0891 31.2816 83.1594 31.8958C83.2514 32.7318 83.0025 33.2296 82.3099 33.5786C82.2801 33.5922 82.2531 33.6111 82.1908 33.6463ZM80.4511 33.1457C80.9138 33.116 81.3467 33.1133 81.7688 33.0483C82.1557 32.9888 82.3775 32.6939 82.4127 32.3016C82.4533 31.8714 82.2909 31.4818 81.9392 31.406C81.4576 31.3005 80.9544 31.287 80.4511 31.2329V33.1457Z" fill="#2C3B7B"/>
<path d="M68.6762 33.5272H65.9787V35.9081H65.2617V30.6538H65.9787V32.8373H68.6545V30.6484H69.3688V35.9027H68.6762V33.5272Z" fill="#2D3C7B"/>
<path d="M56.8471 30.6376H57.5532C57.5613 30.735 57.5722 30.827 57.5722 30.9217C57.5722 31.9823 57.5722 33.0429 57.5722 34.1034C57.5722 35.256 56.8714 35.9838 55.7161 35.973C55.2616 35.9703 54.7827 35.9054 54.3606 35.7485C53.714 35.5077 53.4488 34.9314 53.438 34.2712C53.4164 33.0699 53.4326 31.8713 53.4326 30.6457H54.1685C54.1685 30.7539 54.1685 30.8675 54.1685 30.9812C54.1685 31.9877 54.1821 32.9941 54.1631 34.0006C54.1442 34.9882 54.6393 35.3616 55.6241 35.3047C56.5495 35.2506 56.8471 34.8854 56.8471 33.9492C56.8471 32.8562 56.8471 31.7658 56.8471 30.6376Z" fill="#2D3C7B"/>
<path d="M32.635 35.2615V35.9027H29.4424V30.6511H32.5538V31.2815H30.1729V32.8237H32.2941V33.4758H30.1783V35.2615H32.6323H32.635Z" fill="#2B3A7A"/>
<path d="M109.812 30.6456H112.931V31.2598H110.558V32.829H112.693V33.4865H110.547V35.2641H113.01V35.9053H109.812V30.6456Z" fill="#2C3B7B"/>
<path d="M75.0811 35.9104H74.3452C74.5644 35.2664 74.7754 34.6387 74.9891 34.0138C75.3436 32.9829 75.7088 31.9575 76.0497 30.9213C76.1282 30.6805 76.2391 30.6101 76.4826 30.6155C77.0616 30.6345 77.0616 30.6209 77.2564 31.1675C77.7813 32.6393 78.3089 34.1139 78.8338 35.5857C78.869 35.6858 78.9014 35.7859 78.942 35.905H78.2305C78.0816 35.491 77.9193 35.0798 77.784 34.6577C77.7218 34.4656 77.6379 34.379 77.4242 34.3871C76.9047 34.4034 76.3852 34.4034 75.8658 34.3871C75.6493 34.379 75.5627 34.4629 75.5032 34.655C75.3733 35.0743 75.2218 35.4883 75.0784 35.905L75.0811 35.9104ZM77.4594 33.7297C77.1834 32.9369 76.9182 32.1767 76.626 31.3433C76.3447 32.1821 76.0903 32.9423 75.8252 33.7297H77.4567H77.4594Z" fill="#2D3C7C"/>
<path d="M93.7417 35.9133H93.0274C92.8759 35.4885 92.7135 35.0664 92.5728 34.6362C92.5133 34.4523 92.4213 34.3846 92.2265 34.39C91.707 34.4036 91.1876 34.4063 90.6681 34.39C90.4598 34.3846 90.3624 34.4496 90.3001 34.6498C90.173 35.0718 90.0187 35.4858 89.8754 35.9079H89.1367C89.2666 35.5237 89.391 35.1557 89.5182 34.7851C89.9592 33.4999 90.4056 32.2147 90.8385 30.9269C90.9143 30.6996 91.0144 30.6076 91.2687 30.6157C91.8531 30.6374 91.8531 30.6211 92.0561 31.1947C92.5809 32.6693 93.1085 34.1411 93.6361 35.6157C93.6686 35.705 93.6984 35.7969 93.7389 35.9133H93.7417ZM91.423 31.3462C91.1416 32.185 90.8818 32.9534 90.6221 33.7245H92.2509C91.9776 32.9371 91.7125 32.1796 91.423 31.3462Z" fill="#2D3C7C"/>
<path d="M73.9092 30.6483V31.2706H71.4985V32.8209H73.6414V33.4892H71.4931V35.2614H73.9687V35.9026H70.7734V30.6456H73.9065L73.9092 30.6483Z" fill="#2B3A7A"/>
<path d="M104.436 30.6345H105.215C105.713 32.082 106.208 33.5268 106.733 35.0528C106.931 34.4657 107.101 33.9516 107.277 33.4402C107.55 32.6448 107.848 31.8548 108.091 31.0485C108.194 30.7076 108.348 30.5588 108.7 30.621C108.792 30.6372 108.887 30.6318 109.022 30.6399C108.416 32.4094 107.821 34.1518 107.223 35.905H106.238C105.643 34.1626 105.048 32.4202 104.439 30.6345H104.436Z" fill="#2E3D7C"/>
<path d="M36.7982 35.9027H33.5947V30.6511H36.7197V31.2653H34.3415V32.8345H36.4708V33.4704H34.3388V35.2561H36.7955V35.9027H36.7982Z" fill="#2A397A"/>
<path d="M38.4818 33.7923V35.8946H37.7729V30.6836C38.498 30.6836 39.215 30.616 39.9158 30.6998C40.7518 30.8027 41.1712 31.406 41.1468 32.2556C41.1225 33.0456 40.6517 33.5948 39.8508 33.7058C39.4152 33.7653 38.9688 33.7626 38.4845 33.7896L38.4818 33.7923ZM38.4926 33.1132C38.8281 33.1132 39.1312 33.1186 39.4315 33.1132C39.537 33.1132 39.6452 33.0862 39.7507 33.0591C40.1674 32.9536 40.3757 32.6641 40.3757 32.1987C40.3757 31.7307 40.1755 31.4087 39.7534 31.3411C39.3449 31.2761 38.9228 31.2843 38.4926 31.2572V33.1159V33.1132Z" fill="#2C3B7B"/>
<path d="M97.8096 35.0015C97.8935 35.199 97.9747 35.383 98.0531 35.5643C96.3784 36.7195 94.195 35.7428 93.992 33.7623C93.9487 33.3484 93.9542 32.9128 94.0299 32.5069C94.2978 31.0919 95.5396 30.3181 97.0061 30.6319C97.3497 30.705 97.6771 30.8457 98.0531 30.9701C97.9287 31.2137 97.834 31.4003 97.7447 31.5735C97.3957 31.4734 97.071 31.3489 96.7355 31.2948C95.7155 31.1244 94.9282 31.6763 94.7794 32.7017C94.7171 33.1211 94.7225 33.5702 94.801 33.9869C94.9904 34.9907 95.8535 35.475 96.9628 35.245C97.2361 35.1882 97.5012 35.0935 97.8069 35.0042L97.8096 35.0015Z" fill="#2E3D7C"/>
<path d="M43.0999 30.6263C43.3758 30.6263 43.5815 30.6047 43.779 30.6371C43.871 30.6506 43.9711 30.7562 44.0225 30.8482C44.3796 31.4894 44.7232 32.136 45.0696 32.7827C45.1128 32.8638 45.1588 32.945 45.2265 33.0695C45.4673 32.6149 45.6864 32.201 45.9083 31.7843C46.0192 31.576 46.1707 31.3785 46.2465 31.1593C46.4278 30.6371 46.7903 30.5262 47.3179 30.6642C47.2638 30.7643 47.2151 30.8644 47.1583 30.9591C46.674 31.8032 46.1843 32.642 45.7135 33.4915C45.6296 33.643 45.5809 33.8324 45.5755 34.0083C45.5593 34.6333 45.5701 35.2583 45.5701 35.9049H44.8531C44.8531 35.2853 44.8666 34.6739 44.845 34.0597C44.8369 33.846 44.7828 33.6106 44.6799 33.4239C44.1794 32.5067 43.6518 31.603 43.0972 30.629L43.0999 30.6263Z" fill="#2E3D7C"/>
<path d="M85.9323 35.9081H85.172V31.2843H83.5703V30.6484H87.4339V31.2599H85.9323V35.9081Z" fill="#2A397A"/>
<path d="M102.166 30.6511V31.2788H100.637V35.9081H99.9094V31.2842H98.3022V30.6511H102.166Z" fill="#2A397A"/>
<path d="M26.4338 33.059C27.1833 34.0059 27.9219 34.9393 28.6984 35.9188C28.3954 35.9188 28.1492 35.9296 27.9057 35.9134C27.8218 35.908 27.7217 35.8538 27.6676 35.7862C26.9506 34.8934 26.2417 33.9951 25.5112 33.0725C26.0469 32.4529 26.5745 31.8414 27.0994 31.23C27.1346 31.1894 27.1806 31.1542 27.2049 31.1082C27.4863 30.5996 27.9327 30.5373 28.4928 30.6591C27.8002 31.4626 27.1238 32.25 26.4311 33.0562L26.4338 33.059Z" fill="#2E3D7C"/>
<path d="M102.945 30.6403H103.651V35.9081H102.945V30.6403Z" fill="#384682"/>
<path d="M24.6694 30.6403H25.3539V35.9026H24.6694V30.6403Z" fill="#2A397A"/>
<path d="M76.047 13.3919C75.7494 13.7491 75.4491 14.1035 75.1379 14.4742C75.0703 14.4309 75.0054 14.3984 74.954 14.3497C73.6417 13.1403 72.3214 11.939 71.0254 10.7161C68.6797 8.50564 66.361 6.27081 64.0044 4.07116C63.0574 3.18913 61.9427 2.54249 60.755 2.02302C58.8448 1.18969 57.0808 1.48731 55.4466 2.70754C53.2983 4.31196 52.5597 7.07978 53.6961 9.41201C53.9747 9.98289 54.386 10.5213 54.8432 10.965C57.4487 13.4975 60.0921 15.992 62.7111 18.5082C63.9828 19.7285 65.2354 20.9703 66.4963 22.2041C66.5341 22.242 66.5666 22.2825 66.6153 22.3367C66.2879 22.7182 65.9687 23.0942 65.6251 23.4974C65.46 23.3458 65.3085 23.2133 65.1651 23.0753C62.5326 20.5401 59.8973 18.0077 57.2675 15.4671C55.8903 14.136 54.5402 12.7778 53.1495 11.4656C52.3189 10.6809 51.8427 9.73398 51.6452 8.62739C51.372 7.09061 51.4775 5.59441 52.116 4.15233C52.5056 3.27301 53.2172 2.66425 53.9044 2.03925C55.038 1.00842 56.3205 0.261674 57.8735 0.0668705C59.8107 -0.176633 61.6018 0.250851 63.2008 1.35203C64.072 1.94997 64.8621 2.66425 65.6873 3.32441C66.0092 3.6545 66.3312 3.98187 66.6532 4.31196C66.9373 4.55005 67.2241 4.78814 67.5082 5.02623C67.9194 5.41043 68.3307 5.79463 68.7419 6.17882C69.0152 6.43856 69.2857 6.701 69.559 6.96074C69.8864 7.35846 70.2138 7.75619 70.5411 8.15391C70.8063 8.35412 71.0687 8.55434 71.3339 8.75185C71.6612 9.08734 71.9859 9.42013 72.3133 9.75562C72.5974 9.95313 72.8815 10.1479 73.1656 10.3454C73.5795 10.7323 73.9935 11.122 74.4074 11.5089C74.678 11.7253 74.9513 11.939 75.2218 12.1555C75.4978 12.5667 75.7711 12.978 76.047 13.3892V13.3919Z" fill="#37437F"/>
<path d="M68.5882 20.3019C68.3826 20.5643 68.1797 20.8565 67.9443 21.1217C67.5899 21.5194 67.2652 21.541 66.8485 21.1758C66.4508 20.8268 66.0747 20.4507 65.6905 20.0854C62.7631 17.296 59.8302 14.5092 56.9082 11.7116C56.2832 11.1137 55.6203 10.5347 55.1117 9.84744C54.024 8.3783 53.794 6.73059 54.6517 5.08829C55.5148 3.43246 56.9677 2.59372 58.84 2.54502C60.1143 2.50985 61.2101 2.98874 62.13 3.84912C63.9644 5.56177 65.7771 7.29606 67.6061 9.01141C69.7679 11.0379 71.9351 13.0563 74.1023 15.0774C74.1482 15.1206 74.2051 15.1558 74.2862 15.2208C73.8506 15.5617 73.4475 15.8755 73.0038 16.2245C72.4194 15.6753 71.8458 15.1369 71.2749 14.5958C67.9308 11.4275 64.5948 8.24843 61.2425 5.09099C59.9195 3.84371 57.847 3.82748 56.6538 5.01253C55.4282 6.22734 55.4336 8.11044 56.7161 9.36313C58.4477 11.0568 60.209 12.7181 61.9676 14.3847C63.7182 16.0433 65.4714 17.6991 67.2436 19.3333C67.6359 19.6958 68.1121 19.9637 68.5882 20.3046V20.3019Z" fill="#35427F"/>
<path d="M72.3539 16.8901C71.9968 17.2689 71.6558 17.6287 71.2933 18.0129C70.2706 17.1201 69.2316 16.2705 68.2603 15.3506C65.9876 13.2051 63.7474 11.0244 61.4963 8.85717C60.9579 8.3404 60.4114 7.82904 59.9 7.28792C59.5591 6.92808 59.1966 6.76303 58.6933 6.9389C58.6717 7.24734 58.761 7.50437 58.9991 7.75599C62.2728 11.1705 65.7928 14.3279 69.2425 17.5584C69.6835 17.9723 70.1245 18.3863 70.579 18.8111C70.2138 19.1547 69.8593 19.4875 69.4535 19.869C68.7852 19.3008 68.0466 18.7218 67.3648 18.0833C64.1722 15.0855 60.9985 12.066 57.814 9.05738C57.3676 8.63531 56.9644 8.18889 56.8021 7.58013C56.4314 6.18945 57.7869 4.82312 59.2426 5.1045C59.8513 5.22355 60.3302 5.55363 60.7685 5.97029C63.6635 8.73271 66.5612 11.4951 69.4643 14.2467C70.3193 15.0584 71.2013 15.8403 72.0698 16.6358C72.1564 16.7142 72.243 16.7927 72.3512 16.8928L72.3539 16.8901Z" fill="#33407E"/>
<path d="M76.047 13.392C75.771 12.9808 75.4978 12.5695 75.2218 12.1583C75.5925 11.7795 75.9848 11.4223 76.3311 11.0219C77.4404 9.73947 78.0654 8.27303 77.9031 6.54415C77.7542 4.96138 77.0183 3.68975 75.7548 2.74279C73.8447 1.30882 71.158 1.21953 69.0503 2.54798C68.2143 3.07558 67.4486 3.72221 66.6505 4.31203C66.3285 3.98195 66.0065 3.65457 65.6846 3.32449C66.967 1.60102 68.6499 0.513373 70.7738 0.129178C74.08 -0.466054 77.527 1.00309 79.0042 4.38509C79.3884 5.26711 79.824 6.13831 79.8565 7.12045C79.87 7.55334 79.8511 8.02412 79.7023 8.42455C79.1206 9.99921 78.3441 11.4683 77.0751 12.6155C76.7559 12.905 76.3879 13.135 76.0416 13.3947L76.047 13.392Z" fill="#F3A863"/>
<path d="M74.4054 11.5091C73.9914 11.1222 73.5774 10.7326 73.1635 10.3457C73.6694 9.91008 74.2214 9.51777 74.6705 9.03076C75.355 8.28943 75.5985 7.39117 75.3144 6.3901C74.6462 4.05246 71.8621 3.53569 70.1927 4.84249C69.676 5.24563 69.2241 5.72993 68.7425 6.17636C68.3313 5.79216 67.92 5.40797 67.5088 5.02377C68.1067 4.56382 68.702 4.09845 69.3053 3.64391C71.0288 2.34523 72.8983 2.22889 74.6813 3.3003C76.9757 4.68016 77.6169 7.54809 76.0612 9.69364C75.5823 10.3538 74.9627 10.9084 74.4054 11.5118V11.5091Z" fill="#F3A863"/>
<path d="M69.5562 6.96086C69.9269 6.56855 70.2786 6.15459 70.6736 5.78663C71.6016 4.92625 73.1628 5.04529 73.9474 6.01119C74.4398 6.61725 74.475 7.30988 73.9961 8.01604C73.7607 8.36236 73.4631 8.66539 73.1682 8.96841C72.8976 9.24709 72.5973 9.496 72.3078 9.75574C71.9804 9.42025 71.6557 9.08746 71.3284 8.75196C71.3933 8.62751 71.4285 8.4787 71.5232 8.38671C71.7315 8.18649 71.9777 8.02416 72.1914 7.82665C72.554 7.49657 72.5838 7.23953 72.3294 6.77688C71.7288 7.23683 71.1309 7.69407 70.5329 8.15132C70.2055 7.7536 69.8782 7.35587 69.5508 6.95815L69.5562 6.96086Z" fill="#F2A761"/>
</svg>
