<svg width="62" height="62" viewBox="0 0 62 62" fill="none" xmlns="http://www.w3.org/2000/svg">
<path d="M31 62C39.2218 62 47.1076 58.7329 52.9207 52.9207C58.7338 47.1085 62 39.2218 62 31C62 22.7782 58.7329 14.8924 52.9207 9.07927C47.1085 3.26618 39.2218 0 31 0C22.7782 0 14.8924 3.26705 9.07927 9.07927C3.26618 14.8915 0 22.7782 0 31C0.0170458 39.216 3.28691 47.0938 9.09673 52.9033C14.9064 58.7129 22.784 61.9825 31 62ZM31 3.03127C38.4175 3.03127 45.5309 5.97731 50.7782 11.2218C56.0225 16.4689 58.9687 23.5825 58.9687 31C58.9687 38.4175 56.0227 45.5309 50.7782 50.7782C45.5311 56.0225 38.4175 58.9687 31 58.9687C23.5825 58.9687 16.4691 56.0227 11.2218 50.7782C5.97753 45.5311 3.03127 38.4175 3.03127 31C3.04548 23.5884 5.99716 16.4829 11.2415 11.2415C16.4829 5.99716 23.5884 3.04509 31 3.03127ZM20.3949 28.4771C22.7329 28.4771 24.8409 27.068 25.7387 24.9089C26.6364 22.7499 26.1449 20.2612 24.4944 18.6049C22.8439 16.9487 20.358 16.4458 18.1961 17.3351C16.0313 18.2243 14.6165 20.3265 14.6052 22.6674C14.6023 24.2044 15.2103 25.6816 16.2955 26.7725C17.3807 27.8606 18.8551 28.4742 20.3949 28.4771ZM20.3949 19.9404C21.5114 19.9404 22.5199 20.6137 22.9432 21.6478C23.3693 22.6819 23.1279 23.8722 22.3324 24.6563C21.5369 25.4432 20.3466 25.6733 19.3182 25.2358C18.287 24.7983 17.6251 23.7841 17.6364 22.6677C17.6535 21.1563 18.8835 19.9404 20.3949 19.9404ZM41.6051 28.4771C43.946 28.4771 46.054 27.068 46.9517 24.9089C47.8495 22.7499 47.358 20.2612 45.7074 18.6049C44.0569 16.9487 41.5711 16.4458 39.4063 17.3351C37.2443 18.2243 35.8267 20.3265 35.8182 22.6674C35.8153 24.2044 36.4233 25.6816 37.5085 26.7725C38.5937 27.8606 40.0681 28.4742 41.6051 28.4771ZM41.6051 19.9404C42.7244 19.9404 43.7301 20.6137 44.1562 21.6478C44.5824 22.6819 44.3409 23.8722 43.5454 24.6563C42.7499 25.4432 41.5596 25.6733 40.5284 25.2358C39.5 24.7983 38.8352 23.7841 38.8494 22.6677C38.8665 21.1563 40.0937 19.9404 41.6051 19.9404ZM12.9855 38.1964C12.9855 37.3612 13.6616 36.6822 14.4996 36.6822H47.4996C48.3377 36.6822 49.0138 37.3612 49.0138 38.1964C49.0138 39.0344 48.3377 39.7134 47.4996 39.7134H14.4996C13.6616 39.7134 12.9855 39.0344 12.9855 38.1964Z" fill="#0C2C7E"/>
</svg>
