<svg width="324" height="301" viewBox="0 0 324 301" fill="none" xmlns="http://www.w3.org/2000/svg">
<path d="M258.311 216.863C274.393 220.993 289.589 227.818 305.423 232.69C312.826 234.969 314.376 237.684 312.39 245.883C311.141 251.041 309.06 256.022 307 260.934C305.201 265.228 302.818 269.263 300.865 273.502C299.113 277.312 295.059 280.116 290.321 278.197C285.347 276.19 280.239 274.434 275.474 272.005C268.144 268.263 260.909 267.909 253.197 270.644C234.86 277.136 216.455 283.436 198.051 289.724C188.064 293.133 178.063 296.555 167.968 299.61C160.645 301.829 153.329 300.053 146.188 298.202C135.314 295.378 125.3 290.458 115.655 284.709C108.198 280.266 100.902 275.584 94.7469 269.379C91.2567 265.861 87.8202 262.18 86.31 257.192C85.4575 254.389 86.565 252.606 89.3841 253.048C92.9951 253.62 96.5659 254.647 100.043 255.818C115.225 260.921 130.334 266.235 145.536 271.263C150.523 272.91 155.732 272.107 160.685 270.876C169.686 268.637 178.6 266.004 187.54 263.534C188.976 262.935 190.413 262.329 191.849 261.724C194.386 260.417 196.923 259.111 199.461 257.811C200.333 257.206 201.206 256.593 202.071 255.988C202.864 255.253 203.783 254.613 204.421 253.756C205.83 251.857 204.958 249.687 202.602 248.966C201.722 249.102 200.836 249.231 199.957 249.367C195.621 250.558 191.279 251.749 186.943 252.939C186.077 253.171 185.211 253.395 184.345 253.627C177.385 255.641 170.478 257.906 163.431 259.56C159.954 260.376 156.215 260.05 152.597 260.234C152.356 260.247 152.027 260.234 151.873 260.084C150.329 258.635 148.221 257.423 147.456 255.62C146.651 253.729 148.543 252.136 150.148 250.966C150.389 250.918 150.698 250.946 150.873 250.803C157.712 245.475 165.437 241.78 173.223 238.181C174.989 237.364 176.586 236.187 178.264 235.173C179.64 234.663 181.016 234.153 182.385 233.642C183.238 233.288 184.083 232.928 184.936 232.574C191.071 230.383 197.205 228.185 203.34 225.994C204.26 225.667 205.179 225.348 206.099 225.021C215.596 222.776 225.1 220.537 234.598 218.292C235.578 218.121 236.564 217.951 237.544 217.788C243.612 217.434 249.686 217.087 255.754 216.733C256.606 216.774 257.459 216.822 258.311 216.863Z" fill="#F6B690"/>
<path d="M94.686 33.3629C103.136 30.3486 111.573 27.2934 120.044 24.3267C126.85 21.9452 133.689 19.6453 140.522 17.3455C149.979 14.1678 159.309 15.3994 168.625 18.1348C180.23 21.5438 190.969 26.8307 201.071 33.4582C205.769 36.5405 210.32 39.8747 214.83 43.236C219.207 46.4885 221.73 51.2243 224.207 55.9601C224.637 56.7835 225.093 57.6272 225.321 58.5186C225.617 59.6821 226.147 61.1314 225.704 62.016C225.395 62.6284 223.536 62.8597 222.529 62.6148C218.737 61.6826 214.965 60.6075 211.253 59.3691C201.917 56.2459 192.621 53.007 183.311 49.7954C178.975 48.2984 174.579 46.958 170.35 45.2025C165.202 43.0659 159.96 43.6102 154.798 44.4336C143.16 46.2912 131.857 49.5504 120.984 54.1366C117.393 55.6471 114.043 57.7905 110.707 59.859C109.627 60.5258 108.62 61.7438 108.204 62.9278C107.875 63.86 108.15 65.5883 108.815 66.1462C109.681 66.8743 111.332 67.2758 112.426 66.9832C120.876 64.7037 129.266 62.2065 137.676 59.8046C144.549 57.8449 151.241 54.9667 158.631 55.5178C160.98 55.6948 163.007 56.3004 164.598 58.2124C166.242 60.1856 166.081 62.05 164.215 63.5061C160.598 66.3368 157.067 69.4463 153.047 71.5693C135.629 80.7756 117.366 87.8657 98.3306 92.8533C98.1091 92.9145 97.9212 93.1255 97.7198 93.2615C97.1157 93.4385 96.5117 93.6154 95.9009 93.7991C95.6659 93.8195 95.431 93.8331 95.1961 93.8535C89.3634 95.1736 83.5307 96.5004 77.698 97.8205C77.5033 97.8477 77.3154 97.8749 77.1207 97.8953C73.013 98.3852 68.9053 98.8751 64.7975 99.365C56.7901 99.4467 49.1049 98.2015 41.5338 95.2416C30.1503 90.7916 18.552 86.8723 6.9537 83.0278C0.604162 80.9253 -1.07383 78.3396 0.617587 70.4806C2.90637 59.8386 8.39677 50.4962 13.1757 40.8885C13.5046 40.2285 14.0684 39.6569 14.6255 39.1602C16.9613 37.0917 19.6863 36.4317 22.5658 37.568C27.6266 39.5685 32.5733 41.8479 37.6342 43.8552C40.1713 44.8622 42.8427 45.5291 45.4603 46.3524L45.4469 46.3252C45.608 46.4817 45.7758 46.6382 45.9369 46.7947C46.1852 47.0192 46.4671 47.2097 46.6752 47.4683C58.4749 62.1997 80.819 60.8797 90.5447 44.6581C92.565 41.29 93.3369 37.1461 94.686 33.3629Z" fill="#F6B690"/>
<path d="M273.996 178.996C272.654 179.071 271.305 179.139 269.962 179.214C268.996 179.207 268.029 179.194 267.063 179.187C264.553 179.16 262.049 179.064 259.539 179.119C257.196 179.167 256.176 178.105 256.216 175.751C256.27 172.457 256.23 169.157 256.23 165.857C254.33 173.968 252.605 182.106 250.86 190.244C249.9 194.708 249.014 199.185 247.86 203.594C247.618 204.519 246.464 205.656 245.571 205.819C244.866 205.948 243.806 204.853 243.121 204.091C242.524 203.431 242.235 202.485 241.812 201.662C241.182 200.212 240.551 198.756 239.92 197.307C237.617 191.877 235.382 186.42 232.933 181.058C232.57 180.262 231.194 179.507 230.268 179.48C224.683 179.309 219.086 179.364 213.495 179.343C212.703 179.371 211.917 179.391 211.125 179.418C209.702 179.398 208.273 179.48 206.863 179.33C205.252 179.16 203.856 178.527 204.017 176.506C204.172 174.594 205.527 174.329 207.091 174.363C208.877 174.403 210.669 174.369 212.454 174.369C212.508 174.016 212.555 173.669 212.609 173.315C210.541 171.226 207.367 173.247 204.548 171.566V135.006C204.642 132.89 204.742 130.774 204.836 128.658C204.903 125.95 205.031 123.235 205.011 120.527C204.991 118.22 203.782 116.703 201.534 116.281C199.332 115.866 197.634 117.097 196.997 119.642C196.319 122.337 195.876 125.092 195.285 127.807C190.311 150.684 185.338 173.553 180.344 196.429C179.431 200.6 178.451 204.764 177.498 208.929C172.149 198.028 167.269 187.134 162.51 176.186C161.49 173.832 160.054 172.403 157.463 172.41C146.663 172.423 135.864 172.451 125.058 172.471C122.03 172.566 118.997 172.668 115.97 172.764C114.748 172.77 113.526 172.784 112.305 172.798C110.003 172.335 108.412 173.07 107.828 175.519C107.767 175.826 107.7 176.139 107.64 176.445C107.734 177.22 107.828 177.996 107.922 178.772C107.365 178.404 106.754 178.098 106.257 177.663C101.297 173.383 95.6255 170.552 89.1619 169.797C85.8797 169.416 82.5103 169.804 79.1812 169.845L76.7917 164.7C76.3554 163.36 75.9259 162.013 75.4963 160.672C75.3621 160.332 75.2278 159.992 75.0869 159.645C74.8922 158.774 74.6976 157.91 74.5029 157.039C74.5164 156.542 74.5298 156.045 74.5365 155.549C74.8587 151.35 74.9056 147.111 75.5903 142.974C76.1608 139.511 77.4696 136.17 78.4563 132.774C78.6107 132.57 78.7583 132.366 78.9127 132.155C81.678 128.386 84.4434 124.616 87.2087 120.846C87.1886 122.969 87.1282 125.092 87.1483 127.215C87.1886 131.822 89.417 134.047 93.961 134.054C98.4647 134.054 102.962 134.054 107.633 134.054C107.694 135.224 107.768 136.047 107.774 136.871C107.814 140.946 107.794 145.022 107.875 149.105C107.942 152.609 109.989 154.61 113.412 154.63C115.171 154.637 116.929 154.65 118.688 154.616C121.507 154.562 123.849 152.398 124.01 149.595C124.252 145.444 124.413 141.294 124.588 137.143C124.628 136.238 124.588 135.326 124.588 134.135C129.81 134.135 134.73 134.156 139.649 134.129C142.274 134.108 144.65 132.21 145.079 129.74C145.355 128.161 145.496 126.542 145.529 124.936C145.657 119.254 143.301 116.846 137.71 116.839C133.542 116.839 129.373 116.839 124.568 116.839V107.687C131.172 107.945 137.159 110.279 142.536 113.94C146.663 116.75 150.375 120.18 154.08 123.187C157.262 120.533 160.47 117.261 164.215 114.825C179.351 104.965 195.01 104.652 210.944 112.892C211.609 113.239 212.28 113.573 212.951 113.913C213.629 114.369 214.307 114.818 214.978 115.274C217.542 117.689 220.099 120.112 222.663 122.527C223.448 123.507 224.24 124.494 225.026 125.473C225.153 125.691 225.267 125.922 225.402 126.133C229.973 132.938 232.912 140.334 233.288 148.649C233.422 151.65 233.516 154.644 233.631 157.644C233.429 158.332 233.235 159.012 233.033 159.699C231.926 163.374 230.805 167.041 229.711 170.722C229.321 172.042 228.57 172.532 227.153 172.491C223.563 172.389 219.965 172.417 216.374 172.525C215.488 172.553 214.616 173.07 213.743 173.362L213.897 174.186C214.77 174.261 215.649 174.397 216.522 174.403C221.536 174.424 226.563 174.594 231.563 174.335C234.543 174.179 235.913 175.431 236.926 178.064C238.316 181.67 240.067 185.127 241.665 188.652C242.309 190.19 242.953 191.727 243.598 193.265C243.886 193.952 244.182 194.646 244.652 195.769C246.276 188.305 247.773 181.344 249.316 174.397C251.525 164.476 253.773 154.555 256.015 144.641C256.525 142.396 258.129 141.11 259.358 142.117C260.17 142.784 260.747 144.233 260.76 145.335C260.874 154.086 260.821 162.843 260.821 171.593C260.821 172.491 260.821 173.39 260.821 174.383H268.425C269.365 174.39 270.305 174.397 271.238 174.403C271.479 174.465 271.721 174.526 271.963 174.587C273.815 175.513 274.319 177.071 273.976 179.024L273.996 178.996Z" fill="#EA3D81"/>
<path d="M178.262 235.18C176.584 236.194 174.987 237.371 173.222 238.187C165.429 241.787 157.704 245.481 150.871 250.809C150.696 250.945 150.387 250.918 150.146 250.973C143.702 245.1 137.245 239.242 130.809 233.356C128.829 231.546 126.909 229.661 124.962 227.811C125.553 227.219 126.15 226.633 126.721 226.021C128.949 223.646 129.466 220.891 128.298 217.863C127.157 214.916 124.472 213.324 121.251 213.188C118.177 213.059 116.398 215.032 114.512 216.951C114.257 216.685 114.009 216.42 113.753 216.155C114.055 215.018 114.452 213.902 114.653 212.753C115.411 208.466 116.787 204.159 116.68 199.886C116.499 192.659 113.787 186.114 109.129 180.507C111.223 180.33 113.317 180.16 115.411 179.983C115.633 179.99 115.861 179.996 116.083 180.003C118.499 180.003 120.922 179.996 123.338 179.99C129.191 180.03 135.051 180.017 140.903 180.119C144.991 180.194 149.072 180.452 153.16 180.561C155.207 180.616 156.415 181.582 157.214 183.494C159.979 190.074 162.825 196.619 165.697 203.152C168.711 210.004 171.779 216.828 174.826 223.667C175.658 225.531 177.034 226.715 179.128 226.436C181.283 226.157 182.175 224.585 182.377 222.524C182.417 222.102 182.484 221.68 182.538 221.265C183.491 216.699 184.437 212.127 185.39 207.561C187.23 199.525 189.082 191.489 190.914 183.446C192.8 175.152 194.666 166.857 196.546 158.556C196.962 163.727 196.955 168.844 196.962 173.968C196.962 178.935 198.069 180.092 203.003 180.132C205.681 180.16 208.359 180.064 211.03 180.03C211.701 179.874 212.373 179.724 213.037 179.568C213.889 179.731 214.742 180.024 215.594 180.037C218.548 180.098 221.508 180.058 224.468 180.058C224.649 180.303 224.823 180.548 225.005 180.799C220.219 187.529 215.427 194.258 210.641 200.988C209.111 202.873 207.58 204.757 206.05 206.649C204.023 208.779 202.003 210.909 199.976 213.038C194.915 218.353 189.861 223.674 184.8 228.988C183.961 229.838 183.122 230.682 182.283 231.533C180.94 232.751 179.598 233.969 178.256 235.186L178.262 235.18Z" fill="#EA3D81"/>
<path d="M124.573 107.666V116.818C129.379 116.818 133.547 116.818 137.715 116.818C143.306 116.825 145.662 119.234 145.534 124.915C145.501 126.521 145.353 128.141 145.085 129.719C144.662 132.189 142.279 134.088 139.655 134.108C134.735 134.142 129.815 134.115 124.593 134.115C124.593 135.306 124.626 136.217 124.593 137.122C124.418 141.273 124.257 145.43 124.016 149.574C123.855 152.378 121.512 154.541 118.693 154.596C116.935 154.63 115.176 154.623 113.417 154.61C110.001 154.589 107.947 152.589 107.88 149.084C107.8 145.009 107.82 140.933 107.779 136.85C107.773 136.027 107.699 135.197 107.638 134.033C102.967 134.033 98.4699 134.033 93.9661 134.033C89.4221 134.033 87.187 131.801 87.1535 127.195C87.1333 125.072 87.1937 122.949 87.2139 120.826C87.2676 120.635 87.3145 120.452 87.3682 120.261C87.5092 119.948 87.6502 119.635 87.7911 119.329C89.0664 118.485 90.3417 117.642 91.6169 116.798H107.357V108.83C107.404 106.197 107.45 103.557 107.497 100.923C110.29 95.1736 119.056 95.2008 122.083 98.0518C123.157 99.0589 123.553 100.95 123.942 102.522C124.351 104.183 124.385 105.945 124.579 107.66L124.573 107.666Z" fill="#0C2C7E"/>
<path d="M54.1912 194.769C44.9556 190.754 38.5926 183.78 34.9144 174.478C32.8136 169.178 31.5249 163.544 30.0348 158.019C29.8603 157.386 30.5986 155.923 31.1826 155.739C36.579 154.031 42.0291 152.528 47.4658 150.963C48.5532 155.467 49.6472 159.978 50.7346 164.483C51.1373 163.537 50.9896 162.727 50.8285 161.924C50.0768 158.141 49.3251 154.365 48.5666 150.582C53.3992 150.561 58.2386 150.548 63.0712 150.527C63.2256 150.772 63.3867 151.017 63.541 151.262C63.7155 151.031 63.8901 150.806 64.0579 150.575C66.246 151.044 68.4274 151.514 70.6155 151.983C70.206 152.378 69.8033 153.106 69.3939 153.113C66.1453 153.154 62.8967 153.011 59.6481 153.031C58.9836 153.031 58.3258 153.46 57.6613 153.698L57.809 154.603C59.9233 154.603 62.0443 154.603 64.1585 154.603C64.3062 158.999 64.4539 163.401 64.6015 167.803C64.3666 169.559 64.0646 171.308 63.937 173.07C63.9102 173.478 64.4069 174.05 64.8096 174.322C65.3331 174.676 66.0043 174.812 66.6084 175.043C63.7894 178.445 60.6482 181.63 58.252 185.311C56.4062 188.142 55.5001 191.591 54.1778 194.769H54.1912ZM53.0166 167.783L51.983 167.307C51.1507 166.966 50.3184 166.626 49.4929 166.286C48.8686 165.721 48.2377 165.163 47.6135 164.599L47.1571 165.32C47.9424 165.64 48.721 165.953 49.5063 166.272C50.3386 166.606 51.1709 166.946 52.0031 167.279C52.332 167.456 52.6609 167.64 52.9898 167.817C53.1845 167.967 53.3858 168.11 53.5805 168.259L53.7281 167.946C53.4932 167.892 53.2516 167.837 53.0166 167.783ZM36.485 159.271C36.3844 159.536 36.2837 159.801 36.183 160.067C37.4449 160.625 38.7134 161.183 39.9753 161.741C40.0625 161.537 40.1498 161.326 40.237 161.121C38.9819 160.502 37.7335 159.89 36.4783 159.271H36.485ZM50.003 168.184C50.0567 168.15 50.1104 168.11 50.1641 168.076C50.1171 168.028 50.0432 167.933 50.0298 167.946C49.9493 167.994 49.8889 168.062 49.8218 168.123C49.8822 168.144 49.9426 168.164 49.9963 168.184H50.003ZM42.2775 162.462L42.15 162.38L42.1298 162.503L42.2708 162.462H42.2775ZM46.2241 164.394L46.1369 164.51L46.2711 164.53L46.2174 164.394H46.2241ZM45.3046 163.986L45.1771 163.904L45.1636 164.027L45.3046 163.986ZM43.197 162.863L43.1098 162.979L43.244 162.999L43.197 162.87V162.863ZM41.1566 162.026L41.2438 161.911L41.1096 161.89L41.1633 162.02L41.1566 162.026ZM61.7087 172.117L61.8563 172.206L61.8765 172.076L61.7154 172.124L61.7087 172.117ZM60.7019 171.614L60.8495 171.702L60.8697 171.573L60.7086 171.621L60.7019 171.614ZM59.6884 171.103L59.836 171.192L59.8562 171.063L59.6951 171.11L59.6884 171.103ZM58.9098 170.627L58.7621 170.545L58.7487 170.675L58.9098 170.627ZM56.6613 169.579L56.8089 169.661L56.8223 169.532L56.6613 169.579ZM57.7956 170.008L57.7016 170.124L57.856 170.144L57.7956 170.008ZM55.7551 169.178L55.8491 169.062L55.6947 169.042L55.7551 169.178ZM54.7416 168.667L54.8356 168.545L54.6812 168.525L54.7416 168.667ZM44.2978 163.476L44.1703 163.394L44.1568 163.517L44.2978 163.476ZM62.9437 172.662L62.796 172.58L62.7826 172.709L62.9437 172.662Z" fill="#10652F"/>
<path d="M54.1914 194.769C55.5136 191.591 56.4265 188.141 58.2655 185.311C60.6617 181.63 63.8029 178.438 66.622 175.043C66.9576 174.846 67.2932 174.642 67.6288 174.444L69.8437 173.437C69.7833 173.267 69.7229 173.097 69.6558 172.927H65.5346C65.5011 172.757 65.4675 172.587 65.4406 172.416C70.2934 173.063 74.73 171.43 79.1801 169.844C82.5092 169.804 85.8786 169.416 89.1608 169.797C95.6244 170.552 101.296 173.383 106.256 177.663C106.76 178.098 107.364 178.404 107.921 178.765C108.323 179.336 108.726 179.915 109.136 180.493C113.794 186.1 116.505 192.653 116.687 199.872C116.794 204.145 115.418 208.452 114.66 212.739C114.458 213.889 114.062 215.005 113.76 216.141C113.297 216.733 112.76 217.284 112.378 217.924C109.84 222.109 106.619 225.681 102.451 228.158C99.316 230.022 95.9063 231.417 92.4698 233.091C96.5373 236.738 101.397 238.01 106.753 236.99C111.941 236.003 115.908 233.193 118.11 228.171C113.639 224.225 112.935 221.938 114.525 216.937C116.405 215.018 118.183 213.045 121.264 213.174C124.486 213.311 127.171 214.903 128.312 217.849C129.48 220.877 128.963 223.626 126.734 226.007C126.164 226.62 125.56 227.198 124.976 227.797C122.197 228.164 120.559 229.695 118.861 232.097C111.961 241.834 99.2086 242.739 90.2213 234.595C89.4897 233.928 88.2345 233.445 87.268 233.519C70.0048 234.778 54.2182 220.21 53.9967 202.662C53.9632 200.029 54.1243 197.395 54.1981 194.762L54.1914 194.769ZM84.4221 222.109C83.0193 221.714 81.4554 221.401 79.9855 220.843C73.9984 218.57 69.6088 214.474 68.7564 207.956C68.0046 202.185 68.1523 196.266 68.253 190.414C68.3268 185.991 70.9713 183.004 74.4414 182.596C76.2469 182.378 78.0592 181.861 79.8446 181.956C80.65 181.997 81.3883 183.201 82.1602 183.875C81.4286 184.474 80.7574 185.209 79.9318 185.61C79.5358 185.801 78.8445 185.318 78.274 185.202C74.1998 184.392 70.8237 186.379 70.7364 190.149C70.6022 195.823 70.5015 201.566 71.2062 207.18C72.1795 214.923 79.1465 219.822 87.5231 219.407C93.9867 219.087 100.484 212.685 100.799 205.955C101.041 200.865 100.947 195.755 100.833 190.659C100.752 187.236 98.5576 185.188 95.2083 185.141C94.0605 185.127 92.8994 185.528 91.7516 185.474C91.02 185.44 90.1475 185.066 89.6508 184.542C89.342 184.215 89.3756 183.038 89.7045 182.745C90.2347 182.262 91.1341 181.97 91.8724 181.983C93.0135 182.004 94.1411 182.494 95.2888 182.535C99.9268 182.718 103.182 185.889 103.276 190.584C103.37 195.17 103.41 199.77 103.31 204.356C103.135 212.331 98.1213 218.781 90.5367 221.027C86.6908 222.163 86.5565 222.422 87.8318 226.266C87.9929 226.749 88.154 227.232 88.3554 227.695C89.1943 229.655 90.4361 230.471 92.7047 229.9C98.0743 228.552 102.524 225.817 106.39 221.823C119.7 208.071 116.794 183.018 96.356 174.009C83.422 168.307 66.2998 174.192 59.5542 187.978C51.3388 204.778 60.3731 225.334 78.3277 229.811C80.9923 230.478 83.8113 230.505 86.9324 230.873C85.9726 227.518 85.2141 224.864 84.4288 222.102L84.4221 222.109ZM116.398 220.666C116.364 223.653 118.506 225.96 121.298 225.96C123.989 225.96 126.385 223.558 126.473 220.782C126.553 218.142 124.285 215.815 121.573 215.753C118.553 215.685 116.432 217.699 116.398 220.666Z" fill="#0C2C7E"/>
<path d="M243.612 193.238C242.967 191.7 242.323 190.162 241.678 188.624C243.101 178.357 244.753 168.102 244.739 157.406C240.571 158.216 236.806 158.944 233.04 159.672C233.242 158.985 233.436 158.304 233.638 157.617C237.302 156.896 240.974 156.174 244.699 155.446C244.753 154.623 244.853 154.038 244.813 153.466C244.128 143.165 243.732 132.836 242.605 122.581C241.934 116.491 240.094 110.531 238.779 104.516C237.631 100.141 236.483 95.7654 235.329 91.3903C234.987 91.4039 234.638 91.4107 234.295 91.4243C233.027 95.7586 231.758 100.093 230.49 104.434C228.664 111.436 226.838 118.444 225.019 125.446C224.234 124.466 223.442 123.48 222.657 122.5C225.194 113.3 227.738 104.094 230.275 94.8945C230.349 94.6495 230.429 94.4046 230.51 94.1596C230.362 94.3433 230.214 94.5271 230.067 94.7108C229.745 94.9625 229.335 95.1463 229.1 95.4661C224.382 102.053 219.683 108.653 214.978 115.246C214.3 114.79 213.622 114.341 212.951 113.885C217.139 108 221.227 102.039 225.563 96.2622C227.932 93.1049 230.678 90.2267 233.342 87.3076C235.121 85.3616 235.92 85.5453 236.832 88.097C238.135 91.7509 239.309 95.4524 240.806 99.9297C241.92 98.6029 242.833 97.8476 243.336 96.8746C248.102 87.6479 252.659 78.3123 257.572 69.1673C260.009 64.6356 263.009 60.4101 265.848 56.1165C266.962 54.4359 268.547 54.6876 269.124 56.7357C271.453 65.0438 274.03 73.3043 275.775 81.7485C278.171 93.3227 278.702 105.128 278.44 116.947C278.393 119.064 277.547 121.152 277.426 123.269C277.024 130.127 277.158 137.034 276.386 143.845C275.507 151.575 273.876 159.216 272.574 166.891C272.151 169.388 271.701 171.879 271.265 174.376C270.325 174.369 269.386 174.362 268.446 174.356C268.52 173.941 268.567 173.519 268.661 173.104C272.829 155.317 275.406 137.292 275.916 119.016C276.279 105.924 275.467 92.8668 272.842 80.027C271.413 73.0321 269.386 66.1665 267.486 58.675C266.654 59.6684 266.305 60.0154 266.036 60.4169C256.639 74.3658 249.142 89.3353 242.873 104.958C242.578 105.693 242.484 106.612 242.611 107.394C243.88 115.335 245.578 123.228 246.431 131.216C247.29 139.3 248.035 147.519 247.558 155.603C246.813 168.184 244.987 180.697 243.618 193.245L243.612 193.238Z" fill="#10652F"/>
<path d="M87.3629 120.275C87.3092 120.465 87.2623 120.649 87.2086 120.839C84.4432 124.609 81.6779 128.379 78.9126 132.148C74.0464 131.373 69.1802 130.59 64.314 129.814C64.267 129.549 64.2133 129.29 64.1663 129.025C64.0254 128.63 63.8844 128.229 63.7435 127.834C63.6764 122.956 63.6092 118.077 63.5488 113.191C63.5891 112.511 63.6361 111.824 63.6764 111.143C63.8106 110.123 63.9448 109.102 64.0791 108.081C69.4017 109.844 74.6572 111.885 80.0804 113.266C84.0405 114.273 86.289 116.491 87.3629 120.275Z" fill="#10652F"/>
<path d="M261.901 28.1575C261.915 12.9838 273.929 0.88567 288.951 0.912888C303.878 0.946909 315.825 13.1811 315.792 28.3957C315.758 43.3108 303.623 55.5314 288.843 55.5382C273.943 55.5382 261.888 43.2904 261.908 28.1575H261.901ZM313.805 28.314C313.845 14.2154 302.878 2.98821 289.031 2.94058C275.003 2.89295 263.908 13.9024 263.868 27.8989C263.828 42.2833 274.641 53.4697 288.622 53.5173C302.73 53.5649 313.765 42.5215 313.805 28.314Z" fill="#0C2C7E"/>
<path d="M94.6866 33.3631C93.3375 37.1463 92.5723 41.2901 90.5453 44.6583C80.8196 60.8798 58.4687 62.1931 46.6758 47.4685C46.4677 47.2099 46.1858 47.0194 45.9375 46.7948C45.7764 46.6383 45.6086 46.4818 45.4475 46.3253L45.4609 46.3526C43.1923 41.8073 41.1384 37.2824 40.8028 31.9954C39.9235 18.3459 49.5418 5.73062 62.8852 3.48518C80.1552 0.572924 95.0021 13.542 94.7336 31.3218C94.7202 32.0022 94.7067 32.6826 94.6866 33.3631ZM92.8341 30.2603C92.8207 16.0732 81.8264 4.95492 67.785 4.93451C53.7771 4.90729 42.3533 16.2842 42.4741 30.376C42.5815 43.2974 51.7165 55.7426 67.7447 55.831C83.0279 55.9195 93.1294 43.3791 92.8341 30.2603Z" fill="#0C2C7E"/>
<path d="M107.492 100.93C107.445 103.563 107.398 106.204 107.351 108.837C101.451 110.164 96.3031 113.028 91.6114 116.805C90.3361 117.648 89.0609 118.492 87.7856 119.336C85.678 116.131 85.7787 113.117 87.9936 109.871C89.2756 107.993 89.8663 105.632 90.7657 103.482L90.7523 103.502C90.9268 103.155 91.0946 102.808 91.2691 102.461L91.2557 102.482C91.4302 102.135 91.598 101.788 91.7725 101.441L91.7591 101.461C91.9336 101.114 92.1014 100.767 92.2759 100.42L92.2625 100.44C92.437 100.093 92.6048 99.7462 92.7793 99.3992L92.7659 99.4196C92.9404 99.0726 93.1082 98.7256 93.2827 98.3786L93.2693 98.399C93.4438 98.0519 93.6116 97.7049 93.7861 97.3579L93.7727 97.3783C93.9472 97.0313 94.115 96.6843 94.2895 96.3373L94.2761 96.3577C94.4506 96.1807 94.6251 96.0038 94.7996 95.8337L94.7862 95.8541C94.9607 95.337 95.1285 94.8199 95.303 94.3027L95.2896 94.3232C95.4976 94.1462 95.7057 93.9693 95.9071 93.7924C96.5111 93.6155 97.1152 93.4386 97.726 93.2549C100.981 95.8133 104.243 98.3717 107.499 100.93H107.492Z" fill="#10652F"/>
<path d="M64.804 99.3652C68.9117 98.8753 73.0195 98.3854 77.1272 97.8955C78.1474 99.9368 79.1744 101.978 80.1946 104.026L80.1812 104.006C80.3557 104.353 80.5235 104.7 80.698 105.047L80.6846 105.026C81.8659 107.585 83.0405 110.143 84.2218 112.702L84.2083 112.681C83.5304 112.872 82.7518 113.369 82.1813 113.198C76.1473 111.368 70.14 109.436 64.1328 107.53C64.361 104.809 64.5825 102.094 64.8107 99.372L64.804 99.3652Z" fill="#10652F"/>
<path d="M78.4562 132.761C77.4763 136.156 76.1607 139.497 75.5902 142.961C74.9123 147.098 74.8586 151.337 74.5364 155.535C74.4089 155.535 74.2747 155.542 74.1471 155.542C73.4826 155.202 72.8182 154.861 72.1537 154.521C71.704 153.501 71.261 152.48 70.8113 151.459C68.9185 146.356 67.0257 141.259 65.1396 136.156C65.2739 134.537 65.4081 132.911 65.5625 130.999C69.8112 131.577 74.1337 132.162 78.4562 132.754V132.761Z" fill="#10652F"/>
<path d="M23.0494 246.387C27.3518 246.414 30.8756 250.013 30.8487 254.341C30.8219 258.505 27.0296 262.248 22.8682 262.22C18.5792 262.186 15.1293 258.587 15.1763 254.191C15.2232 249.741 18.6329 246.366 23.0494 246.393V246.387ZM17.7268 254.082C17.6731 257.178 20.0492 259.662 23.0427 259.635C25.6872 259.614 28.1572 257.151 28.2848 254.416C28.419 251.674 25.8953 249.142 22.9756 249.095C20.076 249.04 17.7805 251.224 17.7268 254.089V254.082Z" fill="#0C2C7E"/>
<path d="M267.063 179.187C268.029 179.194 268.996 179.207 269.962 179.214C266.076 191.761 262.197 204.308 258.317 216.856C257.465 216.815 256.612 216.774 255.76 216.726C257.062 212.719 258.451 208.738 259.653 204.696C262.176 196.204 264.599 187.685 267.063 179.18V179.187Z" fill="#10652F"/>
<path d="M320.376 102.135C320.315 105.999 317.208 108.98 313.348 108.878C309.945 108.782 307.321 105.768 307.368 102.012C307.415 98.2153 310.241 95.3575 313.892 95.4255C317.57 95.4935 320.436 98.4602 320.376 102.135ZM313.865 106.598C316.275 106.591 318.214 104.693 318.248 102.305C318.288 99.8755 316.187 97.8342 313.697 97.8615C311.247 97.8955 309.328 99.7667 309.274 102.162C309.22 104.509 311.395 106.605 313.865 106.598Z" fill="#0C2C7E"/>
<path d="M13.3496 121.289C12.4368 120.69 11.3293 120.248 10.6514 119.445C9.8527 118.492 9.41642 117.227 8.82577 116.097C9.93996 116.764 11.1213 117.342 12.1549 118.118C12.9469 118.717 13.5443 119.567 14.6182 120.717C15.719 119.465 16.6117 118.247 17.7124 117.274C18.444 116.635 19.471 116.342 20.3704 115.9C19.9945 116.879 19.8267 118.043 19.1891 118.792C18.2762 119.86 17.0144 120.622 15.4438 121.881C17.3768 123.636 18.7998 124.8 20.0482 126.133C20.4375 126.555 20.3502 127.433 20.4845 128.107C19.8401 127.923 19.028 127.93 18.5917 127.515C17.256 126.242 16.068 124.82 15.1015 123.759C13.5443 125.092 12.2757 126.31 10.8595 127.304C10.3225 127.678 9.42985 127.535 8.69824 127.63C8.91303 126.984 8.94658 126.154 9.37615 125.732C10.5642 124.568 11.92 123.568 13.2087 122.507C13.2557 122.098 13.3027 121.697 13.3496 121.289Z" fill="#FFA653"/>
<path d="M317.402 200.961C315.503 199.368 314.194 198.429 313.107 197.28C312.664 196.803 312.711 195.857 312.529 195.129C313.167 195.347 313.999 195.381 314.415 195.817C315.516 196.967 316.442 198.293 317.677 199.852C319.503 198.028 320.731 196.681 322.087 195.497C322.55 195.089 323.336 195.061 323.98 194.857C323.886 195.599 324.02 196.497 323.651 197.048C322.664 198.518 321.463 199.831 320.349 201.206C319.966 201.328 319.584 201.444 319.194 201.566C320.631 202.696 322.148 203.744 323.47 205.002C323.906 205.418 323.839 206.384 324 207.091C323.362 206.894 322.523 206.894 322.114 206.465C320.899 205.2 319.852 203.764 318.537 202.151C316.765 203.9 315.577 205.173 314.268 206.309C313.852 206.67 313.133 206.67 312.549 206.833C312.664 206.159 312.543 205.268 312.925 204.866C314.086 203.655 315.436 202.641 317.409 200.961H317.402Z" fill="#FFA653"/>
<path d="M191.856 261.724C190.419 262.329 188.983 262.928 187.546 263.534C186.882 262.71 185.848 261.982 185.613 261.05C185.003 258.621 184.748 256.11 184.352 253.626C185.217 253.402 186.083 253.171 186.949 252.939C187.486 255.817 188.03 258.696 188.567 261.547C189.862 261.615 190.862 261.669 191.862 261.717L191.856 261.724Z" fill="#10652F"/>
<path d="M70.8103 151.466C71.26 152.487 71.703 153.507 72.1527 154.528C69.5887 154.555 67.0247 154.582 64.4675 154.61C64.3735 154.603 64.2795 154.596 64.1788 154.61H57.8293L57.6816 153.705C58.3461 153.473 59.0039 153.045 59.6684 153.038C62.917 153.024 66.1656 153.16 69.4142 153.12C69.8236 153.12 70.2263 152.385 70.6358 151.99C70.6962 151.813 70.7566 151.643 70.8237 151.466H70.8103Z" fill="#10652F"/>
<path d="M273.996 178.996C274.338 177.043 273.835 175.492 271.982 174.56C272.875 174.56 273.761 174.56 275.338 174.56C274.828 176.254 274.412 177.622 273.996 178.996Z" fill="#EA4184"/>
<path d="M267.061 179.187C264.598 187.692 262.168 196.211 259.651 204.703C258.45 208.745 257.061 212.726 255.758 216.733C249.684 217.087 243.616 217.434 237.549 217.788C238.972 212.413 240.395 207.037 241.818 201.662C242.24 202.485 242.529 203.431 243.126 204.091C243.811 204.846 244.872 205.948 245.576 205.819C246.469 205.656 247.624 204.526 247.865 203.594C249.013 199.185 249.906 194.708 250.865 190.244C252.611 182.113 254.335 173.975 256.235 165.857C256.235 169.157 256.275 172.451 256.222 175.751C256.181 178.105 257.201 179.173 259.544 179.119C262.048 179.064 264.558 179.16 267.068 179.187H267.061Z" fill="#70B464"/>
<path d="M234.597 218.291C225.099 220.537 215.595 222.775 206.098 225.021C207.091 218.591 208.125 212.161 209.044 205.724C209.326 203.75 209.97 202.92 212.179 202.893C218.354 202.811 224.529 202.335 230.704 202.09C233.335 201.988 235.966 202.07 238.98 202.07C237.456 207.717 236.02 213.004 234.59 218.291H234.597Z" fill="#70B464"/>
<path d="M184.807 228.974C189.867 223.66 194.928 218.346 199.982 213.025C202.009 210.895 204.03 208.765 206.057 206.636C205.151 213.086 204.245 219.537 203.338 225.987C197.204 228.178 191.069 230.376 184.934 232.574C184.894 231.376 184.847 230.172 184.807 228.974Z" fill="#70B464"/>
<path d="M203.339 225.994C204.245 219.543 205.151 213.093 206.057 206.642C207.588 204.758 209.118 202.873 210.648 200.981C219.327 200.655 228.005 200.246 236.691 200.063C238.785 200.022 239.832 199.416 239.926 197.3C240.557 198.756 241.188 200.206 241.819 201.655C240.396 207.03 238.973 212.406 237.55 217.781C236.57 217.951 235.583 218.121 234.603 218.285C236.033 212.998 237.463 207.711 238.993 202.063C235.979 202.063 233.341 201.975 230.717 202.084C224.542 202.328 218.367 202.805 212.192 202.886C209.984 202.914 209.339 203.744 209.057 205.717C208.138 212.161 207.104 218.584 206.111 225.014C205.191 225.341 204.272 225.661 203.352 225.987L203.339 225.994Z" fill="#10652F"/>
<path d="M191.856 261.724C190.855 261.669 189.855 261.621 188.56 261.553C188.023 258.696 187.486 255.824 186.942 252.946C191.278 251.755 195.621 250.564 199.957 249.374C199.789 252.191 199.621 255.001 199.46 257.811C196.923 259.117 194.386 260.424 191.849 261.724H191.856Z" fill="#70B464"/>
<path d="M199.467 257.811C199.635 255.001 199.802 252.184 199.963 249.374C200.843 249.238 201.729 249.108 202.608 248.972C202.434 251.313 202.252 253.654 202.078 255.987C201.205 256.593 200.333 257.205 199.467 257.811Z" fill="#10652F"/>
<path d="M202.076 255.987C202.251 253.647 202.432 251.306 202.606 248.972C204.962 249.693 205.835 251.864 204.425 253.762C203.788 254.62 202.868 255.253 202.076 255.994V255.987Z" fill="#70B464"/>
<path d="M184.806 228.974C184.846 230.172 184.893 231.376 184.934 232.574C184.081 232.927 183.235 233.281 182.383 233.642C182.349 232.934 182.316 232.227 182.289 231.519C183.128 230.668 183.967 229.825 184.806 228.974Z" fill="#10652F"/>
<path d="M182.289 231.519C182.322 232.227 182.356 232.934 182.383 233.642C181.007 234.152 179.631 234.663 178.262 235.173C179.604 233.955 180.947 232.737 182.289 231.519Z" fill="#EEEDEB"/>
<path d="M90.7656 103.495C89.2823 106.21 87.7788 108.918 86.3357 111.654C85.8457 112.579 85.4833 113.538 84.208 112.681L84.2214 112.702C83.0401 110.143 81.8655 107.585 80.6842 105.026L80.6976 105.047C80.5231 104.7 80.3553 104.353 80.1808 104.006L80.1942 104.026C79.362 101.957 78.5364 99.889 77.7041 97.8204C83.5368 96.5004 89.3695 95.1736 95.2022 93.8535C95.2157 94.0168 95.2425 94.1733 95.2895 94.3298L95.3029 94.3094C95.1284 94.8265 94.9606 95.3437 94.7861 95.8608L94.7995 95.8404C94.625 96.0173 94.4505 96.1942 94.276 96.3643L94.2894 96.3439C94.1149 96.6909 93.9471 97.0379 93.7726 97.385L93.786 97.3645C93.6115 97.7116 93.4437 98.0586 93.2692 98.4056L93.2826 98.3852C93.1081 98.7322 92.9403 99.0792 92.7658 99.4263L92.7792 99.4059C92.6047 99.7529 92.4369 100.1 92.2624 100.447L92.2758 100.427C92.1013 100.774 91.9335 101.121 91.759 101.468L91.7724 101.447C91.5979 101.794 91.4301 102.141 91.2556 102.488L91.269 102.468C91.0945 102.815 90.9267 103.162 90.7522 103.509L90.7656 103.488V103.495Z" fill="#10652F"/>
<path d="M95.2816 94.3163C95.2346 94.1618 95.2078 94.0074 95.1943 93.8462C95.4294 93.8261 95.6644 93.8126 95.8995 93.7925C95.6913 93.9671 95.4831 94.1417 95.2816 94.3163Z" fill="#D3D6F6"/>
<path d="M45.4395 46.3318C45.6073 46.4862 45.7685 46.6407 45.9297 46.7952C45.7618 46.6407 45.6006 46.4862 45.4395 46.3318Z" fill="#FEFEFE"/>
<path d="M243.609 193.238C244.978 180.697 246.804 168.177 247.549 155.596C248.026 147.513 247.281 139.293 246.422 131.209C245.576 123.221 243.871 115.328 242.602 107.387C242.475 106.605 242.569 105.686 242.864 104.951C249.133 89.3286 256.637 74.3659 266.027 60.4101C266.296 60.0087 266.651 59.6548 267.477 58.6682C269.377 66.1598 271.404 73.0254 272.833 80.0203C275.458 92.8669 276.27 105.924 275.907 119.009C275.397 137.286 272.82 155.31 268.652 173.097C268.558 173.505 268.504 173.934 268.437 174.349C266.021 174.349 263.604 174.349 260.832 174.349C260.832 173.356 260.832 172.457 260.832 171.559C260.832 162.809 260.879 154.052 260.772 145.301C260.758 144.192 260.181 142.75 259.369 142.083C258.141 141.076 256.537 142.369 256.026 144.607C253.785 154.521 251.536 164.435 249.328 174.363C247.777 181.31 246.287 188.271 244.663 195.735C244.186 194.612 243.898 193.918 243.609 193.231V193.238Z" fill="#70B464"/>
<path d="M182.551 221.258C182.498 221.68 182.43 222.095 182.39 222.517C182.189 224.579 181.303 226.144 179.142 226.429C177.047 226.701 175.671 225.524 174.839 223.66C171.785 216.828 168.718 210.004 165.711 203.145C162.838 196.613 159.992 190.067 157.227 183.487C156.421 181.575 155.22 180.609 153.173 180.554C149.085 180.446 145.004 180.187 140.917 180.112C135.064 180.01 129.204 180.017 123.352 179.983C123.922 177.479 124.486 174.975 125.056 172.471C135.856 172.45 146.656 172.423 157.462 172.41C160.053 172.41 161.489 173.832 162.509 176.186C167.268 187.134 172.141 198.028 177.497 208.929C178.45 204.764 179.43 200.607 180.343 196.429C185.337 173.56 190.31 150.683 195.284 127.807C195.875 125.092 196.318 122.336 196.995 119.642C197.633 117.097 199.331 115.865 201.533 116.281C203.781 116.702 204.989 118.227 205.01 120.526C205.036 123.235 204.902 125.95 204.835 128.658C203.318 131.842 201.667 134.972 200.311 138.225C198.566 142.416 197.063 146.71 195.458 150.956C195.183 151.561 194.827 152.146 194.653 152.786C191.988 162.237 189.129 171.634 186.753 181.16C183.484 194.299 182.558 207.738 182.551 221.258Z" fill="#FDFAFC"/>
<path d="M238.784 104.523C240.1 110.538 241.939 116.498 242.61 122.588C243.738 132.836 244.134 143.172 244.818 153.473C244.859 154.045 244.758 154.63 244.704 155.453C240.972 156.188 237.308 156.903 233.643 157.624C233.529 154.623 233.435 151.623 233.301 148.629C232.925 140.314 229.985 132.917 225.414 126.113C225.273 125.902 225.159 125.678 225.038 125.453C226.864 118.451 228.689 111.443 230.508 104.441C233.274 104.468 236.032 104.496 238.791 104.523H238.784Z" fill="#70B464"/>
<path d="M211.037 180.024C208.359 180.065 205.681 180.153 203.01 180.126C198.083 180.078 196.976 178.921 196.969 173.961C196.969 168.844 196.969 163.72 196.553 158.549C194.68 166.844 192.814 175.145 190.921 183.44C189.089 191.482 187.243 199.518 185.397 207.554C187.008 196.796 188.196 185.943 190.371 175.301C192.056 167.055 194.975 159.073 197.345 150.969C197.734 150.139 198.123 149.309 198.499 148.472C200.513 143.988 202.52 139.497 204.533 135.013V171.573C207.352 173.247 210.534 171.232 212.594 173.321C212.541 173.675 212.494 174.022 212.44 174.376C210.655 174.376 208.863 174.41 207.077 174.369C205.513 174.335 204.157 174.601 204.003 176.513C203.842 178.534 205.238 179.166 206.849 179.336C208.258 179.486 209.688 179.405 211.111 179.425C211.084 179.629 211.051 179.833 211.024 180.031L211.037 180.024Z" fill="#70B464"/>
<path d="M239.925 197.307C239.831 199.423 238.784 200.022 236.69 200.069C228.005 200.253 219.326 200.661 210.647 200.988C215.433 194.258 220.225 187.529 225.011 180.799C224.83 180.554 224.655 180.31 224.474 180.058C221.514 180.058 218.561 180.092 215.601 180.037C214.748 180.017 213.896 179.731 213.044 179.568C213.211 179.527 213.359 179.452 213.493 179.35C219.084 179.371 224.676 179.323 230.267 179.486C231.193 179.513 232.569 180.269 232.931 181.065C235.381 186.427 237.616 191.884 239.918 197.314L239.925 197.307Z" fill="#70B464"/>
<path d="M233.039 159.672C236.805 158.944 240.564 158.209 244.738 157.406C244.752 168.102 243.101 178.35 241.678 188.624C240.08 185.099 238.322 181.643 236.939 178.037C235.926 175.403 234.556 174.151 231.576 174.308C226.576 174.566 221.548 174.396 216.535 174.376C215.662 174.376 214.783 174.233 213.91 174.158L213.756 173.335C214.635 173.042 215.501 172.525 216.387 172.498C219.978 172.389 223.575 172.362 227.166 172.464C228.583 172.505 229.334 172.015 229.724 170.695C230.811 167.013 231.932 163.346 233.046 159.672H233.039Z" fill="#70B464"/>
<path d="M214.984 115.253C219.689 108.653 224.388 102.06 229.106 95.4731C229.335 95.1533 229.744 94.9695 230.073 94.7178C230.147 94.779 230.214 94.8403 230.288 94.9015C227.751 104.101 225.207 113.307 222.67 122.507C220.106 120.091 217.548 117.669 214.984 115.253Z" fill="#70B464"/>
<path d="M79.181 169.838C74.7309 171.423 70.2943 173.056 65.4415 172.41C65.3006 170.886 65.1663 169.361 65.0254 167.837C65.0388 166.803 65.0522 165.775 65.0657 164.741C68.9787 165.245 72.8918 166.259 76.7915 164.694L79.181 169.838Z" fill="#10652F"/>
<path d="M125.056 172.471C124.486 174.975 123.922 177.479 123.351 179.983C120.928 179.983 118.512 179.99 116.089 179.996C115.525 178.819 114.968 177.649 114.411 176.472L114.425 176.485C114.941 175.247 115.451 174.002 115.968 172.763C118.995 172.668 122.029 172.566 125.056 172.471Z" fill="#10652F"/>
<path d="M76.792 164.694C72.8923 166.259 68.9792 165.238 65.0662 164.741C64.9185 163.38 64.7775 162.02 64.6299 160.659C68.2476 160.659 71.8721 160.659 75.4899 160.666C75.9261 162.006 76.3557 163.353 76.792 164.694Z" fill="#10652F"/>
<path d="M204.546 135.013C202.532 139.497 200.526 143.988 198.512 148.472C198.136 149.309 197.74 150.132 197.358 150.969C196.727 150.969 196.089 150.969 195.458 150.969C197.062 146.723 198.572 142.43 200.311 138.238C201.667 134.979 203.318 131.856 204.835 128.671C204.741 130.788 204.64 132.904 204.546 135.02V135.013Z" fill="#10652F"/>
<path d="M64.4609 154.617C67.0249 154.589 69.5889 154.562 72.1529 154.535C72.8174 154.875 73.4818 155.215 74.1463 155.556C74.2671 156.052 74.3812 156.542 74.5021 157.039C74.6967 157.91 74.8914 158.774 75.086 159.645C71.6025 159.645 68.1123 159.645 64.6287 159.645C64.575 157.971 64.5146 156.29 64.4609 154.617Z" fill="#10652F"/>
<path d="M109.136 180.493C108.734 179.915 108.331 179.337 107.922 178.765C107.828 177.996 107.734 177.221 107.64 176.445C109.902 176.458 112.157 176.472 114.419 176.492L114.405 176.479C114.741 177.642 115.077 178.813 115.412 179.976C113.318 180.153 111.224 180.323 109.13 180.5L109.136 180.493Z" fill="#10652F"/>
<path d="M114.426 176.485C112.164 176.472 109.908 176.458 107.646 176.438C107.707 176.132 107.774 175.819 107.834 175.512C109.553 175.512 111.271 175.512 113.164 175.512C112.801 174.369 112.56 173.58 112.311 172.791C113.533 172.777 114.754 172.77 115.976 172.757C115.459 174.002 114.949 175.24 114.432 176.479L114.426 176.485Z" fill="#EFF6FF"/>
<path d="M112.303 172.798C112.551 173.587 112.8 174.369 113.155 175.519C111.263 175.519 109.544 175.519 107.826 175.519C108.403 173.07 109.994 172.335 112.296 172.798H112.303Z" fill="#10652F"/>
<path d="M64.6299 159.638C68.1134 159.638 71.6036 159.638 75.0871 159.638C75.2214 159.978 75.3556 160.318 75.4966 160.665C71.8788 160.665 68.2544 160.665 64.6366 160.659C64.6366 160.318 64.6366 159.985 64.6366 159.645L64.6299 159.638Z" fill="#10652F"/>
<path d="M213.502 179.336C213.367 179.444 213.22 179.511 213.052 179.551C212.381 179.706 211.709 179.853 211.045 180.008C211.072 179.806 211.105 179.605 211.132 179.41C211.924 179.383 212.709 179.363 213.502 179.336Z" fill="#EA4184"/>
<path d="M74.5024 157.032C74.3815 156.535 74.2674 156.045 74.1465 155.548C74.2741 155.548 74.4084 155.548 74.536 155.542C74.5226 156.038 74.5091 156.535 74.5024 157.032Z" fill="#A2A9EE"/>
<path d="M114.526 216.937C112.936 221.938 113.64 224.225 118.11 228.171C115.916 233.193 111.949 236.003 106.754 236.99C101.398 238.01 96.5382 236.738 92.4707 233.091C95.9072 231.417 99.3236 230.029 102.451 228.158C106.613 225.674 109.841 222.109 112.378 217.924C112.768 217.284 113.298 216.733 113.761 216.141C114.016 216.406 114.264 216.672 114.52 216.937H114.526Z" fill="#FCFCFD"/>
<path d="M195.458 150.962C196.089 150.962 196.727 150.962 197.358 150.962C194.988 159.066 192.068 167.048 190.384 175.295C188.209 185.937 187.021 196.79 185.41 207.547C184.457 212.113 183.511 216.686 182.558 221.251C182.558 207.731 183.484 194.292 186.759 181.153C189.129 171.627 191.995 162.23 194.659 152.779C194.841 152.146 195.196 151.561 195.465 150.949L195.458 150.962Z" fill="#10652F"/>
<path d="M115.426 179.969C115.09 178.806 114.755 177.635 114.419 176.472C114.976 177.649 115.54 178.819 116.097 179.997C115.875 179.99 115.647 179.983 115.426 179.976V179.969Z" fill="#EFF6FF"/>
<path d="M91.6104 116.805C96.3087 113.028 101.45 110.164 107.35 108.837C107.35 111.347 107.35 113.865 107.35 116.805H91.6104Z" fill="#EA3D81"/>
<path d="M64.6293 159.638C64.6293 159.978 64.6293 160.312 64.6293 160.652C64.7769 162.013 64.9179 163.374 65.0655 164.734C65.0521 165.769 65.0387 166.796 65.0253 167.83C64.891 167.817 64.7501 167.803 64.6158 167.796C64.4682 163.394 64.3205 158.998 64.1729 154.596C64.2668 154.596 64.3675 154.596 64.4615 154.596C64.5152 156.27 64.5689 157.95 64.6293 159.624V159.638Z" fill="#D3D6F6"/>
<path d="M64.6166 167.803C64.7508 167.803 64.8918 167.817 65.026 167.837C65.167 169.361 65.3012 170.886 65.4421 172.417C65.4757 172.587 65.5026 172.757 65.5361 172.927C66.2342 173.437 66.9322 173.941 67.6235 174.451C67.2879 174.648 66.9523 174.853 66.6167 175.05C66.0127 174.818 65.3415 174.689 64.8179 174.329C64.4152 174.056 63.9185 173.478 63.9454 173.077C64.0729 171.314 64.3749 169.566 64.6099 167.81L64.6166 167.803Z" fill="#EEEDEB"/>
<path d="M49.4922 166.286C50.3245 166.626 51.1568 166.966 51.9823 167.306L52.0025 167.279C51.1702 166.946 50.3379 166.606 49.5056 166.272L49.4922 166.286Z" fill="#EEEDEB"/>
<path d="M50.0037 168.181C49.9433 168.161 49.8828 168.141 49.8291 168.121C49.8963 168.06 49.9634 167.993 50.0373 167.946C50.0507 167.939 50.1246 168.033 50.1716 168.073C50.1179 168.107 50.0641 168.147 50.0104 168.181H50.0037Z" fill="#EEEDEB"/>
<path d="M42.2768 162.461L42.1357 162.501L42.1492 162.38L42.2768 162.461Z" fill="#D3D6F6"/>
<path d="M46.2251 164.394L46.2788 164.522L46.1445 164.501L46.2251 164.394Z" fill="#D3D6F6"/>
<path d="M45.3051 163.985L45.1641 164.032L45.1775 163.904L45.3051 163.985Z" fill="#D3D6F6"/>
<path d="M43.1968 162.863L43.2505 162.998L43.1162 162.977L43.1968 162.863Z" fill="#D3D6F6"/>
<path d="M41.1574 162.025L41.1104 161.897L41.2447 161.917L41.1574 162.025Z" fill="#D3D6F6"/>
<path d="M61.709 172.117L61.8702 172.076L61.85 172.204L61.709 172.117Z" fill="#EEEDEB"/>
<path d="M60.7021 171.613L60.8633 171.566L60.8432 171.694L60.7021 171.613Z" fill="#EEEDEB"/>
<path d="M44.2972 163.475L44.1494 163.522L44.1696 163.401L44.2972 163.475Z" fill="#D3D6F6"/>
<path d="M62.9444 172.66L62.7832 172.707L62.7966 172.573L62.9444 172.66Z" fill="#EEEDEB"/>
<path d="M84.4229 222.108C85.2149 224.871 85.9666 227.525 86.9264 230.879C83.8121 230.512 80.993 230.478 78.3217 229.818C60.3671 225.341 51.3328 204.778 59.5483 187.985C66.2938 174.192 83.4161 168.313 96.3501 174.015C116.781 183.024 119.694 208.085 106.384 221.829C102.518 225.824 98.0683 228.552 92.6987 229.906C90.4301 230.478 89.1951 229.661 88.3494 227.702C88.148 227.239 87.9802 226.756 87.8258 226.273C86.5506 222.428 86.6848 222.17 90.5308 221.033C98.1153 218.788 103.122 212.331 103.304 204.363C103.404 199.777 103.364 195.184 103.27 190.591C103.176 185.896 99.9141 182.732 95.2828 182.541C94.1418 182.494 93.0075 182.01 91.8664 181.99C91.1281 181.976 90.2354 182.262 89.6985 182.752C89.3763 183.045 89.3427 184.229 89.6448 184.548C90.1415 185.072 91.014 185.447 91.7456 185.481C92.8867 185.535 94.0478 185.134 95.2023 185.147C98.5583 185.195 100.746 187.25 100.827 190.666C100.948 195.762 101.035 200.872 100.793 205.962C100.478 212.684 93.9807 219.094 87.5171 219.414C79.1405 219.822 72.1735 214.93 71.2003 207.187C70.4955 201.58 70.5962 195.83 70.7304 190.155C70.8177 186.392 74.1938 184.399 78.268 185.208C78.8385 185.324 79.5298 185.807 79.9258 185.617C80.7514 185.215 81.4226 184.48 82.1542 183.882C81.3823 183.208 80.6373 182.004 79.8386 181.963C78.0532 181.868 76.2409 182.385 74.4354 182.602C70.9653 183.018 68.3141 186.005 68.247 190.421C68.153 196.272 67.9986 202.192 68.7504 207.962C69.6028 214.481 73.9924 218.577 79.9795 220.85C81.4495 221.408 83.0133 221.721 84.4161 222.115L84.4229 222.108Z" fill="#FFA653"/>
<path d="M116.399 220.666C116.432 217.699 118.553 215.685 121.574 215.753C124.285 215.815 126.554 218.142 126.473 220.782C126.386 223.558 123.99 225.953 121.298 225.96C118.506 225.96 116.372 223.653 116.399 220.666ZM121.439 224.517C123.822 224.504 125.104 223.177 125.084 220.727C125.071 218.516 123.453 216.801 121.386 216.808C119.285 216.815 117.493 218.543 117.459 220.598C117.426 222.782 119.198 224.531 121.433 224.517H121.439Z" fill="#FFA653"/>
<path d="M67.6294 174.444C66.9314 173.934 66.2333 173.43 65.542 172.92C66.9179 172.92 68.2872 172.92 69.6631 172.92C69.7236 173.09 69.784 173.26 69.8511 173.43L67.6361 174.438L67.6294 174.444Z" fill="#10652F"/>
<path d="M238.784 104.523C236.025 104.496 233.26 104.468 230.501 104.441C231.77 100.107 233.038 95.7724 234.307 91.4312C234.649 91.4176 234.998 91.4108 235.34 91.3972C236.488 95.7724 237.636 100.148 238.79 104.523H238.784Z" fill="#70B464"/>
<path d="M230.073 94.7036C230.221 94.5223 230.369 94.341 230.516 94.1597C230.436 94.4014 230.362 94.6432 230.281 94.8849C230.207 94.8245 230.14 94.7641 230.066 94.7036H230.073Z" fill="#F2F1EE"/>
<path d="M313.804 28.3144C313.764 42.5219 302.73 53.5654 288.621 53.5177C274.64 53.4701 263.827 42.2838 263.867 27.8994C263.901 13.9096 275.002 2.90021 289.031 2.94103C302.884 2.98866 313.845 14.209 313.804 28.3144ZM288.836 41.2903C293.024 41.2903 297.212 41.3243 301.401 41.2767C305.092 41.2359 307.703 38.6502 307.757 34.9283C307.824 30.3421 307.817 25.756 307.757 21.1767C307.717 17.7065 305.018 14.7738 301.609 14.733C293.064 14.6377 284.527 14.6445 275.982 14.733C273.09 14.7602 270.15 17.237 270.029 19.9859C269.801 25.3069 269.754 30.6551 270.015 35.9693C270.177 39.181 272.808 41.2359 276.016 41.2767C280.285 41.3312 284.56 41.2903 288.829 41.2971L288.836 41.2903ZM288.977 10.0924C286.889 10.0924 284.789 9.97673 282.721 10.1604C282.037 10.2217 281.426 11.0654 280.781 11.5485C281.426 12.0657 282.05 13.0115 282.708 13.0387C286.795 13.1748 290.89 13.1748 294.977 13.0319C295.568 13.0115 296.125 11.984 296.696 11.4192C296.125 10.977 295.581 10.2081 294.984 10.1604C292.991 9.99714 290.977 10.0992 288.977 10.0992V10.0924Z" fill="#FFA653"/>
<path d="M92.8326 30.2602C93.1279 43.3789 83.0264 55.9193 67.7432 55.8309C51.715 55.7424 42.5867 43.2973 42.4726 30.3758C42.3518 16.2908 53.7756 4.90716 67.7835 4.93437C81.825 4.96159 92.8192 16.0731 92.8326 30.2602ZM74.0189 30.716C74.3277 30.4507 74.6364 30.1785 74.9452 29.9131C75.4553 29.1919 75.8647 28.3481 76.5024 27.7766C77.2407 27.1097 78.1938 26.6879 79.0462 26.1503C80.3282 25.3474 81.637 24.5853 82.8787 23.7212C85.5837 21.85 86.4495 18.5771 84.9863 15.9098C83.3754 12.9703 80.0463 11.9088 77.0058 13.4874C75.0727 14.4877 73.2336 15.692 71.3476 16.7807C70.7771 17.1142 70.1193 17.6857 69.5756 17.6109C66.5015 17.2094 67.4076 18.9105 68.1997 20.3122C69.777 23.1088 71.5221 25.8101 73.1531 28.5795C73.5357 29.2327 73.737 30.0016 74.0189 30.716ZM55.6483 35.9078C52.9702 37.9219 51.6479 40.5415 51.5539 43.7328C51.4801 46.298 53.1581 47.9242 55.5476 47.9242C57.9505 47.9242 59.5815 46.3116 59.5345 43.7328C59.4741 40.6096 58.031 38.1192 55.655 35.9078H55.6483ZM66.9647 20.251C63.7295 22.265 60.6084 24.0546 57.6618 26.0959C55.5409 27.5656 54.7958 30.961 55.8429 32.9479C56.8296 34.8191 60.2258 36.4045 62.179 35.411C65.6558 33.6555 68.9447 31.5122 72.4886 29.4232C70.5488 26.2048 68.8239 23.3333 66.9647 20.2442V20.251Z" fill="#FFA653"/>
<path d="M94.2754 96.3574C94.45 96.1828 94.6246 96.0082 94.7992 95.8403C94.6246 96.0149 94.45 96.1895 94.2754 96.3574Z" fill="#D3D6F6"/>
<path d="M17.7265 254.082C17.7802 251.217 20.0757 249.033 22.9752 249.088C25.895 249.142 28.4187 251.667 28.2844 254.409C28.1502 257.144 25.6802 259.607 23.0424 259.628C20.0488 259.655 17.6728 257.171 17.7265 254.075V254.082Z" fill="#EFF6FF"/>
<path d="M313.864 106.598C311.394 106.605 309.22 104.509 309.273 102.162C309.327 99.7597 311.253 97.8885 313.697 97.8613C316.187 97.8272 318.288 99.8753 318.247 102.304C318.207 104.693 316.267 106.591 313.864 106.598Z" fill="#EFF6FF"/>
<path d="M121.439 224.517C119.204 224.531 117.425 222.782 117.466 220.598C117.499 218.55 119.291 216.822 121.392 216.808C123.453 216.801 125.07 218.516 125.09 220.727C125.104 223.177 123.828 224.504 121.446 224.517H121.439Z" fill="#0C2C7E"/>
<path d="M288.836 41.2899C284.567 41.2899 280.292 41.3239 276.023 41.2763C272.815 41.2354 270.177 39.1805 270.022 35.9689C269.761 30.6547 269.808 25.3064 270.036 19.9854C270.15 17.2365 273.097 14.7665 275.989 14.7325C284.534 14.644 293.078 14.6372 301.616 14.7325C305.025 14.7733 307.724 17.706 307.764 21.1762C307.818 25.7623 307.824 30.3485 307.764 34.9278C307.71 38.6498 305.099 41.2354 301.408 41.2763C297.219 41.3239 293.031 41.2899 288.843 41.2831L288.836 41.2899ZM288.903 39.7861C292.93 39.7861 296.958 39.8201 300.978 39.7725C304.294 39.7317 306.2 37.9149 306.26 34.642C306.334 30.3076 306.348 25.9665 306.254 21.6321C306.18 18.2435 304.173 16.2499 300.844 16.2294C292.877 16.175 284.91 16.1818 276.943 16.2294C273.472 16.2499 271.479 18.2435 271.412 21.775C271.331 26.0277 271.345 30.2804 271.412 34.5263C271.466 37.8605 273.318 39.7317 276.573 39.7793C280.681 39.8337 284.796 39.7929 288.903 39.7929V39.7861Z" fill="#0C2C7E"/>
<path d="M288.977 10.0921C290.983 10.0921 292.99 9.98999 294.984 10.1533C295.581 10.2009 296.125 10.9766 296.695 11.4121C296.125 11.9769 295.568 13.0043 294.977 13.0247C290.89 13.1676 286.795 13.1744 282.708 13.0315C282.05 13.0111 281.426 12.0653 280.781 11.5414C281.426 11.0583 282.036 10.2077 282.721 10.1533C284.795 9.96958 286.889 10.0853 288.977 10.0853V10.0921Z" fill="#0C2C7E"/>
<path d="M74.0182 30.7159C73.7363 30.0015 73.535 29.2326 73.1524 28.5794C71.5214 25.81 69.7762 23.1087 68.1989 20.3121C67.4069 18.9104 66.5008 17.2093 69.5749 17.6107C70.1253 17.6856 70.7763 17.1072 71.3468 16.7806C73.2396 15.6919 75.072 14.4944 77.005 13.4873C80.0456 11.9087 83.3747 12.9702 84.9856 15.9097C86.4488 18.5702 85.583 21.8499 82.878 23.7211C81.6363 24.5784 80.3275 25.3473 79.0455 26.1502C78.1931 26.6877 77.24 27.1096 76.5016 27.7764C75.864 28.348 75.4546 29.1917 74.9445 29.913C74.6357 30.1784 74.327 30.4506 74.0182 30.7159Z" fill="#0C2C7E"/>
<path d="M55.6483 35.908C58.0243 38.1194 59.4674 40.6098 59.5278 43.733C59.5815 46.3118 57.9438 47.9312 55.5409 47.9244C53.1514 47.9244 51.4734 46.2982 51.5473 43.733C51.6412 40.5417 52.9635 37.922 55.6416 35.908H55.6483ZM55.0711 40.3852C54.7959 40.3852 54.514 40.3988 54.2388 40.4056C52.4467 43.2567 52.5541 44.5019 55.3462 45.992C55.2456 43.869 55.1583 42.1271 55.0711 40.392V40.3852Z" fill="#0C2C7E"/>
<path d="M66.9639 20.251C68.8231 23.3333 70.5548 26.2116 72.4879 29.43C68.9439 31.519 65.6618 33.6623 62.1783 35.4179C60.2184 36.4045 56.8288 34.8259 55.8422 32.9547C54.7951 30.9678 55.5334 27.5725 57.6611 26.1027C60.6144 24.0614 63.7287 22.2719 66.9639 20.2578V20.251ZM66.5813 21.9521C63.7354 23.7212 61.1446 25.2386 58.6612 26.9056C56.9765 28.0351 56.2784 31.0086 57.2852 32.5464C58.5605 34.4721 60.5808 34.7646 62.393 33.8937C65.2188 32.526 67.8365 30.7229 70.736 28.9946C69.3198 26.5994 68.0512 24.4561 66.5746 21.9589L66.5813 21.9521Z" fill="#0C2C7E"/>
<path d="M288.902 39.7862C284.795 39.7862 280.68 39.827 276.572 39.7726C273.31 39.7249 271.458 37.8538 271.411 34.5196C271.344 30.2669 271.33 26.0142 271.411 21.7683C271.478 18.2436 273.472 16.2431 276.942 16.2227C284.909 16.1751 292.876 16.1751 300.843 16.2227C304.172 16.2431 306.172 18.2368 306.253 21.6254C306.347 25.9598 306.34 30.3009 306.26 34.6353C306.199 37.915 304.293 39.7318 300.977 39.7658C296.95 39.8134 292.923 39.7794 288.902 39.7794V39.7862ZM296.708 28.1099C296.708 23.5646 293.238 19.8903 288.902 19.8495C284.728 19.8086 280.835 23.6735 280.774 27.9194C280.707 32.5532 284.238 36.1527 288.842 36.1459C293.42 36.1459 296.708 32.7845 296.708 28.1099Z" fill="#FFA653"/>
<path d="M55.071 40.385C55.1583 42.1269 55.2388 43.862 55.3462 45.985C52.554 44.4948 52.4467 43.2564 54.2388 40.3986C54.5139 40.3986 54.7958 40.385 55.071 40.3782V40.385Z" fill="#FFA653"/>
<path d="M66.5824 21.9519C68.059 24.4491 69.3276 26.5924 70.7438 28.9876C67.8442 30.7159 65.2266 32.5258 62.4008 33.8867C60.5886 34.7577 58.5616 34.4719 57.293 32.5394C56.2795 31.0085 56.9776 28.0282 58.669 26.8986C61.1524 25.2316 63.7365 23.7142 66.5891 21.9451L66.5824 21.9519Z" fill="#FFA653"/>
<path d="M296.709 28.1102C296.709 32.7847 293.42 36.1393 288.842 36.1461C284.238 36.1461 280.707 32.5534 280.774 27.9196C280.835 23.6737 284.728 19.8089 288.903 19.8497C293.232 19.8905 296.702 23.5717 296.709 28.1102ZM288.815 21.3194C284.916 21.3194 282.03 24.2793 282.063 28.2326C282.09 31.8049 285.312 35.0234 288.849 35.0234C292.379 35.0234 295.601 31.7845 295.635 28.219C295.668 24.3882 292.634 21.3194 288.822 21.3262L288.815 21.3194Z" fill="#0C2C7E"/>
<path d="M288.817 21.3193C292.629 21.3193 295.663 24.3881 295.63 28.2121C295.596 31.7776 292.374 35.0165 288.844 35.0165C285.306 35.0165 282.085 31.798 282.058 28.2257C282.024 24.2724 284.91 21.3193 288.81 21.3125L288.817 21.3193ZM289.555 24.5514C289.542 24.286 289.528 24.0138 289.508 23.7485C288.857 24.0751 288.092 24.286 287.582 24.7691C286.823 25.4836 286.239 26.3953 285.575 27.2187C285.38 27.1234 285.192 27.0213 284.998 26.9261C285.045 27.7222 285.085 28.5183 285.105 28.8109C286.166 29.5662 287.34 29.9744 287.394 30.512C287.595 32.4036 288.616 32.1654 289.522 31.5122C290.434 30.5936 291.347 29.6818 292.636 28.3822C292.636 28.3142 292.602 27.5793 292.602 27.6065C291.28 26.2797 290.414 25.4155 289.548 24.5514H289.555Z" fill="#FFA653"/>
<path d="M289.555 24.5514C290.42 25.4156 291.286 26.2798 292.609 27.6066C292.609 27.5794 292.642 28.3142 292.642 28.3823C291.353 29.6751 290.441 30.5937 289.528 31.5123C288.622 32.1655 287.601 32.4037 287.4 30.5121C287.34 29.9745 286.165 29.5594 285.111 28.811C285.098 28.5184 285.051 27.7223 285.004 26.9262C285.199 27.0214 285.386 27.1235 285.581 27.2188C286.239 26.3954 286.823 25.4836 287.588 24.7692C288.098 24.2861 288.863 24.0819 289.514 23.7485C289.528 24.0139 289.541 24.2861 289.561 24.5514H289.555Z" fill="#0C2C7E"/>
</svg>
