<svg width="271" height="296" viewBox="0 0 271 296" fill="none" xmlns="http://www.w3.org/2000/svg">
<path d="M256.141 187.653C257.395 193.604 258.954 199.509 259.852 205.511C261.88 219.086 263.733 232.691 265.375 246.316C267.062 260.376 268.415 274.471 269.901 288.551C270.133 290.745 270.288 292.949 270.5 295.39C248.771 294.869 227.243 294.352 205.555 293.831C204.523 286.812 203.496 279.942 202.505 273.072C200.905 261.94 199.336 250.807 197.721 239.674C197.628 239.029 197.354 238.358 196.988 237.816C195.078 234.982 193.117 232.19 191.171 229.382C190.309 226.688 189.447 223.989 188.58 221.295C188.549 220.355 188.477 219.411 188.503 218.471C188.585 214.962 188.781 211.504 185.829 208.748C183.238 206.327 180.89 203.643 178.438 201.078C177.752 199.906 177.143 198.683 176.363 197.579C171.47 190.621 166.521 183.7 164.389 175.272C163.687 172.5 163.734 169.806 165.891 167.555C168.105 167.323 170.335 166.848 172.539 166.926C174.531 166.998 176.508 167.674 178.49 168.082C181.323 169.687 184.162 171.292 186.996 172.892C187.223 172.665 187.445 172.438 187.672 172.211C184.668 167.034 181.659 161.863 178.655 156.686C177.829 154.9 177.076 153.078 176.172 151.328C169.669 138.694 163.775 125.832 161.169 111.726C161.143 111.194 161.112 110.663 161.086 110.126C161.096 109.352 161.086 108.583 161.127 107.809C161.401 102.833 164.73 100.836 169.282 102.978C170.505 103.55 171.687 104.294 172.735 105.15C174.712 106.761 176.575 108.51 178.49 110.203C181.783 114.642 185.076 119.076 188.374 123.514C191.589 129.248 194.799 134.983 198.108 140.882C203.512 136.959 208.554 136.722 213.184 141.775C213.282 142.358 213.251 143.003 213.499 143.519C215.806 148.386 218.154 153.233 220.513 158.074C220.611 158.275 220.941 158.363 221.824 158.926C220.673 156.392 219.826 154.559 219.006 152.717C217.375 149.057 215.764 145.388 214.144 141.723C216.59 139.581 220.786 139.117 223.491 141.341C226.061 143.457 228.1 146.224 230.371 148.706C230.701 149.924 230.887 151.205 231.388 152.345C233.148 156.355 235.021 160.324 236.848 164.304C237.039 164.216 237.23 164.128 237.416 164.035C235.382 159.003 233.349 153.971 231.315 148.939C233.953 150.234 237.013 151.044 239.14 152.918C244.26 157.429 247.382 163.463 249.844 169.733C252.157 175.622 254.066 181.666 256.157 187.643L256.141 187.653ZM202.939 150.487C203.579 152.139 204.219 153.79 204.859 155.442C205.153 155.297 205.442 155.153 205.736 155.008C204.802 153.501 203.873 151.999 202.939 150.492C201.566 147.509 200.193 144.521 198.815 141.537C198.49 141.708 198.165 141.878 197.845 142.048C199.543 144.861 201.241 147.679 202.939 150.492V150.487ZM198.696 187.746C199.042 188.391 199.388 189.031 199.728 189.677C199.93 189.511 200.136 189.341 200.337 189.176C199.847 188.655 199.352 188.133 198.861 187.612C195.537 182.951 192.214 178.286 188.895 173.625C188.616 173.837 188.332 174.048 188.054 174.26C190.118 177.047 192.136 179.865 194.263 182.601C195.656 184.386 197.21 186.043 198.696 187.751V187.746ZM163.729 107.607C163.357 107.741 162.985 107.876 162.614 108.01C163.894 111.07 164.967 114.234 166.495 117.161C168.513 121.016 170.118 121.455 173.984 119.468C175.372 118.75 176.503 117.532 177.757 116.541C177.55 116.319 177.349 116.098 177.143 115.876C176.812 116.118 176.467 116.34 176.152 116.598C171.326 120.572 169.272 120.175 166.629 114.601C165.55 112.325 164.689 109.945 163.729 107.612V107.607ZM167.568 175.855C167.295 175.994 167.021 176.133 166.748 176.273C167.863 179.06 168.895 181.966 171.403 183.901C173.762 185.723 177.891 184.407 179.568 181.088C178.443 181.666 177.726 182.028 177.014 182.41C173.359 184.361 172.012 183.942 170.005 180.252C169.205 178.781 168.384 177.321 167.574 175.855H167.568Z" fill="#F89885"/>
<path d="M96.1726 238.74C94.7636 246.936 93.3804 255.137 91.9455 263.328C90.1804 273.398 88.3739 283.457 86.552 293.707H17.8193C18.5316 287.359 19.249 281.005 19.9561 274.652C21.0967 264.417 22.2167 254.177 23.3832 243.942C24.5032 234.157 25.7006 224.376 26.8154 214.585C27.9199 204.877 28.9728 195.163 30.0464 185.455C30.5728 180.686 31.1045 175.912 31.6309 171.143C34.547 158.312 43.0218 148.474 49.6799 137.661C49.8296 149.156 49.8089 160.66 50.2166 172.149C50.3818 176.841 48.9263 181.088 47.9921 185.501C46.6244 189.522 45.2515 193.548 43.8838 197.568C44.1934 197.661 44.5031 197.754 44.8128 197.852C46.0515 193.914 47.285 189.971 48.5238 186.033C50.8257 177.491 54.1805 169.46 59.9508 162.611C66.9959 157.021 72.6372 158.028 74.9391 166.487C74.9546 166.745 74.9753 166.998 74.9908 167.256C75.1146 167.685 75.2385 168.118 75.3624 168.546C75.2075 173.501 75.1972 178.466 74.8514 183.406C74.5675 187.488 73.8811 191.54 73.3701 195.602C73.3701 195.793 73.365 195.984 73.3598 196.175C72.3327 200.02 71.3985 203.891 70.2372 207.695C69.5301 210.012 69.9224 211.659 71.8372 213.259C73.0243 214.255 73.9069 215.767 74.5572 217.212C75.8424 220.061 76.8695 223.019 78.0049 225.935C78.2011 229.186 78.5933 232.438 78.5366 235.684C78.4953 237.981 79.2953 238.698 81.4836 238.668C86.3765 238.6 91.2746 238.704 96.1675 238.735L96.1726 238.74ZM54.6708 177.883C56.5082 178.848 57.7831 179.607 59.125 180.211C65.654 183.163 68.8282 181.62 70.0927 174.724C70.5779 172.077 70.6295 169.346 70.8772 166.652C70.485 166.606 70.0927 166.559 69.7005 166.518C69.5663 167.174 69.3959 167.824 69.3082 168.485C68.9314 171.272 68.6166 174.064 68.214 176.846C67.9095 178.941 66.9959 180.454 64.5082 179.958C61.4992 179.359 58.5057 178.694 54.6708 177.878V177.883ZM77.9224 239.091C76.663 245.109 75.4088 251.127 74.1495 257.145C76.1159 255.524 78.614 243.581 77.9224 239.091Z" fill="#F89885"/>
<path d="M213.175 141.785C208.545 136.732 203.502 136.97 198.098 140.892C194.79 134.988 191.575 129.254 188.364 123.525C188.406 91.633 188.468 59.7415 188.468 27.85C188.468 22.921 184.689 18.3223 179.812 17.3572C177.577 16.9133 175.219 16.9855 172.917 16.9804C146.269 16.9597 119.621 16.9701 92.9685 16.9597C92.1117 16.9597 91.2601 16.8668 90.4033 16.8152C96.6123 13.9714 102.667 10.6888 109.072 8.39202C116.617 5.68751 124.349 3.22043 132.204 1.73914C147.286 -1.10472 162.29 -0.955043 176.545 5.94558C185.536 10.3017 192.369 16.8875 197.066 25.7029C197.422 26.3739 197.871 26.9984 198.279 27.6436C198.295 35.7313 198.31 43.819 198.32 51.9067C198.475 54.8899 198.713 57.8732 198.759 60.8615C198.78 62.3325 199.322 62.8073 200.741 62.7764C203.915 62.7041 207.095 62.7557 210.269 62.7557C210.573 64.2989 210.873 65.8473 211.177 67.3905C211.564 68.5054 211.776 69.7338 212.385 70.7144C213.252 72.1131 213.087 73.037 211.998 74.2757C208.731 77.9866 205.789 81.9969 202.393 85.584C200.602 87.4782 200.664 88.624 202.656 89.9763C203.275 90.3943 203.91 90.7918 204.648 91.2718C208.617 86.9105 212.514 82.7247 216.276 78.4202C217.438 77.0886 218.496 76.7066 219.967 77.7182C220.153 77.8886 220.333 78.0537 220.519 78.2241L220.504 78.1828C223.249 82.0692 225.928 86.0124 228.762 89.8369C236.24 99.9479 244.147 109.759 251.187 120.159C257.809 129.945 261.076 141.145 262.325 152.913C263.198 161.14 263.296 169.341 261.195 177.393C260.426 180.355 259.089 183.179 257.871 186.007C257.582 186.678 256.731 187.106 256.137 187.643C254.052 181.666 252.137 175.622 249.825 169.733C247.363 163.462 244.24 157.429 239.12 152.918C236.994 151.044 233.933 150.234 231.296 148.939C230.981 148.861 230.666 148.784 230.351 148.706C228.08 146.224 226.042 143.463 223.471 141.341C220.767 139.117 216.576 139.581 214.129 141.723C213.809 141.739 213.489 141.759 213.169 141.775L213.175 141.785ZM226.986 112.934C228.054 121.904 233.541 129.109 239.487 128.588C238.212 127.865 237.365 127.385 236.514 126.905C232.106 124.417 228.937 121.021 228.431 115.726C228.251 113.811 228.534 112.448 230.903 111.757C233.03 111.137 234.929 109.615 236.798 108.309C237.242 107.999 237.531 106.688 237.252 106.312C236.844 105.759 235.817 105.305 235.125 105.393C232.225 105.744 230.005 107.328 228.643 109.894C227.962 111.179 227.187 111.855 225.685 111.824C219.182 111.69 212.679 111.623 206.176 111.53C205.417 111.519 204.658 111.53 203.905 111.53C203.905 111.783 203.905 112.041 203.9 112.294C211.544 113.775 219.265 113.532 226.986 112.939V112.934Z" fill="#FFDAB9"/>
<path d="M90.4077 16.8203C91.2644 16.872 92.1161 16.9649 92.9728 16.9649C119.62 16.97 146.268 16.9649 172.921 16.9855C175.223 16.9855 177.582 16.9184 179.816 17.3623C184.694 18.3274 188.472 22.9261 188.472 27.8551C188.472 59.7467 188.41 91.6382 188.369 123.53C185.076 119.091 181.783 114.657 178.485 110.219C178.521 86.4098 178.598 62.606 178.557 38.797C178.547 34.379 175.77 32.1803 171.533 32.2061C147.801 32.3506 124.07 32.268 100.338 32.2732C89.2464 32.2732 78.1548 32.2784 67.0632 32.3093C62.5987 32.3196 60.2142 34.3377 59.9458 38.3016C59.8633 39.499 59.8994 40.7067 59.8994 41.9093C59.8994 70.2808 59.8891 98.6575 59.8994 127.029C59.8994 138.89 59.9407 150.75 59.9665 162.611C54.1962 169.46 50.8414 177.491 48.5394 186.033C48.3639 185.857 48.1833 185.677 48.0078 185.501C48.942 181.088 50.3975 176.84 50.2323 172.149C49.8246 160.66 49.8452 149.161 49.6955 137.661C49.7059 107.344 49.7214 77.0266 49.7265 46.7041C49.7265 46.3635 49.6491 46.0228 49.6078 45.6873C49.6594 40.3661 49.711 35.05 49.7523 29.7287C49.8143 21.6565 54.5059 17.0113 62.6091 16.9752C71.8787 16.9339 81.1483 16.872 90.4128 16.8152L90.4077 16.8203ZM125.7 27.2048V27.1945C129.055 27.1945 132.42 27.3597 135.749 27.0861C136.673 27.0087 137.494 25.6255 138.356 24.841C137.515 24.041 136.694 22.5752 135.832 22.5494C129.303 22.3532 122.769 22.4203 116.235 22.4461C114.655 22.4513 113.546 23.1842 113.618 24.9287C113.69 26.6577 114.826 27.2203 116.41 27.21C119.507 27.1893 122.599 27.2048 125.695 27.2048H125.7ZM106.671 22.0487L105.566 22.0848C104.978 23.019 103.832 24.041 103.956 24.8668C104.085 25.7339 105.442 27.0293 106.248 27.019C107.027 27.0087 108.312 25.6255 108.4 24.7481C108.482 23.9119 107.301 22.9571 106.676 22.0487H106.671Z" fill="#0C2C7E"/>
<path d="M49.5971 45.6873C49.6384 46.0279 49.7158 46.3685 49.7158 46.704C49.7107 77.0213 49.6952 107.339 49.6849 137.661C43.0268 148.474 34.552 158.311 31.6359 171.142C29.0656 169.847 26.3353 168.789 23.9508 167.209C14.3353 160.84 7.19726 152.386 3.11986 141.506C0.482447 134.461 -0.0491642 127.148 1.01406 119.767C1.7676 114.539 2.56244 109.269 3.99211 104.201C7.31597 92.4019 13.4476 82.0226 21.0759 72.5001C22.0824 71.2407 23.2591 70.1207 24.3585 68.9388C25.6643 72.4175 27.7236 73.9349 30.2991 73.2794C32.6578 72.6756 33.9946 71.1272 34.1339 68.7065C34.2733 66.353 32.5752 64.6033 29.494 63.7001C34.8617 58.7195 40.2139 53.7234 45.6178 48.7789C46.8513 47.6485 48.2655 46.7143 49.5971 45.6873ZM29.4217 121.785C31.9404 121.749 34.1236 119.519 34.1339 116.964C34.1443 114.43 31.9404 112.252 29.3598 112.247C26.7843 112.247 24.5391 114.394 24.503 116.903C24.4669 119.54 26.7637 121.821 29.4217 121.785ZM34.1339 92.7426C34.103 90.2084 31.8217 88.0149 29.272 88.0613C26.743 88.1078 24.4359 90.42 24.4875 92.8613C24.5443 95.38 26.8153 97.5426 29.3856 97.5271C31.9559 97.5064 34.1649 95.2819 34.1339 92.7426Z" fill="#FFDAB9"/>
<path d="M179.048 269.46C178.057 276.907 177.056 284.355 176.09 291.808C175.91 293.181 175.419 293.981 173.835 293.976C151.043 293.939 128.245 293.945 105.453 293.929C105.211 293.929 104.968 293.795 104.529 293.666C106.94 278.6 109.35 263.55 111.827 248.04C113.866 250.249 115.569 252.371 117.572 254.156C118.542 255.023 120.06 255.72 121.34 255.731C136.736 255.865 152.132 255.86 167.528 255.891C166.537 264.371 170.687 269.253 179.053 269.46H179.048ZM122.134 283.318C125.52 284.897 160.183 284.938 162.707 283.318H122.134ZM123.285 267.571C123.275 267.818 123.26 268.066 123.249 268.314H163.037C163.037 268.066 163.037 267.818 163.037 267.571H123.285ZM162.506 276.107C162.506 275.891 162.506 275.679 162.506 275.462H122.589C122.589 275.679 122.589 275.891 122.583 276.107H162.506Z" fill="#FFA653"/>
<path d="M96.1723 238.74C91.2794 238.709 86.3814 238.605 81.4885 238.673C79.3001 238.704 78.5001 237.981 78.5414 235.689C78.5982 232.443 78.2111 229.191 78.0098 225.94C79.9865 225.898 81.9633 225.826 83.9349 225.826C112.73 225.785 141.519 225.754 170.314 225.723C176.668 225.718 178.335 224.025 178.35 217.578C178.366 212.082 178.402 206.58 178.433 201.083C180.889 203.648 183.233 206.332 185.824 208.753C188.776 211.509 188.58 214.967 188.497 218.477C188.477 219.416 188.549 220.355 188.575 221.3C188.549 224.02 188.518 226.735 188.492 229.455C186.087 236.144 182.515 238.544 175.295 238.538C149.69 238.518 124.079 238.533 98.4742 238.549C97.7052 238.549 96.9413 238.678 96.1723 238.745V238.74Z" fill="#0C2C7E"/>
<path d="M198.324 51.9066C198.309 43.8189 198.294 35.7312 198.283 27.6434C198.324 26.7247 198.366 25.8009 198.412 24.7118C199.46 24.6602 200.296 24.588 201.132 24.588C216.25 24.5828 231.372 24.6396 246.489 24.526C248.941 24.5054 249.473 25.2847 249.452 27.5815C249.344 38.575 249.344 49.5737 249.452 60.5672C249.473 62.7607 248.781 63.4627 246.67 63.2614C245.055 63.1117 243.408 63.2459 241.777 63.2511C241.731 62.5698 241.72 61.8782 241.628 61.202C240.74 54.864 237.328 50.4098 231.321 48.2782C225.328 46.1518 219.873 47.3285 215.284 51.8859C214.964 52.0924 214.644 52.304 214.324 52.5105C213.597 52.0717 212.864 51.633 212.136 51.1995C211.971 50.9363 211.826 50.4511 211.641 50.4356C209.38 50.255 207.119 50.1053 204.853 50.0692C204.59 50.0692 204.317 50.8124 204.048 51.2098C202.139 51.4421 200.234 51.6692 198.324 51.9014V51.9066ZM224.776 25.7338C224.57 25.7338 224.363 25.7286 224.157 25.7234V46.1105C224.363 46.1156 224.57 46.1208 224.776 46.126V25.7338ZM204.048 44.0666C204.064 44.304 204.074 44.5415 204.09 44.784H219.243C219.243 44.5466 219.233 44.3092 219.233 44.0666H204.048ZM203.238 32.2163C203.238 32.4176 203.233 32.6241 203.228 32.8254H219.253C219.253 32.6241 219.253 32.4176 219.253 32.2163H203.233H203.238ZM243.847 38.0021C243.837 37.8008 243.821 37.5995 243.811 37.4034H229.891C229.901 37.6047 229.911 37.806 229.917 38.0021H243.847ZM230.071 43.5711C230.082 43.7982 230.087 44.0253 230.097 44.2524H244.27C244.26 44.0253 244.25 43.7982 244.244 43.5711H230.071ZM217.777 38.8589C217.767 38.6731 217.757 38.4924 217.746 38.3066H203.687C203.687 38.4924 203.692 38.6731 203.697 38.8589H217.782H217.777ZM243.862 32.1183C243.862 31.9325 243.862 31.7467 243.862 31.5609H230.381C230.381 31.7467 230.381 31.9325 230.381 32.1183H243.868H243.862Z" fill="#2254B5"/>
<path d="M28.4575 50.8747C20.5968 50.8747 13.9336 44.485 14.0936 36.7534C14.2691 28.2115 20.1839 22.1831 28.282 22.1418C37.0768 22.0954 42.8368 28.6244 42.9039 36.5624C42.9761 44.5108 36.4574 50.8798 28.4523 50.8798L28.4575 50.8747ZM27.1413 40.6502C27.4149 40.7173 27.6884 40.7844 27.962 40.8566C29.1336 38.5186 30.3155 36.1908 31.4717 33.8476C31.8484 33.0837 32.2923 32.3096 32.4781 31.4941C32.9736 29.3367 31.3891 27.4012 28.9375 27.0296C26.5013 26.658 24.8188 27.6644 24.4936 29.8889C26.4033 28.2786 28.5297 27.1328 30.5013 29.0683C32.6536 31.1792 30.3207 32.8928 29.4742 34.7354C28.5865 36.6605 27.9104 38.6786 27.1413 40.6605V40.6502Z" fill="#FFA653"/>
<path d="M215.285 51.8962C219.878 47.3388 225.329 46.1621 231.321 48.2885C237.329 50.4201 240.74 54.8743 241.628 61.2123C241.721 61.8885 241.731 62.5749 241.778 63.2614C241.778 72.8613 232.209 80.5516 223.063 78.3581C222.247 78.162 221.36 78.2445 220.508 78.1981L220.524 78.2394C220.338 78.0691 220.157 77.9039 219.971 77.7336C218.5 76.7271 217.447 77.1091 216.281 78.4355C212.513 82.74 208.616 86.9258 204.653 91.2871C203.915 90.8071 203.28 90.4097 202.66 89.9916C200.668 88.6393 200.606 87.4935 202.397 85.5994C205.788 82.0123 208.735 78.002 212.002 74.291C213.091 73.0523 213.262 72.1284 212.389 70.7297C211.78 69.7491 211.569 68.5207 211.182 67.4059C212.585 66.8846 213.989 66.3633 215.388 65.842C215.765 66.5026 216.219 67.1323 216.513 67.8291C218.253 71.9788 221.489 73.5994 225.834 73.6562C232.802 73.7491 237.277 69.4549 237.019 62.7762C237.169 59.2614 235.687 56.5311 232.973 54.3943C229.674 51.8033 225.964 51.6433 222.077 52.5569L215.285 51.9014V51.8962Z" fill="#FFA653"/>
<path d="M179.048 269.46C170.682 269.253 166.532 264.371 167.523 255.891C169.19 251.38 172.292 248.52 177.159 248.138C181.34 247.808 184.658 249.578 187.002 253.109C190.377 258.193 188.803 267.715 179.048 269.46ZM184.524 254.92C184.246 254.698 183.967 254.476 183.693 254.254C181.479 256.856 179.265 259.457 176.906 262.223C175.673 260.649 174.677 259.374 173.686 258.105C173.428 258.296 173.164 258.482 172.906 258.673C173.964 260.071 174.971 261.522 176.132 262.832C176.38 263.111 177.464 263.137 177.706 262.869C180.039 260.267 182.269 257.578 184.529 254.915L184.524 254.92Z" fill="#0C2C7E"/>
<path d="M29.4997 63.7004C32.581 64.6037 34.2739 66.3533 34.1397 68.7069C33.9952 71.1275 32.6584 72.6759 30.3049 73.2798C27.7294 73.9404 25.6701 72.4178 24.3643 68.9391C24.7978 65.9404 26.3462 64.0308 29.4997 63.7004Z" fill="#0C2C7E"/>
<path d="M188.492 229.454C188.518 226.734 188.549 224.02 188.575 221.3C189.437 223.994 190.299 226.693 191.166 229.387C190.278 229.408 189.385 229.429 188.492 229.449V229.454Z" fill="#FAE5CE"/>
<path d="M60.075 162.405C60.0543 150.544 60.013 138.684 60.0079 126.823C59.9975 98.4516 60.0079 70.0749 60.0079 41.7034C60.0079 40.5008 59.9717 39.2931 60.0543 38.0957C60.3227 34.1318 62.7072 32.1138 67.1717 32.1034C78.2633 32.0776 89.3549 32.0725 100.446 32.0673C124.178 32.0673 147.91 32.1447 171.641 32.0002C175.878 31.9744 178.66 34.1731 178.666 38.5912C178.707 62.4001 178.629 86.2039 178.593 110.013C176.684 108.32 174.815 106.57 172.838 104.96C171.791 104.108 170.609 103.365 169.386 102.787C164.828 100.645 161.504 102.643 161.231 107.618C161.189 108.387 161.205 109.161 161.189 109.935C145.628 109.92 130.067 109.894 114.501 109.91C113.68 109.91 112.864 110.24 112.044 110.415C112.044 110.694 112.054 110.968 112.059 111.246C112.73 111.381 113.396 111.603 114.072 111.628C115.615 111.685 117.169 111.654 118.712 111.649C132.895 111.613 147.084 111.572 161.267 111.535C163.873 125.646 169.768 138.503 176.271 151.138C177.169 152.888 177.927 154.71 178.753 156.495C178.697 160.294 178.645 164.088 178.588 167.886C176.606 167.478 174.635 166.802 172.637 166.73C170.433 166.653 168.209 167.128 165.989 167.36C165.515 167.344 165.045 167.329 164.57 167.313C163.765 167.117 162.96 166.751 162.16 166.751C133.293 166.735 104.426 166.751 75.5588 166.761L75.053 166.286C72.7511 157.827 67.1098 156.82 60.0646 162.41L60.075 162.405ZM155.073 147.633C157.293 147.628 159.517 147.618 161.737 147.613C162.237 146.916 162.743 146.219 163.244 145.522C162.423 145.223 161.608 144.908 160.777 144.64C160.544 144.562 160.266 144.63 160.008 144.63C132.059 144.63 104.106 144.624 76.1575 144.645C74.9859 144.645 73.8091 144.903 72.6375 145.037C73.422 145.94 74.2994 146.539 75.2027 146.596C79.8168 146.87 84.4362 147.107 89.0607 147.159C98.0877 147.257 107.12 147.19 116.152 147.257C129.128 147.355 142.098 147.51 155.073 147.639V147.633ZM70.4078 120.898C70.702 120.96 70.9911 121.022 71.2853 121.084C71.4349 121.156 71.5846 121.29 71.7343 121.29C80.9162 121.326 90.0981 121.378 99.28 121.295C99.8116 121.295 100.772 120.227 100.792 119.633C101.066 110.73 101.2 101.822 101.406 92.9136C101.437 91.5458 101.076 90.88 99.5484 90.8904C90.4491 90.9368 81.3497 90.9265 72.2504 90.9007C70.9807 90.9007 70.382 91.2723 70.3872 92.6555C70.4233 102.07 70.4078 111.484 70.4078 120.898ZM101.628 66.0233V53.6982H92.0439V44.2479H79.6465V53.8479H70.4801V66.0853H79.8117V75.3807H92.1368V66.0233H101.628ZM72.462 155.706C72.4878 155.979 72.5136 156.253 72.5394 156.526C73.5872 156.671 74.6298 156.924 75.6827 156.934C81.2723 157.011 86.862 156.913 92.4465 157.094C97.711 157.264 103.094 156.469 108.168 158.648C125.019 158.648 141.876 158.648 158.728 158.648C159.502 158.648 160.477 158.9 160.999 158.529C161.84 157.93 162.387 156.903 163.058 156.062C162.387 155.7 161.747 155.122 161.035 155.024C159.512 154.813 157.953 154.787 156.41 154.792C131.218 154.849 106.026 154.921 80.8336 154.988C78.9394 154.988 77.0452 154.916 75.1614 155.019C74.253 155.071 73.3652 155.463 72.4672 155.706H72.462ZM126.919 135.282C126.919 135.308 126.919 135.339 126.919 135.365C115.657 135.365 104.39 135.365 93.1278 135.365C92.3536 135.365 91.5587 135.298 90.8207 135.463C90.4336 135.551 90.1497 136.082 89.8142 136.413C90.1703 136.717 90.48 137.151 90.8878 137.295C91.3523 137.455 91.9045 137.362 92.4207 137.373C106.666 137.641 120.911 137.935 135.151 138.162C143.491 138.297 151.832 138.353 160.168 138.374C161.004 138.374 161.907 137.971 162.655 137.538C163.208 137.218 163.564 136.552 164.008 136.041C163.337 135.788 162.666 135.313 161.989 135.313C150.294 135.267 138.604 135.282 126.908 135.282H126.919ZM137.251 100.083C137.251 99.9897 137.251 99.8916 137.251 99.7987C129.432 99.7987 121.613 99.7626 113.794 99.8555C113.009 99.8658 112.235 100.671 111.455 101.11C112.24 101.45 113.019 102.09 113.804 102.09C129.272 102.147 144.746 102.147 160.214 102.09C160.978 102.09 161.742 101.409 162.506 101.048C161.737 100.728 160.973 100.134 160.204 100.129C152.555 100.062 144.906 100.088 137.257 100.088L137.251 100.083ZM162.397 121.352C162.263 121.192 162.129 121.027 161.995 120.867H113.024C112.963 121.249 112.906 121.626 112.844 122.008C113.757 122.266 114.671 122.751 115.59 122.751C130.124 122.797 144.658 122.813 159.187 122.72C160.26 122.715 161.329 121.827 162.397 121.352ZM112.704 63.3653L112.756 64.253C113.773 64.3821 114.784 64.6246 115.801 64.6298C131.682 64.7021 147.569 64.7537 163.45 64.7433C164.219 64.7433 164.988 64.0724 165.757 63.7162C165.004 63.3292 164.25 62.6014 163.497 62.6014C147.357 62.5756 131.213 62.6221 115.073 62.6995C114.284 62.6995 113.494 63.133 112.704 63.3653ZM137.793 51.6544V51.6853C130.067 51.6853 122.346 51.6595 114.619 51.7318C113.948 51.7369 113.283 52.3924 112.612 52.7434C113.298 53.1769 113.964 53.9202 114.681 53.9769C116.379 54.106 118.108 53.8582 119.822 53.8479C133.122 53.786 146.428 53.7653 159.729 53.6518C160.653 53.6414 161.577 52.9756 162.5 52.6144C161.561 52.2944 160.622 51.706 159.677 51.7008C152.384 51.6234 145.086 51.6595 137.793 51.6595V51.6544ZM143.254 92.4232C148.828 92.4232 154.408 92.4697 159.982 92.3716C160.813 92.3562 161.633 91.6749 162.454 91.3033C161.659 90.9936 160.864 90.4207 160.064 90.4155C148.999 90.3587 137.933 90.3536 126.867 90.4258C126.041 90.431 125.221 91.1071 124.395 91.4736C125.19 91.7884 125.984 92.3665 126.784 92.382C132.276 92.4645 137.762 92.4232 143.254 92.4232Z" fill="#EFF6FF"/>
<path d="M164.466 167.514C164.941 167.53 165.411 167.545 165.886 167.561C163.734 169.811 163.682 172.505 164.384 175.277C166.515 183.705 171.465 190.626 176.358 197.584C177.137 198.688 177.746 199.917 178.433 201.083C178.402 206.58 178.366 212.082 178.35 217.579C178.335 224.02 176.668 225.713 170.314 225.723C141.519 225.754 112.73 225.785 83.9351 225.826C81.9583 225.826 79.9867 225.898 78.01 225.94C76.8745 223.024 75.8474 220.061 74.5622 217.217C73.9119 215.772 73.0293 214.26 71.8422 213.264C69.9274 211.664 69.5352 210.017 70.2422 207.7C71.4087 203.896 72.3377 200.025 73.3648 196.18C74.2319 197.666 75.5171 197.986 77.1997 197.981C105.231 197.93 133.261 197.945 161.287 197.945C161.715 197.945 162.185 198.053 162.567 197.914C163.135 197.708 163.641 197.326 164.172 197.016C163.765 196.665 163.403 196.133 162.934 196.004C161.814 195.69 160.642 195.395 159.486 195.395C137.308 195.37 115.125 195.375 92.9467 195.411C86.4228 195.421 79.899 195.54 73.3751 195.612C73.8861 191.545 74.5674 187.493 74.8564 183.416C75.2022 178.477 75.2126 173.512 75.3674 168.557C81.7158 168.696 88.059 168.83 94.4073 168.995C95.1454 169.016 96.4615 169.119 96.5183 169.388C96.8899 171.215 98.2473 170.802 99.3622 170.802C119.527 170.797 139.692 170.75 159.863 170.761C162.252 170.761 163.62 169.584 164.466 167.524V167.514ZM91.0164 183.137C90.5777 183.519 90.139 183.906 89.6951 184.288C89.0086 184.335 88.2861 184.252 87.6512 184.453C86.9235 184.686 86.2835 185.171 85.6022 185.542C86.3351 185.93 87.068 186.647 87.8009 186.647C111.956 186.668 136.105 186.626 160.26 186.544C161.05 186.544 161.839 185.966 162.624 185.651C161.865 185.3 161.112 184.66 160.343 184.639C137.236 184.097 114.129 183.622 91.0215 183.132L91.0164 183.137ZM73.4268 207.555C73.3751 207.85 73.3184 208.144 73.2668 208.438C74.1803 208.593 75.099 208.877 76.0126 208.882C84.9519 208.918 93.886 208.902 102.825 208.908C122.505 208.908 142.185 208.918 161.87 208.897C162.918 208.897 163.971 208.66 165.019 208.531C164.983 208.206 164.952 207.886 164.915 207.56H73.4216L73.4268 207.555Z" fill="#EFF6FF"/>
<path d="M161.159 111.731C146.975 111.767 132.787 111.808 118.604 111.844C117.056 111.844 115.507 111.886 113.964 111.824C113.288 111.798 112.622 111.576 111.951 111.442C111.951 111.163 111.941 110.89 111.936 110.611C112.756 110.435 113.572 110.11 114.392 110.105C129.954 110.09 145.515 110.115 161.081 110.131C161.107 110.663 161.138 111.194 161.164 111.731H161.159Z" fill="#0C2C7E"/>
<path d="M178.479 168.087C178.536 164.288 178.588 160.495 178.645 156.696C181.649 161.873 184.658 167.044 187.661 172.221C187.434 172.448 187.212 172.675 186.985 172.902C184.152 171.297 181.313 169.692 178.479 168.092V168.087Z" fill="#0C2C7E"/>
<path d="M163.728 107.607C164.688 109.94 165.55 112.319 166.629 114.596C169.271 120.17 171.326 120.567 176.151 116.593C176.466 116.335 176.812 116.108 177.142 115.87C177.349 116.092 177.55 116.314 177.756 116.536C176.507 117.527 175.377 118.75 173.984 119.463C170.118 121.45 168.513 121.016 166.495 117.156C164.962 114.229 163.888 111.065 162.613 108.005C162.985 107.87 163.357 107.736 163.728 107.602V107.607Z" fill="#6E3963"/>
<path d="M167.568 175.855C168.378 177.321 169.199 178.781 169.999 180.252C172.007 183.942 173.349 184.355 177.008 182.41C177.72 182.033 178.438 181.671 179.563 181.088C177.891 184.407 173.756 185.723 171.398 183.901C168.889 181.966 167.862 179.065 166.742 176.273C167.016 176.133 167.289 175.994 167.563 175.855H167.568Z" fill="#6E3963"/>
<path d="M213.174 141.785C213.494 141.764 213.814 141.749 214.134 141.733C215.749 145.398 217.365 149.068 218.996 152.727C219.816 154.569 220.663 156.397 221.814 158.936C220.931 158.373 220.601 158.286 220.503 158.084C218.144 153.243 215.796 148.397 213.489 143.53C213.246 143.013 213.272 142.368 213.174 141.785Z" fill="#864263"/>
<path d="M198.691 187.751C197.21 186.038 195.651 184.381 194.263 182.595C192.131 179.86 190.118 177.042 188.054 174.255C188.332 174.043 188.616 173.831 188.895 173.62C192.219 178.281 195.543 182.946 198.861 187.607L198.691 187.751Z" fill="#864263"/>
<path d="M230.355 148.717C230.67 148.794 230.985 148.872 231.3 148.949C233.334 153.981 235.367 159.014 237.401 164.046C237.21 164.134 237.019 164.221 236.833 164.314C235.006 160.33 233.132 156.366 231.372 152.355C230.872 151.215 230.686 149.935 230.355 148.717Z" fill="#864263"/>
<path d="M202.939 150.487C201.241 147.674 199.543 144.856 197.845 142.043C198.17 141.873 198.495 141.703 198.815 141.532C200.188 144.515 201.561 147.504 202.939 150.487Z" fill="#864263"/>
<path d="M202.938 150.487C203.873 151.994 204.802 153.496 205.736 155.003C205.442 155.148 205.153 155.292 204.858 155.437C204.218 153.785 203.578 152.134 202.938 150.482V150.487Z" fill="#864263"/>
<path d="M198.861 187.607C199.351 188.128 199.847 188.65 200.337 189.171C200.136 189.336 199.929 189.506 199.728 189.671C199.382 189.026 199.036 188.386 198.69 187.746L198.856 187.607H198.861Z" fill="#864263"/>
<path d="M164.467 167.514C163.62 169.574 162.247 170.75 159.863 170.75C139.698 170.74 119.533 170.786 99.3625 170.792C98.2425 170.792 96.8902 171.205 96.5186 169.377C96.4618 169.109 95.1457 169.006 94.4076 168.985C88.0644 168.82 81.7161 168.686 75.3677 168.546C75.2438 168.118 75.12 167.685 74.9961 167.256C75.1458 167.158 75.3006 167.06 75.4503 166.962C104.317 166.952 133.184 166.936 162.051 166.952C162.856 166.952 163.662 167.318 164.462 167.514H164.467Z" fill="#0C2C7E"/>
<path d="M73.3746 195.607C79.8984 195.54 86.4223 195.416 92.9461 195.406C115.124 195.369 137.307 195.369 159.485 195.39C160.636 195.39 161.813 195.689 162.933 195.999C163.403 196.128 163.764 196.665 164.172 197.011C163.64 197.32 163.134 197.702 162.567 197.909C162.185 198.048 161.715 197.94 161.287 197.94C133.256 197.94 105.225 197.924 77.1991 197.976C75.5165 197.976 74.2314 197.661 73.3643 196.175C73.3643 195.984 73.3694 195.793 73.3746 195.602V195.607Z" fill="#0C2C7E"/>
<path d="M54.6709 177.883C58.5057 178.699 61.5044 179.359 64.5083 179.963C66.9909 180.459 67.9096 178.946 68.2141 176.851C68.6167 174.069 68.9367 171.277 69.3083 168.49C69.396 167.829 69.5663 167.179 69.7005 166.523C70.0928 166.57 70.485 166.616 70.8773 166.657C70.6296 169.352 70.5779 172.082 70.0928 174.73C68.8283 181.625 65.6541 183.163 59.1251 180.216C57.7831 179.612 56.5083 178.853 54.6709 177.888V177.883Z" fill="#773C63"/>
<path d="M77.9223 239.091C78.6191 243.581 76.1159 255.519 74.1494 257.145C75.4088 251.127 76.663 245.109 77.9223 239.091Z" fill="#6E3963"/>
<path d="M47.997 185.501C48.1725 185.677 48.3532 185.857 48.5287 186.033C47.29 189.971 46.0564 193.914 44.8177 197.852C44.508 197.759 44.1983 197.666 43.8887 197.568C45.2564 193.548 46.6293 189.522 47.997 185.501Z" fill="#864263"/>
<path d="M75.4501 166.962C75.3005 167.06 75.1456 167.158 74.996 167.256C74.9805 166.998 74.9598 166.745 74.9443 166.487L75.4501 166.962Z" fill="#FBFBFB"/>
<path d="M212.131 51.2102C212.858 51.6489 213.591 52.0877 214.319 52.5212C211.986 55.5457 210.603 58.9418 210.273 62.756C207.093 62.756 203.919 62.7044 200.745 62.7767C199.32 62.8076 198.784 62.3328 198.763 60.8618C198.716 57.8734 198.479 54.8902 198.324 51.907C200.234 51.6748 202.138 51.4477 204.048 51.2154C206.742 51.2154 209.436 51.2102 212.131 51.2051V51.2102Z" fill="#2254B5"/>
<path d="M226.985 112.934C219.264 113.532 211.542 113.775 203.898 112.289C203.898 112.036 203.898 111.778 203.904 111.525C204.662 111.525 205.421 111.514 206.175 111.525C212.678 111.612 219.181 111.685 225.684 111.819C227.186 111.85 227.96 111.174 228.642 109.889C230.004 107.323 232.224 105.739 235.124 105.388C235.816 105.305 236.843 105.76 237.251 106.307C237.529 106.683 237.24 107.994 236.796 108.304C234.928 109.61 233.029 111.127 230.902 111.752C228.533 112.443 228.244 113.806 228.43 115.721C228.936 121.016 232.105 124.412 236.513 126.9C237.364 127.38 238.211 127.86 239.485 128.583C233.534 129.109 228.053 121.899 226.985 112.929V112.934ZM229.762 111.396C232.038 110.069 234.314 108.748 236.595 107.421C233.282 106.322 231.186 107.581 229.762 111.396Z" fill="#0C2C7E"/>
<path d="M210.277 62.7558C210.608 58.9416 211.991 55.5403 214.324 52.521C214.644 52.3146 214.964 52.1029 215.284 51.8965C217.55 52.1133 219.81 52.3352 222.076 52.552C221.679 52.8565 221.307 53.2126 220.873 53.4603C217.075 55.6229 215.144 58.8281 215.366 63.2461C215.377 64.1081 215.382 64.97 215.392 65.8319C213.988 66.3532 212.59 66.8745 211.186 67.3958C210.881 65.8526 210.582 64.3042 210.277 62.761V62.7558Z" fill="#FFA653"/>
<path d="M125.7 27.2049C122.603 27.2049 119.512 27.1895 116.415 27.2101C114.825 27.2204 113.695 26.6578 113.622 24.9288C113.55 23.1792 114.655 22.4514 116.239 22.4462C122.773 22.4204 129.313 22.3533 135.837 22.5495C136.699 22.5753 137.519 24.0411 138.36 24.8411C137.493 25.6256 136.678 27.0088 135.754 27.0862C132.425 27.3598 129.055 27.1946 125.705 27.1946V27.2049H125.7Z" fill="#FCFCFC"/>
<path d="M106.671 22.0488C107.295 22.9521 108.477 23.912 108.395 24.7482C108.307 25.6256 107.022 27.0088 106.242 27.0191C105.437 27.0295 104.08 25.7391 103.951 24.8669C103.827 24.0359 104.973 23.0191 105.561 22.085L106.666 22.0488H106.671Z" fill="#FCFCFC"/>
<path d="M29.422 121.785C26.764 121.821 24.4672 119.54 24.5034 116.903C24.5395 114.399 26.7846 112.247 29.3601 112.247C31.9356 112.247 34.1446 114.43 34.1343 116.964C34.124 119.514 31.9407 121.749 29.422 121.785Z" fill="#0C2C7E"/>
<path d="M34.1336 92.7428C34.1646 95.2821 31.9555 97.5066 29.3852 97.5273C26.8149 97.5479 24.5388 95.3802 24.4872 92.8615C24.4356 90.4202 26.7427 88.108 29.2717 88.0615C31.8265 88.0151 34.1078 90.2086 34.1336 92.7428Z" fill="#0C2C7E"/>
<path d="M122.135 283.318H162.708C160.184 284.938 125.521 284.897 122.135 283.318Z" fill="#0C2C7E"/>
<path d="M123.285 267.571H163.037C163.037 267.818 163.037 268.066 163.037 268.314H123.249C123.259 268.066 123.275 267.818 123.285 267.571Z" fill="#0C2C7E"/>
<path d="M162.504 276.107H122.582C122.582 275.891 122.582 275.679 122.587 275.462H162.504C162.504 275.679 162.504 275.891 162.504 276.107Z" fill="#0C2C7E"/>
<path d="M224.776 25.734V46.1262C224.569 46.121 224.363 46.1158 224.156 46.1107V25.7236C224.363 25.7236 224.569 25.7288 224.776 25.734Z" fill="#73B6FF"/>
<path d="M204.049 44.0669H219.233C219.233 44.3043 219.244 44.5417 219.244 44.7843H204.09C204.075 44.5469 204.064 44.3095 204.049 44.0669Z" fill="#73B6FF"/>
<path d="M203.239 32.2166H219.259C219.259 32.4178 219.259 32.6243 219.259 32.8256H203.233C203.233 32.6243 203.239 32.4178 203.244 32.2166H203.239Z" fill="#73B6FF"/>
<path d="M243.847 38.0023H229.916C229.906 37.801 229.896 37.5997 229.891 37.4036H243.811C243.821 37.6049 243.836 37.8061 243.847 38.0023Z" fill="#73B6FF"/>
<path d="M230.072 43.5715H244.245C244.255 43.7986 244.266 44.0257 244.271 44.2528H230.098C230.088 44.0257 230.083 43.7986 230.072 43.5715Z" fill="#73B6FF"/>
<path d="M217.778 38.8591H203.693C203.693 38.6733 203.688 38.4927 203.683 38.3069H217.742C217.752 38.4927 217.763 38.6733 217.773 38.8591H217.778Z" fill="#73B6FF"/>
<path d="M243.862 32.1182H230.376C230.376 31.9324 230.376 31.7466 230.376 31.5608H243.857C243.857 31.7466 243.857 31.9324 243.857 32.1182H243.862Z" fill="#73B6FF"/>
<path d="M212.131 51.2099C209.437 51.2099 206.743 51.2151 204.049 51.2203C204.317 50.8228 204.591 50.0745 204.854 50.0796C207.12 50.1157 209.38 50.2654 211.641 50.4461C211.827 50.4615 211.971 50.9415 212.137 51.2099H212.131Z" fill="#73B6FF"/>
<path d="M27.1409 40.6498C27.9099 38.6731 28.5912 36.6498 29.4738 34.7247C30.3202 32.8821 32.6531 31.1686 30.5009 29.0576C28.5293 27.1221 26.4028 28.2679 24.4932 29.8783C24.8183 27.6589 26.5009 26.6473 28.937 27.0189C31.3886 27.3957 32.968 29.3312 32.4777 31.4834C32.2919 32.3041 31.848 33.0731 31.4712 33.837C30.3151 36.1802 29.1331 38.5131 27.9615 40.846C27.688 40.7789 27.4144 40.7118 27.1409 40.6395V40.6498Z" fill="#0C2C7E"/>
<path d="M215.367 63.2408C215.145 58.8228 217.075 55.6176 220.874 53.455C221.307 53.2073 221.679 52.8512 222.076 52.5466C225.968 51.6279 229.674 51.7879 232.972 54.3841C235.687 56.5157 237.168 59.246 237.018 62.766C234.056 62.9156 231.088 63.0653 228.125 63.215C228.043 62.0589 227.96 60.9079 227.883 59.8189H224.626C224.559 61.0885 224.497 62.1879 224.44 63.2873C221.416 63.2718 218.391 63.2563 215.367 63.2408ZM228.538 55.4008C227.424 54.7144 226.727 53.9453 226.18 54.0383C225.581 54.1415 225.116 55.0344 224.59 55.5866C225.158 56.0924 225.705 56.9544 226.309 56.9957C226.866 57.0369 227.485 56.2008 228.538 55.3957V55.4008Z" fill="#6484C3"/>
<path d="M228.126 63.2149C231.089 63.0652 234.056 62.9155 237.019 62.7659C237.282 69.4446 232.802 73.7336 225.835 73.6458C221.489 73.5891 218.258 71.9633 216.513 67.8188C216.219 67.122 215.77 66.4923 215.388 65.8317C215.378 64.9697 215.373 64.1078 215.362 63.2459C218.387 63.2614 221.411 63.2768 224.436 63.2923C224.436 65.9813 224.436 68.6652 224.436 71.4162H228.121V63.2149H228.126Z" fill="#FAF9F8"/>
<path d="M184.524 254.92C182.263 257.584 180.028 260.273 177.7 262.874C177.458 263.142 176.374 263.122 176.126 262.838C174.965 261.527 173.964 260.076 172.9 258.678C173.158 258.487 173.422 258.301 173.68 258.11C174.676 259.38 175.667 260.649 176.9 262.229C179.259 259.457 181.473 256.856 183.687 254.26C183.966 254.482 184.245 254.704 184.518 254.925L184.524 254.92Z" fill="#FFA653"/>
<path d="M70.2883 121.104C70.2883 111.69 70.3037 102.275 70.2676 92.8612C70.2624 91.478 70.8612 91.1012 72.1308 91.1064C81.2302 91.1374 90.3295 91.1477 99.4288 91.0961C100.957 91.0857 101.318 91.7516 101.287 93.1193C101.08 102.028 100.946 110.931 100.673 119.839C100.652 120.433 99.692 121.501 99.1604 121.501C89.9785 121.579 80.7966 121.527 71.6147 121.496C71.465 121.496 71.3154 121.362 71.1657 121.29C70.8715 121.228 70.5825 121.166 70.2883 121.104Z" fill="#FFB875"/>
<path d="M101.51 66.2295H92.018V75.5869H79.6929V66.2914H70.3613V54.0541H79.5277V44.4541H91.9251V53.9044H101.51V66.2295Z" fill="#FFA653"/>
<path d="M72.344 155.912C73.2421 155.674 74.1298 155.277 75.0382 155.225C76.9221 155.117 78.8214 155.199 80.7104 155.194C105.903 155.127 131.095 155.055 156.287 154.998C157.83 154.998 159.389 155.019 160.911 155.23C161.619 155.328 162.264 155.906 162.935 156.268C162.264 157.114 161.722 158.136 160.875 158.735C160.354 159.106 159.373 158.854 158.604 158.854C141.753 158.854 124.896 158.854 108.045 158.854C102.971 156.675 97.593 157.47 92.3233 157.3C86.7388 157.119 81.144 157.212 75.5595 157.14C74.5118 157.125 73.464 156.872 72.4163 156.732C72.3905 156.459 72.3647 156.185 72.3389 155.912H72.344ZM122.083 156.758C122.047 156.846 122.011 156.928 121.97 157.016H159.43C159.43 156.928 159.43 156.846 159.43 156.758H122.083Z" fill="#0C2C7E"/>
<path d="M154.953 147.839C141.978 147.71 129.008 147.555 116.032 147.457C107 147.39 97.973 147.457 88.9408 147.359C84.3214 147.308 79.6969 147.07 75.0827 146.797C74.1743 146.745 73.3021 146.146 72.5176 145.238C73.6892 145.104 74.866 144.846 76.0376 144.846C103.986 144.825 131.939 144.83 159.888 144.83C160.146 144.83 160.424 144.768 160.657 144.84C161.488 145.109 162.303 145.429 163.124 145.723C162.623 146.42 162.117 147.117 161.617 147.813C159.397 147.819 157.173 147.829 154.953 147.834V147.839Z" fill="#0C2C7E"/>
<path d="M126.799 135.488C138.495 135.488 150.185 135.478 161.88 135.519C162.551 135.519 163.227 135.994 163.898 136.247C163.455 136.758 163.104 137.429 162.546 137.744C161.798 138.177 160.895 138.58 160.058 138.58C151.718 138.565 143.377 138.503 135.042 138.368C120.797 138.136 106.551 137.847 92.3115 137.579C91.7954 137.568 91.2431 137.661 90.7786 137.501C90.3657 137.357 90.056 136.923 89.7051 136.619C90.0354 136.288 90.3244 135.757 90.7115 135.669C91.4496 135.504 92.2496 135.571 93.0186 135.571C104.281 135.571 115.548 135.571 126.809 135.571C126.809 135.545 126.809 135.514 126.809 135.488H126.799Z" fill="#0C2C7E"/>
<path d="M137.132 100.289C144.781 100.289 152.43 100.263 160.079 100.33C160.848 100.335 161.612 100.929 162.381 101.249C161.617 101.61 160.853 102.291 160.09 102.291C144.621 102.353 129.148 102.353 113.679 102.291C112.895 102.291 112.116 101.651 111.331 101.311C112.11 100.872 112.885 100.067 113.669 100.056C121.488 99.9635 129.308 99.9996 137.127 99.9996C137.127 100.092 137.127 100.191 137.127 100.283L137.132 100.289Z" fill="#0C2C7E"/>
<path d="M162.279 121.558C161.211 122.033 160.142 122.921 159.069 122.926C144.535 123.019 130 123.003 115.471 122.957C114.558 122.957 113.644 122.472 112.726 122.214C112.788 121.832 112.844 121.455 112.906 121.073H161.876C162.011 121.233 162.145 121.398 162.279 121.558Z" fill="#0C2C7E"/>
<path d="M112.586 63.5713C113.376 63.3391 114.165 62.9107 114.955 62.9055C131.094 62.8281 147.239 62.7817 163.378 62.8075C164.132 62.8075 164.885 63.5352 165.639 63.9223C164.87 64.2784 164.101 64.9494 163.332 64.9494C147.45 64.9649 131.564 64.9081 115.683 64.8358C114.666 64.8358 113.654 64.5933 112.638 64.4591L112.586 63.5713Z" fill="#0C2C7E"/>
<path d="M137.674 51.8602C144.967 51.8602 152.265 51.8241 159.558 51.9015C160.502 51.9118 161.442 52.5002 162.381 52.8151C161.457 53.1763 160.538 53.8473 159.609 53.8525C146.309 53.966 133.003 53.9867 119.702 54.0486C117.989 54.0589 116.26 54.3067 114.562 54.1776C113.844 54.1209 113.179 53.3776 112.492 52.9441C113.163 52.5931 113.829 51.9376 114.5 51.9325C122.221 51.8602 129.948 51.886 137.674 51.886V51.8551V51.8602Z" fill="#0C2C7E"/>
<path d="M143.135 92.6345C137.643 92.6345 132.151 92.6758 126.665 92.5932C125.865 92.5829 125.07 92.0048 124.275 91.6848C125.101 91.3184 125.922 90.6422 126.748 90.6371C137.813 90.5648 148.879 90.57 159.945 90.6267C160.745 90.6267 161.54 91.2048 162.335 91.5145C161.509 91.8861 160.693 92.5674 159.862 92.5829C154.288 92.6809 148.709 92.6345 143.135 92.6345Z" fill="#0C2C7E"/>
<path d="M91.017 183.137C114.124 183.628 137.231 184.102 160.338 184.644C161.107 184.66 161.861 185.305 162.619 185.656C161.83 185.966 161.045 186.544 160.255 186.544C136.106 186.631 111.951 186.668 87.7964 186.647C87.0635 186.647 86.3306 185.924 85.5977 185.542C86.2789 185.166 86.9241 184.686 87.6467 184.453C88.2815 184.252 89.0093 184.335 89.6906 184.288C93.1744 184.288 96.6583 184.288 100.147 184.288C97.7937 184.03 95.435 184.097 93.0815 183.989C92.3796 183.958 91.7034 183.431 91.0118 183.137H91.017Z" fill="#0C2C7E"/>
<path d="M73.4263 207.555H164.92C164.956 207.88 164.987 208.2 165.023 208.526C163.976 208.655 162.923 208.892 161.875 208.892C142.195 208.913 122.515 208.907 102.83 208.902C93.8908 208.902 84.9514 208.913 76.0173 208.876C75.0986 208.876 74.185 208.587 73.2715 208.433C73.3231 208.138 73.3799 207.844 73.4315 207.55L73.4263 207.555Z" fill="#0C2C7E"/>
<path d="M91.0166 183.137C91.703 183.437 92.3843 183.958 93.0863 183.989C95.4398 184.097 97.7985 184.03 100.152 184.288C96.6682 184.288 93.1843 184.288 89.6953 184.288C90.134 183.906 90.5727 183.519 91.0166 183.137Z" fill="#A28DA8"/>
<path d="M229.762 111.396C231.181 107.586 233.282 106.327 236.595 107.421C234.319 108.748 232.043 110.069 229.762 111.396Z" fill="#FAE5CE"/>
<path d="M228.126 63.2152V71.4164H224.44C224.44 68.6655 224.44 65.9765 224.44 63.2926C224.502 62.1932 224.559 61.0939 224.626 59.8242H227.883C227.96 60.9132 228.043 62.0642 228.126 63.2203V63.2152Z" fill="#0C2C7E"/>
<path d="M228.538 55.401C227.485 56.201 226.866 57.0371 226.309 57.001C225.705 56.9597 225.163 56.0977 224.59 55.5919C225.111 55.0397 225.581 54.1468 226.18 54.0436C226.727 53.9507 227.423 54.7197 228.538 55.4061V55.401Z" fill="#0C2C7E"/>
<path d="M122.082 156.758H159.429C159.429 156.846 159.429 156.928 159.429 157.016H121.969C122.005 156.928 122.041 156.846 122.082 156.758Z" fill="#6D4C77"/>
</svg>
