<svg width="393" height="298" viewBox="0 0 393 298" fill="none" xmlns="http://www.w3.org/2000/svg">
<path d="M77.751 115.035C79.3067 108.015 80.5444 100.914 82.4976 93.9955C85.3535 83.8896 93.3138 79.4105 105.561 80.6491C111.625 81.263 117.762 81.5299 123.86 81.4872C131.412 81.4392 136.522 77.2858 140.928 71.8832C144.811 67.1158 148.842 62.3592 153.447 58.2218C158.126 54.015 164.053 51.5219 170.588 50.625C170.435 51.2283 213.474 53.0166 213.213 53.5718C207.643 65.1778 343.99 84.2099 352.234 93.9955C355.703 98.1168 328.686 153.075 330.963 157.858C333.325 162.813 184.016 108.943 180.065 111.282C176.675 113.289 176.522 113.818 179.043 116.77C179.968 117.854 181.143 118.846 182.415 119.546C186.645 121.884 191.079 123.902 195.241 126.342C202.986 130.89 204.61 136.111 201.101 143.97C199.727 147.05 198.444 150.168 197.115 153.27C192.641 154.679 188.655 156.83 185.873 160.493C183.772 163.263 182.302 166.643 184.016 169.755C186.463 174.202 186.259 180.224 192.272 182.733C192.987 183.032 193.311 184.158 193.816 184.9C188.689 186.523 183.568 188.152 178.441 189.775C176.726 181.041 173.081 173.15 167 166.29C170.997 175.74 172.303 185.386 170.526 195.385C164.922 199.87 160.874 205.459 157.495 211.535C155.253 204.787 151.608 198.925 145.402 194.691C144.999 194.312 144.601 193.939 144.198 193.56C144.204 169.686 140.417 146.393 132.371 123.737C132.019 124.324 132.048 124.863 132.184 125.381C135.267 137.393 137.549 149.533 138.06 161.891C138.452 171.389 138.441 180.897 138.611 190.399C135.432 189.646 132.246 188.899 129.067 188.146C128.488 184.404 127.908 180.662 127.329 176.919C128.272 176.369 129.214 175.825 130.339 175.168C129.669 174.111 129.078 173.134 128.442 172.189C126.779 169.718 125.092 167.257 123.417 164.795C123.298 164.678 123.173 164.566 123.043 164.454C122.622 163.68 122.123 162.938 121.788 162.132C118.847 155.154 116.133 148.08 112.902 141.226C111.619 138.503 109.223 136.245 107.332 133.773C104.374 128.226 101.132 122.861 96.4082 118.435C98.9575 123.539 101.507 128.637 104.056 133.741C103.556 134.099 103.057 134.462 102.552 134.819C99.9908 133.495 98.0206 134.857 96.0221 136.085C94.2449 135.989 92.4394 136.053 90.6963 135.764C87.7723 135.284 84.9334 134.531 84.3202 131.152C86.597 125.162 86.2393 119.348 83.1733 113.385C81.5721 114.709 80.2492 115.804 78.9263 116.893C78.5345 116.268 78.1484 115.649 77.7567 115.024L77.751 115.035Z" fill="#FFDAB9"/>
<path d="M231.177 31.9243C234.544 27.3118 235.725 22.2829 234.459 16.7735C234.22 15.7378 234.163 14.6594 233.913 13.6291C231.881 5.23154 238.036 1.6547 244.162 0.373448C252.122 -1.29218 261.161 2.75445 264.574 9.71059C265.754 12.1236 266.118 15.0064 266.317 17.7078C266.669 22.4804 266.351 27.3012 266.788 32.0631C267.31 37.7541 271.234 41.6565 275.526 45.3028C278.598 47.9187 281.448 50.7588 284.4 53.4975C286.348 58.5264 286.779 63.5767 284.951 68.7658C283.412 73.1327 282.135 77.5851 280.71 81.9894C278.16 89.8584 280.551 96.4676 286.092 102.554C288.114 104.774 289.561 107.582 290.754 110.321C292.378 114.053 290.907 117.283 287.796 119.834C285.814 121.463 283.674 122.92 281.601 124.452C281.385 124.644 281.175 124.837 280.96 125.029L280.937 125.002C276.446 127.148 274.947 130.303 276.531 134.281C277.331 135.775 278.07 137.308 278.95 138.76C282.544 144.669 282.072 150.462 277.649 155.624C275.344 158.309 272.028 160.226 269.167 162.49C265.828 163.504 262.49 164.518 259.151 165.533C258.918 164.876 258.521 164.235 258.481 163.568C258.243 159.676 258.129 155.774 257.896 151.882C257.51 145.422 257.136 138.963 256.636 132.508C255.75 121.132 254.808 109.755 253.803 98.3841C253.621 96.3234 253.014 94.3001 252.605 92.2608C252.213 92.2928 251.816 92.3248 251.424 92.3622C250.93 97.1776 250.379 101.993 249.948 106.814C249.465 112.19 249.107 117.576 248.653 122.952C247.779 133.336 246.864 143.714 245.99 154.097C245.723 157.274 245.519 160.461 245.292 163.643C241.3 162.5 237.451 161.037 233.942 158.881C233.028 158.261 232.068 157.69 231.217 157.007C227.208 153.793 222.83 150.878 219.378 147.2C216.937 144.6 215.29 141.093 214.143 137.729C212.514 132.962 215.058 128.243 219.571 125.461C221.008 124.575 223.2 122.829 222.989 121.89C222.297 118.852 221.297 115.494 219.236 113.188C215.029 108.479 213.07 103.573 214.694 97.5459C215.137 96.6651 215.58 95.7842 216.023 94.9087C217.953 93.3819 219.736 91.6255 221.848 90.3709C228.605 86.351 231.353 78.5407 228.349 71.4511C226.748 67.666 225.3 63.8276 223.699 60.0425C220.98 53.6042 221.564 47.4756 225.34 41.5444C227.356 38.3733 229.241 35.1275 231.188 31.919L231.177 31.9243Z" fill="#FFA653"/>
<path d="M281.603 124.457C283.676 122.925 285.816 121.468 287.798 119.839C290.904 117.288 292.38 114.058 290.756 110.326C289.564 107.587 288.116 104.779 286.095 102.559C280.553 96.4726 278.157 89.8635 280.712 81.9944C282.143 77.5901 283.415 73.1377 284.953 68.7708C286.782 63.5817 286.35 58.5314 284.403 53.5025C290.245 48.4843 297.365 46.7065 304.985 47.1389C311.23 47.4913 317.43 48.6391 323.647 49.4345C323.517 50.4649 323.505 51.5272 323.239 52.5309C320.757 61.8093 318.236 71.0824 315.727 80.3501C314.353 80.3715 312.922 80.6331 311.611 80.3661C309.322 79.9017 307.125 79.0635 304.86 78.471C301.794 77.6702 298.75 79.0796 298.398 81.9624C298.126 84.2259 298.325 86.8472 299.312 88.8812C301.828 94.0542 306.546 96.0081 312.496 95.4156C311.224 103.301 309.811 111.17 308.721 119.076C307.488 128.04 306.546 137.035 305.479 146.02C304.916 147.023 304.349 148.027 303.787 149.031C302.123 151.994 299.903 154.802 298.909 157.951C297.041 163.867 295.701 169.942 294.481 176.012C292.976 183.464 293.345 190.965 294.628 198.428C294.833 199.48 295.037 200.532 295.236 201.589C295.423 202.625 295.514 203.682 295.809 204.691C297.115 209.164 298.483 213.622 299.829 218.085C296.269 218.074 292.703 218.064 289.144 218.053C288.468 217.001 287.775 215.96 287.122 214.898C283.364 208.759 279.077 202.843 275.994 196.421C270.855 185.717 268.681 174.303 269.175 162.511C272.036 160.247 275.352 158.331 277.657 155.645C282.086 150.488 282.552 144.69 278.958 138.781C278.072 137.329 277.339 135.796 276.539 134.302C277.271 132.78 278.009 131.259 278.731 129.732C279.474 128.162 280.207 126.593 280.939 125.018L280.962 125.045C281.178 124.852 281.388 124.66 281.603 124.468V124.457Z" fill="#70B464"/>
<path d="M214.688 97.5565C213.059 103.584 215.023 108.49 219.231 113.199C221.292 115.505 222.291 118.857 222.984 121.9C223.199 122.84 221.002 124.586 219.566 125.472C215.052 128.253 212.508 132.967 214.138 137.74C215.285 141.103 216.931 144.611 219.373 147.211C222.825 150.889 227.202 153.804 231.211 157.017C232.062 157.701 233.028 158.272 233.936 158.891C234.947 164.011 235.957 169.136 236.962 174.256L235.639 177.021C232.653 174.266 229.536 171.811 225.028 171.624C220.122 171.421 218.441 169.755 218.118 165.105C217.567 157.172 212.894 152.885 205.706 153.441C202.862 153.659 199.977 153.35 197.11 153.275C198.433 150.173 199.716 147.056 201.096 143.975C204.605 136.117 202.986 130.896 195.236 126.347C191.08 123.908 186.646 121.884 182.41 119.551C181.138 118.852 179.963 117.859 179.038 116.775C176.517 113.823 176.67 113.295 180.06 111.287C184.006 108.949 186.368 102.607 184.011 97.6526C181.735 92.8693 178.612 88.3102 175.143 84.1888C166.904 74.4032 164.542 64.0411 170.112 52.4297C170.379 51.8745 170.43 51.2339 170.583 50.6306C172.65 48.0681 174.501 45.308 176.84 42.9858C179.776 40.0709 183.114 37.5137 186.277 34.8018C186.884 35.5225 187.685 36.1578 188.06 36.9692C193.391 48.3777 198.666 59.8129 203.957 71.2428C203.952 71.4296 203.946 71.6165 203.94 71.798C203.668 72.3479 203.407 72.9031 203.117 73.4476C202.01 75.5243 201.385 77.4996 203.588 79.4161C204.383 80.1101 204.661 81.322 205.451 82.0373C206.529 83.0196 207.864 83.7457 209.09 84.5838C209.289 84.7867 209.488 84.9896 209.686 85.1924C211.35 89.3191 213.013 93.4405 214.683 97.5672L214.688 97.5565Z" fill="#70B464"/>
<path d="M265.839 274.631C266.912 275.608 267.985 276.585 269.052 277.562C269.705 278.523 270.347 279.495 271.017 280.44C273.055 283.296 277.558 285.068 280.55 284.203C283.582 283.328 284.61 281.55 284.53 277.317C285.898 279.618 287.914 281.78 288.493 284.241C289.385 288.036 286.114 290.385 283.377 292.451C278.381 296.226 272.283 297.235 266.089 297.614C251.094 298.532 236.78 295.211 222.705 290.935C215.346 288.704 208.243 285.725 200.959 283.253C199.715 282.831 197.955 282.847 196.752 283.339C181.615 289.542 166.029 294.389 149.688 296.754C139.451 298.238 129.112 298.863 119.25 294.913C116.632 293.861 114.163 292.152 112.107 290.273C109.842 288.207 109.104 285.405 110.16 282.394C111.823 277.637 114.776 274.114 120.255 272.971C122.043 273.115 123.832 273.259 125.62 273.403L119.591 274.631C119.625 274.904 119.659 275.176 119.693 275.448C120.567 275.614 121.476 275.688 122.299 275.982C122.946 276.212 124.002 276.788 123.957 277.087C123.855 277.76 123.31 278.715 122.713 278.908C121.356 279.345 119.823 279.623 118.427 279.457C118.041 279.409 117.904 277.578 117.626 276.575C117.564 276.35 117.359 276.163 117.149 275.854C115.094 276.681 114.674 278.272 114.81 280.007C115.014 282.623 118.103 284.652 121.26 284.337C125.842 283.878 128.34 280.974 130.322 277.466C131.372 276.505 132.422 275.55 133.473 274.589C136.397 274.962 139.321 275.587 142.256 275.651C145.896 275.736 149.547 275.427 153.186 275.165C159.982 274.679 166.773 274.129 173.558 273.516C174.103 273.468 174.586 272.747 175.097 272.341C176.209 272.48 177.334 272.539 178.429 272.763C182.733 273.644 183.795 273.137 185.475 269.287C186.31 269.368 187.15 269.48 187.985 269.533C192.09 269.795 196.201 270.275 200.3 270.232C204.314 270.19 208.317 269.608 212.326 269.261C212.848 271.177 214.216 271.861 216.255 271.957C219.343 272.106 222.415 272.464 225.498 272.736C230.364 273.548 235.196 274.631 240.101 275.096C245.416 275.603 250.793 275.694 256.141 275.646C259.377 275.614 262.614 274.973 265.85 274.61L265.839 274.631Z" fill="#0C2C7E"/>
<path d="M197.115 153.269C199.982 153.339 202.872 153.654 205.711 153.435C212.899 152.88 217.572 157.161 218.122 165.099C218.446 169.749 220.121 171.415 225.032 171.618C229.54 171.805 232.658 174.26 235.644 177.015C236.751 178.291 237.858 179.562 238.966 180.838L238.977 180.811C239.21 181.099 239.443 181.393 239.675 181.681C241.22 181.815 242.764 181.948 244.314 182.081C250.06 181.265 255.42 182.012 260.104 185.514C261.489 187.698 263.494 189.732 264.135 192.097C265.878 198.53 270.199 202.752 275.934 206.084C276.501 206.415 276.887 207.146 277.16 207.765C279.022 211.977 276.655 215.245 274.372 218.522C268.064 224.528 260.774 224.731 254.029 219.099C253.609 218.747 253.143 218.442 252.711 218.117C250.338 213.857 246.494 211.641 241.492 211.064C239.357 206.997 236.882 203.233 233.072 200.238C229.722 197.601 227.025 194.216 223.607 191.68C217.776 187.351 210.883 185.327 203.468 184.916C203.854 184.489 204.166 183.966 204.632 183.64C207.698 181.5 209.992 178.921 210.503 175.2C210.878 172.461 209.742 170.769 206.869 170.091C204.399 169.509 201.827 169.21 199.437 168.415C197.41 167.742 195.576 166.546 193.555 165.527C193.345 165.927 192.839 166.776 192.425 167.662C189.586 173.833 190.335 177.373 195.207 182.092C195.866 182.733 195.866 183.971 196.166 184.932C195.383 184.916 194.594 184.906 193.81 184.89C193.305 184.147 192.981 183.021 192.266 182.722C186.253 180.218 186.457 174.191 184.01 169.744C182.296 166.632 183.766 163.252 185.867 160.482C188.643 156.814 192.635 154.668 197.109 153.259L197.115 153.269Z" fill="#01515C"/>
<path d="M-27.3154 177.993C-27.1735 166.835 -23.0457 157.295 -13.9783 149.954C-7.0855 144.376 1.10753 140.996 10.0046 139.758C17.8116 138.669 25.7718 138.567 33.6639 138.028C33.2551 139.736 32.8463 141.445 32.4432 143.153C26.2658 147.509 21.9507 154.983 24.5454 163.322C24.1082 163.167 23.6767 162.938 23.2225 162.874C21.786 162.666 20.3325 162.521 18.8903 162.351C19.248 163.995 19.2367 165.831 20.0656 167.23C20.781 168.442 22.3822 169.237 23.6994 170.065C24.9201 170.828 26.2828 171.389 27.6341 172.067C27.2707 172.91 26.9982 173.551 26.72 174.197C22.5979 180.267 18.4815 186.337 14.3538 192.417C12.906 191.75 11.8101 191.243 10.7143 190.741C11.1856 188.707 11.6568 186.668 12.1281 184.634L11.0209 183.94C8.86338 185.611 6.70582 187.276 4.54827 188.947C2.86764 188.702 1.18702 188.456 -0.493599 188.211C-0.521988 186.646 -0.709356 185.066 -0.539022 183.523C0.000366211 178.473 -4.13874 170.839 -8.76613 168.709C-8.98188 169.195 -9.26577 169.664 -9.40204 170.166C-9.5383 170.679 -9.53263 171.218 -9.57237 171.752C-9.92439 176.786 -7.37507 180.785 -4.43966 184.671C-3.64477 185.728 -3.13945 186.977 -2.49786 188.136C-4.39992 188.296 -6.30197 188.456 -8.20403 188.611V182.023C-11.5028 184.426 -14.1543 186.032 -14.6029 189.348C-16.4709 190.501 -18.3332 191.649 -20.2012 192.802C-21.0245 191.216 -22.3303 189.695 -22.5745 188.029C-23.1423 184.196 -24.7945 180.95 -27.3098 177.998L-27.3154 177.993Z" fill="#FFDAB9"/>
<path d="M44.9335 112.339C40.4083 112.419 35.8888 112.451 31.3636 112.59C26.6056 112.739 22.8072 110.748 19.2983 108.036C18.3502 107.299 17.3963 106.568 16.4424 105.842C13.7398 103.77 10.8612 102.692 7.28985 103.85C3.52548 105.068 -0.02881 104.16 -3.23108 102.174C-7.16578 99.7344 -7.63136 95.96 -4.12817 93.0772C2.2423 87.8347 9.73697 85.2402 18.265 85.7207C19.6277 85.7954 21.0812 86.2812 22.2621 86.9379C29.2174 90.8243 36.4339 90.7015 43.8661 88.4967C49.7142 86.7617 55.4885 84.6263 61.4786 83.5372C65.3054 82.8432 69.5467 83.3183 73.4416 84.0283C78.1883 84.8985 81.2543 90.6108 79.8859 95.5383C79.2841 97.7004 77.8192 99.649 76.7461 101.699C76.5531 100.968 76.3487 100.242 76.1783 99.5102C75.7184 97.5029 75.2756 95.4902 74.8441 93.547C73.2316 94.8336 72.1471 96.291 70.722 96.7181C65.9583 98.1328 63.0456 100.872 62.1713 105.532C62.0463 106.21 61.6035 106.829 61.3026 107.481C56.0506 108.954 50.7987 110.428 45.5467 111.896C45.3366 112.056 45.1266 112.216 44.9222 112.376L44.9506 112.344L44.9335 112.339Z" fill="#ED5A33"/>
<path d="M231.178 31.9241C229.236 35.1379 227.345 38.3784 225.329 41.5495C221.559 47.4807 220.969 53.6093 223.689 60.0476C225.29 63.8327 226.732 67.6711 228.339 71.4561C231.342 78.5404 228.594 86.3561 221.838 90.376C219.725 91.6359 217.943 93.387 216.012 94.9138C214.604 91.6679 213.202 88.4221 211.799 85.1816C211.249 83.4092 210.806 81.5941 210.119 79.8697C208.745 76.405 207.24 72.9937 205.787 69.5556C205.406 68.5573 205.094 67.527 204.64 66.5607C199.427 55.4672 194.198 44.3843 188.975 33.2961C194.777 29.5538 201.346 27.7654 208.222 27.082C211.856 26.719 215.581 26.8258 219.237 27.098C223.728 27.4397 227.822 28.9505 231.183 31.9241H231.178Z" fill="#70B464"/>
<path d="M45.5303 111.891C50.7822 110.417 56.0342 108.944 61.2861 107.476C62.1548 109.243 63.7389 109.35 65.4877 109.088C71.0803 108.33 74.68 111.202 77.7517 115.03C78.1378 115.655 78.5295 116.274 78.9156 116.898C80.7155 121.65 82.5097 126.401 84.3095 131.158C84.9227 134.537 87.7616 135.295 90.6857 135.77C92.4287 136.053 94.2343 135.994 96.0114 136.091C95.8184 136.865 95.631 137.639 95.438 138.413C94.6658 138.52 93.8936 138.621 92.7694 138.776C95.9773 141.002 98.856 142.999 101.735 144.995C101.519 145.86 101.309 146.725 101.093 147.59C100.304 147.403 99.5089 147.243 98.7367 147.024C95.6537 146.148 92.5764 145.251 89.499 144.36C88.67 144.002 87.8468 143.645 87.0178 143.282C84.7694 142.454 82.5153 141.621 80.2669 140.794C77.9561 138.632 75.5998 136.512 73.3571 134.291C71.9433 132.893 70.7169 131.329 69.3997 129.839L68.3777 127.485C65.6637 131.264 63.1711 132.802 59.7134 133.309C58.2315 133.528 56.4714 134.361 55.5913 135.45C52.4231 139.374 49.5785 143.532 46.6091 147.6L46.6431 147.579C46.4501 147.729 46.257 147.878 46.0697 148.022L46.0867 148.113C40.9597 147.857 35.9803 147.232 32.4316 143.137C32.8404 141.429 33.2492 139.721 33.6524 138.012C36.4401 131.329 39.1995 124.629 42.0441 117.966C42.8674 116.034 43.9575 114.202 44.9228 112.329L44.8944 112.361C45.1044 112.2 45.3145 112.04 45.5189 111.88L45.5303 111.891Z" fill="#FFA653"/>
<path d="M86.4502 239.877C86.7852 237.897 86.7795 235.798 87.5233 233.962C89.0393 230.214 90.9527 226.611 92.7014 222.943C93.5644 222.19 94.4275 221.438 95.2905 220.68C98.9243 219.131 102.359 216.943 106.669 217.583C105.522 220.391 104.454 223.231 103.211 226.002C99.8157 233.588 98.5893 241.591 97.8228 249.716C98.3111 249.342 98.6631 248.905 98.7312 248.435C100.094 238.623 102.581 229.109 107.032 220.087C107.35 219.446 106.828 218.432 106.691 217.594C106.737 217.407 106.777 217.215 106.822 217.028C108.162 217.578 109.502 218.122 110.842 218.672C113.953 221.246 115.39 224.673 116.423 228.308C116.9 233.215 115.668 237.843 113.556 242.253C109.468 250.81 105.073 259.24 101.178 267.873C99.0946 272.485 97.7774 277.402 96.1195 282.185C95.9094 282.324 95.705 282.457 95.4949 282.596C95.1485 277.658 95.4381 272.586 94.3139 267.808C92.1109 258.413 89.1187 249.177 86.4559 239.872L86.4502 239.877ZM98.1748 250.875C97.8512 250.837 97.5275 250.8 97.2039 250.762C96.6645 255.231 96.1251 259.705 95.5857 264.173C95.8412 264.205 96.1024 264.232 96.3579 264.264C96.9598 259.801 97.5673 255.338 98.1691 250.875H98.1748Z" fill="#10652F"/>
<path d="M312.497 95.4153C306.541 96.0078 301.829 94.0539 299.314 88.8809C298.326 86.8469 298.127 84.2256 298.4 81.9621C298.746 79.0792 301.795 77.6699 304.861 78.4707C307.126 79.0632 309.324 79.9014 311.612 80.3658C312.923 80.6328 314.354 80.3712 315.728 80.3498C316.858 79.7252 317.994 79.0953 319.123 78.4707C322.462 76.1591 325.766 76.6128 329.082 78.5294C329.639 78.8497 330.309 79.2234 330.905 79.202C332.199 79.154 333.942 79.2928 334.686 78.5934C338.331 75.1661 342.658 74.0503 347.615 74.4721C352.497 75.9775 354.973 79.3462 355.836 84.3538C357.903 84.2683 359.913 84.3377 361.866 84.0601C364.171 83.7291 365.693 84.6634 366.845 86.297C367.992 87.9199 369.826 89.4574 368.168 91.7103C362.422 93.1624 356.693 94.0272 351.106 91.1497C349.466 88.3417 351.163 86.4945 353.389 84.7061C351.288 83.5156 349.301 82.6347 346.933 83.6064C346.786 83.7879 346.638 83.9747 346.49 84.1562H346.558C345.548 85.1492 344.361 86.0247 343.555 87.1351C339.643 92.5057 339.274 92.6606 332.659 90.696C332.302 90.5892 331.916 90.5358 331.575 90.3863C328.515 89.041 325.801 89.7564 323.035 91.3366C320.554 92.7513 317.857 93.8244 315.257 95.0522C314.337 95.175 313.417 95.2925 312.497 95.4153Z" fill="#01515C"/>
<path d="M362.47 110.113C368.387 110.78 373.349 112.745 375.478 118.564C375.484 119.535 375.262 120.56 375.535 121.457C376.654 125.109 375.149 127.922 372.776 130.661C371.833 131.75 371.464 133.277 370.839 134.606C370.056 136.437 369.267 138.268 368.483 140.1C362.828 142.262 357.167 142.208 351.501 140.126C351.365 140.1 351.228 140.062 351.098 140.02C349.355 135.22 347.617 130.415 345.874 125.616C349.446 120.363 348.81 116.348 344.722 112.446C345.897 112.051 347.067 111.65 348.242 111.255C351.143 110.828 354.039 110.396 356.94 109.969C358.734 111.757 360.591 111.399 362.47 110.108V110.113Z" fill="#FFC997"/>
<path d="M377.094 217.999C374.698 218.122 372.302 218.245 369.918 218.362C362.031 218.362 354.133 218.362 346.15 218.362V201.706C354.661 200.356 358.891 194.504 362.979 187.751C361.31 187.922 360.123 188.039 358.937 188.162C360.759 185.824 362.588 183.491 364.41 181.153C366.664 187.191 366.335 193.426 364.734 199.379C363.258 204.872 360.527 210.072 358.346 215.4C358.284 215.432 358.204 215.448 358.153 215.496C358.125 215.522 358.13 215.592 358.125 215.64C358.204 215.565 358.278 215.485 358.358 215.41C358.937 215.159 359.607 215.01 360.084 214.642C366.817 209.522 372.382 203.505 375.93 195.983C376.913 193.901 377.827 191.792 378.769 189.694C379.717 190.1 380.671 190.511 381.619 190.917L378.309 211.316C377.906 213.542 377.497 215.773 377.094 217.999Z" fill="#70B464"/>
<path d="M96.1064 282.185C97.77 277.407 99.0816 272.485 101.165 267.873C105.066 259.24 109.455 250.811 113.543 242.253C115.649 237.838 116.887 233.215 116.41 228.303C118.908 228.111 121.412 227.924 123.911 227.732C122.389 230.85 120.901 233.983 119.329 237.08C117.023 241.618 114.661 246.123 112.322 250.645C110.642 253.523 108.955 256.395 107.275 259.272C107.576 259.416 107.871 259.566 108.172 259.71C109.79 256.683 111.414 253.661 113.032 250.634C117.069 243.31 121.111 235.985 125.148 228.661C128.05 229.568 130.19 232.51 130.008 236.466C129.832 240.299 128.975 244.105 128.413 247.922C128.18 248.659 127.942 249.39 127.709 250.127C124.722 255.786 120.192 260.206 115.303 264.456C108.717 270.174 102.488 276.254 96.1064 282.18V282.185ZM105.622 262.849C104.703 264.285 103.788 265.726 102.869 267.163C103.158 267.296 103.448 267.435 103.732 267.568C104.413 266.041 105.094 264.52 105.776 262.993L105.912 262.523C105.815 262.63 105.713 262.742 105.617 262.849H105.622ZM107.099 260.633L107.195 260.479L107.042 260.463L107.099 260.633ZM106.525 261.696L106.622 261.541L106.468 261.52L106.519 261.696H106.525Z" fill="#A8D99C"/>
<path d="M10.7072 190.736C11.803 191.243 12.8989 191.745 14.3467 192.412C18.4744 186.337 22.5908 180.262 26.7129 174.192C26.9059 174.4 27.0933 174.608 27.2864 174.816C23.3233 180.961 19.3658 187.111 15.3971 193.272C16.0216 193.731 16.4475 194.072 16.9074 194.371C17.1345 194.516 17.4184 194.58 17.6739 194.681C18.3552 195.204 19.0365 195.733 19.7179 196.256C26.0543 202.475 29.9265 209.762 30.3183 218.635C38.4091 216.414 46.1877 214.279 53.9719 212.143C53.9605 212.528 53.9435 212.918 53.9322 213.302C47.8683 215.026 41.8101 216.751 35.7462 218.475C35.468 218.512 35.1785 218.523 34.9059 218.587C31.9043 219.274 30.1858 221.066 29.7505 223.963C27.5702 238.484 13.7221 250.058 -1.64193 250.197C-18.4254 250.346 -32.4155 239.642 -35.2146 224.71C-36.7363 216.591 -34.6185 209.25 -30.5078 202.224C-28.7874 200.249 -27.0727 198.269 -25.3523 196.293C-25.2445 196.272 -25.1536 196.219 -25.0855 196.138C-24.0578 195.391 -23.0301 194.638 -21.9968 193.886C-21.4006 193.523 -20.7988 193.16 -20.2026 192.791C-18.3346 191.638 -16.4723 190.49 -14.6043 189.337C-12.4695 189.092 -10.3403 188.846 -8.20544 188.6C-6.30339 188.44 -4.40133 188.28 -2.49928 188.125C-1.83498 188.152 -1.165 188.173 -0.495018 188.2C1.1856 188.446 2.86622 188.691 4.54685 188.937C6.6022 189.535 8.65756 190.133 10.7186 190.731L10.7072 190.736ZM8.04436 201.557C8.24308 201.274 8.4418 200.991 8.64053 200.708C10.0827 198.722 11.5248 196.742 13.16 194.494C11.7292 193.848 10.6732 193.373 9.61142 192.893C7.57878 192.252 5.54613 191.606 3.51349 190.965C2.38929 190.848 1.26509 190.725 0.135208 190.608C-0.495022 190.538 -1.11958 190.474 -1.74981 190.405C-3.48721 190.544 -5.22461 190.682 -6.96201 190.821C-9.5965 191.457 -12.2253 192.092 -14.8598 192.727C-17.1707 194.206 -19.6178 195.525 -21.7583 197.201C-23.9953 198.952 -25.9371 201.045 -28.0095 202.988C-33.6589 210.334 -34.9648 218.518 -32.3587 227.049C-27.9811 241.388 -14.0025 249.695 1.8499 247.821C16.05 246.139 28.1267 233.257 27.8712 220.055C27.7065 219.975 27.5419 219.826 27.3772 219.826C18.7697 219.804 10.1622 219.783 1.54898 219.815C1.02662 219.815 0.515621 220.295 -0.0180893 220.514C-1.21042 221.006 -2.73774 222.132 -3.53831 221.785C-4.57166 221.342 -5.03157 219.714 -5.73561 218.598C-4.24803 217.706 -2.75478 216.82 -1.2672 215.929C-0.608574 214.877 0.0443649 213.83 0.702988 212.779C2.99113 209.229 5.27928 205.678 7.56742 202.128L7.49361 202.102L8.06707 201.541L8.03868 201.562L8.04436 201.557ZM11.5759 198.877C8.84492 203.025 6.11959 207.173 3.38858 211.327C3.03088 211.877 2.6675 212.421 2.3098 212.971C1.73067 213.75 1.01527 214.471 0.600792 215.32C0.231735 216.089 -0.256554 217.37 0.112503 217.754C0.668926 218.342 1.91236 218.352 2.86623 218.603C3.0763 218.646 3.29205 218.694 3.50213 218.737C11.6611 218.785 19.8257 218.838 27.9847 218.886C27.962 218.801 27.9393 218.715 27.9223 218.625C27.8314 211.108 24.7881 204.739 19.3829 199.294C18.446 198.589 17.5149 197.89 16.5781 197.19C15.7661 196.485 14.9485 195.775 13.9833 194.943C13.0294 196.502 12.3027 197.692 11.5759 198.882V198.877Z" fill="#2254B5"/>
<path d="M95.2853 220.68C94.4223 221.433 93.5593 222.185 92.6963 222.938C92.6452 221.486 92.5941 220.034 92.5487 218.587C93.0369 215.624 93.1618 212.56 94.0873 209.72C97.0398 200.607 103.62 194.409 112.631 190.336C115.248 189.706 117.86 189.028 120.495 188.456C124.821 187.522 124.832 187.554 124.299 183.411C124.282 183.278 124.072 183.166 123.686 182.776C120.171 184.586 116.588 186.428 113 188.275C108.373 190.448 103.7 192.551 99.1349 194.841C97.9028 195.461 96.9887 196.646 95.4443 197.996C94.4393 198.189 92.4578 198.215 90.8283 198.952C85.8035 201.216 80.8922 203.698 76.015 206.228C75.3109 206.591 74.6977 207.611 74.5785 208.401C74.1015 211.572 72.4209 212.907 68.7871 212.709C69.2981 211.396 69.8035 210.083 70.3145 208.764C70.093 208.609 69.8659 208.455 69.6445 208.3C68.5998 209.426 67.5494 210.547 66.5047 211.674C65.5338 211.273 64.5629 210.868 63.5977 210.467C65.0398 208.209 66.4876 205.951 67.9355 203.698C69.741 204.072 71.5465 204.445 73.3521 204.814C73.7098 205.043 74.2492 205.54 74.3911 205.454C75.6118 204.707 76.7644 203.858 77.934 203.041C78.3031 202.887 78.6722 202.726 79.0355 202.572L78.9844 202.604C82.1129 201.167 85.247 199.737 88.3755 198.301C89.2669 197.906 90.1526 197.516 90.9986 197.142C88.4209 196.747 86.0703 196.389 83.7254 196.026C84.0831 194.66 84.4408 193.288 84.7985 191.921L89.0738 191.409C90.3173 192.668 96.3414 194.521 97.5281 193.928C102.74 191.323 107.93 188.681 113.125 186.054C116.532 184.319 119.938 182.584 123.345 180.844C123.884 180.31 124.974 179.642 124.872 179.269C124.327 177.309 123.481 175.43 122.737 173.519C121.642 172.9 120.597 171.891 119.433 171.741C117.321 171.469 115.141 171.709 112.989 171.736C107.515 171.731 102.036 171.656 96.5685 171.768C95.2456 171.795 93.9397 172.435 92.6281 172.793C92.4181 172.056 92.2023 171.325 91.9922 170.588C93.4968 170.562 94.9958 170.535 96.5004 170.513C102.019 170.519 107.532 170.529 113.051 170.535C115.123 170.546 117.196 170.594 119.268 170.551C120.659 170.524 122.363 168.522 121.954 167.396C119.609 160.995 117.321 154.573 114.811 148.225C113.568 145.091 112.875 145 109.9 146.639C109.451 145.908 109.009 145.177 108.56 144.445C109.803 144.146 111.053 143.847 112.517 143.495C111.586 141.573 110.939 139.593 109.741 137.975C108.742 136.624 107.572 134.697 105.085 135.914C104.705 136.037 104.324 136.16 103.95 136.283C103.49 135.797 103.03 135.306 102.57 134.82C103.07 134.462 103.569 134.099 104.075 133.741C105.165 133.752 106.255 133.763 107.351 133.773C109.241 136.245 111.643 138.503 112.921 141.226C116.146 148.086 118.859 155.154 121.806 162.132C122.147 162.933 122.641 163.68 123.067 164.454C123.038 164.652 123.01 164.849 122.982 165.041C123.135 164.956 123.288 164.876 123.441 164.791C125.116 167.257 126.803 169.713 128.466 172.184C129.102 173.129 129.693 174.101 130.363 175.163C129.238 175.82 128.296 176.365 127.353 176.914C126.973 177.374 126.28 177.827 126.263 178.297C126.167 181.516 126.212 184.735 126.212 188.147H129.091C132.27 188.899 135.456 189.647 138.635 190.4C140.497 191.451 142.365 192.508 144.228 193.56C144.631 193.939 145.028 194.313 145.431 194.692C145.068 195.188 144.705 195.685 144.347 196.187C142.365 195.263 140.384 194.334 138.402 193.411C135.45 192.54 132.503 191.665 129.551 190.795C128.534 190.635 127.518 190.474 126.167 190.266C126.167 198.621 126.167 206.485 126.167 214.348C125.786 214.348 125.412 214.348 125.031 214.348C124.991 214.172 124.952 213.996 124.918 213.82C124.952 206.752 124.974 199.683 125.031 192.615C125.043 191.136 124.571 190.01 122.783 190.464C119.189 191.377 115.646 192.476 112.086 193.496C102.303 197.089 93.1562 210.067 95.3251 220.691L95.2853 220.68Z" fill="#2254B5"/>
<path d="M347.617 74.473C342.66 74.0513 338.334 75.167 334.689 78.5944C333.945 79.2937 332.196 79.1549 330.907 79.203C330.306 79.2243 329.641 78.8506 329.085 78.5303C325.769 76.6084 322.459 76.16 319.126 78.4663C319.251 77.5907 319.285 76.6885 319.518 75.8397C321.84 67.33 324.191 58.831 326.53 50.332C336.67 52.9159 344.67 57.742 347.117 68.1361C347.6 70.1808 347.469 72.3536 347.617 74.473Z" fill="#70B464"/>
<path d="M94.8439 282.148C94.1171 281.892 93.1576 281.822 92.7147 281.336C91.4429 279.927 90.472 278.277 89.1945 276.873C88.7346 276.371 87.4173 275.87 87.0199 276.115C82.3982 278.987 77.6231 277.92 72.8595 276.729C71.0312 276.275 69.2882 275.517 66.966 274.711C71.6161 271.198 76.0334 270.43 80.9617 271.812C82.1994 272.159 83.5167 272.255 84.7942 272.464L84.7033 272.485C84.8907 272.661 85.0781 272.843 85.2654 273.019C85.2654 272.448 85.5209 271.684 85.2257 271.343C82.4379 268.134 79.5593 265 76.709 261.84L76.7431 261.872C76.5444 261.685 76.3456 261.493 76.1412 261.306L76.1753 261.338C75.9198 261.151 75.67 260.959 75.4145 260.772C71.1505 261.317 66.8978 262.069 62.6111 262.32C59.8176 262.486 56.9844 261.888 55.0937 259.064C60.2491 256.074 65.5238 255.092 71.3208 257.153C71.4855 256.832 71.6501 256.512 71.8148 256.197C68.7204 253.987 65.9156 251.179 62.4692 249.716C58.1313 247.88 53.7424 246.342 50.5912 242.835C49.7453 241.895 49.274 240.662 48.3145 239.023C53.5039 238.847 57.3875 240.123 60.675 242.776C62.367 244.143 63.6331 245.974 65.132 247.554C65.6657 248.114 66.3357 248.558 66.9432 249.054C68.8794 251.099 70.8098 253.143 72.7459 255.188L73.5238 254.809C71.5139 249.855 71.5593 245.055 74.4266 240.47C74.631 240.288 74.8297 240.112 75.0341 239.93C78.5089 245.846 80.7402 251.905 77.6856 258.647C77.5096 259.032 77.6061 259.72 77.8786 260.051C78.9915 261.397 80.2236 262.662 81.978 264.573C81.3194 258.066 81.8417 252.748 87.6217 248.851C89.0185 255.717 89.6771 262.112 84.6068 267.712C86.3158 269.837 88.0305 271.743 89.484 273.82C91.3804 276.526 93.0667 279.361 94.8439 282.137V282.148ZM73.626 255.519L73.5295 255.701L73.6884 255.711L73.6203 255.519H73.626Z" fill="#10652F"/>
<path d="M274.38 218.523C276.662 215.245 279.024 211.972 277.167 207.766C276.895 207.146 276.503 206.415 275.941 206.084C270.206 202.753 265.886 198.53 264.143 192.097C263.501 189.737 261.497 187.698 260.111 185.515C259.998 183.763 259.856 182.012 259.776 180.256C259.555 175.35 259.367 170.444 259.163 165.538C262.502 164.523 265.84 163.509 269.179 162.495C268.685 174.293 270.854 185.707 275.998 196.405C279.086 202.827 283.373 208.743 287.126 214.882C287.779 215.944 288.472 216.985 289.147 218.037C287.91 218.133 286.672 218.229 285.434 218.325C281.749 218.389 278.064 218.453 274.385 218.517L274.38 218.523Z" fill="#FFDAB9"/>
<path d="M94.8431 282.148C93.0659 279.366 91.3796 276.532 89.4832 273.83C88.0297 271.759 86.315 269.848 84.606 267.723C89.6763 262.117 89.0233 255.727 87.6209 248.862C81.8353 252.759 81.3186 258.076 81.9772 264.584C80.2228 262.667 78.9907 261.407 77.8778 260.062C77.6053 259.736 77.5088 259.042 77.6848 258.658C80.7395 251.915 78.5081 245.856 75.0333 239.941C73.699 235.665 72.3704 231.389 71.0361 227.118C76.8275 224.662 80.3023 225.815 82.8629 231.218C84.2029 234.047 85.2646 236.989 86.4513 239.882C89.1142 249.182 92.1064 258.418 94.3093 267.819C95.4279 272.597 95.1383 277.669 95.4903 282.607C95.2746 282.457 95.0588 282.303 94.8431 282.153V282.148Z" fill="#A8D99C"/>
<path d="M68.7873 212.704C72.421 212.901 74.1017 211.572 74.5786 208.396C74.6978 207.606 75.311 206.586 76.0151 206.223C80.898 203.698 85.8092 201.21 90.8284 198.946C92.4579 198.215 94.4395 198.183 95.4444 197.991C96.9888 196.64 97.9029 195.455 99.135 194.836C103.7 192.545 108.367 190.442 113 188.269C112.875 188.958 112.75 189.641 112.625 190.33C103.615 194.403 97.0342 200.601 94.0818 209.714C93.162 212.554 93.0371 215.619 92.5431 218.582C83.2826 218.55 74.0222 218.518 64.7617 218.486C66.1017 216.558 67.4416 214.626 68.7816 212.699L68.7873 212.704Z" fill="#FFDAB9"/>
<path d="M398.933 135.332C397.315 135.994 395.703 136.662 394.085 137.324C391.121 138.418 388.078 139.368 385.205 140.65C382.008 142.075 379.311 141.845 376.739 139.502C374.86 137.788 372.816 136.235 370.84 134.612C371.47 133.282 371.833 131.756 372.776 130.667C375.149 127.928 376.654 125.109 375.535 121.463C375.263 120.566 375.484 119.536 375.479 118.569C377.415 121.986 379.584 125.307 381.219 128.851C382.536 131.708 384.444 132.706 387.561 132.113C388.935 131.852 390.337 131.702 391.728 131.505C393.199 131.345 394.669 131.184 396.14 131.024C397.826 130.837 399.558 130.816 401.171 130.389C402.022 130.165 402.783 129.311 403.368 128.59C404.248 127.511 404.935 126.294 406.116 124.516C406.519 126.091 406.729 126.887 407.047 128.136C409.148 127.196 411.135 126.31 413.247 125.365C414.661 126.983 414.44 128.697 413.219 130.175C411.141 132.69 408.569 133.95 404.861 133.549C402.987 133.346 400.921 134.697 398.939 135.343L398.933 135.332Z" fill="#FAA086"/>
<path d="M285.427 218.331C286.665 218.235 287.902 218.139 289.14 218.043C292.706 218.053 296.266 218.064 299.831 218.075C314.23 218.075 328.629 218.075 343.028 218.075C343.187 217.904 343.351 217.728 343.51 217.557C343.726 215.128 343.942 212.704 344.186 209.976C338.877 210.531 334.84 208.444 331.366 205.529C328.799 203.378 326.75 200.687 324.473 198.237C324.575 198.023 324.683 197.815 324.785 197.601L328.845 197.665C329.384 197.719 329.929 197.772 330.469 197.82C333.325 199.358 336.18 200.895 339.036 202.433C340.121 203.725 341.205 205.017 342.761 206.869C343.351 205.513 344.044 204.638 344.044 203.762C344.044 201.568 343.738 199.368 343.55 197.169C344.737 196.966 345.912 196.704 347.11 196.566C352.782 195.904 355.86 192.028 358.948 188.157C360.135 188.035 361.322 187.917 362.991 187.746C358.897 194.5 354.673 200.351 346.162 201.701V218.358C354.145 218.358 362.043 218.358 369.929 218.358C366.25 218.422 362.582 218.534 358.909 218.534C335.442 218.55 311.97 218.544 288.504 218.534C287.482 218.534 286.46 218.395 285.438 218.32L285.427 218.331Z" fill="#A8D99C"/>
<path d="M377.095 218C377.499 215.774 377.907 213.542 378.31 211.316C379.673 212.314 380.888 213.718 382.433 214.215C384.329 214.823 386.504 214.679 388.553 214.855C388.315 215.896 388.076 216.932 387.838 217.973C385.198 224.502 382.563 231.031 379.917 237.56C379.65 238.222 379.349 238.874 379.066 239.525C377.481 238.964 375.892 238.404 374.308 237.843C375.239 231.229 376.17 224.614 377.101 218H377.095Z" fill="#FAA086"/>
<path d="M394.215 218C393.476 217.979 392.738 217.952 392 217.93C391.858 217.632 391.722 217.333 391.58 217.039C392.551 216.009 393.511 214.962 394.504 213.953C396.911 211.503 399.33 209.068 401.743 206.629C401.919 206.762 402.101 206.896 402.277 207.029C402.652 207.184 403.061 207.526 403.39 207.467C407.143 206.773 410.885 206.02 414.632 205.278C418.237 206.132 422.047 206.522 425.329 209.661C421.144 211.001 417.289 212.24 413.428 213.473C408.483 214.167 403.572 214.503 398.893 211.871C397.247 214.028 395.731 216.014 394.209 218.005L394.215 218Z" fill="#10652F"/>
<path d="M362.469 110.112C360.59 111.404 358.733 111.762 356.939 109.973C357.467 108.404 357.654 106.947 356.076 105.697C354.526 104.469 353.084 103.108 351.625 101.779C350.148 100.428 349.842 97.2837 351.006 95.7996C356.547 96.9848 362.038 96.3495 367.517 95.3672C368.664 100.129 367.5 104.053 363.122 107.064C362.464 107.518 362.662 109.071 362.469 110.118V110.112Z" fill="#FAA086"/>
<path d="M74.4262 240.475C71.5533 245.061 71.5079 249.86 73.5235 254.814L72.7456 255.193C70.8095 253.149 68.8734 251.104 66.9429 249.059C63.2183 242.824 62.4291 236.599 67.0962 230.444C67.7321 229.606 68.6463 228.954 69.4298 228.218C69.8329 228.821 70.3666 229.381 70.6164 230.038C71.928 233.503 73.1658 236.994 74.4262 240.48V240.475Z" fill="#A8D99C"/>
<path d="M122.459 73.0786C120.557 72.3953 118.525 71.8828 116.776 70.9219C116.129 70.5642 115.777 69.0801 115.975 68.2472C116.1 67.7241 117.718 66.9393 118.269 67.1582C126.224 70.3079 130.914 65.594 135.547 60.8907C136.881 59.54 137.772 57.8157 138.97 56.3369C139.368 55.8511 140.373 55.1945 140.628 55.3386C141.241 55.6909 141.747 56.4277 141.963 57.1003C142.127 57.6235 141.945 58.3656 141.65 58.8781C138.465 64.3821 134.252 68.9679 128.046 71.5838C126.36 72.2939 124.458 72.5555 122.459 73.0733V73.0786Z" fill="#0C2C7E"/>
<path d="M65.4867 109.087C63.7436 109.343 62.1539 109.242 61.2852 107.475C61.5804 106.829 62.0233 106.204 62.1539 105.526C63.0282 100.871 65.9409 98.1271 70.7046 96.7124C72.1354 96.2906 73.2142 94.8279 74.8267 93.5413C75.2582 95.4792 75.701 97.4918 76.1609 99.5044C76.3313 100.241 76.5414 100.967 76.7287 101.693C75.0595 103.177 73.5094 104.806 71.6812 106.087C70.6138 106.829 69.024 107.507 67.8146 107.331C65.9693 107.064 65.8104 107.987 65.4867 109.087Z" fill="#FAA086"/>
<path d="M284.537 277.317C284.617 281.55 283.589 283.328 280.557 284.203C277.565 285.068 273.062 283.296 271.024 280.44C270.348 279.495 269.713 278.523 269.06 277.562C269.945 276.244 270.825 274.925 271.705 273.606C271.853 273.558 271.995 273.489 272.131 273.403C274.664 273.766 277.463 273.254 279.893 275.4C278.502 275.704 277.474 275.827 276.543 276.174C276.026 276.366 275.663 276.938 275.231 277.333C276.725 278.181 278.121 279.345 279.739 279.783C281.068 280.141 282.374 279.425 281.812 277.61C281.363 276.147 282.033 275.832 283.402 276.329C283.538 276.484 283.674 276.644 283.81 276.799C284.066 276.98 284.327 277.162 284.583 277.349L284.543 277.322L284.537 277.317Z" fill="#F3C39F"/>
<path d="M174.327 37.6362C173.855 37.9939 173.078 38.784 172.124 39.2645C168.74 40.9728 165.333 42.6438 161.853 44.1653C160.955 44.555 159.275 44.7846 158.792 44.3148C157.515 43.0762 158.111 41.5708 159.564 40.7379C162.687 38.9442 165.912 37.3159 169.12 35.6556C169.773 35.3193 170.517 35.1378 171.227 34.8976C173.117 34.2676 174.389 35.0951 174.332 37.6309L174.327 37.6362Z" fill="#0C2C7E"/>
<path d="M396.133 131.019C394.662 131.179 393.191 131.339 391.721 131.499C388.013 124.768 384.306 118.03 380.337 110.823C386.798 117.085 391.698 123.881 396.127 131.024L396.133 131.019Z" fill="#70B464"/>
<path d="M10.7438 129.604C9.28461 130.517 8.53515 131.296 7.63238 131.504C3.71471 132.396 -0.231342 133.186 -4.20579 133.843C-4.94958 133.966 -6.528 133.304 -6.53368 132.989C-6.55071 132.092 -6.13056 130.533 -5.5571 130.394C-1.03191 129.273 3.55574 128.355 8.16609 127.57C8.70548 127.479 9.47766 128.574 10.7438 129.615V129.604Z" fill="#0C2C7E"/>
<path d="M367.525 95.3676C362.046 96.3499 356.555 96.9852 351.014 95.8C351.048 94.2519 351.082 92.6983 351.116 91.1501C356.703 94.0276 362.432 93.1628 368.178 91.7107C367.962 92.9279 367.746 94.1504 367.525 95.3676Z" fill="#ED5A33"/>
<path d="M374.309 237.843C375.893 238.404 377.483 238.964 379.067 239.525C380.697 241.361 382.332 243.198 384.302 245.413C379.567 246.059 375.768 244.324 371.118 243.267C372.305 241.249 373.304 239.546 374.309 237.843Z" fill="#FFA653"/>
<path d="M51.7537 224.47C51.8843 224.353 52.0206 224.241 52.1512 224.123C49.0227 222.047 51.4414 220.381 52.6167 218.63C52.8666 218.448 53.1221 218.262 53.3719 218.08C54.5415 218.614 55.7111 219.142 56.8864 219.676C58.0163 220.755 59.1405 221.833 60.2704 222.911C60.5997 223.258 60.9347 223.6 61.264 223.947C61.9737 226.825 60.049 226.75 57.9936 226.52C55.9155 225.837 53.8318 225.159 51.7537 224.476V224.47Z" fill="#2254B5"/>
<path d="M53.3783 218.075C53.1285 218.256 52.873 218.443 52.6232 218.624C46.9965 218.576 41.3698 218.523 35.7432 218.475C41.807 216.751 47.8652 215.026 53.9291 213.302C53.7474 214.893 53.56 216.484 53.3783 218.069V218.075Z" fill="#FFDAB9"/>
<path d="M241.493 211.065C246.495 211.642 250.333 213.857 252.712 218.117C250.226 218.278 247.75 218.438 245.275 218.598C244.014 216.089 242.754 213.574 241.493 211.065Z" fill="#FFDAB9"/>
<path d="M283.401 276.324C282.027 275.827 281.357 276.142 281.811 277.605C282.374 279.425 281.068 280.141 279.739 279.778C278.121 279.34 276.724 278.176 275.231 277.327C275.662 276.927 276.026 276.361 276.542 276.169C277.474 275.822 278.496 275.699 279.892 275.395C277.462 273.249 274.663 273.761 272.131 273.398C274.277 273.265 276.423 273.131 278.569 272.992C280.182 274.103 281.789 275.213 283.401 276.324Z" fill="#029ACE"/>
<path d="M125.626 273.42C123.838 273.275 122.049 273.131 120.261 272.987C124.11 270.862 127.96 268.743 131.804 266.618C130.458 268.935 129.112 271.258 127.767 273.574C127.051 273.521 126.336 273.473 125.621 273.42H125.626Z" fill="#0470AA"/>
<path d="M278.563 272.998C276.417 273.131 274.27 273.265 272.124 273.404C271.994 273.489 271.852 273.558 271.698 273.606C270.256 271.316 268.814 269.021 267.366 266.73C271.097 268.823 274.827 270.91 278.563 273.003V272.998Z" fill="#0470AA"/>
<path d="M61.269 223.942C60.9397 223.595 60.6047 223.253 60.2754 222.906C61.0589 221.47 61.8425 220.028 62.626 218.592C63.9148 216.286 65.2094 213.98 66.4982 211.674C67.543 210.547 68.5933 209.426 69.6381 208.3C69.8595 208.454 70.0866 208.609 70.308 208.764C69.797 210.077 69.2917 211.391 68.7807 212.709C67.4408 214.636 66.1008 216.569 64.7608 218.496C63.5969 220.311 62.4273 222.132 61.2633 223.947L61.269 223.942Z" fill="#01515C"/>
<path d="M51.7546 224.47C53.8327 225.153 55.9165 225.831 57.9945 226.515C54.5822 226.509 51.1755 226.499 47.7632 226.493C47.6326 226.36 47.4963 226.232 47.3657 226.098C47.0705 224.982 47.2805 224.246 48.7624 224.363C49.7561 224.443 50.7553 224.438 51.7546 224.47Z" fill="#01515C"/>
<path d="M76.707 261.84C79.563 264.995 82.4416 268.134 85.2237 271.343C85.5189 271.684 85.2634 272.453 85.2634 273.019C85.0761 272.843 84.8887 272.661 84.7013 272.485L84.7922 272.464C82.47 269.677 80.1194 266.917 77.8483 264.093C77.3259 263.442 77.0761 262.593 76.707 261.84Z" fill="#44B6D8"/>
<path d="M391.574 217.039C391.716 217.338 391.852 217.637 391.994 217.93C390.609 217.946 389.223 217.957 387.838 217.973C388.076 216.932 388.315 215.896 388.553 214.855C388.894 214.492 389.235 214.124 389.581 213.761C390.245 214.855 390.91 215.944 391.58 217.039H391.574Z" fill="#70B464"/>
<path d="M76.1387 261.312C76.3374 261.499 76.5361 261.691 76.7405 261.878C76.5418 261.691 76.3431 261.499 76.1387 261.312Z" fill="#44B6D8"/>
<path d="M132.338 266.009L131.771 266.655C131.958 266.442 132.151 266.223 132.338 266.009Z" fill="#0470AA"/>
<path d="M284.577 277.343C284.321 277.162 284.066 276.975 283.805 276.793C284.06 276.975 284.316 277.162 284.577 277.343Z" fill="#029ACE"/>
<path d="M144.198 193.56C142.336 192.508 140.468 191.451 138.605 190.399C138.435 180.897 138.452 171.389 138.054 161.891C137.543 149.533 135.267 137.393 132.178 125.381C132.047 124.863 132.013 124.324 132.365 123.737C140.416 146.393 144.203 169.691 144.192 193.56H144.198Z" fill="#10652F"/>
<path d="M178.441 189.775C175.801 191.643 173.166 193.517 170.526 195.386C172.303 185.387 170.997 175.74 167 166.291C173.075 173.151 176.726 181.041 178.441 189.775Z" fill="#10652F"/>
<path d="M84.3187 131.157C82.5188 126.406 80.7247 121.649 78.9248 116.898C80.2477 115.804 81.5706 114.715 83.1718 113.391C86.2321 119.354 86.5898 125.167 84.3187 131.157Z" fill="#10652F"/>
<path d="M144.311 196.187C144.675 195.69 145.038 195.194 145.396 194.692C151.607 198.925 155.247 204.787 157.489 211.535C156.927 212.592 156.365 213.654 155.803 214.717C155.349 213.083 155.042 211.402 154.418 209.832C152.34 204.6 149.325 199.977 144.317 196.726C144.317 196.544 144.311 196.368 144.306 196.187H144.311Z" fill="#2254B5"/>
<path d="M107.324 133.779C106.234 133.768 105.144 133.757 104.048 133.747C101.499 128.643 98.9497 123.545 96.4004 118.441C101.124 122.867 104.366 128.232 107.324 133.779Z" fill="#70B464"/>
<path d="M102.548 134.825C103.008 135.31 103.468 135.802 103.928 136.287C104.047 137.206 104.166 138.124 104.2 138.353C102.145 138.503 100.595 138.695 99.0448 138.711C97.8468 138.722 96.6431 138.514 95.4395 138.407C95.6325 137.633 95.8199 136.859 96.0129 136.084C98.0115 134.857 99.9817 133.495 102.542 134.819L102.548 134.825Z" fill="#FAA086"/>
<path d="M129.061 188.146H126.183C126.183 184.735 126.137 181.516 126.234 178.297C126.245 177.827 126.943 177.373 127.324 176.914C127.903 180.656 128.482 184.399 129.061 188.141V188.146Z" fill="#70B464"/>
<path d="M259.151 165.538C259.356 170.444 259.549 175.35 259.764 180.256C259.844 182.012 259.986 183.763 260.099 185.514C255.415 182.012 250.055 181.26 244.31 182.082C244.633 175.937 244.962 169.792 245.286 163.642C245.519 160.461 245.718 157.279 245.985 154.097C246.859 143.714 247.773 133.335 248.647 122.952C249.102 117.576 249.459 112.189 249.942 106.813C250.373 101.993 250.924 97.1773 251.418 92.3619C251.81 92.3299 252.207 92.2979 252.599 92.2605C253.008 94.2998 253.615 96.3285 253.797 98.3838C254.802 109.755 255.745 121.126 256.63 132.508C257.13 138.962 257.505 145.422 257.891 151.882C258.124 155.773 258.237 159.676 258.476 163.568C258.515 164.235 258.913 164.876 259.146 165.532L259.151 165.538Z" fill="#0C2C7E"/>
<path d="M245.287 163.642C244.963 169.787 244.634 175.931 244.31 182.081C242.766 181.948 241.221 181.814 239.677 181.681C239.444 181.393 239.211 181.099 238.979 180.811L238.967 180.837C238.303 178.643 237.633 176.449 236.969 174.255C235.958 169.135 234.947 164.01 233.942 158.891C237.457 161.047 241.301 162.505 245.292 163.653L245.287 163.642Z" fill="#FFDAB9"/>
<path d="M280.943 125.007C280.205 126.577 279.478 128.152 278.734 129.721C278.008 131.248 277.275 132.764 276.543 134.291C274.959 130.314 276.457 127.159 280.949 125.013L280.943 125.007Z" fill="#FFDAB9"/>
<path d="M281.602 124.457C281.391 124.649 281.176 124.842 280.96 125.034C281.17 124.842 281.386 124.649 281.602 124.457Z" fill="#44B6D8"/>
<path d="M175.094 272.363C174.583 272.768 174.106 273.489 173.555 273.537C166.77 274.146 159.979 274.696 153.183 275.187C149.544 275.448 145.893 275.753 142.253 275.673C139.318 275.603 136.399 274.984 133.47 274.61C139.647 268.588 145.825 262.566 152.002 256.55C152.888 256.267 153.796 256.027 154.659 255.701C164.856 251.847 175.281 248.777 186.199 247.325C188.641 249.305 191.457 250.24 194.705 250.17C198.543 250.09 202.426 250.443 206.213 249.999C208.581 249.722 210.807 248.323 213.095 247.426C224.802 249.327 236.164 252.338 247.071 256.79C247.917 257.329 248.899 257.751 249.592 258.429C255.042 263.805 260.431 269.229 265.841 274.642C262.605 275.011 259.374 275.651 256.132 275.678C250.784 275.726 245.407 275.63 240.093 275.128C235.193 274.664 230.355 273.58 225.489 272.768C227.727 272.443 229.981 272.192 232.195 271.77C234.841 271.263 235.715 269.747 234.892 267.35C234.449 266.058 233.819 264.819 233.467 263.511C232.808 261.045 231.866 260.335 229.509 261.67C225.217 264.099 220.544 265.188 215.786 266.309C214.446 266.624 213.464 268.263 212.317 269.293C208.309 269.64 204.306 270.222 200.291 270.265C196.186 270.307 192.081 269.832 187.976 269.565C187.136 269.512 186.301 269.405 185.467 269.32C184.257 266.923 182.299 265.604 179.499 264.947C176.07 264.147 172.601 263.218 169.433 261.782C164.777 259.668 164.891 259.459 162.847 263.821C162.739 264.051 162.37 264.184 162.301 264.414C161.132 268.268 160.672 270.217 165.986 270.895C169.035 271.284 172.056 271.872 175.088 272.368L175.094 272.363Z" fill="#2254B5"/>
<path d="M196.174 184.949C195.867 183.988 195.873 182.744 195.214 182.109C190.343 177.389 189.593 173.85 192.432 167.679C192.841 166.787 193.346 165.938 193.562 165.543C195.583 166.558 197.417 167.759 199.444 168.431C201.835 169.221 204.401 169.52 206.876 170.108C209.749 170.786 210.885 172.478 210.51 175.217C210.005 178.932 207.705 181.516 204.639 183.657C204.174 183.983 203.861 184.5 203.475 184.933C203.214 186.849 201.88 187.656 200.006 187.666C198.076 187.677 196.588 186.946 196.174 184.965V184.949Z" fill="#F3C39F"/>
<path d="M153.909 218.587C150.298 218.555 146.686 218.528 143.081 218.496C143.496 211.236 143.91 203.981 144.33 196.72C149.338 199.972 152.359 204.595 154.431 209.827C155.055 211.396 155.362 213.083 155.816 214.711C155.18 216.003 154.544 217.295 153.909 218.587Z" fill="#FFDAB9"/>
<path d="M125.626 273.419C126.342 273.473 127.057 273.521 127.773 273.574C128.624 274.877 129.47 276.179 130.322 277.482C128.346 280.989 125.842 283.893 121.26 284.353C118.098 284.668 115.015 282.639 114.81 280.023C114.674 278.288 115.1 276.702 117.15 275.87C117.36 276.179 117.564 276.366 117.626 276.59C117.91 277.594 118.041 279.425 118.427 279.473C119.824 279.639 121.357 279.361 122.714 278.923C123.316 278.731 123.855 277.775 123.957 277.103C124.003 276.804 122.947 276.227 122.299 275.998C121.476 275.704 120.568 275.635 119.693 275.464C119.659 275.192 119.625 274.919 119.591 274.647L125.621 273.419H125.626Z" fill="#F3C39F"/>
<path d="M343.023 218.074C328.624 218.074 314.226 218.074 299.827 218.074C298.481 213.611 297.118 209.154 295.807 204.68C295.512 203.671 295.421 202.614 295.233 201.578C295.336 201.514 295.432 201.445 295.534 201.381C295.926 202.005 296.318 202.63 297.05 203.799C298.379 201.247 299.435 199.218 300.485 197.19C304.619 197.2 308.746 197.211 312.88 197.222C314.521 200.927 316.156 204.632 317.797 208.337C318.092 208.315 318.393 208.289 318.688 208.267C319.807 206.159 320.886 204.034 322.061 201.952C322.782 200.676 323.651 199.475 324.451 198.236C326.734 200.687 328.783 203.377 331.35 205.529C334.825 208.444 338.861 210.531 344.17 209.976C343.926 212.704 343.71 215.127 343.5 217.556C343.341 217.727 343.177 217.903 343.012 218.074H343.023Z" fill="#10652F"/>
<path d="M294.627 198.423C293.344 190.955 292.975 183.454 294.48 176.007C295.706 169.937 297.046 163.862 298.908 157.946C299.902 154.797 302.116 151.989 303.785 149.026C304.348 148.022 304.915 147.018 305.477 146.015C306.607 143.725 307.731 141.434 308.861 139.144C309.679 138.354 310.525 137.591 311.314 136.774C312.524 135.514 313.693 134.222 314.88 132.941C315.186 133.138 315.493 133.33 315.8 133.528C315.584 134.329 315.476 135.172 315.141 135.93C311.456 144.221 307.431 152.464 307.351 161.657C307.277 170.391 306.136 179.215 309.077 187.789C309.389 188.697 309.418 189.695 309.577 190.651C306.727 191.12 303.876 191.585 301.026 192.055C299.056 191.777 297.08 191.499 294.956 191.2V198.178C294.843 198.258 294.735 198.333 294.621 198.413L294.627 198.423Z" fill="#10652F"/>
<path d="M295.239 201.584C295.035 200.532 294.836 199.48 294.632 198.423C294.74 198.343 294.853 198.263 294.967 198.188C295.16 199.256 295.347 200.318 295.54 201.386C295.438 201.456 295.342 201.52 295.239 201.584Z" fill="#42B5D8"/>
<path d="M203.946 71.7925C205.661 76.0527 207.375 80.3128 209.096 84.5783C207.869 83.7402 206.535 83.0088 205.456 82.0318C204.673 81.3165 204.394 80.1046 203.594 79.4106C201.391 77.4941 202.015 75.5188 203.123 73.4421C203.412 72.8976 203.673 72.3424 203.946 71.7925Z" fill="#70B464"/>
<path d="M236.962 174.25C237.626 176.444 238.296 178.639 238.96 180.833C237.853 179.562 236.746 178.286 235.639 177.01C236.082 176.092 236.519 175.168 236.962 174.245V174.25Z" fill="#FFDAB9"/>
<path d="M175.092 272.362C172.06 271.866 169.04 271.284 165.991 270.889C160.676 270.205 161.136 268.257 162.306 264.408C162.374 264.184 162.743 264.045 162.851 263.815C164.9 259.454 164.787 259.662 169.437 261.776C172.599 263.212 176.074 264.141 179.504 264.942C182.297 265.593 184.262 266.912 185.471 269.314C183.79 273.163 182.729 273.67 178.425 272.789C177.335 272.565 176.205 272.501 175.092 272.368V272.362Z" fill="#F3C39F"/>
<path d="M212.322 269.282C213.469 268.252 214.457 266.613 215.791 266.298C220.549 265.177 225.222 264.088 229.515 261.659C231.871 260.324 232.813 261.029 233.472 263.5C233.818 264.808 234.454 266.047 234.897 267.339C235.72 269.736 234.846 271.252 232.2 271.759C229.986 272.186 227.732 272.432 225.495 272.757C222.412 272.485 219.34 272.128 216.251 271.978C214.213 271.882 212.845 271.193 212.322 269.282Z" fill="#F3C39F"/>
<path d="M238.974 180.806C239.206 181.094 239.439 181.388 239.672 181.676C239.439 181.383 239.206 181.094 238.974 180.806Z" fill="#42B5D8"/>
<path d="M53.3761 218.08C53.5578 216.489 53.7451 214.898 53.9268 213.312C53.9382 212.928 53.9552 212.538 53.9666 212.154C53.9949 211.85 54.0233 211.54 54.0517 211.236C54.8636 207.686 55.6699 204.135 56.4818 200.585C57.5549 197.612 58.628 194.633 59.7011 191.659C61.7338 187.629 63.7664 183.598 65.7763 179.615C59.0425 178.676 52.5471 177.774 46.0517 176.866C42.6621 175.852 39.2668 174.843 35.8771 173.828C31.1078 171.271 26.7303 168.34 24.5443 163.322C21.9552 154.983 26.2647 147.509 32.4421 143.153C35.9907 147.248 40.9701 147.867 46.0971 148.123C49.095 149.778 51.9964 151.604 55.1021 153.056C62.2391 156.393 69.1319 160.354 77.2909 161.261C77.7848 161.315 78.3129 161.651 78.6876 161.993C80.1127 163.274 81.5492 164.555 82.8608 165.933C86.6251 169.883 87.9878 174.341 85.5975 179.375C84.9161 180.811 83.8373 182.082 82.9403 183.427C77.9325 190.18 72.9303 196.934 67.9225 203.692C66.4804 205.951 65.0325 208.209 63.5904 210.462C63.051 211.166 62.5059 211.871 61.9665 212.576C60.6379 214.567 59.3037 216.558 57.9751 218.544C57.6117 218.918 57.254 219.292 56.8906 219.665C55.721 219.131 54.5514 218.603 53.3761 218.069V218.08Z" fill="#0C2C7E"/>
<path d="M24.5408 163.322C26.7324 168.34 31.11 171.271 35.8737 173.828C34.6756 173.674 33.3754 173.759 32.308 173.321C30.0539 172.403 28.4187 172.707 27.2889 174.821C27.0958 174.613 26.9084 174.405 26.7154 174.197C26.9936 173.551 27.2661 172.91 27.6295 172.067C26.2782 171.389 24.9155 170.828 23.6948 170.065C22.3776 169.237 20.7764 168.442 20.061 167.23C19.2321 165.831 19.2434 163.995 18.8857 162.351C20.3336 162.521 21.7814 162.666 23.2179 162.874C23.6721 162.938 24.0979 163.167 24.5408 163.322Z" fill="#095664"/>
<path d="M10.7089 190.736C8.6535 190.138 6.59247 189.54 4.53711 188.942C6.69467 187.276 8.85222 185.605 11.0098 183.934L12.1169 184.628C11.6457 186.662 11.1744 188.702 10.7032 190.736H10.7089Z" fill="#10652F"/>
<path d="M45.5328 111.891C45.3227 112.051 45.1126 112.211 44.9082 112.371C45.1183 112.211 45.3284 112.051 45.5328 111.891Z" fill="#FEFEFE"/>
<path d="M82.9422 183.433C83.8393 182.088 84.918 180.817 85.5994 179.381C87.9897 174.347 86.627 169.889 82.8627 165.938C81.5511 164.561 80.1146 163.28 78.6895 161.999C78.3148 161.662 77.7867 161.326 77.2928 161.267C69.1281 160.354 62.2353 156.393 55.104 153.062C51.9983 151.61 49.0913 149.784 46.0991 148.129L46.082 148.038C46.2751 147.889 46.4681 147.739 46.6555 147.595L46.6214 147.616C52.8329 146.709 59.0387 145.807 65.2502 144.899C69.8322 144.365 74.4142 143.831 78.9904 143.298C81.6704 143.298 84.3446 143.298 87.0245 143.292C87.8535 143.65 88.6767 144.008 89.5057 144.371C92.4581 145.689 93.1849 148.161 93.2417 150.916C93.3041 153.991 93.2587 157.066 93.2644 160.141C92.8385 163.627 92.407 167.113 91.9812 170.599C92.1913 171.336 92.407 172.067 92.6228 172.804C92.0947 173.994 91.2715 175.147 91.0841 176.386C90.3119 181.383 89.7271 186.401 89.0742 191.414C87.6491 191.585 86.2239 191.756 84.7988 191.927C84.1856 189.097 83.5667 186.268 82.9535 183.438L82.9422 183.433Z" fill="#0C2C7E"/>
<path d="M93.2587 160.13C93.2587 157.055 93.2984 153.98 93.236 150.905C93.1792 148.15 92.4581 145.678 89.5 144.36C92.5774 145.251 95.6547 146.143 98.7377 147.024C99.5156 147.243 100.31 147.403 101.1 147.59C102.258 147.771 103.416 147.958 104.575 148.14C104.552 149.165 104.535 150.19 104.512 151.215C105.568 150.691 106.664 150.216 107.669 149.618C108.117 149.351 108.401 148.839 108.753 148.433C108.975 148.529 109.202 148.62 109.423 148.716L113.029 170.535C107.51 170.529 101.997 170.519 96.478 170.513C98.7718 167.139 101.02 163.75 101.037 159.126C98.1984 159.495 95.7285 159.81 93.253 160.13H93.2587Z" fill="#FFDAB9"/>
<path d="M65.2499 144.889C59.0384 145.796 52.8326 146.698 46.6211 147.606C49.5906 143.538 52.4351 139.385 55.6033 135.455C56.4834 134.366 58.2492 133.533 59.7254 133.315C63.1832 132.802 65.6757 131.27 68.3897 127.49C68.7304 128.275 69.071 129.06 69.4117 129.845C66.2662 134.43 65.2669 139.539 65.2556 144.889H65.2499Z" fill="#FFDAB9"/>
<path d="M65.25 144.888C65.2614 139.539 66.2606 134.43 69.4061 129.844C70.7177 131.333 71.9498 132.892 73.3635 134.291C75.6063 136.517 77.9625 138.631 80.2734 140.793C79.8476 141.626 79.4217 142.459 78.9959 143.286C74.4139 143.82 69.832 144.354 65.2557 144.888H65.25Z" fill="#10652F"/>
<path d="M95.4439 138.407C96.6476 138.52 97.8456 138.722 99.0493 138.712C100.599 138.696 102.149 138.509 104.205 138.354C104.176 138.119 104.051 137.201 103.932 136.288C104.313 136.165 104.693 136.042 105.068 135.92C105.857 138.504 106.652 141.082 107.441 143.666C105.539 144.109 103.637 144.552 101.741 144.995C98.862 142.999 95.9833 141.002 92.7754 138.776C93.8996 138.621 94.6718 138.52 95.4439 138.413V138.407Z" fill="#FFDAB9"/>
<path d="M101.741 144.995C103.643 144.552 105.545 144.109 107.442 143.666C107.805 143.927 108.174 144.194 108.543 144.456C108.992 145.187 109.435 145.919 109.883 146.65C109.736 147.339 109.582 148.033 109.435 148.721C109.213 148.625 108.986 148.535 108.765 148.438C107.964 147.072 106.959 146.431 105.432 147.584C105.142 147.776 104.847 147.974 104.558 148.166L104.58 148.139C103.422 147.958 102.264 147.771 101.105 147.59C101.316 146.725 101.531 145.86 101.741 144.995Z" fill="#FAA086"/>
<path d="M78.9949 143.292C79.4208 142.459 79.8466 141.626 80.2724 140.799C82.5208 141.626 84.7749 142.459 87.0233 143.286C84.3434 143.286 81.6692 143.286 78.9893 143.292H78.9949Z" fill="#FFDAB9"/>
<path d="M46.6555 147.584C46.4624 147.733 46.2694 147.883 46.082 148.027C46.2751 147.878 46.4681 147.728 46.6555 147.584Z" fill="#84E1FE"/>
<path d="M112.05 193.485C115.616 192.466 119.153 191.366 122.747 190.453C124.541 189.999 125.007 191.12 124.995 192.604C124.939 199.673 124.916 206.741 124.882 213.809C120.743 213.612 116.626 213.462 115.338 218.448C113.833 218.523 112.334 218.598 110.829 218.673C109.489 218.123 108.15 217.578 106.81 217.028C106.906 216.601 107.003 216.169 107.099 215.742C108.746 208.326 110.398 200.906 112.044 193.491L112.05 193.485Z" fill="#70B464"/>
<path d="M112.05 193.485C110.404 200.901 108.751 208.321 107.105 215.737C107.008 216.169 106.912 216.596 106.815 217.023C106.77 217.21 106.73 217.402 106.685 217.589L106.662 217.584C102.353 216.943 98.9233 219.132 95.2838 220.68C93.1149 210.056 102.262 197.078 112.045 193.485H112.05Z" fill="#FFDAB9"/>
<path d="M308.867 139.15C310.683 126.284 312.489 113.412 314.317 100.546C314.578 98.7099 314.942 96.8841 315.254 95.053C317.854 93.8251 320.551 92.7521 323.033 91.3374C325.798 89.7625 328.512 89.0471 331.572 90.3871C331.913 90.5366 332.299 90.59 332.656 90.6967C339.271 92.6613 339.64 92.5065 343.552 87.1359C344.364 86.0202 345.545 85.15 346.556 84.1624C346.414 85.6518 346.334 87.1466 346.124 88.6254C345.034 96.3236 344.432 103.974 348.248 111.261C347.072 111.656 345.903 112.056 344.727 112.451C338.05 113.903 331.805 116.29 325.985 119.749C323.708 121.1 322.658 122.739 322.822 125.2C323.078 129.012 323.424 132.829 323.487 136.646C323.544 140.436 324.855 144.104 322.862 148.07C320.778 152.218 324.327 156.729 328.744 156.372C328.551 154.215 328.353 152.031 328.148 149.731C329.568 149.96 330.47 150.104 332.14 150.377C330.669 148.551 329.636 147.414 328.79 146.154C328.33 145.47 327.842 144.531 327.978 143.815C328.932 138.931 329.994 134.062 331.18 129.22C331.362 128.472 332.293 127.447 333.02 127.325C337.284 126.625 341.588 126.161 345.88 125.616C347.623 130.416 349.36 135.22 351.098 140.02C348.202 142.182 345.312 144.344 342.416 146.501C342.082 146.912 341.633 147.28 341.417 147.739C338.504 154.001 340.781 159.393 344.648 164.513C344.449 167.78 344.364 171.053 344.006 174.304C343.864 175.617 343.132 176.877 342.672 178.158C342.462 177.048 341.957 175.9 342.093 174.827C342.979 167.935 339.475 161.374 332.991 158.107C330.97 160.701 332.151 163.525 332.31 166.275C331.589 165.394 330.862 164.508 330.243 163.755C329.959 168.704 329.681 173.69 329.397 178.682C327.615 178.489 325.826 178.297 323.907 178.094C324.588 182.306 327.654 184.389 330.573 186.577C326.524 187.496 322.476 188.414 318.434 189.332C315.487 189.775 312.54 190.218 309.588 190.661C309.429 189.706 309.4 188.707 309.088 187.8C306.147 179.226 307.288 170.401 307.362 161.668C307.441 152.475 311.467 144.227 315.152 135.941C315.487 135.188 315.595 134.345 315.81 133.539C315.504 133.341 315.197 133.149 314.891 132.951C313.704 134.233 312.54 135.525 311.325 136.785C310.541 137.601 309.695 138.365 308.872 139.155L308.867 139.15Z" fill="#70B464"/>
<path d="M348.243 111.26C344.427 103.973 345.029 96.3229 346.119 88.6247C346.329 87.1459 346.414 85.6511 346.551 84.1616L346.482 84.1509C346.63 83.9694 346.778 83.7826 346.925 83.6011C349.293 82.6348 351.28 83.5156 353.381 84.7008C351.161 86.4946 349.458 88.3364 351.098 91.1445C351.064 92.6926 351.03 94.2462 350.996 95.7943C349.832 97.2785 350.139 100.423 351.615 101.774C353.074 103.103 354.511 104.464 356.067 105.692C357.645 106.947 357.458 108.399 356.93 109.968C354.028 110.395 351.133 110.822 348.231 111.249L348.243 111.26Z" fill="#FCFAFA"/>
<path d="M370.839 134.612C372.809 136.234 374.859 137.788 376.738 139.502C379.31 141.851 382.013 142.08 385.204 140.649C388.077 139.368 391.114 138.418 394.084 137.324C398.581 147.654 400.642 158.48 401.516 169.552C399.489 170.268 397.456 170.978 395.429 171.693C394.617 169.467 393.8 167.241 392.988 165.015C394.595 160.648 396.792 156.313 394.089 151.369C389.121 155.736 386.799 160.787 387.259 166.915C386.663 166.237 386.078 165.554 385.476 164.876C379.458 158.064 373.439 151.252 367.421 144.445C367.773 142.998 368.131 141.557 368.483 140.11C369.266 138.279 370.055 136.448 370.839 134.617V134.612Z" fill="#FCFDFD"/>
<path d="M345.875 125.621C341.583 126.166 337.279 126.63 333.015 127.33C332.288 127.447 331.363 128.472 331.176 129.225C329.989 134.067 328.927 138.936 327.973 143.821C327.831 144.536 328.325 145.476 328.785 146.159C329.631 147.413 330.665 148.556 332.135 150.382C330.466 150.109 329.563 149.965 328.144 149.736C328.348 152.037 328.547 154.22 328.74 156.377C324.323 156.735 320.774 152.223 322.858 148.075C324.851 144.109 323.539 140.441 323.482 136.651C323.42 132.834 323.073 129.022 322.818 125.205C322.653 122.744 323.709 121.105 325.98 119.754C331.8 116.295 338.046 113.909 344.723 112.457C348.805 116.359 349.447 120.374 345.875 125.627V125.621Z" fill="#FAA086"/>
<path d="M368.482 140.104C368.13 141.551 367.773 142.993 367.421 144.439C365.053 144.674 362.617 145.352 360.34 145.027C357.343 144.6 354.47 143.382 351.546 142.507C351.534 141.717 351.517 140.921 351.506 140.131C357.172 142.213 362.833 142.261 368.488 140.104H368.482Z" fill="#FAA086"/>
<path d="M351.502 140.132C351.514 140.922 351.531 141.717 351.542 142.507C349.844 145.646 348.147 148.785 346.449 151.925C345.103 150.12 343.758 148.31 342.412 146.506C345.308 144.344 348.198 142.182 351.093 140.025C351.224 140.073 351.36 140.105 351.497 140.132H351.502Z" fill="#FCFAFA"/>
<path d="M346.447 151.925C348.145 148.785 349.843 145.646 351.54 142.507C354.464 143.383 357.337 144.6 360.335 145.027C362.612 145.353 365.048 144.669 367.415 144.44C373.434 151.252 379.452 158.059 385.471 164.871C386.067 165.549 386.657 166.232 387.254 166.91L387.237 166.846C387.327 167.022 387.413 167.198 387.503 167.374C388.094 168.106 388.684 168.832 389.269 169.563C390.496 171.304 391.728 173.039 392.954 174.779C394.112 176.274 395.271 177.769 396.435 179.269C396.821 182.381 397.207 185.493 397.593 188.611C397.122 189.326 396.423 189.983 396.219 190.757C395.464 193.581 394.879 196.443 394.226 199.288C393.073 202.897 391.926 206.501 390.774 210.11C390.376 211.327 389.979 212.544 389.581 213.761C389.241 214.124 388.9 214.492 388.554 214.856C386.498 214.674 384.329 214.823 382.433 214.215C380.889 213.718 379.674 212.314 378.311 211.316C379.413 204.515 380.52 197.719 381.621 190.917C382.285 188.019 380.877 186.139 378.22 184.933C376.528 184.164 374.791 183.491 373.076 182.776L364.656 179.231C361.618 177.341 358.615 175.409 355.532 173.578C350.887 170.818 347.708 167.118 346.669 161.934C346.419 160.69 346.022 159.473 345.687 158.245C345.777 157.541 345.868 156.836 345.953 156.137C346.073 155.87 346.192 155.603 346.311 155.336C346.356 154.199 346.402 153.062 346.447 151.93V151.925Z" fill="#2254B5"/>
<path d="M345.686 158.251C346.016 159.479 346.419 160.696 346.669 161.94C347.702 167.123 350.882 170.823 355.532 173.583C358.609 175.414 361.613 177.347 364.65 179.237C364.571 179.877 364.491 180.518 364.412 181.159C362.589 183.497 360.761 185.83 358.938 188.168C355.85 192.033 352.778 195.909 347.1 196.576C345.908 196.715 344.727 196.977 343.54 197.18C342.047 197.596 340.548 198.007 339.055 198.423C338.464 198.06 337.874 197.382 337.289 197.393C335.007 197.425 332.73 197.671 330.453 197.836C329.914 197.783 329.368 197.729 328.829 197.681C327.461 197.548 326.098 197.409 324.73 197.276C322.646 197.249 320.557 197.222 318.473 197.196C318.456 194.58 318.439 191.958 318.416 189.343C322.464 188.424 326.513 187.506 330.555 186.588C333.57 185.702 336.591 184.815 339.605 183.929C340.196 183.534 340.786 183.134 341.377 182.739C341.803 181.217 342.234 179.696 342.66 178.174C343.126 176.893 343.852 175.633 343.994 174.32C344.352 171.069 344.437 167.796 344.636 164.529C344.982 162.442 345.329 160.349 345.675 158.261L345.686 158.251Z" fill="#2254B5"/>
<path d="M364.412 181.153C364.492 180.513 364.571 179.872 364.651 179.231C367.456 180.411 370.266 181.591 373.071 182.776C374.967 185.082 376.87 187.389 378.766 189.695C377.823 191.793 376.909 193.902 375.927 195.984C372.378 203.5 366.82 209.517 360.08 214.642C359.598 215.01 358.933 215.16 358.354 215.411L358.349 215.4C360.529 210.072 363.254 204.878 364.736 199.379C366.337 193.421 366.667 187.191 364.412 181.153Z" fill="#10652F"/>
<path d="M378.771 189.695C376.875 187.389 374.973 185.082 373.076 182.776C374.791 183.491 376.534 184.164 378.22 184.933C380.877 186.139 382.286 188.018 381.621 190.917C380.673 190.512 379.719 190.101 378.771 189.695Z" fill="#10652F"/>
<path d="M358.36 215.411C358.28 215.486 358.206 215.566 358.126 215.641C358.137 215.593 358.126 215.523 358.154 215.496C358.206 215.454 358.28 215.432 358.348 215.4L358.354 215.411H358.36Z" fill="#7FDEFC"/>
<path d="M27.2895 174.822C28.4194 172.708 30.0602 172.404 32.3086 173.322C33.3761 173.754 34.6763 173.674 35.8743 173.829C39.2696 174.843 42.6592 175.852 46.0545 176.867C48.1724 181.132 51.7039 184.191 56.0928 186.134C58.8579 187.357 60.3398 188.745 59.7039 191.66C58.6308 194.633 57.5577 197.612 56.4846 200.586C52.9019 195.012 48.9899 189.711 43.0169 186.097C37.6855 182.867 31.9282 181.063 25.1206 181.303C29.8161 190.864 35.0283 199.694 43.6756 206.117C46.6905 208.353 50.5741 209.56 54.0545 211.236C54.0261 211.541 53.9977 211.85 53.9694 212.154C46.1908 214.29 38.4066 216.425 30.3157 218.646C29.924 209.773 26.046 202.486 19.7153 196.267C20.5272 193.635 21.3448 191.008 22.1568 188.377C21.9637 188.296 21.7707 188.211 21.5833 188.131C20.2774 190.32 18.9772 192.503 17.6713 194.692C17.4158 194.591 17.1263 194.532 16.9048 194.382C16.4449 194.083 16.0191 193.742 15.3945 193.283C19.3633 187.122 23.3264 180.977 27.2838 174.827L27.2895 174.822ZM22.6451 187.442C22.5996 187.389 22.5599 187.335 22.5145 187.282C22.4634 187.33 22.3782 187.378 22.3782 187.426C22.3782 187.474 22.4577 187.533 22.4974 187.586C22.5485 187.538 22.594 187.49 22.6451 187.442Z" fill="#FFDAB9"/>
<path d="M7.57548 202.128C5.28734 205.678 2.99919 209.229 0.711046 212.779C0.347669 209.223 -0.015708 205.673 -0.379086 202.118C-0.95822 199.272 -3.74601 200.009 -5.61968 199.267C-7.0448 198.61 -8.46992 197.954 -9.89504 197.297C-11.5473 195.775 -13.2052 194.259 -14.8574 192.738C-12.2229 192.103 -9.59412 191.467 -6.95963 190.832C-5.12571 192.546 -3.29747 194.259 -0.935511 196.469C-1.2705 193.998 -1.50897 192.204 -1.74743 190.416C-1.1172 190.485 -0.492644 190.549 0.137589 190.618C0.398767 192.225 0.654269 193.838 1.01765 196.09C2.06236 193.95 2.78344 192.46 3.51019 190.971C5.54284 191.611 7.57548 192.257 9.60245 192.898C7.70039 195.231 6.10494 197.89 3.79408 199.779C2.21566 201.071 1.53432 202.15 1.8466 203.938C2.02829 204.947 2.24405 205.951 2.52226 207.36C3.30012 206.266 3.75434 205.39 4.43567 204.718C5.38954 203.773 6.51374 202.983 7.5698 202.128H7.57548Z" fill="#10652F"/>
<path d="M19.3838 199.293C24.789 204.739 27.8266 211.108 27.9232 218.624C25.2773 218.448 22.6315 218.272 19.9856 218.096C19.8664 217.316 19.6506 216.537 19.6393 215.757C19.5314 210.269 19.469 204.781 19.3895 199.299L19.3838 199.293Z" fill="#FFDAB9"/>
<path d="M19.3858 199.293C19.4653 204.781 19.5277 210.269 19.6356 215.752C19.6526 216.532 19.8627 217.311 19.982 218.09C17.3475 218.074 14.7187 218.064 12.0898 218.048C12.6179 213.393 13.1402 208.743 13.6683 204.087C14.571 202.117 15.4738 200.148 16.3709 198.178C16.439 197.847 16.5128 197.516 16.581 197.179C17.5178 197.884 18.449 198.583 19.3858 199.288V199.293Z" fill="#70B464"/>
<path d="M13.6671 204.093C13.139 208.748 12.6167 213.398 12.0887 218.053C9.22706 218.283 6.36546 218.507 3.50386 218.736C3.29378 218.694 3.07803 218.646 2.86795 218.603C2.68058 216.724 2.49889 214.845 2.31152 212.971C2.66922 212.421 3.0326 211.876 3.3903 211.327C8.21641 210.67 10.7828 207.184 13.6671 204.098V204.093Z" fill="#FFDAB9"/>
<path d="M13.6674 204.093C10.7831 207.179 8.21674 210.67 3.39062 211.321C6.12164 207.173 8.84697 203.025 11.578 198.877C13.1734 198.648 14.7746 198.413 16.37 198.183C15.4673 200.153 14.5645 202.123 13.6674 204.093Z" fill="#10652F"/>
<path d="M7.57389 202.128C6.5235 202.982 5.39929 203.772 4.43975 204.717C3.75842 205.39 3.3042 206.265 2.52634 207.36C2.24813 205.95 2.03237 204.947 1.85068 203.938C1.53273 202.149 2.21406 201.071 3.79816 199.779C6.10902 197.889 7.70447 195.231 9.60653 192.898C10.6683 193.378 11.7243 193.853 13.1551 194.499C11.5199 196.741 10.0778 198.727 8.63563 200.713C8.43691 200.996 8.23819 201.279 8.03946 201.562L8.06785 201.541C7.8748 201.728 7.68744 201.915 7.4944 202.101L7.56821 202.128H7.57389Z" fill="#FFDAB9"/>
<path d="M-1.26002 215.929C-2.5432 214.204 -3.83206 212.48 -5.11523 210.75C-3.53681 207.873 -1.95839 204.995 -0.379965 202.118C-0.0165868 205.673 0.34679 209.223 0.710168 212.779C0.0515456 213.83 -0.6014 214.877 -1.26002 215.929Z" fill="#FFDAB9"/>
<path d="M3.5047 218.731C6.3663 218.502 9.2279 218.277 12.0895 218.048C14.724 218.064 17.3528 218.075 19.9816 218.091C22.6275 218.267 25.2733 218.443 27.9191 218.619C27.9419 218.704 27.9646 218.79 27.9816 218.881C19.8226 218.833 11.658 218.779 3.49902 218.731H3.5047Z" fill="#3A97B3"/>
<path d="M17.6748 194.686C18.9807 192.497 20.2809 190.314 21.5868 188.125C21.7798 188.205 21.9729 188.29 22.1602 188.37C21.3483 191.002 20.5307 193.629 19.7188 196.261C19.0375 195.738 18.3561 195.209 17.6748 194.686Z" fill="#70B464"/>
<path d="M2.31155 212.965C2.49892 214.844 2.68061 216.724 2.86798 218.597C1.91411 218.341 0.670677 218.336 0.114255 217.749C-0.249123 217.364 0.233489 216.083 0.602544 215.314C1.01134 214.465 1.72674 213.745 2.31155 212.965Z" fill="#F1E9B5"/>
<path d="M16.3682 198.183C14.7728 198.413 13.1716 198.648 11.5762 198.877C12.3029 197.687 13.0297 196.496 13.9836 194.938C14.9488 195.776 15.7607 196.48 16.5783 197.185C16.5102 197.516 16.4364 197.847 16.3682 198.183Z" fill="#FFDAB9"/>
<path d="M3.50932 190.971C2.78257 192.46 2.06149 193.944 1.01678 196.09C0.653398 193.832 0.392219 192.225 0.136719 190.618C1.26092 190.736 2.38512 190.853 3.50932 190.976V190.971Z" fill="#FFDAB9"/>
<path d="M89.0625 191.409C89.7154 186.396 90.2946 181.372 91.0724 176.381C91.2655 175.142 92.0831 173.989 92.6111 172.799C93.9227 172.441 95.2286 171.8 96.5515 171.774C102.025 171.661 107.498 171.736 112.972 171.741C113.017 176.514 113.068 181.287 113.114 186.054C107.918 188.681 102.729 191.323 97.5167 193.929C96.3301 194.521 90.3059 192.663 89.0625 191.409Z" fill="#FFDAB9"/>
<path d="M129.54 218.651C129.188 218.63 128.842 218.603 128.49 218.582C128.268 217.722 128.052 216.857 127.831 215.998C128.024 215.421 128.353 214.855 128.382 214.268C128.785 206.442 129.148 198.615 129.517 190.789C132.47 191.659 135.417 192.535 138.369 193.405C137.353 201.77 136.331 210.131 135.314 218.491C133.39 218.544 131.465 218.598 129.54 218.646V218.651Z" fill="#FFDAB9"/>
<path d="M109.433 148.716C109.581 148.022 109.734 147.333 109.882 146.644C112.857 145.005 113.555 145.096 114.793 148.23C117.303 154.572 119.591 161 121.936 167.401C122.35 168.522 120.647 170.524 119.25 170.556C117.178 170.599 115.106 170.55 113.033 170.54C111.829 163.269 110.631 155.992 109.428 148.721L109.433 148.716Z" fill="#70B464"/>
<path d="M135.315 218.496C136.332 210.136 137.354 201.77 138.37 193.41C140.352 194.334 142.333 195.263 144.315 196.186C144.315 196.368 144.32 196.544 144.326 196.725C143.912 203.986 143.497 211.241 143.083 218.501C140.494 218.501 137.904 218.501 135.321 218.501L135.315 218.496Z" fill="#10652F"/>
<path d="M82.9414 183.433C83.5546 186.262 84.1734 189.092 84.7866 191.921C84.4289 193.288 84.0712 194.66 83.7135 196.026C80.2558 198.957 76.7923 201.883 73.3346 204.814C71.529 204.44 69.7235 204.066 67.918 203.698C72.9258 196.945 77.9279 190.191 82.9357 183.433H82.9414Z" fill="#FFDAB9"/>
<path d="M113.118 186.054C113.066 181.282 113.021 176.509 112.976 171.742C115.127 171.715 117.313 171.475 119.42 171.747C120.584 171.897 121.629 172.906 122.724 173.525C122.929 175.965 123.133 178.404 123.338 180.849C119.931 182.584 116.524 184.319 113.118 186.06V186.054Z" fill="#70B464"/>
<path d="M129.516 190.789C129.147 198.615 128.783 206.442 128.38 214.268C128.352 214.85 128.023 215.421 127.829 215.992C127.262 215.437 126.7 214.887 126.132 214.337V190.255C127.489 190.469 128.499 190.629 129.516 190.784V190.789Z" fill="#70B464"/>
<path d="M93.2578 160.13C95.7333 159.809 98.2088 159.489 101.042 159.126C101.025 163.749 98.7766 167.139 96.4828 170.513C94.9782 170.54 93.4735 170.567 91.9746 170.588C92.4004 167.102 92.832 163.616 93.2578 160.13Z" fill="#10652F"/>
<path d="M112.626 190.341C112.751 189.652 112.876 188.969 113.001 188.28C116.583 186.433 120.172 184.591 123.686 182.781C124.072 183.171 124.282 183.283 124.299 183.417C124.833 187.554 124.822 187.527 120.495 188.461C117.861 189.033 115.255 189.711 112.632 190.341H112.626Z" fill="#70B464"/>
<path d="M108.542 144.455C108.173 144.188 107.81 143.927 107.441 143.665C106.651 141.087 105.862 138.503 105.067 135.924C107.554 134.707 108.718 136.634 109.723 137.985C110.921 139.603 111.568 141.583 112.5 143.505C111.035 143.857 109.791 144.156 108.542 144.455Z" fill="#70B464"/>
<path d="M122.687 218.614C120.24 218.56 117.793 218.507 115.34 218.448C116.629 213.457 120.745 213.611 124.884 213.809C124.924 213.985 124.958 214.161 124.998 214.337C124.226 215.763 123.459 217.188 122.687 218.614Z" fill="#70B464"/>
<path d="M73.3359 204.814C76.7937 201.883 80.2571 198.957 83.7149 196.026C86.0655 196.384 88.4161 196.747 90.9882 197.142C90.1422 197.516 89.2564 197.905 88.365 198.3C83.9591 197.27 81.5403 200.084 78.974 202.603L79.0251 202.571C78.656 202.726 78.287 202.886 77.9236 203.041C76.754 203.858 75.6014 204.707 74.3807 205.454C74.2387 205.54 73.6993 205.043 73.3416 204.814H73.3359Z" fill="#01515C"/>
<path d="M122.686 218.614C123.458 217.188 124.224 215.763 124.996 214.338C125.377 214.338 125.752 214.338 126.132 214.338C126.7 214.888 127.262 215.443 127.83 215.993C128.051 216.857 128.267 217.717 128.488 218.576C127.512 219.324 126.552 220.637 125.564 220.653C124.622 220.669 123.645 219.34 122.686 218.603V218.614Z" fill="#2254B5"/>
<path d="M61.9639 212.581C62.5033 211.876 63.0483 211.172 63.5877 210.467C64.5586 210.867 65.5295 211.273 66.4947 211.673C65.2059 213.98 63.9113 216.286 62.6225 218.592C62.4181 218.571 62.2137 218.549 62.0036 218.523L61.9639 212.576V212.581Z" fill="#FFDAB9"/>
<path d="M78.9785 202.603C81.5449 200.083 83.9636 197.27 88.3696 198.3C85.2411 199.736 82.107 201.167 78.9785 202.603Z" fill="#FFDAB9"/>
<path d="M123.339 180.844C123.134 178.404 122.93 175.964 122.726 173.519C123.469 175.425 124.315 177.309 124.86 179.263C124.963 179.637 123.873 180.304 123.333 180.838L123.339 180.844Z" fill="#70B464"/>
<path d="M77.9229 203.041C78.2919 202.886 78.661 202.726 79.0243 202.571C78.6553 202.726 78.2862 202.886 77.9229 203.041Z" fill="#7FDEFC"/>
<path d="M123.407 164.801C123.254 164.886 123.101 164.966 122.947 165.052C122.976 164.854 123.004 164.662 123.032 164.465C123.157 164.571 123.282 164.689 123.401 164.801H123.407Z" fill="#7FE0FE"/>
<path d="M73.6261 255.519L73.6945 255.712L73.5293 255.701L73.6261 255.519Z" fill="#3A97B3"/>
<path d="M389.581 213.761C389.978 212.544 390.376 211.326 390.773 210.109C391.273 209.655 391.949 209.287 392.25 208.737C394.118 205.331 397.161 203.169 400.732 201.6C401.255 201.37 402.118 201.824 402.822 201.957C402.464 203.511 402.106 205.07 401.749 206.623C399.33 209.063 396.911 211.497 394.504 213.948C393.51 214.962 392.551 216.003 391.58 217.033C390.915 215.939 390.251 214.85 389.587 213.755L389.581 213.761Z" fill="#10652F"/>
<path d="M402.815 201.963C402.111 201.824 401.248 201.376 400.725 201.605C397.154 203.175 394.111 205.337 392.243 208.743C391.942 209.293 391.266 209.661 390.767 210.115C391.919 206.506 393.066 202.903 394.219 199.294C395.757 198.546 397.29 197.799 399.079 196.934C399.573 196.245 400.436 195.034 401.299 193.827C401.855 194.638 402.275 195.589 403.002 196.229C405.313 198.263 404.808 200.111 402.815 201.968V201.963Z" fill="#70B464"/>
<path d="M396.43 179.269C395.271 177.774 394.113 176.279 392.949 174.779C392.938 174.491 392.932 174.202 392.921 173.914C393.756 173.172 394.585 172.43 395.419 171.683C397.446 170.967 399.479 170.257 401.506 169.542C402.142 169.542 402.772 169.542 404.152 169.542C402.936 172.12 401.903 174.304 400.87 176.482C399.388 177.405 397.906 178.334 396.424 179.258L396.43 179.269Z" fill="#10652F"/>
<path d="M318.48 197.185C320.564 197.212 322.653 197.238 324.737 197.265C324.749 197.377 324.766 197.494 324.777 197.607C324.675 197.82 324.573 198.028 324.465 198.242C323.658 199.475 322.79 200.676 322.069 201.952C320.893 204.029 319.815 206.159 318.696 208.268C318.401 208.289 318.1 208.316 317.805 208.337C316.164 204.632 314.529 200.927 312.888 197.222C314.75 197.212 316.612 197.195 318.48 197.185Z" fill="#70B464"/>
<path d="M339.056 198.418C340.549 198.002 342.048 197.591 343.541 197.174C343.729 199.369 344.035 201.568 344.035 203.762C344.035 204.638 343.337 205.513 342.752 206.869C341.196 205.022 340.112 203.725 339.027 202.433C339.039 201.093 339.044 199.753 339.056 198.413V198.418Z" fill="#10652F"/>
<path d="M339.053 198.418C339.042 199.758 339.036 201.098 339.025 202.438C336.169 200.901 333.313 199.363 330.457 197.826C332.734 197.66 335.011 197.415 337.293 197.383C337.878 197.377 338.468 198.05 339.059 198.413L339.053 198.418Z" fill="#10652F"/>
<path d="M324.774 197.606C324.763 197.494 324.746 197.377 324.734 197.265C326.097 197.398 327.465 197.537 328.834 197.671C327.482 197.649 326.125 197.628 324.774 197.606Z" fill="#44B6D8"/>
<path d="M62.0083 218.528C62.2127 218.55 62.4171 218.571 62.6271 218.598C61.8436 220.034 61.0601 221.475 60.2765 222.911C59.1467 221.833 58.0225 220.755 56.8926 219.676C57.256 219.303 57.6137 218.929 57.977 218.555C59.3227 218.55 60.6683 218.539 62.0139 218.528H62.0083Z" fill="#FCFAFA"/>
<path d="M318.479 197.185C316.617 197.196 314.755 197.212 312.887 197.222C308.753 197.212 304.626 197.201 300.492 197.196C300.668 195.487 300.85 193.779 301.032 192.065C303.882 191.595 306.732 191.131 309.582 190.661C312.529 190.218 315.482 189.775 318.428 189.332C318.445 191.948 318.462 194.569 318.485 197.185H318.479Z" fill="#FAA086"/>
<path d="M301.031 192.065C300.849 193.773 300.673 195.487 300.491 197.195C299.435 199.224 298.379 201.253 297.056 203.804C296.318 202.63 295.926 202.011 295.54 201.386C295.347 200.318 295.16 199.256 294.967 198.188C294.967 196.021 294.967 193.859 294.967 191.211C297.09 191.51 299.06 191.787 301.036 192.065H301.031Z" fill="#FFA653"/>
<path d="M54.0521 211.231C50.566 209.554 46.6824 208.348 43.6731 206.111C35.0259 199.694 29.8137 190.859 25.1182 181.297C31.9258 181.057 37.6831 182.862 43.0145 186.091C48.9819 189.706 52.8995 195.007 56.4822 200.58C55.6703 204.13 54.864 207.68 54.0521 211.231Z" fill="#10652F"/>
<path d="M59.7021 191.654C60.338 188.739 58.8561 187.351 56.091 186.128C51.6964 184.185 48.1649 181.126 46.0527 176.861C52.5481 177.768 59.0492 178.67 65.7773 179.61C63.7674 183.598 61.7348 187.623 59.7021 191.654Z" fill="#10652F"/>
<path d="M62.0066 218.528C60.661 218.539 59.3154 218.544 57.9697 218.555C59.2983 216.564 60.6326 214.572 61.9612 212.586C61.9726 214.567 61.9896 216.553 62.001 218.534L62.0066 218.528Z" fill="#F1E9B5"/>
<path d="M105.425 147.578C106.952 146.425 107.963 147.071 108.758 148.433C108.4 148.833 108.122 149.351 107.673 149.612C106.663 150.21 105.573 150.685 104.517 151.209C104.539 150.184 104.556 149.159 104.579 148.134L104.556 148.16C104.846 147.968 105.141 147.771 105.431 147.578H105.425Z" fill="#125A66"/>
<path d="M342.673 178.163C342.247 179.685 341.816 181.206 341.39 182.728C340.754 180.432 340.561 177.902 339.369 175.9C337.552 172.846 335.048 170.161 332.834 167.321L332.856 167.353C332.663 166.984 332.464 166.621 332.271 166.253L332.311 166.274C332.152 163.525 330.971 160.696 332.993 158.106C339.477 161.374 342.98 167.935 342.094 174.827C341.958 175.9 342.463 177.048 342.673 178.158V178.163Z" fill="#A8D99C"/>
<path d="M339.616 183.918C336.602 184.805 333.581 185.691 330.566 186.577C327.653 184.388 324.582 182.306 323.9 178.094C325.825 178.302 327.608 178.494 329.391 178.681C331.792 179.599 334.194 180.523 336.596 181.441L339.611 183.918H339.616Z" fill="#A8D99C"/>
<path d="M345.685 158.25C345.338 160.338 344.992 162.431 344.646 164.518C340.779 159.404 338.502 154.006 341.415 147.744C341.631 147.285 342.074 146.917 342.414 146.506C343.76 148.31 345.106 150.12 346.451 151.924C346.406 153.061 346.36 154.198 346.321 155.336C346.201 155.603 346.082 155.869 345.963 156.136C345.872 156.841 345.781 157.546 345.696 158.245L345.685 158.25Z" fill="#10652F"/>
<path d="M336.602 181.446C334.2 180.528 331.798 179.605 329.396 178.686C329.68 173.7 329.964 168.709 330.242 163.76C330.861 164.513 331.582 165.399 332.309 166.28L332.269 166.258C332.462 166.627 332.661 166.99 332.854 167.358L332.832 167.326C333.115 168.596 333.343 169.878 333.689 171.132C334.637 174.576 335.631 178.008 336.602 181.446Z" fill="#10652F"/>
<path d="M389.269 169.568C388.678 168.837 388.088 168.111 387.503 167.379C387.412 167.203 387.327 167.027 387.236 166.851L387.253 166.915C386.799 160.786 389.115 155.731 394.084 151.369C396.786 156.313 394.589 160.648 392.982 165.015C392.516 165.639 392.045 166.264 391.58 166.894C390.807 167.785 390.035 168.682 389.269 169.574V169.568Z" fill="#10652F"/>
<path d="M391.58 166.889C392.046 166.264 392.517 165.639 392.982 165.01C393.794 167.236 394.612 169.462 395.424 171.688C394.589 172.43 393.76 173.178 392.926 173.92C392.477 171.576 392.029 169.232 391.58 166.889Z" fill="#70B464"/>
<path d="M391.58 166.888C392.029 169.232 392.477 171.576 392.926 173.919C392.932 174.208 392.943 174.496 392.954 174.784C391.728 173.044 390.496 171.303 389.27 169.568C390.042 168.677 390.814 167.78 391.586 166.888H391.58Z" fill="#FCFAFA"/>
<path d="M336.602 181.447C335.626 178.009 334.632 174.576 333.689 171.133C333.343 169.878 333.116 168.597 332.832 167.327C335.046 170.167 337.556 172.852 339.367 175.906C340.559 177.908 340.747 180.438 341.383 182.734C340.792 183.129 340.202 183.529 339.611 183.924C338.606 183.097 337.601 182.275 336.596 181.447H336.602Z" fill="#10652F"/>
<path d="M22.644 187.442C22.5927 187.49 22.5471 187.538 22.4959 187.586C22.4503 187.533 22.3706 187.479 22.3763 187.426C22.382 187.372 22.4617 187.329 22.513 187.281C22.5585 187.335 22.5984 187.388 22.644 187.442Z" fill="#0470AA"/>
<path d="M93.9185 215.865L93.9334 215.791V215.716C93.9334 201.2 106.799 189.323 122.811 189.323C130.853 189.323 139.251 191.786 145.621 196.074C151.982 200.356 156.236 206.392 156.246 213.548C155.495 224.406 151.138 231.505 145.031 235.911C138.89 240.342 130.897 242.109 122.811 242.109C114.802 242.109 106.81 239.133 101.209 234.343C95.615 229.558 92.4671 223.029 93.9185 215.865Z" stroke="#2254B5" stroke-width="1.5"/>
<path d="M178.444 189.775C183.571 188.152 188.692 186.524 193.819 184.901C194.603 184.917 195.392 184.928 196.175 184.944C196.59 186.924 198.077 187.656 200.008 187.645C201.882 187.634 203.216 186.828 203.477 184.917C210.892 185.323 217.779 187.346 223.616 191.681C227.034 194.222 229.731 197.607 233.081 200.239C236.891 203.234 239.366 206.997 241.501 211.065C242.762 213.575 244.022 216.089 245.283 218.598C252.187 233.781 259.091 248.964 266.006 264.141C266.41 265.028 266.915 265.866 267.375 266.725C268.817 269.021 270.265 271.311 271.707 273.607C270.821 274.925 269.941 276.244 269.055 277.563C267.982 276.586 266.909 275.609 265.842 274.632C260.431 269.218 255.037 263.794 249.592 258.418C248.899 257.735 247.917 257.319 247.071 256.78C246.446 255.92 245.879 255.018 245.18 254.217C242.966 251.697 240.36 249.412 238.515 246.674C234.597 240.844 231.094 234.769 227.346 228.837C226.234 227.07 224.877 225.442 223.185 223.136C217.62 231.042 215.588 239.317 213.095 247.416C210.807 248.313 208.587 249.711 206.214 249.989C202.432 250.432 198.549 250.08 194.705 250.16C191.457 250.229 188.647 249.29 186.2 247.314C183.94 240.935 181.754 234.534 179.358 228.197C178.762 226.622 177.49 225.266 175.991 223.002C167.741 234.699 162.41 247.288 151.997 256.545C145.819 262.567 139.642 268.583 133.47 274.605C132.42 275.566 131.369 276.522 130.319 277.482C129.467 276.18 128.621 274.877 127.77 273.575C129.115 271.258 130.461 268.935 131.806 266.618L131.772 266.661L132.34 266.015C134.997 260.287 137.66 254.564 140.278 248.82C140.465 248.409 140.317 247.864 140.329 247.384L140.289 247.426C140.59 247.24 140.891 247.053 141.192 246.866C141.652 245.782 142.112 244.698 142.566 243.615L142.537 243.689C142.696 243.444 142.855 243.198 143.009 242.953C146.637 234.833 150.271 226.713 153.899 218.593C154.535 217.301 155.17 216.009 155.806 214.717C156.369 213.655 156.931 212.598 157.487 211.535C160.865 205.465 164.914 199.87 170.518 195.391C173.158 193.523 175.792 191.649 178.432 189.781L178.444 189.775Z" fill="#73B6FF"/>
</svg>
