<svg width="299" height="202" viewBox="0 0 299 202" fill="none" xmlns="http://www.w3.org/2000/svg">
<path d="M96.6102 198.131C95.9278 198.131 95.2494 198.131 94.567 198.131C93.4759 197.996 92.389 197.861 91.2979 197.726C90.6155 197.726 89.9371 197.726 89.2547 197.726C88.3026 197.591 87.3463 197.457 86.3942 197.322C85.8507 197.322 85.3031 197.322 84.7596 197.322C83.8075 197.187 82.8513 197.052 81.8991 196.917C81.4905 196.917 81.0819 196.917 80.6732 196.917C79.5822 196.782 78.4952 196.643 77.4041 196.509C77.2692 196.509 77.1303 196.509 76.9955 196.509C75.9044 196.374 74.8174 196.239 73.7263 196.1C73.5915 196.1 73.4525 196.1 73.3177 196.1C72.3656 195.965 71.4093 195.83 70.4572 195.691C70.1834 195.691 69.9137 195.691 69.6399 195.691C68.8226 195.556 68.0054 195.422 67.1881 195.283C66.9143 195.283 66.6446 195.283 66.3708 195.283C62.0392 194.608 57.7076 193.942 53.3801 193.256C40.8757 191.278 28.4857 188.806 16.5902 184.315C11.8091 182.509 7.15467 180.453 3.50142 176.726C0.47339 173.637 0.399834 169.812 3.55863 166.853C5.51193 165.027 7.76354 163.392 10.1377 162.166C20.1086 157.018 30.9703 154.635 41.8483 152.367C41.9831 153.229 42.1547 154.088 42.2528 154.954C42.6737 158.628 43.017 162.309 43.5319 165.967C43.6136 166.539 44.4104 167.405 44.9335 167.454C49.0158 167.818 53.1186 168.198 57.2132 168.186C59.2441 168.177 61.6306 167.867 61.9575 164.953C61.9738 164.81 62.2517 164.7 62.407 164.573C63.0935 166.257 63.5103 168.128 64.5115 169.6C69.0147 176.199 75.7614 178.684 83.3662 179.317C92.7036 180.093 102.049 180.776 111.395 181.495C110.639 183.003 109.536 183.898 107.738 183.898C106.953 183.898 105.944 184.02 105.445 184.507C104.808 185.128 104.146 186.264 104.301 187.008C104.448 187.702 105.588 188.303 106.414 188.695C106.892 188.924 107.607 188.679 108.212 188.622C113.25 188.135 118.276 187.469 123.323 187.196C129.126 186.881 134.986 187.629 140.727 186.194C142.313 186.436 143.919 186.587 145.475 186.946C146.681 187.228 147.56 187.122 148.062 185.88C151.47 186.346 154.968 186.472 158.266 187.359C163.705 188.818 169.144 189.496 174.746 189.1C179.135 188.789 183.532 188.434 187.929 188.352C191.309 188.287 194.696 188.605 198.08 188.769C199.584 188.842 200.936 188.475 201.141 186.807C201.337 185.222 200.409 184.114 198.856 183.657C196.645 183.007 194.398 182.492 192.216 181.769C188.383 180.494 184.586 179.105 180.778 177.76C187.116 177.057 193.45 176.269 199.8 175.676C207.524 174.953 215.165 174.005 222.398 170.903C231.997 166.788 233.705 157.042 229.014 150.708C230.371 149.899 231.727 149.09 233.084 148.281C233.313 148.412 233.529 148.624 233.771 148.661C238.372 149.355 242.989 149.977 247.583 150.716C260.904 152.853 274.107 155.526 286.518 161.034C291.34 163.176 296.219 165.521 298.066 171.173V172.399C296.775 176.636 293.555 179.186 289.836 180.923C285.182 183.097 280.376 185.022 275.493 186.615C264.991 190.048 254.113 191.899 243.226 193.64C238.629 194.375 234.016 195.009 229.414 195.691C229.28 195.691 229.141 195.691 229.006 195.691C228.054 195.826 227.097 195.961 226.145 196.1C225.871 196.1 225.602 196.1 225.328 196.1C224.376 196.235 223.42 196.37 222.467 196.509C222.194 196.509 221.924 196.509 221.65 196.509C220.559 196.643 219.472 196.778 218.381 196.917C218.246 196.917 218.107 196.917 217.972 196.917C216.881 197.052 215.794 197.187 214.703 197.326C214.16 197.326 213.612 197.326 213.069 197.326C211.978 197.461 210.891 197.6 209.8 197.734C209.256 197.734 208.709 197.734 208.165 197.734C207.074 197.869 205.987 198.004 204.896 198.139C204.214 198.139 203.535 198.139 202.853 198.139C201.627 198.274 200.401 198.413 199.175 198.548C198.358 198.548 197.54 198.548 196.723 198.548C195.362 198.683 193.997 198.821 192.637 198.956C191.546 198.956 190.459 198.956 189.368 198.956C187.868 199.091 186.372 199.23 184.873 199.365C183.512 199.365 182.147 199.365 180.786 199.365C178.608 199.5 176.426 199.639 174.248 199.774C171.931 199.774 169.618 199.774 167.301 199.774C155.45 199.774 143.6 199.774 131.749 199.774C129.432 199.774 127.119 199.774 124.802 199.774C122.759 199.639 120.716 199.5 118.673 199.365C117.312 199.365 115.947 199.365 114.586 199.365C112.952 199.23 111.317 199.091 109.683 198.956C108.731 198.956 107.774 198.956 106.822 198.956C105.461 198.821 104.097 198.687 102.736 198.548C101.784 198.548 100.827 198.548 99.8753 198.548C98.7842 198.413 97.6972 198.278 96.6061 198.139L96.6102 198.131Z" fill="#73B6FF"/>
<path d="M233.088 148.265C231.731 149.074 230.375 149.883 229.018 150.692C228.626 150.778 228.095 150.733 227.866 150.974C224.924 154.072 221.029 153.598 217.433 153.414C215.312 153.308 213.212 152.033 211.181 151.109C203.887 147.791 196.629 144.395 189.36 141.032C188.555 140.709 187.754 140.39 186.949 140.068C184.068 138.082 181.183 136.092 178.302 134.106C177.881 133.284 177.587 132.361 177.019 131.666C172.213 125.769 169.79 119.088 170.636 111.475C171.159 106.78 171.208 102.15 170.125 97.5526C169.835 96.3226 169.226 95.1702 168.74 93.9239C167.779 94.9618 167.105 95.6974 166.427 96.4289C166.018 95.5871 165.528 94.7698 165.209 93.8953C162.7 87.0138 162.688 79.7604 162.066 72.5969C164.007 72.9116 165.949 73.2017 167.885 73.5531C170.333 73.9986 172.139 75.4288 173.206 77.5987C174.129 79.4744 175.122 81.444 175.433 83.4709C176.806 92.3711 177.824 101.324 179.213 110.22C179.863 114.393 180.333 118.769 184.264 121.597C189.944 125.679 195.567 129.847 201.218 133.979C201.766 134.375 202.313 134.772 202.857 135.168C205.493 137.068 208.104 139.001 210.785 140.832C211.259 141.159 212.027 141.2 212.644 141.151C214.658 140.991 216.657 140.603 218.671 140.533C222.868 140.395 227.069 140.411 230.939 138.38C231.262 138.208 232.23 138.531 232.23 138.588C232.185 139.41 232.177 140.292 231.862 141.028C231.384 142.131 230.673 143.132 229.905 144.436C233.027 145.004 233.047 140.689 235.985 141.518C235.716 142.495 235.471 143.374 235.144 144.534H239.831C238.642 146.716 236.815 146.761 235.14 147.104C234.457 147.489 233.771 147.877 233.088 148.261V148.265Z" fill="#FEA798"/>
<path d="M64.2135 138.854C66.4406 140.382 68.9537 140.546 71.5568 140.538C74.0536 140.529 76.5503 140.877 79.0431 140.856C80.1096 140.848 81.3315 140.542 82.2019 139.953C85.6467 137.64 88.9853 135.168 92.3484 132.741C92.6099 132.553 92.7693 132.218 92.9777 131.952C93.4231 131.703 93.8685 131.449 94.3099 131.2C98.7395 127.841 103.161 124.478 107.599 121.127C109.426 119.746 110.5 117.874 110.937 115.692C111.685 111.978 112.311 108.239 112.96 104.508C114.08 98.0431 114.942 91.5212 116.376 85.126C117.231 81.3052 118.734 77.4394 122.972 75.9234C125.706 74.9467 128.558 74.3011 131.357 73.5083C131.341 73.9823 131.39 74.4686 131.3 74.9263C129.956 81.9999 128.178 88.9222 124.361 95.1499C123.095 94.4062 121.824 93.6584 120.406 92.8248C119.662 98.3414 119.335 103.772 120.594 109.089C122.016 115.1 121.448 120.735 118.702 126.223C118.17 127.285 117.884 128.47 117.488 129.598C113.643 134.563 108.592 137.926 102.969 140.521C99.7652 142.001 96.5615 143.476 93.3577 144.955C89.0016 147.006 84.6578 149.095 80.2812 151.101C77.2736 152.482 74.3355 154.162 70.7885 153.581C69.5381 153.377 68.259 153.357 66.9922 153.25C65.705 152.437 64.4219 151.624 63.1347 150.811C61.1609 150.255 59.2894 149.585 57.9327 147.86C57.5526 147.374 56.6495 147.28 55.9712 147.055C54.4511 146.549 52.5958 146.675 51.4189 144.526H56.2491C55.865 143.341 55.5871 142.483 55.2888 141.576C58.2473 140.632 58.2065 145.172 61.2386 144.379C60.3477 142.532 59.5754 140.918 58.799 139.308C58.9012 138.376 59.3057 137.861 60.2497 138.449C61.5205 139.242 62.8323 139.308 64.2135 138.862V138.854Z" fill="#FEA798"/>
<path d="M54.7118 125.009C52.354 125.642 50.1514 125.695 48.5863 123.374L48.619 123.354C48.4596 123.26 48.3002 123.166 48.145 123.072C47.0743 117 45.0229 111.254 42.3218 105.729C42.4322 105.031 42.6447 104.332 42.6365 103.633C42.5384 96.588 42.2156 89.543 42.3545 82.5062C42.4362 78.3749 43.2168 74.2108 45.4479 70.6107C46.3265 69.1927 47.7486 67.9586 49.1911 67.076C50.7398 66.1279 52.26 66.6959 52.9914 68.498C53.678 70.1939 54.438 71.8938 54.8303 73.6633C56.9103 83.0375 57.6704 92.5629 57.793 102.146C57.8338 105.341 57.8011 108.537 57.8052 111.732C57.797 112.063 57.7889 112.39 57.7807 112.721C56.7632 116.82 55.7416 120.914 54.7241 125.013L54.7118 125.009Z" fill="#85CCB2"/>
<path d="M57.769 112.717C57.7772 112.386 57.7854 112.06 57.7936 111.729C58.1654 111.091 58.5618 110.466 58.901 109.808C63.633 100.683 69.3622 92.2773 76.9792 85.3018C78.6588 83.7612 80.6407 82.4494 82.688 81.4442C84.9641 80.3286 86.6599 81.3952 86.7662 83.941C86.8561 86.021 86.5087 88.1296 86.2717 90.2136C86.0143 92.4938 85.1521 94.2265 82.3978 94.0753C81.981 94.0508 81.5438 94.3245 81.0003 94.4962C81.5601 95.5178 82.1363 96.3718 82.4959 97.3076C82.7084 97.8593 82.7901 98.648 82.5572 99.1547C78.054 108.848 73.4854 118.508 66.1789 126.525C66.0726 126.501 66.0032 126.538 65.9623 126.636C64.0866 127.878 62.3295 129.419 60.2863 130.24C59.2769 130.645 57.5811 129.987 56.4818 129.333C55.6359 128.826 55.2355 127.576 54.6348 126.656C54.6756 126.354 54.7165 126.051 54.7574 125.749L54.9004 125.794C58.7825 122.079 58.4556 117.437 57.7731 112.717H57.769Z" fill="#02B394"/>
<path d="M58.7943 139.299C59.5707 140.909 60.343 142.519 61.2338 144.371C58.2017 145.163 58.2467 140.623 55.284 141.567C55.5782 142.479 55.8561 143.333 56.2443 144.518H51.4142C52.5911 146.667 54.4422 146.54 55.9665 147.047C56.6448 147.272 57.5438 147.37 57.9279 147.852C59.2846 149.577 61.1562 150.247 63.1299 150.803C63.0278 151.534 62.8643 152.261 62.8357 152.993C62.7499 155.228 62.7172 157.463 62.6682 159.699C62.5374 160.655 62.4107 161.615 62.28 162.571C62.28 162.98 62.284 163.389 62.2881 163.797C62.329 164.051 62.3699 164.3 62.4066 164.553C62.2514 164.68 61.9735 164.794 61.9571 164.933C61.6302 167.847 59.2438 168.162 57.2128 168.166C53.1182 168.182 49.0196 167.802 44.9332 167.434C44.406 167.389 43.6092 166.519 43.5315 165.947C43.0166 162.29 42.6734 158.604 42.2525 154.934C42.1544 154.068 41.9828 153.21 41.8479 152.347C41.7172 151.8 41.5905 151.256 41.4597 150.709C41.4474 149.756 41.4311 148.804 41.4188 147.852C41.2799 147.444 41.141 147.035 41.002 146.63C41.002 145.674 41.002 144.722 41.002 143.766C40.8794 143.492 40.7609 143.214 40.6383 142.94C40.6261 141.988 40.6138 141.04 40.5975 140.088C40.4585 139.679 40.3196 139.271 40.1807 138.866C40.2297 138.674 40.2746 138.482 40.3237 138.29C46.4083 139.957 52.5788 139.965 58.7902 139.291L58.7943 139.299Z" fill="#D7D7D7"/>
<path d="M202.857 135.168L201.218 133.979C201.925 133.84 202.628 133.587 203.335 133.582C208.337 133.55 213.338 133.476 218.34 133.582C224.396 133.713 230.391 133.235 236.292 131.899C245.752 129.758 254.202 125.794 260.585 118.148C267.026 110.437 269.825 101.414 270.258 91.5496C270.413 87.9822 270.503 84.3902 270.221 80.8391C269.939 77.2881 269.49 73.6838 268.538 70.2594C266.29 62.1847 261.607 55.6628 255.13 50.33C247.211 43.804 238.016 40.1099 228.07 38.4508C221.634 37.3761 215.091 36.5507 208.488 37.5028C203.347 38.2465 198.17 38.7369 193.017 39.3907C188.534 39.9587 184.072 40.8414 179.572 41.156C171.677 41.7036 164.277 39.5664 157.138 36.3504C156.488 36.0562 155.704 36.0562 154.985 35.9173C153.097 34.8834 151.205 33.8495 149.317 32.8198C149.031 32.407 148.826 31.8758 148.442 31.6061C147.392 30.8624 146.244 30.2576 145.169 29.5506C135.656 23.2821 126.249 16.8501 116.613 10.7777C107.57 5.07306 97.501 2.03686 86.8804 1.23592C78.9446 0.639307 71.0088 1.28905 63.261 3.26278C52.9346 5.89443 43.7402 10.5938 36.2662 18.3784C31.8447 22.9797 28.4611 28.2185 25.7968 34.0171C22.1395 41.9774 20.4559 50.3545 20.2556 59.0218C20.1576 63.2022 20.6071 67.4071 21.0239 71.5793C21.9801 81.1661 25.2983 90.0376 29.6952 98.521C30.3981 99.8777 31.669 100.944 32.6783 102.146C32.6129 102.542 32.5435 102.934 32.4781 103.331C30.0017 102.567 29.352 100.168 28.3876 98.284C25.2901 92.2321 22.8096 85.9267 21.22 79.2781C19.2586 71.0726 18.9153 62.72 19.4711 54.396C20.2761 42.337 24.5055 31.3527 31.857 21.7619C36.2172 16.0737 41.742 11.55 48.0677 8.07248C54.9901 4.27212 62.4028 1.92652 70.1875 0.831367C86.6925 -1.48563 102.421 0.90901 116.752 9.67435C126.465 15.616 135.803 22.1665 145.312 28.4432C151.956 32.8279 158.916 36.5711 166.631 38.7164C174.992 41.0416 183.365 40.4123 191.705 38.5898C200.773 36.6079 209.955 35.8641 219.186 36.3709C228.871 36.9062 238.208 39.0556 246.896 43.6079C254.914 47.8087 261.448 53.6645 265.984 61.4491C268.999 66.6225 270.773 72.3721 271.083 78.4404C271.288 82.3675 271.606 86.3149 271.459 90.2338C271.071 100.556 268.403 110.216 261.828 118.405C257.447 123.865 251.718 127.69 245.229 130.24C238.498 132.884 231.498 134.375 224.216 134.392C217.298 134.404 210.38 134.481 203.466 134.563C203.257 134.563 203.057 134.96 202.853 135.168H202.857Z" fill="#FFDAB9"/>
<path d="M32.4776 103.323C32.543 102.926 32.6125 102.534 32.6778 102.137C32.8331 101.41 32.8576 100.621 33.1723 99.9758C33.5891 99.1217 34.104 97.9162 34.8191 97.716C35.522 97.5198 36.8092 98.1573 37.3445 98.8275C39.1221 101.03 40.6749 103.417 42.3136 105.729C45.0147 111.254 47.0702 117 48.1367 123.072C48.2961 123.166 48.4555 123.26 48.6107 123.354L48.578 123.375C48.5168 124.028 48.4105 124.682 48.4105 125.336C48.4105 126.149 48.5494 126.958 48.5535 127.767C48.5617 129.602 48.3165 131.543 46.3305 132.136C44.4263 132.704 42.7549 131.825 41.3247 130.342C37.7532 126.648 35.8407 122.14 34.5617 117.282C34.1081 115.569 33.5768 113.87 33.2377 112.133C33.0742 111.303 33.2826 110.4 33.3398 109.199C30.418 108.026 33.2336 105.321 32.4735 103.323H32.4776Z" fill="#04B395"/>
<path d="M41.4598 150.721C41.5906 151.268 41.7173 151.812 41.848 152.359C30.9659 154.627 20.1083 157.01 10.1375 162.159C7.76331 163.384 5.5117 165.019 3.5584 166.846C0.395518 169.804 0.47316 173.629 3.50119 176.718C7.15444 180.445 11.8089 182.501 16.59 184.307C28.4855 188.794 40.8714 191.27 53.3799 193.248C57.7074 193.934 62.039 194.601 66.3706 195.275C65.778 195.54 65.1406 196.1 64.5971 196.023C51.6186 194.139 38.6443 192.161 25.9846 188.643C19.7814 186.918 13.566 185.083 8.04527 181.606C6.16552 180.421 4.24491 179.146 2.74929 177.532C-1.39024 173.073 -0.797714 168.795 4.13867 164.704C10.2519 159.637 17.6606 157.333 25.1265 155.248C29.2946 154.088 33.5445 153.226 37.733 152.147C39.0121 151.816 40.2216 151.207 41.4639 150.725L41.4598 150.721Z" fill="#FEFEFE"/>
<path d="M173.79 33.4942C164.502 33.535 157.388 30.3517 150.947 25.1375C147.768 22.563 145.537 19.4451 144.168 15.6979C141.732 9.01251 146.599 3.90859 151.744 2.9115C162.733 0.782486 172.331 4.09248 180.476 11.6932C183.336 14.3616 185.8 17.2752 186.63 21.2963C187.284 24.4755 186.618 27.2583 184.423 29.559C182.02 32.0803 179.27 33.7884 173.79 33.4942ZM157.727 3.06679C155.941 3.2752 154.282 3.28337 152.729 3.68792C145.843 5.47368 142.803 10.4346 145.937 17.218C148.16 22.0277 152.083 25.2069 156.566 27.8059C163.162 31.6349 170.194 33.6127 177.762 32.0599C179.998 31.6022 182.306 30.1392 183.957 28.5047C187.047 25.448 185.972 20.3564 183.692 16.9974C177.448 7.79885 168.188 4.16603 157.723 3.0627L157.727 3.06679Z" fill="#FFDAB9"/>
<path d="M229.418 195.675C234.024 194.993 238.637 194.36 243.23 193.624C254.116 191.883 264.994 190.032 275.496 186.599C280.38 185.006 285.185 183.077 289.84 180.907C293.558 179.17 296.779 176.62 298.07 172.383C299.684 173.241 298.769 174.328 298.217 175.219C296.108 178.619 292.892 180.789 289.452 182.591C281.704 186.653 273.29 188.806 264.835 190.727C258.722 192.116 252.539 193.207 246.364 194.29C242.916 194.895 239.418 195.218 235.944 195.667C235.813 195.667 235.687 195.667 235.556 195.667C234.064 195.941 232.581 196.305 231.077 196.435C230.55 196.48 229.97 195.945 229.414 195.671L229.418 195.675Z" fill="#73B6FF"/>
<path d="M233.088 148.265C233.771 147.881 234.457 147.493 235.139 147.108C235.352 147.415 235.528 147.958 235.777 147.995C240.566 148.673 245.392 149.131 250.157 149.948C260.218 151.673 270.283 153.524 279.89 157.059C284.618 158.8 289.215 161.035 293.587 163.544C295.59 164.692 296.979 166.977 298.491 168.869C299.01 169.518 299.472 170.634 298.066 171.153C296.219 165.501 291.34 163.156 286.518 161.014C274.107 155.506 260.904 152.833 247.583 150.696C242.985 149.957 238.372 149.335 233.771 148.641C233.529 148.604 233.313 148.392 233.084 148.261L233.088 148.265Z" fill="#73B6FF"/>
<path d="M58.7946 139.299C52.5833 139.974 46.4128 139.965 40.3281 138.298C40.8594 137.828 41.3293 137.064 41.9341 136.937C43.8424 136.537 45.7957 136.271 47.745 136.149C51.1203 135.936 54.4998 135.63 57.8833 136.32C59.5097 136.651 61.2056 136.623 62.8442 136.888C63.8495 137.052 64.8629 137.432 64.2091 138.854C62.8279 139.299 61.5161 139.234 60.2453 138.441C59.3013 137.853 58.8968 138.368 58.7946 139.299Z" fill="#0F1A4D"/>
<path d="M131.753 199.766C143.604 199.766 155.454 199.766 167.305 199.766C166.524 201.829 164.579 201.327 163.165 201.331C156.647 201.347 150.125 201.073 143.604 201.016C140.968 200.992 138.32 201.441 135.692 201.323C134.336 201.261 132.439 201.817 131.753 199.766Z" fill="#FEFEFE"/>
<path d="M65.9619 126.636C66.0028 126.538 66.0763 126.501 66.1826 126.525C66.3665 126.611 66.5422 126.738 66.7383 126.771C73.6117 127.947 80.4809 129.141 87.3624 130.277C89.6672 130.657 91.9964 130.894 94.3134 131.196C93.868 131.445 93.4226 131.699 92.9812 131.948C90.7255 131.666 88.4617 131.458 86.2223 131.094C80.1377 130.105 74.053 129.088 67.9888 127.98C67.2573 127.845 66.6362 127.098 65.966 126.632L65.9619 126.636Z" fill="#FEFEFE"/>
<path d="M129.926 4.95432C128.852 5.98818 127.773 7.02613 126.69 8.06408C125.66 6.89945 124.565 5.78386 123.682 4.52116C123.564 4.35362 124.483 2.99285 125.006 2.93972C126.318 2.80079 127.691 3.00102 128.999 3.26255C129.326 3.32793 129.501 4.14521 129.926 4.95432Z" fill="#0C2C7E"/>
<path d="M240.415 28.6597C239.381 29.5587 238.347 30.4577 237.309 31.3567C236.455 30.3065 235.605 29.2563 234.755 28.2061C234.722 28.1653 234.722 28.0427 234.755 28.01C235.233 27.5564 235.74 26.7023 236.202 26.7268C240.063 26.9026 240.067 26.9557 240.411 28.6597H240.415Z" fill="#0C2C7E"/>
<path d="M57.7685 112.718C58.451 117.437 58.7779 122.079 54.8958 125.794C54.8345 125.533 54.7732 125.271 54.7119 125.009C55.7294 120.911 56.751 116.816 57.7685 112.718Z" fill="#0F1A4D"/>
<path d="M174.252 199.766C176.43 199.631 178.612 199.492 180.79 199.357C180.239 199.836 179.756 200.547 179.119 200.743C177.378 201.282 175.686 201.037 174.252 199.766Z" fill="#FEFEFE"/>
<path d="M118.677 199.357C120.72 199.492 122.763 199.631 124.806 199.766C123.123 201.617 119.776 201.392 118.677 199.357Z" fill="#FEFEFE"/>
<path d="M109.687 198.949C111.321 199.084 112.956 199.218 114.59 199.357C113.029 201.086 110.729 200.894 109.687 198.949Z" fill="#FEFEFE"/>
<path d="M184.876 199.357C186.376 199.223 187.871 199.084 189.371 198.949C188.292 201.012 186.425 201.18 184.876 199.357Z" fill="#FEFEFE"/>
<path d="M102.74 198.54C104.101 198.674 105.466 198.809 106.827 198.948C105.343 200.701 103.79 200.55 102.74 198.54Z" fill="#FEFEFE"/>
<path d="M192.641 198.948C194.001 198.813 195.366 198.674 196.727 198.54C195.677 200.501 194.079 200.66 192.641 198.948Z" fill="#FEFEFE"/>
<path d="M199.179 198.54C200.405 198.405 201.631 198.266 202.856 198.131C201.863 200.007 200.523 200.154 199.179 198.54Z" fill="#FEFEFE"/>
<path d="M204.9 198.127C205.991 197.992 207.078 197.858 208.17 197.723C207.119 199.721 206.147 199.843 204.9 198.127Z" fill="#FEFEFE"/>
<path d="M209.804 197.719C210.895 197.584 211.982 197.445 213.073 197.31C212.023 199.308 211.05 199.431 209.804 197.719Z" fill="#FEFEFE"/>
<path d="M96.6104 198.131C97.7014 198.266 98.7884 198.401 99.8795 198.54C98.6331 200.252 97.6606 200.13 96.6104 198.131Z" fill="#FEFEFE"/>
<path d="M214.707 197.31C215.798 197.175 216.885 197.04 217.976 196.901C216.338 198.826 215.847 198.887 214.707 197.31Z" fill="#FEFEFE"/>
<path d="M91.2979 197.723C92.3889 197.858 93.4759 197.992 94.567 198.127C93.2389 199.721 92.2663 199.598 91.2979 197.723Z" fill="#FEFEFE"/>
<path d="M218.385 196.901C219.476 196.766 220.563 196.632 221.654 196.493C220.812 198.074 219.889 198.193 218.385 196.901Z" fill="#FEFEFE"/>
<path d="M81.8994 196.905C82.8515 197.04 83.8078 197.175 84.7599 197.31C83.6116 198.895 82.8842 198.793 81.8994 196.905Z" fill="#FEFEFE"/>
<path d="M86.3936 197.314C87.3457 197.449 88.3019 197.584 89.254 197.719C88.1058 199.304 87.3784 199.202 86.3936 197.314Z" fill="#FEFEFE"/>
<path d="M222.472 196.493C223.424 196.358 224.38 196.223 225.332 196.084C224.478 197.637 223.649 197.755 222.472 196.493Z" fill="#FEFEFE"/>
<path d="M77.4033 196.493C78.4944 196.628 79.5814 196.766 80.6724 196.901C79.3689 198.466 78.3473 197.792 77.4033 196.493Z" fill="#FEFEFE"/>
<path d="M226.149 196.084C227.102 195.949 228.058 195.814 229.01 195.675C228.156 197.228 227.326 197.347 226.149 196.084Z" fill="#FEFEFE"/>
<path d="M73.7256 196.088C74.8167 196.223 75.9036 196.358 76.9947 196.497C75.7279 197.78 74.6164 197.821 73.7256 196.088Z" fill="#FEFEFE"/>
<path d="M67.1875 195.271C68.0048 195.406 68.8221 195.541 69.6393 195.68C68.4543 196.971 67.731 196.848 67.1875 195.271Z" fill="#FEFEFE"/>
<path d="M70.457 195.68C71.4092 195.815 72.3654 195.949 73.3175 196.088C72.1815 197.228 71.164 197.564 70.457 195.68Z" fill="#FEFEFE"/>
<path d="M40.1892 138.875C40.3282 139.283 40.4671 139.692 40.6061 140.097C40.2546 139.868 39.9032 139.643 39.5518 139.414C39.7643 139.234 39.9767 139.05 40.1892 138.871V138.875Z" fill="#FEFEFE"/>
<path d="M41.0066 146.639C41.1456 147.047 41.2845 147.456 41.4234 147.861C41.072 147.632 40.7206 147.407 40.3691 147.178C40.5816 146.998 40.7941 146.815 41.0066 146.635V146.639Z" fill="#FEFEFE"/>
<path d="M40.6426 142.952C40.7652 143.226 40.8878 143.504 41.0063 143.778C40.8837 143.504 40.7611 143.226 40.6426 142.952Z" fill="#FEFEFE"/>
<path d="M62.407 164.557C62.3661 164.304 62.3252 164.055 62.2884 163.801C62.2884 163.393 62.2844 162.984 62.2803 162.575C62.411 161.619 62.5377 160.659 62.6685 159.703C64.1069 157.549 65.5494 155.396 66.9878 153.242C68.2546 153.348 69.5336 153.369 70.7841 153.573C74.3311 154.153 77.2692 152.474 80.2768 151.093C84.6534 149.086 88.9972 146.998 93.3533 144.947C98.9353 144.174 104.517 143.398 110.103 142.625C110.557 143.095 110.994 143.582 111.464 144.031C113.315 145.797 115.444 147.345 116.973 149.356C118.91 151.902 119.997 154.909 119.331 158.231C115.281 157.471 111.391 156.613 107.456 156.041C103.582 155.477 99.6709 154.942 95.7684 154.889C91.9067 154.836 88.041 155.4 84.1752 155.69C84.1875 155.87 84.2038 156.053 84.2161 156.233C84.4041 156.274 84.5961 156.372 84.7719 156.352C91.7065 155.498 98.6902 155.71 105.326 157.651C114.676 160.389 123.732 164.128 133.049 166.997C138.177 168.574 143.588 169.248 148.867 170.331C148.92 170.609 148.969 170.891 149.022 171.169C150.064 176.154 149.975 181.066 148.066 185.86C147.568 187.098 146.685 187.204 145.48 186.926C143.923 186.563 142.317 186.415 140.731 186.174C140.551 186.093 140.376 185.962 140.184 185.933C130.589 184.442 120.994 182.962 111.399 181.479C102.057 180.756 92.7077 180.077 83.3702 179.301C75.7654 178.668 69.0188 176.187 64.5155 169.584C63.5144 168.112 63.0976 166.245 62.411 164.557H62.407Z" fill="#2254B5"/>
<path d="M189.359 141.032C196.629 144.399 203.891 147.791 211.181 151.109C213.212 152.032 215.312 153.303 217.433 153.414C221.025 153.597 224.923 154.071 227.866 150.974C228.095 150.733 228.626 150.778 229.018 150.692C233.709 157.026 232.001 166.768 222.402 170.887C215.165 173.989 207.528 174.941 199.804 175.66C193.454 176.252 187.124 177.041 180.782 177.744C179.229 176.673 177.607 175.684 176.132 174.512C173.234 172.211 170.018 171.598 166.786 173.253C163.321 175.031 160.24 173.935 157.044 172.799C156.623 171.316 156.198 169.829 155.777 168.345C170.194 162.293 184.57 156.131 199.984 152.911C189.037 153.72 178.645 156.928 168.171 160.303C168.535 158.934 169.021 157.77 169.638 156.683C172.781 151.158 177.885 147.803 183.144 144.648C185.199 143.414 187.288 142.237 189.359 141.036V141.032Z" fill="#2254B5"/>
<path d="M157.044 172.8C160.24 173.94 163.321 175.031 166.786 173.253C170.019 171.594 173.239 172.207 176.132 174.512C177.607 175.685 179.229 176.674 180.782 177.744C184.591 179.085 188.387 180.478 192.22 181.753C194.402 182.48 196.654 182.995 198.86 183.641C200.413 184.095 201.341 185.206 201.145 186.792C200.936 188.459 199.588 188.823 198.084 188.753C194.7 188.59 191.313 188.271 187.933 188.336C183.536 188.422 179.139 188.773 174.751 189.084C169.148 189.48 163.705 188.802 158.27 187.343C154.972 186.461 151.474 186.334 148.066 185.864C149.975 181.071 150.065 176.159 149.023 171.173C149.877 171.304 150.735 171.398 151.581 171.578C153.407 171.962 155.226 172.391 157.044 172.804V172.8Z" fill="#FEA798"/>
<path d="M111.398 181.48C120.993 182.963 130.588 184.442 140.183 185.934C140.375 185.962 140.551 186.093 140.731 186.175C134.989 187.609 129.129 186.857 123.327 187.176C118.28 187.45 113.249 188.116 108.215 188.602C107.61 188.659 106.895 188.905 106.417 188.676C105.596 188.284 104.451 187.683 104.304 186.988C104.149 186.244 104.807 185.108 105.448 184.487C105.947 184.001 106.956 183.878 107.741 183.878C109.539 183.878 110.642 182.983 111.398 181.476V181.48Z" fill="#EB9B8B"/>
<path d="M154.985 35.9175C155.708 36.0564 156.489 36.0564 157.138 36.3506C164.277 39.5626 171.678 41.6997 179.573 41.1563C184.072 40.8457 188.53 39.963 193.017 39.3909C198.17 38.7371 203.347 38.2467 208.488 37.503C215.092 36.5468 221.634 37.3763 228.07 38.4511C238.021 40.1101 247.211 43.8083 255.13 50.3302C261.603 55.663 266.29 62.189 268.538 70.2596C269.49 73.68 269.939 77.2842 270.221 80.8394C270.499 84.3904 270.413 87.9865 270.258 91.5498C269.825 101.414 267.026 110.437 260.586 118.148C254.203 125.794 245.752 129.758 236.292 131.899C230.391 133.235 224.396 133.713 218.34 133.583C213.343 133.472 208.337 133.546 203.335 133.583C202.628 133.587 201.925 133.84 201.218 133.979C195.571 129.848 189.948 125.684 184.264 121.597C180.333 118.773 179.863 114.393 179.213 110.221C177.824 101.325 176.806 92.3712 175.433 83.471C175.123 81.4442 174.13 79.4745 173.206 77.5988C172.139 75.429 170.333 73.9946 167.886 73.5533C165.953 73.2019 164.008 72.9158 162.066 72.5971C160.943 72.3315 159.819 72.0699 158.695 71.8043C158.761 70.5375 159.104 69.2054 158.834 68.008C158.078 64.6531 157.069 61.3513 156.158 58.029C158.352 56.1329 158.924 53.534 159.075 50.837C159.104 50.3507 158.282 49.8154 157.849 49.3005C157.866 48.0214 157.894 46.7465 157.902 45.4674C157.923 41.9817 157.567 38.6063 154.977 35.9175H154.985ZM210.037 101.709C208.37 100.041 206.429 99.6041 204.696 100.891C202.767 102.326 202.318 104.765 204.083 107.209C205.644 109.371 207.667 111.222 209.628 113.057C209.996 113.404 211.34 113.33 211.708 112.95C213.715 110.85 215.725 108.713 217.401 106.355C219.027 104.067 217.83 100.953 215.079 100.515C213.612 100.282 211.962 101.21 210.037 101.709ZM182.821 64.1954C184.427 62.2421 185.817 60.8282 186.83 59.1855C187.239 58.5194 187.186 57.0074 186.699 56.4966C186.107 55.8796 184.844 55.851 183.851 55.6875C183.226 55.5854 182.552 55.6344 181.918 55.7325C180.925 55.8796 179.663 55.8305 179.046 56.419C178.539 56.9053 178.4 58.4377 178.796 59.0833C179.83 60.7751 181.24 62.238 182.825 64.1954H182.821Z" fill="#FFDAB9"/>
<path d="M189.359 141.032C187.287 142.233 185.199 143.41 183.143 144.644C177.884 147.803 172.784 151.154 169.638 156.679C169.021 157.766 168.534 158.93 168.171 160.299C178.644 156.928 189.036 153.716 199.983 152.907C184.569 156.127 170.189 162.289 155.777 168.341C153.476 169.003 151.171 169.669 148.871 170.331C143.587 169.248 138.181 168.578 133.052 166.997C123.735 164.128 114.68 160.389 105.33 157.651C98.6936 155.71 91.71 155.498 84.7753 156.352C84.5955 156.372 84.4035 156.274 84.2196 156.233C84.2073 156.053 84.191 155.87 84.1787 155.69C88.0445 155.396 91.9102 154.836 95.7719 154.889C99.6744 154.942 103.585 155.481 107.459 156.041C111.394 156.613 115.284 157.471 119.334 158.232C120 154.909 118.917 151.902 116.976 149.356C115.448 147.345 113.319 145.797 111.468 144.031C110.994 143.582 110.556 143.095 110.107 142.626C110.622 142.462 111.137 142.303 111.648 142.139C117.806 140.149 124.087 138.441 129.297 134.318C129.509 134.575 129.763 134.812 129.93 135.094C133.391 140.975 141.442 143.198 147.698 142.135C149.811 141.706 151.972 141.44 154.024 140.811C157.759 139.663 160.509 137.003 163.21 134.326C164.567 136.529 166.638 137.722 169.025 138.486C174.885 140.362 180.912 140.28 186.956 140.067L189.367 141.032H189.359Z" fill="#0C2C7E"/>
<path d="M158.699 71.8044C159.823 72.0701 160.947 72.3316 162.071 72.5972C162.692 79.7607 162.7 87.0141 165.213 93.8956C165.532 94.7701 166.022 95.5873 166.431 96.4291C166.672 97.2669 166.852 98.1291 167.166 98.9423C169.218 104.246 169.299 109.444 166.435 114.52C166.214 114.912 166.19 115.411 166.075 115.86C165.519 116.722 164.968 117.589 164.412 118.451C163.562 118.671 162.708 118.868 161.866 119.113C152.145 121.981 142.329 122.86 132.371 120.453C130.474 119.995 128.607 119.411 126.723 118.888C126.233 117.997 125.746 117.106 125.256 116.216C121.39 109.346 120.643 102.342 124.357 95.146C128.174 88.9224 129.951 81.9959 131.296 74.9265C131.382 74.4647 131.337 73.9784 131.353 73.5044C131.676 73.2715 131.999 73.0385 132.322 72.8056C133.188 72.5931 134.05 72.3847 134.916 72.1763C134.336 76.4507 133.666 80.721 133.196 85.0076C132.554 90.8716 132.469 93.9691 139.195 95.6568C142.415 96.4659 145.991 96.613 149.292 96.1921C156.811 95.2318 158.752 92.7391 158.712 85.1098C158.687 80.7006 158.47 76.2913 158.34 71.8821C158.454 71.8453 158.573 71.8208 158.691 71.8044H158.699Z" fill="#FFA653"/>
<path d="M164.412 118.446C164.968 117.584 165.523 116.718 166.075 115.855C167.154 118.332 168.037 120.914 169.348 123.256C171.665 127.387 174.35 131.286 178.302 134.105C181.182 136.091 184.068 138.081 186.948 140.067C180.905 140.28 174.877 140.362 169.017 138.486C166.631 137.722 164.559 136.525 163.202 134.326C163.076 130.534 162.949 126.738 162.822 122.945C163.353 121.446 163.881 119.95 164.412 118.45V118.446Z" fill="#FCFCFB"/>
<path d="M178.302 134.106C174.35 131.286 171.665 127.392 169.348 123.256C168.037 120.915 167.15 118.332 166.075 115.856C166.19 115.406 166.214 114.904 166.435 114.515C169.295 109.44 169.214 104.242 167.166 98.938C166.852 98.1289 166.672 97.2667 166.431 96.4249C167.105 95.6934 167.783 94.9579 168.744 93.9199C169.23 95.1663 169.843 96.3227 170.129 97.5487C171.212 102.146 171.163 106.776 170.64 111.471C169.79 119.084 172.217 125.765 177.023 131.662C177.591 132.361 177.885 133.284 178.306 134.102L178.302 134.106Z" fill="#EF9B8D"/>
<path d="M132.321 72.8052C131.998 73.0382 131.675 73.2711 131.352 73.504C128.553 74.2968 125.701 74.9424 122.967 75.9191C118.729 77.4351 117.23 81.3009 116.372 85.1217C114.937 91.5169 114.075 98.0388 112.955 104.504C112.31 108.238 111.68 111.973 110.933 115.688C110.495 117.87 109.425 119.746 107.594 121.123C103.16 124.474 98.7346 127.837 94.305 131.196C91.988 130.894 89.6587 130.657 87.354 130.276C80.4725 129.14 73.6032 127.947 66.7299 126.77C66.5378 126.738 66.358 126.607 66.1742 126.525C73.4807 118.508 78.0493 108.847 82.5525 99.1544C82.7895 98.6477 82.7037 97.859 82.4912 97.3073C82.1316 96.3716 81.5554 95.5175 80.9956 94.4959C81.539 94.3243 81.9722 94.0546 82.3931 94.075C85.1473 94.2303 86.0096 92.4936 86.267 90.2133C86.504 88.1293 86.8514 86.0207 86.7615 83.9407C86.6511 81.399 84.9553 80.3283 82.6832 81.4439C80.6359 82.4492 78.6581 83.765 76.9745 85.3015C69.3575 92.277 63.6283 100.683 58.8963 109.808C58.5571 110.461 58.1607 111.087 57.7888 111.728C57.7888 108.533 57.8175 105.337 57.7766 102.142C57.6581 92.5589 56.898 83.0335 54.8139 73.6593C54.4216 71.8858 53.6616 70.1859 52.9751 68.4941C52.2477 66.692 50.7275 66.1281 49.1747 67.072C47.7322 67.9547 46.3142 69.1888 45.4316 70.6068C43.2045 74.2069 42.4199 78.3709 42.3381 82.5023C42.1992 89.5391 42.522 96.5881 42.6201 103.629C42.6283 104.328 42.4158 105.027 42.3055 105.725C40.6668 103.412 39.1099 101.026 37.3364 98.8234C36.797 98.1532 35.5138 97.5157 34.811 97.7119C34.0959 97.9121 33.581 99.1176 33.1642 99.9717C32.8495 100.617 32.825 101.41 32.6697 102.133C31.6604 100.932 30.3895 99.8695 29.6866 98.5087C25.2937 90.0213 21.9756 81.1538 21.0153 71.5671C20.5985 67.3948 20.1489 63.1899 20.247 59.0095C20.4473 50.3463 22.1309 41.9651 25.7882 34.0048C28.4525 28.2062 31.8402 22.9715 36.2576 18.3661C43.7316 10.5815 52.9219 5.88214 63.2524 3.2505C71.0002 1.27676 78.936 0.627025 86.8718 1.22364C97.4924 2.02458 107.557 5.06078 116.605 10.7654C126.24 16.8419 135.647 23.2739 145.16 29.5384C146.235 30.2453 147.383 30.8501 148.434 31.5938C148.818 31.8676 149.022 32.3948 149.308 32.8075C148.434 32.7012 147.559 32.5909 146.685 32.4887C140.485 31.7655 135.692 35.1286 134.564 41.2541C134.078 43.9021 134.094 46.6482 133.882 49.3452C133.678 49.4759 133.473 49.6026 133.269 49.7334C133.016 50.3586 132.403 51.1064 132.57 51.5804C133.289 53.6155 134.241 55.5647 135.108 57.5507C133.069 62.4299 131.491 67.3907 132.317 72.793L132.321 72.8052ZM93.1158 63.7702C89.9366 62.8426 88.0323 63.4269 87.0761 65.6295C86.2425 67.5542 87.1374 69.8303 89.7486 71.2851C91.9185 72.4947 94.2968 73.3528 96.6383 74.2151C97.7784 74.636 98.7142 74.2723 99.0902 72.8665C99.65 70.7784 100.553 68.7679 100.937 66.6593C101.28 64.7795 101.624 62.7282 99.9524 61.1059C97.5046 58.7317 94.2805 59.9821 93.1158 63.7743V63.7702ZM119.077 39.5296C121.365 37.752 122.321 35.5699 121.153 35.1408C119.804 34.6464 118.022 34.6545 116.649 35.1122C115.509 35.4882 116.511 37.5273 119.081 39.5296H119.077Z" fill="#FFDAB9"/>
<path d="M125.259 116.211C125.75 117.102 126.236 117.993 126.726 118.884C127.213 120.355 127.699 121.826 128.185 123.293C128.553 126.967 128.925 130.64 129.292 134.314C124.082 138.437 117.797 140.145 111.643 142.135C111.133 142.303 110.618 142.462 110.103 142.622C104.521 143.394 98.9387 144.17 93.3525 144.943C96.5563 143.463 99.76 141.988 102.964 140.509C108.591 137.91 113.642 134.551 117.483 129.586C117.851 129.194 118.32 128.859 118.574 128.405C120.825 124.351 123.036 120.277 125.259 116.211Z" fill="#FCFBFB"/>
<path d="M125.26 116.211C123.037 120.277 120.826 124.351 118.574 128.405C118.321 128.858 117.851 129.197 117.483 129.586C117.884 128.458 118.166 127.273 118.701 126.21C121.447 120.722 122.019 115.087 120.593 109.076C119.335 103.759 119.661 98.3287 120.405 92.812C121.823 93.6456 123.09 94.3894 124.361 95.1372C120.646 102.333 121.394 109.333 125.26 116.207V116.211Z" fill="#EF9B8D"/>
<path d="M66.9873 153.247C65.5489 155.4 64.1064 157.554 62.668 159.707C62.7211 157.472 62.7538 155.237 62.8355 153.001C62.8641 152.27 63.0276 151.538 63.1297 150.811C64.417 151.624 65.7001 152.437 66.9873 153.251V153.247Z" fill="#F2F2F2"/>
<path d="M48.6195 123.354C48.4602 123.26 48.3008 123.166 48.1455 123.072C48.3049 123.166 48.4642 123.26 48.6195 123.354Z" fill="#F2F2F2"/>
<path d="M62.2803 162.576C62.2803 162.984 62.2844 163.393 62.2884 163.802C62.2884 163.393 62.2844 162.984 62.2803 162.576Z" fill="#F2F2F2"/>
<path d="M133.887 49.3572C134.099 46.6561 134.083 43.9141 134.569 41.2661C135.693 35.1406 140.49 31.7775 146.689 32.5008C147.564 32.6029 148.438 32.7133 149.313 32.8195C151.201 33.8534 153.093 34.8872 154.981 35.917C157.567 38.6059 157.923 41.9812 157.907 45.4669C157.898 46.746 157.874 48.0209 157.853 49.3C157.461 49.6024 157.073 49.9007 156.681 50.2031C156.546 50.3379 156.411 50.4728 156.272 50.6036C156.154 50.5504 156.035 50.4973 155.917 50.4442C154.764 46.8318 153.616 43.2194 152.521 39.7868C149.791 41.4337 147.56 43.1785 145.039 44.192C142.448 45.2299 139.575 45.5527 136.723 46.2147C136.51 47.7676 136.273 49.5043 136.069 50.9918C135.391 50.5177 134.839 50.1336 134.291 49.7495C134.161 49.6146 134.026 49.4798 133.895 49.349L133.887 49.3572Z" fill="#262954"/>
<path d="M157.727 3.06665C168.192 4.16998 177.452 7.8028 183.696 17.0013C185.976 20.3644 187.051 25.452 183.961 28.5086C182.31 30.1432 180.002 31.6061 177.766 32.0638C170.198 33.6125 163.166 31.6347 156.57 27.8098C152.087 25.2068 148.16 22.0317 145.941 17.222C142.807 10.4385 145.847 5.47763 152.733 3.69187C154.286 3.28732 155.941 3.28323 157.731 3.07073L157.727 3.06665Z" fill="#FFDAB9"/>
<path d="M148.867 170.336C151.168 169.674 153.473 169.008 155.773 168.346C156.194 169.829 156.619 171.317 157.04 172.8C155.218 172.391 153.403 171.962 151.577 171.574C150.735 171.394 149.873 171.3 149.019 171.169C148.97 170.892 148.916 170.61 148.863 170.332L148.867 170.336Z" fill="#EB9B8B"/>
<path d="M134.287 49.762C134.834 50.1461 135.386 50.5302 136.064 51.0042C136.268 49.5168 136.505 47.776 136.718 46.2272C139.57 45.5652 142.447 45.2424 145.034 44.2045C147.555 43.191 149.786 41.4461 152.516 39.7993C153.611 43.2319 154.759 46.8443 155.912 50.4567C155.961 50.6651 156.01 50.8694 156.059 51.0778C156.128 50.9225 156.198 50.7713 156.267 50.616C156.402 50.4812 156.537 50.3463 156.676 50.2156C157.068 49.9132 157.456 49.6149 157.849 49.3125C158.278 49.8233 159.099 50.3586 159.075 50.8449C158.923 53.5419 158.351 56.1368 156.157 58.0369C155.728 58.5886 155.221 59.0994 154.89 59.7001C154.11 61.114 153.529 62.6505 152.655 64.0031C150.624 67.1496 151.36 69.4993 154.894 70.7212C156.043 71.1175 157.195 71.4976 158.343 71.8858C158.474 76.295 158.691 80.7043 158.715 85.1135C158.756 92.7428 156.815 95.2355 149.296 96.1958C145.994 96.6167 142.418 96.4696 139.198 95.6605C132.472 93.9728 132.558 90.8753 133.2 85.0113C133.669 80.7247 134.34 76.4544 134.92 72.18L134.944 72.2127C135.096 72.1228 135.247 72.037 135.402 71.9471C136.747 71.3586 138.095 70.7702 139.439 70.1818C142.194 69.8058 144.964 69.5279 147.69 68.9967C148.454 68.8455 149.067 67.9383 149.745 67.3785C150.015 67.2395 150.289 67.1047 150.559 66.9658C150.604 66.9453 150.657 66.929 150.693 66.8963C150.718 66.8759 150.714 66.8268 150.722 66.79C150.665 66.8472 150.608 66.9004 150.55 66.9576C150.277 67.0924 150.007 67.2273 149.733 67.3662C146.558 68.7393 143.755 68.2775 141.307 65.7562C141.025 65.466 140.461 65.4497 140.028 65.3067C139.182 63.5863 138.185 61.9231 137.539 60.1333C137.069 58.8338 136.501 57.8858 135.116 57.5752C134.25 55.5933 133.298 53.64 132.578 51.609C132.411 51.135 133.024 50.3831 133.277 49.762C133.616 49.7661 133.951 49.7702 134.291 49.7742L134.287 49.762ZM152.058 49.7988C152.12 49.2757 152.275 48.3031 152.23 48.295C151.139 48.0702 150.027 47.8577 148.92 47.87C148.613 47.87 148.311 48.5892 147.686 49.3983C151.225 48.1928 151.437 48.2255 152.132 49.8274C151.556 50.2237 150.979 50.6242 150.432 51.0002C149.815 50.6896 149.263 50.4117 148.524 50.0358C148.577 51.8787 149.705 51.9932 150.734 51.7766C151.625 51.5927 152.912 51.3107 152.062 49.7988H152.058ZM147.694 61.2856C147.817 61.4818 147.939 61.682 148.062 61.8782C148.201 61.6412 148.344 61.4001 148.483 61.1631C148.883 60.6114 149.284 60.0597 149.95 59.1362C148.511 59.5081 147.69 59.7206 146.869 59.933C145.569 59.5081 144.266 59.0831 142.966 58.654C142.909 58.8461 142.856 59.0381 142.798 59.2261C142.688 60.6032 143.477 61.1508 144.707 61.2203C145.7 61.2775 146.697 61.2652 147.694 61.2816V61.2856ZM148.225 56.1123C148.103 55.9937 147.98 55.8752 147.857 55.7567H143.796C143.718 55.957 143.636 56.1531 143.559 56.3534C144.564 56.7497 145.549 57.3504 146.583 57.4485C147.085 57.4935 147.674 56.5904 148.225 56.1163V56.1123ZM143.906 48.724L144.163 48.3767C143.51 48.0906 142.876 47.6575 142.194 47.5553C141.021 47.3755 139.807 47.3919 139.207 48.7281H143.906V48.724ZM144.298 50.0725C143.624 50.3749 142.954 50.6773 142.361 50.943C141.597 50.5466 140.894 50.1829 139.811 49.623C141.119 52.3405 142.778 52.4958 144.298 50.0725Z" fill="#FDA597"/>
<path d="M210.037 101.708C211.962 101.21 213.613 100.282 215.08 100.515C217.826 100.952 219.023 104.062 217.401 106.354C215.725 108.716 213.711 110.85 211.708 112.95C211.34 113.334 209.996 113.404 209.628 113.056C207.667 111.221 205.644 109.37 204.083 107.209C202.322 104.765 202.767 102.325 204.696 100.891C206.429 99.6037 208.37 100.037 210.037 101.708Z" fill="#0C2C7E"/>
<path d="M158.343 71.8818C157.195 71.4936 156.038 71.1136 154.894 70.7172C151.359 69.4953 150.628 67.1456 152.655 63.9991C153.525 62.6465 154.11 61.11 154.89 59.6961C155.225 59.0913 155.732 58.5846 156.157 58.033C157.068 61.3552 158.078 64.657 158.833 68.012C159.103 69.2052 158.76 70.5374 158.695 71.8082C158.576 71.8246 158.458 71.8491 158.343 71.8859V71.8818Z" fill="#262954"/>
<path d="M182.821 64.1952C181.236 62.2419 179.826 60.779 178.792 59.0831C178.4 58.4375 178.535 56.9051 179.041 56.4188C179.658 55.8303 180.921 55.8794 181.914 55.7323C182.548 55.6383 183.222 55.5852 183.847 55.6873C184.84 55.8508 186.103 55.8794 186.695 56.4964C187.182 57.0072 187.235 58.5192 186.826 59.1853C185.813 60.828 184.423 62.2419 182.817 64.1952H182.821Z" fill="#0C2C7E"/>
<path d="M162.822 122.942C162.949 126.738 163.075 130.53 163.202 134.322C160.501 137.003 157.751 139.659 154.016 140.807C151.964 141.437 149.803 141.702 147.69 142.131C147.044 141.604 146.444 141.008 145.745 140.562C142.615 138.568 139.378 136.729 136.358 134.58C135.398 133.897 135.002 132.426 134.344 131.319C135.655 130.571 136.963 129.819 138.283 129.079C138.389 129.022 138.553 129.079 138.688 129.059C143.469 128.246 148.258 127.49 153.015 126.562C154.028 126.366 154.923 125.545 155.875 125.013C158.192 124.323 160.509 123.628 162.822 122.938V122.942Z" fill="#FDA697"/>
<path d="M155.875 125.017C154.927 125.548 154.032 126.366 153.015 126.566C148.258 127.494 143.465 128.25 138.688 129.063C138.557 129.087 138.389 129.026 138.283 129.083C136.963 129.819 135.656 130.575 134.344 131.323C134.998 132.434 135.398 133.901 136.359 134.584C139.374 136.733 142.615 138.572 145.745 140.566C146.444 141.011 147.044 141.608 147.69 142.135C141.43 143.198 133.384 140.975 129.922 135.094C129.755 134.808 129.502 134.575 129.289 134.318C128.921 130.644 128.549 126.971 128.182 123.297C128.84 123.436 129.514 123.513 130.151 123.718C138.61 126.464 147.175 127.04 155.875 125.017Z" fill="#ED9A8B"/>
<path d="M155.875 125.017C147.175 127.04 138.61 126.46 130.151 123.718C129.518 123.513 128.839 123.436 128.182 123.297C127.695 121.826 127.209 120.354 126.723 118.887C128.602 119.411 130.474 119.995 132.37 120.453C142.329 122.859 152.14 121.985 161.866 119.112C162.708 118.863 163.562 118.667 164.412 118.45C163.88 119.95 163.353 121.446 162.822 122.945C160.505 123.636 158.188 124.331 155.875 125.021V125.017Z" fill="#FFB875"/>
<path d="M139.436 70.1736C138.091 70.7621 136.743 71.3505 135.398 71.939C135.247 72.0289 135.096 72.1147 134.941 72.2046L134.916 72.1719C134.05 72.3803 133.184 72.5887 132.321 72.8012C131.496 67.399 133.073 62.4381 135.112 57.563C136.498 57.8736 137.07 58.8216 137.536 60.1211C138.181 61.9109 139.178 63.5782 140.024 65.2945C139.828 66.9209 139.632 68.5473 139.432 70.1736H139.436Z" fill="#262954"/>
<path d="M93.1158 63.7702C94.2764 59.978 97.5046 58.7276 99.9524 61.1018C101.624 62.7241 101.285 64.7755 100.937 66.6552C100.549 68.7679 99.6459 70.7784 99.0902 72.8625C98.7142 74.2682 97.7784 74.6319 96.6383 74.211C94.2968 73.3488 91.9185 72.4906 89.7486 71.281C87.1374 69.8263 86.2425 67.5501 87.0761 65.6254C88.0323 63.4229 89.9366 62.8385 93.1158 63.7661V63.7702Z" fill="#0C2C7E"/>
<path d="M119.077 39.5296C116.507 37.5273 115.51 35.4882 116.646 35.1122C118.019 34.6586 119.804 34.6464 121.149 35.1408C122.318 35.5699 121.361 37.7521 119.073 39.5296H119.077Z" fill="#0C2C7E"/>
<path d="M134.287 49.762C133.952 49.758 133.613 49.7539 133.273 49.7498C133.478 49.619 133.682 49.4923 133.886 49.3616C134.017 49.4964 134.152 49.6313 134.283 49.762H134.287Z" fill="#FCA597"/>
<path d="M156.272 50.6123C156.202 50.7675 156.133 50.9187 156.063 51.074C156.014 50.8656 155.965 50.6613 155.916 50.4529C156.035 50.506 156.153 50.5591 156.276 50.6123H156.272Z" fill="#FCA597"/>
<path d="M156.68 50.2073C156.545 50.3421 156.41 50.477 156.271 50.6077C156.406 50.4729 156.541 50.338 156.68 50.2073Z" fill="#FCA597"/>
<path d="M139.436 70.1736C139.632 68.5472 139.828 66.9208 140.028 65.2944C140.461 65.4375 141.025 65.4538 141.307 65.7399C143.755 68.2653 146.558 68.7229 149.733 67.3499L149.746 67.3622C149.063 67.922 148.45 68.8292 147.686 68.9804C144.964 69.5157 142.19 69.7936 139.436 70.1654V70.1736Z" fill="#E08F82"/>
<path d="M146.869 59.9331C147.69 59.7206 148.511 59.5081 149.95 59.1362C149.284 60.0598 148.883 60.6114 148.483 61.1631C148.221 61.204 147.956 61.2448 147.694 61.2857C146.697 61.2693 145.7 61.2857 144.707 61.2244C143.481 61.1508 142.692 60.6073 142.799 59.2302C144.155 59.4631 145.512 59.7002 146.869 59.9331Z" fill="#F2F2F2"/>
<path d="M148.225 56.1123C147.674 56.5863 147.085 57.4894 146.583 57.4445C145.549 57.3505 144.564 56.7457 143.559 56.3493C143.636 56.1491 143.718 55.9529 143.796 55.7527H147.857C147.98 55.8712 148.103 55.9897 148.225 56.1082V56.1123Z" fill="#E08F82"/>
<path d="M143.906 48.7239H139.207C139.808 47.3877 141.021 47.3754 142.194 47.5511C142.877 47.6533 143.51 48.0905 144.164 48.3725L143.906 48.7199V48.7239Z" fill="#3F3E49"/>
<path d="M144.298 50.0726C142.778 52.4999 141.119 52.3405 139.812 49.623C140.89 50.1829 141.593 50.5466 142.361 50.943C142.954 50.6773 143.624 50.3749 144.298 50.0726Z" fill="#3F3E49"/>
<path d="M152.133 49.8275C151.438 48.2256 151.225 48.1889 147.687 49.3984C148.316 48.5893 148.614 47.8742 148.921 47.8701C150.028 47.8579 151.14 48.0704 152.231 48.2951C152.276 48.3033 152.12 49.2759 152.059 49.7989L152.133 49.8275Z" fill="#3F3E49"/>
<path d="M152.132 49.8274L152.058 49.7988C152.908 51.3108 151.621 51.5928 150.73 51.7766C149.701 51.9891 148.573 51.8788 148.52 50.0358C149.263 50.4118 149.811 50.6856 150.428 51.0002C150.975 50.6243 151.552 50.2238 152.128 49.8274H152.132Z" fill="#262954"/>
<path d="M146.869 59.9329C145.512 59.7 144.156 59.463 142.799 59.2301C142.856 59.038 142.909 58.8459 142.966 58.658C144.266 59.0829 145.569 59.5079 146.869 59.937V59.9329Z" fill="#FCA597"/>
<path d="M147.694 61.2859C147.956 61.2451 148.221 61.2042 148.483 61.1633C148.344 61.4003 148.201 61.6414 148.062 61.8785C147.94 61.6823 147.817 61.4821 147.694 61.2859Z" fill="#FCA597"/>
<path d="M149.729 67.354C150.003 67.2191 150.273 67.0843 150.547 66.9453L150.555 66.9535C150.285 67.0924 150.011 67.2273 149.742 67.3662L149.729 67.354Z" fill="#E08F82"/>
<path d="M134.94 72.2046C135.092 72.1147 135.247 72.0289 135.398 71.939C135.247 72.0289 135.096 72.1147 134.94 72.2046Z" fill="#FE6868"/>
<path d="M150.547 66.9501C150.604 66.8927 150.662 66.8394 150.719 66.782C150.711 66.8189 150.715 66.8681 150.69 66.8886C150.653 66.9214 150.6 66.9337 150.555 66.9583L150.547 66.9501Z" fill="#E08F82"/>
</svg>
