<svg width="211" height="224" viewBox="0 0 211 224" fill="none" xmlns="http://www.w3.org/2000/svg">
<path d="M98.471 222.851C90.3134 222.988 82.1235 223.622 74.0016 223.117C65.5287 222.59 57.1202 220.971 48.6867 219.828C48.959 215.801 49.3029 211.777 49.4857 207.747C49.7723 201.452 49.9478 195.154 50.1699 188.856C50.1699 188.505 50.1234 188.143 50.1843 187.803C51.2125 182.156 52.3267 176.521 53.2797 170.86C54.1825 165.49 54.9205 160.091 55.723 154.703C56.1135 152.066 56.5614 149.433 56.8121 146.781C56.873 146.133 56.264 145.42 55.9595 144.739C55.5296 145.284 54.9528 145.767 54.702 146.384C54.3974 147.136 54.3473 147.996 54.2183 148.813C53.0683 156.186 51.9183 163.559 50.7897 170.932C49.8582 177.019 48.9375 183.106 48.0669 189.2C47.9881 189.762 48.2962 190.378 48.4252 190.97C48.3786 191.263 48.3356 191.554 48.2819 191.847C47.5797 195.541 47.6012 199.421 45.4516 202.735C44.9608 201.284 44.3983 199.851 44.0006 198.375C43.7391 197.404 43.4525 196.326 43.6209 195.373C44.3087 191.475 43.9469 187.939 40.8014 185.13C41.045 177.212 41.3029 169.295 41.525 161.373C41.6755 156.014 41.7543 150.651 41.9263 145.291C41.9442 144.729 42.2201 143.94 42.6428 143.661C44.9895 142.099 46.229 139.817 46.7736 137.201C47.3146 134.611 48.3285 132.372 50.2882 130.588C50.7324 131.394 51.1982 132.186 51.6102 133.006C52.0257 133.83 52.4234 134.618 53.9317 133.708C52.9931 132.182 52.0831 130.699 51.1731 129.219C52.23 127.234 53.3836 125.074 51.5564 123.125C50.2631 121.746 49.9012 120.359 50.066 118.654C50.2523 116.745 49.3316 115.62 47.5797 115.057C47.139 114.914 46.7091 114.735 46.2971 114.581C46.6625 109.834 45.774 108.737 41.0987 108.085C40.744 108.035 40.3893 108.014 40.0347 107.978C42.0839 106.466 44.0293 104.775 46.204 103.474C55.4543 97.9321 65.5574 94.2062 75.4132 89.9536C76.1548 93.787 76.8749 97.6276 77.6631 101.454C77.7598 101.927 78.2076 102.328 78.4942 102.765L79.0961 102.475C78.1288 98.1793 77.1615 93.8838 76.1942 89.5882C77.3693 87.4673 78.5444 85.3463 79.7159 83.2254C79.9989 83.7628 80.2856 84.2966 80.5686 84.834C80.8946 85.5792 81.1167 86.3925 81.5646 87.0517C83.9649 90.6092 86.4835 94.0844 88.8409 97.6706C91.2663 101.364 94.5194 104.574 95.4222 109.178C95.9345 111.801 96.7621 114.362 97.4356 116.952C97.9623 118.984 98.471 121.022 98.9869 123.061C99.1374 123.054 99.2914 123.046 99.4419 123.039C100.069 119.095 100.678 115.15 101.334 111.209C101.968 107.405 102.505 103.596 104.529 100.15C107.61 94.9084 110.534 89.5703 113.475 84.2501C113.855 83.5658 113.948 82.7239 114.177 81.9536C114.5 81.3517 114.826 80.7498 115.148 80.1479C116.158 81.6527 117.172 83.1609 118.183 84.6656C118.054 85.3571 117.799 86.0521 117.817 86.74C117.853 88.216 118.175 89.6957 118.115 91.1645C117.986 94.3567 117.667 97.538 117.491 100.73C117.463 101.232 117.789 101.755 117.953 102.271C118.358 102.02 119.089 101.805 119.121 101.515C119.44 98.6952 119.802 95.8685 119.827 93.0383C119.849 90.5089 119.454 87.9724 119.247 85.4395C120.587 86.0736 121.923 86.7149 123.266 87.3419C130.579 90.749 138.442 92.3647 146.163 94.457C153.841 96.5349 161.124 99.4404 167.336 104.582C166.563 105.9 165.613 107.147 165.047 108.547C162.546 114.713 160.142 120.915 157.742 127.12C157.101 128.779 156.596 130.495 156.026 132.182C156.237 132.29 156.449 132.397 156.66 132.505C156.979 132.125 157.427 131.792 157.595 131.355C160.974 122.591 164.323 113.818 167.677 105.047C168.816 106.416 170.07 107.706 171.073 109.171C175.276 115.304 177.515 122.247 179.478 129.345C182.305 139.559 185.357 149.708 185.633 160.428C185.647 160.972 186.138 161.603 186.568 162.025C190.272 165.669 191.938 169.828 190.047 174.97C189.352 176.854 189.825 178.595 190.753 180.268C191.021 182.124 191.286 183.98 191.555 185.839C190.158 184.048 188.753 182.26 187.381 180.451C187.259 180.29 187.338 179.985 187.306 179.752C186.625 174.88 183.731 171.609 179.417 169.732C176.956 168.66 174.211 167.897 171.542 167.715C167.508 167.439 163.342 167.256 159.713 169.789C159.161 170.172 158.387 170.287 157.696 170.405C156.424 170.627 155.134 170.76 153.902 170.921C153.808 171.605 153.722 172.232 153.64 172.859C150.48 172.293 147.335 171.62 144.157 171.186C135.143 169.954 126.613 167.349 118.874 162.477C118.09 161.982 117.488 160.954 117.147 160.044C116.338 157.877 115.936 155.537 114.998 153.434C113.611 150.342 112.35 147.351 113.042 143.815C113.206 142.973 112.429 141.945 112.085 141.003C112.038 140.623 111.92 140.236 111.952 139.86C112.064 138.566 112.228 137.277 112.372 135.987C112.755 134.866 112.565 134.081 111.659 133.099C110.713 132.078 110.358 130.513 109.62 128.918C112.83 129.155 113.117 128.84 112.504 126.522C111.06 126.805 109.624 127.088 108.187 127.367C107.754 124.605 105.181 123.469 102.709 124.752C101.291 125.486 99.6569 125.805 98.1307 126.342C97.733 126.482 97.3819 126.751 97.0093 126.959L96.2928 126.665C96.0957 126.002 95.8951 125.339 95.5762 124.264C93.4697 125.515 91.4777 126.694 89.5932 127.811C88.9018 127.356 88.1423 126.855 87.3075 126.31C88.085 125.794 88.7119 125.375 89.3783 124.934C88.9949 124.35 88.694 123.899 88.2462 123.218C86.8203 124.411 85.5162 125.501 84.2157 126.59C84.2014 126.522 84.187 126.453 84.1691 126.385C83.6747 126.643 83.1803 126.901 82.6859 127.163L79.8091 126.385C78.3294 123.476 75.8646 122.301 72.7226 123.333C71.0925 123.867 69.9282 123.548 68.6527 122.559C66.7074 121.047 63.938 121.427 63.0173 123.595C62.1897 125.547 60.9537 126.572 59.0477 127.063C58.0446 126.937 57.045 126.812 55.6549 126.64C56.4754 127.639 54.9026 129.402 57.1955 129.259C57.7759 130.642 58.0768 132.268 59.019 133.329C59.8144 134.221 60.187 134.994 60.187 136.084C61.0683 139.573 61.792 143.113 62.8955 146.531C63.5153 148.451 64.7656 150.167 65.7329 151.976C65.3281 152.686 64.4431 153.549 64.6115 154.072C64.9734 155.193 65.758 156.257 66.5891 157.135C68.2587 158.905 70.0715 160.535 71.827 162.223C72.282 162.806 72.737 163.387 73.1919 163.971C74.1772 165.275 74.9295 166.905 76.1942 167.833C82.5283 172.483 89.4356 175.89 97.4106 176.668C97.6363 181.587 97.9444 186.502 98.0698 191.421C98.2632 198.855 98.3384 206.292 98.4423 213.73C98.4853 216.768 98.471 219.81 98.4818 222.851H98.471ZM153.457 137.979C153.235 137.904 153.017 137.828 152.794 137.757C152.594 138.305 152.275 138.839 152.211 139.401C152.013 141.106 152.049 142.851 151.745 144.535C151.129 147.949 151.29 151.349 152.408 154.556C153.5 157.694 153.407 160.739 152.737 163.842C152.472 165.074 152.655 165.845 153.948 166.099C155.417 166.389 155.639 165.325 155.739 164.286C155.843 163.222 155.643 162.104 155.876 161.08C156.395 158.78 155.865 156.77 154.704 154.796C154.303 154.115 154.038 153.262 154.005 152.474C153.83 147.985 153.744 143.492 153.618 139C153.608 138.656 153.515 138.319 153.461 137.975L153.457 137.979ZM124.782 149.991C125.52 149.991 126.165 150.006 126.806 149.991C131.557 149.877 136.304 149.751 141.054 149.651C142.057 149.63 143.204 149.576 143.068 148.315C143.017 147.853 141.774 147.193 141.065 147.179C136.304 147.079 131.539 147.118 126.777 147.14C124.832 147.147 124.499 147.598 124.785 149.995L124.782 149.991ZM106.016 105.778C105.862 105.982 105.704 106.183 105.55 106.387C106.496 107.218 107.424 108.075 108.395 108.881C110.498 110.622 112.59 112.377 114.747 114.047C115.786 114.849 116.696 114.563 117.029 113.241C117.437 111.636 117.799 110.009 118.043 108.372C118.104 107.96 117.638 107.466 117.416 107.011C117.061 107.354 116.495 107.645 116.388 108.053C116.012 109.5 115.789 110.991 115.503 112.503C112.189 110.292 109.434 107.526 106.012 105.778H106.016ZM88.2927 109.97C88.0635 109.819 87.8342 109.669 87.6049 109.518C86.3904 110.643 85.1759 111.768 83.7786 113.062C83.0406 111.618 82.4459 110.536 81.9264 109.418C80.8158 107.021 80.8337 107.011 79.3218 107.387C79.9058 108.705 80.4325 110.006 81.0522 111.263C83.3272 115.885 83.3559 115.895 86.9672 112.144C87.5404 111.546 87.8557 110.701 88.2892 109.97H88.2927ZM118.38 150.529C119.046 149.862 119.755 149.483 119.881 148.96C120.164 147.792 119.218 147.835 118.412 147.831C117.506 147.827 116.57 147.921 116.778 149.099C116.857 149.551 117.624 149.884 118.38 150.529Z" fill="#5595E7"/>
<path d="M190.742 180.268C189.814 178.595 189.342 176.854 190.037 174.969C191.932 169.832 190.262 165.669 186.558 162.025C186.128 161.602 185.637 160.972 185.623 160.427C185.343 149.708 182.291 139.559 179.468 129.344C177.504 122.247 175.265 115.304 171.063 109.171C170.06 107.709 168.806 106.419 167.667 105.047C167.556 104.893 167.441 104.735 167.33 104.581C161.118 99.4402 153.834 96.5347 146.156 94.4568C138.436 92.3681 130.572 90.7487 123.26 87.3417C121.916 86.7147 120.58 86.0734 119.244 85.4393C118.889 85.1813 118.534 84.927 118.18 84.669C117.169 83.1643 116.155 81.656 115.145 80.1513C114.343 79.5458 113.54 78.9404 112.741 78.3313C113.053 77.9193 113.336 77.4823 113.676 77.0953C116.267 74.1504 117.857 70.8114 117.789 66.806C117.768 65.6022 117.714 64.5669 119.029 63.6927C119.781 63.1947 120.064 61.7509 120.243 60.6797C120.523 58.9923 120.533 57.2619 120.655 55.5494C121.39 55.0514 122.353 54.7074 122.808 54.0232C124.048 52.1602 124.972 50.093 126.198 48.2229C127.767 45.8297 127.337 43.4759 126.387 41.0791C126.083 40.3053 125.642 39.5887 125.263 38.8435C125.123 37.672 125.341 36.2605 124.757 35.3899C123.976 34.2291 124.141 33.2582 124.313 32.101C125.245 25.9066 124.757 19.9272 121.82 14.2452C120.114 10.942 117.474 8.48788 114.873 5.96929C121.053 5.72209 127.24 5.11304 133.406 5.31009C143.065 5.62178 152.498 7.474 161.558 10.9742C165.882 12.6437 170.321 14.0625 174.509 16.0222C179.805 18.5049 184.727 21.5251 187.693 27.0101C190.069 31.3952 193.003 35.4759 195.475 39.8109C196.503 41.6165 197.041 43.7195 197.685 45.7258C198.466 48.1512 199.108 50.6197 199.842 53.0594C201.107 57.2619 202.418 61.4464 203.672 65.6524C205.198 70.7648 206.746 75.8736 208.15 81.0219C208.677 82.9458 209.103 84.97 209.107 86.9512C209.118 92.3717 209.462 97.7134 210.386 103.091C211.013 106.724 210.493 110.571 210.321 114.319C210.182 117.396 209.752 120.463 209.537 123.541C209.039 130.677 207.513 137.624 205.786 144.538C203.203 154.874 199.362 164.727 194.379 174.131C193.265 176.23 191.953 178.229 190.735 180.272L190.742 180.268Z" fill="#FFDAB9"/>
<path d="M112.071 141.006C112.415 141.948 113.192 142.976 113.027 143.818C112.336 147.351 113.597 150.346 114.983 153.438C115.926 155.537 116.323 157.876 117.133 160.048C117.473 160.958 118.075 161.986 118.86 162.48C126.598 167.353 135.129 169.957 144.143 171.19C147.32 171.623 150.466 172.297 153.626 172.863C154.801 173.049 155.976 173.235 157.155 173.425C157.38 173.497 157.602 173.572 157.828 173.633C163.424 175.191 169.203 176.284 174.581 178.398C186.733 183.177 189.481 198.292 183.892 206.278C179.041 210.652 173.345 211.294 167.243 209.982C165.097 209.52 162.991 208.879 160.866 208.32C158.613 207.399 156.359 206.479 154.109 205.558C153.049 205.028 151.963 204.544 150.928 203.967C142.158 199.066 133.42 194.1 124.621 189.253C119.533 186.452 114.346 183.836 109.205 181.135L109.219 181.164C109.094 181.056 108.968 180.949 108.843 180.841C107.639 180.225 106.414 179.648 105.239 178.978C103.229 177.835 101.187 176.843 98.7971 176.907L97.4071 176.667C89.4357 175.89 82.5284 172.486 76.1907 167.833C74.926 166.905 74.1773 165.275 73.192 163.971C73.536 164.193 73.8835 164.408 74.2167 164.644C76.3376 166.142 78.4012 167.736 80.6045 169.097C81.4715 169.635 82.7075 170.369 83.7536 168.911C83.467 168.675 83.2807 168.399 83.0371 168.331C79.5799 167.381 76.7747 165.336 74.0411 163.125C73.4464 162.645 72.5722 162.516 71.8235 162.222C70.068 160.535 68.2516 158.905 66.5857 157.135C65.7545 156.254 64.9735 155.193 64.608 154.072C64.4397 153.549 65.321 152.685 65.7294 151.976C66.0268 152.345 66.3098 152.732 66.6215 153.083C69.6058 156.443 73.4428 158.371 77.6596 159.661C79.3792 161.355 80.909 161.778 83.3452 161.101C82.532 160.678 81.8763 160.341 81.2243 160.001C80.8696 159.532 80.5902 158.973 80.1495 158.607C78.1038 156.916 75.9435 155.358 73.9659 153.592C72.6833 152.445 72.8911 151.399 74.5928 151.087C75.836 150.862 77.3264 151.331 78.5588 151.843C80.0528 152.463 81.3139 153.653 82.815 154.244C85.2082 155.186 87.7232 155.802 90.1666 156.619C93.8173 157.841 97.4715 157.905 101.154 156.805C104.261 156.712 105.124 155.999 105.884 152.9C106.03 152.531 106.26 152.177 106.31 151.797C106.579 149.744 106.733 147.673 107.062 145.631C107.521 142.765 109.244 141.232 112.078 140.995L112.071 141.006Z" fill="#E8896E"/>
<path d="M114.872 5.96919C117.473 8.48778 120.113 10.9419 121.819 14.2451C124.753 19.9271 125.24 25.9101 124.312 32.1009C124.14 33.2581 123.975 34.229 124.756 35.3898C125.344 36.2604 125.122 37.6719 125.262 38.8434C125.032 38.7933 124.799 38.7646 124.581 38.6894C122.152 37.8152 120.773 38.7145 120.73 41.2223C120.683 44.006 120.622 46.7897 120.604 49.5734C120.59 51.5654 120.636 53.5573 120.654 55.5493C120.529 57.2618 120.518 58.9922 120.242 60.6796C120.067 61.7508 119.78 63.1946 119.028 63.6926C117.713 64.5668 117.767 65.6021 117.788 66.8059C117.856 70.8113 116.266 74.1503 113.675 77.0952C113.335 77.4822 113.052 77.9192 112.74 78.3312C112.547 78.4387 112.35 78.5462 112.156 78.6537C111.286 79.2591 110.419 79.8682 109.548 80.4736C108.921 80.6134 108.244 80.6456 107.671 80.9107C102.748 83.175 97.6037 83.5332 92.3587 82.591C90.1626 82.1969 88.0345 81.4302 85.8777 80.8355C84.8424 80.205 83.807 79.5744 82.7716 78.9439C79.8303 76.6546 77.8598 73.7204 76.8352 70.127C76.7349 69.7687 76.2906 69.3997 75.918 69.2457C74.1733 68.522 73.0232 67.2287 72.8262 65.4158C72.493 62.3527 72.4106 59.2609 72.2243 56.1834C72.2386 51.2931 72.2601 46.4028 72.2566 41.5125C72.2566 39.6209 71.4075 38.607 69.5517 38.2308C69.0859 38.1377 68.6023 38.1484 68.1258 38.1126C67.4809 33.7131 66.7321 29.3208 66.2413 24.9034C66.0299 22.9903 66.6712 21.1596 68.4088 20.1493C67.5418 19.1999 66.7106 18.2935 65.8831 17.3835C65.5033 14.8255 65.034 12.271 64.8118 9.69871C64.7653 9.17207 65.6394 8.5666 66.0873 7.99696C66.356 8.55944 66.793 9.104 66.8647 9.69155C67.0904 11.5079 67.1298 13.3494 67.3448 15.1658C67.4021 15.6459 67.8284 16.0794 68.4948 16.4018C68.5163 16.0292 68.5879 15.6531 68.5557 15.284C67.9646 8.10802 73.7147 1.50881 80.9659 1.29744C83.6063 1.21862 86.2611 1.68794 88.9122 1.88141C89.3672 1.91365 89.876 1.93873 90.2844 1.77393C98.7645 -1.66898 106.456 0.118749 113.661 5.2455C114.044 5.51778 114.471 5.72557 114.876 5.96561L114.872 5.96919ZM79.8374 19.1461C78.9525 20.5792 77.9028 21.9083 77.2508 23.4095C76.0506 26.1752 74.4348 28.984 74.1661 31.886C73.6753 37.2026 73.8652 42.6016 74.1016 47.9541C74.2521 51.3397 75.0259 54.6787 77.1648 57.5233C78.0676 58.7271 78.9453 59.114 80.5002 58.5372C85.3583 56.7315 90.2808 54.7539 95.5544 55.1552C99.6852 55.4705 103.777 56.4234 107.854 57.2403C111.988 58.0679 113.98 57.3119 115.843 53.4749C119.411 46.1162 118.849 38.6858 115.807 31.3199C114.757 28.7762 112.794 27.4578 109.967 27.3539C107.409 27.2608 104.862 26.8094 102.308 26.795C94.0139 26.7485 86.6659 24.0113 79.8338 19.1461H79.8374ZM102.831 62.3921C102.705 62.1771 102.58 61.9622 102.455 61.7472C97.7148 61.9407 92.9713 62.1306 88.2315 62.324L88.0381 62.8614C90.0336 64.0867 91.9861 65.3836 94.039 66.505C95.3574 67.2251 96.9123 67.5905 98.2163 66.5623C99.8393 65.2833 101.297 63.7929 102.827 62.3957L102.831 62.3921ZM68.6023 16.864C68.57 16.821 68.5342 16.778 68.502 16.735C68.4626 16.7744 68.3981 16.8138 68.3981 16.8568C68.3981 16.8998 68.459 16.9428 68.4912 16.9858C68.5306 16.9464 68.5665 16.907 68.6059 16.864H68.6023Z" fill="#0C2C7E"/>
<path d="M6.01775 185.864C5.24032 182.88 4.34824 179.92 3.70337 176.907C2.41004 170.864 2.5211 164.752 3.04416 158.629C3.73561 150.536 5.40512 142.55 5.32988 134.371C5.2654 127.485 3.77144 120.843 2.62499 114.122C1.64694 108.407 0.622302 102.647 0.353604 96.875C-0.083477 87.4455 3.02267 79.0227 8.91968 71.6031C11.9793 67.7553 15.8127 64.9143 19.947 62.3993C20.3877 62.1306 20.9358 62.0374 21.4302 61.8655C20.5704 65.7455 21.6022 67.0173 25.6363 67.1069C25.9444 67.114 26.2453 67.3075 26.5498 67.4042C27.6604 67.7625 28.7711 68.1172 29.8853 68.4754C29.8494 68.9448 29.8208 69.4105 29.7706 69.8798C29.4231 73.2439 29.0792 76.5686 32.6439 78.7003C33.9838 79.5028 34.3277 80.9143 34.2991 82.437C34.1737 88.6922 34.0734 94.9475 33.9659 101.203C32.5472 102.177 30.8347 102.901 29.767 104.169C26.7899 107.712 24.0133 111.431 21.3048 115.189C20.5776 116.2 20.3734 117.593 19.9291 118.808C20.3017 120.603 20.6707 122.398 21.0433 124.193C21.2224 124.816 21.3622 125.454 21.5843 126.059C22.5337 128.671 23.5046 131.275 24.4683 133.88C24.4325 134.356 24.3967 134.837 24.3644 135.313C24.2032 135.825 24.0097 136.327 23.8843 136.846C19.8181 153.857 12.2479 169.613 6.29719 185.946C6.1933 185.957 6.09657 185.929 6.01417 185.864H6.01775Z" fill="#FFDAB9"/>
<path d="M65.8803 17.3871C66.7079 18.2935 67.5391 19.1999 68.4061 20.1529C66.6685 21.1632 66.0272 22.9904 66.2386 24.9071C66.7294 29.3245 67.4782 33.7132 68.1231 38.1163C64.913 40.0831 64.7267 43.4078 64.956 46.4889C65.3 51.0782 68.1768 54.1629 72.2216 56.1871C72.4079 59.2645 72.4903 62.3564 72.8235 65.4195C73.0205 67.2323 74.1706 68.5257 75.9153 69.2493C76.2879 69.4034 76.7321 69.7724 76.8325 70.1307C77.8535 73.7241 79.8275 76.6582 82.7689 78.9475C82.5038 79.9937 82.2386 81.0398 81.9735 82.0859C81.2212 82.4657 80.4688 82.849 79.7165 83.2288C78.5414 85.3497 77.3663 87.4706 76.1947 89.5915C75.9332 89.7133 75.6753 89.8352 75.4137 89.957C65.5579 94.2095 55.4549 97.9355 46.2045 103.478C44.0299 104.782 42.0845 106.469 40.0352 107.985C39.6985 107.985 39.3581 107.985 39.0213 107.981C38.9998 107.874 38.9425 107.788 38.8529 107.727C41.3859 105.495 43.9152 103.263 46.4481 101.027C47.7164 99.9095 47.9349 98.1684 47.0536 96.678C46.0684 95.0085 44.7356 95.3094 43.3635 96.008C41.4074 97.0076 39.4799 98.0573 37.5417 99.0855C37.4127 95.6498 37.2981 92.2176 37.1512 88.7819C37.0509 86.4173 37.0939 84.0241 36.7249 81.699C36.4992 80.2552 36.7858 79.3094 37.8964 78.5176C40.2323 76.8445 40.3039 74.4943 39.8955 71.9721C39.659 70.5176 39.5086 69.0487 39.3223 67.587C41.762 67.4115 43.1414 65.8028 44.3093 63.9041C45.574 63.5315 46.8386 63.1481 48.1069 62.7934C48.5368 62.6716 48.9918 62.5498 49.4325 62.5606C51.6573 62.6215 52.6318 62.0733 53.0294 60.4611C53.4378 58.806 52.6353 57.2009 50.9157 56.3841C50.1956 56.0402 49.4074 55.8324 48.6622 55.5673C49.4683 52.9376 49.3393 52.6904 47.3295 52.0849C46.6022 50.3223 45.9824 48.8247 45.2551 47.0621C46.9031 44.2282 46.484 41.7956 43.6107 39.2914C45.7065 32.2981 50.0057 26.8883 55.96 22.8686C59.0805 20.762 62.5628 19.1964 65.8803 17.3835V17.3871Z" fill="#FFDAB9"/>
<path d="M98.7902 176.911C101.18 176.846 103.226 177.839 105.232 178.982C106.407 179.652 107.632 180.225 108.836 180.845C108.961 180.952 109.087 181.06 109.212 181.167L109.198 181.138C109.502 181.626 109.721 182.21 110.129 182.579C114.582 186.616 118.982 190.711 123.553 194.613C131.98 201.803 141.126 207.883 151.519 211.913C142.613 214.324 133.775 217.043 124.779 219.053C117.466 220.687 109.968 221.479 102.545 222.618C101.785 222.736 100.997 222.679 100.223 222.7C100.105 216.99 100.005 211.283 99.8614 205.572C99.7826 202.484 99.6321 199.399 99.5139 196.314C99.2703 189.844 99.0302 183.377 98.7866 176.907L98.7902 176.911Z" fill="#5595E7"/>
<path d="M43.6066 39.2951C46.4799 41.7994 46.8991 44.2284 45.2511 47.0658C45.9784 48.8249 46.5981 50.3224 47.3254 52.0887C49.3389 52.6941 49.4643 52.9378 48.6582 55.571C49.4033 55.8361 50.1915 56.0439 50.9116 56.3878C52.6313 57.2047 53.4338 58.8097 53.0254 60.4649C52.6277 62.0771 51.6568 62.6252 49.4284 62.5643C48.9878 62.5536 48.5364 62.6754 48.1029 62.7972C46.831 63.1519 45.5699 63.5352 44.3053 63.9078C42.5963 62.4282 41.3783 60.7658 41.3603 58.3153C41.3568 57.6812 40.3644 56.7891 39.6299 56.4738C37.423 55.528 36.4951 54.507 36.4772 52.0851C36.4665 50.7309 35.9219 50.2544 34.6501 50.369C34.1198 50.4156 33.5789 50.3798 33.045 50.3798C31.1821 50.3798 29.6415 49.9176 29.0647 47.854C28.9608 47.4778 28.5668 47.1805 28.2085 46.7183C27.3451 49.8352 29.3657 52.4362 32.6115 52.4828C33.912 52.5007 34.4459 52.9736 34.6322 54.1236C34.9367 56.0152 36.2766 57.1294 37.7813 57.9857C39.698 59.0748 40.0491 60.5939 38.5766 62.2168C38.2291 62.2275 37.8816 62.2419 37.5305 62.2526C36.9286 62.3637 36.3303 62.4783 35.7284 62.5894C35.6138 62.5571 35.4991 62.5571 35.3881 62.5965C34.7862 62.4747 34.1843 62.3493 33.5824 62.2275C33.3675 62.1416 33.1525 62.0556 32.9376 61.9696C32.4682 61.5361 31.9989 61.1062 31.5332 60.6727C31.3791 60.3108 31.2251 59.949 31.0746 59.5871C30.6017 59.3184 30.1216 58.799 29.663 58.8205C26.2667 58.9745 24.1601 57.2262 23.8842 53.8979C23.4078 53.7403 22.9348 53.5683 22.4512 53.4322C19.9075 52.73 18.8184 50.1612 19.9648 47.7859C20.7996 46.0627 22.2721 46.4604 23.6585 46.4819C24.5793 42.9673 25.3639 42.5589 29.5197 43.4223C31.2967 41.0757 31.9237 40.9467 33.7902 42.3045C35.2806 41.0757 36.5811 39.6963 38.1539 38.7899C39.9452 37.7581 41.844 38.4962 43.6102 39.2951H43.6066Z" fill="#029246"/>
<path d="M6.01814 185.864C6.10054 185.928 6.19727 185.953 6.30117 185.946C5.60256 189.883 5.15115 193.828 5.98232 197.808C7.18608 203.587 9.57928 208.714 14.5735 212.135C15.9886 213.106 18.1489 213.987 19.668 213.636C26.9156 211.956 33.3716 208.66 36.492 201.427C38.2869 197.267 39.1611 192.71 40.4508 188.332C42.1813 190.127 42.0344 192.313 41.5973 194.484C41.2426 196.239 40.87 197.823 42.2672 199.431C43.0268 200.309 43.3062 201.663 43.6143 202.853C43.9654 204.207 44.1087 205.611 44.3416 206.994C42.9873 210.745 40.7339 213.894 37.8713 216.631C29.2909 223.324 19.6035 220.547 12.2089 214.826C6.97829 210.781 3.46731 205.561 2.58598 198.844C2.08441 195.025 2.68271 191.342 4.30923 187.859C4.66749 187.096 5.44134 186.523 6.02173 185.864H6.01814Z" fill="#5595E7"/>
<path d="M151.523 211.913C141.127 207.883 131.984 201.807 123.557 194.613C118.986 190.711 114.583 186.617 110.133 182.579C109.725 182.206 109.51 181.622 109.202 181.139C114.343 183.836 119.53 186.455 124.618 189.257C133.42 194.104 142.155 199.07 150.925 203.971C151.96 204.548 153.046 205.035 154.106 205.561C154.153 207.245 154.203 208.929 154.25 210.609C153.34 211.043 152.43 211.48 151.523 211.913Z" fill="#2254B5"/>
<path d="M183.891 206.277C189.48 198.288 186.736 183.177 174.58 178.397C169.203 176.284 163.424 175.191 157.828 173.632C157.602 173.568 157.38 173.493 157.154 173.421C157.366 173.22 157.541 172.955 157.792 172.834C164.348 169.649 171.037 169.022 177.898 171.809C181.47 173.26 183.909 175.66 184.83 179.547C185.124 180.794 185.801 182.023 186.568 183.066C187.607 184.47 188.882 185.706 190.104 186.967C190.408 187.282 190.892 187.422 191.293 187.644C191.419 190.052 191.831 192.488 191.605 194.863C191.118 199.99 188.939 204.153 183.891 206.281V206.277Z" fill="#5595E7"/>
<path d="M37.8711 216.631C40.7336 213.891 42.9871 210.745 44.3413 206.994C44.6136 206.686 45.0614 206.41 45.1223 206.063C45.3122 204.966 45.3588 203.849 45.4591 202.738C47.6087 199.42 47.5872 195.54 48.2894 191.85C48.3431 191.56 48.3861 191.266 48.4327 190.973C49.0131 190.267 49.5971 189.565 50.1774 188.859C49.9553 195.157 49.7762 201.455 49.4932 207.75C49.3104 211.781 48.9665 215.804 48.6942 219.831C45.0901 218.763 41.4824 217.699 37.8783 216.631H37.8711Z" fill="#C0DBF1"/>
<path d="M191.294 187.645C190.893 187.423 190.409 187.283 190.104 186.968C188.883 185.707 187.607 184.471 186.568 183.066C185.798 182.027 185.124 180.795 184.831 179.548C183.91 175.661 181.47 173.264 177.898 171.81C171.034 169.019 164.345 169.649 157.793 172.834C157.545 172.956 157.366 173.221 157.155 173.422C155.98 173.236 154.805 173.049 153.626 172.859C153.712 172.232 153.798 171.605 153.888 170.921C155.12 170.756 156.41 170.624 157.682 170.405C158.373 170.283 159.15 170.172 159.699 169.789C163.328 167.253 167.494 167.439 171.528 167.715C174.194 167.897 176.938 168.661 179.403 169.732C183.717 171.605 186.611 174.876 187.292 179.752C187.324 179.989 187.245 180.293 187.367 180.451C188.743 182.26 190.147 184.048 191.541 185.839L191.29 187.645H191.294Z" fill="#0C2C7E"/>
<path d="M23.8846 53.8903C24.1641 57.2222 26.2671 58.9669 29.6634 58.8128C30.122 58.7913 30.6057 59.3108 31.075 59.5795C30.8564 60.1922 30.5089 60.7905 30.4444 61.4174C30.208 63.764 30.0647 66.1178 29.8891 68.468C28.7785 68.1098 27.6643 67.7551 26.5537 67.3968C26.2492 67.2965 25.9482 67.1066 25.6401 67.0995C21.6061 67.0099 20.5779 65.7381 21.4341 61.8581L21.4234 61.8652C21.5201 61.7327 21.6204 61.5966 21.7171 61.464C22.6056 60.794 22.9137 60.1492 22.3047 58.9633C21.366 57.1362 22.0467 55.3556 23.8811 53.8867L23.8846 53.8903Z" fill="#046A3A"/>
<path d="M98.79 176.911C99.0336 183.381 99.2736 189.848 99.5172 196.318C99.6319 199.403 99.7859 202.487 99.8647 205.576C100.008 211.283 100.108 216.993 100.227 222.704C99.6426 222.754 99.0551 222.804 98.4711 222.855C98.4604 219.813 98.4747 216.775 98.4317 213.733C98.3278 206.296 98.249 198.858 98.0591 191.424C97.9337 186.505 97.6256 181.59 97.3999 176.671C97.8621 176.75 98.3278 176.832 98.79 176.911Z" fill="#0C2C7E"/>
<path d="M154.249 210.609C154.202 208.925 154.152 207.241 154.105 205.561C156.359 206.482 158.609 207.402 160.862 208.323C158.659 209.086 156.452 209.849 154.249 210.609Z" fill="#C3DFF5"/>
<path d="M40.4544 188.332C39.1646 192.71 38.2905 197.267 36.4956 201.427C33.3751 208.66 26.9192 211.953 19.6715 213.637C18.1489 213.991 15.9922 213.106 14.577 212.135C9.58284 208.718 7.18964 203.587 5.98587 197.808C5.1547 193.825 5.60611 189.884 6.30473 185.946C12.2555 169.613 19.8256 153.857 23.8919 136.846C24.0173 136.327 24.2107 135.822 24.372 135.313C24.7338 135.969 25.024 136.682 25.4897 137.255C25.7262 137.545 26.2743 137.649 26.6935 137.688C26.801 137.699 27.1557 137.065 27.0697 136.882C26.4857 135.653 26.2063 134.124 24.4758 133.88C23.5121 131.272 22.5376 128.671 21.5918 126.059C21.3697 125.45 21.23 124.816 21.0508 124.192C23.1359 125.328 25.479 126.095 26.5215 128.596C26.7938 129.251 27.5354 129.746 28.1301 130.229C29.5059 131.347 30.8279 132.579 32.3505 133.457C33.9483 134.378 35.711 135.098 37.488 135.585C38.2117 135.782 39.7271 136.345 39.874 134.84C39.9098 134.478 38.2797 133.93 37.3948 133.518C36.0943 132.913 34.6864 132.49 33.4862 131.73C32.3505 131.01 31.3975 129.986 30.4123 129.047C29.3303 128.012 28.1875 127.008 27.2918 125.826C26.6792 125.013 26.3209 124.318 25.0992 124.085C23.0607 123.698 21.7459 122.222 21.0186 120.23C20.8251 119.696 20.3057 119.281 19.9366 118.808C20.3809 117.59 20.5851 116.2 21.3124 115.189C24.0209 111.431 26.7938 107.712 29.7746 104.169C30.8422 102.901 32.5547 102.177 33.9734 101.203C35.1628 100.497 36.3523 99.7912 37.5417 99.0818C39.4799 98.0536 41.411 97.0039 43.3635 96.0043C44.7356 95.3021 46.0648 95.0048 47.0536 96.6743C47.9349 98.1682 47.7164 99.9058 46.4481 101.024C43.9152 103.256 41.3859 105.488 38.853 107.723C38.2296 107.841 37.4521 107.763 37.0007 108.11C33.7979 110.586 30.6666 113.158 28.9756 116.991C28.7786 117.439 28.9577 118.052 28.9613 118.586C29.4199 118.324 29.9931 118.159 30.312 117.783C32.1785 115.562 33.9412 113.251 35.8328 111.055C36.7929 109.941 37.9501 108.999 39.0213 107.981C39.3581 107.981 39.6985 107.981 40.0352 107.985C40.3899 108.02 40.7482 108.042 41.0993 108.092C45.7746 108.744 46.6631 109.84 46.2977 114.587C46.7097 114.742 47.136 114.921 47.5803 115.064C49.3357 115.626 50.2529 116.751 50.0666 118.661C49.9018 120.366 50.2636 121.749 51.557 123.132C53.3877 125.085 52.2305 127.241 51.1736 129.226C50.8799 129.681 50.5861 130.14 50.2887 130.595C48.329 132.382 47.3151 134.622 46.7742 137.208C46.2296 139.824 44.9936 142.106 42.6434 143.668C42.2206 143.951 41.9448 144.735 41.9269 145.298C41.7549 150.657 41.6761 156.021 41.5256 161.38C41.3035 169.298 41.0455 177.215 40.8019 185.137C40.6837 186.204 40.5655 187.268 40.4472 188.336L40.4544 188.332Z" fill="#E9896F"/>
<path d="M101.151 156.816C97.4681 157.916 93.8138 157.852 90.1631 156.63C87.7197 155.813 85.2011 155.197 82.8115 154.255C81.3104 153.663 80.0493 152.474 78.5553 151.854C77.3229 151.342 75.8325 150.873 74.5894 151.098C72.8876 151.41 72.6798 152.456 73.9624 153.603C75.94 155.369 78.1004 156.927 80.146 158.618C80.5867 158.984 80.8661 159.543 81.2208 160.012C80.035 159.897 78.8455 159.783 77.6597 159.672C73.4429 158.382 69.6059 156.451 66.6216 153.094C66.3063 152.739 66.0269 152.356 65.7295 151.987C64.7622 150.178 63.5119 148.461 62.8921 146.541C61.7886 143.123 61.0649 139.584 60.1836 136.094C60.9324 135.994 61.6847 135.89 62.4371 135.79C63.6373 135.704 64.8374 135.621 66.0376 135.535C69.4555 135.449 72.8733 135.36 76.2911 135.274C78.6628 135.259 81.0309 135.245 83.4027 135.231C84.5133 135.256 85.631 135.378 86.7309 135.281C88.0135 135.166 89.2818 134.862 90.5536 134.64C91.0695 134.865 91.5782 135.267 92.1049 135.288C98.8545 135.557 105.611 135.772 112.365 136.001C112.221 137.291 112.057 138.581 111.945 139.874C111.913 140.246 112.031 140.633 112.078 141.017C109.248 141.253 107.521 142.787 107.062 145.653C106.736 147.695 106.582 149.766 106.31 151.818C106.26 152.198 106.031 152.556 105.884 152.922C104.307 154.222 102.731 155.526 101.155 156.827L101.151 156.816ZM71.3865 145.731C70.6019 143.027 70.0143 140.734 69.2154 138.516C69.0864 138.161 67.9221 137.871 67.4062 138.05C66.9046 138.222 66.2168 139.125 66.3135 139.548C66.8258 141.791 67.4886 144.005 68.2696 146.169C68.4523 146.674 69.4698 147.369 69.7886 147.233C70.4765 146.942 70.9566 146.169 71.3901 145.731H71.3865ZM73.382 149.511C72.3681 148.838 71.7842 148.15 71.3292 148.225C70.7667 148.318 70.3117 149.049 69.8101 149.504C70.2902 150.009 70.7165 150.83 71.2719 150.926C71.734 151.009 72.3466 150.246 73.382 149.508V149.511Z" fill="#FFA653"/>
<path d="M81.9731 82.0825C82.2382 81.0363 82.5033 79.9902 82.7684 78.9441C83.8038 79.5746 84.8392 80.2052 85.8746 80.8357C86.068 81.1904 86.197 81.6024 86.4621 81.8962C89.3927 85.142 93.0757 86.9047 97.4071 87.245C101.989 87.6069 107.614 84.4255 109.545 80.4774C110.416 79.872 111.283 79.2629 112.153 78.6575C112.827 79.7573 113.497 80.8572 114.17 81.9571C113.945 82.7273 113.848 83.5693 113.468 84.2535C110.527 89.5773 107.603 94.9119 104.522 100.153C102.498 103.596 101.961 107.405 101.326 111.213C100.671 115.15 100.062 119.098 99.4348 123.043C99.2844 123.05 99.1303 123.057 98.9798 123.064C98.4639 121.029 97.9552 118.991 97.4286 116.956C96.755 114.362 95.9274 111.804 95.4151 109.182C94.5123 104.574 91.2629 101.368 88.8338 97.6741C86.48 94.0879 83.9579 90.6127 81.5575 87.0552C81.1097 86.3924 80.8875 85.5791 80.5615 84.8375C81.0308 83.9204 81.4966 83.0032 81.9659 82.086L81.9731 82.0825Z" fill="#E8896E"/>
<path d="M112.358 135.994C105.605 135.765 98.8513 135.55 92.098 135.281C91.575 135.26 91.0627 134.858 90.5468 134.633C90.4142 134.102 90.2781 133.572 90.1455 133.042C90.4035 132.723 90.6614 132.401 90.9193 132.082C91.5141 131.956 92.1088 131.831 92.7035 131.706C95.3081 132.261 97.8625 132.669 99.2884 129.577C99.6323 129.363 100.016 129.191 100.313 128.925C102.366 127.062 105.511 126.926 107.647 128.703C107.829 128.241 108.001 127.811 108.173 127.378C109.61 127.095 111.047 126.815 112.49 126.532C113.103 128.85 112.813 129.165 109.606 128.929C110.344 130.523 110.703 132.085 111.645 133.11C112.551 134.092 112.741 134.876 112.358 135.998V135.994ZM106.457 135.019C106.601 134.69 106.744 134.357 106.891 134.027C106.138 133.698 105.393 133.354 104.623 133.088C104.587 133.074 104.315 133.737 104.154 134.084C104.924 134.396 105.691 134.708 106.461 135.019H106.457Z" fill="#047A3E"/>
<path d="M59.0405 127.07C60.9465 126.579 62.1825 125.554 63.0101 123.602C63.9308 121.43 66.6966 121.054 68.6456 122.566C69.9174 123.555 71.0853 123.874 72.7154 123.34C75.8574 122.308 78.3223 123.483 79.8019 126.392C78.616 127.653 77.4087 128.538 75.449 127.876C73.912 127.356 72.9196 128.194 72.6689 129.993C72.4467 131.58 71.7768 132.544 70.0607 132.508L70.0858 132.486C70.1144 130.957 70.0679 130.914 69.0253 131.433C68.7996 131.383 68.5775 131.336 68.3518 131.286C68.0043 130.846 67.7463 130.237 67.2913 129.993C66.2989 129.459 64.8945 129.384 64.2282 128.621C63.157 127.392 62.5802 127.704 61.9783 128.639C60.9429 128.083 59.9935 127.575 59.0405 127.066V127.07ZM67.2161 128.198C67.3809 127.962 67.5457 127.725 67.7105 127.489C67.0477 126.969 66.4028 126.425 65.6971 125.973C65.629 125.93 65.1883 126.475 64.9232 126.744C65.6863 127.227 66.453 127.711 67.2161 128.194V128.198Z" fill="#047A3E"/>
<path d="M50.1733 188.859C49.5929 189.565 49.009 190.267 48.4286 190.973C48.2996 190.382 47.9879 189.766 48.0703 189.203C48.9409 183.109 49.8616 177.022 50.7931 170.935C51.9216 163.559 53.0753 156.189 54.2217 148.816C54.3507 147.999 54.4008 147.136 54.7054 146.387C54.9561 145.771 55.5294 145.287 55.9629 144.743C56.2638 145.427 56.8764 146.136 56.8155 146.785C56.5647 149.436 56.1169 152.069 55.7264 154.706C54.9239 160.094 54.1859 165.493 53.283 170.864C52.3336 176.524 51.2194 182.16 50.1876 187.806C50.1267 188.146 50.1733 188.508 50.1733 188.859Z" fill="#0C2C7E"/>
<path d="M70.0574 132.508C71.7735 132.544 72.4435 131.58 72.6656 129.993C72.9164 128.195 73.9052 127.356 75.4457 127.876C77.4018 128.539 78.6128 127.654 79.7986 126.393C80.7552 126.651 81.7153 126.912 82.6719 127.166C84.1085 130.9 84.2482 131 88.1318 131.007C88.4865 131.007 88.8412 131.007 89.1959 131.007C89.5756 131.659 88.0924 133.178 90.1488 133.046C90.2814 133.576 90.4175 134.106 90.5501 134.636C89.2783 134.858 88.01 135.166 86.7274 135.278C85.6276 135.374 84.5098 135.252 83.3992 135.227C83.3705 132.479 81.9088 130.91 79.469 131.014C77.28 131.104 76.1981 132.548 76.2876 135.27C72.8698 135.356 69.452 135.446 66.0341 135.532C65.6544 134.217 65.6185 133.053 67.2988 132.637C68.2446 133.106 69.2012 133.873 70.061 132.508H70.0574Z" fill="#0CA34F"/>
<path d="M153.457 137.979C153.511 138.319 153.608 138.659 153.615 139.003C153.74 143.496 153.826 147.988 154.002 152.477C154.034 153.266 154.299 154.118 154.7 154.799C155.861 156.773 156.391 158.783 155.872 161.083C155.639 162.108 155.84 163.225 155.736 164.289C155.635 165.325 155.413 166.392 153.944 166.102C152.655 165.848 152.468 165.078 152.734 163.845C153.4 160.743 153.493 157.697 152.404 154.559C151.286 151.353 151.125 147.953 151.741 144.538C152.046 142.855 152.01 141.113 152.207 139.404C152.271 138.842 152.59 138.308 152.791 137.76C153.013 137.835 153.231 137.91 153.454 137.982L153.457 137.979Z" fill="#0C2C7E"/>
<path d="M89.1954 131.003C88.8407 131.003 88.486 131.006 88.1313 131.003C84.2513 130.999 84.108 130.899 82.6714 127.162C83.1658 126.904 83.6602 126.646 84.1546 126.388C84.1689 126.457 84.1833 126.525 84.2012 126.593C85.5017 125.504 86.8057 124.414 88.2316 123.221C88.6795 123.902 88.9804 124.354 89.3637 124.938C88.6974 125.378 88.0704 125.797 87.293 126.313C88.1277 126.861 88.8873 127.359 89.5787 127.814C91.4632 126.697 93.4551 125.518 95.5617 124.268C95.8806 125.339 96.0812 126.002 96.2782 126.668C93.5626 126.804 93.0145 127.191 92.1761 129.577C91.4023 129.817 90.6248 130.061 89.851 130.301C89.6324 130.534 89.4139 130.766 89.1989 130.999L89.1954 131.003Z" fill="#047A3E"/>
<path d="M124.782 149.991C124.499 147.595 124.828 147.143 126.774 147.136C131.538 147.114 136.3 147.079 141.061 147.175C141.77 147.19 143.014 147.849 143.064 148.311C143.2 149.572 142.05 149.626 141.05 149.647C136.3 149.751 131.553 149.877 126.802 149.988C126.161 150.002 125.516 149.988 124.778 149.988L124.782 149.991Z" fill="#0C2C7E"/>
<path d="M167.33 104.581C167.441 104.735 167.555 104.893 167.666 105.047C164.313 113.817 160.967 122.591 157.585 131.354C157.416 131.791 156.969 132.124 156.65 132.504C156.438 132.397 156.227 132.289 156.016 132.182C156.585 130.494 157.087 128.778 157.732 127.119C160.132 120.914 162.54 114.713 165.037 108.547C165.606 107.146 166.556 105.899 167.326 104.581H167.33Z" fill="#0C2C7E"/>
<path d="M40.4543 188.333C40.5725 187.265 40.6907 186.201 40.8089 185.133C43.9509 187.946 44.3163 191.478 43.6285 195.376C43.4601 196.329 43.7467 197.407 44.0082 198.378C44.4059 199.854 44.9684 201.287 45.4592 202.738C45.3589 203.849 45.3123 204.967 45.1224 206.063C45.0615 206.407 44.6137 206.686 44.3414 206.995C44.1086 205.612 43.9652 204.204 43.6142 202.853C43.306 201.664 43.0266 200.309 42.2671 199.432C40.8699 197.823 41.2425 196.243 41.5971 194.484C42.0342 192.316 42.1847 190.131 40.4507 188.333H40.4543Z" fill="#0C2C7E"/>
<path d="M59.0409 127.07C59.9939 127.578 60.9433 128.087 61.9786 128.643C62.5841 127.704 63.1573 127.396 64.2285 128.625C64.8949 129.388 66.2993 129.463 67.2917 129.997C67.7467 130.24 68.0046 130.846 68.3521 131.29C68.1085 131.358 67.8685 131.426 67.6249 131.494C65.941 130.738 64.3575 130.803 62.9244 132.075C61.9715 130.355 60.0977 131.376 58.5859 130.749C58.8797 130.169 59.1089 129.724 59.3418 129.266H57.1851C54.8922 129.409 56.4685 127.65 55.6445 126.647C57.0346 126.823 58.0377 126.944 59.0373 127.07H59.0409ZM62.6235 130.334C62.6163 130.43 62.6056 130.527 62.5984 130.624C62.8349 130.584 63.0713 130.541 63.3078 130.502C63.3006 130.445 63.2935 130.391 63.2827 130.334H62.6235Z" fill="#0CA34F"/>
<path d="M106.016 105.778C109.438 107.523 112.193 110.292 115.507 112.502C115.793 110.991 116.015 109.5 116.392 108.053C116.499 107.644 117.065 107.354 117.42 107.01C117.642 107.465 118.108 107.96 118.047 108.372C117.803 110.009 117.441 111.632 117.033 113.24C116.696 114.559 115.786 114.845 114.751 114.047C112.59 112.377 110.498 110.622 108.399 108.88C107.428 108.078 106.5 107.222 105.554 106.387C105.708 106.183 105.866 105.982 106.02 105.778H106.016Z" fill="#0C2C7E"/>
<path d="M92.1729 129.581C93.0112 127.199 93.5593 126.808 96.275 126.672C96.515 126.769 96.755 126.869 96.9951 126.966C97.7618 127.836 98.5249 128.703 99.288 129.574C97.8621 132.666 95.3077 132.257 92.7067 131.702C92.5275 130.993 92.352 130.287 92.1729 129.577V129.581Z" fill="#E7454F"/>
<path d="M99.288 129.574C98.5249 128.703 97.7582 127.836 96.9951 126.966C97.3677 126.758 97.7188 126.489 98.1165 126.349C99.6427 125.808 101.276 125.493 102.695 124.759C105.167 123.476 107.739 124.612 108.173 127.374C108.001 127.804 107.833 128.237 107.65 128.7C105.515 126.923 102.369 127.059 100.316 128.922C100.019 129.19 99.6355 129.359 99.2916 129.574H99.288Z" fill="#0CA34F"/>
<path d="M118.18 84.6689C118.534 84.9268 118.889 85.1812 119.244 85.4391C119.455 87.9721 119.845 90.505 119.824 93.0379C119.802 95.8682 119.437 98.6985 119.118 101.514C119.086 101.808 118.355 102.02 117.95 102.27C117.789 101.758 117.459 101.235 117.488 100.73C117.664 97.5413 117.982 94.3563 118.111 91.1642C118.172 89.6953 117.85 88.2157 117.814 86.7396C117.796 86.0518 118.051 85.3567 118.18 84.6653V84.6689Z" fill="#0C2C7E"/>
<path d="M88.293 109.969C87.8595 110.7 87.5478 111.549 86.971 112.144C83.3597 115.899 83.3311 115.884 81.0561 111.263C80.4363 110.005 79.9097 108.705 79.3257 107.386C80.834 107.01 80.8196 107.017 81.9303 109.418C82.4462 110.535 83.0445 111.617 83.7825 113.061C85.1797 111.768 86.3942 110.643 87.6087 109.518C87.838 109.668 88.0673 109.819 88.2966 109.969H88.293Z" fill="#0C2C7E"/>
<path d="M57.1851 129.262H59.3418C59.1089 129.721 58.8796 130.165 58.5859 130.745C60.0977 131.376 61.9715 130.351 62.9244 132.071C62.7596 133.307 62.5948 134.543 62.4336 135.783C61.6813 135.883 60.9325 135.987 60.1801 136.087C60.1801 134.998 59.8075 134.224 59.0122 133.332C58.07 132.275 57.769 130.645 57.1886 129.262H57.1851Z" fill="#047A3E"/>
<path d="M71.8203 162.229C72.5655 162.519 73.4432 162.652 74.038 163.132C76.7715 165.342 79.5731 167.388 83.034 168.337C83.2776 168.405 83.4675 168.681 83.7505 168.918C82.7044 170.376 81.4683 169.641 80.6013 169.104C78.398 167.739 76.3344 166.148 74.2135 164.651C73.8803 164.414 73.5328 164.203 73.1889 163.977C72.7339 163.393 72.2753 162.813 71.8203 162.229Z" fill="#DD775F"/>
<path d="M75.4131 89.9499C75.6746 89.8281 75.9326 89.7063 76.1941 89.5845C77.1614 93.8801 78.1287 98.1756 79.096 102.468L78.4941 102.758C78.2075 102.324 77.7597 101.919 77.663 101.447C76.8748 97.6203 76.1547 93.7833 75.4131 89.9463V89.9499Z" fill="#353434"/>
<path d="M50.2915 130.588C50.5853 130.133 50.8791 129.674 51.1764 129.219C52.0864 130.702 52.9964 132.182 53.935 133.708C52.4268 134.618 52.0327 133.833 51.6135 133.006C51.1979 132.185 50.7322 131.39 50.2915 130.588Z" fill="#0C2C7E"/>
<path d="M118.38 150.529C117.624 149.884 116.857 149.551 116.778 149.099C116.574 147.92 117.506 147.824 118.412 147.831C119.218 147.834 120.164 147.791 119.881 148.959C119.756 149.482 119.046 149.862 118.38 150.529Z" fill="#0C2C7E"/>
<path d="M114.174 81.957C113.5 80.8571 112.827 79.7573 112.157 78.6574C112.35 78.5499 112.547 78.4424 112.741 78.335C113.543 78.9404 114.346 79.5459 115.145 80.1549C114.822 80.7568 114.496 81.3587 114.174 81.9606V81.957Z" fill="#1F1E1F"/>
<path d="M81.9734 82.0823C81.504 82.9994 81.0383 83.9166 80.569 84.8337C80.2859 84.2963 79.9993 83.7625 79.7163 83.2251C80.4687 82.8454 81.221 82.462 81.9734 82.0823Z" fill="#1F1E1F"/>
<path d="M120.655 55.5494C120.637 53.5574 120.59 51.5655 120.605 49.5735C120.623 46.7898 120.684 44.0061 120.73 41.2224C120.773 38.7146 122.152 37.8118 124.581 38.6895C124.8 38.7683 125.036 38.7934 125.262 38.8436C125.642 39.5852 126.083 40.3053 126.387 41.0791C127.337 43.4759 127.766 45.8297 126.197 48.2229C124.968 50.093 124.044 52.1638 122.808 54.0232C122.353 54.7075 121.386 55.0514 120.655 55.5494Z" fill="#E68B73"/>
<path d="M101.151 156.816C102.728 155.516 104.304 154.212 105.88 152.911C105.117 156.01 104.258 156.723 101.151 156.816Z" fill="#504F4E"/>
<path d="M77.6564 159.668C78.8423 159.783 80.0317 159.897 81.2176 160.008C81.8696 160.345 82.5252 160.685 83.3385 161.108C80.9059 161.789 79.3761 161.363 77.6528 159.668H77.6564Z" fill="#DD775F"/>
<path d="M79.8382 19.1462C86.6703 24.0115 94.0183 26.7486 102.312 26.7952C104.866 26.8095 107.414 27.2609 109.972 27.3541C112.798 27.458 114.762 28.7728 115.811 31.32C118.849 38.6859 119.416 46.1163 115.847 53.475C113.984 57.312 111.992 58.068 107.858 57.2404C103.777 56.4235 99.686 55.4706 95.5588 55.1553C90.2816 54.7505 85.3626 56.7317 80.5046 58.5373C78.9497 59.1141 78.072 58.7272 77.1691 57.5234C75.0303 54.6788 74.2564 51.3398 74.106 47.9542C73.8659 42.6017 73.6761 37.2027 74.1705 31.8861C74.4392 28.9877 76.0549 26.1789 77.2551 23.4096C77.9071 21.9084 78.9569 20.5793 79.8418 19.1462H79.8382ZM103.054 29.1991C102.48 29.7293 101.904 30.0267 101.789 30.4494C101.714 30.7253 102.23 31.3702 102.613 31.5314C105.447 32.7352 108.306 33.8852 111.186 34.9743C111.548 35.1105 112.315 34.9206 112.476 34.6411C112.655 34.3259 112.508 33.4338 112.257 33.3156C109.266 31.9076 106.224 30.5963 103.057 29.1991H103.054ZM78.0791 34.4083C78.4983 34.0966 78.878 33.8386 79.2327 33.552C81.3214 31.8825 83.4065 30.2094 85.4916 28.5327C85.7674 28.3106 86.1687 28.1279 86.2762 27.8377C86.4159 27.4615 86.4947 26.8095 86.2869 26.6124C86.0039 26.3473 85.2408 26.1682 84.9936 26.3581C82.4463 28.307 79.9421 30.3205 77.4772 32.3769C77.2193 32.5919 77.187 33.226 77.2551 33.6308C77.3017 33.8924 77.7244 34.0894 78.0791 34.4047V34.4083ZM108.091 43.87C109.377 43.87 110.681 42.7271 110.595 41.5771C110.484 40.1118 109.434 39.4992 108.155 39.4884C106.894 39.4813 105.794 40.0115 105.662 41.5055C105.558 42.6734 106.83 43.8664 108.091 43.87ZM82.8906 39.4311C81.4217 39.4275 80.2215 40.4128 80.2394 41.4875C80.2574 42.7415 81.4289 43.8772 82.69 43.8664C83.9618 43.8557 85.2229 42.7092 85.1763 41.5485C85.1118 40.0151 83.9475 39.6855 82.8942 39.4311H82.8906ZM93.0187 51.0747C92.9936 51.2646 92.9721 51.458 92.947 51.6479C94.7348 53.063 95.7881 53.0989 96.6945 51.4724C95.3761 51.329 94.1974 51.2001 93.0151 51.0711L93.0187 51.0747Z" fill="#E8896E"/>
<path d="M72.221 56.1834C68.1762 54.1628 65.2994 51.0781 64.9554 46.4852C64.7261 43.4041 64.9124 40.0794 68.1225 38.1125C68.599 38.1484 69.0826 38.1376 69.5484 38.2308C71.4042 38.607 72.2533 39.6208 72.2533 41.5125C72.2533 46.4028 72.2318 51.2931 72.221 56.1834Z" fill="#E9896F"/>
<path d="M109.549 80.477C107.618 84.425 101.993 87.6064 97.4109 87.2446C93.0759 86.9042 89.393 85.1416 86.466 81.8957C86.2008 81.6019 86.0719 81.1935 85.8784 80.8352C88.0387 81.4335 90.1668 82.1966 92.3594 82.5907C97.6044 83.533 102.749 83.1747 107.672 80.9105C108.245 80.6489 108.922 80.6131 109.549 80.4734V80.477Z" fill="#1F1E1F"/>
<path d="M102.831 62.3924C101.301 63.7896 99.8432 65.28 98.2203 66.559C96.9126 67.5872 95.3613 67.2217 94.0429 66.5016C91.9936 65.3803 90.0375 64.0798 88.042 62.8581L88.2355 62.3207C92.9753 62.1272 97.7187 61.9374 102.459 61.7439C102.584 61.9589 102.709 62.1738 102.835 62.3888L102.831 62.3924Z" fill="#FBFCFC"/>
<path d="M68.6025 16.8638C68.5631 16.9032 68.5272 16.9427 68.4878 16.9856C68.4556 16.9427 68.3911 16.8961 68.3947 16.8567C68.3947 16.8137 68.4627 16.7743 68.4986 16.7349C68.5308 16.7779 68.5666 16.8208 68.5989 16.8638H68.6025Z" fill="#FEFEFE"/>
<path d="M37.5378 99.0819C36.3484 99.7876 35.159 100.497 33.9695 101.203C34.077 94.9475 34.1773 88.6922 34.3027 82.437C34.3314 80.9143 33.991 79.5028 32.6475 78.7003C29.0828 76.5686 29.4267 73.2439 29.7743 69.8798C29.8208 69.4141 29.8495 68.9448 29.8889 68.4754C30.068 66.1252 30.2078 63.7678 30.4442 61.4248C30.5087 60.7978 30.8562 60.1995 31.0748 59.5869C31.2288 59.9488 31.3793 60.3106 31.5333 60.6689C31.4975 63.6281 31.4294 66.5874 31.4688 69.5466C31.476 69.9801 31.9847 70.4065 32.2642 70.8364C32.4899 70.3671 32.8983 69.9013 32.9091 69.4248C32.9736 66.9385 32.9377 64.4521 32.9377 61.9622C33.1527 62.0482 33.3676 62.1342 33.5826 62.2202C33.7187 64.5739 33.8011 66.9349 34.034 69.2815C34.0949 69.8798 34.6287 70.4315 34.9476 71.0048C35.2019 70.4387 35.682 69.8691 35.6784 69.3066C35.6641 67.0675 35.4993 64.8283 35.3882 62.5892C35.5029 62.5498 35.6139 62.5462 35.7286 62.582C36.0797 64.8713 36.395 67.1642 36.8034 69.4427C36.893 69.9443 37.305 70.385 37.5665 70.8543C37.7599 70.7862 37.9534 70.7146 38.1469 70.6465C38.043 69.2636 37.9355 67.8843 37.8352 66.5014C37.7313 65.0827 37.631 63.664 37.5307 62.2416C37.8782 62.2309 38.2257 62.2166 38.5768 62.2058C38.824 63.9971 39.0712 65.7849 39.322 67.5762C39.5119 69.0379 39.6587 70.5068 39.8952 71.9613C40.3036 74.4835 40.2355 76.8337 37.8961 78.5068C36.7855 79.3021 36.4989 80.2444 36.7246 81.6882C37.09 84.0133 37.0506 86.4065 37.1509 88.771C37.2942 92.2032 37.4124 95.639 37.5414 99.0747L37.5378 99.0819Z" fill="#FBFCFC"/>
<path d="M19.9326 118.804C20.3016 119.274 20.8175 119.693 21.0146 120.227C21.7418 122.218 23.0567 123.694 25.0952 124.081C26.3169 124.314 26.6716 125.013 27.2878 125.823C28.1834 127.005 29.3263 128.012 30.4082 129.043C31.3935 129.986 32.3464 131.007 33.4821 131.727C34.6823 132.486 36.0903 132.909 37.3908 133.514C38.2757 133.926 39.9058 134.478 39.87 134.836C39.7267 136.341 38.2076 135.779 37.4839 135.582C35.707 135.094 33.9443 134.374 32.3464 133.454C30.8238 132.576 29.5018 131.343 28.1261 130.226C27.5314 129.742 26.7934 129.248 26.5175 128.592C25.475 126.091 23.1319 125.325 21.0468 124.189C20.6742 122.394 20.3052 120.599 19.9326 118.804Z" fill="#E28168"/>
<path d="M24.475 133.88C26.2054 134.124 26.4848 135.653 27.0688 136.882C27.1548 137.065 26.8001 137.699 26.6926 137.688C26.2735 137.649 25.7253 137.545 25.4889 137.255C25.0231 136.682 24.7329 135.969 24.3711 135.313C24.4069 134.836 24.4427 134.356 24.475 133.88Z" fill="#DD775F"/>
<path d="M39.3224 67.5797C39.0752 65.7884 38.828 64.0007 38.5772 62.2093C40.0497 60.5828 39.695 59.0674 37.7819 57.9747C36.2772 57.1184 34.9373 56.0078 34.6328 54.1126C34.4465 52.9626 33.9127 52.4896 32.6122 52.4717C29.3663 52.4252 27.3457 49.8242 28.2091 46.7073C28.5674 47.1694 28.9579 47.4668 29.0654 47.843C29.6422 49.9066 31.1863 50.3723 33.0457 50.3687C33.5795 50.3687 34.1204 50.4046 34.6507 50.358C35.9261 50.2433 36.4671 50.7198 36.4778 52.0741C36.4957 54.4959 37.4272 55.517 39.6305 56.4628C40.365 56.7781 41.3538 57.6701 41.361 58.3043C41.3789 60.7548 42.6005 62.4171 44.3059 63.8968C43.1379 65.7955 41.755 67.4042 39.3189 67.5797H39.3224Z" fill="#046A3A"/>
<path d="M39.0208 107.974C37.9532 108.995 36.7924 109.933 35.8323 111.048C33.9407 113.247 32.178 115.558 30.3115 117.776C29.9926 118.156 29.4158 118.317 28.9608 118.578C28.9572 118.045 28.7781 117.432 28.9751 116.984C30.6661 113.151 33.7974 110.575 37.0002 108.103C37.4481 107.755 38.2255 107.834 38.8524 107.716C38.9456 107.777 38.9993 107.863 39.0208 107.97V107.974Z" fill="#DD775F"/>
<path d="M35.3882 62.5926C35.4992 64.8318 35.664 67.0709 35.6784 69.3101C35.6819 69.8761 35.2055 70.4422 34.9475 71.0083C34.6322 70.435 34.0948 69.8833 34.0339 69.285C33.8011 66.9384 33.7187 64.5774 33.5825 62.2236C34.1844 62.3454 34.7863 62.4708 35.3882 62.5926Z" fill="#9AB0BF"/>
<path d="M32.9409 61.9623C32.9409 64.4486 32.9767 66.9386 32.9122 69.4249C32.9015 69.9014 32.493 70.3671 32.2673 70.8365C31.9915 70.4065 31.4791 69.9802 31.472 69.5467C31.4326 66.5875 31.5042 63.6282 31.5365 60.6689C32.0058 61.0989 32.4751 61.5324 32.9409 61.9659V61.9623Z" fill="#9AB0BF"/>
<path d="M37.5306 62.2451C37.6309 63.6638 37.7312 65.0826 37.8351 66.5049C37.9354 67.8878 38.0429 69.2671 38.1468 70.65C37.9533 70.7181 37.7599 70.7897 37.5664 70.8578C37.3049 70.3884 36.8929 69.9442 36.8033 69.4462C36.3949 67.1677 36.0796 64.8748 35.7285 62.5855C36.3304 62.4744 36.9287 62.3598 37.5306 62.2487V62.2451Z" fill="#9AB0BF"/>
<path d="M71.387 145.731C70.9571 146.168 70.4735 146.942 69.7856 147.232C69.4668 147.369 68.4493 146.674 68.2666 146.168C67.4856 144.005 66.8228 141.787 66.3105 139.548C66.2137 139.125 66.9016 138.222 67.4032 138.05C67.9191 137.875 69.087 138.161 69.2124 138.516C70.0113 140.734 70.5989 143.026 71.3835 145.731H71.387Z" fill="#FEFEFE"/>
<path d="M76.2836 135.27C76.1976 132.547 77.276 131.103 79.4649 131.014C81.9083 130.913 83.3664 132.479 83.3951 135.227C81.0234 135.241 78.6517 135.255 76.2836 135.27Z" fill="#E7454F"/>
<path d="M62.4297 135.782C62.5945 134.546 62.7593 133.31 62.9205 132.071C64.3536 130.795 65.9371 130.731 67.6209 131.49C67.5134 131.87 67.4024 132.253 67.2949 132.633C65.6146 133.049 65.6469 134.213 66.0302 135.528C64.8301 135.61 63.6299 135.696 62.4297 135.779V135.782Z" fill="#B92829"/>
<path d="M73.3819 149.511C72.3466 150.249 71.7339 151.008 71.2718 150.93C70.7165 150.829 70.2901 150.012 69.8101 149.507C70.3116 149.052 70.7666 148.321 71.3291 148.228C71.7877 148.153 72.3681 148.841 73.3819 149.514V149.511Z" fill="#FBFCFC"/>
<path d="M92.1728 129.581C92.3519 130.29 92.5275 130.996 92.7066 131.705C92.1119 131.83 91.5172 131.956 90.9224 132.081C90.5642 131.49 90.2059 130.895 89.8477 130.304C90.6215 130.064 91.3989 129.821 92.1728 129.581Z" fill="#0CA34F"/>
<path d="M106.457 135.019C105.687 134.707 104.92 134.396 104.15 134.084C104.311 133.737 104.583 133.074 104.619 133.088C105.393 133.357 106.138 133.697 106.887 134.027C106.744 134.356 106.6 134.69 106.454 135.019H106.457Z" fill="#D2AE93"/>
<path d="M89.8478 130.304C90.2061 130.896 90.5643 131.49 90.9226 132.081C90.6646 132.4 90.4067 132.723 90.1487 133.042C88.0959 133.174 89.5755 131.652 89.1958 131.003C89.4143 130.77 89.6328 130.537 89.8478 130.304Z" fill="#D2AE93"/>
<path d="M67.2993 132.637C67.4068 132.257 67.5179 131.874 67.6253 131.494C67.869 131.426 68.109 131.358 68.3526 131.29C68.5783 131.34 68.8004 131.387 69.0261 131.437C69.3808 131.788 69.7319 132.139 70.0866 132.49L70.0615 132.511C69.2017 133.876 68.2451 133.11 67.2993 132.64V132.637Z" fill="#D2AE93"/>
<path d="M67.2162 128.198C66.4531 127.714 65.6864 127.23 64.9233 126.747C65.192 126.475 65.6327 125.934 65.6972 125.977C66.403 126.428 67.0478 126.973 67.7106 127.492C67.5458 127.728 67.381 127.965 67.2162 128.201V128.198Z" fill="#D2AE93"/>
<path d="M70.0824 132.486C69.7278 132.135 69.3767 131.784 69.022 131.433C70.0645 130.914 70.1075 130.957 70.0824 132.486Z" fill="#0CA34F"/>
<path d="M62.6232 130.333H63.2824C63.2896 130.391 63.2968 130.444 63.3075 130.502C63.0711 130.541 62.8346 130.584 62.5981 130.623C62.6053 130.527 62.6161 130.43 62.6232 130.333Z" fill="#047A3E"/>
<path d="M103.053 29.1992C106.221 30.5964 109.262 31.9077 112.254 33.3157C112.504 33.4339 112.655 34.326 112.472 34.6412C112.311 34.9207 111.544 35.1106 111.182 34.9744C108.302 33.8853 105.443 32.7353 102.609 31.5315C102.226 31.3667 101.71 30.7254 101.785 30.4496C101.9 30.0268 102.477 29.7294 103.05 29.1992H103.053Z" fill="#33334C"/>
<path d="M78.0791 34.4081C77.7244 34.0928 77.3017 33.8957 77.2551 33.6342C77.1834 33.2294 77.2193 32.5952 77.4772 32.3803C79.9421 30.3239 82.4427 28.3104 84.9936 26.3615C85.2408 26.1716 86.0039 26.3507 86.2869 26.6158C86.4983 26.8129 86.4159 27.4613 86.2762 27.8411C86.1687 28.1313 85.7674 28.314 85.4916 28.5361C83.4065 30.2092 81.3214 31.8859 79.2327 33.5554C78.878 33.8384 78.5018 34.1 78.0791 34.4116V34.4081Z" fill="#33334C"/>
<path d="M108.091 43.8699C106.826 43.8699 105.558 42.6733 105.662 41.5054C105.794 40.0114 106.894 39.4812 108.155 39.4884C109.434 39.4955 110.484 40.1117 110.595 41.577C110.685 42.7271 109.377 43.8735 108.091 43.8699Z" fill="#1F1E1F"/>
<path d="M82.8902 39.4309C83.9471 39.6853 85.1114 40.0149 85.1723 41.5483C85.2189 42.709 83.9578 43.8555 82.686 43.8662C81.4249 43.877 80.2534 42.7413 80.2355 41.4873C80.2211 40.4126 81.4177 39.4273 82.8866 39.4309H82.8902Z" fill="#1F1E1F"/>
<path d="M93.0188 51.0747C94.1974 51.2037 95.3797 51.3327 96.6981 51.476C95.7917 53.1025 94.7384 53.0631 92.9507 51.6515C92.9758 51.4616 92.9973 51.2682 93.0223 51.0783L93.0188 51.0747Z" fill="#E7454F"/>
</svg>
