<svg width="147" height="121" viewBox="0 0 147 121" fill="none" xmlns="http://www.w3.org/2000/svg">
<path d="M126.867 68.9525C125.335 70.7913 123.788 72.6162 122.186 74.5247C121.838 74.3018 121.504 74.1347 121.239 73.8839C114.483 67.657 107.685 61.4718 101.012 55.1752C88.9343 43.7939 76.9958 32.2873 64.8623 20.9618C59.9866 16.4204 54.2472 13.091 48.1317 10.4164C38.2968 6.12575 29.2141 7.65811 20.8 13.9408C9.73916 22.2016 5.93612 36.4525 11.787 48.4607C13.2218 51.4 15.3392 54.1722 17.6935 56.4568C31.1086 69.4958 44.7188 82.3397 58.2035 95.2951C64.7509 101.578 71.2007 107.972 77.6923 114.324C77.8874 114.519 78.0545 114.728 78.3053 115.007C76.6197 116.971 74.9759 118.907 73.2067 120.983C72.3569 120.203 71.5768 119.52 70.8385 118.81C57.2841 105.757 43.7157 92.718 30.1753 79.6372C23.0846 72.7834 16.1333 65.7903 8.973 59.0339C4.69632 54.9941 2.24453 50.1184 1.2276 44.4208C-0.179386 36.5083 0.363913 28.8047 3.65152 21.3797C5.65752 16.8523 9.32125 13.7179 12.8596 10.4999C18.6965 5.19241 25.2996 1.34758 33.2957 0.344577C43.27 -0.909172 52.492 1.29185 60.7249 6.96158C65.2106 10.0402 69.2783 13.7179 73.5271 17.1169C75.1848 18.8165 76.8426 20.5021 78.5003 22.2016C79.963 23.4275 81.4397 24.6534 82.9024 25.8793C85.0198 27.8574 87.1373 29.8355 89.2547 31.8137C90.6617 33.151 92.0547 34.5023 93.4617 35.8396C95.1473 37.8874 96.8329 39.9352 98.5185 41.983C99.8837 43.0138 101.235 44.0447 102.6 45.0616C104.286 46.789 105.957 48.5025 107.643 50.2298C109.106 51.2468 110.568 52.2498 112.031 53.2667C114.162 55.2588 116.294 57.2648 118.425 59.2568C119.818 60.3713 121.225 61.4718 122.618 62.5862C124.039 64.7037 125.446 66.8211 126.867 68.9386V68.9525Z" fill="#37437F"/>
<path d="M88.4611 104.531C87.4023 105.883 86.3576 107.387 85.1456 108.752C83.3207 110.8 81.649 110.912 79.5037 109.031C77.456 107.234 75.5196 105.298 73.5415 103.417C58.4686 89.0546 43.3679 74.7061 28.3229 60.3019C25.105 57.2233 21.692 54.2422 19.0731 50.7038C13.473 43.1395 12.2889 34.6558 16.7048 26.2C21.1487 17.6745 28.6294 13.356 38.2693 13.1053C44.8306 12.9242 50.4725 15.3899 55.2089 19.8198C64.6538 28.6378 73.9872 37.5673 83.4043 46.3993C94.5348 56.8332 105.693 67.2254 116.852 77.6315C117.088 77.8544 117.381 78.0355 117.799 78.3699C115.556 80.1251 113.48 81.7411 111.196 83.5381C108.187 80.7102 105.233 77.938 102.294 75.1519C85.0759 58.8392 67.8996 42.4709 50.6396 26.2139C43.8276 19.7919 33.1568 19.7083 27.0135 25.8099C20.7029 32.0647 20.7308 41.7604 27.3339 48.2102C36.2494 56.9308 45.3182 65.4841 54.373 74.0653C63.3861 82.6047 72.4131 91.1302 81.5376 99.5443C83.5575 101.411 86.0093 102.79 88.4611 104.545V104.531Z" fill="#35427F"/>
<path d="M107.852 86.9648C106.013 88.9151 104.258 90.7679 102.391 92.746C97.1253 88.1489 91.776 83.7747 86.7749 79.0384C75.0732 67.9914 63.5387 56.7634 51.9485 45.6051C49.1763 42.9443 46.3624 40.3115 43.7295 37.5254C41.9743 35.6726 40.1076 34.8228 37.5165 35.7283C37.405 37.3164 37.8648 38.6398 39.0906 39.9353C55.9466 57.5157 74.0702 73.7726 91.8316 90.4057C94.1023 92.5371 96.373 94.6684 98.7133 96.8555C96.8327 98.6247 95.0078 100.338 92.9182 102.302C89.4774 99.377 85.6743 96.3958 82.1638 93.1082C65.7258 77.6732 49.3853 62.1267 32.9891 46.6359C30.6905 44.4628 28.6149 42.1642 27.779 39.0299C25.8706 31.8696 32.8498 24.8346 40.3444 26.2834C43.4788 26.8963 45.9445 28.5959 48.2012 30.7412C63.1069 44.9643 78.0265 59.1873 92.974 73.3547C97.376 77.5339 101.917 81.5598 106.389 85.6554C106.835 86.0594 107.281 86.4633 107.838 86.9788L107.852 86.9648Z" fill="#33407E"/>
<path d="M126.867 68.9526C125.446 66.8352 124.039 64.7177 122.618 62.6003C124.526 60.65 126.546 58.8112 128.329 56.7495C134.041 50.1464 137.259 42.596 136.423 33.6944C135.657 25.5451 131.868 18.9977 125.362 14.122C115.527 6.73882 101.694 6.27911 90.8423 13.119C86.5378 15.8355 82.5954 19.1649 78.4859 22.2017C76.8282 20.5022 75.1704 18.8166 73.5127 17.1171C80.1158 8.24332 88.7806 2.64324 99.716 0.665107C116.739 -2.39961 134.487 5.16467 142.093 22.5778C144.071 27.1192 146.314 31.6048 146.481 36.6616C146.551 38.8905 146.453 41.3144 145.687 43.3761C142.692 51.4837 138.694 59.048 132.16 64.9546C130.516 66.4451 128.622 67.6292 126.839 68.9666L126.867 68.9526Z" fill="#F3A863"/>
<path d="M118.411 59.257C116.28 57.2649 114.149 55.259 112.017 53.2669C114.622 51.0241 117.464 49.0041 119.776 46.4966C123.301 42.6797 124.555 38.0547 123.092 32.9004C119.651 20.8644 105.317 18.2037 96.7214 24.9322C94.0607 27.0078 91.7343 29.5014 89.2547 31.7999C87.1372 29.8218 85.0198 27.8436 82.9023 25.8655C85.981 23.4973 89.0457 21.1013 92.1522 18.7609C101.026 12.0743 110.652 11.4753 119.832 16.9918C131.645 24.0963 134.947 38.8627 126.937 49.9096C124.471 53.3087 121.281 56.1644 118.411 59.2709V59.257Z" fill="#F3A863"/>
<path d="M93.4478 35.84C95.3563 33.8201 97.1672 31.6887 99.2011 29.7941C103.979 25.3642 112.017 25.9772 116.057 30.9504C118.592 34.0708 118.773 37.637 116.308 41.2729C115.096 43.056 113.563 44.6162 112.045 46.1764C110.652 47.6113 109.106 48.8929 107.615 50.2302C105.93 48.5028 104.258 46.7894 102.572 45.062C102.907 44.4212 103.088 43.655 103.575 43.1814C104.648 42.1505 105.916 41.3147 107.016 40.2978C108.883 38.5982 109.036 37.2748 107.727 34.8927C104.634 37.2609 101.555 39.6152 98.4767 41.9694C96.7911 39.9216 95.1055 37.8738 93.4199 35.8261L93.4478 35.84Z" fill="#F2A761"/>
</svg>
