<svg width="381" height="246" viewBox="0 0 381 246" fill="none" xmlns="http://www.w3.org/2000/svg">
<path d="M0 80.2559C8.7191 73.9547 18.0499 72.8012 28.0046 76.9473C28.5054 77.1566 29.0226 77.3167 29.5358 77.5015C33.4766 79.8167 37.3641 82.2223 41.3665 84.4226C45.0815 86.4628 48.9198 87.9898 53.2218 85.8798C57.4541 83.8068 61.6002 84.4718 65.5616 86.668C70.6642 89.4964 74.4326 93.7574 77.2651 98.7204C79.3833 102.431 80.9432 106.471 82.6509 110.403C85.0523 115.941 88.3322 117.727 93.7673 116.323C93.8946 116.483 94.067 116.622 94.145 116.803C98.1556 126.278 103.964 134.537 111.05 141.942C109.35 141.967 107.655 141.992 105.955 142.016C105.491 141.437 105.101 140.772 104.551 140.296C99.8674 136.249 95.2698 132.09 90.4217 128.244C82.9136 122.283 75.4588 116.204 67.5566 110.793C58.0042 104.254 48.1439 98.1375 38.1646 92.2632C31.42 88.2936 24.2444 85.0629 17.2617 81.4957C16.2108 80.9579 15.3446 80.9538 14.7084 82.3618C15.3528 82.7272 15.9152 83.0761 16.5023 83.3717C20.9521 85.6089 25.5169 87.6409 29.8395 90.0998C38.2508 94.8781 46.6989 99.6317 54.8146 104.886C62.922 110.132 70.7421 115.851 78.5089 121.602C84.0794 125.727 89.4119 130.177 94.7361 134.619C97.6014 137.008 100.233 139.676 102.967 142.222C105.512 153.666 109.609 164.52 115.368 174.738C116.866 177.398 118.426 180.021 119.957 182.656C113.451 180.546 106.949 178.436 100.442 176.326C101.596 174.807 102.778 173.309 103.89 171.761C105.918 168.937 105.364 167.41 101.986 166.388C101.53 166.248 101.062 166.133 100.594 166.059C93.053 164.824 85.4833 163.765 77.9875 162.312C73.4515 161.433 68.9441 160.202 64.5846 158.666C61.0255 157.414 60.6027 155.616 62.2324 152.32C63.6281 149.504 65.1347 146.729 66.3292 143.827C67.885 140.034 67.1502 137.32 64.0715 134.623C61.1446 132.057 57.5937 130.916 53.8089 130.35C49.4247 129.689 45.0282 129.081 40.6727 128.264C35.0776 127.213 33.181 124.2 34.4659 118.683C35.1638 115.691 35.8616 112.698 36.6785 109.738C37.1588 107.998 36.7976 106.397 35.4429 105.49C31.8346 103.072 28.0538 100.9 24.3429 98.6342C20.6689 97.0291 16.9374 95.5431 13.3373 93.7861C8.83405 91.5776 4.44165 89.1516 0 86.824C0 84.636 0 82.4439 0 80.2559Z" fill="#67AF6C"/>
<path d="M93.7667 116.323C88.3316 117.731 85.0517 115.941 82.6503 110.404C80.9426 106.467 79.3826 102.432 77.2645 98.7208C74.432 93.7578 70.6635 89.4968 65.561 86.6684C61.5955 84.4722 57.4494 83.8072 53.2212 85.8803C48.9192 87.9861 45.0809 86.4632 41.3659 84.423C37.3635 82.2227 33.4719 79.8171 29.5352 77.5019C30.4259 75.1415 31.3824 72.8057 32.1665 70.4125C32.4538 69.5299 32.3266 68.5118 32.3923 67.5595L32.5154 67.4568C34.5228 67.2844 34.2354 65.3756 34.9538 64.2303C35.2288 64.3493 35.5039 64.4684 35.7789 64.5874C35.8282 64.5053 35.8815 64.4273 35.9308 64.3452C35.7091 64.1564 35.4875 63.9676 35.2617 63.7787C38.7715 56.2624 43.2542 49.3454 48.328 42.802C53.0242 36.747 58.1391 31.0903 64.2761 26.4311C64.5429 26.2299 64.8713 26.115 65.171 25.959C65.3475 27.8391 65.3886 29.7479 65.7293 31.5952C66.1275 33.7421 66.7884 35.8439 67.3344 37.9662L67.3261 37.9539L67.7449 38.3726L67.7366 38.3644C68.0158 38.3644 68.2908 38.3644 68.57 38.3644L68.5618 38.3726C68.8122 37.9785 69.2022 37.6091 69.2843 37.1863C69.7686 34.6699 70.4706 32.1412 70.5076 29.6084C70.5322 28.0526 71.8786 26.2833 70.2038 24.8137V24.8219C70.0683 24.5469 69.9287 24.2677 69.7892 23.9927L69.7974 24.005C69.6578 23.8654 69.5182 23.7259 69.3828 23.5904C66.0905 25.0407 64.8589 27.0933 66.0905 23.8092C71.6281 20.595 81.0411 15.0355 86.7348 12.1127C94.6 8.07744 103.069 5.59389 111.726 3.94777C119.46 2.47406 127.243 1.00856 135.076 0.351757C142.448 -0.268104 149.915 0.105454 157.337 0.17524C165.552 0.257341 173.544 1.95272 181.5 3.81641C189.426 5.67189 197.062 8.38942 204.393 11.9074C207.641 13.4674 210.736 15.331 213.901 17.0593C214.159 17.1824 214.418 17.3097 214.677 17.4328C215.658 18.0157 216.639 18.5946 217.62 19.1775C217.961 19.6988 218.215 20.3228 218.667 20.7169C219.143 21.1315 220.157 21.1889 220.329 21.6405C220.904 23.1183 221.992 23.262 223.281 23.1881C226.125 25.2735 229.118 27.1823 231.782 29.477C239.381 36.0204 246.33 43.2207 252.357 51.246C254.832 54.5424 256.848 58.1794 259.073 61.6646C256.614 68.6719 253.941 75.6095 251.79 82.7112C250.719 86.2497 248.371 86.9886 245.366 87.1651C244.36 87.2267 243.338 86.964 242.324 86.849C241.593 86.2743 240.867 85.7037 240.14 85.129C239.865 84.9895 239.594 84.8458 239.319 84.7062C238.929 84.5543 238.535 84.4024 238.145 84.2506C237.96 83.1832 237.776 82.1118 237.595 81.0774C237.48 81.1389 237.143 81.3155 236.712 81.5494C236.532 81.1841 236.417 80.8803 236.244 80.6053C234.787 78.2695 232.895 77.0749 231.421 77.5429C229.68 78.0971 228.872 80.1742 229.254 83.1504C229.27 83.2736 229.385 83.3803 229.459 83.4952C229.418 83.7621 229.377 84.033 229.34 84.2998C228.839 85.95 228.338 87.5962 227.833 89.2464C227.275 90.5066 226.717 91.7669 226.158 93.0271C225.452 93.0764 224.73 93.2529 224.044 93.1585C221.778 92.8465 219.529 92.436 217.271 92.0666C216.688 91.0116 216.105 89.9566 215.522 88.8975C215.395 88.5896 215.309 88.253 215.132 87.9779C211.721 82.6742 206.622 79.7391 200.674 78.4542C198.199 77.9206 195.141 77.8056 192.94 78.8073C189.389 80.4247 186.364 83.0108 183.753 86.2128C177.058 94.4146 173.195 103.827 170.749 113.946C169.858 117.629 169.139 121.352 168.343 125.055C164.78 121.056 161.213 117.062 157.649 113.064C158.754 111.972 159.952 110.962 160.942 109.772C165.108 104.759 167.087 98.7988 168.359 92.5181C169.271 88.019 171.561 84.5707 176.266 83.3023C177.719 82.9123 179.23 82.7399 180.748 82.4566C178.569 80.593 178.581 80.7654 176.015 80.9829C172.891 81.2457 170.519 82.781 168.314 84.776C168.199 84.3942 168.084 84.0125 167.982 83.6758C164.689 85.8474 164.123 89.3244 163.047 92.5304C160.642 94.587 158.167 96.5657 155.86 98.729C154.271 100.219 152.768 101.139 150.461 100.396C147.982 99.5993 145.4 99.1354 142.863 98.5238C141.311 97.633 140.572 96.3933 140.626 94.5008C140.683 92.5551 140.437 90.5887 140.186 88.647C139.969 86.9435 139.739 85.1988 139.189 83.5855C138.713 82.1898 138.035 80.1537 136.985 79.8089C134.739 79.0659 132.194 79.2014 129.768 79.0659C129.357 79.0413 128.852 79.3738 128.512 79.6734C127.35 80.7038 126.242 81.7957 125.113 82.8631C124.095 82.3376 123.04 81.8696 122.063 81.2703C116.972 78.1505 111.788 75.3016 105.577 75.2769C102.896 70.1169 101.012 64.4889 96.632 59.6408C95.8849 61.2336 95.3677 62.3379 94.8504 63.4421C93.5245 61.365 92.917 58.7829 90.5196 57.3051C90.1789 58.4504 90.142 59.4972 90.1871 60.5398C90.2692 62.4117 90.4047 64.2836 90.5196 66.1555C87.2397 64.0784 84.009 61.9232 80.6511 59.9816C79.8629 59.5259 78.6561 59.7927 77.638 59.727C77.675 60.7615 77.3835 61.9643 77.8104 62.8058C79.005 65.1621 80.4951 67.3706 81.8662 69.6407C79.8711 69.9732 79.5715 70.474 80.5362 72.075C81.0206 72.8837 81.624 73.6267 82.2233 74.3574C85.2282 78.0191 88.2495 81.6644 91.2667 85.3138C88.894 92.2841 88.9843 99.3325 90.7906 106.381C91.6485 109.731 92.7692 113.01 93.7708 116.323H93.7667ZM37.3594 65.0595C36.8914 65.3345 36.4234 65.6096 35.9513 65.8846C36.0827 66.0652 36.21 66.25 36.3413 66.4306C36.682 65.9749 37.0227 65.5193 37.3635 65.0636L38.1845 64.6531C38.6319 64.6244 39.0794 64.5915 39.6336 64.5546C39.3175 63.9347 39.0671 63.438 38.7879 62.892C38.5662 63.5406 38.3733 64.0989 38.1845 64.6531C37.9094 64.7886 37.6385 64.9281 37.3635 65.0636L37.3594 65.0595Z" fill="#FFDAB9"/>
<path d="M349.335 226.034C350.39 226.166 351.47 226.519 352.492 226.391C358.481 225.64 363.194 230.086 363.551 235.652C363.768 239.039 363.592 242.45 363.592 245.993H61.3789C61.6498 241.695 61.5349 237.319 62.3107 233.111C62.9347 229.708 65.8534 227.758 69.0061 226.445C72.6062 226.305 76.2104 226.059 79.8105 226.042C90.8736 225.989 101.937 226.03 113 226.01C113.788 226.01 114.576 225.796 115.364 225.681C116.235 225.796 117.105 226.005 117.979 226.01C122.548 226.034 127.117 226.005 131.69 225.993C149.399 225.997 167.108 226.001 184.822 226.01C194.924 226.01 205.027 226.014 215.129 226.018C217.383 226.005 219.636 225.997 221.89 225.985C231.816 225.989 241.742 225.997 251.664 226.001C254.271 226.001 256.873 226.001 259.48 226.001C264.541 226.005 269.603 226.01 274.66 226.014C277.025 225.997 279.393 225.981 281.758 225.964C293.326 225.973 304.894 225.981 316.462 225.989C327.422 226.005 338.379 226.018 349.339 226.034H349.335Z" fill="#0C2C7E"/>
<path d="M242.324 86.8453C243.338 86.9602 244.36 87.2188 245.366 87.1613C248.371 86.9807 250.719 86.2418 251.79 82.7074C253.941 75.6098 256.614 68.6681 259.073 61.6608C261.228 59.0418 263.137 56.156 265.616 53.8941C267.574 52.1084 270.23 51.0945 272.578 49.7357C274.729 49.8342 276.913 49.7275 279.019 50.0764C281.692 50.5239 284.237 50.4951 286.441 48.8654C289.163 46.8499 291.732 44.629 294.372 42.4985C298.391 39.2309 302.319 35.8566 307.204 33.8574C314.754 30.7704 322.151 31.341 329.384 34.7523C332.483 36.2137 333.083 38.5495 330.985 41.2383C329.54 43.0896 327.664 44.629 325.862 46.1684C324.314 47.4902 322.598 48.6191 320.96 49.8342C313.879 54.0583 306.724 58.1798 301.018 64.3086C298.296 67.2314 298.042 68.2658 299.668 71.944C300.907 74.7477 302.319 77.4858 303.428 80.3388C304.663 83.5243 303.892 86.2418 300.981 87.9536C298.547 89.3863 295.78 90.2401 293.157 91.3526C292.028 89.7475 291.121 87.9085 289.721 86.599C287.911 84.9118 286.999 83.1343 287.393 80.6877C287.488 80.0884 287.435 79.4562 287.385 78.8445C287.237 77.0014 286.388 75.5277 284.66 74.8585C283.937 74.5794 282.841 74.6163 282.205 74.9981C281.819 75.228 281.831 76.4143 281.942 77.1245C282.221 78.8897 282.66 80.6343 283.095 82.6786C279.844 82.4898 277.431 83.4832 275.969 85.8149C273.338 90.0143 270.916 94.3493 268.49 98.676C267.525 100.392 266.971 102.35 265.899 103.984C262.587 109.037 259.114 113.988 255.707 118.979C253.95 117.727 252.189 116.475 250.432 115.223C248.909 112.095 247.386 108.967 245.859 105.839C246.479 105.117 247.09 104.386 247.718 103.672C253.412 97.1694 258.831 90.392 264.877 84.2344C272.952 76.0121 281.334 68.0647 289.93 60.3883C296.416 54.6002 303.436 49.4114 310.242 43.9804C312.065 42.5272 313.961 41.1726 315.899 39.7112C314.487 38.2005 313.518 38.9969 312.603 39.6701C309.15 42.2112 305.616 44.6537 302.307 47.3753C294.795 53.5534 287.246 59.7027 280.008 66.1969C274.635 71.0162 269.59 76.2296 264.656 81.5087C257.73 88.9183 251.043 96.5537 244.254 104.095C242.066 102.317 239.874 100.544 237.686 98.7663C239.25 96.3156 240.834 93.8772 242.369 91.406C243.301 89.9035 243.412 88.3559 242.341 86.8453H242.324Z" fill="#67AF6C"/>
<path d="M349.334 226.034C338.374 226.018 327.418 226.006 316.457 225.989C316.363 225.135 316.268 224.277 316.17 223.424C315.874 222.258 315.579 221.092 315.287 219.926C315.685 219.454 316.42 218.99 316.432 218.506C316.597 212.43 316.654 206.355 316.74 200.279C320.648 199.413 320.747 199.409 320.607 195.518C320.472 191.716 320.106 187.923 319.844 184.126C324.823 184.245 329.803 184.508 334.778 184.442C339.692 184.381 342.163 181.741 341.908 177.184C341.765 174.598 341.522 172.02 341.276 169.442C341.005 166.63 341.847 165.214 344.445 163.901C350.114 161.039 356.177 159.529 362.388 158.502C364.182 164.693 365.077 171.097 364.798 177.447C364.507 184.052 363.488 190.706 362.019 197.164C359.654 207.541 355.077 217.077 349.334 226.039V226.034ZM345.681 210.829C344.712 210.275 343.739 209.721 342.499 209.007C342.922 211.162 344.416 212.636 345.779 212.627C345.747 212.024 345.714 211.425 345.677 210.821C345.71 210.764 345.742 210.706 345.775 210.649L345.681 210.825V210.829Z" fill="#FFDAB9"/>
<path d="M293.154 91.3563C295.773 90.2438 298.543 89.3899 300.978 87.9573C303.888 86.2455 304.656 83.5238 303.424 80.3424C302.316 77.4894 300.904 74.7514 299.664 71.9476C298.039 68.2654 298.293 67.235 301.015 64.3123C306.725 58.1793 313.876 54.062 320.957 49.8379C329.36 54.2015 336.466 60.0759 341.228 68.3393C345.226 75.2727 346.839 82.6536 343.691 90.4737C341.609 95.6419 337.837 99.3159 333.165 102.079C326.388 106.081 319.065 108.199 311.117 107.76C309.898 107.694 308.691 107.489 307.476 107.349C307.837 103.975 307.373 103.08 304.229 101.779C303.063 101.295 301.774 101.056 300.518 100.847C299.356 100.654 298.268 100.646 297.981 102.309C297.883 102.867 296.996 103.281 296.466 103.766C296.208 102.965 295.916 102.169 295.699 101.356C295.132 99.2256 294.598 97.0869 294.048 94.9482C293.749 93.7495 293.449 92.5508 293.149 91.3563H293.154Z" fill="#FFDAB9"/>
<path d="M24.3387 98.6262C28.0497 100.896 31.8263 103.064 35.4387 105.482C36.7934 106.389 37.1546 107.99 36.6744 109.73C35.8575 112.69 35.1596 115.683 34.4617 118.675C33.1769 124.192 35.0734 127.205 40.6686 128.256C45.024 129.073 49.4205 129.685 53.8047 130.342C57.5895 130.912 61.1363 132.049 64.0673 134.615C67.1461 137.312 67.8809 140.026 66.3251 143.819C65.1346 146.721 63.6239 149.496 62.2282 152.312C60.5985 155.608 61.0214 157.406 64.5804 158.658C68.9359 160.194 73.4432 161.425 77.9834 162.304C85.4792 163.757 93.053 164.82 100.59 166.051C101.058 166.129 101.526 166.244 101.981 166.38C105.36 167.402 105.914 168.929 103.886 171.753C102.774 173.301 101.587 174.799 100.438 176.318C98.5784 175.772 96.7147 175.226 94.851 174.68C93.3362 174.163 91.8174 173.642 90.3026 173.124C89.3051 172.718 88.3075 172.312 87.0309 171.79C86.4439 174.381 85.8897 176.819 85.3355 179.257C84.026 178.486 82.5276 177.907 81.4603 176.885C80.352 175.826 79.6952 174.298 78.7674 173.034C75.9924 169.249 72.9054 165.813 68.4392 163.941C65.931 162.891 63.1642 162.365 60.9392 163.896C57.5485 166.232 54.3466 165.941 50.8778 164.528C49.4246 163.937 47.9099 163.506 46.4279 162.981C40.0323 160.715 33.9609 160.953 28.4109 165.288C27.4093 161.331 26.1614 157.419 25.4594 153.412C24.3059 146.869 23.1565 140.288 22.6556 133.671C22.1138 126.475 22.0933 119.213 22.2739 111.992C22.3806 107.739 23.3083 103.507 23.8913 99.2707C23.9241 99.0367 24.1868 98.8396 24.3387 98.6221V98.6262ZM33.6613 157.862C34.6998 158.001 35.7384 158.277 36.7729 158.252C39.4371 158.19 42.093 158.001 44.7531 157.862C44.8885 157.722 45.024 157.587 45.1595 157.447C45.2949 156.877 45.5412 156.31 45.5495 155.74C45.5905 153.092 45.4797 150.436 45.5987 147.792C45.689 145.777 44.6915 145.128 42.9058 145.132C40.3237 145.14 37.7417 145.079 35.1637 145.169C34.5192 145.194 33.8911 145.678 33.2549 145.949C33.1153 147.259 32.8444 148.568 32.869 149.873C32.91 152.398 33.1153 154.923 33.2549 157.447C33.3903 157.583 33.5299 157.722 33.6654 157.858L33.6613 157.862Z" fill="#FFDAB9"/>
<path d="M362.389 158.502C356.174 159.529 350.11 161.039 344.445 163.901C341.843 165.214 341.005 166.63 341.276 169.442C341.523 172.02 341.765 174.602 341.909 177.184C342.163 181.737 339.696 184.376 334.778 184.442C329.803 184.508 324.823 184.245 319.844 184.126C319.294 177.427 318.744 170.723 318.194 164.024C322.151 162.382 326.051 160.58 330.078 159.13C338.846 155.978 347.668 152.969 356.494 149.976C359.416 148.987 362.413 148.219 365.377 147.349C365.385 147.066 365.398 146.787 365.406 146.503C364.659 146.409 363.854 146.081 363.173 146.253C349.683 149.652 336.58 154.188 323.752 159.549C321.835 160.35 319.807 160.883 317.832 161.544C317.726 160.263 317.623 158.979 317.562 158.24C318.346 157.685 318.974 157.419 319.351 156.951C322.139 153.49 324.914 150.013 327.602 146.475C328.235 145.645 328.51 144.545 328.949 143.568C329.318 143.716 329.745 143.79 330.049 144.024C332.492 145.892 335.205 146.454 338.115 145.535C343.674 143.782 349.195 141.922 354.737 140.108C363.181 138.384 370.701 140.243 377.232 145.916C377.388 146.052 377.561 146.163 377.713 146.298C381.305 149.529 381.099 152.415 376.641 154.217C372.372 155.941 367.807 156.922 363.37 158.227C363.045 158.322 362.721 158.412 362.393 158.502H362.389Z" fill="#68B06C"/>
<path d="M115.365 225.682C114.576 225.796 113.788 226.01 113 226.01C101.937 226.03 90.8739 225.989 79.8108 226.043C76.2066 226.059 72.6064 226.305 69.0063 226.445C66.0835 223.723 63.132 221.026 60.2544 218.256C59.7125 217.734 57.9901 215.585 57.6001 214.899C58.5894 214.837 59.499 217.038 60.2544 215.515C60.2544 214.969 59.3183 216.302 59.3183 215.756C59.1828 215.616 61.7115 213.026 61.5761 212.886C61.7813 212.025 61.2354 216.742 60.5498 216.746C59.1048 217.083 58.7026 216.541 56.8553 213.667C56.3996 214.037 56.174 212.603 55.8291 212.886C53.1773 209.725 50.3079 206.716 47.9105 203.375C41.6626 194.672 36.3548 185.415 32.414 175.419C32.1718 174.808 32.1554 174.11 32.0322 173.453C33.5675 173.732 35.1315 173.909 36.634 174.307C40.8416 175.419 45.0329 176.585 49.2118 177.796C51.4696 178.453 52.5574 179.923 52.2742 182.398C52.073 184.159 52.1182 185.945 52.0977 187.722C52.073 190.046 52.9351 191.458 55.1846 191.872C57.1633 192.234 59.2404 192.008 61.2724 192.127C64.5811 192.324 67.9924 192.156 71.1615 192.948C74.4783 193.777 75.3938 196.183 74.5563 199.549C74.2115 200.936 73.76 202.299 73.3536 203.674C72.4135 206.856 73.0498 208.112 76.3297 208.293C81.4282 208.576 86.5471 208.498 91.6579 208.572C93.9526 211.326 96.2474 214.077 98.5421 216.831C97.5815 219.557 98.2383 221.113 100.956 221.819C102.852 222.311 104.847 222.439 106.797 222.726C109.654 223.711 112.507 224.696 115.365 225.682ZM56.2437 210.83C56.2643 210.879 56.2807 210.932 56.3094 210.969C56.33 210.994 56.3792 210.99 56.4162 210.998L56.2437 210.825C56.1083 210.69 55.9728 210.55 55.8332 210.415C55.8702 208.814 57.1222 208.424 58.2922 207.952C59.4539 207.131 59.4539 206.31 58.2922 205.489C57.6066 205.489 56.9252 205.489 56.2396 205.489C56.0139 206.113 55.7676 206.733 55.5582 207.361C55.275 208.223 55.0163 209.093 54.7085 210.086C54.692 210.082 55.2585 210.251 55.825 210.419C55.9605 210.554 56.1001 210.694 56.2355 210.83H56.2437Z" fill="#FFDAB9"/>
<path d="M91.6576 208.568C86.5468 208.494 81.4278 208.572 76.3293 208.289C73.0494 208.108 72.4172 206.848 73.3532 203.67C73.7596 202.295 74.2111 200.932 74.556 199.545C75.3934 196.179 74.478 193.773 71.1611 192.944C67.992 192.152 64.5807 192.32 61.2721 192.123C59.2442 192.004 57.1629 192.23 55.1843 191.868C52.9347 191.458 52.0727 190.042 52.0973 187.718C52.1178 185.941 52.0727 184.151 52.2738 182.394C52.5571 179.919 51.4692 178.449 49.2115 177.792C45.0325 176.581 40.8372 175.411 36.6336 174.303C35.1271 173.905 33.5671 173.728 32.0319 173.449L32.0401 173.461C31.8923 173.367 31.7445 173.273 31.5967 173.174C30.2749 172.669 28.8751 172.308 27.6436 171.631C25.041 170.198 24.9301 168.346 27.1879 166.343C27.5902 165.986 28.0048 165.645 28.4153 165.292C33.9653 160.957 40.0367 160.723 46.4323 162.985C47.9143 163.511 49.429 163.942 50.8822 164.533C54.351 165.945 57.5529 166.241 60.9437 163.901C63.1645 162.37 65.9354 162.895 68.4436 163.946C72.9098 165.814 75.9968 169.254 78.7718 173.039C79.6996 174.303 80.3523 175.83 81.4647 176.889C82.5362 177.911 84.0304 178.49 85.3399 179.262C85.2168 181.023 85.0936 182.784 84.9663 184.549C82.1503 183.203 79.3178 181.885 76.5141 180.502C64.1333 174.397 51.1572 169.915 37.8528 166.339C37.2083 166.167 36.4776 166.319 35.788 166.319C35.7551 166.565 35.7182 166.811 35.6853 167.057C52.9101 171.409 69.244 178.026 84.9622 186.191C86.0706 191.195 86.9983 196.248 88.3571 201.183C89.0673 203.752 90.5328 206.113 91.6576 208.572V208.568Z" fill="#68B06C"/>
<path d="M354.733 140.104C349.195 141.918 343.67 143.778 338.112 145.531C335.201 146.45 332.488 145.888 330.045 144.02C329.742 143.786 329.315 143.712 328.945 143.565C328.317 142.448 327.689 141.336 327.065 140.219C325.985 138.285 324.906 136.356 323.826 134.423C325.415 133.035 326.811 131.262 328.637 130.342C332.939 128.183 337.447 126.438 341.872 124.525C344.282 126.984 346.864 129.304 349.052 131.947C351.158 134.492 352.857 137.37 354.733 140.104Z" fill="#FFDAB9"/>
<path d="M341.872 124.525C337.446 126.438 332.939 128.187 328.637 130.342C326.81 131.257 325.419 133.035 323.83 134.422C322.344 132.526 320.854 130.625 319.368 128.728C325.521 124.463 331.671 120.202 337.824 115.937C337.742 115.72 337.656 115.502 337.574 115.289C336.987 115.444 336.322 115.473 335.825 115.773C333.904 116.931 331.999 118.125 330.148 119.389C326.227 122.074 322.344 124.812 318.444 127.526C316.326 124.726 313.838 122.374 310.562 120.962C310.218 120.814 309.967 120.444 309.676 120.178C312.582 120.001 315.501 119.919 318.399 119.628C321.149 119.352 323.953 119.065 326.067 116.914C326.58 116.59 327.126 116.307 327.602 115.937C332.648 111.984 341.412 111.688 346.642 115.313C349.101 117.017 349.335 119.336 347.019 121.22C345.447 122.497 343.6 123.437 341.88 124.529L341.872 124.525Z" fill="#78C27B"/>
<path d="M307.065 108.548C308.969 109.944 307.323 110.839 306.593 111.861C305.221 111.758 305.012 112.764 305.086 113.704C305.234 115.556 305.562 117.391 305.817 119.23C305.673 119.48 305.529 119.73 305.386 119.981C304.844 120.494 304.314 121.024 303.752 121.516C301.855 123.183 300.575 122.969 299.38 120.777C299.121 120.305 298.945 119.784 298.731 119.283C298.74 118.166 298.982 116.984 298.694 115.946C298.255 114.332 297.327 112.85 296.851 111.241C296.519 110.125 296.593 108.885 296.486 107.699C296.482 107.526 296.478 107.354 296.474 107.177C297.098 105.814 297.717 104.456 298.259 103.265C300.706 104.456 302.804 105.482 305.098 106.598C305.041 107.51 304.967 108.667 304.889 109.891C305.722 109.373 306.391 108.959 307.056 108.54L307.065 108.548Z" fill="#F08665"/>
<path d="M305.821 119.234C305.566 117.391 305.238 115.556 305.09 113.708C305.016 112.768 305.226 111.763 306.597 111.865C311.962 113.101 317.34 114.304 322.692 115.597C323.854 115.876 324.938 116.471 326.059 116.918C323.949 119.07 321.145 119.357 318.395 119.632C315.496 119.919 312.582 120.005 309.671 120.182C308.386 119.866 307.106 119.554 305.821 119.238V119.234Z" fill="#FFDAB9"/>
<path d="M294.369 42.4982C291.733 44.6287 289.164 46.8495 286.438 48.8651C284.234 50.4989 281.688 50.5276 279.016 50.0761C276.91 49.7231 274.726 49.8298 272.575 49.7354C275.276 45.1213 279.546 42.9867 284.64 42.5351C287.858 42.2478 291.122 42.4941 294.365 42.5023L294.369 42.4982Z" fill="#FFDAB9"/>
<path d="M350.648 99.7262C350.636 102.374 348.546 104.517 345.993 104.496C343.267 104.476 341.157 102.407 341.137 99.7385C341.116 96.9758 343.239 94.8207 346.018 94.7796C348.226 94.7468 351.112 97.1975 350.648 99.7221V99.7262Z" fill="#FFDAB9"/>
<path d="M307.065 108.548C306.396 108.963 305.731 109.378 304.898 109.899C304.976 108.676 305.05 107.518 305.107 106.607C302.817 105.49 300.715 104.464 298.268 103.273C297.726 104.46 297.102 105.823 296.478 107.185C296.474 106.044 296.466 104.903 296.462 103.766C296.991 103.286 297.878 102.867 297.977 102.309C298.264 100.642 299.352 100.654 300.514 100.847C301.77 101.057 303.059 101.295 304.225 101.779C307.369 103.08 307.833 103.975 307.472 107.35C307.336 107.752 307.197 108.154 307.061 108.557L307.065 108.548Z" fill="#311C16"/>
<path d="M65.3115 25.2655C65.41 25.1136 65.5045 24.9617 65.603 24.8139C66.0422 24.3993 66.4773 23.9847 66.9166 23.5701L66.9002 23.5865C67.7294 23.5865 68.5586 23.5865 69.3878 23.5906C69.5274 23.7302 69.667 23.8697 69.8024 24.0052L69.7942 23.9929C69.9338 24.2679 70.0734 24.5471 70.2088 24.8221L72.865 24.4252C72.7829 25.8332 73.8666 27.545 73.686 28.9407C73.2755 32.0605 69.0348 35.2612 68.5668 38.3728L68.575 38.3646C68.2959 38.3646 68.0208 38.3646 67.7417 38.3646L67.7499 38.3728C67.6103 38.2333 67.4708 38.0937 67.3312 37.9541L67.3394 37.9664C67.0603 36.1028 66.8017 34.235 66.502 32.3713C66.1243 29.9986 65.7138 27.6341 65.3156 25.2613L65.3115 25.2655Z" fill="#FFDAB9"/>
<path d="M65.3105 25.2651C65.7087 27.6337 66.1151 30.0024 66.4968 32.3751C66.7965 34.2388 67.0551 36.1065 67.3343 37.9702C66.7883 35.8479 66.1274 33.7503 65.7292 31.5992C65.3885 29.7478 65.3433 27.8431 65.1709 25.963C65.2161 25.729 65.2653 25.4991 65.3105 25.2651Z" fill="#FFDAB9"/>
<path d="M66.9162 23.5701C66.481 23.9847 66.0418 24.3993 65.6025 24.8139C66.0377 24.3993 66.4769 23.9847 66.9162 23.5701Z" fill="#EAA5AE"/>
<path d="M36.1246 63.423C36.3463 63.6118 35.7058 64.1564 35.9316 64.3453C35.8824 64.4274 35.829 64.5054 35.7797 64.5875C35.5047 64.4684 34.9627 64.9788 34.6877 64.8597C34.6508 64.7284 35.4923 63.5584 35.5087 63.423L35.9192 63.0124C36.0424 62.996 35.1434 63.8075 35.2666 63.7788L36.1246 63.423Z" fill="#FFDAB9"/>
<path d="M31.5967 173.17C31.7445 173.264 31.8922 173.359 32.04 173.457C31.8922 173.363 31.7445 173.268 31.5967 173.17Z" fill="#F8C1CA"/>
<path d="M105.951 142.013C107.65 141.988 109.346 141.963 111.045 141.943C111.719 142.009 112.396 142.119 113.069 142.123C118.742 142.148 124.415 142.152 130.089 142.165C131.094 142.271 132.1 142.394 133.106 142.485C138.475 142.949 143.845 143.408 149.214 143.868C150.228 144.25 151.225 144.866 152.264 144.956C153.688 145.079 154.025 145.781 154.161 147.008C154.752 152.411 155.507 157.797 155.975 163.207C156.172 165.481 156.615 167.168 159.247 167.324C159.074 168.289 158.902 169.254 158.729 170.218C158.22 171.409 157.711 172.599 157.133 173.946C162.395 175.846 167.272 177.607 172.543 179.508C170.765 175.649 168.122 173.178 165.15 170.998C164.706 169.631 164.259 168.268 163.816 166.902C165.4 165.818 164.608 164.258 164.399 162.989C163.208 155.855 164.559 148.971 166.221 142.103C168.417 142.066 170.614 142.029 172.814 141.992C175.975 141.984 179.14 141.976 182.301 141.972C186.989 142.033 191.681 142.132 196.369 142.144C205.584 142.169 214.8 142.148 224.016 142.132C225.305 142.132 226.594 142.037 227.883 141.988C231.155 142.062 234.43 142.136 237.702 142.21C234.956 151.881 231.118 161.15 226.582 170.079C221.857 179.381 216.586 188.408 209.8 196.421C204.012 203.256 197.908 209.82 190.544 214.98C185.921 218.214 180.938 220.936 176.118 223.888C167.826 221.548 159.977 218.19 152.617 213.707C154.85 210.834 157.079 207.956 159.312 205.082C161.701 206.86 164.095 208.629 166.476 210.415C169.682 212.816 174.041 212.426 176.402 209.508C178.635 206.753 178.035 202.188 175.072 199.762C173.651 198.601 172.079 197.611 170.708 196.4C165.039 191.392 159.362 186.392 153.812 181.257C151.923 179.512 150.482 177.295 148.693 175.432C146.271 172.915 141.862 172.813 139.415 175.075C136.513 177.759 136.205 181.885 138.787 184.767C140.926 187.156 143.184 189.434 145.355 191.799C145.844 192.328 146.176 193.001 146.583 193.609C145.889 193.334 145.187 193.083 144.505 192.78C139.584 190.608 134.662 188.428 129.744 186.253C127.548 185.428 125.355 184.598 123.159 183.773C122.092 183.404 121.025 183.034 119.957 182.665C118.426 180.025 116.866 177.402 115.368 174.742C109.609 164.525 105.512 153.671 102.971 142.226C103.968 142.156 104.962 142.091 105.959 142.021L105.951 142.013ZM128.225 145.953C122.704 145.929 119.243 150.317 120.988 154.927C122.86 159.882 125.31 164.631 127.749 169.348C128.734 171.257 130.569 172.283 132.937 171.52C133.377 171.376 133.91 171.331 134.358 171.433C138.479 172.345 141.213 166.668 139.526 163.047C137.482 158.659 135.483 154.25 133.516 149.829C132.346 147.201 130.183 146.22 128.225 145.953Z" fill="#73B6FF"/>
<path d="M129.74 186.244C134.662 188.42 139.58 190.6 144.502 192.771C145.183 193.071 145.885 193.326 146.579 193.601C149.994 195.234 153.414 196.872 156.829 198.506C155.376 202.886 152.699 206.556 149.473 209.68C139.087 219.729 123.952 222.303 110.898 215.242C99.3996 209.023 93.2093 199.04 93.2749 185.752C93.2914 182.061 94.3012 178.375 94.8554 174.685C96.7191 175.231 98.5786 175.777 100.442 176.322C106.945 178.432 113.451 180.542 119.958 182.652C121.025 183.022 122.092 183.395 123.16 183.765C123.024 184.561 122.77 185.358 122.782 186.15C122.811 188.211 124.096 189.43 126.132 189.475C128.279 189.52 129.527 188.408 129.744 186.244H129.74ZM126.037 196.946C126.197 196.946 126.357 196.942 126.522 196.938C126.44 195.579 126.526 194.184 126.243 192.87C125.717 190.431 123.164 189.422 121.411 191.146C117.433 195.066 113.562 199.114 109.917 203.346C107.963 205.612 108.517 208.079 111.083 209.545C113.542 210.948 116.14 212.217 118.829 213.071C122.704 214.302 125.914 212.283 126.009 208.781C126.115 204.836 126.033 200.887 126.033 196.942L126.037 196.946ZM97.5934 187.484C98.123 189.422 98.7223 191.782 99.4161 194.118C100.582 198.038 104.137 198.44 106.9 196.831C110.849 194.537 114.872 192.373 118.894 190.206C120.323 189.434 121.316 188.531 121.128 186.708C120.926 184.816 119.588 184.253 118.086 183.888C113.332 182.739 108.574 181.585 103.8 180.526C101.23 179.955 98.788 181.15 98.2584 183.186C97.9383 184.426 97.8562 185.731 97.5975 187.488L97.5934 187.484ZM137.494 211.589C138.016 211.404 138.742 211.207 139.416 210.891C142.482 209.454 145.011 207.43 147.199 204.762C149.949 201.404 148.258 198.958 145.869 197.398C141.76 194.721 137.441 192.365 133.287 189.758C131.99 188.945 130.684 188.72 129.789 189.808C129.067 190.69 128.664 192.09 128.677 193.256C128.689 194.495 129.366 195.727 129.744 196.967C130.852 200.616 131.92 204.278 133.077 207.915C133.726 209.951 135.668 211.56 137.499 211.589H137.494Z" fill="#FDE29A"/>
<path d="M130.092 142.164C124.419 142.152 118.746 142.148 113.069 142.123C112.391 142.123 111.718 142.004 111.045 141.943C103.96 134.537 98.1511 126.278 94.1405 116.803C94.0625 116.623 93.8901 116.483 93.7628 116.323C92.7612 113.01 91.6446 109.73 90.7826 106.381C88.9763 99.3323 88.886 92.284 91.2587 85.3136C92.0346 84.1478 92.8104 82.9819 93.5863 81.812C93.8654 84.3653 93.9558 86.9597 94.4566 89.4679C95.6265 95.2971 98.7792 100.137 102.58 104.562C104.678 107.005 104.945 107.124 107.034 105.383C107.318 105.145 107.761 105.1 108.098 104.977C109.285 106.378 109.242 108.099 107.966 110.141C110.532 112.078 113.118 114.032 115.704 115.986C115.704 116.122 115.7 116.257 115.696 116.397C115.634 116.606 115.577 116.812 115.515 117.021C115.31 120.633 115.109 124.246 114.896 127.854C114.793 129.558 115.528 130.407 117.281 130.371C119.218 130.334 121.156 130.362 123.085 130.362C122.777 132.435 122.387 134.032 122.334 135.646C122.219 138.999 123.652 140.662 126.944 141.36C128.003 141.585 129.042 141.893 130.092 142.164Z" fill="#EA753E"/>
<path d="M105.952 142.012C104.954 142.082 103.961 142.148 102.963 142.218C100.225 139.673 97.5981 137.004 94.7328 134.615C89.4045 130.174 84.072 125.724 78.5056 121.598C70.7389 115.847 62.9229 110.129 54.8113 104.882C46.6957 99.6321 38.2475 94.8784 29.8363 90.0961C25.5136 87.6371 20.9488 85.601 16.499 83.3679C15.912 83.0723 15.3496 82.7234 14.7051 82.3581C15.3414 80.95 16.2075 80.9541 17.2584 81.4919C24.2411 85.0592 31.4167 88.2898 38.1613 92.2594C48.1406 98.1337 58.0009 104.25 67.5533 110.79C75.4556 116.2 82.9103 122.275 90.4184 128.24C95.2624 132.086 99.8641 136.245 104.548 140.292C105.098 140.769 105.488 141.438 105.952 142.012Z" fill="#78C27B"/>
<path d="M227.882 141.979C226.593 142.029 225.305 142.123 224.016 142.127C214.8 142.144 205.584 142.164 196.368 142.139C191.68 142.127 186.988 142.025 182.3 141.967C180.744 140.288 179.143 138.646 177.641 136.914C175.556 134.512 173.495 132.086 171.516 129.599C170.367 128.154 169.394 126.569 168.339 125.046C169.135 121.343 169.854 117.62 170.744 113.938C173.191 103.819 177.054 94.4061 183.749 86.2042C186.36 83.0064 189.385 80.4202 192.936 78.7987C195.137 77.7971 198.195 77.912 200.67 78.4457C206.618 79.7306 211.717 82.6657 215.128 87.9694C215.305 88.2444 215.391 88.581 215.518 88.8889C214.02 90.9332 212.308 92.8585 211.076 95.0547C209.34 98.1458 207.94 101.426 206.442 104.648C205.588 106.483 204.824 108.359 204.266 109.644C208.396 104.057 212.833 98.0596 217.267 92.058C219.525 92.4316 221.774 92.838 224.04 93.1499C224.726 93.2444 225.448 93.0719 226.154 93.0186C226.483 93.3552 226.754 93.8232 227.152 94.0079C230.641 95.6212 234.159 97.1893 237.665 98.7656C239.853 100.543 242.045 102.316 244.233 104.094C244.771 104.677 245.308 105.26 245.842 105.843C247.365 108.971 248.888 112.099 250.415 115.227C249.738 117.32 249.163 119.455 248.346 121.495C247.833 122.78 246.934 123.905 246.253 125.128C245.789 125.953 245.579 126.996 244.951 127.645C242.168 130.53 239.43 133.486 236.376 136.068C233.753 138.285 230.727 140.029 227.878 141.983L227.882 141.979ZM176.179 122.218C176.299 122.251 176.418 122.283 176.533 122.316C176.533 122.657 176.524 123.002 176.533 123.343C176.586 125.05 177.674 125.949 179.152 126.294C180.572 126.627 181.409 125.707 181.927 124.475C182.444 123.24 183.064 122.037 183.466 120.765C185.268 115.075 186.68 109.246 189.825 104.057C190.354 103.187 190.65 102.119 190.83 101.101C191.093 99.6154 190.834 98.1786 189.246 97.5259C187.132 96.6597 185.494 97.14 184.611 99.0981C182.624 103.503 180.654 107.928 178.967 112.456C177.789 115.617 177.095 118.962 176.184 122.222L176.179 122.218ZM189.127 95.6212C189.8 95.7525 190.629 95.6704 191.044 96.0481C192.144 97.0456 192.723 96.553 193.564 95.6827C195.826 93.3388 198.277 91.1754 200.485 88.7863C201.384 87.8175 202.127 86.4464 200.843 85.1287C199.677 83.93 198.392 83.421 196.881 84.6443C195.153 86.0441 193.252 87.2674 191.664 88.8109C189.837 90.5884 187.85 92.4726 189.123 95.6212H189.127Z" fill="#E95865"/>
<path d="M115.705 115.987C113.119 114.033 110.533 112.079 107.967 110.141C109.242 108.099 109.286 106.378 108.098 104.977C107.766 105.1 107.322 105.145 107.035 105.383C104.946 107.124 104.679 107.009 102.581 104.562C98.7798 100.137 95.6271 95.293 94.4572 89.468C93.9523 86.9598 93.8661 84.3654 93.5869 81.8121C94.4367 80.7858 95.2823 79.7555 96.132 78.7292C96.5384 78.4459 96.9448 78.1627 97.3553 77.8794C100.093 77.0133 102.836 76.1471 105.574 75.2769C111.785 75.3015 116.969 78.1504 122.059 81.2702C123.036 81.8695 124.091 82.3334 125.11 82.8589C125.282 84.6774 125.29 86.4426 123.529 87.6248C121.501 88.9261 119.354 90.0919 117.519 91.6272C117.018 92.0459 117.45 93.5812 117.45 94.6075C118.295 94.4966 119.186 94.5131 119.974 94.238C120.721 93.9794 121.362 93.417 122.047 92.9901C121.817 94.5131 121.661 96.0484 121.333 97.5508C121.066 98.7905 120.594 99.9851 120.216 101.196C119.781 102.116 119.211 102.998 118.94 103.963C117.811 107.957 116.768 111.976 115.697 115.987H115.705Z" fill="#F69153"/>
<path d="M168.34 125.046C169.391 126.569 170.364 128.154 171.517 129.599C173.496 132.087 175.556 134.517 177.642 136.914C179.144 138.642 180.745 140.284 182.301 141.967C179.14 141.976 175.975 141.98 172.814 141.988C170.729 141.245 168.644 140.502 166.558 139.759C166.603 139.147 166.64 138.54 166.694 137.928C166.997 134.615 167.01 134.595 163.956 133.051C160.984 131.549 157.991 130.092 155.007 128.618C152.096 127.189 149.112 125.888 146.3 124.279C144.588 123.298 143.147 121.84 141.583 120.601L141.238 119.739C141.887 119.431 142.535 119.123 143.18 118.815C144.042 119.435 144.087 121.668 145.721 120.609C148.053 119.094 150.117 117.165 152.293 115.412C154.075 114.628 155.86 113.84 157.642 113.056C161.205 117.054 164.772 121.048 168.336 125.046H168.34Z" fill="#F69153"/>
<path d="M142.859 98.5156C145.396 99.1273 147.982 99.5911 150.457 100.388C152.764 101.126 154.271 100.211 155.855 98.7209C158.158 96.5575 160.638 94.5789 163.039 92.5264C163.696 92.982 164.353 93.4377 165.014 93.8933C163.819 98.7496 161.996 103.302 158.93 107.329C157.916 108.659 156.828 109.583 155.116 109.603C150.966 108.905 146.816 108.208 142.539 107.489C142.181 110.749 141.878 113.569 141.57 116.385C140.876 116.709 140.178 117.038 139.484 117.362C138.655 116.91 141.094 115.798 139.123 115.58C138.446 112.415 137.769 109.254 137.091 106.089C136.176 102.974 135.26 99.8539 134.341 96.7381C137.177 97.3334 140.014 97.9245 142.851 98.5197L142.859 98.5156Z" fill="#EFF6FF"/>
<path d="M142.86 98.5156C140.023 97.9204 137.186 97.3293 134.346 96.734C134.313 95.5148 133.787 93.5609 134.325 93.2037C136.677 91.6438 136.858 89.2711 137.273 86.9805C137.659 84.8458 137.244 82.8098 135.824 81.0446C133.382 83.067 132.598 84.3834 133.471 84.9936C132.749 85.3385 131.985 85.7654 131.173 86.0692C130.512 86.3155 129.801 86.4304 129.104 86.5741C128.521 86.6931 127.93 86.7711 127.343 86.8655C127.54 87.4813 127.642 88.1504 127.962 88.6964C128.32 89.3121 129.108 89.7432 129.301 90.3794C130.146 93.1586 129.091 96.0813 126.809 97.7028C124.617 98.8687 122.421 100.034 120.229 101.196C120.61 99.9811 121.078 98.7866 121.345 97.551C121.669 96.0485 121.829 94.5132 122.059 92.9902C122.552 91.2005 123.045 89.4148 123.537 87.625C125.294 86.4427 125.29 84.6775 125.118 82.859C126.247 81.7917 127.355 80.6998 128.517 79.6694C128.857 79.3656 129.362 79.0372 129.773 79.0619C132.199 79.2014 134.744 79.0619 136.989 79.8049C138.04 80.1538 138.718 82.1858 139.194 83.5815C139.744 85.1948 139.974 86.9353 140.191 88.643C140.442 90.5847 140.688 92.551 140.631 94.4968C140.573 96.3892 141.316 97.6248 142.868 98.5197L142.86 98.5156Z" fill="#311C16"/>
<path d="M237.67 98.7662C234.164 97.1857 230.646 95.6217 227.157 94.0084C226.759 93.8237 226.488 93.3557 226.159 93.0191C226.717 91.7589 227.276 90.4986 227.83 89.2384C228.331 87.5923 228.832 85.942 229.336 84.2918C229.378 84.025 229.419 83.7541 229.456 83.4872C229.599 82.58 229.603 81.6235 229.919 80.782C230.26 79.883 230.732 78.6843 231.459 78.3888C232.112 78.126 233.355 78.7131 234.037 79.2878C234.833 79.9569 235.244 81.0529 235.921 81.8863C236.598 82.7237 237.399 83.4626 238.146 84.2426C238.536 84.3944 238.93 84.5463 239.32 84.6982C239.591 84.8378 239.866 84.9815 240.141 85.121C240.868 85.6957 241.598 86.2663 242.325 86.841C243.396 88.3558 243.285 89.8993 242.354 91.4058C240.818 93.8771 239.234 96.3155 237.67 98.7662Z" fill="#9B3B43"/>
<path d="M155.121 109.603C156.833 109.579 157.921 108.659 158.935 107.329C162.001 103.302 163.824 98.7497 165.018 93.8934C165.971 90.7982 166.106 87.4116 168.315 84.7679C170.519 82.7729 172.892 81.2376 176.016 80.9749C178.581 80.7614 178.569 80.5849 180.749 82.4486C179.23 82.7277 177.719 82.9001 176.266 83.2942C171.562 84.5627 169.271 88.0109 168.36 92.51C167.087 98.7907 165.109 104.751 160.942 109.764C159.953 110.95 158.754 111.964 157.65 113.056C155.868 113.84 154.082 114.628 152.301 115.416C149.263 116.553 146.225 117.686 143.188 118.819C142.539 119.127 141.89 119.435 141.246 119.743C140.528 119.049 138.085 119.628 139.493 117.366C140.187 117.042 140.885 116.713 141.578 116.389C145.766 115.014 149.949 113.622 154.148 112.276C155.692 111.783 155.733 110.835 155.125 109.603H155.121Z" fill="#FFA653"/>
<path d="M97.3552 77.8795C96.9488 78.1628 96.5424 78.446 96.1319 78.7293C95.5161 78.1176 94.9866 77.3582 94.2641 76.923C90.1549 74.4518 86.0006 72.0586 81.8587 69.6407C80.4876 67.3747 78.9974 65.1662 77.8029 62.8058C77.376 61.9684 77.6674 60.7656 77.6305 59.727C78.6444 59.7927 79.8513 59.5259 80.6436 59.9815C84.0015 61.9232 87.2363 64.0784 90.5121 66.1555C92.0966 67.2967 93.6812 68.4379 95.2698 69.5791L97.3552 77.8754V77.8795Z" fill="#67AF6C"/>
<path d="M97.3549 77.8794C96.6611 75.1126 95.9632 72.3499 95.2695 69.5831C95.1299 67.5388 94.9863 65.4903 94.8467 63.446C95.3639 62.3418 95.8811 61.2375 96.6283 59.6448C101.004 64.4928 102.893 70.1208 105.573 75.2809C102.835 76.147 100.093 77.0132 97.3549 77.8835V77.8794Z" fill="#78C27B"/>
<path d="M81.863 69.6408C86.0009 72.0587 90.1593 74.4519 94.2684 76.9232C94.9909 77.3583 95.5163 78.1177 96.1362 78.7294C95.2865 79.7597 94.4408 80.786 93.5911 81.8123C92.8152 82.9781 92.0394 84.1439 91.2635 85.3098C88.2504 81.6604 85.2291 78.0151 82.2242 74.3534C81.6249 73.6227 81.0214 72.8797 80.5371 72.071C79.5724 70.47 79.8679 69.9692 81.8671 69.6367L81.863 69.6408Z" fill="#78C27B"/>
<path d="M217.271 92.0543C212.838 98.0518 208.4 104.053 204.271 109.64C204.829 108.355 205.592 106.479 206.446 104.645C207.945 101.426 209.348 98.1421 211.081 95.051C212.312 92.8548 214.024 90.9296 215.522 88.8853C216.105 89.9402 216.688 90.9952 217.271 92.0543Z" fill="#DF474A"/>
<path d="M94.8468 63.442C94.9864 65.4863 95.126 67.5347 95.2696 69.579C93.681 68.4378 92.0965 67.2925 90.5119 66.1554C90.4011 64.2835 90.2656 62.4157 90.1835 60.5397C90.1384 59.497 90.1753 58.4543 90.516 57.3049C92.9134 58.7827 93.5209 61.3648 94.8468 63.442Z" fill="#548F59"/>
<path d="M168.311 84.7679C166.107 87.4075 165.967 90.7982 165.015 93.8934C164.358 93.4378 163.697 92.9821 163.04 92.5264C164.116 89.3204 164.682 85.8434 167.974 83.6719C168.077 84.0044 168.192 84.3861 168.307 84.772L168.311 84.7679Z" fill="#F08665"/>
<path d="M238.145 84.2464C237.398 83.4664 236.602 82.7275 235.92 81.8901C235.243 81.0568 234.828 79.9566 234.036 79.2916C233.355 78.721 232.111 78.1299 231.458 78.3926C230.732 78.6841 230.26 79.8869 229.919 80.7859C229.599 81.6274 229.595 82.5839 229.455 83.4911C229.385 83.3761 229.266 83.2653 229.25 83.1463C228.872 80.1742 229.677 78.0971 231.417 77.5388C232.891 77.0708 234.783 78.2654 236.241 80.6011C236.409 80.8721 236.528 81.1758 236.709 81.5453C237.144 81.3154 237.476 81.1389 237.591 81.0732C237.772 82.1118 237.956 83.1791 238.141 84.2464H238.145Z" fill="#E95865"/>
<path d="M68.5576 38.3807C69.0256 35.2691 69.5305 32.1616 69.941 29.0418C70.1257 27.6501 70.1216 26.2298 70.1996 24.8218C71.8704 26.2873 70.528 28.0607 70.5034 29.6165C70.4624 32.1493 69.7645 34.6739 69.2801 37.1944C69.198 37.6213 68.808 37.9866 68.5576 38.3807Z" fill="#FFDAB9"/>
<path d="M229.337 84.2915C228.836 85.9417 228.335 87.5879 227.83 89.2381C228.331 87.5879 228.832 85.9417 229.337 84.2915Z" fill="#E95865"/>
<path d="M37.1504 65.2704C37.3392 64.7162 38.3819 63.4232 38.7839 62.8882C39.0631 63.4342 39.9131 64.4453 40.2292 65.0652C39.675 65.1021 37.5978 65.2417 37.1504 65.2704Z" fill="#FFDAB9"/>
<path d="M37.5604 65.6807C37.2197 66.1364 37.0801 66.6618 36.7394 67.1175C36.608 66.9369 36.0786 66.0653 35.9473 65.8847C36.4152 65.6096 36.8832 65.3346 37.3553 65.0596L37.5604 65.6807Z" fill="#FFDAB9"/>
<path d="M240.136 85.125C239.861 84.9854 239.59 84.8417 239.315 84.7021C239.59 84.8458 239.861 84.9854 240.136 85.125Z" fill="#E95865"/>
<path d="M70.2037 24.826C70.0641 24.551 69.9245 24.2719 69.7891 23.9968C69.9286 24.2719 70.0682 24.551 70.2037 24.826Z" fill="#EAA5AE"/>
<path d="M69.7984 24.0088C69.6588 23.8693 69.5193 23.7297 69.3838 23.5942C69.5234 23.7338 69.6629 23.8734 69.7984 24.0088Z" fill="#EAA5AE"/>
<path d="M176.115 223.88C180.934 220.928 185.917 218.206 190.54 214.972C197.904 209.812 204.008 203.252 209.797 196.413C216.582 188.4 221.853 179.373 226.578 170.071C231.114 161.138 234.952 151.873 237.698 142.202C238.429 142.12 239.16 141.976 239.895 141.972C245.945 141.914 252 141.881 258.051 141.84C258.774 141.951 259.488 142.144 260.21 142.156C263.38 142.21 266.549 142.206 269.714 142.226C271.545 143.848 273.429 145.42 275.202 147.103C279.241 150.933 279.328 150.954 283.457 147.234C285.588 145.313 287.747 143.425 290.149 141.294C289.307 151.011 288.511 160.227 287.714 169.443C286.376 171.762 285.038 174.077 283.7 176.397C281.454 173.802 279.291 171.126 276.918 168.65C275.998 167.69 274.599 167.185 273.421 166.475L273.433 166.487C273.433 166.339 273.433 166.187 273.429 166.04C270.929 164.829 268.499 163.421 265.904 162.472C264.188 161.844 263.162 161.052 262.694 159.238C261.729 155.481 259.357 152.546 256.064 150.744C250.416 147.649 244.583 148.027 239.529 151.951C235.042 155.436 233.183 160.309 234.287 166.142C234.468 167.107 233.992 168.388 233.421 169.262C231.758 171.795 229.829 174.155 228.13 176.663C226.956 178.396 225.72 180.165 224.973 182.094C222.867 187.538 222.35 193.215 223.372 198.966C224.316 204.274 226.323 209.147 229.882 213.289C230.026 213.432 230.17 213.572 230.318 213.716L230.301 213.703C232.226 215.735 234.152 217.763 236.073 219.795C234.419 220.485 232.764 221.17 231.106 221.86C229.882 222.27 228.659 222.681 227.432 223.087C225.511 223.646 223.589 224.204 221.672 224.762C219.489 225.181 217.301 225.6 215.117 226.018C205.014 226.018 194.912 226.014 184.805 226.01C181.907 225.3 179.005 224.59 176.106 223.884L176.115 223.88Z" fill="#5595E7"/>
<path d="M273.424 166.47C274.602 167.18 276.002 167.685 276.922 168.646C279.294 171.121 281.458 173.798 283.703 176.392C284.737 178.802 285.772 181.207 286.806 183.617C286.618 187.894 286.478 192.176 286.211 196.445C286.129 197.783 286.371 198.678 287.804 198.933C286.712 202.217 285.62 205.505 284.528 208.789C281.905 213.329 278.522 217.192 274.278 220.287C272.435 221.281 270.67 222.496 268.724 223.21C265.707 224.318 262.562 225.086 259.475 226.002C256.868 226.002 254.266 226.002 251.659 226.002C246.011 225.07 240.875 222.861 236.076 219.795C234.151 217.763 232.226 215.735 230.305 213.703C230.814 213.859 231.351 213.953 231.824 214.179C238.704 217.479 245.908 218.362 253.33 216.741C262.71 214.688 269.758 209.232 274.569 201.039C279.093 193.329 280.086 184.955 277.669 176.38C276.704 172.952 274.865 169.771 273.424 166.474V166.47Z" fill="#8F6F8F"/>
<path d="M176.114 223.879C179.013 224.59 181.911 225.3 184.813 226.006C167.104 226.002 149.395 225.994 131.686 225.989C134.851 224.774 138.065 223.674 141.152 222.287C142.56 221.655 143.713 220.456 144.978 219.512L144.937 219.479C145.351 219.204 145.766 218.929 146.18 218.654H146.16C146.476 218.522 146.792 218.383 147.108 218.243C148.943 216.728 150.778 215.214 152.613 213.695C159.973 218.182 167.822 221.54 176.114 223.875V223.879Z" fill="#FFDAB9"/>
<path d="M144.982 219.516C143.713 220.456 142.56 221.659 141.156 222.291C138.069 223.678 134.85 224.778 131.69 225.994C127.121 226.006 122.548 226.035 117.979 226.01C117.108 226.006 116.234 225.797 115.364 225.682C112.507 224.696 109.654 223.711 106.797 222.726C104.046 220.76 101.296 218.793 98.5414 216.831C96.2467 214.077 93.9519 211.326 91.6572 208.572C90.5325 206.113 89.067 203.752 88.3568 201.183C86.998 196.248 86.0703 191.195 84.9619 186.191C84.9619 185.645 84.9619 185.099 84.9619 184.553C85.0851 182.792 85.2123 181.031 85.3355 179.266C85.8897 176.828 86.4438 174.389 87.0309 171.799C88.3075 172.32 89.305 172.727 90.3026 173.133C90.1507 173.794 90.0481 174.467 89.8469 175.112C87.9914 180.949 87.7 186.918 88.8248 192.874C90.4134 201.289 94.383 208.453 100.84 214.183C111.246 223.428 123.229 226.01 136.57 222.554C139.444 221.811 142.182 220.546 144.982 219.52V219.516Z" fill="#FBBA4E"/>
<path d="M274.279 220.292C278.524 217.196 281.906 213.334 284.53 208.793C286.126 208.835 287.723 208.876 289.32 208.917C289.48 211.802 289.702 214.688 289.776 217.578C289.8 218.617 290.096 219.224 291.122 219.417C290.81 219.943 290.498 220.472 290.186 220.998C288.421 221.852 286.611 222.615 284.911 223.584C283.778 224.233 282.805 225.164 281.763 225.969C279.398 225.985 277.03 226.002 274.665 226.018C275.515 224.044 275.158 222.151 274.283 220.292H274.279Z" fill="#FFDAB9"/>
<path d="M281.758 225.969C282.8 225.164 283.773 224.228 284.906 223.584C286.606 222.615 288.416 221.851 290.181 220.998C292.706 223.247 295.768 223.514 298.942 223.399C299.118 223.937 299.299 224.47 299.455 224.938C302.135 223.612 304.771 222.303 307.406 220.998C309.918 223.292 313.005 223.518 316.179 223.424C316.273 224.277 316.367 225.135 316.466 225.989C304.898 225.981 293.33 225.973 281.762 225.965L281.758 225.969Z" fill="#FFA653"/>
<path d="M236.076 219.791C240.871 222.857 246.01 225.066 251.659 225.998C241.733 225.994 231.807 225.986 221.881 225.981C221.811 225.575 221.746 225.165 221.676 224.758C223.597 224.2 225.518 223.642 227.435 223.083C227.788 223.74 228.141 224.401 228.49 225.058C229.048 224.635 229.713 224.298 230.14 223.773C230.58 223.231 230.793 222.5 231.105 221.856C232.759 221.166 234.414 220.481 236.072 219.791H236.076Z" fill="#68B06C"/>
<path d="M274.278 220.292C275.148 222.151 275.51 224.044 274.66 226.018C269.598 226.014 264.537 226.01 259.479 226.006C262.571 225.094 265.711 224.327 268.728 223.214C270.674 222.5 272.435 221.285 274.282 220.292H274.278Z" fill="#68B06C"/>
<path d="M221.681 224.758C221.746 225.164 221.816 225.575 221.886 225.981C219.632 225.993 217.378 226.002 215.129 226.014C217.313 225.595 219.501 225.177 221.685 224.758H221.681Z" fill="#F7C1CA"/>
<path d="M293.153 91.3564C293.452 92.5551 293.752 93.7537 294.052 94.9524C293.744 95.6872 293.329 96.3933 293.14 97.1568C291.228 104.899 289.191 112.608 285.32 119.657C282.467 124.854 278.904 129.431 273.33 132.021C272.628 131.393 271.926 130.769 271.224 130.145C270.493 128.072 269.762 125.995 269.032 123.918C265.501 121.204 261.515 120.925 257.324 121.717C256.782 120.806 256.24 119.895 255.694 118.983C259.106 113.992 262.574 109.041 265.887 103.988C266.959 102.354 267.517 100.392 268.477 98.6798C270.904 94.3572 273.325 90.0181 275.957 85.8187C277.418 83.487 279.836 82.4936 283.083 82.6824C282.644 80.634 282.209 78.8935 281.93 77.1283C281.819 76.414 281.806 75.2277 282.192 75.0019C282.829 74.6242 283.925 74.5832 284.647 74.8623C286.375 75.5356 287.225 77.0093 287.373 78.8483C287.422 79.46 287.476 80.0922 287.381 80.6915C286.987 83.1422 287.898 84.9156 289.709 86.6027C291.113 87.9123 292.02 89.7513 293.145 91.3564H293.153ZM272.599 95.1576C272.595 98.3965 275.173 101.196 278.157 101.192C281.458 101.188 284.114 98.5115 284.089 95.2028C284.068 91.8941 281.384 89.2546 278.083 89.2915C275.05 89.3244 272.607 91.9352 272.599 95.1535V95.1576ZM289.487 95.8719C290.008 95.2151 290.628 94.6979 290.538 94.4926C290.345 94.0493 289.815 93.5649 289.364 93.491C289.052 93.4417 288.301 94.1109 288.342 94.3695C288.411 94.821 288.937 95.1987 289.487 95.8719ZM273.018 113.84C272.361 113.339 271.827 112.727 271.626 112.822C271.187 113.027 270.711 113.569 270.649 114.024C270.604 114.336 271.302 115.079 271.548 115.03C272 114.94 272.365 114.406 273.022 113.84H273.018ZM282.874 104.488C282.233 103.947 281.749 103.306 281.523 103.388C281.08 103.552 280.571 104.074 280.489 104.521C280.431 104.833 281.068 105.597 281.339 105.572C281.786 105.527 282.184 105.01 282.87 104.493L282.874 104.488Z" fill="#548F59"/>
<path d="M255.695 118.979C256.237 119.891 256.778 120.802 257.32 121.713C256.388 122.116 255.374 122.403 254.553 122.965C253.975 123.363 253.26 124.16 253.281 124.751C253.449 129.143 253.79 133.528 254.094 138.166H259.418C258.962 139.39 258.507 140.617 258.051 141.84C252 141.881 245.945 141.914 239.894 141.972C239.164 141.98 238.433 142.123 237.698 142.201C234.426 142.128 231.151 142.054 227.879 141.98C230.728 140.026 233.753 138.281 236.376 136.064C239.43 133.482 242.169 130.527 244.952 127.641C245.58 126.992 245.789 125.95 246.253 125.124C246.935 123.901 247.833 122.776 248.347 121.492C249.164 119.451 249.738 117.317 250.416 115.223C252.173 116.475 253.934 117.727 255.691 118.979H255.695Z" fill="#DF474A"/>
<path d="M245.846 105.843C245.309 105.26 244.771 104.677 244.237 104.094C251.027 96.5532 257.714 88.9179 264.639 81.5083C269.574 76.2292 274.619 71.0199 279.992 66.1965C287.229 59.7023 294.779 53.5571 302.291 47.3749C305.599 44.6532 309.134 42.2107 312.586 39.6697C313.502 38.9965 314.475 38.196 315.883 39.7108C313.945 41.1681 312.044 42.5268 310.226 43.98C303.424 49.411 296.4 54.5997 289.914 60.3879C281.318 68.0643 272.936 76.0116 264.861 84.234C258.814 90.3916 253.4 97.169 247.702 103.671C247.074 104.386 246.462 105.116 245.842 105.839L245.846 105.843Z" fill="#78C27B"/>
<path d="M305.821 119.234C307.102 119.546 308.387 119.862 309.672 120.178C309.967 120.445 310.214 120.814 310.559 120.962C313.838 122.374 316.322 124.726 318.444 127.526C318.752 127.928 319.064 128.326 319.372 128.729C320.858 130.625 322.348 132.526 323.834 134.422C324.914 136.356 325.989 138.289 327.069 140.219C327.693 141.335 328.321 142.452 328.949 143.564C328.51 144.541 328.235 145.641 327.603 146.471C324.918 150.009 322.139 153.486 319.352 156.947C318.974 157.415 318.346 157.681 317.562 158.236C317.623 158.979 317.726 160.259 317.833 161.54C317.956 162.365 318.075 163.194 318.198 164.02C318.748 170.719 319.298 177.423 319.848 184.122C320.111 187.919 320.476 191.712 320.612 195.513C320.751 199.409 320.657 199.409 316.745 200.275C313.1 200.275 309.454 200.275 305.846 200.275C305.686 199.725 305.563 199.475 305.542 199.212C304.955 192.078 304.245 184.955 303.843 177.808C303.366 169.368 303.157 160.912 302.837 152.464C302.866 151.959 302.894 151.454 302.923 150.953C302.919 149.516 302.915 148.084 302.907 146.647C303.063 142.312 303.219 137.973 303.375 133.638C303.584 132.136 303.781 130.629 304.003 129.127C304.458 126.077 304.926 123.027 305.39 119.981C305.534 119.73 305.678 119.48 305.821 119.229V119.234ZM318.19 143.531C318.268 143.4 318.342 143.269 318.42 143.137C317.028 140.288 315.632 137.444 314.241 134.595C313.884 134.701 313.531 134.808 313.173 134.911C313.485 138.314 313.797 141.713 314.109 145.116C314.167 146.376 314.224 147.632 314.282 148.892C314.471 148.913 314.659 148.934 314.852 148.954C315.981 147.14 317.106 145.329 318.235 143.515L318.194 143.527L318.19 143.531ZM315.706 158.367C316.897 155.222 313.288 154.64 312.697 152.156C310.46 153.905 308.526 155.411 306.429 157.053C309.475 157.484 312.43 157.907 315.706 158.371V158.367Z" fill="#0C2C7E"/>
<path d="M302.832 152.472C303.157 160.92 303.362 169.377 303.838 177.816C304.24 184.959 304.955 192.086 305.538 199.22C305.558 199.483 305.681 199.733 305.841 200.283C309.45 200.283 313.095 200.283 316.74 200.283C316.654 206.359 316.597 212.438 316.432 218.514C316.42 218.998 315.685 219.462 315.287 219.934C312.845 219.926 310.406 219.914 307.964 219.905C306.408 219.63 305.862 218.752 305.747 217.135C305.546 214.327 304.996 211.539 304.593 208.748C303.785 202.438 302.972 196.133 302.163 189.824C301.613 192.279 301.293 194.696 301.084 197.122C300.747 201.047 300.48 204.98 300.185 208.908C299.877 212.016 299.622 215.127 299.212 218.218C299.13 218.842 298.473 219.388 298.079 219.971L291.121 219.417C290.094 219.224 289.799 218.621 289.774 217.578C289.7 214.688 289.483 211.802 289.319 208.916C289.216 205.694 289.113 202.475 289.011 199.253H292.66C292.705 198.83 292.755 198.498 292.779 198.165C293.42 189.393 294.126 180.62 294.667 171.84C295.094 164.898 295.312 157.944 295.624 150.994C296.154 151.191 296.683 151.388 297.213 151.585C297.886 151.877 298.559 152.168 299.236 152.46C300.435 152.46 301.634 152.468 302.837 152.472H302.832Z" fill="#2254B5"/>
<path d="M307.968 219.902C310.41 219.91 312.849 219.922 315.291 219.931C315.587 221.096 315.882 222.262 316.174 223.428C313.001 223.518 309.914 223.297 307.401 221.002C307.59 220.637 307.779 220.271 307.968 219.906V219.902Z" fill="#F08665"/>
<path d="M345.677 210.825C345.71 211.429 345.743 212.028 345.78 212.631C344.413 212.64 342.919 211.166 342.5 209.011C343.744 209.721 344.713 210.275 345.681 210.833H345.677V210.825Z" fill="#FFDAB9"/>
<path d="M345.682 210.829L345.776 210.653C345.743 210.71 345.711 210.768 345.678 210.825L345.682 210.829Z" fill="#EAA5AE"/>
<path d="M273.326 132.017C278.901 129.426 282.464 124.845 285.317 119.652C289.188 112.604 291.224 104.895 293.137 97.1527C293.326 96.3891 293.741 95.683 294.048 94.9482C294.594 97.0829 295.132 99.2216 295.699 101.352C295.916 102.165 296.208 102.957 296.466 103.762C296.47 104.903 296.479 106.044 296.483 107.181C296.487 107.354 296.491 107.526 296.495 107.703C296.335 111.701 296.179 115.695 296.019 119.693C292.094 121.114 289.767 124.328 287.333 127.423C284.689 130.785 282.058 134.16 279.242 137.764C277.205 135.785 275.268 133.901 273.326 132.017Z" fill="#537343"/>
<path d="M144.982 219.515C142.182 220.538 139.444 221.802 136.571 222.549C123.229 226.005 111.247 223.423 100.841 214.179C94.3874 208.448 90.4137 201.285 88.8251 192.87C87.7003 186.913 87.9917 180.94 89.8472 175.107C90.0525 174.463 90.1551 173.789 90.3029 173.128C91.8176 173.65 93.3365 174.167 94.8513 174.684C94.2971 178.375 93.2913 182.061 93.2708 185.751C93.2051 199.039 99.3997 209.023 110.894 215.242C123.948 222.303 139.087 219.729 149.469 209.68C152.699 206.556 155.372 202.886 156.825 198.506C158.336 199.154 159.846 199.799 161.476 200.497C160.676 202.184 159.99 203.629 159.304 205.074C157.071 207.947 154.842 210.825 152.609 213.699C150.774 215.213 148.939 216.728 147.104 218.247C146.788 218.386 146.472 218.522 146.16 218.662L146.181 218.657C145.766 218.932 145.351 219.207 144.937 219.483L144.978 219.515H144.982Z" fill="#FED463"/>
<path d="M33.2512 157.451C33.1158 154.927 32.9064 152.402 32.8654 149.878C32.8448 148.572 33.1158 147.263 33.2512 145.953C33.2512 149.783 33.2512 153.617 33.2512 157.447H33.2471L33.2512 157.451Z" fill="#FFDAB9"/>
<path d="M44.7539 157.862C42.0939 158.002 39.4338 158.195 36.7737 158.252C35.7393 158.277 34.7007 158.002 33.6621 157.862L33.6662 157.858C37.3608 157.858 41.0512 157.858 44.7457 157.858L44.7539 157.866V157.862Z" fill="#FFDAB9"/>
<path d="M33.6615 157.862C33.526 157.726 33.3864 157.587 33.251 157.451L33.2551 157.447C33.3905 157.583 33.5301 157.722 33.6656 157.858H33.6615V157.862Z" fill="#EAA5AE"/>
<path d="M45.1597 157.447C45.0243 157.587 44.8888 157.722 44.7533 157.862L44.7451 157.854C44.8847 157.718 45.0202 157.583 45.1597 157.447Z" fill="#EAA5AE"/>
<path d="M318.194 164.024C318.071 163.198 317.952 162.369 317.829 161.544C319.804 160.887 321.832 160.354 323.749 159.549C336.577 154.184 349.684 149.652 363.169 146.253C363.851 146.08 364.655 146.409 365.402 146.503C365.394 146.787 365.382 147.066 365.374 147.349C362.41 148.219 359.413 148.987 356.49 149.976C347.665 152.969 338.843 155.978 330.074 159.13C326.047 160.579 322.148 162.382 318.19 164.024H318.194Z" fill="#78C27B"/>
<path d="M98.5407 216.827C101.291 218.793 104.041 220.76 106.796 222.722C104.846 222.431 102.855 222.307 100.959 221.815C98.2411 221.109 97.5843 219.553 98.5448 216.827H98.5407Z" fill="#68B06C"/>
<path d="M59.5315 213.703C60.217 213.703 60.9025 213.703 61.5881 213.699L61.5799 213.707C60.8943 213.707 60.2129 213.707 59.5273 213.703H59.5315Z" fill="#EAA5AE"/>
<path d="M55.8369 210.415C55.9724 210.55 56.1078 210.69 56.2474 210.825C56.112 210.69 55.9724 210.554 55.8369 210.419L55.841 210.415H55.8369Z" fill="#EAA5AE"/>
<path d="M61.5844 213.699C61.7199 213.839 61.8553 213.974 61.9908 214.114C61.8512 213.978 61.7157 213.843 61.5762 213.707L61.5844 213.699Z" fill="#EAA5AE"/>
<path d="M84.9663 184.549C84.9663 185.095 84.9663 185.641 84.9663 186.187C69.2481 178.026 52.9183 171.409 35.6895 167.053C35.7223 166.807 35.7592 166.561 35.7921 166.314C36.4817 166.314 37.2124 166.162 37.8569 166.335C51.1613 169.91 64.1374 174.393 76.5182 180.497C79.3178 181.876 82.1503 183.198 84.9705 184.545L84.9663 184.549Z" fill="#78C27B"/>
<path d="M319.368 128.728C319.06 128.326 318.752 127.928 318.44 127.526C322.34 124.812 326.224 122.074 330.144 119.39C331.995 118.121 333.9 116.926 335.821 115.773C336.322 115.473 336.983 115.445 337.57 115.289C337.652 115.506 337.738 115.724 337.82 115.937C331.667 120.202 325.518 124.463 319.364 128.728H319.368Z" fill="#68B06C"/>
<path d="M297.214 151.586C296.684 151.389 296.155 151.191 295.625 150.994C295.756 145.223 295.884 139.455 296.023 133.683C296.031 133.281 296.122 132.879 296.191 132.481C296.935 128.088 297.686 123.7 298.429 119.308C298.531 119.299 298.638 119.291 298.741 119.287C298.954 119.784 299.131 120.305 299.389 120.781C300.584 122.969 301.865 123.183 303.761 121.52C304.324 121.028 304.849 120.498 305.395 119.985C304.931 123.035 304.463 126.081 304.007 129.131C303.782 130.633 303.589 132.14 303.379 133.642C302.989 131.023 301.75 128.474 302.948 125.724C303.104 125.363 302.419 124.353 301.889 124.065C301.38 123.786 300.485 123.877 299.927 124.147C299.599 124.303 299.496 125.124 299.467 125.658C299.43 126.455 299.714 127.288 299.57 128.051C299.049 130.789 298.359 133.495 297.821 136.229C296.934 140.744 295.526 145.251 297.448 149.87C297.641 150.329 297.308 151.011 297.218 151.59L297.214 151.586Z" fill="#FFC997"/>
<path d="M298.74 119.287C298.638 119.291 298.531 119.3 298.428 119.308C297.624 119.435 296.823 119.566 296.019 119.698C296.179 115.7 296.335 111.705 296.495 107.707C296.601 108.889 296.528 110.129 296.86 111.246C297.336 112.855 298.264 114.333 298.703 115.95C298.987 116.989 298.744 118.171 298.74 119.287Z" fill="#FFDAB9"/>
<path d="M120.224 101.196C122.416 100.03 124.612 98.8644 126.804 97.7026C128.352 100.519 129.899 103.339 131.447 106.155C132.301 109.993 133.159 113.831 134.012 117.67C133.865 118.043 133.828 118.61 133.557 118.766C131.997 119.66 132.313 120.941 132.707 122.271C132.875 122.842 133.044 123.417 133.2 123.942C133.815 124.069 134.337 124.18 134.862 124.291C134.862 124.821 134.899 125.358 134.85 125.884C134.526 129.385 134.226 132.891 133.836 136.389C133.598 138.544 134.69 139.652 136.393 140.26C136.525 137.238 136.66 134.221 136.792 131.2C140.934 135.424 145.071 139.648 149.213 143.872C143.844 143.412 138.475 142.957 133.105 142.489C132.1 142.402 131.094 142.279 130.088 142.168C129.041 141.897 127.999 141.59 126.94 141.364C123.647 140.666 122.215 139.003 122.33 135.65C122.383 134.04 122.773 132.439 123.081 130.366C121.151 130.366 119.214 130.338 117.276 130.375C115.523 130.407 114.789 129.562 114.891 127.858C115.105 124.246 115.306 120.637 115.511 117.025C115.573 116.816 115.63 116.61 115.692 116.401C115.692 116.266 115.696 116.13 115.7 115.991C116.771 111.98 117.814 107.961 118.943 103.967C119.218 103.002 119.784 102.12 120.22 101.2L120.224 101.196ZM124.83 111.931C124.218 115.436 123.66 118.651 123.085 121.955C126.036 121.504 126.845 116.569 124.83 111.931Z" fill="#EFF6FF"/>
<path d="M159.313 205.074C159.998 203.629 160.684 202.184 161.484 200.497C159.854 199.799 158.344 199.155 156.833 198.506C153.418 196.872 149.998 195.234 146.583 193.6C146.176 192.993 145.844 192.32 145.355 191.79C143.188 189.43 140.926 187.147 138.787 184.758C136.205 181.876 136.517 177.751 139.415 175.066C141.862 172.804 146.275 172.903 148.693 175.423C150.483 177.287 151.928 179.504 153.812 181.248C159.362 186.384 165.039 191.388 170.708 196.392C172.083 197.603 173.651 198.592 175.072 199.754C178.032 202.18 178.631 206.745 176.402 209.499C174.037 212.414 169.682 212.808 166.476 210.406C164.095 208.621 161.702 206.851 159.313 205.074Z" fill="#73B6FF"/>
<path d="M149.219 143.864C145.077 139.64 140.939 135.416 136.797 131.191C137.454 128.425 138.11 125.658 138.767 122.891L140.212 121.672C144.108 126.2 149.28 128.006 155.011 128.618C157.995 130.095 160.988 131.553 163.96 133.051C167.014 134.595 167.002 134.611 166.698 137.928C166.641 138.535 166.608 139.147 166.563 139.759C166.452 140.539 166.337 141.319 166.226 142.099C164.567 148.966 163.217 155.85 164.403 162.985C164.613 164.253 165.409 165.809 163.82 166.897C162.297 167.037 160.774 167.18 159.251 167.32C156.62 167.164 156.177 165.477 155.98 163.203C155.512 157.792 154.756 152.406 154.165 147.004C154.03 145.781 153.693 145.075 152.269 144.952C151.23 144.861 150.233 144.245 149.219 143.864Z" fill="#0C2C7E"/>
<path d="M128.225 145.953C130.183 146.216 132.346 147.201 133.516 149.828C135.483 154.25 137.482 158.662 139.526 163.047C141.213 166.667 138.479 172.345 134.358 171.433C133.91 171.335 133.381 171.38 132.938 171.519C130.569 172.283 128.734 171.257 127.749 169.348C125.31 164.631 122.864 159.882 120.988 154.927C119.243 150.317 122.704 145.929 128.225 145.953Z" fill="#73B6FF"/>
<path d="M165.154 170.994C168.13 173.178 170.77 175.645 172.547 179.504C167.276 177.599 162.399 175.842 157.137 173.942C157.716 172.595 158.225 171.405 158.734 170.214C160.778 171.269 162.773 172.735 165.154 170.994Z" fill="#0C2C7E"/>
<path d="M129.739 186.245C129.517 188.408 128.273 189.52 126.127 189.475C124.09 189.43 122.806 188.211 122.777 186.15C122.764 185.358 123.023 184.562 123.154 183.765C125.351 184.59 127.543 185.419 129.739 186.245Z" fill="#FCE6C5"/>
<path d="M165.154 170.994C162.769 172.735 160.778 171.269 158.733 170.214C158.906 169.25 159.078 168.285 159.251 167.32C160.774 167.181 162.297 167.037 163.82 166.897C164.263 168.264 164.71 169.627 165.154 170.994Z" fill="#F08665"/>
<path d="M166.221 142.099C166.332 141.319 166.446 140.539 166.557 139.759C168.643 140.502 170.728 141.245 172.813 141.988C170.617 142.025 168.421 142.062 166.221 142.099Z" fill="#EA753E"/>
<path d="M126.037 196.946C126.037 200.891 126.119 204.844 126.013 208.785C125.918 212.283 122.708 214.306 118.833 213.075C116.144 212.221 113.546 210.953 111.087 209.549C108.521 208.083 107.967 205.616 109.921 203.35C113.566 199.122 117.437 195.074 121.415 191.15C123.164 189.426 125.717 190.432 126.247 192.874C126.53 194.188 126.444 195.583 126.526 196.942C126.366 196.942 126.206 196.946 126.041 196.95L126.037 196.946Z" fill="#FED463"/>
<path d="M97.594 187.484C97.8526 185.723 97.9347 184.422 98.2549 183.182C98.7803 181.15 101.223 179.951 103.797 180.522C108.571 181.581 113.329 182.735 118.082 183.884C119.589 184.249 120.927 184.812 121.124 186.704C121.317 188.527 120.324 189.43 118.891 190.202C114.872 192.373 110.845 194.533 106.896 196.827C104.129 198.436 100.578 198.034 99.4125 194.114C98.7187 191.778 98.1194 189.414 97.5898 187.48L97.594 187.484Z" fill="#FED463"/>
<path d="M137.495 211.589C135.664 211.556 133.722 209.951 133.074 207.915C131.916 204.282 130.853 200.616 129.74 196.967C129.363 195.727 128.69 194.495 128.673 193.256C128.661 192.09 129.059 190.69 129.786 189.807C130.68 188.715 131.986 188.941 133.283 189.758C137.441 192.365 141.756 194.721 145.865 197.398C148.254 198.953 149.945 201.404 147.195 204.762C145.007 207.434 142.478 209.454 139.412 210.891C138.739 211.207 138.012 211.404 137.491 211.589H137.495Z" fill="#FED463"/>
<path d="M115.696 116.397C115.635 116.606 115.577 116.812 115.516 117.021C115.577 116.816 115.635 116.606 115.696 116.397Z" fill="#F69153"/>
<path d="M176.18 122.218C177.091 118.954 177.785 115.613 178.963 112.452C180.65 107.924 182.621 103.499 184.608 99.0943C185.49 97.1361 187.132 96.6559 189.242 97.522C190.831 98.1747 191.089 99.6156 190.827 101.098C190.646 102.116 190.35 103.179 189.821 104.053C186.676 109.242 185.268 115.071 183.462 120.761C183.06 122.033 182.44 123.236 181.923 124.472C181.406 125.703 180.568 126.623 179.148 126.29C177.67 125.945 176.586 125.046 176.529 123.339C176.516 122.998 176.529 122.653 176.529 122.312C176.41 122.28 176.291 122.247 176.176 122.214L176.18 122.218Z" fill="#F28687"/>
<path d="M189.128 95.6215C187.856 92.4729 189.838 90.5887 191.669 88.8112C193.258 87.2677 195.154 86.0485 196.887 84.6446C198.397 83.4172 199.682 83.9262 200.848 85.129C202.129 86.4467 201.386 87.8178 200.491 88.7866C198.278 91.1757 195.828 93.3391 193.57 95.6831C192.732 96.5533 192.154 97.0459 191.049 96.0484C190.635 95.6708 189.801 95.757 189.132 95.6215H189.128Z" fill="#F28687"/>
<path d="M123.533 87.625C123.04 89.4148 122.548 91.2005 122.055 92.9903C121.37 93.4172 120.725 93.9796 119.982 94.2382C119.194 94.5133 118.303 94.4968 117.457 94.6077C117.457 93.5855 117.022 92.0502 117.527 91.6274C119.362 90.0921 121.509 88.9304 123.537 87.625H123.533Z" fill="#EA753E"/>
<path d="M140.208 121.672C139.728 122.079 139.243 122.485 138.763 122.891C137.462 123.359 136.164 123.823 134.863 124.287C134.342 124.176 133.82 124.07 133.201 123.938C133.045 123.413 132.876 122.838 132.708 122.267C132.314 120.937 131.998 119.657 133.558 118.762C133.829 118.606 133.87 118.043 134.013 117.666C135.717 116.968 137.421 116.274 139.124 115.576C141.095 115.794 138.656 116.906 139.485 117.358C138.077 119.62 140.52 119.041 141.238 119.735C141.353 120.022 141.468 120.309 141.583 120.597C141.123 120.954 140.663 121.311 140.204 121.668L140.208 121.672Z" fill="#F08665"/>
<path d="M140.207 121.672C140.667 121.315 141.127 120.958 141.586 120.601C143.15 121.844 144.591 123.302 146.303 124.279C149.111 125.888 152.099 127.185 155.01 128.618C149.275 128.006 144.107 126.196 140.211 121.672H140.207Z" fill="#E2F1EF"/>
<path d="M143.184 118.815C146.221 117.682 149.259 116.549 152.297 115.412C150.121 117.165 148.056 119.094 145.725 120.609C144.091 121.668 144.046 119.435 143.184 118.815Z" fill="#EA753E"/>
<path d="M131.448 106.155C129.901 103.339 128.353 100.519 126.806 97.7027C129.088 96.0812 130.147 93.1625 129.297 90.3793C129.104 89.743 128.32 89.312 127.959 88.6962C127.643 88.1503 127.536 87.4811 127.339 86.8654C127.926 86.771 128.517 86.693 129.1 86.5739C129.794 86.4302 130.508 86.3153 131.169 86.069C131.982 85.7652 132.746 85.3383 133.468 84.9935C132.595 84.3832 133.379 83.0668 135.82 81.0444C137.241 82.8096 137.655 84.8457 137.269 86.9803C136.855 89.2709 136.674 91.6477 134.322 93.2036C133.784 93.5607 134.306 95.5147 134.343 96.7339C135.258 99.8496 136.173 102.969 137.093 106.085C135.213 106.106 133.329 106.126 131.444 106.151L131.448 106.155Z" fill="#F08665"/>
<path d="M155.121 109.603C155.728 110.835 155.687 111.779 154.144 112.276C149.944 113.622 145.765 115.014 141.574 116.389C141.882 113.569 142.19 110.753 142.543 107.493C146.82 108.212 150.971 108.909 155.121 109.607V109.603Z" fill="#F69153"/>
<path d="M131.447 106.155C133.331 106.135 135.212 106.114 137.096 106.089C137.773 109.25 138.45 112.415 139.128 115.576C137.424 116.274 135.721 116.968 134.017 117.666C133.163 113.827 132.305 109.989 131.451 106.151L131.447 106.155Z" fill="#BA3579"/>
<path d="M273.424 166.47C274.865 169.762 276.704 172.948 277.669 176.375C280.087 184.955 279.093 193.325 274.569 201.034C269.762 209.228 262.71 214.684 253.33 216.736C245.908 218.362 238.704 217.479 231.824 214.175C231.351 213.949 230.814 213.854 230.305 213.698L230.321 213.711C230.177 213.567 230.034 213.428 229.886 213.284C226.327 209.142 224.32 204.269 223.375 198.961C222.353 193.214 222.87 187.533 224.976 182.09C225.723 180.16 226.959 178.391 228.133 176.659C229.833 174.151 231.762 171.79 233.425 169.257C233.995 168.383 234.475 167.102 234.291 166.137C233.186 160.304 235.046 155.432 239.533 151.946C244.586 148.022 250.419 147.648 256.068 150.739C259.36 152.542 261.733 155.473 262.698 159.233C263.161 161.043 264.188 161.835 265.908 162.468C268.502 163.42 270.932 164.824 273.432 166.039C273.432 166.187 273.432 166.339 273.436 166.486L273.424 166.474V166.47ZM232.784 190.431C232.636 194.795 233.519 198.695 235.333 202.328C236.721 205.103 238.227 207.853 240.021 210.373C241.208 212.04 243.449 212.093 244.988 211.055C246.479 210.049 247.037 208.038 246.199 206.17C245.789 205.254 245.071 204.483 244.574 203.6C241.889 198.855 240.424 193.752 240.165 188.301C240.058 186.1 238.17 184.249 236.085 184.265C234.34 184.278 232.957 185.838 232.796 188.042C232.731 188.925 232.784 189.815 232.784 190.431ZM257.706 160.723C256.696 155.395 252.024 152.878 246.318 153.859C241.725 154.647 237.743 160.608 238.962 165.062C244.857 162.102 251.031 160.296 257.706 160.723ZM247.595 169.705C246.782 168.605 246.228 167.373 245.28 166.696C244.094 165.85 242.509 165.637 241.319 166.835C239.418 168.748 237.447 170.641 235.888 172.82C234.906 174.192 234.205 176.047 234.147 177.71C234.09 179.434 235.321 180.813 237.279 181.211C239.401 181.646 240.346 180.169 241.376 178.818C242.813 176.934 244.25 175.05 245.612 173.116C246.298 172.143 246.819 171.055 247.595 169.705Z" fill="#948BC2"/>
<path d="M296.018 119.694C296.823 119.562 297.623 119.435 298.428 119.304C297.681 123.696 296.934 128.084 296.187 132.477C296.117 132.875 296.031 133.277 296.018 133.68C295.879 139.451 295.751 145.219 295.62 150.991C295.308 157.94 295.091 164.894 294.664 171.836C294.122 180.617 293.412 189.385 292.775 198.162C292.751 198.494 292.706 198.827 292.656 199.249C291.404 199.249 290.206 199.249 289.007 199.249C288.605 199.143 288.202 199.04 287.8 198.933C286.367 198.675 286.125 197.78 286.207 196.446C286.474 192.172 286.614 187.895 286.802 183.617C287.106 178.892 287.41 174.163 287.714 169.439C288.51 160.223 289.307 151.007 290.148 141.29C287.747 143.421 285.587 145.313 283.457 147.23C279.327 150.949 279.237 150.929 275.202 147.099C273.428 145.416 271.548 143.844 269.713 142.222C268.359 140.822 267.008 139.423 265.653 138.027C265.92 137.436 266.142 136.82 266.458 136.258C267.115 135.092 267.821 133.955 268.506 132.801C269.409 131.914 270.308 131.024 271.212 130.137C271.913 130.765 272.615 131.389 273.317 132.017C275.259 133.901 277.197 135.785 279.233 137.764C282.049 134.16 284.68 130.786 287.324 127.423C289.758 124.328 292.086 121.114 296.01 119.694H296.018Z" fill="#0C2C7E"/>
<path d="M265.657 138.03C267.012 139.43 268.362 140.83 269.717 142.226C266.548 142.205 263.379 142.209 260.214 142.156C259.491 142.144 258.777 141.951 258.055 141.84C258.51 140.617 258.966 139.389 259.422 138.166C261.503 138.121 263.58 138.076 265.661 138.026L265.657 138.03Z" fill="#537343"/>
<path d="M287.718 169.438C287.414 174.163 287.11 178.892 286.807 183.617C285.772 181.207 284.738 178.797 283.703 176.392C285.041 174.073 286.38 171.757 287.722 169.438H287.718Z" fill="#68B06C"/>
<path d="M231.113 221.855C230.801 222.504 230.588 223.23 230.149 223.772C229.722 224.302 229.057 224.638 228.498 225.057C228.145 224.4 227.792 223.739 227.443 223.083C228.667 222.672 229.89 222.262 231.117 221.851L231.113 221.855Z" fill="#78C27B"/>
<path d="M229.886 213.289C230.029 213.432 230.173 213.572 230.321 213.716C230.177 213.572 230.034 213.432 229.886 213.289Z" fill="#8F6F8F"/>
<path d="M273.432 166.483C273.432 166.335 273.432 166.188 273.428 166.036C273.428 166.183 273.428 166.331 273.432 166.483Z" fill="#8F6F8F"/>
<path d="M287.804 198.937C288.206 199.044 288.609 199.146 289.011 199.253C289.114 202.476 289.216 205.694 289.319 208.916C287.722 208.875 286.125 208.834 284.528 208.793C285.62 205.509 286.712 202.221 287.804 198.937Z" fill="#68B06C"/>
<path d="M146.164 218.658C146.48 218.518 146.792 218.383 147.108 218.243C146.792 218.383 146.476 218.518 146.164 218.658Z" fill="#FBBA4E"/>
<path d="M291.118 219.417C293.437 219.602 295.756 219.786 298.076 219.971C298.363 221.112 298.651 222.258 298.938 223.399C295.765 223.514 292.702 223.247 290.178 220.997C290.49 220.472 290.802 219.942 291.114 219.417H291.118Z" fill="#F08665"/>
<path d="M298.941 223.399C298.654 222.258 298.366 221.113 298.079 219.971C298.473 219.389 299.13 218.843 299.212 218.219C299.618 215.127 299.873 212.012 300.185 208.908C301.655 208.855 303.124 208.802 304.598 208.744C305 211.54 305.554 214.323 305.751 217.131C305.866 218.748 306.416 219.627 307.968 219.902C307.779 220.267 307.59 220.632 307.402 220.998C304.766 222.303 302.131 223.608 299.45 224.939C299.294 224.471 299.118 223.937 298.937 223.399H298.941Z" fill="#FFDAB9"/>
<path d="M265.658 138.031C263.58 138.076 261.499 138.121 259.418 138.171C257.731 138.171 256.048 138.171 254.094 138.171C253.79 133.536 253.449 129.148 253.281 124.755C253.256 124.164 253.971 123.368 254.553 122.97C255.374 122.403 256.388 122.12 257.32 121.718C261.512 120.925 265.497 121.204 269.028 123.914C268.708 124.41 268.112 124.911 268.125 125.404C268.17 127.871 268.371 130.338 268.515 132.805C267.829 133.955 267.123 135.092 266.466 136.262C266.15 136.824 265.924 137.44 265.662 138.031H265.658ZM257.25 125.638C259.028 125.638 260.703 125.687 262.374 125.609C262.907 125.584 263.429 125.231 263.954 125.026C263.654 124.447 263.42 123.425 263.034 123.364C261.589 123.13 260.095 123.134 258.622 123.187C257.086 123.245 256.643 124.115 257.25 125.638Z" fill="#FDE29A"/>
<path d="M272.599 95.1578C272.603 91.9394 275.045 89.3286 278.083 89.2958C281.388 89.2588 284.068 91.8984 284.089 95.2071C284.109 98.5116 281.457 101.188 278.157 101.196C275.172 101.2 272.595 98.4008 272.599 95.1619V95.1578ZM280.078 92.8836C279.643 93.8113 279.212 94.3163 279.253 94.776C279.286 95.1414 279.893 95.4575 280.25 95.7941C280.567 95.3507 281.076 94.9361 281.137 94.4599C281.182 94.111 280.645 93.6841 280.078 92.8836Z" fill="#67AF6C"/>
<path d="M268.51 132.805C268.362 130.338 268.161 127.871 268.12 125.404C268.112 124.911 268.707 124.41 269.023 123.914C269.754 125.991 270.485 128.068 271.215 130.141C270.312 131.028 269.409 131.914 268.51 132.805Z" fill="#F08665"/>
<path d="M289.488 95.8718C288.938 95.1986 288.408 94.8209 288.342 94.3693C288.301 94.1107 289.053 93.4416 289.365 93.4909C289.82 93.5606 290.35 94.0491 290.539 94.4925C290.629 94.7018 290.009 95.2191 289.488 95.8718Z" fill="#537343"/>
<path d="M273.017 113.84C272.365 114.406 271.999 114.94 271.544 115.03C271.297 115.08 270.6 114.336 270.645 114.025C270.71 113.565 271.182 113.027 271.622 112.822C271.823 112.727 272.356 113.339 273.013 113.84H273.017Z" fill="#537343"/>
<path d="M282.875 104.488C282.189 105.01 281.787 105.527 281.344 105.568C281.073 105.593 280.436 104.829 280.494 104.517C280.576 104.07 281.081 103.548 281.528 103.384C281.75 103.302 282.239 103.942 282.879 104.484L282.875 104.488Z" fill="#537343"/>
<path d="M297.213 151.586C297.303 151.007 297.636 150.329 297.443 149.866C295.522 145.247 296.934 140.74 297.816 136.225C298.354 133.491 299.044 130.785 299.565 128.047C299.709 127.284 299.421 126.45 299.462 125.654C299.487 125.125 299.594 124.304 299.922 124.143C300.485 123.872 301.375 123.782 301.884 124.061C302.41 124.349 303.099 125.363 302.943 125.72C301.749 128.47 302.989 131.019 303.374 133.638C303.218 137.973 303.062 142.312 302.906 146.647C302.085 148.043 301.264 149.435 300.443 150.83C300.041 151.372 299.639 151.914 299.237 152.456C298.563 152.164 297.89 151.873 297.213 151.582V151.586Z" fill="#2254B5"/>
<path d="M314.11 145.12C313.798 141.717 313.486 138.318 313.174 134.915C313.531 134.808 313.884 134.702 314.241 134.599C315.633 137.448 317.028 140.293 318.42 143.142C318.342 143.273 318.268 143.404 318.19 143.536L318.231 143.523C316.856 144.057 315.485 144.591 314.11 145.124V145.12Z" fill="#78C27B"/>
<path d="M315.707 158.367C312.431 157.903 309.476 157.48 306.43 157.049C308.527 155.411 310.461 153.901 312.698 152.152C313.289 154.64 316.898 155.218 315.707 158.363V158.367Z" fill="#F08665"/>
<path d="M314.11 145.12C315.485 144.586 316.856 144.053 318.231 143.519C317.102 145.333 315.977 147.144 314.848 148.958C314.66 148.938 314.471 148.917 314.278 148.897C314.22 147.636 314.163 146.38 314.105 145.12H314.11Z" fill="#68B06C"/>
<path d="M300.444 150.834C301.265 149.439 302.086 148.047 302.907 146.651C302.911 148.088 302.916 149.521 302.924 150.958C302.099 150.916 301.274 150.875 300.448 150.834H300.444Z" fill="#FCE6C5"/>
<path d="M300.443 150.834C301.269 150.875 302.094 150.916 302.919 150.957C302.89 151.462 302.861 151.967 302.833 152.468C301.634 152.468 300.435 152.46 299.232 152.456C299.635 151.914 300.037 151.372 300.439 150.83L300.443 150.834Z" fill="#311C16"/>
<path d="M304.595 208.74C303.125 208.793 301.655 208.847 300.182 208.904C300.477 204.976 300.744 201.043 301.081 197.119C301.29 194.693 301.61 192.275 302.16 189.82C302.969 196.129 303.782 202.435 304.59 208.744L304.595 208.74Z" fill="#67AF6C"/>
<path d="M134.863 124.287C136.165 123.823 137.462 123.355 138.763 122.891C138.106 125.658 137.45 128.425 136.793 131.192C136.661 134.213 136.526 137.23 136.395 140.251C134.691 139.644 133.595 138.535 133.837 136.38C134.227 132.883 134.527 129.381 134.851 125.875C134.9 125.35 134.863 124.816 134.863 124.283V124.287Z" fill="#FFA653"/>
<path d="M124.83 111.931C126.845 116.573 126.036 121.504 123.085 121.955C123.66 118.647 124.218 115.436 124.83 111.931Z" fill="#F69153"/>
<path d="M232.785 190.431C232.785 189.816 232.732 188.925 232.797 188.042C232.958 185.838 234.341 184.278 236.086 184.266C238.175 184.249 240.063 186.105 240.166 188.301C240.425 193.752 241.89 198.855 244.575 203.6C245.076 204.483 245.79 205.255 246.2 206.17C247.038 208.034 246.48 210.049 244.989 211.055C243.45 212.098 241.209 212.04 240.022 210.374C238.228 207.853 236.718 205.103 235.334 202.328C233.52 198.695 232.637 194.795 232.785 190.431Z" fill="#AF9ECA"/>
<path d="M257.706 160.723C251.036 160.296 244.857 162.102 238.963 165.062C237.743 160.608 241.725 154.648 246.319 153.859C252.025 152.882 256.696 155.395 257.706 160.723Z" fill="#88A8C0"/>
<path d="M247.596 169.705C246.82 171.052 246.298 172.139 245.613 173.116C244.25 175.054 242.809 176.934 241.376 178.818C240.346 180.169 239.402 181.647 237.28 181.212C235.321 180.813 234.09 179.434 234.147 177.71C234.205 176.047 234.907 174.192 235.888 172.821C237.448 170.645 239.418 168.749 241.319 166.836C242.509 165.637 244.094 165.85 245.28 166.696C246.229 167.373 246.783 168.605 247.596 169.705Z" fill="#AF9ECA"/>
<path d="M257.251 125.638C256.643 124.115 257.087 123.249 258.622 123.187C260.091 123.13 261.59 123.125 263.035 123.364C263.421 123.425 263.65 124.447 263.954 125.026C263.429 125.231 262.907 125.584 262.374 125.609C260.703 125.687 259.028 125.638 257.251 125.638Z" fill="#FCE6C5"/>
<path d="M280.079 92.8833C280.645 93.6838 281.183 94.1107 281.138 94.4596C281.076 94.9358 280.567 95.3504 280.251 95.7938C279.898 95.4572 279.287 95.1411 279.254 94.7757C279.213 94.316 279.644 93.811 280.079 92.8833Z" fill="#548F59"/>
<path d="M36.9541 146.766C36.8145 146.906 36.6749 147.045 36.5312 147.189C36.6708 147.049 36.8104 146.91 36.9541 146.766Z" fill="#EAA5AE"/>
<rect x="33.251" y="144.087" width="13.1361" height="13.9571" fill="#FFDAB9"/>
<rect x="54.5977" y="201.147" width="8.21008" height="10.2626" fill="#FFDAB9"/>
</svg>
