<svg width="16" height="28" viewBox="0 0 16 28" fill="none" xmlns="http://www.w3.org/2000/svg">
<path d="M10.5153 18.6501H9.01346L8.54927 17.1722C8.49141 16.9881 8.32559 16.8635 8.13862 16.8635C7.95165 16.8635 7.78583 16.9881 7.72797 17.1722L7.26378 18.6501H5.76195C5.57498 18.6501 5.40916 18.7747 5.3513 18.9588C5.29344 19.1428 5.35691 19.3443 5.50805 19.4582L6.72272 20.3714L6.25853 21.8493C6.20067 22.0334 6.26414 22.2348 6.41527 22.3488C6.56641 22.4627 6.77152 22.4627 6.92308 22.3488L8.13905 21.4356L9.35373 22.3488C9.4293 22.4055 9.51868 22.4341 9.60763 22.4341C9.69658 22.4341 9.78597 22.406 9.86153 22.3488C10.0131 22.2348 10.0761 22.0334 10.0183 21.8493L9.55409 20.3714L10.7688 19.4582C10.9203 19.3443 10.9834 19.1428 10.9255 18.9588C10.8676 18.7747 10.7027 18.6501 10.5153 18.6501ZM8.79281 19.8398C8.64125 19.9537 8.5782 20.1552 8.63606 20.3393L8.78633 20.8177L8.39296 20.522C8.31739 20.4652 8.228 20.4366 8.13905 20.4366C8.0501 20.4366 7.96072 20.4648 7.88515 20.522L7.49177 20.8177L7.64204 20.3393C7.6999 20.1552 7.63643 19.9537 7.48529 19.8398L7.09149 19.544H7.5777C7.76468 19.544 7.93049 19.4194 7.98835 19.2353L8.13905 18.7564L8.28932 19.2353C8.34718 19.4194 8.513 19.544 8.69997 19.544H9.18619L8.79281 19.8398Z" fill="#0C2C7E"/>
<path d="M14.9315 21.1645C15.2282 20.8249 15.5646 20.4403 15.5646 19.9296C15.5646 19.419 15.2282 19.0348 14.9315 18.6952C14.7618 18.5009 14.5865 18.3003 14.5481 18.1529C14.5062 17.9911 14.5628 17.7173 14.6172 17.4524C14.707 17.0127 14.8093 16.5146 14.5705 16.0875C14.3283 15.6546 13.8563 15.4964 13.4396 15.3575C13.1939 15.2753 12.9396 15.1904 12.8299 15.0769C12.7202 14.9635 12.6378 14.7003 12.5583 14.4457C12.4236 14.0145 12.2712 13.5262 11.8532 13.2756C11.7668 13.2238 11.6766 13.1903 11.5854 13.1662L13.1356 11.8058C13.2324 11.7209 13.2881 11.5962 13.2881 11.4649V1.25377C13.2881 1.00715 13.0946 0.807007 12.8563 0.807007H3.42211C3.18375 0.807007 2.9903 1.00715 2.9903 1.25377V11.4653C2.9903 11.5962 3.04601 11.7213 3.14273 11.8062L4.69292 13.167C4.60181 13.1912 4.51156 13.2242 4.4252 13.2761C4.00678 13.5267 3.85435 14.015 3.72006 14.4461C3.64061 14.7003 3.55813 14.9635 3.44888 15.0774C3.3392 15.1909 3.08487 15.2757 2.83874 15.358C2.42204 15.4973 1.95008 15.655 1.70783 16.088C1.46904 16.5151 1.57095 17.0132 1.6612 17.4528C1.71517 17.7177 1.77174 17.992 1.72985 18.1538C1.69186 18.3012 1.51611 18.5018 1.34641 18.6961C1.04976 19.0357 0.713379 19.4203 0.713379 19.931C0.713379 20.4416 1.04933 20.8258 1.34598 21.1654C1.51568 21.3597 1.69142 21.5603 1.72942 21.7077C1.77088 21.869 1.71474 22.1433 1.66033 22.4083C1.57052 22.8479 1.46818 23.346 1.70697 23.7731C1.94921 24.206 2.42118 24.3642 2.83787 24.5031C3.08357 24.5853 3.33791 24.6706 3.44759 24.7837C3.55727 24.8972 3.63931 25.1603 3.71876 25.4149C3.85349 25.8461 4.00592 26.3344 4.42434 26.585C4.83715 26.8321 5.31861 26.7266 5.74351 26.6333C5.99957 26.5774 6.26384 26.518 6.42102 26.5622C6.56352 26.6015 6.7574 26.7829 6.94523 26.9585C7.27384 27.2645 7.64563 27.6126 8.13918 27.6126C8.63274 27.6126 9.00453 27.2645 9.33227 26.9576C9.52011 26.782 9.71399 26.6006 9.85649 26.5609C10.0128 26.5175 10.2779 26.5761 10.5336 26.6319C10.9589 26.7248 11.4399 26.8303 11.8527 26.5837C12.2712 26.333 12.4236 25.8447 12.5579 25.4141C12.6373 25.1598 12.7198 24.8967 12.8291 24.7828C12.9387 24.6693 13.1931 24.5844 13.4392 24.5022C13.8555 24.3628 14.3279 24.2051 14.5701 23.7722C14.8089 23.3451 14.707 22.847 14.6167 22.4078C14.5628 22.1424 14.5062 21.8686 14.5481 21.7068C14.5865 21.5599 14.7618 21.3588 14.9315 21.1645ZM11.3544 1.70053H12.4244V11.2585L11.3544 12.1976V1.70053ZM9.97048 1.70053H10.4908V12.9557L10.0923 13.3055C10.0495 13.3096 10.008 13.3122 9.97048 13.3113V1.70053ZM7.18662 1.70053H9.10687V12.6966C8.83353 12.4585 8.52349 12.2472 8.13918 12.2472C7.76221 12.2472 7.4565 12.4504 7.18662 12.6832V1.70053ZM5.80267 1.70053H6.323V13.3096C6.28068 13.3118 6.23491 13.3105 6.18568 13.3055L5.80267 12.9696V1.70053ZM3.85392 11.2585V1.70053H4.93949V12.211L3.85392 11.2585ZM14.2912 20.5654C14.0528 20.8383 13.8062 21.1202 13.7143 21.4763C13.6188 21.8449 13.7004 22.2425 13.7726 22.5932C13.8274 22.8613 13.8956 23.195 13.8231 23.325C13.7471 23.4608 13.4431 23.5627 13.1745 23.6525C12.8312 23.7673 12.4763 23.8857 12.2198 24.1515C11.9633 24.4173 11.8484 24.7846 11.7374 25.1397C11.6506 25.4176 11.5522 25.7321 11.4214 25.8103C11.2957 25.8854 10.9731 25.8152 10.7136 25.7581C10.3742 25.6834 9.98991 25.5999 9.6341 25.6977C9.28995 25.7929 9.01705 26.048 8.75322 26.2946C8.54077 26.4939 8.30025 26.719 8.13918 26.719C7.97812 26.719 7.7376 26.4939 7.52515 26.2951C7.26132 26.0484 6.98841 25.7929 6.6447 25.6982C6.52897 25.666 6.41022 25.6535 6.29104 25.6535C6.04362 25.6535 5.79403 25.708 5.56518 25.7585C5.30609 25.8148 4.98353 25.8863 4.85787 25.8108C4.7266 25.7326 4.62858 25.4176 4.54179 25.1397C4.43082 24.7846 4.31639 24.4173 4.05946 24.1515C3.80253 23.8857 3.44759 23.7673 3.10473 23.6525C2.83615 23.5627 2.53216 23.4608 2.45616 23.325C2.38361 23.195 2.45184 22.8613 2.50668 22.5932C2.57879 22.2425 2.65997 21.8449 2.56497 21.4763C2.473 21.1207 2.22643 20.8383 1.98764 20.5654C1.79549 20.3456 1.57786 20.0967 1.57786 19.9301C1.57786 19.7634 1.79549 19.5146 1.98764 19.2948C2.226 19.0218 2.47257 18.7399 2.56454 18.3838C2.65997 18.0157 2.57836 17.6177 2.50625 17.267C2.45141 16.9989 2.38318 16.6652 2.45572 16.5352C2.53129 16.3993 2.83572 16.2979 3.1043 16.2081C3.44759 16.0933 3.80253 15.9749 4.05946 15.7091C4.31639 15.4433 4.43082 15.076 4.54179 14.7209C4.62858 14.443 4.72704 14.128 4.85787 14.0498C4.98439 13.9752 5.30652 14.0454 5.56561 14.1021C5.90458 14.1763 6.28932 14.2607 6.64513 14.1624C6.98885 14.0673 7.26175 13.8122 7.52558 13.5656C7.73803 13.3667 7.97898 13.1416 8.13962 13.1416C8.30025 13.1416 8.5412 13.3667 8.75365 13.5656C9.01705 13.8126 9.28995 14.0677 9.6341 14.1624C9.78783 14.2049 9.9463 14.2093 10.1043 14.1991C10.1432 14.2107 10.1816 14.2254 10.2222 14.2254C10.2961 14.2254 10.3682 14.1991 10.4347 14.1593C10.5297 14.1419 10.6234 14.1218 10.7136 14.1021C10.9731 14.0454 11.2953 13.9739 11.4214 14.0498C11.5526 14.1285 11.6506 14.443 11.7374 14.7209C11.8484 15.076 11.9628 15.4433 12.2198 15.7091C12.4767 15.9745 12.8316 16.0933 13.1745 16.2081C13.4431 16.2979 13.7475 16.3998 13.8231 16.5352C13.896 16.6656 13.8274 16.9989 13.7726 17.267C13.7004 17.6181 13.6193 18.0157 13.7143 18.3838C13.8062 18.7395 14.0528 19.0218 14.2912 19.2948C14.4833 19.5146 14.7009 19.7639 14.7009 19.9301C14.7009 20.0963 14.4833 20.3456 14.2912 20.5654Z" fill="#0C2C7E"/>
<path d="M8.13921 14.946C5.48316 14.946 3.32196 17.1816 3.32196 19.93C3.32196 22.6785 5.48316 24.9136 8.13921 24.9136C10.7953 24.9136 12.9565 22.678 12.9565 19.9296C12.9565 17.1811 10.7953 14.946 8.13921 14.946ZM8.13921 24.0201C5.95944 24.0201 4.18558 22.1853 4.18558 19.9296C4.18558 17.6739 5.95901 15.8391 8.13921 15.8391C10.3194 15.8391 12.0928 17.6739 12.0928 19.9296C12.0928 22.1853 10.319 24.0201 8.13921 24.0201Z" fill="#0C2C7E"/>
</svg>
