<svg width="16" height="16" viewBox="0 0 16 16" fill="none" xmlns="http://www.w3.org/2000/svg">
<path d="M6.41644 14.5256C6.41644 14.8396 6.5412 15.1408 6.76328 15.3629C6.98537 15.585 7.28657 15.7098 7.60065 15.7098C7.91472 15.7098 8.21593 15.585 8.43801 15.3629C8.66009 15.1408 8.78486 14.8396 8.78486 14.5256V9.39399H13.9164C14.2305 9.39399 14.5317 9.26922 14.7538 9.04714C14.9759 8.82506 15.1006 8.52385 15.1006 8.20978C15.1006 7.89571 14.9759 7.5945 14.7538 7.37241C14.5317 7.15033 14.2305 7.02557 13.9164 7.02557H8.78486V1.89399C8.78486 1.57992 8.66009 1.27871 8.43801 1.05663C8.21593 0.834543 7.91472 0.709778 7.60065 0.709778C7.28657 0.709778 6.98537 0.834543 6.76328 1.05663C6.5412 1.27871 6.41644 1.57992 6.41644 1.89399V7.02557H1.28486C0.970785 7.02557 0.669577 7.15033 0.447494 7.37241C0.225412 7.5945 0.100647 7.89571 0.100647 8.20978C0.100647 8.52385 0.225412 8.82506 0.447494 9.04714C0.669577 9.26922 0.970785 9.39399 1.28486 9.39399H6.41644V14.5256Z" fill="#0C2C7E"/>
</svg>
