<svg width="21" height="16" viewBox="0 0 21 16" fill="none" xmlns="http://www.w3.org/2000/svg">
<path d="M0.511282 6.97159L6.91881 0.744186C7.35998 0.315414 8.07426 0.315414 8.49443 0.744186C8.9356 1.17296 8.9356 1.86716 8.49443 2.27552L3.97765 6.66532H19.0196C19.6288 6.66532 20.133 7.15535 20.133 7.74746C20.133 8.33958 19.6288 8.8296 19.0196 8.8296H3.99866L8.49443 13.2194C8.9356 13.6482 8.9356 14.3424 8.49443 14.7507C8.28434 14.9549 7.99023 15.0774 7.69611 15.0774C7.402 15.0774 7.12889 14.9753 6.8978 14.7507L0.469265 8.50292C0.259182 8.29874 0.133133 8.01289 0.133133 7.72705C0.17515 7.46162 0.301199 7.17577 0.511282 6.97159Z" fill="#0C2C7E"/>
</svg>
