<svg width="19" height="15" viewBox="0 0 19 15" fill="none" xmlns="http://www.w3.org/2000/svg">
<path d="M8.34754 0.474127C8.22194 0.468476 8.09901 0.511503 8.00435 0.594243L0.682963 6.93944C0.630396 6.98526 0.588256 7.04181 0.55938 7.10529C0.530505 7.16876 0.515564 7.23769 0.515564 7.30742C0.515564 7.37715 0.530505 7.44608 0.55938 7.50955C0.588256 7.57302 0.630396 7.62957 0.682963 7.67539L8.00435 14.0206C8.07499 14.082 8.16181 14.1218 8.25445 14.1353C8.34709 14.1487 8.44164 14.1353 8.52684 14.0965C8.61204 14.0577 8.68429 13.9952 8.73498 13.9165C8.78568 13.8378 8.81267 13.7462 8.81275 13.6526V0.962219C8.81274 0.868535 8.78576 0.776834 8.73505 0.698062C8.68434 0.61929 8.61203 0.556775 8.52676 0.517979C8.47035 0.492101 8.40952 0.477218 8.34754 0.474127Z" fill="#0C2C7E"/>
<path d="M17.6212 0.474127C17.4956 0.468476 17.3727 0.511503 17.278 0.594243L9.95663 6.93944C9.90406 6.98526 9.86192 7.04181 9.83305 7.10529C9.80417 7.16876 9.78923 7.23769 9.78923 7.30742C9.78923 7.37715 9.80417 7.44608 9.83305 7.50955C9.86192 7.57302 9.90406 7.62957 9.95663 7.67539L17.278 14.0206C17.3487 14.082 17.4355 14.1218 17.5281 14.1353C17.6208 14.1487 17.7153 14.1353 17.8005 14.0965C17.8857 14.0577 17.958 13.9952 18.0087 13.9165C18.0593 13.8378 18.0863 13.7462 18.0864 13.6526V0.962219C18.0864 0.868535 18.0594 0.776834 18.0087 0.698062C17.958 0.61929 17.8857 0.556775 17.8004 0.517979C17.744 0.492101 17.6832 0.477218 17.6212 0.474127Z" fill="#0C2C7E"/>
</svg>
