<svg width="15" height="18" viewBox="0 0 15 18" fill="none" xmlns="http://www.w3.org/2000/svg">
<path d="M3.0267 5.3493V7.80597H1.97385C1.60153 7.80597 1.24447 7.95387 0.981204 8.21714C0.717939 8.4804 0.570038 8.83746 0.570038 9.20978L0.570038 16.2288C0.570038 16.6011 0.717939 16.9582 0.981204 17.2215C1.24447 17.4847 1.60153 17.6326 1.97385 17.6326H13.2043C13.5766 17.6326 13.9337 17.4847 14.197 17.2215C14.4602 16.9582 14.6081 16.6011 14.6081 16.2288V9.20978C14.6081 8.83746 14.4602 8.4804 14.197 8.21714C13.9337 7.95387 13.5766 7.80597 13.2043 7.80597H12.1515V5.3493C12.1515 4.13929 11.6708 2.97883 10.8152 2.12322C9.95956 1.2676 8.7991 0.786926 7.58908 0.786926C6.37906 0.786926 5.2186 1.2676 4.36299 2.12322C3.50738 2.97883 3.0267 4.13929 3.0267 5.3493ZM4.78146 7.80597V5.3493C4.78146 4.60468 5.07727 3.89055 5.6038 3.36402C6.13033 2.83749 6.84445 2.54169 7.58908 2.54169C8.33371 2.54169 9.04784 2.83749 9.57437 3.36402C10.1009 3.89055 10.3967 4.60468 10.3967 5.3493V7.80597H4.78146ZM6.18527 11.6664C6.18532 11.4232 6.24856 11.1842 6.36877 10.9728C6.48898 10.7614 6.66205 10.5849 6.87103 10.4605C7.08 10.3361 7.31771 10.2681 7.56085 10.2632C7.804 10.2583 8.04425 10.3167 8.25805 10.4326C8.47186 10.5485 8.65189 10.7179 8.78051 10.9243C8.90912 11.1307 8.98191 11.367 8.99174 11.61C9.00157 11.853 8.94811 12.0944 8.83658 12.3105C8.72506 12.5266 8.55931 12.7101 8.35556 12.8428L8.34994 12.8463C8.34994 12.8463 8.48682 13.6746 8.64124 14.6502V14.6509C8.64124 14.7904 8.58585 14.9241 8.48725 15.0227C8.38866 15.1213 8.25494 15.1767 8.11551 15.1767H7.06125C6.92182 15.1767 6.7881 15.1213 6.6895 15.0227C6.59091 14.9241 6.53552 14.7904 6.53552 14.6509V14.6502L6.82681 12.8463C6.62973 12.7191 6.46764 12.5445 6.35534 12.3385C6.24303 12.1326 6.18408 11.9017 6.18387 11.6671L6.18527 11.6664Z" fill="#0C2C7E"/>
</svg>
