<svg width="21" height="21" viewBox="0 0 21 21" fill="none" xmlns="http://www.w3.org/2000/svg">
<path d="M18.3036 1.46429H17.5714V0.732143C17.5714 0.327625 17.2438 0 16.8393 0C16.4348 0 16.1071 0.327625 16.1071 0.732143V1.46429H10.9821V0.732143C10.9821 0.327625 10.6545 0 10.25 0C9.84548 0 9.51786 0.327625 9.51786 0.732143V1.46429H4.39286V0.732143C4.39286 0.327625 4.06523 0 3.66071 0C3.2562 0 2.92857 0.327625 2.92857 0.732143V1.46429H2.19643C0.983813 1.46429 0 2.4481 0 3.66071V18.3036C0 19.5162 0.983813 20.5 2.19643 20.5H18.3036C19.5162 20.5 20.5 19.5162 20.5 18.3036V3.66071C20.5 2.4481 19.5162 1.46429 18.3036 1.46429ZM2.19643 2.92857H2.92857V3.66071C2.92857 4.06523 3.2562 4.39286 3.66071 4.39286C4.06523 4.39286 4.39286 4.06523 4.39286 3.66071V2.92857H9.51786V3.66071C9.51786 4.06523 9.84548 4.39286 10.25 4.39286C10.6545 4.39286 10.9821 4.06523 10.9821 3.66071V2.92857H16.1071V3.66071C16.1071 4.06523 16.4348 4.39286 16.8393 4.39286C17.2438 4.39286 17.5714 4.06523 17.5714 3.66071V2.92857H18.3036C18.4976 2.92857 18.6843 3.00545 18.8216 3.14272C18.9588 3.28 19.0357 3.46669 19.0357 3.6607V5.85713H1.46428V3.6607C1.46428 3.25619 1.79191 2.92857 2.19643 2.92857ZM18.3036 19.0357H2.19643C1.79191 19.0357 1.46429 18.7081 1.46429 18.3036V7.32143H19.0357V18.3036C19.0357 18.4976 18.9588 18.6843 18.8216 18.8216C18.6843 18.9588 18.4976 19.0357 18.3036 19.0357ZM5.85714 9.51786C5.85714 9.71187 5.78027 9.89857 5.64299 10.0358C5.50571 10.1731 5.31902 10.25 5.12501 10.25H4.39287C3.98835 10.25 3.66072 9.92237 3.66072 9.51785C3.66072 9.11333 3.98835 8.78571 4.39287 8.78571H5.12501C5.31903 8.78571 5.50572 8.86258 5.64299 8.99986C5.78027 9.13713 5.85714 9.32384 5.85714 9.51786ZM9.51786 9.51786C9.51786 9.71187 9.44098 9.89857 9.30371 10.0358C9.16643 10.1731 8.97974 10.25 8.78572 10.25H8.05358C7.64906 10.25 7.32144 9.92237 7.32144 9.51785C7.32144 9.11333 7.64906 8.78571 8.05358 8.78571H8.78572C8.97974 8.78571 9.16644 8.86258 9.30371 8.99986C9.44098 9.13713 9.51786 9.32384 9.51786 9.51786ZM13.1786 9.51786C13.1786 9.71187 13.1017 9.89857 12.9644 10.0358C12.8271 10.1731 12.6404 10.25 12.4464 10.25H11.7143C11.3098 10.25 10.9822 9.92237 10.9822 9.51785C10.9822 9.11333 11.3098 8.78571 11.7143 8.78571H12.4464C12.6405 8.78571 12.8272 8.86258 12.9644 8.99986C13.1017 9.13713 13.1786 9.32384 13.1786 9.51786ZM16.8393 9.51786C16.8393 9.71187 16.7624 9.89857 16.6251 10.0358C16.4879 10.1731 16.3012 10.25 16.1072 10.25H15.375C14.9705 10.25 14.6429 9.92237 14.6429 9.51785C14.6429 9.11333 14.9705 8.78571 15.375 8.78571H16.1072C16.3012 8.78571 16.4879 8.86258 16.6251 8.99986C16.7624 9.13713 16.8393 9.32384 16.8393 9.51786ZM5.85714 13.1786C5.85714 13.3726 5.78027 13.5593 5.64299 13.6966C5.50571 13.8338 5.31902 13.9107 5.12501 13.9107H4.39287C3.98835 13.9107 3.66072 13.5831 3.66072 13.1786C3.66072 12.774 3.98835 12.4464 4.39287 12.4464H5.12501C5.31903 12.4464 5.50572 12.5233 5.64299 12.6606C5.78027 12.7978 5.85714 12.9846 5.85714 13.1786ZM9.51786 13.1786C9.51786 13.3726 9.44098 13.5593 9.30371 13.6966C9.16643 13.8338 8.97974 13.9107 8.78572 13.9107H8.05358C7.64906 13.9107 7.32144 13.5831 7.32144 13.1786C7.32144 12.774 7.64906 12.4464 8.05358 12.4464H8.78572C8.97974 12.4464 9.16644 12.5233 9.30371 12.6606C9.44098 12.7978 9.51786 12.9846 9.51786 13.1786ZM13.1786 13.1786C13.1786 13.3726 13.1017 13.5593 12.9644 13.6966C12.8271 13.8338 12.6404 13.9107 12.4464 13.9107H11.7143C11.3098 13.9107 10.9822 13.5831 10.9822 13.1786C10.9822 12.774 11.3098 12.4464 11.7143 12.4464H12.4464C12.6405 12.4464 12.8272 12.5233 12.9644 12.6606C13.1017 12.7978 13.1786 12.9846 13.1786 13.1786ZM16.8393 13.1786C16.8393 13.3726 16.7624 13.5593 16.6251 13.6966C16.4879 13.8338 16.3012 13.9107 16.1072 13.9107H15.375C14.9705 13.9107 14.6429 13.5831 14.6429 13.1786C14.6429 12.774 14.9705 12.4464 15.375 12.4464H16.1072C16.3012 12.4464 16.4879 12.5233 16.6251 12.6606C16.7624 12.7978 16.8393 12.9846 16.8393 13.1786ZM5.85714 16.8393C5.85714 17.0333 5.78027 17.22 5.64299 17.3573C5.50571 17.4945 5.31902 17.5714 5.12501 17.5714H4.39287C3.98835 17.5714 3.66072 17.2438 3.66072 16.8393C3.66072 16.4348 3.98835 16.1071 4.39287 16.1071H5.12501C5.31903 16.1071 5.50572 16.184 5.64299 16.3213C5.78027 16.4586 5.85714 16.6453 5.85714 16.8393ZM9.51786 16.8393C9.51786 17.0333 9.44098 17.22 9.30371 17.3573C9.16643 17.4945 8.97974 17.5714 8.78572 17.5714H8.05358C7.64906 17.5714 7.32144 17.2438 7.32144 16.8393C7.32144 16.4348 7.64906 16.1071 8.05358 16.1071H8.78572C8.97974 16.1071 9.16644 16.184 9.30371 16.3213C9.44098 16.4586 9.51786 16.6453 9.51786 16.8393Z" fill="#0C2C7E"/>
</svg>
