<svg width="17" height="18" viewBox="0 0 17 18" fill="none" xmlns="http://www.w3.org/2000/svg">
<path fill-rule="evenodd" clip-rule="evenodd" d="M16.7134 17.7098H0.608124V15.8212H16.7134V17.7098Z" fill="#0C2C7E"/>
<path fill-rule="evenodd" clip-rule="evenodd" d="M1.21211 9.20979C1.21211 8.68828 1.57296 8.26505 2.01761 8.26505H4.83568C5.28033 8.26505 5.64118 8.68828 5.64118 9.20979V16.765C5.64118 17.2866 5.28033 17.7098 4.83568 17.7098H2.01761C1.57296 17.7098 1.21211 17.2866 1.21211 16.765V9.20979ZM2.82308 10.1545V15.8212H4.03094V10.1545H2.82308Z" fill="#0C2C7E"/>
<path fill-rule="evenodd" clip-rule="evenodd" d="M6.44663 5.43169C6.44663 4.91017 6.80673 4.48782 7.25137 4.48782H10.0702C10.5149 4.48782 10.875 4.91017 10.875 5.43169V16.765C10.875 17.2865 10.5149 17.7098 10.0702 17.7098H7.25137C6.80673 17.7098 6.44663 17.2865 6.44663 16.765V5.43169ZM8.05685 6.37643V15.8212H9.26471V6.37643H8.05685Z" fill="#0C2C7E"/>
<path fill-rule="evenodd" clip-rule="evenodd" d="M11.6804 1.65452C11.6804 1.13301 12.0412 0.709778 12.4859 0.709778H15.304C15.7486 0.709778 16.1094 1.13301 16.1094 1.65452V16.765C16.1094 17.2865 15.7486 17.7098 15.304 17.7098H12.4859C12.0412 17.7098 11.6804 17.2865 11.6804 16.765V1.65452ZM13.2906 2.59839V15.8212H14.4985V2.59839H13.2906Z" fill="#0C2C7E"/>
</svg>
