<svg width="17" height="17" viewBox="0 0 17 17" fill="none" xmlns="http://www.w3.org/2000/svg">
<path d="M3.27072 0.315387C2.56411 0.316012 1.88662 0.596988 1.38697 1.09664C0.88732 1.59629 0.606343 2.27378 0.605718 2.98039C0.604748 3.45938 0.734397 3.92958 0.980718 4.34039L2.90072 7.23039C2.94258 7.28983 2.99794 7.3385 3.06226 7.3724C3.12658 7.4063 3.19802 7.42446 3.27072 7.42539C3.34363 7.4256 3.41549 7.40794 3.47999 7.37394C3.54449 7.33995 3.59968 7.29066 3.64072 7.23039L5.57572 4.32039C5.81295 3.91553 5.93886 3.45513 5.94069 2.98589C5.94252 2.51666 5.8202 2.05529 5.58613 1.64859C5.35207 1.2419 5.01459 0.904358 4.60795 0.670212C4.2013 0.436067 3.73995 0.313651 3.27072 0.315387ZM3.27072 3.87039C3.0954 3.86989 2.92416 3.81749 2.77859 3.71978C2.63303 3.62207 2.51966 3.48343 2.4528 3.32137C2.38594 3.1593 2.36857 2.98106 2.4029 2.80913C2.43722 2.63721 2.5217 2.4793 2.64567 2.35533C2.76963 2.23137 2.92754 2.14689 3.09947 2.11257C3.27139 2.07824 3.44963 2.09561 3.6117 2.16247C3.77376 2.22933 3.9124 2.3427 4.01011 2.48826C4.10782 2.63383 4.16022 2.80507 4.16072 2.98039C4.16145 3.09747 4.13893 3.21353 4.09446 3.32184C4.04999 3.43015 3.98446 3.52855 3.90167 3.61134C3.81888 3.69413 3.72048 3.75966 3.61217 3.80413C3.50386 3.8486 3.3878 3.87112 3.27072 3.87039Z" fill="#0C2C7E"/>
<path d="M11.8757 3.42529C10.6217 3.42692 9.41954 3.92578 8.53284 4.81248C7.64615 5.69917 7.14729 6.90132 7.14566 8.15529C7.14383 8.99811 7.37016 9.82571 7.80066 10.5503L11.5057 16.1153C11.5456 16.177 11.6005 16.2276 11.6651 16.2626C11.7298 16.2975 11.8022 16.3156 11.8757 16.3153C11.949 16.3151 12.0212 16.2967 12.0858 16.2618C12.1503 16.2269 12.2053 16.1766 12.2457 16.1153L15.6507 11.0053L15.9607 10.5303C16.3859 9.81126 16.6087 8.99063 16.6057 8.15529C16.604 6.90132 16.1052 5.69917 15.2185 4.81248C14.3318 3.92579 13.1296 3.42693 11.8757 3.42529ZM11.8757 9.87029C11.5365 9.87029 11.2049 9.76971 10.9229 9.58126C10.6408 9.39282 10.421 9.12497 10.2912 8.8116C10.1614 8.49822 10.1274 8.15339 10.1936 7.82071C10.2598 7.48804 10.4231 7.18245 10.663 6.94261C10.9028 6.70276 11.2084 6.53942 11.5411 6.47325C11.8738 6.40707 12.2186 6.44104 12.532 6.57084C12.8453 6.70064 13.1132 6.92046 13.3016 7.20249C13.4901 7.48452 13.5907 7.8161 13.5907 8.15529C13.5907 8.38053 13.5464 8.60356 13.4602 8.81166C13.3741 9.01976 13.2477 9.20884 13.0885 9.3681C12.9292 9.52737 12.7401 9.65369 12.532 9.73986C12.3239 9.82603 12.1009 9.87035 11.8757 9.87029Z" fill="#0C2C7E"/>
<path d="M9.93906 15.4265C8.28939 15.4246 6.70782 14.7685 5.54132 13.602C4.37483 12.4355 3.71868 10.8539 3.71683 9.20426V8.75981C3.71683 8.64194 3.67001 8.52889 3.58666 8.44554C3.50331 8.36219 3.39026 8.31537 3.27239 8.31537C3.15451 8.31537 3.04147 8.36219 2.95812 8.44554C2.87477 8.52889 2.82794 8.64194 2.82794 8.75981V9.20426C2.8301 11.0896 3.58 12.8971 4.91312 14.2302C6.24625 15.5633 8.05374 16.3132 9.93906 16.3154C10.0569 16.3154 10.17 16.2685 10.2533 16.1852C10.3367 16.1018 10.3835 15.9888 10.3835 15.8709C10.3835 15.7531 10.3367 15.64 10.2533 15.5567C10.17 15.4733 10.0569 15.4265 9.93906 15.4265Z" fill="#0C2C7E"/>
</svg>
