<svg width="17" height="13" viewBox="0 0 17 13" fill="none" xmlns="http://www.w3.org/2000/svg">
<path d="M15.5793 12.7217H1.43613C0.717552 12.7217 0.133011 12.0591 0.133011 11.2448V2.25524C0.133011 1.44088 0.717552 0.77832 1.43613 0.77832H15.5793C16.2979 0.77832 16.8824 1.44088 16.8824 2.25524V11.2448C16.8824 12.0591 16.2979 12.7217 15.5793 12.7217ZM1.43613 1.77737C1.20369 1.77737 1.01456 1.99172 1.01456 2.25524V11.2448C1.01456 11.5083 1.20369 11.7226 1.43613 11.7226H15.5793C15.8117 11.7226 16.0009 11.5083 16.0009 11.2448V2.25524C16.0009 1.99172 15.8117 1.77737 15.5793 1.77737H1.43613Z" fill="#0C2C7E"/>
<path d="M8.50735 7.28656C8.04394 7.28656 7.58052 7.13523 7.17625 6.83249L0.978713 2.1804C0.784081 2.0343 0.729866 1.76552 0.852646 1.55539C0.997168 1.30806 1.32497 1.24194 1.55407 1.41391L7.66257 5.9992C8.17591 6.3836 8.8394 6.38341 9.35291 5.99891L15.461 1.41392C15.6901 1.24195 16.0179 1.30806 16.1624 1.5554C16.2852 1.76552 16.231 2.0343 16.0363 2.1804L9.83923 6.8322C9.43461 7.13514 8.97094 7.28656 8.50735 7.28656Z" fill="#0C2C7E"/>
</svg>
