<svg width="17" height="17" viewBox="0 0 17 17" fill="none" xmlns="http://www.w3.org/2000/svg">
<path d="M1.3046 2.70324C1.08998 2.48862 0.969403 2.19754 0.969403 1.89402C0.969403 1.5905 1.08998 1.29941 1.3046 1.08479C1.51922 0.870169 1.8103 0.749596 2.11382 0.749596C2.41734 0.749596 2.70843 0.870169 2.92305 1.08479L8.9675 7.13114L15.0139 1.08669C15.2285 0.872072 15.5196 0.7515 15.8231 0.7515C16.1266 0.7515 16.4177 0.872072 16.6323 1.08669C16.8469 1.30131 16.9675 1.5924 16.9675 1.89592C16.9675 2.19944 16.8469 2.49053 16.6323 2.70515L10.586 8.7496L16.6304 14.796C16.845 15.0106 16.9656 15.3017 16.9656 15.6052C16.9656 15.9087 16.845 16.1998 16.6304 16.4144C16.4158 16.629 16.1247 16.7496 15.8212 16.7496C15.5177 16.7496 15.2266 16.629 15.0119 16.4144L8.9675 10.3681L2.92115 16.4154C2.70653 16.63 2.41544 16.7505 2.11192 16.7505C1.8084 16.7505 1.51731 16.63 1.30269 16.4154C1.08807 16.2007 0.967501 15.9096 0.967501 15.6061C0.967501 15.3026 1.08807 15.0115 1.30269 14.7969L7.34904 8.7496L1.3046 2.70324Z" fill="#0C2C7E"/>
</svg>
