<svg width="14" height="14" viewBox="0 0 14 14" fill="none" xmlns="http://www.w3.org/2000/svg">
<path d="M1.10163 1.60883C0.924887 1.43209 0.825595 1.19238 0.825595 0.942429C0.825595 0.692481 0.924887 0.452771 1.10163 0.276031C1.27837 0.0992918 1.51807 0 1.76802 0C2.01797 0 2.25768 0.0992918 2.43442 0.276031L7.41201 5.25519L12.3912 0.277598C12.5679 0.10086 12.8076 0.00156784 13.0576 0.00156784C13.3075 0.00156784 13.5472 0.10086 13.724 0.277598C13.9007 0.454338 14 0.694049 14 0.943995C14 1.19394 13.9007 1.43365 13.724 1.61039L8.74481 6.58799L13.7224 11.5671C13.8991 11.7439 13.9984 11.9836 13.9984 12.2335C13.9984 12.4835 13.8991 12.7232 13.7224 12.8999C13.5457 13.0767 13.306 13.176 13.056 13.176C12.8061 13.176 12.5663 13.0767 12.3896 12.8999L7.41201 7.92078L2.43285 12.9007C2.25611 13.0775 2.0164 13.1768 1.76646 13.1768C1.51651 13.1768 1.2768 13.0775 1.10006 12.9007C0.923319 12.724 0.824028 12.4843 0.824028 12.2343C0.824028 11.9844 0.923319 11.7447 1.10006 11.5679L6.07922 6.58799L1.10163 1.60883Z" fill="#EFF6FF"/>
</svg>
