<svg width="32" height="32" viewBox="0 0 32 32" fill="none" xmlns="http://www.w3.org/2000/svg">
<path d="M1.2973 6.78356H3.64385C3.92524 7.77947 4.52411 8.65628 5.34941 9.2807C6.17471 9.90513 7.18131 10.243 8.21622 10.243C9.25112 10.243 10.2577 9.90513 11.083 9.2807C11.9083 8.65628 12.5072 7.77947 12.7886 6.78356H30.7027C31.0468 6.78356 31.3767 6.64688 31.62 6.40359C31.8633 6.1603 32 5.83032 32 5.48626C32 5.14219 31.8633 4.81222 31.62 4.56893C31.3767 4.32564 31.0468 4.18896 30.7027 4.18896H12.7886C12.5072 3.19304 11.9083 2.31623 11.083 1.69181C10.2577 1.06739 9.25112 0.729492 8.21622 0.729492C7.18131 0.729492 6.17471 1.06739 5.34941 1.69181C4.52411 2.31623 3.92524 3.19304 3.64385 4.18896H1.2973C0.953235 4.18896 0.623261 4.32564 0.37997 4.56893C0.136679 4.81222 0 5.14219 0 5.48626C0 5.83032 0.136679 6.1603 0.37997 6.40359C0.623261 6.64688 0.953235 6.78356 1.2973 6.78356ZM8.21622 3.32407C8.64385 3.32407 9.06188 3.45088 9.41745 3.68846C9.77301 3.92604 10.0501 4.26372 10.2138 4.6588C10.3774 5.05389 10.4203 5.48862 10.3368 5.90804C10.2534 6.32746 10.0475 6.71271 9.7451 7.0151C9.44271 7.31748 9.05746 7.52341 8.63804 7.60684C8.21863 7.69027 7.78389 7.64745 7.38881 7.48381C6.99372 7.32017 6.65604 7.04304 6.41845 6.68748C6.18087 6.33192 6.05406 5.91389 6.05405 5.48626C6.05471 4.91302 6.28273 4.36344 6.68807 3.9581C7.09341 3.55275 7.64298 3.32474 8.21622 3.32407Z" fill="#0C2C7E"/>
<path d="M30.7027 14.7026H27.4913C27.2099 13.7067 26.611 12.8299 25.7857 12.2055C24.9604 11.5811 23.9538 11.2432 22.9189 11.2432C21.884 11.2432 20.8774 11.5811 20.0521 12.2055C19.2268 12.8299 18.6279 13.7067 18.3465 14.7026H1.2973C0.953235 14.7026 0.623261 14.8393 0.37997 15.0826C0.136679 15.3259 0 15.6559 0 15.9999C0 16.344 0.136679 16.674 0.37997 16.9173C0.623261 17.1606 0.953235 17.2972 1.2973 17.2972H18.3465C18.6279 18.2931 19.2268 19.17 20.0521 19.7944C20.8774 20.4188 21.884 20.7567 22.9189 20.7567C23.9538 20.7567 24.9604 20.4188 25.7857 19.7944C26.611 19.17 27.2099 18.2931 27.4913 17.2972H30.7027C31.0468 17.2972 31.3767 17.1606 31.62 16.9173C31.8633 16.674 32 16.344 32 15.9999C32 15.6559 31.8633 15.3259 31.62 15.0826C31.3767 14.8393 31.0468 14.7026 30.7027 14.7026ZM22.9189 18.1621C22.4913 18.1621 22.0733 18.0353 21.7177 17.7977C21.3621 17.5601 21.085 17.2224 20.9213 16.8274C20.7577 16.4323 20.7149 15.9975 20.7983 15.5781C20.8817 15.1587 21.0877 14.7734 21.39 14.4711C21.6924 14.1687 22.0777 13.9627 22.4971 13.8793C22.9165 13.7959 23.3513 13.8387 23.7463 14.0024C24.1414 14.166 24.4791 14.4431 24.7167 14.7987C24.9543 15.1543 25.0811 15.5723 25.0811 15.9999C25.0804 16.5732 24.8524 17.1227 24.4471 17.5281C24.0417 17.9334 23.4922 18.1614 22.9189 18.1621Z" fill="#0C2C7E"/>
<path d="M30.7027 25.2158H12.7886C12.5072 24.2199 11.9083 23.3431 11.083 22.7187C10.2577 22.0942 9.25112 21.7563 8.21622 21.7563C7.18131 21.7563 6.17471 22.0942 5.34941 22.7187C4.52411 23.3431 3.92524 24.2199 3.64385 25.2158H1.2973C0.953235 25.2158 0.623261 25.3525 0.37997 25.5958C0.136679 25.8391 0 26.169 0 26.5131C0 26.8572 0.136679 27.1872 0.37997 27.4304C0.623261 27.6737 0.953235 27.8104 1.2973 27.8104H3.64385C3.92524 28.8063 4.52411 29.6831 5.34941 30.3076C6.17471 30.932 7.18131 31.2699 8.21622 31.2699C9.25112 31.2699 10.2577 30.932 11.083 30.3076C11.9083 29.6831 12.5072 28.8063 12.7886 27.8104H30.7027C31.0468 27.8104 31.3767 27.6737 31.62 27.4304C31.8633 27.1872 32 26.8572 32 26.5131C32 26.169 31.8633 25.8391 31.62 25.5958C31.3767 25.3525 31.0468 25.2158 30.7027 25.2158ZM8.21622 28.6753C7.78859 28.6753 7.37055 28.5485 7.01499 28.3109C6.65942 28.0733 6.38229 27.7356 6.21865 27.3406C6.055 26.9455 6.01218 26.5107 6.0956 26.0913C6.17903 25.6719 6.38496 25.2866 6.68734 24.9843C6.98973 24.6819 7.37499 24.476 7.7944 24.3925C8.21382 24.3091 8.64856 24.3519 9.04364 24.5156C9.43873 24.6792 9.77641 24.9563 10.014 25.3119C10.2516 25.6675 10.3784 26.0855 10.3784 26.5131C10.3777 27.0864 10.1497 27.6359 9.74435 28.0413C9.33902 28.4466 8.78945 28.6746 8.21622 28.6753Z" fill="#0C2C7E"/>
</svg>
