<svg width="18" height="14" viewBox="0 0 18 14" fill="none" xmlns="http://www.w3.org/2000/svg">
<path d="M10.0646 0.807415C10.184 0.802041 10.301 0.842969 10.391 0.921673L17.3553 6.95739C17.4053 7.00098 17.4454 7.05477 17.4729 7.11515C17.5003 7.17553 17.5145 7.24109 17.5145 7.30742C17.5145 7.37375 17.5003 7.43931 17.4729 7.49969C17.4454 7.56007 17.4053 7.61386 17.3553 7.65745L10.391 13.6932C10.3238 13.7516 10.2412 13.7895 10.1531 13.8022C10.065 13.815 9.97505 13.8022 9.89401 13.7653C9.81296 13.7285 9.74424 13.669 9.69602 13.5942C9.6478 13.5193 9.62212 13.4322 9.62204 13.3431V1.2717C9.62206 1.18259 9.64771 1.09536 9.69595 1.02043C9.74419 0.945499 9.81297 0.886033 9.89409 0.849129C9.94774 0.824513 10.0056 0.810356 10.0646 0.807415Z" fill="#0C2C7E"/>
<path d="M1.24322 0.807415C1.36269 0.802041 1.47962 0.842969 1.56967 0.921673L8.53396 6.95739C8.58396 7.00098 8.62404 7.05477 8.65151 7.11515C8.67898 7.17553 8.69319 7.24109 8.69319 7.30742C8.69319 7.37375 8.67898 7.43931 8.65151 7.49969C8.62404 7.56007 8.58396 7.61386 8.53396 7.65745L1.56967 13.6932C1.50247 13.7516 1.41988 13.7895 1.33176 13.8022C1.24364 13.815 1.1537 13.8022 1.07266 13.7653C0.991614 13.7285 0.922887 13.669 0.874667 13.5942C0.826447 13.5193 0.800769 13.4322 0.800693 13.3431V1.2717C0.800707 1.18259 0.826365 1.09536 0.874603 1.02043C0.922842 0.945499 0.991621 0.886033 1.07274 0.849129C1.12639 0.824513 1.18425 0.810356 1.24322 0.807415Z" fill="#0C2C7E"/>
</svg>
