<svg width="26" height="17" viewBox="0 0 26 17" fill="none" xmlns="http://www.w3.org/2000/svg">
<path d="M25.3148 8.04051C25.3268 8.48225 24.8602 8.84702 24.2726 8.85602L21.2071 8.902L19.1134 15.496C18.9991 15.8568 18.571 16.1096 18.0792 16.1096H18.0699C17.574 16.1066 17.1473 15.8458 17.041 15.482L13.8452 4.58336L11.6744 12.2777C11.5733 12.6345 11.1639 12.8954 10.6774 12.9104C10.2254 12.9234 9.75481 12.6925 9.61521 12.3407L7.11737 6.07933L5.16587 8.52488C4.97311 8.76573 4.62749 8.91264 4.25393 8.91264H1.06348C0.475896 8.91264 0 8.55486 0 8.11312C0 7.67137 0.475896 7.31359 1.06348 7.31359H3.65174L6.53244 3.70383C6.74912 3.43199 7.15991 3.2811 7.57598 3.32206C7.99341 3.36103 8.34168 3.58289 8.46267 3.88572L10.4567 8.88473L12.7844 0.633633C12.8881 0.265852 13.3201 0.00199561 13.82 0C14.3278 0.00899459 14.7545 0.259839 14.8622 0.62762L18.1191 11.735L19.3275 7.92824C19.4391 7.57445 19.8566 7.3216 20.3405 7.31461L24.2289 7.25565C24.8271 7.26764 25.3017 7.59744 25.3136 8.03918L25.3148 8.04051Z" fill="#FFA653"/>
</svg>
