<svg width="33" height="21" viewBox="0 0 33 21" fill="none" xmlns="http://www.w3.org/2000/svg">
<path d="M32.9997 10.4814C33.0153 11.0572 32.4071 11.5327 31.6411 11.5445L27.645 11.6044L24.9157 20.2001C24.7667 20.6704 24.2087 21 23.5675 21H23.5554C22.909 20.9961 22.3528 20.6561 22.2141 20.1819L18.0482 5.97474L15.2184 16.0049C15.0867 16.47 14.553 16.81 13.9187 16.8296C13.3295 16.8465 12.7161 16.5456 12.5341 16.087L9.278 7.92484L6.73408 11.1128C6.48281 11.4268 6.03227 11.6183 5.5453 11.6183H1.38633C0.620364 11.6183 0 11.1519 0 10.576C0 10.0002 0.620364 9.53379 1.38633 9.53379H4.76031L8.5155 4.82821C8.79796 4.47385 9.33345 4.27714 9.87583 4.33054C10.42 4.38135 10.874 4.67056 11.0317 5.06531L13.6311 11.5819L16.6654 0.825986C16.8005 0.346557 17.3637 0.00260142 18.0153 0C18.6773 0.0117251 19.2335 0.338719 19.3739 0.818148L23.6195 15.2974L25.1947 10.335C25.3403 9.87384 25.8844 9.54423 26.5152 9.53512L31.5841 9.45826C32.3639 9.47389 32.9825 9.9038 32.9981 10.4796L32.9997 10.4814Z" fill="#0C2C7E"/>
</svg>
