<svg width="23" height="15" viewBox="0 0 23 15" fill="none" xmlns="http://www.w3.org/2000/svg">
<path d="M22.8881 7.30295C22.8985 7.68685 22.493 8.00385 21.9824 8.01167L19.3184 8.05163L17.4988 13.7821C17.3995 14.0956 17.0275 14.3154 16.6 14.3154H16.5919C16.161 14.3128 15.7902 14.0861 15.6978 13.7699L12.9205 4.29853L11.0339 10.9853C10.9461 11.2954 10.5903 11.5221 10.1675 11.5351C9.77469 11.5464 9.36573 11.3458 9.24441 11.04L7.07367 5.5986L5.37772 7.72389C5.21021 7.93321 4.90985 8.06088 4.5852 8.06088H1.81255C1.30191 8.06088 0.888336 7.74995 0.888336 7.36605C0.888336 6.98215 1.30191 6.67123 1.81255 6.67123H4.06188L6.56533 3.53418C6.75364 3.29794 7.11064 3.1668 7.47222 3.20239C7.83499 3.23627 8.13766 3.42907 8.2428 3.69224L9.97571 8.03662L11.9986 0.866026C12.0887 0.546406 12.4641 0.317103 12.8985 0.315369C13.3399 0.323185 13.7107 0.541181 13.8043 0.860801L16.6347 10.5136L17.6848 7.20539C17.7819 6.89793 18.1446 6.67819 18.5652 6.67212L21.9444 6.62087C22.4643 6.63129 22.8767 6.9179 22.8871 7.3018L22.8881 7.30295Z" fill="#0C2C7E"/>
</svg>
