<svg width="24" height="17" viewBox="0 0 24 17" fill="none" xmlns="http://www.w3.org/2000/svg">
<path fill-rule="evenodd" clip-rule="evenodd" d="M12.8907 16.1302C12.8907 16.1302 7.60472 13.0545 4.63587 9.77814H1.16015C0.436038 9.77814 0.436038 8.84204 1.16015 8.84204C3.11524 8.84204 5.14275 8.84204 7.09784 8.84204C7.31507 8.84204 7.4599 8.70831 7.60472 8.57458L8.25642 7.50475L9.77704 12.4527C9.92187 12.9876 10.7184 12.9208 10.7908 12.4527L13.1079 5.23136L14.9182 10.4468C15.063 10.848 15.6423 10.9148 15.8596 10.5805L17.0905 8.84204H19.5525C20.2042 8.84204 20.2042 7.83907 19.5525 7.83907H16.8733C16.6561 7.83907 16.5113 7.9728 16.4388 8.10653L15.5699 9.24322L13.5424 3.42602C13.3976 2.95797 12.7459 2.95797 12.6011 3.42602L10.2839 10.5805L8.90811 6.16746C8.8357 5.76628 8.25642 5.69941 7.96677 6.1006L6.8082 7.83907H3.18765C2.89801 7.30416 2.75319 6.76924 2.75319 6.23433C2.75319 0.0828068 10.3563 -1.52194 12.8907 2.48992C15.4251 -1.52194 23.1007 0.0828068 23.1007 6.23433C23.1007 10.1793 12.8907 16.1302 12.8907 16.1302Z" fill="#0C2C7E"/>
</svg>
