<svg width="18" height="16" viewBox="0 0 18 16" fill="none" xmlns="http://www.w3.org/2000/svg">
<path fill-rule="evenodd" clip-rule="evenodd" d="M2.34124 0.363079C2.14934 0.196875 1.85767 0.216124 1.68977 0.406074L1.08173 1.09394C0.913831 1.28388 0.933276 1.5726 1.12517 1.73882L4.09842 4.31409C1.96869 5.7868 1.15734 7.75001 1.15734 7.75001C1.15734 7.75001 3.23489 12.7771 9.46751 12.7771C10.8868 12.7771 12.0906 12.5164 13.1035 12.1138L16.5938 15.1369C16.7856 15.3031 17.0773 15.2839 17.2452 15.0939L17.8532 14.406C18.0212 14.2161 18.0017 13.9274 17.8098 13.7612L2.34124 0.363079ZM11.0087 10.2995L6.71005 6.57614C6.55341 6.93626 6.46663 7.33313 6.46663 7.75001C6.46663 9.39066 7.81018 10.7206 9.46751 10.7206C10.031 10.7206 10.5583 10.5668 11.0087 10.2995ZM12.4684 7.75001C12.4684 7.90027 12.4571 8.04788 12.4354 8.19212L15.4012 10.761C17.1113 9.36251 17.7777 7.75001 17.7777 7.75001C17.7777 7.75001 15.7002 2.72295 9.46751 2.72295C8.38515 2.72295 7.42805 2.87457 6.5854 3.12515L8.63058 4.89656C8.89623 4.82034 9.17702 4.77949 9.46751 4.77949C11.1249 4.77949 12.4684 6.10944 12.4684 7.75001Z" fill="#0C2C7E"/>
</svg>
