<svg width="18" height="18" viewBox="0 0 18 18" fill="none" xmlns="http://www.w3.org/2000/svg">
<path d="M9.4675 0.25C14.1561 0.25 17.9675 4.0648 17.9675 8.75C17.9675 13.4386 14.1561 17.25 9.4675 17.25C4.7823 17.25 0.967499 13.4386 0.967499 8.75C0.967499 4.0648 4.7823 0.25 9.4675 0.25ZM9.4675 14.9482C10.2631 14.9482 10.9057 14.3022 10.9057 13.51C10.9057 12.7178 10.2631 12.0718 9.4675 12.0718C8.6753 12.0718 8.0293 12.7178 8.0293 13.51C8.0293 14.3022 8.6753 14.9482 9.4675 14.9482ZM8.0701 9.8788C8.1007 10.6302 8.7161 11.2184 9.4675 11.2184C10.2189 11.2184 10.8343 10.6302 10.8683 9.8788L11.1199 4.279C11.1403 3.8234 10.9771 3.3916 10.6609 3.0618C10.3481 2.732 9.9231 2.5518 9.4675 2.5518C9.0119 2.5518 8.5869 2.732 8.2741 3.0618C7.9579 3.3916 7.7981 3.8234 7.8185 4.279L8.0701 9.8788Z" fill="#0C2C7E"/>
</svg>
