<svg width="17" height="19" viewBox="0 0 17 19" fill="none" xmlns="http://www.w3.org/2000/svg">
<path fill-rule="evenodd" clip-rule="evenodd" d="M8.90005 6.59362V5.01662C6.37606 5.01262 4.12207 6.82562 3.64607 9.41961C3.17508 11.9826 4.58107 14.5116 6.98906 15.4336C7.67806 15.6976 8.02406 16.4736 7.76306 17.1696C7.53106 17.7876 6.89606 18.1326 6.27506 18.0166C6.19706 18.0026 6.11906 17.9806 6.04306 17.9516C2.42808 16.5696 0.317086 12.7746 1.02408 8.93061C1.73808 5.04162 5.11707 2.33263 8.90005 2.33763V1.03064C8.90005 0.403642 9.68905 0.0806429 10.167 0.513641L13.241 3.29463C13.552 3.57663 13.552 4.04863 13.241 4.33063L10.167 7.11162C9.68905 7.54361 8.90005 7.22162 8.90005 6.59362ZM10.663 15.4766C10.465 15.5486 10.261 15.6086 10.055 15.6546C9.33605 15.8156 8.88105 16.5346 9.04005 17.2606C9.15905 17.8046 9.58905 18.1976 10.099 18.2936C10.27 18.3246 10.45 18.3236 10.63 18.2836C10.944 18.2126 11.253 18.1226 11.555 18.0146C12.248 17.7656 12.612 16.9946 12.366 16.2946C12.119 15.5936 11.355 15.2276 10.663 15.4766ZM13.314 13.4056C13.257 13.4916 13.198 13.5756 13.135 13.6576C12.686 14.2466 12.794 15.0916 13.378 15.5456C13.552 15.6796 13.746 15.7646 13.948 15.8016C14.424 15.8906 14.932 15.7136 15.249 15.2986C15.344 15.1726 15.437 15.0426 15.526 14.9096C15.937 14.2926 15.776 13.4566 15.166 13.0406C14.555 12.6276 13.726 12.7886 13.314 13.4056ZM15.59 9.27561C14.854 9.25561 14.24 9.86861 14.221 10.6126C14.203 11.2816 14.673 11.8396 15.305 11.9576C15.373 11.9706 15.444 11.9786 15.515 11.9796C16.25 12.0016 16.864 11.4046 16.887 10.6616C16.887 10.6596 16.888 10.6326 16.888 10.6306C16.908 9.88661 16.321 9.28861 15.59 9.27561Z" fill="#0C2C7E"/>
</svg>
