<svg width="14" height="19" viewBox="0 0 14 19" fill="none" xmlns="http://www.w3.org/2000/svg">
<path fill-rule="evenodd" clip-rule="evenodd" d="M12.0909 0.300659C12.5976 0.300659 13.0828 0.501909 13.4408 0.859865C13.7987 1.21702 14 1.70304 14 2.20975V16.2098C14 16.7157 13.7988 17.2017 13.4408 17.5596C13.0828 17.9168 12.5976 18.1188 12.0909 18.1188H1.90909C1.40238 18.1188 0.917158 17.9168 0.559206 17.5596C0.201254 17.2017 0 16.7157 0 16.2098V2.20975C0 1.70304 0.20125 1.21702 0.559206 0.859865C0.917158 0.501913 1.40238 0.300659 1.90909 0.300659H12.0909ZM3.4999 12.3908C2.62172 12.3908 1.90899 13.1035 1.90899 13.9825C1.90899 14.8606 2.62172 15.5734 3.4999 15.5734C4.37808 15.5734 5.09081 14.8606 5.09081 13.9825C5.09081 13.1035 4.37808 12.3908 3.4999 12.3908ZM3.4999 13.6643C3.67569 13.6643 3.81808 13.8067 3.81808 13.9825C3.81808 14.1583 3.67569 14.3006 3.4999 14.3006C3.3241 14.3006 3.18172 14.1583 3.18172 13.9825C3.18172 13.8067 3.3241 13.6643 3.4999 13.6643ZM3.4999 2.84528C2.62172 2.84528 1.90899 3.5588 1.90899 4.43698C1.90899 5.31516 2.62172 6.02789 3.4999 6.02789C4.37808 6.02789 5.09081 5.31516 5.09081 4.43698C5.09081 3.5588 4.37808 2.84528 3.4999 2.84528ZM3.4999 4.11801C3.67569 4.11801 3.81808 4.26119 3.81808 4.43698C3.81808 4.61278 3.67569 4.75437 3.4999 4.75437C3.3241 4.75437 3.18172 4.61278 3.18172 4.43698C3.18172 4.26118 3.3241 4.11801 3.4999 4.11801ZM3.4999 7.61811C2.62172 7.61811 1.90899 8.33163 1.90899 9.20981C1.90899 10.088 2.62172 10.8007 3.4999 10.8007C4.37808 10.8007 5.09081 10.088 5.09081 9.20981C5.09081 8.33163 4.37808 7.61811 3.4999 7.61811ZM3.4999 8.89083C3.67569 8.89083 3.81808 9.03402 3.81808 9.20981C3.81808 9.38561 3.67569 9.52799 3.4999 9.52799C3.3241 9.52799 3.18172 9.38561 3.18172 9.20981C3.18172 9.03402 3.3241 8.89083 3.4999 8.89083ZM7 14.6181H11.4545C11.8061 14.6181 12.0909 14.3341 12.0909 13.9825C12.0909 13.6309 11.8061 13.3462 11.4545 13.3462H7C6.6484 13.3462 6.36364 13.6309 6.36364 13.9825C6.36364 14.3341 6.6484 14.6181 7 14.6181ZM7 5.07347H11.4545C11.8061 5.07347 12.0909 4.78791 12.0909 4.4371C12.0909 4.08551 11.8061 3.80074 11.4545 3.80074H7C6.6484 3.80074 6.36364 4.08551 6.36364 4.4371C6.36364 4.78791 6.6484 5.07347 7 5.07347ZM7 9.8463H11.4545C11.8061 9.8463 12.0909 9.56074 12.0909 9.20993C12.0909 8.85913 11.8061 8.57357 11.4545 8.57357H7C6.6484 8.57357 6.36364 8.85913 6.36364 9.20993C6.36364 9.56074 6.6484 9.8463 7 9.8463Z" fill="#0C2C7E"/>
</svg>
