<svg width="20" height="23" viewBox="0 0 20 23" fill="none" xmlns="http://www.w3.org/2000/svg">
<path d="M17.5086 21.8072L18.6145 20.7271H17.5086V21.8072ZM13.0022 10.359C13.007 10.3447 13.0168 10.3352 13.0217 10.3257C13.3237 9.82607 13.5527 9.35025 13.6209 8.92677C14.0399 6.31928 12.3347 3.93542 9.49936 3.93542C6.66397 3.93542 4.95884 6.32404 5.38269 8.92677C5.61166 10.3304 7.58961 12.3003 8.16936 13.9943H10.8342C11.2483 12.7809 12.3055 11.5105 13.0022 10.359ZM14.3614 2.46038C14.6342 2.19392 15.0581 2.59837 14.7804 2.86958L13.7232 3.90211C13.4504 4.16857 13.0265 3.76412 13.3042 3.49291L14.3614 2.46038ZM16.9922 7.32326C17.3819 7.32326 17.3819 7.90376 16.9922 7.90376H15.4917C15.1019 7.90376 15.1019 7.32326 15.4917 7.32326H16.9922ZM4.17448 2.81248C3.90166 2.54603 4.31577 2.13206 4.59346 2.40328L5.65551 3.43581C5.92833 3.70227 5.51423 4.11623 5.23654 3.84501L4.17448 2.81248ZM2.08448 7.899C1.69474 7.899 1.69474 7.32326 2.08448 7.32326H3.585C3.97474 7.32326 3.97474 7.899 3.585 7.899H2.08448ZM9.20705 0.785492C9.20705 0.404836 9.80141 0.404836 9.80141 0.785492V2.25102C9.80141 2.63167 9.20705 2.63167 9.20705 2.25102V0.785492ZM7.66756 16.5684H11.3409C11.6088 16.5684 11.6088 15.8595 11.3409 15.8595H7.66756C7.39961 15.8595 7.39961 16.5684 7.66756 16.5684ZM11.3409 14.57H7.66756C7.39961 14.57 7.39961 15.279 7.66756 15.279H11.3409C11.6088 15.279 11.6088 14.57 11.3409 14.57ZM7.0732 15.5692C7.00987 15.4836 6.95628 15.3836 6.92218 15.2742C6.8491 15.0506 6.8491 14.8031 6.92218 14.5795C7.01474 14.2845 7.21936 14.0513 7.54089 14.0038C7.14141 12.9903 6.17679 11.7722 5.54833 10.7539C3.64833 10.5826 1.70936 10.9538 0.0383301 11.8531V22.1308C2.89807 21.4456 6.08423 21.3695 9.23628 22.1308V18.5003C8.60295 18.367 8.13038 17.777 7.81372 17.1442H7.65782C7.2632 17.1442 7.01961 16.8872 6.9173 16.5589C6.82474 16.2354 6.86859 15.8404 7.0732 15.5692ZM11.4627 13.999C11.7842 14.0466 11.9937 14.2845 12.0863 14.5748C12.1594 14.7984 12.1594 15.0458 12.0863 15.2694C12.0522 15.3789 12.0035 15.4788 11.9353 15.5645C11.9986 15.6501 12.0522 15.75 12.0863 15.8595C12.1594 16.0831 12.1594 16.3305 12.0863 16.5589C11.984 16.8872 11.7355 17.1442 11.3458 17.1442H11.1899C10.8829 17.758 10.4347 18.3242 9.84038 18.4812V22.126C12.2276 21.5598 14.5417 21.5598 16.9191 22.126V20.4273C16.9191 20.2656 17.0555 20.1371 17.2163 20.1371H19.0383V11.8531C17.3429 10.9395 15.3796 10.5683 13.4553 10.7587C12.8122 11.7817 11.867 12.9617 11.4627 13.999ZM10.425 7.83714V8.91725C10.5419 8.90774 10.8586 9.06 11.1412 8.76499C11.5991 8.28917 11.0242 7.53738 10.425 7.83714ZM10.425 12.2956C10.425 12.6762 9.83064 12.6762 9.83064 12.2956V7.68488C9.83064 7.58496 9.88423 7.49455 9.96218 7.44697C10.844 6.81889 11.8963 7.46125 11.8963 8.3653C11.8963 9.1171 11.1753 9.67381 10.425 9.50251V12.2956ZM8.58346 8.91725V7.83714C7.98423 7.53738 7.40936 8.28441 7.8673 8.76499C8.14987 9.06 8.46654 8.90774 8.58346 8.91725ZM9.17782 12.2956C9.17782 12.6762 8.58346 12.6762 8.58346 12.2956V9.49775C7.8332 9.66905 7.11218 9.1171 7.11218 8.36054C7.11218 7.45649 8.16448 6.81413 9.04141 7.44221C9.11936 7.49455 9.17295 7.5802 9.17295 7.68012V12.2956H9.17782ZM1.58269 16.5256C1.21243 16.6398 1.03218 16.0879 1.4073 15.9737C2.71782 15.5692 4.08192 15.298 5.3632 15.3599C5.75295 15.3789 5.71884 15.9546 5.33397 15.9356C4.13064 15.8785 2.825 16.145 1.58269 16.5256ZM1.58269 18.9095C1.21243 19.0237 1.03218 18.4717 1.4073 18.3575C2.71782 17.9578 4.08192 17.6819 5.3632 17.7437C5.75295 17.7627 5.71884 18.3432 5.33397 18.3195C4.13064 18.2624 2.825 18.5241 1.58269 18.9095ZM17.6694 15.9737C18.0396 16.0879 17.8642 16.6398 17.494 16.5256C16.2468 16.145 14.9558 15.8785 13.7476 15.9404C13.3578 15.9594 13.3286 15.3836 13.7183 15.3646C14.985 15.298 16.3637 15.574 17.6694 15.9737ZM17.6694 18.3575C18.0396 18.4717 17.8642 19.0237 17.494 18.9095C16.2468 18.5288 14.9558 18.2624 13.7476 18.3242C13.3578 18.3432 13.3286 17.7675 13.7183 17.7485C14.985 17.6819 16.3637 17.9531 17.6694 18.3575ZM17.6694 13.5898C18.0396 13.704 17.8642 14.256 17.494 14.1418C16.2468 13.7611 14.9558 13.4946 13.7476 13.5565C13.3578 13.5755 13.3286 12.9998 13.7183 12.9808C14.985 12.9189 16.3637 13.1901 17.6694 13.5898ZM1.58269 14.1418C1.21243 14.256 1.03218 13.704 1.4073 13.5898C2.71782 13.1901 4.08192 12.9141 5.3632 12.976C5.75295 12.995 5.71884 13.5755 5.33397 13.5517C4.13064 13.4994 2.825 13.7611 1.58269 14.1418ZM8.49089 17.1442C9.12423 18.2148 9.88423 18.2148 10.5176 17.1442H8.49089Z" fill="#0C2C7E"/>
</svg>
