<svg width="20" height="22" viewBox="0 0 20 22" fill="none" xmlns="http://www.w3.org/2000/svg">
<path d="M19.8595 8.866C19.635 8.38016 19.0511 8.15932 18.5571 8.38016C17.8835 8.66725 16.9404 9.08683 16.2892 9.35184C16.2892 9.35184 16.2892 9.32975 16.2668 9.32975C15.8851 8.35808 15.3237 6.87848 13.9091 6.32639C13.3028 6.08347 12.4944 5.73013 12.4046 5.68597C10.4061 4.84679 7.03795 5.31055 6.49904 5.5093C6.18468 5.59763 5.69068 5.79638 4.05149 8.84391C3.80449 9.32975 3.98413 9.90393 4.45568 10.1689C4.61286 10.2573 4.77004 10.2793 4.92722 10.2793C5.28649 10.2793 5.62331 10.0806 5.80295 9.77142C6.3194 8.82183 6.99304 7.67349 7.30741 7.32015C7.66668 7.2539 8.45259 7.16556 9.28341 7.16556C8.40768 8.33599 7.59932 10.2131 7.37477 11.3835C6.97059 12.6865 6.34186 14.0335 6.0275 14.4531C4.77004 14.3648 2.25513 14.1219 2.23267 14.1219C1.58149 14.0335 1.02013 14.4752 0.952762 15.0936C0.885398 15.7119 1.35694 16.2861 1.98567 16.3302C2.1204 16.3523 5.84786 16.6836 6.34186 16.7057C6.83586 16.7277 7.84632 16.4627 8.94659 13.6581C9.71005 14.1661 11.2819 15.1819 11.7534 15.6898C11.6187 16.4627 10.9675 18.5607 10.3837 20.3053C10.1816 20.9015 10.5184 21.542 11.1247 21.7407C11.237 21.7849 11.3717 21.807 11.484 21.807C11.978 21.807 12.427 21.4978 12.5842 21.034C13.168 19.3115 14.1336 16.3082 14.1111 15.4469C14.0887 14.6077 13.3028 13.8569 11.5738 12.6644C12.1127 11.4056 12.9435 9.63892 13.7519 8.64516C14.0213 9.04267 14.2234 9.57267 14.3806 9.99226C14.6051 10.5443 14.9644 11.5381 15.7952 11.5381C15.93 11.5381 16.0647 11.516 16.2219 11.4498C16.7832 11.251 19.0736 10.2573 19.3431 10.1248C19.8595 9.92601 20.0841 9.35184 19.8595 8.866Z" fill="#0C2C7E"/>
<path d="M16.161 4.01259C16.6639 2.85786 16.1198 1.52083 14.9456 1.02625C13.7715 0.531676 12.412 1.06683 11.9091 2.22156C11.4062 3.37629 11.9504 4.71331 13.1245 5.20789C14.2986 5.70247 15.6581 5.16731 16.161 4.01259Z" fill="#0C2C7E"/>
</svg>
