<svg width="18" height="15" viewBox="0 0 18 15" fill="none" xmlns="http://www.w3.org/2000/svg">
<path d="M9.5495 0.542145C9.08633 0.306507 8.54437 0.345529 8.12022 0.644501L4.06724 3.53474C4.06724 3.53474 3.99655 3.57377 3.94942 3.57377H1.84414C1.09009 3.57377 0.46933 4.19454 0.46933 4.94858V9.66134C0.46933 10.4154 1.09009 11.0361 1.84414 11.0361H3.94942C3.98845 11.0361 4.02821 11.0516 4.06724 11.0752L8.12022 13.9654C8.35585 14.1385 8.63862 14.2246 8.92139 14.2246C9.13346 14.2246 9.35364 14.1775 9.5495 14.0678C10.0127 13.8321 10.2954 13.3609 10.2954 12.8425L10.2962 1.75936C10.2962 1.24095 10.0134 0.777783 9.55024 0.534039L9.5495 0.542145Z" fill="#0C2C7E"/>
<path d="M12.0631 10.2506C11.9136 10.2506 11.7649 10.1953 11.6471 10.0775C11.4195 9.84999 11.4195 9.47297 11.6471 9.24468L16.3598 4.53192C16.5874 4.30438 16.9644 4.30438 17.1927 4.53192C17.4202 4.75945 17.4202 5.13647 17.1927 5.36476L12.4799 10.0775C12.3621 10.1953 12.2126 10.2506 12.0639 10.2506H12.0631Z" fill="#0C2C7E"/>
<path d="M16.7759 10.2506C16.6264 10.2506 16.4776 10.1953 16.3598 10.0775L11.6471 5.36476C11.4195 5.13722 11.4195 4.7602 11.6471 4.53192C11.8746 4.30438 12.2516 4.30438 12.4799 4.53192L17.1927 9.24468C17.4202 9.47221 17.4202 9.84923 17.1927 10.0775C17.0748 10.1953 16.9254 10.2506 16.7766 10.2506H16.7759Z" fill="#0C2C7E"/>
</svg>
