<svg width="20" height="20" viewBox="0 0 20 20" fill="none" xmlns="http://www.w3.org/2000/svg">
<path d="M10.4464 0.468872C5.20827 0.468872 0.94635 4.73079 0.94635 9.96887C0.94635 15.207 5.20827 19.4689 10.4464 19.4689C15.6844 19.4689 19.9464 15.207 19.9464 9.96887C19.9464 4.73079 15.6844 0.468872 10.4464 0.468872ZM10.4464 17.6444C8.74615 17.6444 7.09519 17.0777 5.75862 16.0425L8.7888 13.0123H15.7238C15.904 13.0123 16.0514 12.8649 16.0514 12.6848V10.4179C16.0514 10.2378 15.904 10.0903 15.7238 10.0903H11.7108L16.5199 5.28122C17.5551 6.61779 18.1218 8.26884 18.1218 9.96896C18.1218 14.2015 14.6787 17.6444 10.4464 17.6444ZM10.4464 2.29352C12.1465 2.29352 13.7975 2.86025 15.1341 3.89543L8.93933 10.0902H3.93041C3.74695 10.0902 3.60282 10.2376 3.60282 10.4178V12.6846C3.60282 12.868 3.74695 13.0122 3.93041 13.0122H6.01388L4.37266 14.6567C3.33747 13.3201 2.77075 11.6691 2.77075 9.96896C2.77075 5.73639 6.21374 2.29361 10.4461 2.29361L10.4464 2.29352ZM8.28436 10.7452L6.67262 12.357H6.53503V10.7452H8.28436ZM5.8798 10.7452V12.357H4.25823V10.7452H5.8798ZM11.0558 10.7452H15.3964V12.357H9.44398L11.0558 10.7452Z" fill="#0C2C7E"/>
<path d="M17.2898 8.85186C17.2898 8.56685 17.185 8.40307 17.1162 8.29497C17.0638 8.21634 17.0474 8.18686 17.0474 8.09186C17.0474 7.99686 17.067 7.96738 17.1162 7.88875C17.185 7.78065 17.2898 7.61685 17.2898 7.33186C17.2898 7.15169 17.1424 7.00427 16.9622 7.00427C16.782 7.00427 16.6346 7.15169 16.6346 7.33186C16.6346 7.42359 16.615 7.45307 16.5658 7.53497C16.497 7.64307 16.3922 7.80687 16.3922 8.09186C16.3922 8.37685 16.497 8.54065 16.5658 8.64875C16.6182 8.72737 16.6346 8.75686 16.6346 8.85186C16.6346 8.94686 16.615 8.97307 16.5658 9.05169C16.497 9.15979 16.3922 9.3203 16.3922 9.60858C16.3922 9.89686 16.497 10.0574 16.5658 10.1655C16.615 10.2441 16.6346 10.2736 16.6346 10.3653C16.6346 10.457 16.615 10.4865 16.5658 10.5651C16.497 10.6732 16.3922 10.8337 16.3922 11.122C16.3922 11.3022 16.5396 11.4496 16.7198 11.4496C16.9 11.4496 17.0474 11.3022 17.0474 11.122C17.0474 11.0303 17.067 11.0008 17.1162 10.9222C17.185 10.8141 17.2898 10.6536 17.2898 10.3653C17.2898 10.077 17.185 9.91651 17.1162 9.80841C17.067 9.72979 17.0474 9.7003 17.0474 9.60858C17.0474 9.51685 17.067 9.48737 17.1162 9.40875C17.185 9.30065 17.2898 9.14014 17.2898 8.85186Z" fill="#0C2C7E"/>
<path d="M16.1398 6.78468C16.1398 6.60451 15.9956 6.45709 15.8122 6.45709C15.6287 6.45709 15.4846 6.60451 15.4846 6.78468C15.478 6.79779 15.4682 6.80761 15.4584 6.81744C15.4027 6.88951 15.2979 7.02382 15.2979 7.25313C15.2979 7.48244 15.4027 7.61676 15.4584 7.68882C15.4682 7.69865 15.4748 7.70848 15.4846 7.72158C15.478 7.73468 15.4682 7.74451 15.4584 7.75434C15.4027 7.82641 15.2979 7.96072 15.2979 8.19003C15.2979 8.41933 15.4027 8.55366 15.4584 8.62572C15.4682 8.63554 15.4748 8.64537 15.4846 8.65848C15.478 8.67158 15.4682 8.68141 15.4584 8.69123C15.4027 8.7633 15.2979 8.89762 15.2979 9.12692C15.2979 9.3071 15.442 9.45451 15.6254 9.45451C15.8089 9.45451 15.953 9.3071 15.953 9.12692C15.9596 9.11382 15.9694 9.10399 15.9792 9.09416C16.0349 9.02209 16.1398 8.88778 16.1398 8.65848C16.1398 8.42917 16.0349 8.29484 15.9792 8.22279C15.9694 8.21296 15.9629 8.20313 15.9563 8.19003C15.9629 8.17692 15.9727 8.16709 15.9825 8.15727C16.0382 8.0852 16.143 7.95089 16.143 7.72158C16.143 7.49227 16.0382 7.35795 15.9825 7.28589C15.9727 7.27606 15.9661 7.26623 15.9563 7.24985C15.9629 7.23675 15.9727 7.22692 15.9825 7.21709C16.0382 7.14502 16.143 7.01071 16.143 6.78141L16.1398 6.78468Z" fill="#0C2C7E"/>
</svg>
