<svg width="17" height="20" viewBox="0 0 17 20" fill="none" xmlns="http://www.w3.org/2000/svg">
<path d="M14.4398 6C14.3129 6 14.2101 5.89712 14.2101 5.77021V5.74C14.2101 2.575 11.8433 0 8.91576 0C6.00666 0 3.63985 2.575 3.63985 5.74V5.77021C3.63985 5.89712 3.53697 6 3.41006 6C2.01571 6 0.882401 7.233 0.882401 8.75V16.75C0.882401 18.267 2.01571 19.5 3.41006 19.5H14.4398C15.8342 19.5 16.9675 18.267 16.9675 16.75V8.75C16.9675 7.233 15.8342 6 14.4398 6ZM5.01857 5.74C5.01857 3.402 6.76679 1.5 8.93414 1.5C11.0831 1.5 12.8313 3.402 12.8313 5.74C12.8313 5.88359 12.7149 6 12.5713 6H5.27857C5.13498 6 5.01857 5.88359 5.01857 5.74ZM15.5888 16.75C15.5888 17.439 15.0731 18 14.4398 18H3.41006C2.77677 18 2.26112 17.439 2.26112 16.75V8.75C2.26112 8.061 2.77677 7.5 3.41006 7.5H14.4398C15.0731 7.5 15.5888 8.061 15.5888 8.75V16.75ZM10.0739 11.75C10.0739 12.4552 9.61432 13.1311 9.61432 13.8363V14.25C9.61432 14.664 9.30548 15 8.92495 15C8.54443 15 8.23559 14.664 8.23559 14.25V13.8363C8.23559 13.1311 7.77602 12.4552 7.77602 11.75C7.77602 11.061 8.29166 10.5 8.92495 10.5C9.55825 10.5 10.0739 11.061 10.0739 11.75Z" fill="#0C2C7E"/>
</svg>
