<svg width="16" height="18" viewBox="0 0 16 18" fill="none" xmlns="http://www.w3.org/2000/svg">
<path d="M15.086 9.30701C15.0865 9.529 15.0289 9.74735 14.9186 9.94083C14.8083 10.1343 14.6492 10.2963 14.4567 10.4111L2.52805 17.6145C2.32693 17.7361 2.09659 17.8025 1.86081 17.8068C1.62502 17.8111 1.39235 17.7532 1.18681 17.6391C0.983236 17.5267 0.81365 17.3628 0.695495 17.1643C0.577341 16.9658 0.514882 16.7398 0.514542 16.5096V2.10442C0.514882 1.87418 0.577341 1.64819 0.695495 1.44968C0.81365 1.25117 0.983236 1.08731 1.18681 0.974955C1.39235 0.860822 1.62502 0.802921 1.86081 0.807231C2.09659 0.811541 2.32693 0.877907 2.52805 0.999473L14.4567 8.20288C14.6492 8.31768 14.8083 8.4797 14.9186 8.67318C15.0289 8.86666 15.0865 9.08501 15.086 9.30701Z" fill="#0C2C7E"/>
</svg>
