<svg width="18" height="16" viewBox="0 0 18 16" fill="none" xmlns="http://www.w3.org/2000/svg">
<path d="M1.63612 11.9883L2.00329 13.7279C2.21276 14.7195 3.09997 15.4392 4.11326 15.4392H13.3241C14.3375 15.4392 15.2247 14.7194 15.4341 13.7279L15.8013 11.9883H1.63612Z" fill="#0C2C7E"/>
<path d="M16.8125 2.95771C16.3321 2.65119 15.7272 2.67465 15.271 3.01675L12.5236 5.07666C12.4095 5.16238 12.2704 5.19393 12.1305 5.16562C11.9906 5.13731 11.8741 5.05401 11.803 4.93108L9.89027 1.65236C9.64521 1.23099 9.20767 0.980286 8.72 0.980286C8.23232 0.980286 7.79477 1.2318 7.54974 1.65236L5.63702 4.93108C5.56504 5.05401 5.44858 5.13732 5.30948 5.16562C5.16957 5.19473 5.03045 5.16239 4.91643 5.07747L2.16899 3.01676C1.71366 2.67547 1.1087 2.65282 0.627496 2.95853C0.147096 3.26505 -0.0874416 3.82309 0.0298271 4.38113L1.45486 11.127H15.9859L17.4109 4.38113C17.529 3.82309 17.2937 3.26505 16.8133 2.95853L16.8125 2.95771Z" fill="#0C2C7E"/>
</svg>
