<svg width="19" height="19" viewBox="0 0 19 19" fill="none" xmlns="http://www.w3.org/2000/svg">
<path d="M9.88828 8.94604C11.8166 8.94604 13.3846 7.37806 13.3846 5.44977C13.3846 3.52145 11.8166 1.95349 9.88828 1.95349C7.95999 1.95349 6.39201 3.52147 6.39201 5.44977C6.39201 7.37808 7.95999 8.94604 9.88828 8.94604ZM9.88828 2.62849C11.4457 2.62849 12.7096 3.89499 12.7096 5.44977C12.7096 7.00456 11.4431 8.27104 9.88828 8.27104C8.33351 8.27104 7.06701 7.00454 7.06701 5.44977C7.06701 3.89497 8.33351 2.62849 9.88828 2.62849Z" fill="#0C2C7E"/>
<path d="M9.88834 0.315369C4.92506 0.315369 0.888336 4.35209 0.888336 9.31537C0.888336 14.2786 4.92506 18.3154 9.88834 18.3154C14.8516 18.3154 18.8883 14.2786 18.8883 9.31537C18.8883 4.35209 14.8516 0.315369 9.88834 0.315369ZM9.88834 17.6404C5.29879 17.6404 1.56334 13.9049 1.56334 9.31537C1.56334 4.72582 5.29879 0.990369 9.88834 0.990369C14.4779 0.990369 18.2133 4.72582 18.2133 9.31537C18.2133 13.9049 14.4779 17.6404 9.88834 17.6404Z" fill="#0C2C7E"/>
<path d="M11.1461 9.42102H8.62809C6.72261 9.42102 4.96914 10.4581 4.05159 12.128C3.72289 12.7265 3.78792 13.478 4.21771 13.9974C5.61957 15.6964 7.68496 16.6684 9.88748 16.6684C12.09 16.6684 14.1555 15.6946 15.5573 13.9974C15.9844 13.478 16.0521 12.7265 15.7234 12.128C14.8058 10.4581 13.0506 9.42102 11.1442 9.42102H11.1461ZM15.0388 13.5702C13.7652 15.1119 11.8888 15.996 9.88832 15.996C7.88784 15.996 6.01157 15.1118 4.73784 13.5702C4.48384 13.2617 4.44516 12.8144 4.64292 12.4567C5.44185 11.003 6.96942 10.0987 8.62789 10.0987H11.1459C12.8061 10.0987 14.3346 11.0031 15.1326 12.4567C15.3304 12.8144 15.2926 13.2617 15.0377 13.5702H15.0388Z" fill="#0C2C7E"/>
</svg>
