<svg width="20" height="20" viewBox="0 0 20 20" fill="none" xmlns="http://www.w3.org/2000/svg">
<path d="M9.90792 0.468872C8.02899 0.468872 6.19227 1.02604 4.63 2.06991C3.06773 3.11378 1.85009 4.59748 1.13106 6.33338C0.412029 8.06928 0.223898 9.97941 0.590457 11.8222C0.957017 13.665 1.8618 15.3578 3.1904 16.6864C4.519 18.015 6.21174 18.9198 8.05456 19.2863C9.89738 19.6529 11.8075 19.4648 13.5434 18.7457C15.2793 18.0267 16.763 16.8091 17.8069 15.2468C18.8507 13.6845 19.4079 11.8478 19.4079 9.96887C19.4079 7.44931 18.407 5.03295 16.6254 3.25136C14.8438 1.46976 12.4275 0.468872 9.90792 0.468872ZM9.90792 18.8284C8.15566 18.8284 6.44276 18.3088 4.98581 17.3353C3.52887 16.3618 2.39332 14.9781 1.72276 13.3593C1.0522 11.7404 0.876753 9.95904 1.2186 8.24046C1.56045 6.52187 2.40424 4.94325 3.64327 3.70422C4.8823 2.46519 6.46092 1.6214 8.1795 1.27956C9.89809 0.937707 11.6794 1.11316 13.2983 1.78371C14.9172 2.45427 16.3009 3.58982 17.2744 5.04677C18.2479 6.50371 18.7675 8.21662 18.7675 9.96887C18.7646 12.3177 17.8303 14.5695 16.1694 16.2304C14.5086 17.8913 12.2567 18.8256 9.90792 18.8284Z" fill="#0C2C7E"/>
<path d="M9.90793 10.5026C10.1269 10.5028 10.3388 10.4249 10.5055 10.2828C10.6722 10.1408 10.7828 9.94394 10.8174 9.72767C10.8312 9.64274 10.8108 9.55578 10.7606 9.48592C10.7103 9.41605 10.6344 9.36901 10.5494 9.35514C10.4645 9.34127 10.3776 9.3617 10.3077 9.41195C10.2378 9.46219 10.1908 9.53813 10.1769 9.62306C10.1662 9.68769 10.1337 9.74669 10.0847 9.79021C10.0358 9.83373 9.97337 9.85913 9.90793 9.86216C9.84104 9.86341 9.77598 9.84026 9.72491 9.79705C9.67384 9.75384 9.64025 9.69351 9.6304 9.62733C9.61795 9.5424 9.57226 9.4659 9.5034 9.41466C9.43454 9.36341 9.34814 9.34162 9.26321 9.35407C9.17828 9.36653 9.10178 9.41221 9.05053 9.48108C8.99929 9.54994 8.9775 9.63634 8.98995 9.72127C9.02163 9.94093 9.13235 10.1415 9.30135 10.2853C9.47035 10.4292 9.68603 10.5064 9.90793 10.5026Z" fill="#0C2C7E"/>
<path d="M12.2434 13.2779C11.24 14.2813 8.5779 14.2813 7.57452 13.2779C7.51382 13.2213 7.43353 13.1905 7.35057 13.192C7.26761 13.1935 7.18846 13.2271 7.12979 13.2857C7.07112 13.3444 7.03751 13.4236 7.03605 13.5065C7.03458 13.5895 7.06538 13.6698 7.12194 13.7305C7.70475 14.3154 8.74655 14.6655 9.90789 14.6655C11.0692 14.6655 12.111 14.3154 12.696 13.7305C12.7525 13.6698 12.7833 13.5895 12.7819 13.5065C12.7804 13.4236 12.7468 13.3444 12.6881 13.2857C12.6295 13.2271 12.5503 13.1935 12.4674 13.192C12.3844 13.1905 12.3041 13.2213 12.2434 13.2779Z" fill="#0C2C7E"/>
<path d="M13.9513 7.05064C13.2404 7.44986 12.1345 7.54379 11.4856 6.93323C11.4227 6.87491 11.3393 6.84395 11.2536 6.84715C11.1679 6.85035 11.087 6.88746 11.0287 6.95031C10.9704 7.01315 10.9394 7.09659 10.9426 7.18227C10.9458 7.26795 10.9829 7.34884 11.0458 7.40716C11.5011 7.81708 12.0964 8.03642 12.7088 8.01986C13.2525 8.01777 13.7869 7.87903 14.263 7.61637C14.2997 7.59577 14.332 7.56813 14.358 7.53504C14.3841 7.50195 14.4034 7.46405 14.4148 7.42351C14.4262 7.38297 14.4295 7.34058 14.4245 7.29877C14.4195 7.25695 14.4063 7.21653 14.3857 7.1798C14.3651 7.14308 14.3375 7.11077 14.3044 7.08472C14.2713 7.05868 14.2334 7.03941 14.1929 7.02801C14.1523 7.01661 14.1099 7.01331 14.0681 7.01829C14.0263 7.02327 13.9859 7.03644 13.9492 7.05705L13.9513 7.05064Z" fill="#0C2C7E"/>
<path d="M8.77001 7.40711C8.832 7.34879 8.8683 7.26824 8.8709 7.18316C8.8735 7.09808 8.8422 7.01546 8.78388 6.95346C8.72557 6.89146 8.64501 6.85517 8.55993 6.85257C8.47486 6.84996 8.39223 6.88127 8.33023 6.93958C7.68978 7.55015 6.5754 7.45621 5.8645 7.057C5.82778 7.03639 5.78735 7.02322 5.74554 7.01824C5.70372 7.01326 5.66133 7.01656 5.62079 7.02796C5.58025 7.03936 5.54236 7.05863 5.50926 7.08467C5.47617 7.11072 5.44853 7.14303 5.42793 7.17975C5.40732 7.21648 5.39415 7.2569 5.38917 7.29872C5.38419 7.34053 5.38749 7.38292 5.39889 7.42346C5.41029 7.464 5.42956 7.5019 5.4556 7.53499C5.48165 7.56808 5.51396 7.59572 5.55068 7.61632C6.02672 7.87898 6.56115 8.01772 7.10484 8.01981C7.71797 8.03692 8.31419 7.81755 8.77001 7.40711Z" fill="#0C2C7E"/>
<path d="M11.65 3.92517C11.6219 3.92854 11.5948 3.93739 11.5702 3.95123C11.5456 3.96506 11.524 3.98361 11.5065 4.00581C11.4891 4.02802 11.4762 4.05344 11.4686 4.08063C11.4609 4.10781 11.4587 4.13624 11.4621 4.16427C11.4655 4.19231 11.4743 4.21941 11.4882 4.24402C11.502 4.26863 11.5205 4.29028 11.5427 4.30772C11.5649 4.32517 11.5904 4.33807 11.6176 4.34569C11.6447 4.35331 11.6732 4.3555 11.7012 4.35214C12.8284 4.21764 14.6665 5.24663 14.9696 5.99596C14.9789 6.02358 14.9937 6.04901 15.0132 6.07068C15.0327 6.09236 15.0564 6.10982 15.0828 6.12199C15.1093 6.13416 15.138 6.14078 15.1671 6.14144C15.1963 6.14211 15.2252 6.13681 15.2522 6.12586C15.2792 6.11491 15.3037 6.09855 15.3241 6.07779C15.3446 6.05703 15.3606 6.0323 15.3711 6.00514C15.3816 5.97797 15.3865 5.94893 15.3853 5.91982C15.3842 5.8907 15.3772 5.86213 15.3646 5.83584C14.991 4.90719 13.0056 3.76506 11.65 3.92517Z" fill="#0C2C7E"/>
<path d="M8.11461 4.34997C8.14264 4.35333 8.17106 4.35114 8.19825 4.34352C8.22544 4.3359 8.25086 4.323 8.27306 4.30555C8.29527 4.28811 8.31382 4.26646 8.32765 4.24185C8.34149 4.21723 8.35034 4.19014 8.35371 4.1621C8.35707 4.13407 8.35488 4.10564 8.34726 4.07845C8.33964 4.05127 8.32674 4.02584 8.30929 4.00364C8.29185 3.98144 8.2702 3.96289 8.24559 3.94905C8.22097 3.93522 8.19388 3.92636 8.16584 3.923C6.81022 3.76289 4.82697 4.90289 4.45124 5.8294C4.43866 5.85568 4.43159 5.88426 4.43047 5.91338C4.42935 5.94249 4.4342 5.97153 4.44473 5.99869C4.45525 6.02586 4.47123 6.05059 4.49167 6.07135C4.51211 6.09211 4.53659 6.10847 4.56359 6.11942C4.59059 6.13036 4.61955 6.13567 4.64868 6.135C4.6778 6.13434 4.70649 6.12771 4.73296 6.11555C4.75943 6.10338 4.78314 6.08592 4.80261 6.06424C4.82208 6.04257 4.83691 6.01714 4.84618 5.98952C5.14933 5.24446 6.98741 4.2048 8.11461 4.34997Z" fill="#0C2C7E"/>
</svg>
