<svg width="16" height="15" viewBox="0 0 16 15" fill="none" xmlns="http://www.w3.org/2000/svg">
<path d="M5.2777 0H0.799842C0.358984 0 0 0.336548 0 0.749852V4.94784C0 5.11317 0.141704 5.24897 0.321197 5.24897H1.28164C1.45798 5.24897 1.60283 5.11317 1.60283 4.94784V2.55954L4.37394 5.15745C4.4999 5.27554 4.70144 5.27554 4.8274 5.15745L5.50443 4.52273C5.63039 4.40464 5.63039 4.21571 5.50443 4.09762L2.73332 1.4997H5.28085C5.45719 1.4997 5.60205 1.3639 5.60205 1.19858V0.301122C5.5989 0.132848 5.45719 0 5.2777 0Z" fill="#EFF6FF"/>
<path d="M15.197 0H10.7191C10.5428 0 10.3979 0.132848 10.3979 0.301122V1.20153C10.3979 1.36686 10.5397 1.50266 10.7191 1.50266H13.2667L10.4956 4.10057C10.3696 4.21866 10.3696 4.4076 10.4956 4.52568L11.1726 5.1604C11.2986 5.27849 11.5001 5.27849 11.6261 5.1604L14.3972 2.56249V4.9508C14.3972 5.11612 14.5389 5.25192 14.7184 5.25192H15.6788C15.8551 5.25192 16 5.11612 16 4.9508V0.749852C15.9968 0.336548 15.6379 0 15.197 0Z" fill="#EFF6FF"/>
<path d="M5.2777 13.4973H2.73017L5.50128 10.8994C5.62724 10.7813 5.62724 10.5924 5.50128 10.4743L4.82425 9.83956C4.69829 9.72148 4.49675 9.72148 4.37079 9.83956L1.59968 12.4375V10.0492C1.59968 9.88385 1.45798 9.74805 1.27849 9.74805H0.321197C0.144853 9.74805 0 9.88089 0 10.0492V14.2472C0 14.6605 0.358984 14.997 0.799842 14.997H5.2777C5.45404 14.997 5.5989 14.8642 5.5989 14.6959V13.7955C5.5989 13.6302 5.45719 13.4973 5.2777 13.4973Z" fill="#EFF6FF"/>
<path d="M15.6759 9.74805H14.7154C14.5391 9.74805 14.3942 9.88089 14.3942 10.0492V12.4375L11.6231 9.83956C11.4972 9.72148 11.2956 9.72148 11.1697 9.83956L10.4926 10.4743C10.3667 10.5924 10.3667 10.7813 10.4926 10.8994L13.2637 13.4973H10.7162C10.5399 13.4973 10.395 13.6302 10.395 13.7984V14.6988C10.395 14.8642 10.5367 15 10.7162 15H15.1941C15.6349 15 15.9939 14.6634 15.9939 14.2501V10.0492C15.9971 9.88089 15.8554 9.74805 15.6759 9.74805Z" fill="#EFF6FF"/>
</svg>
