<svg width="18" height="18" viewBox="0 0 18 18" fill="none" xmlns="http://www.w3.org/2000/svg">
<path fill-rule="evenodd" clip-rule="evenodd" d="M4.0107 5.05701C5.24911 3.51215 7.1479 2.51949 9.27896 2.50713C9.3082 2.50696 9.33736 2.50698 9.3666 2.50717C11.1807 2.51954 12.826 3.24224 14.0383 4.41104C14.1087 4.47882 14.1775 4.54815 14.2449 4.61899C15.3848 5.81633 16.0927 7.4288 16.1185 9.20637C16.1196 9.27675 16.1195 9.34713 16.1184 9.4176C16.0903 11.1805 15.3913 12.7804 14.2657 13.9732C14.1758 14.0685 14.0831 14.1612 13.9876 14.2514C12.7929 15.3798 11.1893 16.08 9.42244 16.1063C9.35725 16.1073 9.29188 16.1073 9.22652 16.1064C5.80011 16.0606 2.98548 13.4806 2.57167 10.1553C2.51369 9.68951 2.13872 9.30701 1.66927 9.30701C1.19984 9.30701 0.814864 9.68849 0.861724 10.1556C0.890471 10.4422 0.933693 10.7263 0.990991 11.007C1.2923 12.483 1.98287 13.8632 3.00507 14.9974C4.41215 16.5588 6.34779 17.5434 8.43832 17.7612C10.5288 17.9791 12.6258 17.4147 14.3246 16.177C16.0234 14.9393 17.2033 13.1161 17.6367 11.0595C18.07 9.0028 17.7259 6.85855 16.671 5.04067C15.616 3.22278 13.925 1.86022 11.9243 1.21605C9.92369 0.57189 7.75526 0.691816 5.83786 1.55267C4.51522 2.14649 3.37669 3.06381 2.51927 4.20698V2.50701C2.51927 2.03757 2.13871 1.65701 1.66927 1.65701C1.19984 1.65701 0.819275 2.03757 0.819275 2.50701V5.90701V6.75701H1.66927H5.06926C5.5387 6.75701 5.91926 6.37645 5.91926 5.90701C5.91926 5.43757 5.5387 5.05701 5.06926 5.05701H4.0107Z" fill="#0C2C7E"/>
</svg>
