<svg width="16" height="17" viewBox="0 0 16 17" fill="none" xmlns="http://www.w3.org/2000/svg">
<path d="M14.7556 16.2098L9.15556 10.6098C8.71111 10.9653 8.2 11.2468 7.62222 11.4542C7.04445 11.6616 6.42963 11.7653 5.77778 11.7653C4.16296 11.7653 2.79644 11.2059 1.67822 10.0871C0.56 8.9683 0.000593063 7.60178 4.70312e-07 5.98756C-0.000592122 4.37333 0.558815 3.00681 1.67822 1.888C2.79763 0.769185 4.16415 0.209778 5.77778 0.209778C7.39141 0.209778 8.75822 0.769185 9.87822 1.888C10.9982 3.00681 11.5573 4.37333 11.5556 5.98756C11.5556 6.63941 11.4519 7.25422 11.2444 7.832C11.037 8.40978 10.7556 8.92089 10.4 9.36533L16 14.9653L14.7556 16.2098ZM5.77778 9.98756C6.88889 9.98756 7.83348 9.59881 8.61156 8.82133C9.38963 8.04385 9.77837 7.09926 9.77778 5.98756C9.77719 4.87585 9.38844 3.93156 8.61156 3.15467C7.83467 2.37778 6.89007 1.98874 5.77778 1.98756C4.66548 1.98637 3.72119 2.37541 2.94489 3.15467C2.16859 3.93393 1.77956 4.87822 1.77778 5.98756C1.776 7.09689 2.16504 8.04148 2.94489 8.82133C3.72474 9.60118 4.66904 9.98993 5.77778 9.98756Z" fill="#0C2C7E"/>
</svg>
