<svg width="19" height="18" viewBox="0 0 19 18" fill="none" xmlns="http://www.w3.org/2000/svg">
<path d="M8.48018 17.6541H8.35435C5.71545 17.6168 3.26461 16.4021 1.78871 14.4009C0.312814 12.3998 -0.000723481 9.86536 0.948581 7.61295C1.89881 5.3612 3.99181 3.6759 6.55373 3.09947C6.68512 3.06984 6.82205 3.11894 6.89515 3.22306C6.96824 3.32464 6.96269 3.45753 6.88034 3.55403C5.69972 4.98121 5.14643 6.76231 5.33147 8.54491C5.51652 10.3268 6.42696 11.9807 7.8806 13.1787C9.33509 14.3773 11.2273 15.0325 13.1842 15.0147C13.4442 15.0147 13.7061 14.9944 13.9633 14.9682C14.0956 14.9546 14.2233 15.019 14.2816 15.1281C14.3399 15.2382 14.3168 15.3694 14.2224 15.4566C12.7114 16.8685 10.6406 17.6608 8.48018 17.6541Z" fill="#0C2C7E"/>
<path d="M12.6641 5.36205H8.70494C8.45882 5.36713 8.23029 5.24693 8.11094 5.04969C7.97307 4.8186 8.01841 4.53164 8.22289 4.34541L11.6555 1.20495H8.53555C8.39862 1.21003 8.26446 1.16432 8.16545 1.07714C8.06645 0.989947 8.01001 0.869744 8.01001 0.744453C8.01001 0.618326 8.06645 0.498127 8.16545 0.410926C8.26445 0.324583 8.39862 0.278027 8.53555 0.283951H12.4947C12.7409 0.278872 12.9694 0.399075 13.0887 0.595461C13.2266 0.827398 13.1813 1.11436 12.9768 1.30059L9.5432 4.44104H12.6641C12.9334 4.4512 13.1462 4.65436 13.1462 4.90154C13.1462 5.14871 12.9334 5.35104 12.6641 5.36205Z" fill="#0C2C7E"/>
<path d="M18.0048 7.37436H14.6998C14.4851 7.37774 14.2871 7.27278 14.1826 7.10179C14.0632 6.90032 14.1021 6.65146 14.2779 6.48809L17.1046 3.90196H14.5555V3.9028C14.3186 3.89264 14.1317 3.71403 14.1317 3.49648C14.1317 3.27893 14.3186 3.10033 14.5555 3.09017H17.8604C18.0742 3.08678 18.2731 3.19175 18.3777 3.36274C18.497 3.5642 18.4582 3.81307 18.2824 3.97644L15.4566 6.5617H18.0057H18.0048C18.2426 6.57186 18.4286 6.75047 18.4286 6.96802C18.4286 7.18557 18.2426 7.36419 18.0048 7.37436Z" fill="#0C2C7E"/>
<path d="M13.1805 9.71479H10.6591C10.4898 9.71648 10.3306 9.63691 10.2427 9.50401C10.1335 9.33556 10.1641 9.1214 10.3149 8.98343L12.4134 7.06188H10.5481C10.3427 7.06188 10.1761 6.90951 10.1761 6.72159C10.1761 6.53367 10.3427 6.38046 10.5481 6.38046H13.0711C13.2414 6.37877 13.3996 6.45834 13.4884 6.59124C13.5939 6.75969 13.5643 6.973 13.4153 7.11182L11.3159 9.03252H13.1803C13.3792 9.04183 13.5347 9.19166 13.5347 9.37366C13.5347 9.55565 13.3794 9.70547 13.1805 9.71479Z" fill="#0C2C7E"/>
</svg>
