<svg width="18" height="22" viewBox="0 0 18 22" fill="none" xmlns="http://www.w3.org/2000/svg">
<path d="M2.23274 11.0697L6.78876 10.7796C7.04911 10.7573 7.28342 10.6011 7.30945 10.378C7.49169 9.50766 7.85618 7.32077 7.726 5.58018C7.54376 3.37097 7.12721 0.559255 4.65394 0.715461C2.2067 0.871668 0.436361 4.46442 0.618602 6.80752C0.774809 8.54811 1.34757 10.0879 1.63395 10.735C1.73808 10.9582 1.97239 11.092 2.23274 11.0697Z" fill="#0C2C7E"/>
<path d="M7.492 12.8102C7.43993 12.5647 7.17958 12.4085 6.89321 12.4308L2.46735 12.6986C2.18097 12.7209 1.94666 12.9218 1.92063 13.1672L1.81649 14.2384C1.68632 15.8004 3.22235 17.0947 5.01873 16.9831C6.84114 16.8716 8.11682 15.3988 7.72631 13.8813L7.492 12.8102Z" fill="#0C2C7E"/>
<path d="M13.5575 5.6471C11.0842 5.4909 10.6677 8.30261 10.4854 10.5118C10.3292 12.2524 10.7197 14.4616 10.902 15.3096C10.954 15.5327 11.1623 15.689 11.4227 15.7113L15.9787 16.0014C16.239 16.0237 16.4733 15.8898 16.5775 15.6666C16.8639 14.9972 17.4366 13.4797 17.5928 11.7392C17.7751 9.39606 16.0047 5.80331 13.5575 5.6471Z" fill="#0C2C7E"/>
<path d="M15.771 17.6303L11.3451 17.3625C11.0587 17.3402 10.7984 17.5188 10.7463 17.7419L10.486 18.813C10.0955 20.3528 11.3711 21.8033 13.1935 21.9149C15.016 22.0264 16.526 20.7321 16.3958 19.1701L16.3177 18.0766C16.2916 17.8312 16.0573 17.6303 15.771 17.6303Z" fill="#0C2C7E"/>
</svg>
