<svg width="19" height="18" viewBox="0 0 19 18" fill="none" xmlns="http://www.w3.org/2000/svg">
<path d="M2.38198 5.68383C2.29983 5.83562 2.11702 5.88831 1.97418 5.80101C1.83133 5.71371 1.78175 5.51945 1.8639 5.36766L1.89573 5.30868C1.97788 5.15688 2.16069 5.10498 2.30353 5.19149C2.44638 5.27879 2.49596 5.47305 2.41381 5.62484L2.38198 5.68383ZM10.1023 10.4617H14.7696C14.9354 10.4617 15.0693 10.6048 15.0693 10.7802V14.4839C15.0693 14.6601 14.9354 14.8025 14.7696 14.8025H10.1023C9.93648 14.8025 9.80253 14.6593 9.80253 14.4839V10.7802C9.80253 10.604 9.93723 10.4617 10.1023 10.4617ZM14.4698 11.0996H10.4028V14.1654H14.4698V11.0996ZM4.70967 17.1777V10.7804C4.70967 10.6042 4.84363 10.4619 5.00941 10.4619H8.51089C8.67668 10.4619 8.81063 10.605 8.81063 10.7804V17.1777H16.2194V8.88337C16.0092 8.74416 15.8331 8.56247 15.6991 8.3517C15.5585 8.57272 15.3712 8.76226 15.1477 8.90382C14.8716 9.07921 14.5615 9.16652 14.2536 9.16652C13.9465 9.16652 13.6378 9.07843 13.361 8.90382C13.1368 8.76226 12.9495 8.57272 12.8089 8.3517C12.6675 8.57272 12.481 8.76226 12.2575 8.90382C11.9807 9.07921 11.6713 9.16652 11.3634 9.16652C11.0555 9.16652 10.7461 9.07843 10.4693 8.90382L10.4523 8.89203C10.2362 8.75203 10.0548 8.56641 9.91791 8.3517C9.77728 8.57193 9.59002 8.76226 9.36576 8.90383C9.08896 9.07921 8.78033 9.16652 8.47317 9.16652C8.16528 9.16652 7.85591 9.07843 7.57908 8.90383L7.56206 8.89203C7.33113 8.74181 7.14018 8.53968 6.99807 8.30529C6.85153 8.54517 6.65465 8.75282 6.41559 8.90383C6.13879 9.07922 5.83016 9.16652 5.523 9.16652C5.21511 9.16652 4.90574 9.07843 4.62892 8.90383L4.61189 8.89203C4.39578 8.75203 4.21517 8.56642 4.07752 8.35171C3.94282 8.56249 3.76667 8.74495 3.55647 8.88416V17.1777L4.70967 17.1777ZM8.21114 17.1777V11.0996H5.30992V17.1777H8.21114ZM16.6302 8.40035C16.6435 8.40585 16.6561 8.41214 16.668 8.41922C16.8182 8.49237 16.981 8.52854 17.1446 8.52854C17.3489 8.52854 17.5524 8.47113 17.7308 8.35787C17.9121 8.24383 18.0557 8.08103 18.1527 7.89148C18.2393 7.72239 18.2874 7.53048 18.2911 7.33308L16.3757 3.79931H3.40338L3.00592 4.53232C2.92377 4.68411 2.74096 4.73602 2.59812 4.6495C2.45527 4.5622 2.40642 4.36795 2.48784 4.21615L2.95856 3.34786V1.13389C2.95856 0.957718 3.09327 0.815369 3.25831 0.815369H16.5192C16.685 0.815369 16.8189 0.958512 16.8189 1.13389V3.34786L16.8197 3.34943L18.8469 7.08918C18.872 7.1348 18.8846 7.18513 18.8868 7.23468C18.9001 7.57445 18.8254 7.90556 18.6788 8.19342C18.5323 8.48128 18.3125 8.72903 18.0364 8.90361C17.7603 9.079 17.451 9.16709 17.1431 9.16709C17.0343 9.16709 16.9255 9.15608 16.8189 9.13406V17.4968C16.8189 17.673 16.6842 17.8154 16.5192 17.8154H3.25828C3.09249 17.8154 2.95853 17.6722 2.95853 17.4968V9.13406C2.85122 9.15608 2.74242 9.16709 2.63436 9.16709C2.32647 9.16709 2.0171 9.07901 1.74028 8.9044L1.72325 8.8926C1.45532 8.71879 1.24142 8.47576 1.09784 8.19418C0.951293 7.90632 0.876534 7.576 0.889854 7.23545C0.892075 7.17646 0.909838 7.12141 0.937963 7.075L1.27102 6.46075C1.35317 6.30895 1.53598 6.25626 1.67882 6.34356C1.82167 6.43086 1.87125 6.62512 1.7891 6.77691L1.48712 7.33374C1.49082 7.53115 1.53893 7.72306 1.62552 7.89215C1.71952 8.07697 1.85867 8.23663 2.03185 8.34988L2.04665 8.35853C2.22576 8.47179 2.4293 8.5292 2.63359 8.5292C2.79567 8.5292 2.95702 8.49302 3.10653 8.42224C3.12133 8.41359 3.13688 8.40572 3.15242 8.39943L3.20645 8.36876L3.21977 8.35932C3.40036 8.24528 3.54468 8.08169 3.64091 7.89293C3.72159 7.73484 3.7697 7.55709 3.77858 7.37306L3.77932 7.23621C3.78524 7.06082 3.92512 6.92475 4.09017 6.93106C4.24708 6.93735 4.37068 7.07184 4.37734 7.23621L4.37808 7.37306C4.38696 7.5571 4.43433 7.73486 4.515 7.89293C4.609 8.07776 4.74815 8.23741 4.92133 8.35066L4.93687 8.35931C5.11598 8.47257 5.31951 8.52998 5.52306 8.52998C5.72733 8.52998 5.9316 8.47257 6.11073 8.35931C6.28984 8.24606 6.43416 8.08404 6.53483 7.89449C6.63845 7.69944 6.69618 7.47451 6.69914 7.24327C6.7021 7.0726 6.83163 6.93338 6.99372 6.93103C7.15876 6.92788 7.2942 7.06788 7.29718 7.24327C7.30088 7.47449 7.35861 7.70022 7.46223 7.89449C7.55992 8.07853 7.69981 8.23662 7.87227 8.34987L7.88707 8.35852C8.06618 8.47178 8.26971 8.52919 8.474 8.52919C8.67829 8.52919 8.88254 8.47178 9.06167 8.35852C9.24078 8.24527 9.3851 8.08168 9.48208 7.89135C9.56275 7.73326 9.61012 7.55551 9.61974 7.37148L9.62048 7.23463C9.6264 7.05924 9.76628 6.92317 9.93133 6.92947C10.0882 6.93576 10.2118 7.07026 10.2185 7.23463L10.2192 7.37148C10.2281 7.55552 10.2755 7.73327 10.3562 7.89135C10.4502 8.07617 10.5893 8.23582 10.7625 8.34908L10.778 8.35773C10.9571 8.47099 11.1607 8.5284 11.3642 8.5284C11.5685 8.5284 11.772 8.47099 11.9504 8.35773C12.131 8.24369 12.2753 8.0801 12.3723 7.89134C12.453 7.73325 12.5011 7.5555 12.51 7.37147L12.5107 7.23462C12.5174 7.05923 12.6565 6.92316 12.8216 6.92947C12.9785 6.93576 13.1028 7.07025 13.1087 7.23462L13.1095 7.37147C13.1183 7.55551 13.1657 7.73248 13.2464 7.89134C13.3426 8.08089 13.4877 8.24369 13.6683 8.35773C13.8474 8.47177 14.0502 8.5284 14.2552 8.5284C14.4595 8.5284 14.663 8.47099 14.8421 8.35773C15.0227 8.24369 15.167 8.0801 15.2633 7.89134C15.3439 7.73247 15.3921 7.5555 15.4002 7.37147L15.4009 7.23462C15.4076 7.05923 15.5467 6.92316 15.7118 6.92947C15.8687 6.93576 15.9923 7.07025 15.999 7.23462L15.9997 7.37147C16.0086 7.55551 16.0567 7.73327 16.1374 7.89134C16.2336 8.08089 16.3786 8.24369 16.5585 8.35773C16.5822 8.37267 16.6059 8.38683 16.631 8.4002L16.6302 8.40035ZM16.2202 1.4524H3.55879V3.08517H16.2202V1.4524Z" fill="#0C2C7E"/>
</svg>
