<svg width="22" height="22" viewBox="0 0 22 22" fill="none" xmlns="http://www.w3.org/2000/svg">
<path d="M2.5302 9.72194C2.49139 9.81739 2.47372 9.91895 2.47823 10.0207C2.48274 10.1225 2.50933 10.2224 2.55645 10.3146C2.60358 10.4069 2.6703 10.4896 2.75272 10.5581C2.83514 10.6265 2.93161 10.6792 3.03652 10.7132C3.14143 10.7471 3.25267 10.7616 3.36377 10.7558C3.47486 10.75 3.58358 10.724 3.6836 10.6794C3.78361 10.6348 3.87292 10.5724 3.94632 10.4958C4.01972 10.4193 4.07573 10.3301 4.11111 10.2336C4.62333 8.90703 5.52413 7.73488 6.71508 6.84524C7.90601 5.95561 9.34125 5.38273 10.8639 5.18921C12.3866 4.9957 13.9381 5.189 15.3488 5.74799C16.7595 6.30698 17.9752 7.21014 18.863 8.35876C19.7507 9.50738 20.2764 10.8573 20.3826 12.2608C20.4887 13.6644 20.1712 15.0677 19.4648 16.3173C18.7584 17.5669 17.6902 18.6147 16.377 19.3462C15.0639 20.0777 13.5563 20.4648 12.019 20.4651C10.598 20.4697 9.1998 20.1377 7.96053 19.5012C7.76935 19.4181 7.55094 19.4043 7.34909 19.4625C7.14725 19.5207 6.9769 19.6465 6.87221 19.8148C6.76752 19.9832 6.73624 20.1815 6.78464 20.37C6.83304 20.5586 6.95754 20.7234 7.13317 20.8314C8.62415 21.6007 10.3075 22.0033 12.019 22C14.6009 21.9808 17.0759 21.0541 18.932 19.4115C20.7881 17.7689 21.8834 15.5362 21.9911 13.1752C22.0988 10.8142 21.2108 8.50568 19.5107 6.72719C17.8106 4.9487 15.4287 3.83635 12.8575 3.62028V1.53488H14.2551C14.4775 1.53488 14.6908 1.45403 14.848 1.3101C15.0053 1.16618 15.0936 0.970979 15.0936 0.767441C15.0936 0.563903 15.0053 0.368701 14.848 0.224778C14.6908 0.0808552 14.4775 0 14.2551 0H9.78293C9.56054 0 9.34726 0.0808552 9.19 0.224778C9.03275 0.368701 8.9444 0.563903 8.9444 0.767441C8.9444 0.970979 9.03275 1.16618 9.19 1.3101C9.34726 1.45403 9.56054 1.53488 9.78293 1.53488H11.1805V3.64176C9.25193 3.78504 7.40964 4.43505 5.87508 5.51368C4.34052 6.5923 3.17901 8.05362 2.5302 9.72194Z" fill="#0C2C7E"/>
<path d="M12.0182 8.18652C11.7958 8.18652 11.5825 8.26738 11.4253 8.4113C11.268 8.55523 11.1797 8.75043 11.1797 8.95397V12.0237C11.1796 12.1664 11.2229 12.3062 11.3049 12.4275C11.3869 12.5488 11.5042 12.6467 11.6437 12.7103L13.8798 13.7336C13.9959 13.7871 14.1243 13.8148 14.2543 13.8144C14.4433 13.8146 14.6269 13.7564 14.7752 13.6492C14.9235 13.5419 15.0279 13.3919 15.0714 13.2236C15.1149 13.0552 15.095 12.8784 15.0148 12.7217C14.9347 12.565 14.7991 12.4377 14.63 12.3604L12.8579 11.55V8.95397C12.8579 8.8531 12.8361 8.75322 12.7939 8.66004C12.7517 8.56686 12.6899 8.48222 12.6119 8.41094C12.5339 8.33966 12.4413 8.28316 12.3395 8.24465C12.2376 8.20614 12.1284 8.18639 12.0182 8.18652Z" fill="#0C2C7E"/>
<path d="M0 12.0243C0 12.2278 0.0883451 12.423 0.2456 12.5669C0.402855 12.7109 0.616139 12.7917 0.838531 12.7917H7.54678C7.76918 12.7917 7.98246 12.7109 8.13971 12.5669C8.29697 12.423 8.38531 12.2278 8.38531 12.0243C8.38531 11.8207 8.29697 11.6255 8.13971 11.4816C7.98246 11.3377 7.76918 11.2568 7.54678 11.2568H0.838531C0.616139 11.2568 0.402855 11.3377 0.2456 11.4816C0.0883451 11.6255 0 11.8207 0 12.0243Z" fill="#0C2C7E"/>
<path d="M8.38544 15.0926C8.38544 14.8891 8.29709 14.6939 8.13984 14.55C7.98258 14.4061 7.7693 14.3252 7.54691 14.3252H1.9567C1.7343 14.3252 1.52102 14.4061 1.36376 14.55C1.20651 14.6939 1.11816 14.8891 1.11816 15.0926C1.11816 15.2962 1.20651 15.4914 1.36376 15.6353C1.52102 15.7792 1.7343 15.8601 1.9567 15.8601H7.54691C7.7693 15.8601 7.98258 15.7792 8.13984 15.6353C8.29709 15.4914 8.38544 15.2962 8.38544 15.0926Z" fill="#0C2C7E"/>
<path d="M4.19302 18.9314H7.54715C7.76954 18.9314 7.98283 18.8505 8.14008 18.7066C8.29734 18.5627 8.38568 18.3675 8.38568 18.1639C8.38568 17.9604 8.29734 17.7652 8.14008 17.6213C7.98283 17.4773 7.76954 17.3965 7.54715 17.3965H4.19302C3.97063 17.3965 3.75735 17.4773 3.60009 17.6213C3.44284 17.7652 3.35449 17.9604 3.35449 18.1639C3.35449 18.3675 3.44284 18.5627 3.60009 18.7066C3.75735 18.8505 3.97063 18.9314 4.19302 18.9314Z" fill="#0C2C7E"/>
</svg>
