<svg width="14" height="15" viewBox="0 0 14 15" fill="none" xmlns="http://www.w3.org/2000/svg">
<path d="M1.53786 6.45599C1.51427 6.51937 1.50354 6.58681 1.50628 6.65438C1.50902 6.72196 1.52518 6.78831 1.55382 6.84957C1.58246 6.91084 1.62301 6.96579 1.6731 7.01122C1.7232 7.05666 1.78183 7.09167 1.84559 7.11421C1.90935 7.13676 1.97696 7.14639 2.04448 7.14254C2.112 7.13869 2.17807 7.12145 2.23886 7.09181C2.29965 7.06216 2.35392 7.02072 2.39853 6.96989C2.44314 6.91906 2.47719 6.85986 2.49868 6.79574C2.80999 5.91483 3.35747 5.13645 4.08128 4.54568C4.80509 3.9549 5.67738 3.57447 6.6028 3.44597C7.52822 3.31746 8.47116 3.44582 9.32855 3.81703C10.1859 4.18823 10.9248 4.78799 11.4643 5.55075C12.0039 6.3135 12.3234 7.20991 12.3879 8.14198C12.4524 9.07405 12.2594 10.0059 11.8301 10.8357C11.4008 11.6655 10.7516 12.3614 9.95348 12.8471C9.1554 13.3329 8.23913 13.5899 7.30483 13.5901C6.44117 13.5932 5.59141 13.3727 4.83822 12.95C4.72203 12.8949 4.58929 12.8857 4.46662 12.9243C4.34394 12.963 4.24041 13.0465 4.17678 13.1583C4.11316 13.2701 4.09415 13.4018 4.12356 13.527C4.15298 13.6522 4.22865 13.7616 4.33539 13.8334C5.24155 14.3442 6.2646 14.6116 7.30483 14.6094C8.87398 14.5967 10.3782 13.9812 11.5063 12.8905C12.6344 11.7997 13.3 10.317 13.3655 8.74916C13.431 7.18132 12.8912 5.64831 11.858 4.46728C10.8248 3.28625 9.37709 2.54758 7.81446 2.40409V1.01926H8.66384C8.799 1.01926 8.92863 0.965566 9.0242 0.869992C9.11978 0.774418 9.17347 0.644792 9.17347 0.50963C9.17347 0.374467 9.11978 0.244841 9.0242 0.149267C8.92863 0.053693 8.799 0 8.66384 0H5.94582C5.81066 0 5.68103 0.053693 5.58546 0.149267C5.48988 0.244841 5.43619 0.374467 5.43619 0.50963C5.43619 0.644792 5.48988 0.774418 5.58546 0.869992C5.68103 0.965566 5.81066 1.01926 5.94582 1.01926H6.7952V2.41836C5.62309 2.5135 4.50341 2.94516 3.57076 3.66143C2.63811 4.37771 1.93219 5.34811 1.53786 6.45599Z" fill="white"/>
<path d="M7.30455 5.43604C7.16939 5.43604 7.03976 5.48973 6.94419 5.5853C6.84862 5.68088 6.79492 5.8105 6.79492 5.94567V7.98418C6.79485 8.07889 6.8212 8.17175 6.87102 8.2523C6.92084 8.33285 6.99214 8.3979 7.07692 8.44013L8.43593 9.11964C8.50654 9.15515 8.58452 9.17354 8.66356 9.17332C8.77845 9.17346 8.89001 9.13479 8.98015 9.06357C9.07029 8.99235 9.13373 8.89276 9.16016 8.78096C9.1866 8.66916 9.17448 8.55171 9.12579 8.44766C9.07709 8.34361 8.99466 8.25906 8.89188 8.20774L7.81486 7.66957V5.94567C7.81486 5.87868 7.80166 5.81236 7.776 5.75048C7.75035 5.68861 7.71275 5.63239 7.66535 5.58506C7.61796 5.53773 7.5617 5.5002 7.49979 5.47463C7.43788 5.44906 7.37153 5.43595 7.30455 5.43604Z" fill="white"/>
<path d="M0 7.98436C0 8.11952 0.053693 8.24915 0.149267 8.34472C0.244841 8.4403 0.374467 8.49399 0.50963 8.49399H4.58667C4.72183 8.49399 4.85145 8.4403 4.94703 8.34472C5.0426 8.24915 5.0963 8.11952 5.0963 7.98436C5.0963 7.8492 5.0426 7.71957 4.94703 7.624C4.85145 7.52842 4.72183 7.47473 4.58667 7.47473H0.50963C0.374467 7.47473 0.244841 7.52842 0.149267 7.624C0.053693 7.71957 0 7.8492 0 7.98436Z" fill="white"/>
<path d="M5.09648 10.0231C5.09648 9.8879 5.04278 9.75827 4.94721 9.6627C4.85164 9.56712 4.72201 9.51343 4.58685 9.51343H1.18932C1.05415 9.51343 0.924529 9.56712 0.828954 9.6627C0.73338 9.75827 0.679688 9.8879 0.679688 10.0231C0.679688 10.1582 0.73338 10.2878 0.828954 10.3834C0.924529 10.479 1.05415 10.5327 1.18932 10.5327H4.58685C4.72201 10.5327 4.85164 10.479 4.94721 10.3834C5.04278 10.2878 5.09648 10.1582 5.09648 10.0231Z" fill="white"/>
<path d="M2.5482 12.5709H4.58672C4.72188 12.5709 4.85151 12.5172 4.94708 12.4216C5.04266 12.3261 5.09635 12.1964 5.09635 12.0613C5.09635 11.9261 5.04266 11.7965 4.94708 11.7009C4.85151 11.6053 4.72188 11.5516 4.58672 11.5516H2.5482C2.41304 11.5516 2.28342 11.6053 2.18784 11.7009C2.09227 11.7965 2.03857 11.9261 2.03857 12.0613C2.03857 12.1964 2.09227 12.3261 2.18784 12.4216C2.28342 12.5172 2.41304 12.5709 2.5482 12.5709Z" fill="white"/>
</svg>
