<svg width="17" height="17" viewBox="0 0 17 17" fill="none" xmlns="http://www.w3.org/2000/svg">
<path d="M1.95524 7.51241C1.92525 7.58616 1.9116 7.66464 1.91508 7.74327C1.91857 7.8219 1.93911 7.89911 1.97553 7.9704C2.01195 8.04169 2.0635 8.10563 2.12719 8.1585C2.19088 8.21137 2.26543 8.25211 2.34649 8.27834C2.42756 8.30458 2.51352 8.31579 2.59936 8.31131C2.68521 8.30683 2.76922 8.28676 2.84651 8.25227C2.92379 8.21778 2.9928 8.16956 3.04952 8.11041C3.10623 8.05126 3.14952 7.98237 3.17685 7.90776C3.57266 6.8827 4.26874 5.97695 5.18901 5.28951C6.10928 4.60206 7.21833 4.15938 8.39493 4.00985C9.57153 3.86031 10.7704 4.00968 11.8605 4.44163C12.9506 4.87357 13.89 5.57147 14.576 6.45904C15.262 7.34661 15.6682 8.3897 15.7502 9.47429C15.8323 10.5589 15.5869 11.6432 15.0411 12.6088C14.4952 13.5744 13.6698 14.3841 12.6551 14.9494C11.6404 15.5146 10.4754 15.8137 9.28751 15.8139C8.18943 15.8175 7.10902 15.5609 6.1514 15.0691C6.00368 15.0049 5.83491 14.9942 5.67893 15.0392C5.52296 15.0841 5.39133 15.1814 5.31043 15.3115C5.22954 15.4415 5.20537 15.5948 5.24277 15.7405C5.28017 15.8862 5.37637 16.0135 5.51209 16.097C6.66421 16.6914 7.96494 17.0025 9.28751 17C11.2826 16.9852 13.1951 16.2691 14.6294 14.9998C16.0637 13.7305 16.91 12.0052 16.9932 10.1808C17.0764 8.35643 16.3902 6.57257 15.0765 5.19828C13.7629 3.82399 11.9222 2.96445 9.93547 2.79749V1.18605H11.0154C11.1872 1.18605 11.3521 1.12357 11.4736 1.01235C11.5951 0.90114 11.6634 0.750302 11.6634 0.593023C11.6634 0.435743 11.5951 0.284906 11.4736 0.173692C11.3521 0.062479 11.1872 0 11.0154 0H7.55963C7.38778 0 7.22297 0.062479 7.10145 0.173692C6.97994 0.284906 6.91167 0.435743 6.91167 0.593023C6.91167 0.750302 6.97994 0.90114 7.10145 1.01235C7.22297 1.12357 7.38778 1.18605 7.55963 1.18605H8.63956V2.81409C7.14931 2.9248 5.72572 3.42709 4.53992 4.26057C3.35412 5.09405 2.4566 6.22325 1.95524 7.51241Z" fill="#0C2C7E"/>
<path d="M9.28712 6.32581C9.11527 6.32581 8.95046 6.38829 8.82894 6.4995C8.70743 6.61071 8.63916 6.76155 8.63916 6.91883V9.29092C8.63906 9.40113 8.67257 9.50918 8.73591 9.60291C8.79925 9.69664 8.88991 9.77233 8.9977 9.82148L10.7256 10.6122C10.8154 10.6535 10.9145 10.6749 11.015 10.6746C11.1611 10.6748 11.3029 10.6298 11.4175 10.5469C11.5321 10.4641 11.6128 10.3482 11.6464 10.2181C11.68 10.088 11.6646 9.95131 11.6027 9.83023C11.5408 9.70916 11.436 9.61078 11.3053 9.55106L9.93594 8.92483V6.91883C9.93594 6.84089 9.91915 6.76371 9.88653 6.69171C9.85391 6.61971 9.80611 6.5543 9.74585 6.49922C9.68559 6.44414 9.61406 6.40048 9.53534 6.37072C9.45663 6.34096 9.37228 6.3257 9.28712 6.32581Z" fill="#0C2C7E"/>
<path d="M0 9.29102C0 9.4483 0.0682666 9.59914 0.189782 9.71035C0.311297 9.82156 0.476108 9.88404 0.647956 9.88404H5.83161C6.00345 9.88404 6.16826 9.82156 6.28978 9.71035C6.41129 9.59914 6.47956 9.4483 6.47956 9.29102C6.47956 9.13374 6.41129 8.9829 6.28978 8.87169C6.16826 8.76048 6.00345 8.698 5.83161 8.698H0.647956C0.476108 8.698 0.311297 8.76048 0.189782 8.87169C0.0682666 8.9829 0 9.13374 0 9.29102Z" fill="#0C2C7E"/>
<path d="M6.47988 11.6627C6.47988 11.5054 6.41161 11.3546 6.2901 11.2434C6.16858 11.1322 6.00377 11.0697 5.83192 11.0697H1.51221C1.34037 11.0697 1.17556 11.1322 1.05404 11.2434C0.932524 11.3546 0.864258 11.5054 0.864258 11.6627C0.864258 11.82 0.932524 11.9708 1.05404 12.0821C1.17556 12.1933 1.34037 12.2557 1.51221 12.2557H5.83192C6.00377 12.2557 6.16858 12.1933 6.2901 12.0821C6.41161 11.9708 6.47988 11.82 6.47988 11.6627Z" fill="#0C2C7E"/>
<path d="M3.23975 14.6279H5.83158C6.00343 14.6279 6.16824 14.5655 6.28975 14.4542C6.41127 14.343 6.47953 14.1922 6.47953 14.0349C6.47953 13.8776 6.41127 13.7268 6.28975 13.6156C6.16824 13.5044 6.00343 13.4419 5.83158 13.4419H3.23975C3.0679 13.4419 2.90309 13.5044 2.78158 13.6156C2.66006 13.7268 2.5918 13.8776 2.5918 14.0349C2.5918 14.1922 2.66006 14.343 2.78158 14.4542C2.90309 14.5655 3.0679 14.6279 3.23975 14.6279Z" fill="#0C2C7E"/>
</svg>
