<svg width="18" height="18" viewBox="0 0 18 18" fill="none" xmlns="http://www.w3.org/2000/svg">
<path d="M9.4675 10.7738C4.77324 10.7738 0.967499 12.4652 0.967499 14.5516V17.25H17.9675V14.5516C17.9675 12.4652 14.1618 10.7738 9.4675 10.7738ZM16.8342 16.1706H2.10083V14.5516C2.10083 13.0621 5.39883 11.8532 9.4675 11.8532C13.5362 11.8532 16.8342 13.0621 16.8342 14.5516V16.1706Z" fill="#2B2A63"/>
<path d="M12.0434 1.43549C11.3602 0.676385 10.4337 0.25 9.46749 0.25C8.50131 0.25 7.57478 0.676385 6.89158 1.43549C6.20839 2.19459 5.82464 3.22407 5.82464 4.29763C5.82464 5.37116 6.20839 6.40064 6.89158 7.15975C7.57478 7.91885 8.50131 8.34524 9.46749 8.34524C10.4337 8.34524 11.3602 7.91885 12.0434 7.15975C12.7266 6.40064 13.1104 5.37116 13.1104 4.29763C13.1104 3.22407 12.7266 2.19459 12.0434 1.43549ZM11.3074 6.342C10.8194 6.88416 10.1575 7.18877 9.46749 7.18877C8.77743 7.18877 8.11558 6.88416 7.62754 6.342C7.13961 5.79975 6.86546 5.06436 6.86546 4.29763C6.86546 3.53088 7.13961 2.79549 7.62754 2.25323C8.11558 1.71108 8.77743 1.40646 9.46749 1.40646C10.1575 1.40646 10.8194 1.71108 11.3074 2.25323C11.7954 2.79549 12.0695 3.53088 12.0695 4.29763C12.0695 5.06436 11.7954 5.79975 11.3074 6.342Z" fill="#2B2A63"/>
</svg>
