<svg width="16" height="12" viewBox="0 0 16 12" fill="none" xmlns="http://www.w3.org/2000/svg">
<path d="M8.33488 4.89935L6.02523 3.45554C5.82864 3.33286 5.60281 3.26499 5.37116 3.25898C5.13951 3.25297 4.91046 3.30903 4.70777 3.42135C4.50508 3.53367 4.33612 3.69816 4.21841 3.89777C4.1007 4.09738 4.03853 4.32484 4.03833 4.55657V7.44418C4.03829 7.67601 4.10032 7.90362 4.21797 8.10337C4.33563 8.30312 4.50462 8.46773 4.70739 8.58009C4.91016 8.69246 5.13932 8.74849 5.37107 8.74235C5.60281 8.73622 5.82869 8.66815 6.02523 8.54522L8.33488 7.10141C8.52179 6.98483 8.67595 6.82258 8.78283 6.62996C8.8897 6.43733 8.94578 6.22067 8.94578 6.00038C8.94578 5.78009 8.8897 5.56342 8.78283 5.3708C8.67595 5.17817 8.52179 5.01593 8.33488 4.89935ZM7.74504 6.16064L5.43614 7.60147C5.40799 7.61906 5.37566 7.6288 5.34249 7.6297C5.30931 7.6306 5.2765 7.62261 5.24745 7.60657C5.2184 7.59053 5.19416 7.56702 5.17724 7.53847C5.16033 7.50992 5.15135 7.47737 5.15123 7.44418V4.55657C5.15063 4.52329 5.15926 4.4905 5.17615 4.46182C5.19304 4.43314 5.21755 4.4097 5.24694 4.39409C5.27475 4.37803 5.3061 4.3691 5.3382 4.36812C5.37269 4.36835 5.4064 4.37838 5.43539 4.39705L7.74504 5.84086C7.77189 5.8574 7.79406 5.88054 7.80943 5.90807C7.82481 5.93561 7.83288 5.96662 7.83288 5.99815C7.83288 6.02969 7.82481 6.0607 7.80943 6.08823C7.79406 6.11576 7.77189 6.1389 7.74504 6.15544V6.16064Z" fill="#EFF6FF"/>
<path d="M15.2861 2.48694L12.2442 3.09532V2.29032C12.2438 1.74893 12.0284 1.22986 11.6453 0.847244C11.2623 0.464631 10.743 0.249803 10.2016 0.25H2.04032C1.49932 0.250393 0.98058 0.465481 0.598031 0.848031C0.215481 1.23058 0.000393031 1.74932 0 2.29032V9.70968C0.000393031 10.2507 0.215481 10.7694 0.598031 11.152C0.98058 11.5345 1.49932 11.7496 2.04032 11.75H10.2016C10.7426 11.7496 11.2614 11.5345 11.6439 11.152C12.0265 10.7694 12.2415 10.2507 12.2419 9.70968V8.90468L15.2839 9.51307C15.3647 9.52971 15.4483 9.52813 15.5285 9.50843C15.6087 9.48873 15.6835 9.45141 15.7474 9.39918C15.8114 9.34695 15.8629 9.28113 15.8982 9.2065C15.9335 9.13187 15.9518 9.05031 15.9516 8.96774V3.03226C15.9516 2.94998 15.9333 2.86873 15.8982 2.79433C15.863 2.71994 15.8118 2.65424 15.7483 2.60194C15.6848 2.54943 15.6103 2.51184 15.5303 2.49194C15.4503 2.47203 15.3668 2.47032 15.2861 2.48694ZM14.8409 8.28887L11.799 7.68048C11.7183 7.66393 11.6348 7.66566 11.5548 7.68556C11.4749 7.70546 11.4003 7.74302 11.3368 7.79548C11.2733 7.84778 11.2221 7.91349 11.1869 7.98788C11.1518 8.06228 11.1335 8.14353 11.1335 8.22581V9.70968C11.1333 9.83179 11.109 9.95266 11.0621 10.0654C11.0151 10.1781 10.9464 10.2805 10.8598 10.3666C10.7733 10.4527 10.6706 10.521 10.5577 10.5674C10.4447 10.6138 10.3237 10.6375 10.2016 10.6371H2.04032C1.79448 10.6367 1.55881 10.5389 1.38497 10.365C1.21113 10.1912 1.1133 9.95552 1.1129 9.70968V2.29032C1.1133 2.04448 1.21113 1.80881 1.38497 1.63497C1.55881 1.46113 1.79448 1.3633 2.04032 1.3629H10.2016C10.4475 1.3633 10.6831 1.46113 10.857 1.63497C11.0308 1.80881 11.1286 2.04448 11.129 2.29032V3.77419C11.1289 3.85676 11.1471 3.93832 11.1825 4.01295C11.2178 4.08758 11.2693 4.15341 11.3332 4.20563C11.3972 4.25786 11.472 4.29518 11.5522 4.31488C11.6323 4.33458 11.7159 4.33616 11.7968 4.31952L14.8387 3.71113L14.8409 8.28887Z" fill="#EFF6FF"/>
</svg>
