<svg width="21" height="16" viewBox="0 0 21 16" fill="none" xmlns="http://www.w3.org/2000/svg">
<path d="M10.5087 6.61254L7.59653 4.79208C7.34866 4.6374 7.06392 4.55183 6.77183 4.54425C6.47975 4.53667 6.19095 4.60736 5.93539 4.74898C5.67982 4.8906 5.46679 5.098 5.31837 5.34968C5.16995 5.60136 5.09156 5.88816 5.09131 6.18034V9.82125C5.09126 10.1135 5.16946 10.4005 5.31781 10.6524C5.46616 10.9043 5.67923 11.1118 5.9349 11.2535C6.19058 11.3952 6.47952 11.4658 6.77172 11.4581C7.06392 11.4503 7.34872 11.3645 7.59653 11.2095L10.5087 9.38905C10.7444 9.24206 10.9387 9.03749 11.0735 8.79461C11.2083 8.55174 11.279 8.27855 11.279 8.00079C11.279 7.72304 11.2083 7.44985 11.0735 7.20698C10.9387 6.9641 10.7444 6.75953 10.5087 6.61254ZM9.76499 8.20286L6.85376 10.0196C6.81827 10.0417 6.77751 10.054 6.73568 10.0552C6.69385 10.0563 6.65248 10.0462 6.61585 10.026C6.57922 10.0058 6.54866 9.97613 6.52733 9.94013C6.506 9.90413 6.49468 9.86309 6.49453 9.82125V6.18034C6.49378 6.13838 6.50465 6.09703 6.52595 6.06087C6.54725 6.02471 6.57815 5.99515 6.61521 5.97547C6.65027 5.95522 6.68981 5.94397 6.73028 5.94273C6.77376 5.94302 6.81626 5.95567 6.85283 5.97921L9.76499 7.79967C9.79884 7.82052 9.82679 7.8497 9.84618 7.88441C9.86557 7.91913 9.87575 7.95823 9.87575 7.99799C9.87575 8.03775 9.86557 8.07685 9.84618 8.11157C9.82679 8.14628 9.79884 8.17545 9.76499 8.19631V8.20286Z" fill="#0C2C7E"/>
<path d="M19.2738 3.57048L15.4383 4.33758V3.32258C15.4378 2.63996 15.1662 1.98547 14.6833 1.50305C14.2003 1.02062 13.5455 0.749752 12.8629 0.75H2.57258C1.89044 0.750496 1.23638 1.02169 0.754039 1.50404C0.271694 1.98638 0.000495561 2.64044 0 3.32258V12.6774C0.000495561 13.3596 0.271694 14.0136 0.754039 14.496C1.23638 14.9783 1.89044 15.2495 2.57258 15.25H12.8629C13.545 15.2495 14.1991 14.9783 14.6814 14.496C15.1638 14.0136 15.435 13.3596 15.4355 12.6774V11.6624L19.271 12.4295C19.3729 12.4505 19.4783 12.4485 19.5794 12.4237C19.6805 12.3988 19.7748 12.3518 19.8554 12.2859C19.9361 12.2201 20.001 12.1371 20.0455 12.043C20.0901 11.9489 20.1131 11.846 20.1129 11.7419V4.25806C20.1128 4.15432 20.0898 4.05188 20.0455 3.95807C20.0012 3.86427 19.9367 3.78143 19.8566 3.71548C19.7765 3.64928 19.6825 3.60188 19.5816 3.57679C19.4808 3.55169 19.3756 3.54954 19.2738 3.57048ZM18.7125 10.886L14.877 10.1189C14.7752 10.098 14.67 10.1002 14.5692 10.1253C14.4683 10.1504 14.3744 10.1977 14.2942 10.2639C14.2141 10.3298 14.1496 10.4127 14.1053 10.5065C14.061 10.6003 14.0379 10.7027 14.0379 10.8065V12.6774C14.0376 12.8314 14.007 12.9838 13.9478 13.1259C13.8886 13.268 13.802 13.3971 13.6928 13.5057C13.5837 13.6143 13.4542 13.7004 13.3118 13.7589C13.1694 13.8174 13.0169 13.8473 12.8629 13.8468H2.57258C2.2626 13.8463 1.96546 13.7229 1.74627 13.5037C1.52708 13.2845 1.40372 12.9874 1.40323 12.6774V3.32258C1.40372 3.0126 1.52708 2.71546 1.74627 2.49627C1.96546 2.27708 2.2626 2.15372 2.57258 2.15323H12.8629C13.1729 2.15372 13.47 2.27708 13.6892 2.49627C13.9084 2.71546 14.0318 3.0126 14.0323 3.32258V5.19355C14.0321 5.29765 14.0551 5.4005 14.0996 5.49459C14.1442 5.58869 14.2091 5.67168 14.2897 5.73754C14.3704 5.80339 14.4647 5.85044 14.5658 5.87528C14.6669 5.90012 14.7722 5.90212 14.8742 5.88113L18.7097 5.11403L18.7125 10.886Z" fill="#0C2C7E"/>
</svg>
