<svg width="17" height="12" viewBox="0 0 17 12" fill="none" xmlns="http://www.w3.org/2000/svg">
<path d="M9.29795 4.86846L6.98831 3.42465C6.79172 3.30197 6.56589 3.23411 6.33423 3.2281C6.10258 3.22209 5.87354 3.27815 5.67085 3.39047C5.46815 3.50279 5.2992 3.66728 5.18149 3.86689C5.06378 4.0665 5.0016 4.29396 5.0014 4.52569V7.4133C5.00136 7.64513 5.06339 7.87273 5.18104 8.07249C5.2987 8.27224 5.46769 8.43684 5.67046 8.54921C5.87324 8.66158 6.1024 8.7176 6.33414 8.71147C6.56589 8.70534 6.79176 8.63727 6.98831 8.51433L9.29795 7.07053C9.48487 6.95394 9.63902 6.7917 9.7459 6.59907C9.85278 6.40645 9.90886 6.18978 9.90886 5.96949C9.90886 5.7492 9.85278 5.53254 9.7459 5.33991C9.63902 5.14729 9.48487 4.98504 9.29795 4.86846ZM8.70811 6.12975L6.39921 7.57059C6.37107 7.58818 6.33874 7.59792 6.30556 7.59882C6.27239 7.59971 6.23958 7.59173 6.21053 7.57569C6.18147 7.55965 6.15724 7.53614 6.14032 7.50759C6.1234 7.47904 6.11442 7.44649 6.11431 7.4133V4.52569C6.11371 4.49241 6.12233 4.45961 6.13922 4.43093C6.15612 4.40226 6.18062 4.37881 6.21002 4.3632C6.23782 4.34714 6.26918 4.33822 6.30127 4.33724C6.33576 4.33747 6.36947 4.3475 6.39847 4.36617L8.70811 5.80998C8.73496 5.82652 8.75713 5.84966 8.77251 5.87719C8.78788 5.90472 8.79596 5.93573 8.79596 5.96727C8.79596 5.9988 8.78788 6.02981 8.77251 6.05735C8.75713 6.08488 8.73496 6.10802 8.70811 6.12456V6.12975Z" fill="#0C2C7E"/>
<path d="M16.2494 2.45581L13.2075 3.06419V2.25919C13.2071 1.7178 12.9917 1.19873 12.6087 0.816116C12.2256 0.433503 11.7063 0.218675 11.1649 0.218872H3.00364C2.46263 0.219265 1.9439 0.434353 1.56135 0.816903C1.1788 1.19945 0.963711 1.71819 0.963318 2.25919V9.67855C0.963711 10.2196 1.1788 10.7383 1.56135 11.1208C1.9439 11.5034 2.46263 11.7185 3.00364 11.7189H11.1649C11.7059 11.7185 12.2247 11.5034 12.6072 11.1208C12.9898 10.7383 13.2049 10.2196 13.2053 9.67855V8.87355L16.2472 9.48194C16.3281 9.49858 16.4116 9.497 16.4918 9.4773C16.572 9.4576 16.6468 9.42028 16.7107 9.36805C16.7747 9.31583 16.8262 9.25 16.8615 9.17537C16.8968 9.10075 16.9151 9.01918 16.9149 8.93661V3.00113C16.9149 2.91885 16.8966 2.8376 16.8615 2.76321C16.8263 2.68881 16.7752 2.62311 16.7116 2.57081C16.6481 2.5183 16.5736 2.48071 16.4936 2.46081C16.4136 2.44091 16.3302 2.4392 16.2494 2.45581ZM15.8043 8.25774L12.7623 7.64936C12.6816 7.6328 12.5981 7.63453 12.5182 7.65443C12.4382 7.67433 12.3637 7.71189 12.3001 7.76436C12.2366 7.81666 12.1854 7.88236 12.1503 7.95675C12.1151 8.03115 12.0969 8.1124 12.0968 8.19468V9.67855C12.0966 9.80066 12.0723 9.92153 12.0254 10.0343C11.9784 10.147 11.9097 10.2493 11.8232 10.3355C11.7366 10.4216 11.6339 10.4898 11.521 10.5363C11.408 10.5827 11.287 10.6064 11.1649 10.606H3.00364C2.75779 10.6056 2.52213 10.5077 2.34829 10.3339C2.17445 10.1601 2.07661 9.9244 2.07622 9.67855V2.25919C2.07661 2.01335 2.17445 1.77768 2.34829 1.60384C2.52213 1.43 2.75779 1.33217 3.00364 1.33178H11.1649C11.4108 1.33217 11.6464 1.43 11.8203 1.60384C11.9941 1.77768 12.092 2.01335 12.0924 2.25919V3.74307C12.0922 3.82563 12.1104 3.9072 12.1458 3.98183C12.1811 4.05646 12.2326 4.12228 12.2966 4.1745C12.3605 4.22673 12.4353 4.26405 12.5155 4.28375C12.5957 4.30345 12.6792 4.30503 12.7601 4.28839L15.802 3.68L15.8043 8.25774Z" fill="#0C2C7E"/>
</svg>
