<svg width="18" height="18" viewBox="0 0 18 18" fill="none" xmlns="http://www.w3.org/2000/svg">
<path d="M16.8249 3.16076L17.5899 2.39282C17.6324 2.35059 17.6662 2.30036 17.6892 2.24503C17.7122 2.18969 17.7241 2.13035 17.7241 2.07041C17.7241 2.01047 17.7122 1.95112 17.6892 1.89578C17.6662 1.84045 17.6324 1.79022 17.5899 1.74799L16.7105 0.868671C16.6245 0.784178 16.5087 0.736839 16.3881 0.736839C16.2675 0.736839 16.1518 0.784178 16.0657 0.868671L15.2919 1.62782L14.5181 0.854016C14.3497 0.685258 14.1382 0.565901 13.9066 0.508921C13.6751 0.451941 13.4324 0.459518 13.2049 0.530827C12.9773 0.602137 12.7737 0.734451 12.6161 0.913387C12.4585 1.09232 12.353 1.31103 12.311 1.54575C12.0517 1.34069 11.7242 1.24153 11.3947 1.26824C11.0651 1.29495 10.7579 1.44553 10.535 1.68968C10.312 1.93382 10.1899 2.25337 10.1931 2.58399C10.1963 2.9146 10.3247 3.23171 10.5524 3.47145L12.0179 4.93698L5.41424 11.5113L3.9487 10.0458C3.70896 9.81813 3.39186 9.68975 3.06124 9.68652C2.73063 9.68329 2.41107 9.80546 2.16693 10.0284C1.92279 10.2514 1.7722 10.5586 1.74549 10.8881C1.71879 11.2177 1.81794 11.5451 2.023 11.8045C1.78629 11.8469 1.56587 11.9538 1.38599 12.1134C1.20611 12.273 1.07374 12.4791 1.00345 12.7091C0.933153 12.9391 0.927656 13.184 0.987562 13.4169C1.04747 13.6498 1.17046 13.8616 1.34299 14.0291L2.11679 14.8029L1.34885 15.5709C1.26573 15.6576 1.21933 15.7731 1.21933 15.8933C1.21933 16.0134 1.26573 16.1289 1.34885 16.2157L2.22817 17.095C2.2704 17.1376 2.32063 17.1713 2.37597 17.1944C2.4313 17.2174 2.49065 17.2293 2.55059 17.2293C2.61053 17.2293 2.66988 17.2174 2.72521 17.1944C2.78055 17.1713 2.83078 17.1376 2.87301 17.095L3.64094 16.33L4.39716 17.0833C4.56541 17.252 4.77666 17.3714 5.00799 17.4286C5.23931 17.4857 5.48187 17.4784 5.70933 17.4074C5.93679 17.3364 6.14046 17.2045 6.29822 17.0259C6.45599 16.8473 6.56183 16.629 6.60425 16.3945C6.86361 16.5996 7.19104 16.6987 7.52059 16.672C7.85014 16.6453 8.15732 16.4947 8.38028 16.2506C8.60324 16.0064 8.72541 15.6869 8.72218 15.3563C8.71895 15.0256 8.59057 14.7085 8.36288 14.4688L6.92959 13.0355L13.5303 6.45527L14.9636 7.88856C15.2034 8.11625 15.5205 8.24463 15.8511 8.24786C16.1817 8.25109 16.5013 8.12892 16.7454 7.90596C16.9895 7.683 17.1401 7.37581 17.1668 7.04626C17.1935 6.71672 17.0944 6.38929 16.8893 6.12992C17.124 6.08736 17.3426 5.98139 17.5214 5.82349C17.7002 5.66559 17.8324 5.46178 17.9036 5.23414C17.9749 5.00649 17.9825 4.76369 17.9256 4.53203C17.8688 4.30037 17.7496 4.08869 17.5811 3.9199L16.8249 3.16076ZM5.85096 16.6905C5.70984 16.8248 5.52253 16.8996 5.32777 16.8996C5.13301 16.8996 4.9457 16.8248 4.80457 16.6905L3.86077 15.7467L3.82853 15.7145C3.82096 15.7084 3.81408 15.7015 3.80801 15.694L2.75576 14.6447C2.75576 14.6447 2.75576 14.63 2.73818 14.6271L2.72059 14.6036L1.74455 13.6305C1.67584 13.5618 1.62134 13.4802 1.58416 13.3905C1.54697 13.3007 1.52783 13.2045 1.52783 13.1073C1.52783 13.0101 1.54697 12.9139 1.58416 12.8242C1.62134 12.7344 1.67584 12.6528 1.74455 12.5841C1.88331 12.4454 2.07151 12.3674 2.26774 12.3674C2.36491 12.3674 2.46112 12.3865 2.55089 12.4237C2.64066 12.4609 2.72223 12.5154 2.79094 12.5841L5.85096 15.6441C5.91982 15.7128 5.97446 15.7943 6.01174 15.8841C6.04902 15.9739 6.06821 16.0701 6.06821 16.1673C6.06821 16.2646 6.04902 16.3608 6.01174 16.4506C5.97446 16.5404 5.91982 16.6219 5.85096 16.6905ZM6.53097 12.6398L5.81286 11.9041L12.3931 5.32388L13.1288 6.04199L6.53097 12.6398ZM17.1707 5.36199C17.0296 5.49621 16.8423 5.57107 16.6475 5.57107C16.4528 5.57107 16.2654 5.49621 16.1243 5.36199L13.0731 2.30196C13.0044 2.23325 12.9499 2.15169 12.9127 2.06192C12.8755 1.97215 12.8564 1.87593 12.8564 1.77877C12.8564 1.6816 12.8755 1.58538 12.9127 1.49562C12.9499 1.40585 13.0044 1.32428 13.0731 1.25557C13.1418 1.18686 13.2234 1.13236 13.3131 1.09518C13.4029 1.058 13.4991 1.03886 13.5963 1.03886C13.6935 1.03886 13.7897 1.058 13.8794 1.09518C13.9692 1.13236 14.0508 1.18686 14.1195 1.25557L15.0809 2.21403V2.22868L15.1043 2.2492L16.2035 3.33955L16.2181 3.36007L17.1619 4.30387C17.2308 4.37249 17.2854 4.45403 17.3227 4.54382C17.36 4.6336 17.3792 4.72985 17.3792 4.82707C17.3792 4.92428 17.36 5.02054 17.3227 5.11032C17.2854 5.2001 17.2308 5.28164 17.1619 5.35026L17.1707 5.36199Z" fill="#0C2C7E"/>
</svg>
