<svg width="343" height="204" viewBox="0 0 343 204" fill="none" xmlns="http://www.w3.org/2000/svg">
<path d="M77.6801 97.7127C76.7641 101.086 74.5646 101.827 71.2022 101.64C65.1906 101.305 59.146 101.492 53.1179 101.574C51.6314 101.596 50.8196 101.179 50.2218 99.7642C45.6636 89.0244 43.2612 77.8183 43.9633 66.1954C44.8957 50.7878 51.0445 37.3274 60.627 25.3479C67.2146 17.1093 74.9101 10.1871 84.4981 5.65098C98.5618 -1.00792 113.141 -1.57837 127.891 2.87004C146.057 8.34964 160.856 18.5739 171.338 34.7055C175.743 26.796 182.676 21.3548 189.883 16.1165C197.392 10.6589 205.197 5.87586 214.193 3.2869C214.796 3.11138 215.427 3.03458 216.042 2.91391C216.442 5.61258 217.468 8.38803 217.117 10.988C216.442 15.9904 215.142 20.9215 213.826 25.8087C212.323 31.409 211.088 37.1902 208.702 42.4175C206.24 47.8149 202.603 52.6911 199.328 57.699C198.248 59.35 196.805 60.809 195.346 62.1693C192.483 64.8296 189.521 67.3802 186.554 69.9253C182.281 73.5893 178.09 77.374 173.62 80.7857C170.609 83.084 167.169 84.8173 163.922 86.8029C158.591 89.4028 153.265 92.0028 147.933 94.6027C146.907 91.8108 145.926 88.9969 144.829 86.2324C144.527 85.4645 143.88 84.8337 143.397 84.1426C142.87 84.8831 142.13 85.5578 141.861 86.3805C140.583 90.3353 139.431 94.3339 138.236 98.3161C135.466 99.4076 132.696 100.505 129.926 101.596H112.62C112.126 98.5355 111.688 95.76 111.227 92.9956C109.614 83.3034 108.002 73.6058 106.334 63.9191C106.235 63.3377 105.643 62.8385 105.281 62.301C104.897 62.8989 104.283 63.4583 104.168 64.1056C102.347 74.3353 100.547 84.565 98.8526 94.8111C98.5289 96.7638 98.7045 98.7933 98.6496 100.79C98.6386 100.894 98.6277 100.998 98.6222 101.103C98.2108 101.958 97.6458 102.775 97.4264 103.675C96.8834 105.907 96.494 108.178 96.0442 110.438C94.3274 110.603 92.6105 110.773 90.8937 110.937C88.7326 102.402 86.5714 93.8622 84.4158 85.3274C84.1251 85.3164 83.8344 85.3109 83.5382 85.3C81.591 87.6311 80.1429 90.2091 79.8961 93.3905C79.7315 93.747 79.5615 94.1035 79.3969 94.4601L77.6801 97.7182V97.7127ZM103.098 26.9112C103.679 19.638 98.9458 16.484 92.7806 17.2135C90.6578 17.4659 88.4693 18.1515 86.566 19.1278C74.4713 25.3205 66.2766 35.1388 60.8683 47.4199C59.1625 51.2979 58.3616 55.3678 58.5975 59.6462C58.8663 64.4182 62.0641 67.8025 66.8196 67.5173C69.5677 67.3528 72.4967 66.8207 74.9485 65.6359C85.7213 60.4196 93.4991 52.1207 98.858 41.4576C101.085 37.0312 103.093 32.5828 103.098 26.9057V26.9112Z" fill="#EE707F"/>
<path d="M85.0293 147.61C82.4733 145.065 79.9227 142.52 77.3667 139.975C76.9937 139.591 76.6207 139.202 76.2477 138.818C76.1106 138.648 75.9735 138.478 75.8363 138.308C75.573 137.984 75.3098 137.666 75.052 137.342L73.4174 136.097C70.8339 132.658 68.2011 129.252 65.6779 125.769C63.451 122.692 61.3447 119.527 59.1836 116.4C59.584 116.225 59.968 115.951 60.3848 115.896C67.3619 114.947 74.3389 114.031 81.3159 113.098C83.8171 112.764 86.3183 112.391 88.8195 112.034C90.6461 117.837 91.3756 123.986 93.449 129.713C93.8548 129.674 94.2662 129.636 94.6721 129.592C95.9063 122.785 97.1459 115.983 98.3801 109.176C98.9231 109.209 99.499 109.39 99.9981 109.259C105.928 107.75 111.851 106.22 117.759 104.613C118.242 104.481 118.565 103.768 118.966 103.324C120.222 103.296 121.494 103.379 122.734 103.214C126.475 102.72 129.568 103.231 130.429 107.668C131.203 110.032 131.971 112.391 132.744 114.755C133.145 115.665 133.55 116.581 133.951 117.492C134.549 116.636 135.415 115.857 135.701 114.908C137.538 108.858 139.255 102.764 141.01 96.6869C142.623 96.3139 144.241 95.9409 145.854 95.5734C146.638 97.0654 147.422 98.5518 148.207 100.044C148.415 101.585 148.069 103.362 150.675 103.296C156.555 103.143 162.44 103.198 168.326 103.17C168.869 103.17 169.417 103.176 169.96 103.181C173.806 103.181 177.645 103.187 181.49 103.192C192.263 103.181 203.041 103.17 213.814 103.159C217.302 103.17 220.791 103.181 224.279 103.187C227.629 103.318 229.936 101.885 231.202 98.8864C232.085 96.7911 232.99 94.7013 233.889 92.6115C233.917 92.5456 234.032 92.5127 234.641 92.1233C236.1 99.0894 237.515 105.841 238.93 112.594C238.228 113.175 237.273 113.619 236.873 114.36C231.372 124.524 224.586 133.656 215.717 141.155C211.186 144.983 207.149 149.218 201.368 151.664C192.603 155.372 184.326 160.215 175.791 164.488C174.107 165.333 172.253 165.969 170.41 166.315C167.3 166.902 164.124 167.132 160.987 167.598C149.249 169.353 137.516 171.125 125.795 172.957C124.588 173.144 123.452 173.785 122.284 174.219L122.427 173.835C120.748 173.703 119.075 173.577 117.397 173.445C116.859 173.423 116.322 173.396 115.784 173.374L115.751 173.341C115.351 172.743 115.077 171.981 114.534 171.58C111.851 169.595 109.103 167.702 106.377 165.772C106.136 165.552 105.895 165.338 105.659 165.119C103.969 163.841 102.274 162.563 100.585 161.285C98.6982 159.672 96.8113 158.065 94.9244 156.452C93.1418 154.999 91.3646 153.551 89.582 152.097C88.0681 150.6 86.5487 149.102 85.0348 147.599L85.0293 147.61Z" fill="#E96575"/>
<path d="M163.933 86.7976C167.18 84.812 170.619 83.0733 173.63 80.7805C178.101 77.3688 182.291 73.5841 186.564 69.92C189.532 67.3749 192.494 64.8244 195.357 62.1641C196.816 60.8093 198.258 59.3502 199.339 57.6937C202.614 52.6859 206.25 47.8096 208.713 42.4123C211.099 37.185 212.333 31.4037 213.836 25.8034C215.147 20.9162 216.452 15.9796 217.127 10.9827C217.478 8.38826 216.452 5.60732 216.052 2.90866C222.629 1.95974 229.205 1.01082 235.782 0.0673828C236.363 1.5703 236.923 3.07321 237.521 4.57064C240.11 11.0376 242.205 17.6087 244.037 24.3718C248.134 39.5271 250.076 54.6934 249.045 70.3698C248.25 82.4589 245.523 94.0105 241.234 105.26C240.96 105.974 240.345 106.555 239.89 107.202C238.387 100.543 236.89 93.8844 235.387 87.2255C235.096 87.198 234.806 87.1706 234.515 87.1487C234.054 87.9495 233.506 88.7064 233.155 89.5511C232.003 92.3211 230.785 95.0691 229.858 97.9159C228.936 100.746 227.269 102.09 224.28 101.629C220.797 101.646 217.314 101.668 213.831 101.684C202.844 101.701 191.857 101.717 180.865 101.734C177.404 101.766 173.948 101.799 170.487 101.827C170.027 101.827 169.566 101.827 169.105 101.827C163.483 101.728 157.861 101.695 152.249 101.465C151.312 101.426 150.412 100.532 149.496 100.033C149.211 98.9142 148.92 97.7952 148.635 96.6708C150.911 95.0801 153.379 94.4877 156.204 94.2958C159.78 94.0489 163.214 90.2861 163.933 86.7976Z" fill="#E46374"/>
<path d="M239.88 107.202C240.335 106.56 240.955 105.974 241.224 105.26C245.513 94.0105 248.239 82.4589 249.034 70.3698C250.066 54.6934 248.129 39.5271 244.027 24.3718C242.195 17.6032 240.099 11.0321 237.51 4.57064C236.912 3.0787 236.347 1.5703 235.771 0.0673828C248.069 0.0838381 259.056 3.94534 268.698 11.5202C279.466 19.9837 287.315 30.6961 292.624 43.2789C296.837 53.2563 298.548 63.6505 297.874 74.4946C297.342 83.0403 295.449 91.2076 292.251 99.1281C291.637 100.653 290.831 101.108 289.235 101.097C277.091 101.048 264.941 101.18 252.797 101.042C249.566 101.004 247.718 102.238 246.445 105.074C245.03 108.228 243.341 111.256 241.41 115.04C240.812 111.991 240.346 109.594 239.88 107.197V107.202Z" fill="#DC5768"/>
<path d="M236.764 165.733C233.319 168.251 229.88 170.769 226.436 173.292C226.063 173.873 225.69 174.455 225.317 175.036C224.516 175.316 223.715 175.596 222.92 175.87C222.283 176.314 221.636 176.759 220.994 177.208C215.63 180.444 210.337 183.818 204.879 186.889C197.666 190.948 190.311 194.755 183.048 198.726C181.299 199.681 179.708 200.92 177.98 201.93C174.722 203.838 171.31 204.842 167.69 202.95C164.394 201.227 161.158 199.406 157.888 197.624C157.318 197.267 156.753 196.916 156.183 196.56L156.199 196.587C155.678 194.969 154.696 193.345 154.729 191.744C154.8 188.091 153.659 184.827 152.689 181.399C151.306 176.523 153.742 170.434 159.72 169.606C161.958 169.293 164.191 168.92 166.418 168.525C170.521 167.796 174.59 167.182 178.249 164.763C181.721 162.47 185.495 160.61 189.23 158.762C195.796 155.52 202.817 153.025 208.922 149.092C214.187 145.696 218.504 140.798 223.123 136.432C225.092 134.573 227.275 134.43 229.003 135.971C230.944 137.71 232.244 136.997 233.67 135.746C238.793 131.249 244.076 126.91 248.897 122.105C252.835 118.178 256.894 115.517 262.763 115.753C265.5 115.863 268.769 113.291 268.024 111.058C266.987 107.97 268.237 105.568 269.823 103.165C270.892 103.165 271.967 103.165 273.037 103.165C273.596 105.107 274.534 107.027 274.628 108.99C274.754 111.601 275.028 113.971 276.668 116.132C277.189 116.823 277.206 117.969 277.271 118.918C277.414 120.86 277.43 122.813 277.502 124.76C274.726 128.375 271.956 131.995 269.186 135.609L269.236 135.587C269.06 135.779 268.885 135.977 268.704 136.169C268.32 136.712 267.93 137.249 267.546 137.792L267.568 137.781C267.371 137.968 267.173 138.154 266.976 138.335V138.319C266.433 138.868 265.895 139.421 265.352 139.97C262.972 142.372 260.586 144.775 258.205 147.172C256.757 148.625 255.304 150.079 253.856 151.527C251.842 153.326 249.824 155.131 247.811 156.93C245.984 158.4 244.152 159.864 242.326 161.334C240.68 162.634 239.029 163.929 237.384 165.229C237.175 165.399 236.967 165.569 236.753 165.733H236.764Z" fill="#DC5768"/>
<path d="M269.833 103.159C268.242 105.562 266.997 107.964 268.034 111.052C268.78 113.285 265.511 115.857 262.774 115.748C256.91 115.512 252.846 118.172 248.907 122.099C244.086 126.904 238.804 131.243 233.681 135.741C232.255 136.991 230.949 137.705 229.013 135.966C227.291 134.424 225.102 134.562 223.133 136.427C218.52 140.793 214.203 145.691 208.932 149.086C202.827 153.019 195.801 155.515 189.24 158.756C185.5 160.605 181.726 162.464 178.259 164.757C174.601 167.17 170.531 167.79 166.428 168.52C164.201 168.915 161.969 169.288 159.731 169.6C153.746 170.434 151.317 176.517 152.699 181.393C153.67 184.821 154.811 188.085 154.739 191.738C154.706 193.34 155.688 194.969 156.209 196.582C145.639 190.581 135.064 184.586 124.494 178.585C123.628 178.091 122.783 177.559 121.927 177.049C121.384 176.693 120.841 176.331 120.298 175.974C119.289 175.179 117.177 175.656 117.397 173.451C119.075 173.583 120.754 173.709 122.427 173.84L122.284 174.224C123.452 173.791 124.588 173.155 125.794 172.963C137.516 171.131 149.254 169.359 160.987 167.604C164.124 167.132 167.3 166.907 170.41 166.32C172.259 165.969 174.107 165.333 175.791 164.494C184.326 160.226 192.603 155.378 201.368 151.67C207.149 149.223 211.186 144.994 215.717 141.16C224.586 133.662 231.371 124.535 236.873 114.365C237.273 113.62 238.233 113.181 238.93 112.599C239.445 114.519 239.956 116.439 240.493 118.353C240.526 118.468 240.795 118.518 241.288 118.765C241.766 117.986 242.303 117.207 242.737 116.373C244.755 112.506 246.697 108.601 248.776 104.772C249.187 104.015 250.092 103 250.778 102.995C257.129 102.94 263.476 103.083 269.827 103.165L269.833 103.159Z" fill="#E05A6A"/>
<path d="M88.82 112.029C86.3188 112.385 83.8231 112.758 81.3164 113.093C74.3394 114.031 67.3569 114.941 60.3853 115.89C59.9685 115.945 59.5845 116.225 59.1841 116.395C56.7323 112.21 54.2804 108.03 51.4775 103.253C55.2952 103.253 58.3339 103.253 61.3726 103.253C65.4645 103.247 69.5674 103.017 73.6373 103.291C76.4402 103.483 77.8937 102.534 78.4313 99.8684C78.5739 99.1663 78.8701 98.4917 79.095 97.806C79.2321 97.4714 79.3692 97.1314 79.5118 96.7968C79.6544 96.4019 79.7971 96.0014 79.9342 95.6065C81.0586 93.6319 82.1831 91.6573 83.5873 89.189C85.4193 97.1698 87.1197 104.597 88.8255 112.023L88.82 112.029Z" fill="#EE7180"/>
<path d="M305.475 132.839C309.386 131.726 313.308 130.662 317.197 129.477C319.018 128.923 319.413 127.881 318.568 125.928C317.131 122.61 315.99 119.192 316.78 115.353C317.252 113.038 318.074 111.502 320.532 111.595C322.43 111.667 324.305 114.662 323.817 116.867C323.23 119.516 322.364 122.099 321.64 124.716C321.53 125.122 321.503 125.544 321.322 126.718C325.66 123.251 328.99 119.768 330.509 115.155C331.074 113.438 329.675 111.157 329.505 109.105C329.33 106.972 329.22 104.717 329.73 102.682C330.032 101.465 331.886 99.5228 332.495 99.7093C333.904 100.137 335.627 101.454 336.066 102.786C337.146 106.094 335.451 109.122 334.124 112.122C331.639 117.733 328.162 122.642 323.45 127.08C326.823 127.382 329.796 127.458 332.698 127.963C335.693 128.484 337.163 130.311 336.652 132.23C336.071 134.419 333.471 135.757 330.838 134.759C328.134 133.733 325.364 132.532 323.11 130.782C321.102 129.225 319.797 129.981 317.948 130.7C314.602 131.995 311.108 132.911 307.675 133.986C306.759 134.167 305.837 134.348 304.921 134.529C304.729 134.529 304.543 134.534 304.351 134.54C303.808 134.359 303.265 134.178 302.722 133.997C302.722 133.667 302.722 133.333 302.727 133.004C303.276 132.971 303.824 132.932 304.373 132.894C304.746 132.878 305.119 132.867 305.492 132.85L305.475 132.839Z" fill="#70B464"/>
<path d="M63.5176 179.94C66.145 178.755 68.7778 177.57 71.8001 176.21C69.9352 175.585 68.2348 175.277 66.8142 174.471C64.4775 173.144 62.0586 171.761 60.1663 169.902C58.06 167.829 58.3342 164.51 60.1827 162.738C61.8611 161.126 65.1357 161.098 67.1213 163.249C69.2605 165.563 70.8238 168.41 72.7655 170.922C77.8721 177.554 75.0473 184.481 73.3414 191.212C72.601 194.141 69.5567 195.227 67.253 194.344C64.8066 193.406 63.2873 190.334 64.3623 187.493C65.1796 185.332 66.6167 183.384 67.9222 181.437C68.6023 180.417 69.5896 179.6 70.4343 178.689C70.3027 178.486 70.1765 178.283 70.0449 178.075C67.8783 178.903 65.7117 179.731 63.5451 180.56C63.5341 180.351 63.5231 180.143 63.5122 179.934L63.5176 179.94ZM70.8677 178.003C70.8348 178.064 70.758 178.141 70.7744 178.174C70.8073 178.245 70.8896 178.3 70.9554 178.36C70.9883 178.245 71.0267 178.124 71.0596 178.009C70.9938 178.009 70.9335 178.009 70.8677 178.009V178.003Z" fill="#10652F"/>
<path d="M267.09 175.305C268.862 172.677 270.595 170.023 272.416 167.428C273.458 165.942 274.479 164.379 275.795 163.161C277.857 161.247 281.187 161.192 282.805 162.76C284.599 164.499 284.604 167.675 282.794 170.017C280.298 173.248 276.656 174.455 272.965 175.563C272.466 175.711 271.939 175.777 270.76 176.018C272.965 178.755 274.994 181.048 276.755 183.527C278.296 185.705 279.667 188.25 278.521 190.91C277.885 192.38 276.294 194.13 274.895 194.377C273.491 194.623 271.138 193.565 270.365 192.342C269.12 190.361 268.631 187.816 268.187 185.441C267.617 182.403 267.414 179.293 267.052 176.21C267.068 175.908 267.079 175.601 267.096 175.299L267.09 175.305Z" fill="#70B464"/>
<path d="M90.9217 173.445C90.5652 177.356 90.439 181.3 89.7589 185.15C89.4188 187.076 88.4479 189.215 87.0822 190.57C84.5755 193.065 80.6482 191.733 79.9515 188.222C79.617 186.549 79.7431 184.443 80.5055 182.973C81.7836 180.51 83.7308 178.387 85.4257 176.144C86.2978 174.992 87.2248 173.879 87.702 173.286C84.4274 170.615 81.3448 168.262 78.4761 165.662C77.6094 164.878 77.1267 163.479 76.8415 162.272C76.2656 159.831 76.9183 157.637 79.2549 156.431C81.5587 155.24 83.5936 156.228 85.0856 158.038C86.051 159.206 86.8024 160.643 87.3071 162.08C88.4863 165.426 89.4572 168.843 90.5103 172.233C90.6475 172.633 90.7846 173.039 90.9217 173.44V173.445Z" fill="#A8D99C"/>
<path d="M252.939 169.715C253.937 166.896 254.842 164.038 255.967 161.268C256.504 159.952 257.278 158.619 258.27 157.621C259.834 156.047 261.869 155.229 263.953 156.59C265.938 157.89 266.767 159.87 266.147 162.278C264.896 167.088 260.892 169.249 257.118 171.63C256.526 172.003 255.873 172.282 255.254 172.617C255.232 172.628 255.254 172.787 255.292 172.842C255.341 172.913 255.435 172.952 255.511 173.001C255.506 173.27 255.495 173.544 255.489 173.813C255.566 174.104 255.561 174.46 255.731 174.669C257.925 177.29 260.294 179.786 262.285 182.551C263.053 183.62 263.152 185.288 263.234 186.697C263.371 189.138 262.258 190.921 259.795 191.59C257.135 192.314 255.243 190.959 254.25 188.771C253.411 186.922 253.136 184.778 252.829 182.732C252.484 180.4 252.379 178.031 252.171 175.683C252.171 174.981 252.171 174.274 252.171 173.571C252.187 173.16 252.204 172.749 252.22 172.337C252.456 171.465 252.697 170.588 252.933 169.715H252.939Z" fill="#A8D99C"/>
<path d="M277.512 124.754C277.44 122.807 277.424 120.855 277.281 118.913C277.21 117.964 277.199 116.818 276.678 116.126C275.038 113.965 274.764 111.596 274.638 108.985C274.544 107.021 273.606 105.101 273.047 103.16C278.751 103.16 284.45 103.16 290.517 103.16C286.842 110.839 282.937 118.244 277.517 124.754H277.512Z" fill="#E05A6A"/>
<path d="M79.5007 96.8021C79.3636 97.1367 79.2265 97.4768 79.0839 97.8114C78.6176 97.7785 78.1459 97.7456 77.6797 97.7127C78.2501 96.6266 78.8261 95.5406 79.3965 94.4545C79.5611 94.098 79.7311 93.7415 79.8957 93.3849C80.1425 90.2036 81.5906 87.6256 83.5378 85.2944C83.8285 85.3054 84.1192 85.3109 84.4154 85.3219C86.5765 93.8567 88.7376 102.397 90.8988 110.932C91.7544 114.854 92.6156 118.775 93.4713 122.697C93.7071 122.675 93.9375 122.648 94.1734 122.626C94.7987 118.562 95.424 114.497 96.0493 110.433C96.499 108.178 96.8885 105.902 97.4315 103.669C97.6509 102.77 98.2214 101.953 98.6273 101.102C98.545 103.796 98.4627 106.483 98.3804 109.177C97.1463 115.984 95.9066 122.785 94.6725 129.592C94.2666 129.63 93.8552 129.669 93.4493 129.713C91.3705 123.981 90.6464 117.837 88.8199 112.034C87.114 104.607 85.4137 97.1806 83.5816 89.1998C82.1775 91.6681 81.053 93.6427 79.9286 95.6174C79.786 96.0123 79.6434 96.4127 79.5062 96.8076L79.5007 96.8021Z" fill="#FDF2F3"/>
<path d="M245.02 180.181C245.612 181.41 246.303 182.594 246.786 183.867C248.015 187.103 246.638 190.756 243.901 191.755C241.197 192.742 238.081 190.893 237.423 187.191C236.71 183.187 236.743 179.051 236.452 174.97C236.425 174.608 236.392 174.252 236.348 173.681H233.819C233.792 173.462 233.764 173.242 233.731 173.023C234.702 172.93 235.673 172.831 236.644 172.738C237.247 172.979 237.845 173.22 238.449 173.456C240.637 175.7 242.831 177.943 245.02 180.187V180.181Z" fill="#70B464"/>
<path d="M278.899 180.154C283.737 179.49 288.109 180.795 292.289 182.968C292.848 183.258 293.369 183.653 293.863 184.054C296.737 186.379 297.587 190.279 295.717 192.49C293.764 194.793 289.979 194.53 287.33 191.491C284.949 188.754 283.002 185.639 280.852 182.693C280.271 181.898 279.651 181.136 278.899 180.159V180.154Z" fill="#A8D99C"/>
<path d="M63.518 179.94C63.529 180.148 63.54 180.357 63.5509 180.565C61.4063 183.631 59.3384 186.758 57.084 189.742C56.1132 191.025 54.8955 192.226 53.5516 193.098C51.5551 194.393 49.3171 194.514 47.5125 192.698C45.7244 190.904 45.7079 188.535 47.0628 186.664C48.2914 184.964 50.0083 183.132 51.8951 182.496C55.6305 181.229 59.6291 180.746 63.518 179.94Z" fill="#70B464"/>
<path d="M107.453 172.667C107.87 172.798 108.287 172.935 109.329 173.27C108.062 173.473 107.376 173.583 106.274 173.758C106.274 176.49 106.323 179.293 106.252 182.09C106.213 183.538 106.06 185.008 105.769 186.429C105.281 188.831 104.381 191.234 101.677 191.639C100.301 191.848 98.4192 191.288 97.3496 190.383C95.2104 188.584 95.4627 185.962 96.3239 183.565C96.8998 181.958 97.8706 180.488 98.666 178.958C100.525 177.318 102.385 175.678 104.239 174.043C104.771 173.484 105.308 172.93 105.84 172.37C105.983 172.376 106.131 172.381 106.274 172.381C106.669 172.48 107.058 172.573 107.453 172.672V172.667Z" fill="#70B464"/>
<path d="M302.711 132.993C302.711 133.322 302.711 133.657 302.706 133.986C298.861 134.068 295.021 134.139 291.176 134.244C288.62 134.309 286.064 134.43 283.514 134.523C279.663 135.253 275.807 135.96 271.967 136.723C270.486 137.014 269.033 137.43 267.568 137.787C267.952 137.244 268.342 136.706 268.726 136.163C268.901 135.971 269.077 135.774 269.258 135.582L269.208 135.604C271.825 134.891 274.436 134.15 277.063 133.47C278.944 132.982 281.539 133.136 282.526 131.94C283.409 130.87 282.268 128.314 282.488 126.471C282.768 124.167 283.398 121.875 284.128 119.659C284.66 118.041 285.74 116.62 287.775 117.267C289.723 117.887 290.929 119.456 290.54 121.447C290.15 123.443 289.278 125.402 288.313 127.212C287.424 128.874 286.124 130.316 284.643 132.351C290.907 132.571 296.809 132.779 302.717 132.993H302.711Z" fill="#10652F"/>
<path d="M220.994 177.203C221.641 176.758 222.283 176.309 222.919 175.864C225.349 178.514 228.18 180.911 230.088 183.9C231.268 185.743 231.498 188.54 231.251 190.811C231.114 192.084 229.315 193.625 227.922 194.195C226.002 194.98 224.088 193.921 223.078 192.106C222.311 190.723 221.729 189.111 221.565 187.542C221.203 184.114 221.164 180.647 220.994 177.203Z" fill="#A8D99C"/>
<path d="M120.293 175.968C120.836 176.325 121.379 176.687 121.922 177.043C121.801 180.219 121.752 183.406 121.527 186.577C121.423 188.003 121.16 189.484 120.628 190.8C119.514 193.565 117.282 194.815 114.868 194.294C112.669 193.822 110.903 191.376 111.276 188.568C112.038 182.841 115.609 178.969 120.288 175.963L120.293 175.968Z" fill="#A8D99C"/>
<path d="M73.4181 136.092C73.9611 136.509 74.5042 136.926 75.0527 137.337C75.0527 137.535 75.0417 137.727 75.0362 137.924C72.2992 137.052 69.5621 136.191 66.8305 135.308C61.6032 133.618 56.2662 133.832 50.8909 134.233C48.9217 134.381 46.9306 134.255 44.9505 134.255C44.9395 133.903 44.9286 133.552 44.9121 133.201C49.2015 132.894 53.4908 132.587 58.3122 132.247C56.9958 130.508 55.7726 129.28 55.0211 127.81C54.0119 125.818 52.9533 123.685 52.7284 121.529C52.6022 120.295 53.787 118.375 54.9334 117.695C56.5131 116.757 57.9941 117.827 58.8607 119.549C60.7256 123.235 60.413 127.124 60.0674 131.024C60.029 131.463 59.8974 131.89 59.8754 132.017C64.4884 133.404 68.9533 134.748 73.4126 136.092H73.4181Z" fill="#70B464"/>
<path d="M6.06123 70.4244C2.64402 70.375 -0.0272162 67.6818 0.000209292 64.3195C0.0276347 60.99 2.82503 58.2585 6.16545 58.2804C9.68139 58.3078 12.4623 61.1217 12.3965 64.5773C12.3307 67.8464 9.48942 70.4738 6.06123 70.4244Z" fill="#FFA653"/>
<path d="M336.867 58.2806C340.235 58.3355 342.829 61.0122 342.807 64.4185C342.786 68.0112 340.153 70.5234 336.511 70.4191C333.126 70.3259 330.592 67.6163 330.68 64.1881C330.762 60.8312 333.494 58.2258 336.867 58.2806Z" fill="#FFA653"/>
<path d="M23.4382 127.941C23.4601 128.468 23.6795 129.351 23.4711 129.466C20.9808 130.843 18.518 132.346 15.8633 133.317C13.6637 134.117 11.2174 134.523 8.88073 134.529C8.07991 134.529 6.71961 132.817 6.63733 131.803C6.55505 130.804 7.61368 128.923 8.43095 128.77C12.1279 128.056 15.9181 127.815 19.6754 127.398C19.7028 127.464 19.7138 127.541 19.7577 127.59C19.7851 127.623 19.8564 127.618 19.9058 127.629C19.829 127.552 19.7522 127.475 19.6754 127.398C19.637 127.075 19.5986 126.751 19.5602 126.427C19.6425 126.34 19.7302 126.252 19.8235 126.175C20.5201 126.427 21.2167 126.674 21.9078 126.927C22.4179 127.267 22.928 127.607 23.4382 127.941Z" fill="#70B464"/>
<path d="M13.4436 119.642C10.0977 115.446 7.70621 110.729 6.63114 105.441C6.37334 104.163 6.86151 102.458 7.602 101.355C8.15051 100.538 9.68633 100.006 10.7559 100.05C11.5513 100.083 12.9116 101.202 12.9609 101.909C13.1858 105.222 13.5424 108.667 12.8787 111.859C12.374 114.278 12.182 116.192 13.685 118.156C13.9263 118.469 13.9702 118.935 14.1073 119.33C13.8879 119.434 13.6685 119.538 13.4436 119.642Z" fill="#70B464"/>
<path d="M23.4376 127.941C22.9275 127.601 22.4174 127.261 21.9073 126.926C21.1065 124.436 20.2563 121.957 19.5268 119.445C19.2525 118.501 19.1538 117.487 19.1428 116.499C19.1209 113.729 20.6786 111.667 22.8014 111.546C24.8638 111.426 26.076 113.148 26.2734 116.187C26.5422 120.41 25.2751 124.239 23.4431 127.947L23.4376 127.941Z" fill="#70B464"/>
<path d="M37.2547 132.883C35.7518 130.727 34.0679 128.671 32.8063 126.378C31.9616 124.842 31.2211 122.944 31.3583 121.282C31.4625 119.988 32.746 118.326 33.9527 117.706C35.697 116.806 37.3425 118.172 37.7155 119.84C38.456 123.153 38.796 126.559 39.169 129.943C39.2732 130.903 38.9222 131.912 38.7796 132.9C38.275 132.9 37.7648 132.889 37.2602 132.883H37.2547Z" fill="#70B464"/>
<path d="M305.476 132.839C305.103 132.856 304.73 132.867 304.357 132.883C303.617 128.748 303.299 124.661 304.862 120.591C305.668 118.49 306.705 116.971 309.211 117.607C311.098 118.085 311.976 120.29 311.543 122.736C310.813 126.894 307.939 129.74 305.476 132.839Z" fill="#10652F"/>
<path d="M265.368 139.964C265.911 139.416 266.449 138.862 266.992 138.313C270.091 139.498 273.212 140.622 276.267 141.9C277.15 142.268 278.066 142.948 278.565 143.738C279.081 144.561 279.58 145.943 279.224 146.629C278.724 147.578 277.512 148.45 276.443 148.729C274.254 149.305 272.268 148.362 270.82 146.733C268.895 144.572 267.178 142.23 265.368 139.959V139.964Z" fill="#10652F"/>
<path d="M313.704 33.8662C316.496 33.8278 318.811 36.0712 318.849 38.8467C318.887 41.677 316.704 43.9368 313.896 43.9807C311.082 44.0246 308.822 41.836 308.767 39.0222C308.718 36.2083 310.918 33.9046 313.704 33.8662Z" fill="#0C2C7E"/>
<path d="M60.4066 134.836C57.867 138.308 55.7772 141.336 53.479 144.188C52.8646 144.95 51.5976 145.554 50.6267 145.565C49.4255 145.576 47.8129 145.225 47.1327 144.407C46.5458 143.694 46.6062 141.912 47.0834 140.941C48.8441 137.359 55.1848 134.271 60.4066 134.831V134.836Z" fill="#70B464"/>
<path d="M283.272 134.408C288.434 134.605 292.487 136.651 295.521 140.42C296.212 141.275 296.393 143.244 295.877 144.21C295.038 145.784 293.349 146.503 291.456 145.373C287.266 142.882 284.808 139.125 283.272 134.408Z" fill="#70B464"/>
<path d="M37.8913 134.66C37.0356 139.048 34.858 142.641 31.1501 145.131C29.3565 146.338 27.2338 146.541 25.7473 144.588C24.2663 142.641 25.2207 140.771 26.943 139.668C29.8995 137.781 33.0644 136.223 36.1415 134.529C36.6846 134.529 37.2331 134.529 37.7761 134.529L37.8913 134.666V134.66Z" fill="#A8D99C"/>
<path d="M34.1884 39.0056C34.139 41.7811 31.8407 44.0245 29.0708 43.9861C26.3557 43.9532 24.0519 41.5836 24.0903 38.863C24.1232 36.1205 26.4599 33.8442 29.2134 33.8771C31.9669 33.91 34.2432 36.2521 34.1939 39.0056H34.1884Z" fill="#0C2C7E"/>
<path d="M76.2477 138.818C76.6207 139.202 76.9937 139.592 77.3666 139.976C75.1068 142.63 73.017 145.472 70.4993 147.847C69.5778 148.719 67.5812 148.845 66.1442 148.691C63.5771 148.412 62.7215 145.729 64.4493 143.777C67.5758 140.244 71.9583 139.614 76.2532 138.813L76.2477 138.818Z" fill="#A8D99C"/>
<path d="M304.329 134.534C304.521 134.534 304.708 134.529 304.9 134.523C305.816 134.704 306.732 134.885 307.653 135.066C311.356 135.955 314.729 137.485 316.857 140.771C317.449 141.681 317.696 143.442 317.203 144.292C316.303 145.833 314.394 146.821 312.771 145.499C310.577 143.711 308.613 141.577 306.836 139.356C305.722 137.968 305.146 136.152 304.329 134.529V134.534Z" fill="#70B464"/>
<path d="M85.0302 147.61C86.5496 149.108 88.0635 150.605 89.5774 152.108C88.5955 152.525 87.6247 152.98 86.6264 153.359C84.7889 154.055 82.9843 155.004 81.0755 155.3C79.1008 155.608 77.2195 154.423 77.1207 152.437C77.0659 151.335 78.4481 149.722 79.5945 149.102C81.2016 148.23 83.1927 148.071 85.0247 147.61H85.0302Z" fill="#70B464"/>
<path d="M253.873 151.527C255.321 150.073 256.774 148.62 258.222 147.172C260.005 147.775 261.815 148.313 263.565 148.998C265.265 149.667 266.554 151.104 265.699 152.777C265.095 153.957 263.367 155.125 262.029 155.262C258.743 155.602 256.281 153.474 253.867 151.527H253.873Z" fill="#10652F"/>
<path d="M106.273 172.376C106.131 172.376 105.983 172.376 105.84 172.365C105.247 172.195 104.65 172.019 104.057 171.849C101.457 169.299 98.8519 166.754 96.252 164.203C97.6945 163.232 99.1371 162.262 100.58 161.285C102.269 162.563 103.964 163.841 105.653 165.119C105.697 165.344 105.736 165.564 105.78 165.783C105.939 167.247 106.103 168.706 106.262 170.171C106.262 170.906 106.268 171.636 106.273 172.371V172.376Z" fill="#70B464"/>
<path d="M237.395 165.229C239.041 163.929 240.692 162.634 242.337 161.334C243.813 162.272 245.288 163.21 246.764 164.148C246.725 164.307 246.703 164.466 246.709 164.625C243.988 167.203 241.262 169.787 238.536 172.365C237.966 172.365 237.401 172.376 236.83 172.381C236.995 170.187 237.159 167.988 237.324 165.794C237.346 165.607 237.368 165.421 237.39 165.229H237.395Z" fill="#70B464"/>
<path d="M100.58 161.29C99.1377 162.261 97.6952 163.232 96.2526 164.208C95.9619 164.329 95.6657 164.455 95.3695 164.576C94.1902 164.598 92.8463 164.993 91.881 164.554C90.7675 164.049 89.5059 162.93 89.2262 161.839C89.0068 160.972 89.9283 159.475 90.773 158.756C91.9468 157.747 93.5155 157.204 94.9197 156.458C96.8066 158.071 98.6934 159.678 100.58 161.29Z" fill="#A8D99C"/>
<path d="M246.763 164.148C245.288 163.21 243.812 162.272 242.337 161.334C244.163 159.864 245.995 158.4 247.822 156.93C249.089 157.407 250.378 157.84 251.623 158.367C253.181 159.025 254.547 160.232 253.697 161.877C253.071 163.09 251.53 164.082 250.181 164.593C249.232 164.949 247.915 164.329 246.763 164.143V164.148Z" fill="#10652F"/>
<path d="M29.1041 95.8149C29.0163 97.8828 27.8589 99.1004 25.7801 99.3144C23.8768 99.5118 22.0996 97.7401 22.0612 95.8039C22.0228 93.8019 23.6683 92.1783 25.7143 92.288C27.8535 92.4032 29.0053 93.566 29.1041 95.8149Z" fill="#0C2C7E"/>
<path d="M313.736 95.6448C314.12 93.6427 315.146 92.3044 317.351 92.2824C319.375 92.2605 321.004 94.0102 320.79 96.0178C320.565 98.1679 319.221 99.3637 317.132 99.2704C315.025 99.1717 313.939 97.7511 313.736 95.6503V95.6448Z" fill="#0C2C7E"/>
<path d="M307.181 160.506C307.011 163.32 306.106 164.521 304.126 164.647C302.124 164.774 301.043 163.616 300.775 161.773C300.528 160.1 302.343 157.978 303.89 158.389C305.223 158.745 306.337 159.936 307.181 160.512V160.506Z" fill="#FFA653"/>
<path d="M38.286 165.135C37.4523 163.945 36.0591 162.815 35.911 161.543C35.6861 159.617 37.189 158.285 39.1801 158.367C41.0395 158.444 42.4053 159.799 42.0378 161.614C41.7745 162.909 40.4197 163.984 39.5531 165.157C39.1307 165.152 38.7139 165.141 38.2915 165.135H38.286Z" fill="#F79D67"/>
<path d="M37.2546 132.883C37.7648 132.883 38.2694 132.894 38.774 132.9C40.447 132.955 42.1199 133.004 43.7929 133.059C43.7929 133.47 43.7929 133.876 43.7929 134.288C41.8237 134.408 39.8546 134.534 37.8854 134.655L37.7757 134.523C37.2108 134.348 36.6458 134.172 36.0808 133.997C32.0054 133.536 28.0397 132.752 24.8145 129.91C28.9612 130.903 33.1079 131.896 37.2546 132.889V132.883Z" fill="#70B464"/>
<path d="M213.826 101.684C217.309 101.668 220.792 101.646 224.275 101.629C224.275 102.15 224.28 102.666 224.286 103.187C220.797 103.176 217.309 103.165 213.82 103.159C213.82 102.671 213.82 102.178 213.826 101.689V101.684Z" fill="#F8D6D4"/>
<path d="M104.239 174.038C100.547 173.868 96.856 173.692 93.1645 173.522C92.4186 173.5 91.6726 173.473 90.9211 173.451C90.784 173.05 90.6469 172.645 90.5098 172.244C91.0254 172.255 91.5464 172.272 92.062 172.283C96.0607 172.14 100.059 171.997 104.058 171.855C104.65 172.025 105.243 172.2 105.841 172.37C105.309 172.93 104.771 173.484 104.239 174.043V174.038Z" fill="#0C2C7E"/>
<path d="M252.178 173.572C247.603 173.533 243.023 173.489 238.448 173.451C237.845 173.21 237.247 172.968 236.644 172.732C236.638 172.579 236.704 172.458 236.836 172.381C237.406 172.381 237.971 172.37 238.542 172.365C243.105 172.354 247.663 172.348 252.227 172.337C252.211 172.749 252.194 173.16 252.178 173.572Z" fill="#0C2C7E"/>
<path d="M255.49 173.818C255.496 173.549 255.507 173.275 255.512 173.006C259.374 173.774 263.235 174.537 267.091 175.305C267.075 175.606 267.064 175.913 267.047 176.215C263.197 175.414 259.341 174.619 255.49 173.818Z" fill="#0C2C7E"/>
<path d="M19.5595 126.422C18.2595 125.33 16.965 124.233 15.665 123.141C15.879 122.922 16.0874 122.708 16.3013 122.489C18.2156 122.928 19.3455 124.2 19.8173 126.169C19.724 126.246 19.6362 126.328 19.554 126.416L19.5595 126.422Z" fill="#A8D99C"/>
<path d="M231.92 174.202C231.174 174.334 230.423 174.471 229.677 174.603C229.605 174.29 229.534 173.978 229.463 173.665C230.203 173.473 230.944 173.286 231.684 173.094C231.761 173.462 231.843 173.835 231.92 174.202Z" fill="#F8F6F9"/>
<path d="M106.274 172.376C106.274 171.641 106.268 170.911 106.263 170.176C106.658 171.005 107.058 171.833 107.453 172.661C107.058 172.562 106.669 172.469 106.274 172.37V172.376Z" fill="#F8F6F9"/>
<path d="M110.597 173.073H112.566C112.566 173.391 112.582 173.692 112.566 173.692C111.935 173.769 111.304 173.813 110.673 173.868L110.597 173.073Z" fill="#F8F6F9"/>
<path d="M115.779 173.374V175.398C115.154 174.822 114.786 174.482 114.419 174.148C114.863 173.879 115.302 173.61 115.746 173.341L115.779 173.374Z" fill="#F8F6F9"/>
<path d="M14.6836 120.273C15.062 120.624 15.435 120.975 15.8135 121.331C15.6928 121.49 15.5667 121.649 15.446 121.809C15.0182 121.496 14.5903 121.189 14.168 120.876C14.3435 120.673 14.5135 120.476 14.6891 120.273H14.6836Z" fill="#A8D99C"/>
<path d="M307.654 135.066C306.738 134.885 305.822 134.704 304.9 134.523C305.816 134.342 306.738 134.161 307.654 133.98C307.654 134.342 307.654 134.704 307.654 135.072V135.066Z" fill="#BBD3ED"/>
<path d="M228.487 174.065C228.372 174.153 228.262 174.246 228.147 174.334C228.021 174.175 227.895 174.01 227.769 173.851C227.906 173.785 228.059 173.659 228.18 173.681C228.284 173.698 228.355 173.895 228.482 174.065H228.487Z" fill="#F8F6F9"/>
<path d="M36.0811 133.996C36.646 134.172 37.211 134.347 37.7759 134.523C37.2329 134.523 36.6844 134.523 36.1414 134.523C36.1304 134.342 36.1085 134.166 36.0811 133.991V133.996Z" fill="#BAD2ED"/>
<path d="M75.0361 137.929C75.0361 137.732 75.0471 137.54 75.0526 137.343C75.3159 137.666 75.5737 137.984 75.837 138.308C75.5682 138.182 75.3049 138.056 75.0361 137.929Z" fill="#BBD3ED"/>
<path d="M105.779 165.788C105.741 165.569 105.697 165.344 105.653 165.125C105.895 165.338 106.131 165.558 106.372 165.772C106.174 165.772 105.977 165.783 105.774 165.788H105.779Z" fill="#F8F6F9"/>
<path d="M237.395 165.229C237.373 165.415 237.352 165.602 237.33 165.793C237.143 165.777 236.951 165.755 236.765 165.739C236.973 165.569 237.182 165.399 237.395 165.234V165.229Z" fill="#F8F6F9"/>
<path d="M266.991 138.335C267.189 138.149 267.386 137.962 267.584 137.781C267.386 137.968 267.189 138.154 266.991 138.335Z" fill="#BBD3ED"/>
<path d="M103.103 26.9112C103.098 32.5883 101.09 37.0422 98.8632 41.4632C93.5043 52.1262 85.7264 60.4251 74.9537 65.6415C72.5019 66.8262 69.5729 67.3638 66.8248 67.5229C62.0693 67.8026 58.8714 64.4238 58.6027 59.6517C58.3613 55.3734 59.1622 51.3034 60.8735 47.4255C66.2873 35.1444 74.4765 25.3261 86.5711 19.1334C88.48 18.157 90.663 17.4714 92.7857 17.2191C98.951 16.4841 103.685 19.6435 103.103 26.9167V26.9112Z" fill="#F38A9A"/>
<path d="M98.3809 109.176C98.4631 106.489 98.5454 103.801 98.6277 101.102C98.6387 100.993 98.6496 100.888 98.6606 100.784C99.1049 99.2703 99.6479 97.7784 99.9715 96.2426C101.047 91.1908 102.072 86.1335 103.06 81.0653C103.828 77.127 104.502 73.1668 105.221 69.2175C107.228 79.8312 108.857 90.3625 110.415 100.905C110.673 102.649 111.326 103.466 113.218 103.313C115.121 103.159 117.047 103.313 118.966 103.329C118.566 103.774 118.242 104.487 117.76 104.618C111.858 106.225 105.928 107.756 99.999 109.264C99.4998 109.39 98.9239 109.215 98.3809 109.182V109.176Z" fill="#EF7281"/>
<path d="M118.961 103.324C117.047 103.308 115.116 103.154 113.213 103.308C111.32 103.461 110.668 102.644 110.41 100.9C108.852 90.3573 107.223 79.8259 105.215 69.2122C104.497 73.1615 103.822 77.1217 103.054 81.06C102.067 86.1282 101.041 91.1855 99.9662 96.2373C99.6371 97.7731 99.0941 99.265 98.6553 100.779C98.7101 98.7824 98.5401 96.7529 98.8582 94.8002C100.548 84.5485 102.347 74.3188 104.173 64.0946C104.288 63.4474 104.908 62.8879 105.287 62.29C105.649 62.8276 106.241 63.3267 106.34 63.9081C108.007 73.5948 109.62 83.287 111.233 92.9846C111.693 95.7546 112.132 98.5246 112.626 101.585C118.473 101.585 124.199 101.585 129.931 101.585C130.557 103.604 131.176 105.617 131.802 107.635C131.341 107.646 130.886 107.657 130.425 107.663C129.569 103.225 126.47 102.715 122.729 103.209C121.49 103.373 120.217 103.291 118.961 103.319V103.324Z" fill="#FDF4F4"/>
<path d="M148.635 96.6761C148.92 97.7951 149.211 98.914 149.496 100.038C149.068 100.038 148.64 100.038 148.212 100.044C147.428 98.552 146.644 97.0656 145.859 95.5736C145.091 93.1657 144.318 90.7577 143.38 87.8177C142.492 91.1472 141.751 93.9171 141.016 96.6926C139.261 102.77 137.549 108.859 135.706 114.914C135.416 115.863 134.555 116.642 133.957 117.498C133.556 116.587 133.15 115.671 132.75 114.76C133.128 114.371 133.501 113.987 133.88 113.598C135.339 108.502 136.793 103.406 138.252 98.3107C139.447 94.3285 140.594 90.3299 141.877 86.3751C142.146 85.5469 142.886 84.8777 143.413 84.1372C143.901 84.8283 144.543 85.4646 144.845 86.227C145.942 88.9915 146.923 91.8054 147.949 94.5973C148.18 95.2884 148.41 95.9795 148.64 96.6761H148.635Z" fill="#FCF0F1"/>
<path d="M138.245 98.3105C136.786 103.406 135.333 108.502 133.874 113.597C133.183 111.612 132.497 109.626 131.806 107.641C131.181 105.622 130.561 103.609 129.936 101.591C132.706 100.499 135.476 99.4021 138.245 98.3105Z" fill="#EA6A79"/>
<path d="M148.635 96.676C148.405 95.9849 148.175 95.2938 147.944 94.5972C153.276 91.9972 158.602 89.3973 163.933 86.7974C163.215 90.2914 159.781 94.0487 156.205 94.2955C153.386 94.4875 150.912 95.0798 148.635 96.6705V96.676Z" fill="#E96575"/>
<path d="M96.0441 110.427C95.4188 114.492 94.7935 118.556 94.1682 122.621C93.9323 122.643 93.7019 122.67 93.4661 122.692C92.6104 118.77 91.7492 114.848 90.8936 110.926C92.6104 110.762 94.3272 110.592 96.0441 110.427Z" fill="#EA6A79"/>
<path d="M213.825 101.684C213.825 102.172 213.825 102.666 213.82 103.154C203.047 103.165 192.269 103.176 181.496 103.187C181.288 102.699 181.074 102.216 180.865 101.728C191.852 101.711 202.839 101.695 213.831 101.678L213.825 101.684Z" fill="#FDF4F4"/>
<path d="M148.207 100.044C148.635 100.044 149.063 100.044 149.491 100.038C150.407 100.537 151.306 101.437 152.244 101.475C157.861 101.706 163.483 101.739 169.1 101.837C168.842 102.287 168.584 102.732 168.326 103.176C162.441 103.203 156.555 103.154 150.675 103.302C148.07 103.368 148.415 101.591 148.207 100.049V100.044Z" fill="#FEFEFE"/>
<path d="M141.01 96.6927C141.75 93.9228 142.485 91.1473 143.374 87.8179C144.312 90.7579 145.085 93.1658 145.853 95.5738C144.24 95.9468 142.622 96.3198 141.01 96.6873V96.6927Z" fill="#EF7281"/>
<path d="M180.86 101.733C181.068 102.221 181.282 102.704 181.491 103.192C177.646 103.192 173.806 103.187 169.961 103.181C170.136 102.731 170.312 102.276 170.482 101.826C173.943 101.793 177.399 101.761 180.86 101.733Z" fill="#F8D6D4"/>
<path d="M131.806 107.641C132.498 109.626 133.183 111.612 133.874 113.598C133.496 113.987 133.123 114.371 132.744 114.761C131.971 112.396 131.203 110.038 130.43 107.674C130.89 107.663 131.346 107.652 131.806 107.646V107.641Z" fill="#F8D6D4"/>
<path d="M170.488 101.827C170.312 102.276 170.137 102.732 169.967 103.181C169.424 103.181 168.875 103.176 168.332 103.17C168.59 102.726 168.848 102.282 169.105 101.832C169.566 101.832 170.027 101.832 170.488 101.827Z" fill="#FCF0F1"/>
<path d="M269.247 135.582C269.071 135.774 268.896 135.971 268.715 136.163C268.89 135.971 269.066 135.774 269.247 135.582Z" fill="#FEFEFE"/>
<path d="M79.501 96.8023C79.6436 96.4074 79.7862 96.007 79.9233 95.6121C79.7807 96.007 79.6381 96.4074 79.501 96.8023Z" fill="#FEFEFE"/>
<path d="M70.867 178.004C70.9328 178.004 70.9932 178.004 71.059 178.004C71.0261 178.119 70.9877 178.239 70.9548 178.355C70.8944 178.294 70.8122 178.245 70.7738 178.168C70.7573 178.135 70.8341 178.058 70.867 177.998V178.004Z" fill="#FEFEFE"/>
<path d="M19.6758 127.393C19.7526 127.469 19.8294 127.546 19.9062 127.623C19.8568 127.612 19.7855 127.617 19.7581 127.585C19.7142 127.535 19.7032 127.458 19.6758 127.393Z" fill="#FEFEFE"/>
</svg>
