<svg width="359" height="351" viewBox="0 0 359 351" fill="none" xmlns="http://www.w3.org/2000/svg">
<g clip-path="url(#clip0_1555_7474)">
<path d="M26.8209 290.304C24.8155 290.871 24.3837 288.778 23.6545 287.248C22.7454 285.341 21.8702 283.41 21.0176 281.461C20.6152 280.542 20.2828 279.574 19.9483 278.613C18.2829 273.803 16.4073 269.138 14.2726 264.608C12.5353 260.92 11.3775 256.795 9.56393 253.177C8.9296 251.913 9.02696 250.46 8.27011 249.398L2.25398 77.1189C2.49854 75.9701 2.79457 74.8371 2.9738 73.6731C3.41941 70.7924 3.83457 67.9011 4.22178 65.0049C4.66015 61.7181 4.98886 58.4059 5.49499 55.1371C5.72531 53.6468 6.27569 52.2418 6.65538 50.7872C7.14712 48.896 7.63635 46.9991 8.08818 45.0917C8.88874 41.7045 9.49627 38.2247 10.49 34.936C11.2992 32.259 12.4249 29.6995 13.6601 27.2941C14.4381 25.7788 15.6736 24.6393 16.7066 23.3344C17.2364 22.6669 17.7976 22.0363 18.2937 21.329C19.6188 19.4437 21.362 19.456 23.2041 19.2513C24.8918 19.0637 26.5757 18.1746 28.1289 17.2521C29.5778 16.3916 30.7716 14.8531 32.2311 14.0332C33.2866 13.4379 34.5869 13.4276 35.7894 13.333C37.7191 13.1837 39.6557 13.1658 41.5912 13.1187C44.4934 13.0466 47.397 13.0183 50.3008 12.9286C52.007 12.8748 53.7075 12.7248 55.4127 12.6419C56.2607 12.6006 57.1233 12.7137 57.9615 12.5938C60.3406 12.2564 62.7225 12.4655 65.1076 12.4992C67.6594 12.5358 70.2096 12.1953 72.7588 12.0244C73.7332 11.9582 74.7106 11.9124 75.6854 11.8579C77.9955 11.7334 80.3068 11.5123 82.6184 11.5632C83.0979 11.5728 83.5781 12.5997 84.0558 13.1561C84.2276 13.6354 84.3971 14.1148 84.569 14.597C84.8115 15.1791 85.0517 15.7613 85.2942 16.3434C85.3434 16.6253 85.3632 16.9257 85.4487 17.1888C87.4782 23.3422 89.6168 29.4422 91.5233 35.6555C93.9156 43.4511 96.1053 51.3444 98.4134 59.1838C99.2746 62.1066 100.236 64.982 101.125 67.8921C102.585 72.6767 103.85 77.5355 103.797 82.7092C103.776 84.8207 103.486 86.9242 103.323 89.0319C103.095 91.9693 101.682 93.6647 99.5503 94.3238C97.375 94.9962 95.1561 95.5444 92.9261 95.8415C90.1455 96.2135 87.3246 96.157 84.541 96.5086C82.2321 96.7997 79.9302 97.2923 77.668 97.9268C75.596 98.5079 75.007 99.7359 75.3669 102.352C75.5282 103.524 75.8452 104.715 76.2804 105.778C77.8085 109.505 80.0406 112.582 82.387 115.485C85.4931 119.332 88.7653 122.966 91.9091 126.765C93.4265 128.598 94.8482 130.668 95.0614 133.394C95.2304 135.583 95.0865 137.825 94.918 140.024C94.6222 143.881 93.2578 147.028 90.6587 149.151C85.8072 153.115 80.3795 155.094 74.6917 156.187C73.5674 156.402 72.4768 156.852 71.135 157.264C71.9742 158.1 72.5893 158.681 73.1758 159.304C75.0893 161.342 76.9132 163.532 78.9138 165.416C82.3096 168.612 84.064 172.656 84.2866 178.036C84.5664 184.789 80.9378 191.497 76.4711 194.085C75.1394 194.857 73.7086 195.506 72.5572 196.599C68.5028 200.459 66.3198 206.213 63.7407 211.492C62.2829 214.481 61.4679 217.986 60.4119 221.283C59.6397 223.692 58.8561 226.105 58.232 228.583C56.592 235.104 54.9217 241.621 53.4833 248.217C52.4817 252.804 51.7406 257.496 51.0689 262.189C50.4103 266.79 50.029 271.446 48.1492 275.608C45.99 280.387 43.0168 283.99 39.0955 286.425C36.2253 288.207 33.1795 289.202 30.0442 289.887C29.6583 289.904 29.2747 289.92 28.8887 289.936C28.5841 290.029 28.2796 290.121 27.975 290.214C27.5895 290.245 27.2018 290.276 26.8164 290.307L26.8209 290.304Z" fill="#F4B994"/>
<path d="M28.8901 289.933C29.1481 290.693 29.4085 291.456 29.6665 292.216C29.3987 291.971 29.1266 291.735 28.8676 291.475C28.5653 291.17 28.2807 290.841 27.9871 290.52C27.9836 290.418 27.98 290.316 27.9763 290.211C28.2809 290.118 28.5855 290.026 28.8901 289.933Z" fill="#FEEEDB"/>
<path d="M153.313 15.4211C158.512 15.2396 163.712 15.017 168.912 14.8851C174.18 14.7509 179.452 14.672 184.722 14.6254C190.949 14.5688 197.175 14.594 203.401 14.514C203.984 14.5053 204.539 13.8983 205.138 13.7546C205.675 13.6247 206.294 13.5797 206.803 13.7929C207.886 14.2492 208.178 14.2624 208.64 13.5534C209.29 13.8289 209.856 14.2652 210.419 14.2718C214.109 14.3038 217.8 14.207 221.492 14.2185C225.6 14.2299 229.709 14.2297 233.815 14.3845C241.699 14.6822 249.554 15.5306 257.381 16.9793C261.169 17.6802 264.996 18.105 268.812 18.3577C271.48 18.5364 274.164 18.2585 276.833 18.0775C277.348 18.042 277.834 17.5193 278.209 17.2986C279.359 17.8227 280.491 18.4351 281.665 18.859C285.889 20.3867 290.119 21.8791 294.357 23.3304C298.739 24.8292 302.124 28.114 304.996 32.481C308.03 37.0967 311.117 41.6608 314.291 46.1254C317.131 50.1222 320.119 53.953 323.039 57.8564C324.154 59.3465 325.442 60.699 326.317 62.3846C327.074 63.8375 327.424 65.6496 327.838 67.3425C328.61 70.4965 329.423 73.6489 329.984 76.8599C330.627 80.5417 331.264 84.2733 331.466 88.0114C331.918 96.3688 332.055 104.746 332.415 113.113C332.567 116.689 332.85 120.272 333.272 123.815C333.54 126.06 333.169 128.219 333.218 130.421C333.297 133.816 333.377 137.216 333.338 140.609C333.277 145.973 333.12 151.332 333.004 156.695C332.973 158.193 332.909 159.692 332.922 161.191C332.953 164.926 333.102 168.666 333.05 172.399C333.002 175.724 332.705 179.035 332.595 182.361C332.545 183.853 332.799 185.373 332.717 186.859C332.606 188.903 332.617 191.09 332.024 192.926C330.748 196.873 330.566 201.069 329.875 205.149C328.933 210.719 327.64 216.187 326.467 221.686C326.264 222.635 326.171 223.48 326.785 224.242C326.617 225.926 326.421 226.141 325.668 225.454C325.773 224.807 325.88 224.163 325.992 223.469C325.783 223.307 325.596 223.138 325.393 223.013C319.973 219.65 314.54 216.317 309.133 212.919C307.335 211.789 305.542 210.615 303.851 209.25C300.74 206.736 298.025 203.609 296.753 199.134C295.853 195.961 295.418 192.585 294.785 189.297C294.706 188.893 294.696 188.47 294.654 188.05C294.226 187.989 293.909 187.942 293.593 187.897C294.525 187.947 294.508 187.187 294.447 186.379C294.296 184.303 294.119 182.228 294.007 180.15C293.787 176.082 292.884 172.24 291.553 168.527C291.174 167.467 290.833 166.388 290.474 165.319C294.116 161.327 297.445 156.974 300.317 152.065C306.273 141.876 309.516 130.296 311.064 117.831C312.099 117.839 313.135 117.89 314.166 117.849C317.291 117.719 317.044 118.815 316.789 114.094L316.38 102.376L311.422 102.549C311.205 100.375 311.047 98.1882 310.759 96.0289C308.99 82.762 304.878 70.7814 298.072 60.2631C292.403 51.5061 285.646 44.4477 277.576 39.5986C261.318 29.8285 244.84 29.0532 228.336 37.4881C224.816 39.2892 221.573 41.9314 218.203 44.1862C217.097 42.2689 216.016 40.3303 214.876 38.4493C214.385 37.6391 213.866 36.7626 213.202 36.2332C210.957 34.4435 208.729 32.5449 206.335 31.1404C201.08 28.0611 195.455 26.9741 189.745 26.7525C186.519 26.6255 183.288 26.8377 180.061 26.7457C177.309 26.6664 174.532 26.6114 171.807 26.1306C164.844 24.9031 158.752 21.055 153.313 15.4269L153.313 15.4211Z" fill="#FFC997"/>
<path d="M206.827 56.8158C206.361 54.4815 205.973 52.1152 205.416 49.8133C204.069 44.2529 201.586 39.7641 197.233 37.3726C194.831 36.0532 192.282 35.5896 189.681 36.312C184.06 37.8707 178.454 39.5078 172.812 40.9327C168.481 42.0253 164.073 42.1822 159.64 41.8341C152.998 41.3118 146.982 38.3936 141.253 34.1878C137.79 31.6483 134.676 28.5147 131.514 25.4589C128.666 22.7049 125.869 19.8644 123.049 17.0626C124.57 17.2142 126.096 17.5029 127.616 17.482C129.312 17.4608 131.006 17.1999 132.694 16.9568C133.021 16.9103 133.503 16.528 133.574 16.1805C133.814 15.0144 134.434 14.8261 135.228 14.8773C135.267 14.8789 135.311 14.8919 135.341 14.8734C136.62 14.0452 137.824 13.0179 139.549 12.8992C140.514 13.956 146.673 15.5535 149.423 15.1768L149.385 14.0643C149.886 13.503 152.253 14.2945 152.843 15.1364C152.171 15.3294 151.5 15.5224 150.533 15.7988C151.746 17.0662 152.734 18.1924 153.799 19.1872C158.065 23.1927 162.726 26.1407 167.887 27.7906C173.705 29.6486 179.618 29.2287 185.503 29.488C188.415 29.6173 191.351 29.4095 194.232 29.8585C197.144 30.3123 200.086 31.072 202.862 32.282C205.485 33.4241 207.97 35.1851 210.392 36.9482C211.593 37.8213 212.585 39.2339 213.549 40.5451C214.694 42.0985 215.709 43.8026 216.782 45.4432C213.279 48.9774 209.715 52.4231 206.829 56.8157L206.827 56.8158Z" fill="#FFC997"/>
<path d="M216.781 45.4433C215.71 43.8025 214.694 42.0984 213.548 40.5451C212.583 39.234 211.589 37.8244 210.39 36.9483C207.968 35.1851 205.483 33.4242 202.86 32.282C200.085 31.0721 197.144 30.3123 194.231 29.8586C191.347 29.4096 188.413 29.6173 185.501 29.488C179.616 29.2258 173.701 29.6487 167.885 27.7907C162.724 26.1436 158.066 23.1927 153.797 19.1873C152.735 18.1894 151.746 17.0633 150.531 15.7989C151.498 15.5224 152.169 15.3294 152.841 15.1364C152.997 15.2304 153.153 15.3272 153.311 15.4211C158.75 21.0462 164.842 24.8973 171.805 26.1247C174.53 26.6055 177.304 26.6607 180.059 26.7399C183.286 26.8318 186.517 26.6196 189.743 26.7467C195.454 26.9712 201.079 28.0553 206.333 31.1345C208.729 32.539 210.955 34.4347 213.2 36.2274C213.864 36.7568 214.383 37.6333 214.874 38.4435C216.014 40.3274 217.098 42.2659 218.202 44.1804C217.726 44.6034 217.252 45.0234 216.776 45.4464L216.781 45.4433Z" fill="#FFDAB9"/>
<path d="M325.671 225.454C326.424 226.141 326.62 225.926 326.788 224.242C327.753 225.092 326.874 225.637 326.587 226.246C326.277 226.906 325.769 227.456 325.573 228.156C324.296 232.743 323.111 237.372 321.824 241.954C321.552 242.92 320.984 243.747 320.55 244.636C320.394 244.542 320.238 244.451 320.082 244.357C320.273 243.54 320.43 242.711 320.666 241.916C320.918 241.062 321.305 240.274 321.534 239.412C322.777 234.77 323.987 230.111 325.211 225.461C325.366 225.459 325.518 225.456 325.673 225.454L325.671 225.454Z" fill="#FEF1E3"/>
<path d="M40.3975 301.197C41.1197 301.268 41.8633 301.219 42.5605 301.434C44.9655 302.172 47.3529 303 49.7461 303.797C49.1289 303.818 48.514 303.84 47.8968 303.861C47.5074 303.779 47.1203 303.696 46.7308 303.613C46.2617 303.433 45.7926 303.257 45.3235 303.077C44.9341 302.994 44.5469 302.908 44.1575 302.825C44.0574 302.677 43.9573 302.528 43.8572 302.38C43.8024 302.534 43.7475 302.685 43.6927 302.839C43.6164 302.841 43.5402 302.844 43.4639 302.847C43.3842 302.753 43.3022 302.657 43.2225 302.563C43.0609 302.376 42.8992 302.185 42.7376 301.998L42.2776 302.014C41.6502 301.744 41.025 301.47 40.3976 301.2L40.3975 301.197Z" fill="#FEEEDB"/>
<path d="M32.3652 296.507C33.4822 297.541 34.599 298.572 35.7137 299.606C35.6409 299.708 35.5656 299.807 35.4928 299.909C35.182 299.823 34.8711 299.735 34.558 299.649C33.8441 299.09 33.1301 298.527 32.4162 297.967C32.4095 297.774 32.4027 297.579 32.3959 297.386C32.3857 297.094 32.3755 296.802 32.3653 296.51L32.3652 296.507Z" fill="#FEEEDB"/>
<path d="M97.6211 309.431C97.8523 309.423 98.0834 309.415 98.3146 309.407C98.5526 309.594 98.7905 309.779 99.0285 309.967C98.9556 310.066 98.8804 310.168 98.8075 310.267C98.1903 310.288 97.5754 310.31 96.9582 310.331C96.7237 310.243 96.4892 310.155 96.2545 310.063C95.643 310.181 95.0292 310.299 94.4176 310.417C94.4108 310.221 94.4041 310.029 94.3972 309.833L94.8393 309.236C95.4599 309.311 96.0781 309.386 96.6987 309.46C97.0061 309.45 97.3159 309.439 97.6233 309.428L97.6211 309.431Z" fill="#FEF1E1"/>
<path d="M54.642 304.795C56.1974 305.13 57.7528 305.464 59.306 305.802C59.2366 306 59.1647 306.195 59.0952 306.394C58.7878 306.404 58.4803 306.415 58.1706 306.426C58.009 306.239 57.8473 306.048 57.6857 305.861C57.5331 305.866 57.3782 305.872 57.2256 305.877C56.9159 305.888 56.6084 305.899 56.2987 305.91C56.1438 305.915 55.9912 305.92 55.8364 305.926C55.6018 305.837 55.3672 305.746 55.1327 305.658C54.9778 305.663 54.8252 305.669 54.6703 305.674C54.6601 305.382 54.65 305.093 54.6399 304.801L54.642 304.795Z" fill="#FEEEDB"/>
<path d="M35.4921 299.906C35.5649 299.804 35.6402 299.705 35.713 299.603C36.1002 299.689 36.4896 299.772 36.8768 299.858C37.273 300.136 37.6691 300.412 38.0654 300.69C38.218 300.685 38.3728 300.68 38.5254 300.674C38.7668 300.958 39.0081 301.242 39.2495 301.526C37.9113 301.316 36.5629 301.143 35.4898 299.906L35.4921 299.906Z" fill="#FEF1E1"/>
<path d="M100.405 309.626C101.098 309.602 101.792 309.578 102.485 309.553C102.496 309.842 102.506 310.134 102.516 310.426C102.519 310.526 102.523 310.622 102.526 310.721C101.753 310.652 100.978 310.58 100.204 310.51C100.198 310.317 100.191 310.122 100.184 309.929C100.259 309.83 100.332 309.728 100.407 309.629L100.405 309.626Z" fill="#FEF1E1"/>
<path d="M27.9903 290.52C28.2839 290.84 28.5708 291.169 28.8708 291.475C29.1275 291.735 29.4019 291.971 29.6697 292.216C29.673 292.312 29.6764 292.408 29.6799 292.508C29.8518 292.99 30.0213 293.469 30.1932 293.952C28.757 293.519 28.4407 291.952 27.9925 290.517L27.9903 290.52Z" fill="#FEF1E1"/>
<path d="M89.2685 308.845C89.7341 308.926 90.1998 309.006 90.6655 309.086C90.669 309.185 90.6724 309.282 90.6758 309.381C90.448 309.485 90.2203 309.593 89.9925 309.697C89.3024 309.818 88.6146 309.938 87.9245 310.059C87.9176 309.863 87.9109 309.671 87.9041 309.475C88.3597 309.266 88.8152 309.054 89.2708 308.845L89.2685 308.845Z" fill="#FEF1E1"/>
<path d="M76.5141 308.121L77.2076 308.097C77.3658 308.188 77.5241 308.279 77.6823 308.37C77.9135 308.362 78.1447 308.354 78.3758 308.346C78.3793 308.445 78.3827 308.541 78.3861 308.641C78.3166 308.836 78.2448 309.035 78.1753 309.23C77.5547 309.155 76.9363 309.077 76.3157 309.002C76.3124 308.906 76.3089 308.807 76.3056 308.71C76.375 308.512 76.4469 308.317 76.5163 308.118L76.5141 308.121Z" fill="#FEF1E1"/>
<path d="M92.9876 309.3L93.4499 309.284C93.4568 309.48 93.4635 309.673 93.4703 309.868C93.3188 309.97 93.1674 310.075 93.0182 310.176C92.4796 310.195 91.941 310.214 91.4024 310.233C91.3922 309.941 91.3821 309.652 91.3696 309.36C91.5974 309.255 91.8251 309.148 92.0552 309.044C92.2101 309.038 92.3626 309.033 92.5175 309.027C92.6757 309.118 92.834 309.209 92.9899 309.3L92.9876 309.3Z" fill="#FEF1E1"/>
<path d="M50.209 303.778C51.0709 304.136 51.9328 304.495 52.7947 304.851C52.7981 304.95 52.8015 305.047 52.805 305.146C52.6501 305.151 52.4975 305.157 52.3426 305.162C52.1048 304.977 51.8646 304.793 51.6266 304.605C51.4717 304.611 51.3191 304.616 51.1643 304.624C51.0118 304.63 50.8569 304.635 50.7043 304.64C50.5494 304.646 50.3946 304.651 50.242 304.656C50.2318 304.364 50.2216 304.072 50.2115 303.783L50.209 303.778Z" fill="#FEEEDB"/>
<path d="M85.7913 308.675L86.2536 308.659C86.2604 308.854 86.2672 309.047 86.274 309.243C86.2011 309.342 86.126 309.444 86.053 309.543C85.5144 309.561 84.9735 309.58 84.4349 309.599C84.4315 309.503 84.4281 309.404 84.4247 309.307C84.4942 309.112 84.566 308.913 84.6356 308.718L85.3291 308.694C85.4839 308.688 85.6365 308.683 85.7914 308.678L85.7913 308.675Z" fill="#FEF1E1"/>
<path d="M72.5733 307.967C73.2668 307.943 73.9603 307.918 74.6538 307.894C74.3531 308.098 74.0502 308.304 73.7495 308.508C73.442 308.518 73.1322 308.529 72.8248 308.54C72.7485 308.542 72.6699 308.545 72.5936 308.548C72.5868 308.352 72.5801 308.16 72.5732 307.964L72.5733 307.967Z" fill="#FEEEDB"/>
<path d="M40.3977 301.196C41.0251 301.467 41.6503 301.74 42.2777 302.011C42.2811 302.107 42.2845 302.206 42.2879 302.303C41.4293 302.04 40.5731 301.778 39.7144 301.513C39.7895 301.411 39.8624 301.312 39.9376 301.21C40.0901 301.204 40.245 301.199 40.3976 301.194L40.3977 301.196Z" fill="#FEF1E1"/>
<path d="M50.2082 303.778C50.2184 304.07 50.2286 304.362 50.2387 304.651C49.4621 304.482 48.6833 304.316 47.9067 304.147C47.9033 304.051 47.8998 303.952 47.8965 303.855C48.5137 303.834 49.1286 303.812 49.7458 303.791C49.9007 303.785 50.0532 303.78 50.2081 303.775L50.2082 303.778Z" fill="#FEF1E1"/>
<path d="M102.526 310.723C102.522 310.623 102.519 310.526 102.516 310.427C103.364 310.397 104.21 310.367 105.058 310.338C105.062 310.434 105.065 310.534 105.069 310.631L102.526 310.72L102.526 310.723Z" fill="#FEF5EB"/>
<path d="M81.8509 308.52C82.3929 308.597 82.9372 308.675 83.4792 308.752C83.486 308.948 83.4928 309.144 83.4997 309.339C82.8881 309.457 82.2743 309.575 81.6629 309.696C81.6561 309.503 81.6493 309.307 81.6425 309.112C81.7119 308.914 81.7838 308.718 81.8532 308.52L81.8509 308.52Z" fill="#FEF1E1"/>
<path d="M52.8023 305.149C52.7988 305.05 52.7955 304.953 52.792 304.854C53.0232 304.846 53.2543 304.838 53.4855 304.83C53.6404 304.824 53.7929 304.819 53.9478 304.814C54.179 304.806 54.4101 304.797 54.6413 304.789C54.6515 305.081 54.6616 305.371 54.6718 305.663C54.0546 305.684 53.4397 305.706 52.8225 305.727C52.8156 305.531 52.8089 305.339 52.8021 305.143L52.8023 305.149Z" fill="#FEF1E1"/>
<path d="M32.3651 296.507C32.3753 296.799 32.3855 297.091 32.3957 297.383C31.9893 296.813 31.5828 296.242 31.1787 295.671C31.4099 295.663 31.641 295.655 31.8722 295.647C32.0373 295.934 32.2024 296.22 32.3651 296.507Z" fill="#FEF1E1"/>
<path d="M86.0525 309.543C86.1255 309.444 86.2006 309.342 86.2735 309.243C86.8155 309.32 87.3598 309.398 87.9018 309.475C87.9086 309.671 87.9153 309.864 87.9221 310.059C87.2982 309.888 86.6742 309.714 86.0502 309.543L86.0525 309.543Z" fill="#FEF5EB"/>
<path d="M100.182 309.929C100.189 310.122 100.196 310.317 100.202 310.51C99.6956 310.847 99.1806 311.277 98.8051 310.267C98.878 310.168 98.9532 310.066 99.0261 309.967C99.4098 309.953 99.7959 309.94 100.18 309.926L100.182 309.929Z" fill="#FEF5EB"/>
<path d="M81.8508 308.52C81.7814 308.718 81.7095 308.914 81.6401 309.112C81.3326 309.123 81.0229 309.134 80.7154 309.144C80.6391 309.147 80.5629 309.15 80.4843 309.152C80.4774 308.957 80.4707 308.764 80.4639 308.568C80.9262 308.552 81.3885 308.536 81.8508 308.52Z" fill="#FEEEDB"/>
<path d="M73.7501 308.51C74.0509 308.307 74.3538 308.101 74.6545 307.897C74.8857 307.889 75.1168 307.881 75.348 307.873C75.3582 308.165 75.3683 308.454 75.3785 308.746C75.2999 308.749 75.2236 308.751 75.145 308.754C74.6827 308.77 74.2204 308.786 73.758 308.803C73.7546 308.703 73.7512 308.607 73.7478 308.511L73.7501 308.51Z" fill="#FEF1E1"/>
<path d="M62.5626 306.27C63.0317 306.446 63.5008 306.626 63.9722 306.802C63.8207 306.904 63.6693 307.009 63.5177 307.111C63.3629 307.116 63.2103 307.121 63.0554 307.127C62.9005 307.132 62.748 307.137 62.5931 307.143C62.5829 306.851 62.5727 306.559 62.5625 306.267L62.5626 306.27Z" fill="#FEEEDB"/>
<path d="M80.4633 308.565C80.4701 308.761 80.477 308.957 80.4837 309.149C79.9451 309.168 79.4042 309.187 78.8656 309.206C78.8587 309.01 78.852 308.817 78.8452 308.622C78.9967 308.52 79.1481 308.415 79.2973 308.314L80.4632 308.562L80.4633 308.565Z" fill="#FEF1E1"/>
<path d="M91.3674 309.357C91.3776 309.649 91.3877 309.938 91.4003 310.23C90.9312 310.054 90.4597 309.874 89.9907 309.698C90.2185 309.593 90.4462 309.486 90.674 309.381L91.3651 309.357L91.3674 309.357Z" fill="#FEF5EB"/>
<path d="M39.935 301.21C39.8598 301.312 39.7869 301.411 39.7118 301.513C39.5569 301.518 39.4044 301.524 39.2495 301.529C39.0081 301.245 38.7668 300.961 38.5254 300.677C38.9945 300.857 39.4636 301.033 39.9351 301.213L39.935 301.21Z" fill="#FEEEDB"/>
<path d="M83.5 309.339C83.4932 309.144 83.4863 308.948 83.4795 308.752C83.8655 308.739 84.2493 308.726 84.6353 308.712C84.5658 308.907 84.494 309.106 84.4244 309.301C84.1933 309.309 83.9621 309.317 83.7309 309.325C83.6547 309.328 83.5761 309.331 83.4998 309.334L83.5 309.339Z" fill="#FEEEDB"/>
<path d="M31.8717 295.647C31.6405 295.655 31.4094 295.663 31.1782 295.671C31.0952 295.481 31.0098 295.288 30.9267 295.098C30.9199 294.903 30.9131 294.707 30.9062 294.511C31.2274 294.892 31.5484 295.27 31.8717 295.647Z" fill="#FEEEDB"/>
<path d="M66.9952 307.284C67.1501 307.279 67.3026 307.274 67.4575 307.268C67.4643 307.464 67.4711 307.657 67.4779 307.852C67.4813 307.949 67.4847 308.048 67.4881 308.144C67.1806 308.155 66.8732 308.166 66.5657 308.177C66.5589 307.981 66.5522 307.788 66.5454 307.593C66.6969 307.491 66.8483 307.386 66.9975 307.284L66.9952 307.284Z" fill="#FEF1E1"/>
<path d="M93.0184 310.176C93.1699 310.075 93.3213 309.97 93.4705 309.868C93.7779 309.858 94.0877 309.847 94.3952 309.836C94.402 310.032 94.4087 310.224 94.4155 310.42C93.9499 310.34 93.4841 310.257 93.0161 310.177L93.0184 310.176Z" fill="#FEF5EB"/>
<path d="M69.5459 307.494C69.9352 307.574 70.3246 307.656 70.7139 307.736C70.7174 307.836 70.7207 307.932 70.7242 308.031C70.7276 308.128 70.731 308.227 70.7344 308.323C70.3484 308.337 69.9646 308.35 69.5786 308.364L69.5482 307.494L69.5459 307.494Z" fill="#FEF1E1"/>
<path d="M65.3563 306.757C65.5874 306.749 65.8186 306.741 66.0498 306.733C66.06 307.025 66.07 307.314 66.0802 307.606C66.004 307.609 65.9254 307.611 65.8491 307.614C65.6179 307.622 65.3868 307.63 65.1556 307.638C65.1522 307.542 65.1488 307.443 65.1454 307.346C65.2148 307.148 65.2867 306.952 65.3562 306.754L65.3563 306.757Z" fill="#FEF1E1"/>
<path d="M68.3942 307.525C68.6254 307.517 68.8567 307.512 69.0879 307.507C69.0981 307.799 69.1082 308.088 69.1184 308.38C68.8076 308.294 68.4945 308.209 68.1836 308.12C68.1801 308.021 68.1768 307.924 68.1734 307.828C68.2486 307.729 68.3214 307.627 68.3967 307.528L68.3942 307.525Z" fill="#FEF1E1"/>
<path d="M75.1475 308.754C75.2261 308.751 75.3023 308.748 75.3809 308.746C75.6884 308.735 75.9958 308.724 76.3056 308.713C76.309 308.81 76.3124 308.909 76.3158 309.005C75.8652 309.425 75.4381 309.653 75.1498 308.754L75.1475 308.754Z" fill="#FEF5EB"/>
<path d="M63.518 307.114C63.6695 307.012 63.8209 306.907 63.9724 306.805C64.2036 306.797 64.4348 306.789 64.6659 306.781C64.6728 306.977 64.6795 307.169 64.6863 307.365C64.61 307.368 64.5315 307.371 64.4552 307.373C64.1477 307.384 63.838 307.395 63.5305 307.405C63.527 307.306 63.5237 307.21 63.5203 307.113L63.518 307.114Z" fill="#FEF1E1"/>
<path d="M72.5738 307.967C72.5806 308.162 72.5873 308.355 72.5942 308.551C72.2081 308.564 71.8244 308.578 71.4384 308.591C71.4316 308.398 71.4248 308.203 71.4181 308.01C71.6492 308.002 71.8827 307.994 72.1138 307.983C72.2663 307.977 72.4212 307.972 72.5738 307.967Z" fill="#FEF1E1"/>
<path d="M42.2879 302.303C42.2845 302.207 42.2811 302.107 42.2777 302.011C42.4303 302.006 42.5851 302 42.7377 301.995C42.8993 302.182 43.061 302.372 43.2226 302.56C43.3023 302.653 43.3844 302.75 43.464 302.844C43.0712 302.664 42.6784 302.482 42.2856 302.303L42.2879 302.303Z" fill="#FEF5EB"/>
<path d="M245.856 306.009C245.862 306.204 245.869 306.397 245.876 306.593L245.183 306.617C245.176 306.421 245.169 306.229 245.162 306.033L245.853 306.009L245.856 306.009Z" fill="#FEF5EB"/>
<path d="M59.0946 306.391C59.1641 306.193 59.2359 305.997 59.3054 305.799C59.4603 305.793 59.6128 305.788 59.7677 305.783C59.8531 305.976 59.9361 306.166 60.0216 306.359L60.0318 306.651C59.7185 306.562 59.4077 306.476 59.0968 306.388L59.0946 306.391Z" fill="#FEF1E1"/>
<path d="M55.1348 305.652C55.3693 305.74 55.6039 305.832 55.8385 305.92C55.6107 306.024 55.383 306.132 55.1575 306.236C55.1506 306.04 55.1439 305.848 55.1371 305.652L55.1348 305.652Z" fill="#FEF1E1"/>
<path d="M30.9062 294.511C30.913 294.707 30.9198 294.903 30.9267 295.098C30.6819 294.718 30.4371 294.335 30.1924 293.955C30.4269 294.043 30.6615 294.134 30.8961 294.222C30.8994 294.319 30.9028 294.415 30.9063 294.514L30.9062 294.511Z" fill="#FEF1E1"/>
<path d="M51.624 304.608C51.8619 304.793 52.1021 304.977 52.3401 305.165C52.3435 305.261 52.3469 305.361 52.3503 305.457C52.1191 305.465 51.8903 305.473 51.6591 305.481C51.6489 305.189 51.6365 304.9 51.624 304.608Z" fill="#FEF1E1"/>
<path d="M71.4161 308.01C71.4229 308.203 71.4297 308.399 71.4364 308.591C71.2019 308.503 70.9674 308.415 70.7329 308.326C70.7295 308.23 70.726 308.131 70.7227 308.034C70.9538 308.026 71.185 308.018 71.4138 308.01L71.4161 308.01Z" fill="#FEF5EB"/>
<path d="M78.8458 308.625C78.8527 308.82 78.8594 309.013 78.8662 309.209C78.6351 309.217 78.4039 309.225 78.1727 309.233C78.2423 309.038 78.3141 308.839 78.3836 308.644C78.5362 308.638 78.6911 308.633 78.8436 308.628L78.8458 308.625Z" fill="#FEF5EB"/>
<path d="M60.7156 306.334C60.9468 306.326 61.178 306.318 61.4091 306.31C61.416 306.506 61.4227 306.698 61.4295 306.894C61.3532 306.897 61.2746 306.899 61.1984 306.902C60.9672 306.91 60.736 306.918 60.5049 306.926C60.498 306.731 60.4913 306.538 60.4845 306.342C60.5631 306.34 60.6417 306.337 60.7179 306.331L60.7156 306.334Z" fill="#FEF1E1"/>
<path d="M62.5626 306.27C62.5728 306.562 62.583 306.854 62.5932 307.146C62.3621 307.154 62.1309 307.162 61.8997 307.17C61.8964 307.074 61.8929 306.974 61.8895 306.878L62.1003 306.286L62.5626 306.27Z" fill="#FEF1E1"/>
<path d="M80.7152 309.144C81.0227 309.133 81.3324 309.123 81.6399 309.112C81.6467 309.308 81.6534 309.5 81.6603 309.696C81.3438 309.514 81.0295 309.329 80.713 309.147L80.7152 309.144Z" fill="#FEF5EB"/>
<path d="M69.1168 308.38C69.1066 308.088 69.0965 307.799 69.0863 307.507C69.2389 307.501 69.3914 307.496 69.544 307.491C69.5541 307.78 69.5643 308.072 69.5767 308.361C69.4218 308.366 69.2693 308.372 69.1144 308.377L69.1168 308.38Z" fill="#FEF5EB"/>
<path d="M73.7498 308.51C73.7532 308.607 73.7567 308.707 73.7601 308.804C73.4493 308.718 73.136 308.629 72.8252 308.543C73.1326 308.532 73.4424 308.521 73.7498 308.51Z" fill="#FEF5EB"/>
<path d="M47.8975 303.858C47.9008 303.955 47.9043 304.054 47.9077 304.15C47.5148 303.968 47.1243 303.789 46.7314 303.607C47.1209 303.69 47.5079 303.773 47.8974 303.855L47.8975 303.858Z" fill="#FEF5EB"/>
<path d="M61.8888 306.878C61.8922 306.975 61.8957 307.075 61.899 307.171C61.6645 307.083 61.43 306.994 61.1953 306.902C61.2716 306.9 61.3502 306.897 61.4265 306.894C61.5814 306.889 61.7339 306.884 61.8888 306.878Z" fill="#FEF5EB"/>
<path d="M65.85 307.617C65.9263 307.614 66.0048 307.611 66.0811 307.609C66.236 307.603 66.3886 307.598 66.5435 307.593C66.5503 307.788 66.557 307.981 66.5639 308.177C66.326 307.992 66.0857 307.805 65.8478 307.62L65.85 307.617Z" fill="#FEF5EB"/>
<path d="M68.171 307.828C68.1744 307.925 68.1779 308.024 68.1813 308.121C67.9501 308.129 67.7189 308.137 67.4878 308.145C67.4844 308.049 67.4809 307.949 67.4775 307.852C67.7087 307.844 67.9399 307.836 68.171 307.828Z" fill="#FEF5EB"/>
<path d="M57.225 305.872C57.3775 305.866 57.5324 305.861 57.685 305.855C57.6918 306.051 57.6985 306.244 57.7054 306.439C57.5471 306.348 57.3912 306.257 57.233 306.167C57.2296 306.07 57.2261 305.971 57.2228 305.875L57.225 305.872Z" fill="#FEF5EB"/>
<path d="M96.2539 310.063C96.4884 310.152 96.723 310.241 96.9576 310.332C96.7231 310.244 96.4886 310.155 96.2539 310.063Z" fill="#FEF5EB"/>
<path d="M83.7305 309.331C83.9616 309.323 84.1928 309.315 84.424 309.307C84.4273 309.404 84.4308 309.504 84.4342 309.6C84.1997 309.512 83.9651 309.423 83.7305 309.331Z" fill="#FEF5EB"/>
<path d="M51.6241 304.608C51.6343 304.9 51.6467 305.189 51.6592 305.481C51.4942 305.197 51.3292 304.914 51.1642 304.627C51.319 304.622 51.4716 304.616 51.6264 304.608L51.6241 304.608Z" fill="#FEF5EB"/>
<path d="M57.2255 305.872C57.2289 305.968 57.2324 306.068 57.2358 306.165C56.9248 306.076 56.6117 305.99 56.3008 305.901C56.6105 305.89 56.918 305.879 57.2277 305.869L57.2255 305.872Z" fill="#FEF1E1"/>
<path d="M64.4521 307.376C64.5284 307.374 64.607 307.371 64.6833 307.368C64.8382 307.363 64.9908 307.357 65.1456 307.352C65.149 307.449 65.1525 307.548 65.1559 307.645C64.9213 307.556 64.6868 307.468 64.4523 307.379L64.4521 307.376Z" fill="#FEF5EB"/>
<path d="M60.4799 306.345C60.4867 306.541 60.4935 306.734 60.5003 306.929C60.3421 306.838 60.1861 306.747 60.0279 306.656C60.0245 306.56 60.021 306.461 60.0177 306.364C60.1702 306.359 60.3251 306.354 60.4777 306.348L60.4799 306.345Z" fill="#FEF5EB"/>
<path d="M63.518 307.113C63.5214 307.21 63.5248 307.31 63.5282 307.407C63.37 307.315 63.2139 307.221 63.0557 307.13C63.2105 307.124 63.3631 307.119 63.518 307.113Z" fill="#FEF5EB"/>
<path d="M52.3504 305.457C52.347 305.361 52.3436 305.261 52.3402 305.165C52.4951 305.16 52.6476 305.154 52.8025 305.149C52.8094 305.344 52.8161 305.537 52.8229 305.733C52.6647 305.642 52.5063 305.548 52.3481 305.457L52.3504 305.457Z" fill="#FEF5EB"/>
<path d="M50.2394 304.654C50.3942 304.648 50.5491 304.643 50.7017 304.637C50.6469 304.791 50.592 304.942 50.5395 305.096C50.4394 304.948 50.3393 304.799 50.2393 304.651L50.2394 304.654Z" fill="#FEF5EB"/>
<path d="M43.6955 302.833C43.7503 302.679 43.8052 302.528 43.86 302.374C43.9601 302.522 44.0602 302.671 44.1602 302.819C44.0054 302.825 43.8505 302.83 43.6956 302.836L43.6955 302.833Z" fill="#FEF1E1"/>
<path d="M57.7079 306.439C57.7011 306.244 57.6943 306.051 57.6875 305.855C57.8491 306.043 58.0108 306.233 58.1724 306.42C58.0175 306.425 57.8627 306.431 57.7101 306.436L57.7079 306.439Z" fill="#FEF1E1"/>
<path d="M245.166 306.033C245.173 306.228 245.18 306.421 245.187 306.617C245.032 306.622 244.879 306.627 244.724 306.633C244.721 306.536 244.718 306.437 244.714 306.341C244.866 306.239 245.017 306.134 245.169 306.033L245.166 306.033Z" fill="#FEF1E1"/>
<path d="M55.1346 305.652C55.1414 305.848 55.1481 306.041 55.155 306.236C54.9933 306.049 54.8316 305.859 54.67 305.671C54.8249 305.666 54.9775 305.661 55.1324 305.655L55.1346 305.652Z" fill="#FEF5EB"/>
<path d="M210.665 160.481C209.717 163.108 208.449 165.435 206.571 167.124C204.038 169.399 201.241 170.575 198.052 170.038C196.343 169.749 194.629 169.397 192.914 169.32C191.247 169.246 189.996 170.942 190.076 173.02C190.344 180.042 186.182 184.778 180.931 184.938C178.716 185.003 176.466 185.19 174.321 185.8C173.028 186.167 171.734 187.212 170.752 188.372C169.313 190.068 168.225 192.223 166.857 194.028C165.494 195.826 164.126 197.725 162.492 199.065C159.56 201.469 156.4 203.43 153.389 205.692C151.689 206.968 149.813 207.586 147.925 207.617C144.872 207.662 141.803 207.287 138.747 206.993C136.615 206.787 134.634 205.859 132.757 204.536C132.257 204.182 131.693 203.825 131.14 203.753C128.224 203.376 126.467 200.888 124.966 198.148C122.412 193.486 119.939 188.749 117.577 183.931C114.696 178.053 110.495 174.326 105.492 172.15C102.122 170.686 98.5595 169.954 95.0817 168.915C90.591 167.572 86.3251 165.44 82.2041 162.818C81.6266 162.453 81.1094 161.892 80.6293 161.333C79.9562 160.549 80.0268 159.854 80.8826 159.505C81.7816 159.138 82.7351 158.871 83.6793 158.803C90.4482 158.312 97.0143 159.506 103.272 163.124C105.988 164.692 108.722 164.778 111.408 163.231C113.28 162.154 115.178 161.091 116.917 159.729C119.436 157.759 121.144 154.79 122.563 151.536C125.329 145.195 129.03 140.008 134.208 136.663C136.212 135.371 138.299 134.962 140.559 135.339C141.961 135.574 143.402 135.363 144.82 135.48C147.19 135.675 149.556 135.955 151.92 136.229C153.788 136.445 155.094 135.262 155.813 133.336C156.848 130.564 157.611 127.625 158.518 124.772C159.659 121.183 160.748 117.508 162.988 114.766C164.311 113.147 165.751 111.381 167.421 110.568C171.14 108.76 173.72 109.793 176.398 114.175C177.024 115.203 177.785 116.127 178.576 116.959C179.265 117.683 179.947 117.399 180.658 116.737C182.151 115.349 183.644 113.902 185.285 112.836C187.935 111.115 189.738 111.783 191.65 114.771C192.059 115.412 192.495 116.025 192.919 116.654C193.026 117.322 193.151 117.984 193.239 118.657C194.387 127.387 196.817 135.562 200.231 143.31C203.036 149.679 206.615 155.314 210.663 160.49L210.665 160.481Z" fill="#FFA653"/>
<path d="M210.665 160.481C206.614 155.305 203.039 149.67 200.233 143.301C196.822 135.556 194.389 127.379 193.241 118.648C193.153 117.976 193.03 117.313 192.921 116.645C192.782 114.51 192.643 112.374 192.503 110.239C194.897 111.313 197.333 111.892 199.867 111.464C199.979 111.446 200.118 111.625 200.243 111.714C200.414 113.278 200.584 114.839 200.757 116.403C200.91 117.556 201.064 118.708 201.215 119.861C201.342 120.569 201.459 121.279 201.6 121.984C202.538 126.717 203.804 131.301 205.753 135.551C207.257 138.831 208.828 142.066 210.369 145.318C210.864 146.181 211.357 147.041 211.969 148.104C216.368 142.787 220.636 137.619 224.916 132.467C228.256 128.447 231.616 124.447 234.966 120.439C236.543 118.548 238.123 116.657 239.7 114.769C242.977 110.853 246.257 106.938 249.534 103.023C250.025 102.448 250.517 101.872 251.008 101.293C251.245 101.051 251.494 100.826 251.714 100.561C256.665 94.6669 261.61 88.764 266.561 82.8696C271.616 76.8488 276.683 70.8392 281.724 64.8014C282.606 63.7473 283.352 62.5138 284.239 61.4654C284.977 60.5918 285.827 59.8693 286.84 58.8691C284.591 56.7023 282.623 54.5432 280.461 52.7622C267.69 42.2359 253.887 39.0488 239.177 43.1936C232.561 45.056 226.499 48.5772 221.078 53.7133C220.399 54.3714 219.719 55.0296 219.041 55.6877C217.818 57.1191 216.501 58.4456 215.398 60.0103C213.934 62.0875 212.667 64.3829 211.258 66.5224C210.372 67.869 209.381 69.1081 208.438 70.3953C208.496 68.9461 208.454 67.4741 208.64 66.0554C208.794 64.8865 209.216 63.7783 209.519 62.6451C209.404 62.5409 209.29 62.4397 209.172 62.3356C208.39 63.3891 207.637 64.4825 206.815 65.4848C205.006 67.6997 204.304 70.4519 204.408 73.5736C204.466 75.3053 204.663 77.0321 204.798 78.7611C204.441 79.8173 204.085 80.8764 203.728 81.9326C203.582 81.6599 203.37 81.4101 203.301 81.1084C202.541 77.6968 201.276 74.601 199.641 71.7228C199.453 71.3932 199.371 70.9663 199.242 70.5849C201.198 66.8854 203.14 63.1748 205.12 59.4979C205.629 58.5534 206.252 57.7072 206.825 56.813C209.71 52.4204 213.275 48.9747 216.778 45.4405C217.254 45.0175 217.728 44.5975 218.203 44.1745C221.573 41.9197 224.816 39.2776 228.336 37.4765C244.84 29.0415 261.318 29.8139 277.576 39.5869C285.644 44.4361 292.403 51.4944 298.072 60.2515C304.878 70.7697 308.99 82.7503 310.759 96.0173C311.047 98.1765 311.205 100.364 311.422 102.537C308.862 102.536 306.304 102.532 303.744 102.528C302.733 88.9534 298.89 76.7997 292.017 66.0675C291.636 66.5018 291.348 66.8159 291.073 67.1471C284.767 74.6588 278.461 82.1675 272.162 89.6906C268.418 94.1629 264.689 98.6581 260.955 103.142C257.76 106.958 254.565 110.773 251.37 114.589C250.383 115.875 249.396 117.164 248.409 118.449C247.752 119.139 247.062 119.783 246.447 120.523C244.734 122.589 243.054 124.697 241.361 126.788C240.2 128.071 239.039 129.357 237.875 130.64C237.145 131.522 236.414 132.407 235.683 133.29C235.531 133.429 235.364 133.549 235.228 133.709C231.028 138.706 226.829 143.706 222.631 148.708C220.865 150.814 219.104 152.93 217.297 155.093C220.791 159.154 224.539 162.444 228.631 165.09C239.353 172.022 250.617 174.061 262.339 171.462C266.344 170.574 270.238 169.128 273.886 166.822C277.68 164.795 281.183 162.173 284.337 158.833C284.842 158.321 285.345 157.812 285.85 157.3C286.065 157.103 286.295 156.928 286.493 156.708C295.727 146.39 301.303 133.489 303.284 118.047C305.878 117.971 308.472 117.896 311.064 117.82C309.516 130.284 306.273 141.864 300.317 152.053C297.445 156.966 294.116 161.318 290.474 165.308C289.879 165.907 289.287 166.504 288.692 167.103C286.631 168.795 284.59 170.527 282.504 172.167C281.094 173.274 279.621 174.256 278.176 175.294C275.494 176.554 272.871 178.064 270.123 179.037C250.515 185.981 232.398 181.714 215.874 166.1C214.05 164.374 212.397 162.356 210.665 160.476L210.665 160.481Z" fill="#D83535"/>
<path d="M278.179 175.3C279.624 174.261 281.096 173.28 282.506 172.173C284.592 170.533 286.633 168.801 288.694 167.109C288.79 167.191 288.94 167.247 288.974 167.357C289.921 170.484 291.065 173.552 291.735 176.768C292.357 179.746 292.506 182.878 292.789 185.952C292.864 186.756 292.659 187.597 292.61 188.119C292.84 189.263 293.1 190.213 293.215 191.188C293.638 194.758 294.256 198.268 295.621 201.48C298.064 207.236 302.014 210.975 306.512 213.805C311.082 216.684 315.758 219.292 320.358 222.096C322.015 223.105 323.593 224.333 325.208 225.461C323.987 230.114 322.774 234.77 321.532 239.412C321.303 240.274 320.916 241.065 320.663 241.916C320.427 242.708 320.271 243.54 320.08 244.357C319.651 244.085 319.102 243.947 318.81 243.524C313.961 236.484 307.745 232.412 300.839 229.633C297.438 228.264 294.003 226.726 290.875 224.572C285.034 220.552 281.798 213.908 280.32 205.865C279.586 201.861 279.511 197.818 279.607 193.727C279.711 189.224 279.592 184.697 279.361 180.191C279.276 178.542 278.588 176.929 278.174 175.297L278.179 175.3Z" fill="#FFC997"/>
<path d="M199.247 70.5875C199.378 70.9688 199.458 71.3958 199.645 71.7255C201.278 74.6067 202.545 77.7024 203.306 81.1111C203.372 81.4099 203.586 81.6626 203.732 81.9352C204.45 85.3045 204.682 88.7199 204.356 92.1607C203.979 96.1412 203.094 99.9143 201.311 103.251C201.046 103.746 200.532 104.03 200.134 104.409C200.203 102.67 200.236 100.923 200.347 99.1887C200.496 96.8826 200.968 94.5623 200.833 92.2837C200.541 87.3676 199.273 82.7517 197.156 78.5367C197.032 78.2896 196.725 78.1892 196.502 78.0216C195.073 75.2064 193.293 72.8215 191.237 70.6859C188.437 67.7783 185.455 65.0348 183.64 60.9087C182.358 57.9947 181.501 54.9227 181.111 51.5859C180.722 48.2636 180.841 45.1166 181.968 42.1215C182.279 41.292 182.903 40.6534 183.384 39.9261L183.755 40.1968C183.744 40.548 183.806 40.9376 183.713 41.2478C182.715 44.56 183.642 47.6471 184.584 50.6753C186.325 56.2804 189.532 60.3024 193.375 63.773C195.519 65.7095 197.301 68.2932 199.246 70.5846L199.247 70.5875Z" fill="#E6E6E7"/>
<path d="M200.243 111.714C200.117 111.625 199.979 111.446 199.867 111.464C197.333 111.892 194.897 111.313 192.503 110.239C191.02 108.984 189.33 107.991 188.091 106.429C184.738 102.207 183.871 96.8113 183.977 91.1037C184.009 89.3689 184.259 87.6381 184.226 85.9085C184.081 78.3122 181.058 72.7811 176.146 68.652C175.824 68.3826 175.462 68.1701 175.176 67.8497C174.947 67.5946 174.804 67.2137 174.621 66.8897C174.917 66.7273 175.224 66.395 175.506 66.4319C177.766 66.7418 179.881 67.3843 181.89 69.0507C184.548 71.2559 186.814 73.7261 188.159 77.4331C189.491 81.1083 189.994 84.9002 189.751 88.8994C189.479 93.3586 189.348 97.8334 191.337 101.91C191.617 102.482 191.988 102.983 192.315 103.516C192.467 104.034 192.517 104.669 192.789 105.046C194.611 107.564 196.818 109.34 199.401 110.326C199.635 110.414 199.92 110.287 200.181 110.258C200.55 110.496 200.922 110.737 201.291 110.976C200.943 111.219 200.593 111.465 200.245 111.708L200.243 111.714Z" fill="#E6E6E7"/>
<path d="M200.179 110.264C199.918 110.29 199.634 110.42 199.399 110.332C196.816 109.346 194.609 107.57 192.787 105.052C192.515 104.672 192.465 104.037 192.313 103.522C192.66 99.6912 192.779 95.7929 193.417 92.0488C194.223 87.3108 195.455 82.6952 196.503 78.0276C196.726 78.1953 197.033 78.2956 197.157 78.5427C199.276 82.7577 200.542 87.3737 200.834 92.2898C200.969 94.5684 200.497 96.8887 200.348 99.1947C200.237 100.929 200.203 102.673 200.134 104.415C200.111 104.793 200.089 105.174 200.065 105.552C200.102 107.123 200.14 108.695 200.177 110.267L200.179 110.264Z" fill="#D83535"/>
<path d="M312.295 259.832C311.851 260.435 311.404 261.035 310.96 261.638C308.71 258.299 306.647 254.714 304.156 251.693C301.826 248.868 299.214 246.258 296.42 244.248C292.403 241.356 288.083 239.148 283.937 236.533C281.828 235.203 279.985 233.393 279.257 230.366C279.049 229.502 279.036 228.547 279.032 227.638C279.032 227.357 279.345 226.861 279.526 226.857C279.794 226.848 280.238 227.113 280.325 227.397C281.278 230.506 283.043 232.789 285.209 234.456C286.762 235.65 288.554 236.374 290.271 237.188C294.95 239.405 299.178 242.57 302.932 246.754C303.358 247.227 303.646 247.895 304.032 248.434C304.478 249.059 304.968 249.633 305.431 250.239C307.059 252.375 308.706 254.487 310.298 256.665C311.022 257.654 311.631 258.776 312.293 259.835L312.295 259.832Z" fill="#FFC997"/>
<path d="M179.232 194.224C179.313 197.528 178.604 199.225 176.053 199.428C175.232 199.495 174.433 200.023 173.619 200.031C171.953 200.045 171.016 198.467 170.21 196.928C169.444 195.469 169.635 193.925 170.509 192.623C171.314 191.422 172.12 190.186 173.066 189.177C174.829 187.3 177.602 188.375 178.579 191.288C178.949 192.392 179.1 193.609 179.232 194.221L179.232 194.224Z" fill="#F6C7A3"/>
<path d="M150.5 130.712C147.701 130.81 146.857 130.182 146.17 127.735C145.11 123.951 147.409 119.687 150.934 120.199C152.792 120.467 154.147 121.75 154.808 124.051C155.419 126.176 155.205 128.262 153.892 129.632C153.053 130.509 151.712 130.626 150.599 131.086C150.566 130.961 150.532 130.837 150.5 130.715L150.5 130.712Z" fill="#F6C7A3"/>
<path d="M114.462 155.433C114.515 157.544 113.24 159.217 111.547 159.256C109.871 159.297 108.498 157.641 108.45 155.523C108.403 153.527 109.826 151.659 111.391 151.663C113.092 151.668 114.41 153.283 114.462 155.433Z" fill="#F6C7A3"/>
<path d="M140.069 130.778C138.16 130.845 137.164 129.693 137.086 127.336C137.011 125.129 138.162 123.559 139.914 123.478C141.7 123.395 142.787 124.772 142.868 127.216C142.945 129.535 142.021 130.713 140.072 130.778L140.069 130.778Z" fill="#F6C7A3"/>
<path d="M112.238 187.588C110.842 187.596 109.713 186.22 109.69 184.487C109.668 182.667 110.76 181.187 112.148 181.165C113.503 181.141 114.775 182.711 114.777 184.412C114.78 186.233 113.702 187.581 112.238 187.588Z" fill="#F6C7A3"/>
<path d="M183.248 193.297C181.132 193.357 180.784 192.921 180.714 190.132C180.677 188.619 181.654 187.5 183.053 187.457C184.489 187.413 185.722 188.855 185.813 190.679C185.901 192.468 185.141 193.243 183.248 193.297Z" fill="#F6C7A3"/>
<path d="M182.285 109.298C182.332 110.866 181.617 111.663 180.338 111.872C179.302 112.039 178.21 110.712 178.178 109.4C178.148 108.144 179.061 106.727 180.194 106.827C181.473 106.944 182.236 107.721 182.285 109.298Z" fill="#F6C7A3"/>
<path d="M152.276 131.321L149.051 131.434C149.048 131.334 149.047 131.237 149.046 131.137L152.291 131.024C152.288 131.124 152.282 131.221 152.278 131.321L152.276 131.321Z" fill="#F4B994"/>
<path d="M127.23 308.982C127.028 309.085 126.831 309.27 126.625 309.28C124.108 309.389 121.589 309.477 119.07 309.544C118.865 309.551 118.655 309.377 118.446 309.288C118.648 309.185 118.845 308.997 119.051 308.987C121.57 308.878 124.087 308.79 126.608 308.723C126.813 308.715 127.023 308.889 127.232 308.981L127.23 308.982Z" fill="#FEEEDB"/>
<path d="M284.282 286.248C283.002 287.17 281.722 288.092 280.444 289.01C281.724 288.089 283.004 287.167 284.282 286.248Z" fill="#FEEEDB"/>
<path d="M105.059 310.341C104.21 310.37 103.364 310.4 102.516 310.429C102.506 310.137 102.496 309.848 102.485 309.556C103.337 309.623 104.187 309.69 105.038 309.76L105.059 310.344L105.059 310.341Z" fill="#FEEEDB"/>
<path d="M87.9016 309.478C87.3596 309.4 86.8153 309.323 86.2733 309.245C86.2665 309.05 86.2598 308.857 86.2529 308.661C87.2572 308.723 88.2639 308.787 89.2682 308.848C88.8127 309.057 88.3572 309.269 87.9016 309.478Z" fill="#FEEEDB"/>
<path d="M100.182 309.929C99.7981 309.943 99.4121 309.956 99.0283 309.969C98.7903 309.782 98.5524 309.597 98.3145 309.41L100.405 309.629C100.33 309.728 100.257 309.83 100.182 309.929Z" fill="#FEEEDB"/>
<path d="M94.3952 309.836C94.0878 309.847 93.778 309.857 93.4706 309.868C93.4638 309.673 93.457 309.48 93.4502 309.284L94.8372 309.236C94.6891 309.437 94.5434 309.638 94.3952 309.836Z" fill="#FEEEDB"/>
<path d="M76.3028 308.714C75.9954 308.724 75.6879 308.735 75.3781 308.746C75.3679 308.454 75.3579 308.165 75.3477 307.873C75.7371 307.956 76.1243 308.042 76.5137 308.124C76.4442 308.323 76.3724 308.518 76.3029 308.717L76.3028 308.714Z" fill="#FEEEDB"/>
<path d="M30.8967 294.219C30.6622 294.131 30.4275 294.04 30.193 293.952C30.0211 293.469 29.8516 292.99 29.6797 292.508C30.0861 293.078 30.4902 293.649 30.8967 294.219Z" fill="#FEEEDB"/>
<path d="M91.3666 309.358L90.6754 309.382C90.6719 309.283 90.6685 309.186 90.665 309.086C91.1274 309.07 91.5897 309.054 92.052 309.038C91.8242 309.143 91.5965 309.25 91.3665 309.355L91.3666 309.358Z" fill="#FEEEDB"/>
<path d="M68.1709 307.828C67.9398 307.836 67.7086 307.844 67.4774 307.852C67.4706 307.657 67.4639 307.464 67.457 307.268C67.7702 307.354 68.081 307.439 68.3942 307.528C68.319 307.627 68.2461 307.729 68.1709 307.828Z" fill="#FEEEDB"/>
<path d="M66.5426 307.593C66.3877 307.598 66.2352 307.603 66.0803 307.609C66.0701 307.317 66.06 307.028 66.0498 306.736C66.3663 306.918 66.6806 307.102 66.9971 307.284C66.8455 307.386 66.6941 307.491 66.5449 307.592L66.5426 307.593Z" fill="#FEEEDB"/>
<path d="M71.4154 308.011C71.1842 308.019 70.9531 308.027 70.7242 308.035C70.7207 307.936 70.7173 307.839 70.7139 307.739C71.1796 307.82 71.6454 307.903 72.1111 307.984C71.8799 307.992 71.6464 308 71.4154 308.011Z" fill="#FEEEDB"/>
<path d="M60.4795 306.345C60.3269 306.351 60.1721 306.356 60.0195 306.361C59.9341 306.169 59.8511 305.979 59.7656 305.786C60.0821 305.968 60.3964 306.152 60.7129 306.334C60.6343 306.337 60.5557 306.34 60.4795 306.345Z" fill="#FEEEDB"/>
<path d="M61.889 306.878C61.7341 306.884 61.5815 306.889 61.4266 306.894C61.4198 306.699 61.4131 306.506 61.4062 306.31C61.6374 306.302 61.8686 306.294 62.0997 306.286L61.889 306.878Z" fill="#FEEEDB"/>
<path d="M65.1458 307.349C64.9909 307.355 64.8384 307.36 64.6835 307.365C64.6766 307.17 64.6699 306.977 64.6631 306.781C64.8942 306.773 65.1254 306.765 65.3566 306.757C65.2871 306.955 65.2153 307.151 65.1458 307.349Z" fill="#FEEEDB"/>
<path d="M78.8454 308.626C78.6928 308.631 78.5379 308.637 78.3853 308.642C78.3819 308.542 78.3785 308.446 78.375 308.346C78.6824 308.335 78.9922 308.324 79.2997 308.314C79.1482 308.416 78.9968 308.521 78.8476 308.623L78.8454 308.626Z" fill="#FEEEDB"/>
<path d="M185.756 308.108C185.68 308.111 185.603 308.114 185.525 308.117C185.366 308.025 185.208 307.931 185.05 307.84C185.284 307.928 185.519 308.017 185.754 308.109L185.756 308.108Z" fill="#FEEEDB"/>
<path d="M187.366 307.765C187.215 307.867 187.063 307.966 186.911 308.068L187.366 307.765Z" fill="#FEEEDB"/>
<path d="M92.9871 309.302C92.8289 309.21 92.6706 309.119 92.5146 309.028C92.6729 309.119 92.8312 309.21 92.9871 309.302Z" fill="#FEEEDB"/>
<path d="M303.746 102.53C306.306 102.534 308.864 102.536 311.424 102.54C313.07 102.482 314.715 102.425 316.382 102.367C316.522 106.385 316.657 110.236 316.791 114.085C314.832 114.057 312.873 114.026 310.912 113.998C310.829 113.466 310.745 112.931 310.659 112.399C310.537 112.412 310.415 112.428 310.291 112.441C310.256 112.968 310.221 113.493 310.186 114.02C307.188 114.122 304.189 114.221 301.193 114.323C301.11 113.846 301.026 113.37 300.944 112.893C300.824 112.906 300.702 112.919 300.582 112.932C300.545 113.313 300.507 113.692 300.469 114.073C297.006 114.188 293.546 114.303 290.083 114.418C289.964 113.867 289.843 113.313 289.724 112.761C289.623 112.788 289.522 112.815 289.421 112.842C289.328 113.284 289.237 113.729 289.144 114.17C288.993 114.176 288.843 114.178 288.693 114.18C288.614 110.397 288.537 106.614 288.458 102.827C288.994 102.794 289.527 102.74 290.063 102.73C294.623 102.659 299.182 102.593 303.742 102.528L303.746 102.53ZM304.659 107.849C304.78 107.879 304.899 107.91 305.021 107.938C305.75 106.808 305.746 105.636 304.728 104.124C304.704 105.365 304.683 106.608 304.659 107.849ZM296.477 105.269C295.726 106.477 295.63 107.649 296.265 108.797L296.6 108.785L296.477 105.269ZM314.279 104.162C314.167 104.16 314.056 104.155 313.945 104.153L314.075 107.879C314.186 107.878 314.297 107.878 314.408 107.877L314.279 104.162ZM291.557 111.56L291.906 111.548L291.777 107.86L291.428 107.872L291.557 111.56Z" fill="#FE9832"/>
<path d="M325.21 225.461C323.594 224.333 322.017 223.105 320.359 222.096C315.758 219.295 311.084 216.683 306.514 213.805C302.018 210.974 298.068 207.236 295.622 201.48C294.258 198.268 293.64 194.757 293.217 191.188C293.102 190.212 292.842 189.26 292.612 188.119C292.661 187.597 292.866 186.756 292.791 185.952C292.508 182.877 292.359 179.746 291.737 176.768C291.064 173.552 289.923 170.484 288.976 167.357C288.942 167.247 288.792 167.19 288.696 167.109C289.291 166.509 289.883 165.913 290.478 165.313C290.837 166.382 291.18 167.461 291.558 168.521C292.888 172.234 293.791 176.076 294.012 180.144C294.124 182.225 294.3 184.297 294.451 186.373C294.51 187.184 294.529 187.941 293.597 187.891C293.914 187.936 294.23 187.983 294.658 188.044C294.7 188.461 294.713 188.884 294.789 189.291C295.423 192.578 295.855 195.955 296.758 199.127C298.03 203.603 300.745 206.73 303.855 209.244C305.544 210.612 307.339 211.783 309.138 212.913C314.545 216.311 319.978 219.644 325.397 223.007C325.601 223.132 325.787 223.303 325.997 223.463C325.884 224.157 325.777 224.804 325.672 225.448C325.517 225.45 325.365 225.452 325.212 225.455L325.21 225.461Z" fill="#FFDAB9"/>
<path d="M310.915 113.998C312.874 114.026 314.835 114.057 316.794 114.085C317.049 118.806 317.295 117.71 314.171 117.84C313.138 117.882 312.102 117.833 311.069 117.822C308.475 117.898 305.881 117.974 303.289 118.05C302.331 118.002 301.372 117.91 300.416 117.911C296.539 117.909 292.661 117.936 288.783 117.955C288.755 116.695 288.728 115.439 288.7 114.183C288.85 114.178 289.001 114.176 289.151 114.173C289.262 114.915 289.376 115.656 289.488 116.395C289.615 116.382 289.744 116.372 289.871 116.358C289.943 115.713 290.018 115.064 290.09 114.418C293.553 114.303 297.014 114.188 300.477 114.073C300.541 114.977 300.602 115.881 300.666 116.782C300.814 116.777 300.962 116.775 301.11 116.773C301.142 115.956 301.171 115.139 301.203 114.322C304.201 114.221 307.199 114.122 310.195 114.02C310.254 114.755 310.314 115.487 310.372 116.221C310.52 116.228 310.666 116.234 310.815 116.241C310.849 115.491 310.885 114.744 310.919 113.995L310.915 113.998Z" fill="#E58B2E"/>
<path d="M221.08 53.7133C226.503 48.5772 232.563 45.059 239.179 43.1936C253.886 39.0519 267.69 42.236 280.463 52.7623C282.624 54.5433 284.593 56.7023 286.842 58.8691C285.828 59.8693 284.979 60.5919 284.241 61.4655C283.354 62.5139 282.608 63.7444 281.726 64.8014C276.683 70.8393 271.618 76.8488 266.563 82.8696C261.612 88.7669 256.666 94.667 251.716 100.561C251.496 100.823 251.244 101.048 251.01 101.293C250.919 101.025 250.795 100.763 250.745 100.484C249.643 94.041 246.556 89.4769 242.05 86.4241C238.878 84.2749 235.537 82.5293 232.357 80.3979C230.527 79.1696 228.779 77.6724 227.155 76.0421C224.687 73.5614 223.404 70.1154 222.826 66.2852C222.197 62.106 221.659 57.906 221.08 53.7133Z" fill="#FFC997"/>
<path d="M288.781 117.955C292.659 117.939 296.535 117.912 300.414 117.911C301.372 117.91 302.329 118.002 303.286 118.05C301.305 133.492 295.729 146.393 286.496 156.711C286.297 156.931 286.067 157.106 285.852 157.303C285.494 156.714 285.188 156.052 284.764 155.555C283.82 154.451 282.936 153.119 281.819 152.43C276.582 149.201 271.28 146.15 265.994 143.054C263.731 141.727 261.367 140.637 259.195 139.102C256.124 136.929 254.118 133.304 253.064 129.285C252.162 125.85 252.186 122.045 251.8 118.404C254.603 118.403 257.403 118.398 260.206 118.397C263.045 118.394 265.886 118.427 268.727 118.38C274.977 118.279 281.228 118.137 287.477 118.009C287.912 117.994 288.344 117.973 288.778 117.955L288.781 117.955Z" fill="#FFC997"/>
<path d="M237.875 130.643C239.036 129.36 240.197 128.074 241.36 126.791C241.953 127.58 242.163 128.426 241.731 129.441C241.611 129.72 241.614 130.092 241.582 130.423C241.236 133.827 241.704 137.169 242.152 140.525C243.286 149.002 248.886 156.521 255.503 158.311C258.846 159.214 262.223 159.929 265.551 160.921C268.741 161.874 271.717 163.463 273.89 166.825C270.242 169.131 266.349 170.576 262.343 171.465C250.621 174.064 239.357 172.025 228.635 165.093C224.543 162.447 220.795 159.157 217.302 155.095C219.108 152.933 220.869 150.816 222.636 148.711C226.833 143.708 231.03 138.709 235.233 133.712C235.368 133.549 235.535 133.429 235.688 133.292C235.847 133.547 235.989 133.826 236.17 134.053C236.427 134.375 236.714 134.657 236.989 134.954C237.199 134.605 237.537 134.289 237.593 133.901C237.75 132.831 237.79 131.731 237.877 130.643L237.875 130.643ZM243.521 157.574C244.423 157.695 244.899 156.947 244.723 155.936C244.604 155.259 243.919 154.201 243.547 154.232C242.814 154.292 241.621 154.062 241.57 155.719C241.541 156.684 242.524 157.612 243.521 157.574Z" fill="#FEE2C3"/>
<path d="M303.747 102.53C299.187 102.596 294.628 102.662 290.068 102.733C289.532 102.743 288.999 102.797 288.463 102.83C288.04 102.839 287.617 102.848 287.194 102.857C285.893 102.8 284.59 102.673 283.291 102.721C282.718 102.741 282.157 103.115 281.593 103.324C281.44 103.33 281.29 103.335 281.137 103.34C280.673 103.161 280.205 102.823 279.745 102.828C274.289 102.881 268.833 102.987 263.379 103.081C262.571 103.094 261.762 103.122 260.955 103.145C264.692 98.661 268.418 94.1659 272.162 89.6936C278.461 82.1705 284.767 74.6617 291.073 67.1501C291.351 66.8188 291.639 66.5047 292.017 66.0705C298.891 76.8027 302.733 88.9564 303.744 102.53L303.747 102.53Z" fill="#FFC997"/>
<path d="M273.888 166.828C271.716 163.466 268.739 161.877 265.549 160.924C262.221 159.93 258.847 159.217 255.501 158.314C248.884 156.521 243.285 149.005 242.151 140.528C241.703 137.172 241.234 133.83 241.58 130.426C241.615 130.095 241.611 129.723 241.729 129.444C242.161 128.429 241.951 127.583 241.359 126.794C243.052 124.703 244.732 122.595 246.445 120.529C247.06 119.786 247.75 119.142 248.407 118.455C248.847 118.463 249.284 118.471 249.724 118.479C249.874 120.506 250.019 122.533 250.175 124.557C250.269 125.787 250.167 127.121 250.518 128.228C251.514 131.366 252.266 134.725 254.358 137.108C255.874 138.835 257.317 140.837 259.081 142.001C262.46 144.227 266.036 145.959 269.542 147.865C271.729 149.055 273.983 150.055 276.113 151.387C277.691 152.373 279.162 153.681 280.599 154.987C281.902 156.173 283.095 157.549 284.337 158.841C281.183 162.182 277.681 164.807 273.886 166.831L273.888 166.828Z" fill="#FFC997"/>
<path d="M208.438 70.3953C209.381 69.1082 210.372 67.869 211.258 66.5225C212.667 64.38 213.934 62.0846 215.398 60.0103C216.503 58.4456 217.82 57.1191 219.04 55.6877C219.672 60.3084 220.367 64.9209 220.909 69.5564C221.216 72.2061 222.044 74.3757 223.745 76.0062C224.113 76.3588 224.531 76.6483 224.855 77.0579C227.06 79.8256 229.689 81.7335 232.469 83.3965C235.717 85.3413 239.022 87.1934 242.111 89.5005C246.127 92.4943 248.537 97.0148 248.952 102.997C243.861 103.078 238.769 103.159 233.676 103.241C231.878 100.611 229.39 99.4669 226.956 98.2479C223.482 96.5098 220.181 94.4383 217.484 91.0533C216.775 90.163 216.057 89.2789 215.343 88.3945C215.184 87.0143 215.302 85.4431 214.802 84.297C214.06 82.6068 212.902 81.1912 211.878 79.7067C210.016 77.006 208.696 74.0057 208.431 70.3956L208.438 70.3953Z" fill="#FFC997"/>
<path d="M233.681 103.241C238.772 103.159 243.863 103.078 248.957 102.997C249.149 103.004 249.342 103.015 249.534 103.023C246.257 106.938 242.977 110.853 239.7 114.769C236.012 114.786 232.322 114.786 228.632 114.831C223.635 114.888 218.636 114.949 213.641 115.082C212.744 115.105 212.525 114.729 212.507 113.68C212.466 111.056 212.365 108.429 212.236 105.805C212.185 104.781 212.175 103.834 212.86 103.126L216.318 102.976C217.077 102.657 217.839 102.338 218.599 102.019C219.514 102.379 220.425 103.016 221.345 103.051C225.456 103.209 229.569 103.194 233.681 103.243L233.681 103.241Z" fill="#FEFDFD"/>
<path d="M260.956 103.145C261.763 103.122 262.572 103.094 263.379 103.081C268.833 102.987 274.289 102.881 279.745 102.828C280.205 102.823 280.673 103.161 281.138 103.34C281.251 106.596 281.34 109.85 281.49 113.105C281.536 114.088 281.349 114.565 280.508 114.478C279.556 114.38 278.597 114.293 277.641 114.297C273.802 114.312 269.962 114.355 266.121 114.399C261.205 114.456 256.287 114.528 251.371 114.592C254.566 110.776 257.761 106.96 260.956 103.145Z" fill="#FEFDFD"/>
<path d="M210.369 145.318C208.827 142.065 207.256 138.831 205.753 135.551C203.804 131.301 202.537 126.714 201.599 121.984C201.459 121.279 201.342 120.569 201.215 119.86C201.605 119.689 201.989 119.494 202.385 119.352C203.729 118.869 205.078 118.407 206.427 117.939C206.706 119.631 207.696 118.473 208.332 118.729C208.938 118.725 209.547 118.722 210.153 118.718C210.384 118.786 210.618 118.854 210.85 118.925C211.409 119.496 211.919 120.182 212.538 120.62C214.741 122.177 215.933 124.7 216.726 127.537C217.284 129.541 217.732 131.618 218.013 133.705C218.203 135.099 218.165 136.597 216.976 137.533C216.117 138.209 215.268 138.952 214.545 139.837C213.104 141.603 211.754 143.486 210.367 145.318L210.369 145.318Z" fill="#FFA653"/>
<path d="M210.369 145.318C211.757 143.484 213.107 141.6 214.548 139.837C215.269 138.952 216.12 138.209 216.978 137.533C218.168 136.597 218.206 135.099 218.016 133.705C217.732 131.619 217.287 129.541 216.729 127.537C215.936 124.7 214.743 122.174 212.541 120.62C211.922 120.183 211.412 119.499 210.853 118.925C211.247 118.823 211.642 118.725 212.036 118.623C213.108 118.682 214.181 118.8 215.25 118.786C220.594 118.722 225.939 118.608 231.283 118.548C232.306 118.535 233.334 118.689 234.22 118.755C234.524 119.44 234.746 119.941 234.967 120.439C231.616 124.447 228.259 128.444 224.916 132.467C220.636 137.619 216.368 142.79 211.969 148.104C211.36 147.041 210.865 146.181 210.369 145.318Z" fill="#FDE1C2"/>
<path d="M218.601 102.016C217.841 102.335 217.08 102.654 216.32 102.973C215.188 101.901 214.056 100.83 212.847 99.6849C211.563 100.446 210.535 102.414 208.493 101.857C208.813 101.156 209.112 100.698 209.249 100.173C209.824 97.9603 210.65 95.7709 210.821 93.4933C211.032 90.6734 209.893 88.1872 208.439 85.9868C206.982 83.7806 205.514 81.569 204.805 78.7667C204.671 77.0377 204.471 75.3109 204.416 73.5792C204.311 70.4575 205.014 67.7053 206.822 65.4903C207.644 64.4852 208.395 63.3918 209.18 62.3411C209.294 62.4453 209.409 62.5466 209.526 62.6506C209.223 63.7839 208.801 64.892 208.648 66.061C208.461 67.4796 208.503 68.9516 208.445 70.4009C208.71 74.011 210.03 77.0113 211.892 79.712C212.916 81.1965 214.074 82.612 214.816 84.3023C215.319 85.4483 215.198 87.0196 215.357 88.3998C215.553 91.6031 215.598 94.7707 213.883 97.801C214.392 98.2744 214.854 98.7172 215.327 99.1364C216.419 100.104 217.515 101.06 218.608 102.021L218.601 102.016Z" fill="#E6E6E7"/>
<path d="M204.8 78.7639C205.509 81.5663 206.977 83.7779 208.434 85.984C209.888 88.1873 211.028 90.6706 210.816 93.4905C210.646 95.7681 209.819 97.9604 209.244 100.17C209.107 100.695 208.811 101.153 208.488 101.854C210.53 102.412 211.559 100.446 212.842 99.6821C214.051 100.827 215.183 101.898 216.315 102.97C215.162 103.019 214.009 103.071 212.858 103.12C212.423 103.261 211.986 103.399 211.551 103.54C210.991 103.542 210.433 103.544 209.873 103.546C209.263 103.564 208.65 103.582 208.04 103.601L205.927 103.675L206.425 117.936C205.078 118.407 203.729 118.869 202.382 119.349C201.987 119.491 201.603 119.686 201.213 119.858C201.059 118.705 200.906 117.553 200.754 116.4C203.168 115.343 204.309 112.35 203.424 109.217C202.862 107.229 201.823 105.835 200.065 105.549C200.089 105.171 200.11 104.79 200.134 104.412C200.533 104.03 201.046 103.749 201.311 103.254C203.095 99.9172 203.979 96.1442 204.356 92.1637C204.683 88.7199 204.45 85.3074 203.733 81.9382C204.089 80.8791 204.446 79.8229 204.803 78.7667L204.8 78.7639ZM207.235 89.8412C206.294 89.8594 206.164 90.0423 206.191 91.3424C206.225 93.11 206.71 93.9555 207.667 93.9191C208.511 93.8897 209.039 92.9737 208.974 91.6574C208.918 90.4958 208.269 89.8197 207.235 89.8412Z" fill="#FEE2C3"/>
<path d="M251.37 114.592C256.286 114.525 261.204 114.456 266.121 114.398C269.961 114.352 273.801 114.308 277.641 114.297C278.596 114.293 279.553 114.38 280.508 114.478C281.349 114.565 281.536 114.088 281.49 113.104C281.339 109.853 281.248 106.596 281.137 103.34C281.29 103.335 281.44 103.33 281.592 103.324C281.703 106.481 281.857 109.636 281.905 112.792C281.923 114.034 282.164 114.531 283.225 114.406C284.598 114.244 285.991 114.295 287.374 114.256C287.408 115.509 287.443 116.759 287.477 118.012C281.228 118.136 274.977 118.282 268.727 118.383C265.886 118.429 263.045 118.397 260.206 118.4C257.403 118.401 254.603 118.405 251.8 118.407C251.109 118.431 250.415 118.455 249.724 118.479C249.284 118.471 248.846 118.463 248.406 118.455C249.394 117.169 250.381 115.881 251.368 114.595L251.37 114.592Z" fill="#E5E5E6"/>
<path d="M249.534 103.02C249.341 103.012 249.149 103.001 248.956 102.994C248.539 97.0118 246.129 92.4913 242.116 89.4974C239.024 87.1934 235.721 85.3382 232.474 83.3934C229.694 81.7275 227.065 79.8196 224.86 77.0548C224.535 76.6481 224.118 76.3586 223.749 76.0031C222.049 74.3697 221.221 72.203 220.913 69.5533C220.374 64.9177 219.676 60.3053 219.045 55.6846C219.723 55.0265 220.404 54.3683 221.082 53.7102C221.661 57.9029 222.197 62.103 222.829 66.2821C223.407 70.1123 224.687 73.5584 227.157 76.0391C228.781 77.6722 230.53 79.1694 232.36 80.3948C235.54 82.5291 238.881 84.2718 242.052 86.421C246.559 89.4738 249.646 94.0379 250.748 100.481C250.795 100.76 250.922 101.022 251.012 101.29C250.521 101.866 250.03 102.442 249.538 103.02L249.534 103.02Z" fill="#FFDAB9"/>
<path d="M249.727 118.476C250.418 118.452 251.111 118.428 251.803 118.404C252.189 122.045 252.164 125.849 253.067 129.285C254.121 133.303 256.125 136.932 259.198 139.102C261.369 140.637 263.733 141.727 265.997 143.054C271.282 146.15 276.587 149.201 281.822 152.43C282.938 153.119 283.823 154.45 284.766 155.555C285.191 156.052 285.496 156.716 285.855 157.303C285.35 157.815 284.847 158.324 284.341 158.835C283.1 157.543 281.906 156.166 280.603 154.981C279.164 153.675 277.695 152.367 276.117 151.381C273.988 150.049 271.733 149.049 269.546 147.859C266.04 145.953 262.462 144.221 259.086 141.994C257.321 140.831 255.876 138.829 254.363 137.101C252.27 134.719 251.519 131.357 250.523 128.222C250.172 127.115 250.273 125.781 250.179 124.55C250.025 122.524 249.878 120.5 249.729 118.473L249.727 118.476Z" fill="#FFDAB9"/>
<path d="M211.553 103.542C211.988 103.401 212.425 103.263 212.86 103.123C212.174 103.831 212.186 104.777 212.236 105.805C212.367 108.429 212.466 111.053 212.507 113.68C212.522 114.729 212.744 115.105 213.641 115.082C218.638 114.948 223.635 114.888 228.632 114.83C232.32 114.786 236.009 114.786 239.7 114.768C238.123 116.66 236.543 118.551 234.966 120.439C234.745 119.938 234.524 119.44 234.22 118.755C233.333 118.689 232.307 118.538 231.282 118.547C225.938 118.608 220.593 118.722 215.249 118.786C214.178 118.8 213.107 118.679 212.036 118.623C211.98 116.105 211.946 113.589 211.865 111.071C211.784 108.56 211.659 106.053 211.553 103.542Z" fill="#E5E5E6"/>
<path d="M200.065 105.549C201.822 105.835 202.864 107.228 203.424 109.217C204.309 112.353 203.168 115.343 200.754 116.4C200.584 114.836 200.413 113.275 200.241 111.711C200.589 111.468 200.939 111.222 201.287 110.979C200.917 110.74 200.546 110.499 200.176 110.261C200.14 108.689 200.101 107.117 200.065 105.546L200.065 105.549Z" fill="#F6DFD3"/>
<path d="M237.875 130.643C237.788 131.731 237.748 132.831 237.591 133.901C237.532 134.289 237.196 134.605 236.986 134.954C236.712 134.657 236.425 134.375 236.168 134.053C235.986 133.826 235.845 133.55 235.685 133.292C236.416 132.41 237.147 131.525 237.877 130.643L237.875 130.643Z" fill="#F9EAE1"/>
<path d="M287.479 118.009C287.445 116.756 287.41 115.506 287.376 114.253C287.315 110.454 287.254 106.653 287.195 102.854C287.618 102.845 288.042 102.836 288.465 102.827C288.542 106.611 288.62 110.394 288.699 114.18C288.727 115.436 288.755 116.695 288.782 117.952C288.348 117.967 287.913 117.988 287.481 118.006L287.479 118.009Z" fill="#8B4A1A"/>
<path d="M304.659 107.849C304.683 106.608 304.704 105.365 304.728 104.124C305.748 105.635 305.752 106.811 305.021 107.938C304.9 107.907 304.78 107.876 304.659 107.849Z" fill="#FCAB5A"/>
<path d="M296.478 105.269L296.601 108.785L296.265 108.797C295.628 107.653 295.724 106.477 296.478 105.269Z" fill="#FCAB5A"/>
<path d="M290.085 114.418C290.013 115.064 289.938 115.713 289.866 116.359C289.739 116.372 289.61 116.382 289.483 116.395C289.371 115.654 289.258 114.912 289.146 114.173C289.239 113.732 289.33 113.287 289.424 112.845C289.525 112.818 289.626 112.791 289.726 112.764C289.845 113.316 289.966 113.87 290.085 114.421L290.085 114.418Z" fill="#FCAB5A"/>
<path d="M301.198 114.323C301.167 115.139 301.137 115.956 301.106 116.773C300.958 116.778 300.81 116.78 300.662 116.782C300.598 115.878 300.536 114.974 300.472 114.073C300.51 113.692 300.548 113.313 300.585 112.932C300.705 112.919 300.827 112.906 300.947 112.893C301.031 113.369 301.115 113.846 301.196 114.323L301.198 114.323Z" fill="#FCAB5A"/>
<path d="M310.914 113.998C310.88 114.747 310.844 115.494 310.81 116.244C310.662 116.237 310.515 116.231 310.367 116.224C310.309 115.489 310.251 114.758 310.191 114.023C310.226 113.496 310.26 112.971 310.295 112.444C310.417 112.431 310.54 112.415 310.664 112.401C310.747 112.934 310.831 113.469 310.917 114.001L310.914 113.998Z" fill="#FCAB5A"/>
<path d="M314.279 104.162L314.409 107.877C314.298 107.878 314.186 107.879 314.075 107.88L313.945 104.154C314.056 104.156 314.168 104.16 314.279 104.162Z" fill="#FCAB5A"/>
<path d="M291.557 111.56L291.428 107.872L291.777 107.86L291.906 111.548L291.557 111.56Z" fill="#FCAB5A"/>
<path d="M243.521 157.574C242.525 157.615 241.541 156.684 241.57 155.719C241.621 154.059 242.814 154.292 243.548 154.232C243.919 154.201 244.604 155.259 244.723 155.936C244.902 156.947 244.423 157.695 243.521 157.574Z" fill="#F9EAE1"/>
<path d="M287.196 102.857C287.257 106.655 287.315 110.457 287.376 114.256C285.991 114.295 284.601 114.244 283.227 114.406C282.167 114.531 281.925 114.034 281.907 112.792C281.862 109.636 281.708 106.481 281.595 103.324C282.162 103.112 282.723 102.741 283.294 102.721C284.59 102.676 285.893 102.803 287.196 102.857Z" fill="#FEFEFE"/>
<path d="M218.601 102.016C217.508 101.054 216.41 100.098 215.32 99.1307C214.848 98.7116 214.388 98.2686 213.876 97.7953C215.592 94.765 215.546 91.5974 215.351 88.3941C216.064 89.2814 216.782 90.1626 217.492 91.0529C220.188 94.4379 223.489 96.5065 226.964 98.2475C229.397 99.4665 231.886 100.61 233.683 103.24C229.571 103.194 225.459 103.206 221.348 103.048C220.43 103.013 219.516 102.376 218.601 102.016Z" fill="#FEE2C3"/>
<path d="M206.428 117.936L205.93 103.675C206.857 103.642 207.448 103.622 208.043 103.601C208.14 108.644 208.235 113.686 208.332 118.726C207.696 118.471 206.707 119.628 206.428 117.936Z" fill="#FCA732"/>
<path d="M211.553 103.542C211.66 106.053 211.784 108.56 211.865 111.072C211.946 113.589 211.981 116.105 212.036 118.623C211.642 118.725 211.247 118.823 210.852 118.925C210.621 118.857 210.387 118.789 210.155 118.718C210.062 113.66 209.971 108.603 209.878 103.548C210.438 103.546 210.996 103.544 211.556 103.542L211.553 103.542Z" fill="#8B4A1A"/>
<path d="M209.875 103.548C209.969 108.606 210.059 113.661 210.153 118.718C209.546 118.722 208.938 118.725 208.332 118.729C208.234 113.686 208.139 108.644 208.042 103.604C208.652 103.585 209.265 103.567 209.875 103.548Z" fill="#D83535"/>
<path d="M207.236 89.8411C208.27 89.8226 208.918 90.4987 208.975 91.6574C209.039 92.9707 208.511 93.8867 207.667 93.9191C206.708 93.9526 206.225 93.1099 206.191 91.3423C206.167 90.0451 206.294 89.8594 207.236 89.8411Z" fill="#F9EAE1"/>
</g>
<defs>
<clipPath id="clip0_1555_7474">
<rect width="346.956" height="338.055" fill="white" transform="translate(0 12.5859) rotate(-2)"/>
</clipPath>
</defs>
</svg>
