<svg width="318" height="214" viewBox="0 0 318 214" fill="none" xmlns="http://www.w3.org/2000/svg">
<path d="M229.038 108.098C230.606 108.954 232.08 110.151 233.761 110.609C240.035 112.311 246.365 113.806 252.691 115.293C254.139 115.634 255.69 115.5 257.151 115.807C270.771 118.663 281.53 125.443 287.809 138.315L287.796 138.341C282.442 141.824 278.959 146.607 278.791 153.093C278.562 162.021 284.477 170.231 295.163 171.618C294.934 184.425 290.795 196.179 285.19 207.716C296.3 208.269 307.137 208.805 317.978 209.345C317.987 209.57 317.991 209.799 318 210.023C315.835 210.317 313.683 210.706 311.51 210.883C308.584 211.125 305.642 211.276 302.708 211.341C294.662 211.527 286.612 211.652 278.566 211.791C270.231 211.938 261.895 212.119 253.556 212.214C237.658 212.391 221.761 212.56 205.864 212.651C175.418 212.823 144.976 213.013 114.53 213.052C97.6258 213.074 80.7175 212.823 63.8135 212.646C56.3423 212.568 48.8712 212.378 41.4001 212.214C35.8735 212.093 30.3425 212.02 24.8202 211.765C17.1633 211.415 9.51498 210.926 1.86238 210.468C1.24015 210.429 0.630875 210.162 0.0129635 210.002C0.0129635 209.777 0.00432106 209.552 0 209.328C9.28164 208.844 18.5633 208.364 27.819 207.884C26.8684 202.479 25.8443 197.302 25.0751 192.087C24.3578 187.212 23.7529 182.312 23.3856 177.399C22.9319 171.324 22.5214 165.227 22.5732 159.147C22.6164 153.94 23.3424 148.742 23.7658 143.539L23.7918 143.513C27.5338 143.825 30.3771 142.221 32.3993 139.214C35.4889 134.616 34.75 127.962 28.5493 124.522L28.5277 124.492C31.0814 118.451 34.0197 112.639 38.5568 107.791C45.2459 100.644 53.4429 96.2238 63.0011 94.275C64.4703 93.9768 65.9394 93.683 67.4129 93.3892C67.5598 93.3892 67.7067 93.3935 67.8537 93.3978C70.4117 98.6004 74.7846 101.318 80.2897 102.489C83.7681 108.638 88.7935 112.946 95.8585 113.953C100.594 114.632 105.469 114.333 110.282 114.476C110.416 114.925 110.546 115.375 110.68 115.82C109.453 116.762 109.332 117.829 110.546 118.801C112.654 120.487 112.395 122.647 111.959 124.885C109.198 125.858 107.802 128.239 106.151 130.403C101.904 135.969 103.152 144.555 108.809 148.625C109.513 149.135 109.854 150.151 110.364 150.928C106.627 169.328 102.889 187.727 99.1511 206.13C98.2739 207.171 97.3968 208.208 96.3079 209.5H103.07C102.802 208.368 102.582 207.422 102.362 206.476C102.543 206.087 102.751 205.707 102.897 205.309C106.752 194.938 110.598 184.568 114.465 174.202C114.694 173.584 115.113 173.039 115.442 172.46C115.645 183.673 115.848 194.887 116.055 206.095C115.99 207.206 115.925 208.321 115.856 209.561H119.745C121.344 209.444 122.943 209.328 124.546 209.211C125.877 209.336 127.208 209.565 128.539 209.565C150.338 209.587 172.134 209.557 193.934 209.617C195.999 209.621 196.807 209.025 196.669 206.921C196.522 204.7 196.539 202.457 196.669 200.236C196.773 198.361 196.016 197.609 194.193 197.605C190.74 197.596 187.292 197.514 183.84 197.462C183.922 190.427 183.974 183.393 184.103 176.358C184.133 174.858 183.766 173.96 182.323 173.13C178.784 171.091 175.69 168.463 173.581 164.855C173.936 164.505 174.281 164.147 174.649 163.81C181.856 157.194 184.846 148.945 184.181 139.266C183.857 134.565 182.046 130.382 179.795 126.342C181.247 125.071 182.867 123.939 184.116 122.492C186.398 119.847 188.463 117.017 190.615 114.264C191.903 114.303 193.186 114.338 194.474 114.377C194.629 114.994 194.711 115.643 194.953 116.226C196.051 118.892 197.192 121.545 198.32 124.198C200.333 126.609 202.347 129.016 204.365 131.427C204.529 131.574 204.693 131.717 204.853 131.864L204.844 131.855C206.568 133.018 208.297 134.184 210.021 135.347C209.792 137.598 209.494 139.849 209.356 142.105C209.222 144.304 209.247 146.517 209.204 148.725C208.081 154.355 207.091 160.016 205.791 165.607C204.715 170.244 204.676 174.712 205.851 179.37C207.813 187.156 209.356 195.046 211.071 202.898C210.635 205.633 209.295 207.807 206.581 209.332C212.328 210.162 212.441 210.045 214.839 206.493C215.898 204.924 215.902 203.771 214.355 202.669C213.914 193.612 213.327 184.559 213.132 175.502C213.076 172.871 214.156 170.213 214.787 167.227C215.297 167.789 215.444 167.876 215.465 167.988C215.552 168.407 215.621 168.835 215.651 169.263C215.889 172.758 216.922 175.878 218.905 178.881C223.628 186.015 228.035 193.357 232.573 200.612C232.776 203.248 232.214 205.694 230.779 207.928C230.732 207.954 230.676 207.966 230.637 208.001C230.615 208.018 230.624 208.07 230.619 208.105C230.663 208.036 230.706 207.966 230.749 207.897C234.724 207.616 236.129 206.398 237.149 202.794C237.667 200.971 237.421 199.769 235.489 199.212C232.231 191.006 228.939 182.809 225.741 174.578C225.231 173.268 224.924 171.812 224.859 170.408C224.561 163.797 224.38 157.177 224.155 150.561C224.475 149.304 224.929 148.064 225.093 146.785C225.62 142.71 226.043 138.618 226.506 134.534C227.932 135.36 229.362 136.181 230.788 137.006L230.814 137.036C230.935 137.149 231.06 137.265 231.181 137.378C231.618 139.08 232.322 140.765 232.417 142.485C232.529 144.594 232.093 146.728 231.981 148.854C231.959 149.282 232.322 149.731 232.508 150.168C232.322 151.473 232.132 152.774 231.942 154.104C234.336 154.234 234.906 153.508 235.152 150.492C235.45 149.982 235.969 149.49 236.012 148.962C236.332 145.112 236.721 141.262 236.773 137.404C236.829 133.169 234.902 129.941 230.978 128.118C228.519 126.977 226.009 125.957 223.52 124.881C222.937 124.505 222.353 124.129 221.766 123.758C221.783 121.709 221.403 119.549 221.938 117.652C222.384 116.088 222.345 115.284 220.945 114.601C220.932 114.065 220.919 113.53 220.906 112.998C223.619 111.373 226.333 109.749 229.042 108.124L229.038 108.098ZM257.363 194.009C257.475 195.772 257.587 197.535 257.7 199.298C257.868 202.695 258.037 206.091 258.201 209.405H270.836C271 206.938 271.151 204.618 271.307 202.302C271.432 200.409 271.553 198.516 271.678 196.624C271.756 194.913 271.829 193.201 271.907 191.49C271.981 189.745 272.05 187.999 272.123 186.253C272.257 184.551 272.387 182.848 272.521 181.146C272.564 179.4 272.607 177.654 272.65 175.909C272.854 173.739 273.052 171.566 273.26 169.336H255.919C256.053 170.758 256.17 172.033 256.291 173.312C256.39 175.049 256.485 176.79 256.585 178.527C256.658 180.238 256.732 181.949 256.801 183.66C256.909 185.402 257.017 187.143 257.125 188.885C257.203 190.596 257.285 192.303 257.363 194.014V194.009ZM268.913 154.925C268.848 154.381 268.813 153.901 268.727 153.43C268.165 150.375 266.424 148.206 264.609 148.28C262.729 148.357 261.13 150.877 261.018 153.996C260.979 155.124 261.009 156.252 261.009 157.358C259.558 155.578 258.413 153.798 256.883 152.454C256.135 151.797 254.441 151.482 253.595 151.883C252.756 152.281 252.048 153.754 251.974 154.804C251.711 158.525 253.374 161.614 255.759 164.345C256.861 165.607 258.257 166.467 259.955 165.901C261.666 165.331 261.831 163.719 261.908 162.163C261.913 162.077 262.068 161.999 261.843 162.215C263.481 162.941 264.955 163.593 267.046 164.522C268.161 166.251 269.907 166.8 271.838 165.136C275.174 162.263 276.902 158.551 276.561 154.083C276.388 151.814 274.543 150.79 272.56 151.909C271.285 152.627 270.257 153.785 268.913 154.921V154.925ZM62.4955 118.006C62.3443 117.159 62.2968 116.524 62.111 115.932C61.4887 113.983 61.3591 112.264 62.3745 110.207C63.9647 106.988 62.4005 102.675 59.4794 100.657C56.5281 98.622 52.7213 98.6479 49.7786 100.726C47.0175 102.675 45.7946 106.331 46.7625 109.749C47.6916 113.033 50.8157 115.716 54.4584 115.599C56.7053 115.526 58.4683 116.274 60.335 117.151C60.9659 117.449 61.6313 117.665 62.4999 118.002L62.4955 118.006ZM256.632 129.306C256.866 129.124 257.099 128.939 257.328 128.757C256.243 129.747 255.159 130.732 254.148 131.656C255.103 132.46 256.166 133.355 257.121 134.158C258.184 133.264 259.195 132.408 260.206 131.557C259.895 131.881 259.584 132.21 259.272 132.534C258.391 131.458 257.514 130.382 256.632 129.306ZM45.8206 118.944C45.1033 118.011 44.373 117.064 43.6298 116.096C42.7915 116.861 41.8625 117.712 41.3871 118.145C42.1822 119.173 42.9946 120.219 43.6471 121.066C44.5156 120.219 45.3841 119.367 45.8206 118.944Z" fill="#FFDAB9"/>
<path d="M231.099 50.8312C230.983 52.793 230.866 54.7504 230.749 56.7122C229.323 56.7122 227.893 56.7035 226.467 56.7035V53.2899C225.633 53.5664 225.002 53.7738 224.155 54.0547C224.816 55.0615 225.348 55.8825 225.884 56.6992C221.856 56.6646 217.834 56.5955 213.806 56.6041C199.996 56.643 186.182 56.7078 172.372 56.7856C171.667 56.7856 170.967 56.9887 170.267 57.0924C167.662 57.0362 165.056 56.9801 162.45 56.9282C160.878 56.8504 159.309 56.7122 157.736 56.7035C143.615 56.643 129.494 56.6084 115.368 56.5652C116.643 53.7738 117.814 50.9349 119.205 48.2083C122.567 41.6144 125.791 34.934 129.52 28.5518C133.296 22.0875 138.088 16.388 144.384 12.1058C154.128 5.47731 164.926 1.88651 176.563 0.421665C183.511 -0.45119 190.36 0.0241272 196.984 1.91243C208.565 5.2094 217.747 11.9459 224.38 22.1696C228.01 27.7654 229.803 34.005 231.466 40.2878C232.02 42.3705 231.544 44.7212 231.536 46.9509C227.716 44.9891 223.892 43.036 220.08 41.0613C218.875 40.439 217.747 39.6569 216.503 39.1341C216.032 38.9396 215.237 39.1297 214.796 39.4365C214.593 39.5791 214.787 40.4606 214.964 40.9489C215.228 41.6792 215.742 42.3273 215.958 43.0619C217.03 46.7694 218.032 50.4941 219.1 54.3529C221.334 53.6399 223.676 52.8923 226.329 52.0454C225.257 50.6929 224.44 49.6602 223.628 48.6274C224.635 48.8305 225.573 49.2281 226.13 49.9281C227.578 51.7386 229.137 52.1966 231.095 50.8182L231.099 50.8312ZM145.296 38.1273C146.281 37.9285 147.266 37.734 148.256 37.5353C151.808 37.6476 154.543 35.8587 155.74 32.6482C156.885 29.5802 156.016 26.2098 153.402 24.1918C152.534 23.5221 151.419 23.1764 150.416 22.6795C148.675 22.9042 146.938 23.1245 145.196 23.3492C141.761 25.1036 140.046 28.5475 141.398 32.0691C142.353 34.5624 143.187 36.913 141.947 40.1754C143.511 39.2205 144.406 38.6717 145.296 38.1273ZM184.242 47.478C184.242 47.478 184.242 47.504 184.242 47.5169C185.823 47.5169 187.405 47.5601 188.982 47.504C191.078 47.4305 192.27 46.199 192.3 44.1119C192.326 42.3144 192.296 40.5211 192.266 38.7236C192.214 35.513 191.069 34.355 187.776 34.3593C185.05 34.3636 182.323 34.4846 179.601 34.5926C177.311 34.6834 176.019 35.9149 175.945 38.231C175.885 40.1668 175.928 42.1156 176.088 44.0428C176.282 46.3848 177.362 47.3571 179.717 47.4608C181.221 47.5256 182.734 47.4737 184.242 47.4737V47.478Z" fill="#FFDAB9"/>
<path d="M170.271 57.0967C170.971 56.9887 171.676 56.7899 172.376 56.7899C186.186 56.7122 200 56.6473 213.81 56.6084C217.838 56.5955 221.861 56.6689 225.883 56.7035C226.078 56.7035 226.272 56.7035 226.467 56.7035C227.893 56.7035 229.323 56.7122 230.749 56.7122C232.106 56.8504 233.463 56.9887 235.407 57.1832C235.407 60.8258 235.433 64.5376 235.403 68.2451C235.347 75.3705 234.984 82.5046 235.26 89.6171C235.537 96.682 233.739 102.822 229.042 108.103C226.328 109.727 223.615 111.352 220.906 112.972C219.868 108.932 216.801 109.321 213.581 110.397C211.209 111.192 208.893 112.143 206.426 113.072C206.426 113.072 206.607 113.599 206.789 114.117C204.131 114.187 201.478 114.256 198.821 114.325C198.138 112.895 197.455 111.469 196.772 110.038C196.872 108.599 196.967 107.161 197.075 105.579C194.374 106.426 193.51 108.954 194.491 112.061C194.482 112.825 194.474 113.59 194.465 114.355C193.177 114.316 191.894 114.282 190.606 114.247C192.192 110.579 193.774 106.91 195.359 103.241C200.467 103.267 205.574 103.345 210.682 103.315C218.097 103.267 222.958 98.3499 222.98 90.9393C222.997 84.3886 222.984 77.8422 222.98 71.2914C222.98 70.6044 222.919 69.9216 222.876 69.0229H200.19C199.391 66.145 201.56 63.0684 199.642 59.7283C198.462 61.6857 197.36 63.1765 196.608 64.8271C191.077 76.9736 185.974 89.3362 179.925 101.219C177.95 105.104 176.571 109.153 174.735 113.042C173.879 114.852 173.162 116.727 172.38 118.573C170.552 117.579 168.785 116.46 166.892 115.613C160.095 112.566 153.112 112.631 146.052 114.601C147.357 111.763 148.761 108.967 149.945 106.08C152.006 101.059 153.877 95.9604 155.93 90.935C157.213 87.7979 157.723 84.2287 160.679 81.9515C160.981 81.7181 161.076 81.2126 161.245 80.8237C162.969 76.8267 164.771 72.8643 166.378 68.8198C167.29 66.521 167.86 64.0839 168.625 61.7246C169.131 60.169 169.714 58.635 170.263 57.0924L170.271 57.0967Z" fill="#0C2C7E"/>
<path d="M115.377 56.5693C129.498 56.6125 143.62 56.6471 157.745 56.7076C159.318 56.7162 160.887 56.8545 162.459 56.928C161.388 58.462 160.541 60.2552 159.188 61.4781C156.868 63.5781 153.891 65.017 151.808 67.2985C148.922 70.4572 145.123 71.7579 141.697 73.7672C141.04 73.0153 140.539 72.4492 139.929 71.7536C139.411 72.5443 139.009 73.1622 138.776 73.5165C139.432 74.0308 139.878 74.3764 140.521 74.8777C138.758 75.3011 137.51 75.5993 136.265 75.8974C134.589 74.4024 132.908 72.9116 131.408 71.5764C130.885 73.8493 128.876 75.4394 126.275 76.2129C127.398 76.9993 128.587 77.829 129.775 78.6586C129.434 78.7494 129.045 78.771 128.755 78.9481C124.628 81.4889 120.351 83.8352 118.026 88.4501C117.369 89.7551 116.332 90.8743 115.468 92.0755C114.565 84.4877 113.662 76.9043 112.741 69.1566H106.757C102.003 69.1696 97.2459 69.1782 92.4927 69.1912H90.397V84.2803C90.3754 86.6483 90.2328 89.0205 90.3668 91.3798C90.5439 94.4391 91.3649 97.3126 93.7372 99.4991C96.2521 102.545 99.7651 103.189 103.386 103.289C108.265 103.423 113.152 103.332 118.035 103.341C120.575 104.784 120.156 107.584 121.007 109.801C119.798 109.714 118.566 109.744 117.382 109.52C113.739 108.837 111.121 110.488 110.382 114.044C110.352 114.182 110.313 114.32 110.278 114.463C105.465 114.325 100.59 114.618 95.8545 113.94C88.7896 112.929 83.7642 108.625 80.2857 102.476C78.3629 98.6608 77.9221 94.5428 77.7925 90.3601C77.8011 83.0142 77.8141 75.6728 77.8227 68.3269V56.5693C90.6001 56.5693 102.989 56.5693 115.373 56.5693H115.377Z" fill="#0C2C7E"/>
<path d="M287.796 138.333C293.487 148.691 295.889 159.822 295.574 171.584C295.435 171.592 295.301 171.601 295.163 171.61C284.481 170.222 278.562 162.012 278.791 153.085C278.959 146.599 282.442 141.816 287.796 138.333Z" fill="#FFDAB9"/>
<path d="M183.827 197.445C187.279 197.497 190.727 197.579 194.18 197.587C196.003 197.587 196.76 198.348 196.656 200.219C196.531 202.44 196.513 204.687 196.656 206.904C196.794 209.008 195.986 209.604 193.921 209.6C172.121 209.539 150.325 209.57 128.526 209.548C127.195 209.548 125.864 209.315 124.533 209.194C123.077 208.459 121.621 207.725 120.164 206.986C119.875 206.696 119.581 206.407 119.292 206.113C119.698 203.252 120.108 200.392 120.514 197.531H129.64V188.53C132.116 188.31 134.592 188.085 137.246 187.848C137.453 189.792 137.63 191.49 137.812 193.188C137.103 194.48 136.399 195.777 135.556 197.315C136.468 197.406 137.008 197.505 137.548 197.505C145.637 197.514 153.726 197.523 161.819 197.51C169.157 197.497 176.489 197.462 183.827 197.436V197.445Z" fill="#0C2C7E"/>
<path d="M146.056 114.606C153.117 112.636 160.1 112.571 166.897 115.617C168.79 116.464 170.561 117.583 172.385 118.577C174.852 121.161 177.319 123.741 179.787 126.325C182.034 130.365 183.848 134.552 184.173 139.249C184.838 148.928 181.848 157.177 174.64 163.793C174.273 164.13 173.927 164.488 173.573 164.838C171.94 165.923 170.306 167.012 168.673 168.096L157.391 171.143C156.038 171.143 154.686 171.143 153.333 171.143C149.569 170.127 145.81 169.112 142.047 168.096C141.083 167.496 140.119 166.891 139.156 166.29C134.675 163.011 131.157 158.918 128.768 153.889C128.47 153.158 128.167 152.424 127.869 151.694C126.473 146.742 125.955 141.729 126.906 136.626C127.532 134.496 128.163 132.37 128.79 130.24C129.878 128.438 130.967 126.636 132.056 124.834C135.733 120.068 140.482 116.771 146.061 114.61L146.056 114.606ZM136.131 156.032C136.429 156.464 136.732 156.901 137.03 157.333C137.164 157.467 137.293 157.605 137.427 157.739C137.583 158.037 137.734 158.335 137.89 158.629C139.501 160.007 140.953 161.654 142.751 162.721C152.145 168.282 163.043 167.587 171.469 160.185C178.91 153.647 180.927 145.203 178.659 135.853C176.762 128.036 171.896 122.514 164.006 120.102C162.459 119.631 160.735 118.763 159.339 119.99C158.734 119.571 158.233 119.221 157.732 118.875C157.101 118.59 156.479 118.084 155.835 118.05C148.459 117.652 142.228 120.5 137.401 125.772C131.564 132.154 129.87 139.962 131.909 148.349C132.592 151.166 133.461 154.174 136.14 156.032H136.135H136.131Z" fill="#FCC31B"/>
<path d="M153.333 171.142C154.686 171.142 156.038 171.142 157.391 171.142C162.291 179.447 167.191 187.757 172.303 196.425C172.787 193.361 173.206 190.717 173.655 187.899C176.628 188.115 179.476 188.323 182.772 188.561C177.851 181.418 173.262 174.759 168.673 168.096C170.306 167.011 171.94 165.927 173.573 164.838C175.677 168.446 178.776 171.073 182.314 173.113C183.753 173.942 184.121 174.841 184.095 176.341C183.961 183.375 183.909 190.41 183.831 197.445C176.498 197.471 169.161 197.505 161.824 197.518C153.735 197.531 145.646 197.522 137.553 197.514C137.012 197.514 136.468 197.414 135.561 197.324C136.403 195.785 137.107 194.489 137.816 193.197C138.024 194.139 138.231 195.081 138.447 196.062C138.62 195.932 138.767 195.872 138.832 195.764C143.671 187.558 148.502 179.348 153.333 171.142Z" fill="#2254B5"/>
<path d="M211.066 202.876C209.347 195.029 207.808 187.135 205.847 179.348C204.671 174.686 204.71 170.218 205.786 165.586C207.082 159.994 208.076 154.333 209.2 148.703C214.078 150.168 218.974 151.52 224.155 150.544C224.38 157.159 224.557 163.779 224.859 170.391C224.924 171.795 225.231 173.251 225.741 174.56C228.943 182.792 232.231 190.985 235.489 199.195C234.517 199.661 233.545 200.128 232.577 200.59C228.04 193.335 223.628 185.994 218.909 178.86C216.922 175.857 215.889 172.737 215.655 169.241C215.625 168.813 215.556 168.386 215.47 167.966C215.448 167.854 215.301 167.768 214.791 167.206C214.16 170.192 213.08 172.849 213.136 175.481C213.331 184.542 213.918 193.595 214.359 202.647C213.266 202.725 212.168 202.803 211.075 202.876H211.066Z" fill="#FFA653"/>
<path d="M179.787 126.32C177.319 123.736 174.852 121.156 172.385 118.572C173.167 116.727 173.884 114.852 174.74 113.041C176.576 109.152 177.955 105.104 179.929 101.219C185.975 89.336 191.078 76.9734 196.613 64.8269C197.365 63.1762 198.467 61.6898 199.646 59.728C201.569 63.0639 199.396 66.1405 200.195 69.0183C200.346 80.6722 198.653 92.0669 195.364 103.237C193.778 106.905 192.197 110.574 190.611 114.243C188.455 116.995 186.394 119.83 184.112 122.47C182.863 123.917 181.243 125.045 179.791 126.32H179.787Z" fill="#2254B5"/>
<path d="M224.151 150.54C218.97 151.521 214.074 150.168 209.196 148.699C209.239 146.491 209.213 144.279 209.347 142.079C209.485 139.819 209.783 137.573 210.012 135.321C209.9 134.626 209.991 133.459 209.645 133.312C208.111 132.659 206.448 132.296 204.836 131.83L204.844 131.838C204.68 131.692 204.516 131.549 204.356 131.402C202.343 128.991 200.329 126.584 198.311 124.173C198.618 121.377 198.929 118.586 199.236 115.79C200.126 117.164 200.973 118.564 201.919 119.899C205.164 124.48 209.14 125.871 214.463 124.341C215.28 124.108 216.109 123.901 216.93 123.68C217.462 124.916 217.661 126.662 218.598 127.271C220.106 128.248 221.515 126.912 222.682 125.811C222.989 125.521 223.239 125.175 223.516 124.851C226.005 125.927 228.52 126.943 230.974 128.088C234.902 129.911 236.825 133.143 236.769 137.374C236.717 141.228 236.328 145.083 236.008 148.933C235.965 149.464 235.446 149.952 235.148 150.462C234.267 150.354 233.385 150.246 232.508 150.138C232.322 149.702 231.955 149.252 231.981 148.825C232.093 146.699 232.534 144.564 232.417 142.455C232.326 140.736 231.618 139.05 231.181 137.352C231.06 137.24 230.935 137.123 230.814 137.011L230.788 136.981C230.516 134.34 228.766 132.439 225.322 131.471C225.793 132.681 226.147 133.597 226.506 134.509C226.044 138.592 225.62 142.684 225.093 146.759C224.929 148.038 224.475 149.278 224.155 150.536L224.151 150.54Z" fill="#73B6FF"/>
<path d="M128.785 130.235C128.158 132.366 127.527 134.492 126.901 136.622C126.188 136.272 125.475 135.926 124.546 135.468C124.978 140.437 125.371 144.992 125.764 149.542C124.848 149.386 123.928 149.231 122.856 149.049C122.778 150.108 122.722 150.864 122.662 151.62C122.316 152.454 122.39 153.634 121.02 153.634C120.614 153.543 120.207 153.461 119.806 153.357C116.655 152.545 113.501 151.728 110.351 150.912C109.841 150.13 109.5 149.114 108.795 148.609C103.139 144.538 101.89 135.956 106.138 130.387C107.793 128.222 109.184 125.841 111.946 124.869C112.62 126.58 113.912 127.552 115.705 127.271C117.403 127.008 117.265 125.521 117.131 124.208C119.201 124.856 121.409 125.245 123.306 126.23C125.289 127.263 126.97 128.874 128.78 130.231L128.785 130.235Z" fill="#FFA653"/>
<path d="M110.356 150.915C113.506 151.732 116.656 152.549 119.81 153.361C120.212 153.465 120.618 153.547 121.024 153.638C120.463 155.569 119.918 157.505 119.339 159.437C118.047 163.775 116.738 168.109 115.437 172.443C115.109 173.022 114.69 173.571 114.461 174.184C110.593 184.551 106.748 194.921 102.893 205.292C102.746 205.694 102.535 206.069 102.357 206.458C101.515 206.381 100.672 206.303 99.8253 206.229C99.5963 206.191 99.3716 206.152 99.1426 206.113C102.88 187.714 106.618 169.315 110.356 150.911V150.915Z" fill="#0C2C7E"/>
<path d="M115.437 172.443C116.738 168.109 118.047 163.775 119.339 159.436C119.914 157.509 120.462 155.573 121.024 153.638C122.394 153.638 122.316 152.458 122.666 151.624C123.72 152.233 124.775 152.843 125.825 153.452C124.965 160.443 124.092 167.43 123.254 174.422C122.325 182.122 121.43 189.831 120.519 197.535C120.112 200.396 119.702 203.256 119.296 206.117C118.215 206.104 117.135 206.091 116.055 206.078C115.852 194.865 115.649 183.652 115.441 172.443H115.437Z" fill="#0C2C7E"/>
<path d="M23.7871 143.505C24.5865 136.976 26.2415 130.663 28.5446 124.51C34.7453 127.954 35.4842 134.604 32.3947 139.201C30.3724 142.209 27.5292 143.812 23.7871 143.501V143.505Z" fill="#FFDAB9"/>
<path d="M110.278 114.463C110.312 114.325 110.351 114.186 110.382 114.044C111.125 110.492 113.739 108.837 117.382 109.52C118.566 109.74 119.797 109.714 121.007 109.8C122.394 109.718 123.785 109.632 125.903 109.507C124.87 111.395 124.027 112.938 123.189 114.48C122.174 115.12 121.158 115.755 120.143 116.394C119.171 116.373 118.19 116.438 117.23 116.317C115.053 116.04 112.966 114.666 110.68 115.811C110.546 115.362 110.416 114.912 110.282 114.467L110.278 114.463Z" fill="#382752"/>
<path d="M67.8496 93.3846C71.1639 92.3778 74.4781 91.3667 77.7924 90.3599C77.922 94.5427 78.3584 98.6606 80.2856 102.476C74.7806 101.305 70.4077 98.5872 67.8496 93.3846Z" fill="#FFDAB9"/>
<path d="M110.675 115.807C112.966 114.662 115.048 116.036 117.226 116.312C118.185 116.433 119.166 116.369 120.138 116.39C120.329 118.883 119.758 121.001 117.472 122.457C117.127 122.677 117.235 123.606 117.135 124.207C117.269 125.521 117.403 127.003 115.709 127.271C113.916 127.551 112.624 126.579 111.95 124.868C112.391 122.63 112.646 120.469 110.537 118.784C109.323 117.812 109.444 116.744 110.671 115.802L110.675 115.807Z" fill="#F3C0A0"/>
<path d="M206.789 114.117C206.607 113.595 206.426 113.072 206.421 113.067C208.884 112.138 211.205 111.188 213.577 110.393C216.796 109.317 219.864 108.928 220.901 112.968C220.914 113.504 220.927 114.04 220.94 114.575C218.758 114.169 217.41 115.798 215.742 116.667C214.865 117.125 213.88 117.38 212.946 117.73C210.215 117.682 208.47 115.954 206.789 114.117Z" fill="#26193B"/>
<path d="M212.942 117.725C213.88 117.38 214.861 117.121 215.742 116.662C217.415 115.794 218.763 114.169 220.941 114.571C222.341 115.258 222.38 116.058 221.934 117.622C221.399 119.523 221.775 121.679 221.757 123.727C221.023 124.656 220.439 126.147 219.523 126.394C218.011 126.795 217.747 125.158 217.415 123.991C217.376 123.853 217.35 123.71 217.32 123.572C217.013 123.261 216.758 122.824 216.386 122.66C214.217 121.705 212.981 120.141 212.938 117.721L212.942 117.725Z" fill="#F3C0A0"/>
<path d="M199.235 115.794C198.929 118.59 198.617 121.381 198.311 124.177C197.183 121.52 196.042 118.871 194.944 116.205C194.702 115.621 194.62 114.973 194.465 114.355C194.473 113.59 194.482 112.826 194.491 112.061C195.251 111.387 196.012 110.713 196.768 110.039C197.451 111.469 198.133 112.895 198.816 114.325C198.954 114.818 199.097 115.306 199.235 115.799V115.794Z" fill="#73B6FF"/>
<path d="M211.067 202.876C212.16 202.798 213.258 202.725 214.351 202.647C215.898 203.749 215.893 204.903 214.835 206.471C212.437 210.023 212.324 210.14 206.577 209.31C209.291 207.785 210.626 205.611 211.067 202.876Z" fill="#0C2C7E"/>
<path d="M232.572 200.591C233.545 200.124 234.517 199.657 235.485 199.195C237.416 199.752 237.663 200.953 237.144 202.777C236.12 206.376 234.72 207.595 230.745 207.88L230.775 207.91C232.214 205.676 232.771 203.231 232.568 200.595L232.572 200.591Z" fill="#0C2C7E"/>
<path d="M256.632 129.306C257.514 130.382 258.391 131.458 259.272 132.534C259.583 132.21 259.894 131.881 260.206 131.557C259.194 132.409 258.179 133.264 257.12 134.159C256.165 133.355 255.102 132.46 254.147 131.657C255.159 130.736 256.243 129.747 257.328 128.757C257.094 128.939 256.861 129.125 256.632 129.306Z" fill="#FFDAB9"/>
<path d="M45.8206 118.944C45.3842 119.368 44.5157 120.219 43.6471 121.066C42.9946 120.223 42.1866 119.173 41.3872 118.145C41.8625 117.713 42.7916 116.862 43.6298 116.097C44.3731 117.06 45.1033 118.011 45.8206 118.944Z" fill="#FFDAB9"/>
<path d="M116.051 206.078C117.131 206.091 118.211 206.104 119.292 206.117C119.581 206.407 119.875 206.696 120.164 206.99C120.022 207.841 119.879 208.692 119.737 209.544H115.848C115.917 208.303 115.982 207.193 116.046 206.078H116.051Z" fill="#FFA653"/>
<path d="M226.501 134.513C226.147 133.597 225.788 132.685 225.317 131.475C228.761 132.443 230.511 134.344 230.784 136.984C229.358 136.159 227.927 135.338 226.501 134.513Z" fill="#2254B5"/>
<path d="M232.507 150.142C233.389 150.25 234.266 150.358 235.148 150.466C234.906 153.482 234.335 154.208 231.937 154.079C232.127 152.748 232.317 151.443 232.503 150.142H232.507Z" fill="#F3C0A0"/>
<path d="M217.328 123.576C217.358 123.714 217.384 123.857 217.423 123.995C217.751 125.162 218.019 126.8 219.532 126.398C220.448 126.152 221.031 124.661 221.766 123.732C222.349 124.108 222.932 124.484 223.52 124.855C223.243 125.175 222.993 125.525 222.686 125.81C221.524 126.908 220.111 128.247 218.602 127.271C217.665 126.661 217.466 124.916 216.935 123.68C217.06 123.624 217.194 123.589 217.328 123.576Z" fill="#2254B5"/>
<path d="M99.8252 206.229C100.668 206.307 101.51 206.381 102.357 206.458C102.578 207.405 102.802 208.351 103.066 209.488C101.83 209.488 100.854 209.488 99.877 209.488C99.8598 208.403 99.8425 207.318 99.8252 206.229Z" fill="#FFA653"/>
<path d="M119.741 209.544C119.884 208.693 120.026 207.841 120.169 206.99C121.625 207.725 123.081 208.459 124.538 209.198C122.939 209.315 121.34 209.432 119.737 209.548L119.741 209.544Z" fill="#FFA653"/>
<path d="M204.835 131.834C206.452 132.301 208.111 132.664 209.645 133.316C209.99 133.463 209.9 134.63 210.012 135.325C208.288 134.163 206.56 132.996 204.835 131.834Z" fill="#2254B5"/>
<path d="M99.8253 206.23C99.8426 207.314 99.8599 208.399 99.8772 209.488C98.8444 209.488 97.8117 209.488 96.2993 209.488C97.3882 208.196 98.2654 207.159 99.1426 206.117C99.3673 206.156 99.5963 206.195 99.8253 206.23Z" fill="#FFA653"/>
<path d="M230.814 137.015C230.939 137.127 231.06 137.244 231.181 137.357C231.056 137.244 230.935 137.127 230.814 137.015Z" fill="#47BCA8"/>
<path d="M204.356 131.406C204.52 131.553 204.684 131.696 204.844 131.843C204.68 131.696 204.516 131.553 204.356 131.406Z" fill="#47BCA8"/>
<path d="M230.745 207.875C230.702 207.945 230.659 208.014 230.615 208.083C230.62 208.049 230.615 207.997 230.633 207.979C230.672 207.945 230.728 207.927 230.776 207.906L230.745 207.875Z" fill="#4CE6CC"/>
<path d="M123.189 114.481C124.032 112.938 124.874 111.4 125.903 109.507C123.785 109.632 122.394 109.719 121.007 109.801C120.16 107.58 120.575 104.78 118.034 103.341C117.178 99.5858 116.323 95.8351 115.467 92.0801C116.331 90.8746 117.364 89.7597 118.025 88.4548C120.35 83.8399 124.628 81.4935 128.755 78.9528C129.044 78.7756 129.433 78.7583 129.774 78.6632C130.453 79.7521 131.135 80.8454 131.81 81.93C132.566 79.1299 134.493 77.22 137.673 76.3774C137.051 76.17 136.658 76.036 136.26 75.9021C137.505 75.6039 138.753 75.3058 140.516 74.8823C139.873 74.3811 139.428 74.0311 138.771 73.5212C139.004 73.1669 139.406 72.5489 139.925 71.7582C140.534 72.4539 141.031 73.0199 141.692 73.7718C145.118 71.7668 148.917 70.4662 151.803 67.3032C153.886 65.0216 156.863 63.5871 159.183 61.4827C160.536 60.2555 161.383 58.4666 162.455 56.9326C165.06 56.9888 167.666 57.045 170.271 57.0968C169.723 58.6394 169.139 60.1734 168.634 61.729C167.869 64.0883 167.298 66.5254 166.387 68.8242C164.779 72.8687 162.977 76.8311 161.253 80.8281C161.085 81.217 160.985 81.7226 160.687 81.9559C157.732 84.2331 157.217 87.798 155.938 90.9394C153.886 95.9648 152.011 101.064 149.954 106.085C148.77 108.971 147.365 111.767 146.06 114.606C140.482 116.766 135.733 120.063 132.06 124.829C131.524 124.363 130.902 123.965 130.457 123.425C128.011 120.465 125.613 117.466 123.198 114.485L123.189 114.481ZM140.041 78.6632C139.155 79.4799 138.192 80.3701 137.289 81.2084C138.066 81.8392 139.091 82.6689 140.05 83.4467C141.065 82.6084 142.029 81.809 142.794 81.1781C141.917 80.3787 140.996 79.5361 140.045 78.6676L140.041 78.6632Z" fill="#2254B5"/>
<path d="M195.359 103.237C198.648 92.0666 200.342 80.672 200.19 69.0181C207.666 69.0181 215.141 69.0181 222.876 69.0181C222.919 69.9125 222.98 70.5996 222.98 71.2866C222.988 77.8374 222.997 84.3838 222.98 90.9345C222.958 98.3451 218.097 103.262 210.682 103.31C205.574 103.345 200.467 103.267 195.359 103.237Z" fill="#FFDAB9"/>
<path d="M217.328 123.576C217.19 123.589 217.06 123.624 216.935 123.68C216.114 123.9 215.284 124.108 214.467 124.341C209.144 125.871 205.164 124.48 201.923 119.899C200.977 118.564 200.13 117.16 199.24 115.79C199.102 115.297 198.963 114.805 198.821 114.316C201.474 114.247 204.131 114.178 206.789 114.113C208.474 115.95 210.22 117.678 212.946 117.726C212.99 120.145 214.225 121.71 216.395 122.665C216.766 122.829 217.021 123.265 217.328 123.576Z" fill="#FFDAB9"/>
<path d="M196.773 110.034C196.012 110.708 195.252 111.382 194.495 112.056C193.515 108.949 194.374 106.426 197.079 105.575C196.971 107.156 196.872 108.595 196.777 110.034H196.773Z" fill="#F3C0A0"/>
<path d="M115.467 92.08C116.323 95.8351 117.178 99.5857 118.034 103.341C113.151 103.336 108.264 103.423 103.386 103.289C99.7645 103.19 96.2515 102.546 93.7367 99.4993C101.817 93.2813 102.729 82.8762 99.3843 78.136C96.3855 80.1885 93.391 82.2367 90.3965 84.2849L101.5 76.5C102.239 76.5 100.322 77.5 101 77.5C103.489 80.0624 100.234 77.806 100 77.5C102.065 74.9419 104.544 71.9007 106.756 69.1611H112.741C113.661 76.9088 114.564 84.4923 115.467 92.08Z" fill="#FFDAB9"/>
<path d="M90.3965 84.2851C93.391 82.2369 96.3855 80.1887 99.3843 78.1362C102.729 82.8764 101.817 93.2859 93.7367 99.4996C91.3644 97.3131 90.5434 94.4439 90.3663 91.3803C90.2323 89.021 90.3749 86.6487 90.3965 84.2808V84.2851Z" fill="#FFDAB9"/>
<path d="M136.26 75.9021C136.658 76.0361 137.051 76.17 137.673 76.3774C134.489 77.22 132.566 79.1343 131.81 81.93C131.131 80.8454 130.453 79.7522 129.774 78.6633C128.586 77.8336 127.398 77.004 126.274 76.2176C128.876 75.4441 130.885 73.8539 131.408 71.5811C132.907 72.9163 134.584 74.407 136.265 75.9021H136.26Z" fill="#EFF6FF"/>
<path d="M120.519 197.536C121.431 189.831 122.33 182.127 123.254 174.422C124.097 167.431 124.97 160.439 125.825 153.452C126.806 153.599 127.787 153.742 128.768 153.889C131.157 158.918 134.675 163.01 139.156 166.29C137.038 169.544 134.243 171.99 130.721 173.662C130.207 173.904 129.71 174.79 129.697 175.386C129.619 178.817 129.693 182.252 129.714 185.683C129.239 186.534 128.759 187.385 128.219 188.358C128.811 188.431 129.226 188.483 129.645 188.535V197.536H120.519Z" fill="#FFDAB9"/>
<path d="M129.641 188.535C129.222 188.483 128.807 188.431 128.215 188.358C128.759 187.39 129.235 186.534 129.71 185.683C133.819 179.819 137.933 173.955 142.042 168.092C145.806 169.107 149.565 170.123 153.329 171.138C148.498 179.348 143.667 187.554 138.827 195.76C138.763 195.868 138.616 195.928 138.443 196.058C138.227 195.077 138.019 194.135 137.812 193.193C137.63 191.495 137.453 189.796 137.246 187.852C134.593 188.09 132.117 188.31 129.641 188.535Z" fill="#FCD51A"/>
<path d="M157.736 118.879C158.237 119.229 158.739 119.575 159.344 119.994C160.739 118.763 162.459 119.631 164.01 120.107C171.901 122.518 176.766 128.04 178.663 135.857C180.936 145.208 178.918 153.651 171.473 160.189C163.047 167.591 152.145 168.286 142.755 162.725C140.958 161.662 139.506 160.012 137.89 158.633C137.734 158.335 137.583 158.037 137.427 157.743C137.293 157.609 137.164 157.471 137.03 157.337C136.731 156.905 136.433 156.468 136.131 156.036L136.135 156.041C135.772 155.185 135.418 154.325 135.051 153.474C132.868 148.41 132.052 143.19 133.378 137.762C136.148 126.402 145.832 118.91 157.732 118.879H157.736ZM154.794 127.063C153.575 129.501 152.413 131.566 151.497 133.735C150.598 135.865 149.276 136.989 146.86 137.114C144.535 137.235 142.237 137.801 139.532 138.233C141.904 140.692 144.043 142.792 146.022 145.039C146.536 145.622 146.8 146.698 146.705 147.493C146.359 150.38 145.81 153.24 145.296 156.391C148.113 154.913 150.684 153.625 153.186 152.225C154.314 151.594 155.221 151.594 156.366 152.234C158.855 153.616 161.444 154.831 164.334 156.287C163.911 153.357 163.695 150.786 163.129 148.293C162.705 146.422 163.176 145.229 164.615 144.011C166.646 142.291 168.457 140.308 170.665 138.138C167.096 137.572 164.127 137.17 161.189 136.591C160.484 136.453 159.655 135.878 159.292 135.261C157.758 132.668 156.379 129.985 154.794 127.059V127.063Z" fill="#FED618"/>
<path d="M168.669 168.092C173.257 174.755 177.851 181.414 182.768 188.556C179.471 188.319 176.624 188.111 173.651 187.895C173.206 190.713 172.787 193.361 172.298 196.421C167.186 187.753 162.286 179.448 157.386 171.138C161.146 170.123 164.905 169.107 168.669 168.092Z" fill="#FCD51A"/>
<path d="M123.189 114.48C125.605 117.466 128.007 120.461 130.448 123.421C130.894 123.961 131.516 124.358 132.052 124.825C130.963 126.631 129.874 128.433 128.785 130.235C126.974 128.878 125.293 127.266 123.31 126.234C121.417 125.249 119.209 124.86 117.135 124.211C117.235 123.611 117.127 122.678 117.472 122.461C119.758 121.005 120.329 118.888 120.138 116.395C121.154 115.76 122.169 115.12 123.185 114.485L123.189 114.48Z" fill="#FFDAB9"/>
<path d="M142.047 168.096C137.937 173.96 133.824 179.824 129.714 185.687C129.693 182.252 129.619 178.821 129.697 175.39C129.71 174.794 130.207 173.912 130.721 173.666C134.243 171.994 137.038 169.548 139.156 166.294C140.119 166.895 141.083 167.5 142.047 168.101V168.096Z" fill="#0C2C7E"/>
<path d="M157.736 118.879C145.836 118.91 136.157 126.402 133.383 137.763C132.061 143.19 132.873 148.41 135.055 153.474C135.422 154.325 135.777 155.185 136.14 156.041C133.465 154.183 132.596 151.171 131.909 148.358C129.87 139.971 131.568 132.158 137.401 125.78C142.228 120.504 148.459 117.657 155.835 118.058C156.479 118.093 157.101 118.599 157.732 118.884L157.736 118.879Z" fill="#E7B82B"/>
<path d="M125.769 149.546C125.376 144.996 124.983 140.441 124.551 135.472C125.48 135.926 126.193 136.276 126.906 136.626C125.955 141.729 126.474 146.737 127.869 151.693C125.895 152.229 126.482 150.255 125.769 149.55V149.546Z" fill="#FFDAB9"/>
<path d="M125.769 149.546C126.482 150.25 125.894 152.225 127.869 151.689C128.167 152.419 128.47 153.154 128.768 153.884C127.787 153.737 126.806 153.595 125.825 153.448C124.771 152.838 123.721 152.229 122.667 151.62C122.723 150.864 122.779 150.107 122.857 149.049C123.933 149.23 124.849 149.386 125.765 149.541L125.769 149.546Z" fill="#F3C0A0"/>
<path d="M136.131 156.032C136.429 156.464 136.727 156.9 137.03 157.332C136.731 156.9 136.433 156.464 136.131 156.032Z" fill="#E7B82B"/>
<path d="M137.427 157.743C137.583 158.041 137.734 158.335 137.89 158.633C137.734 158.335 137.583 158.037 137.427 157.743Z" fill="#E7B82B"/>
<path d="M140.041 78.663C140.992 79.5315 141.913 80.3742 142.79 81.1736C142.025 81.8044 141.061 82.6038 140.046 83.4421C139.091 82.6686 138.067 81.839 137.285 81.2038C138.192 80.3655 139.156 79.4754 140.037 78.6587L140.041 78.663Z" fill="#EFF6FF"/>
<path d="M191.605 37.911C188.601 40.698 185.892 43.2734 183.092 45.7451C182.742 46.0562 181.705 46.0778 181.333 45.7883C180.154 44.8679 179.138 43.7358 178.08 42.703C178.794 41.6746 180.207 42.0117 182.319 43.7142C184.639 41.2166 186.981 38.6931 189.396 36.0918C190.144 36.7097 190.563 37.0511 191.605 37.911Z" fill="#F7F7FD"/>
<path d="M154.794 127.063C156.38 129.993 157.758 132.672 159.292 135.265C159.655 135.878 160.485 136.457 161.189 136.596C164.127 137.175 167.096 137.577 170.665 138.143C168.457 140.312 166.646 142.295 164.616 144.015C163.177 145.234 162.701 146.426 163.129 148.297C163.695 150.79 163.911 153.357 164.335 156.291C161.44 154.835 158.856 153.621 156.367 152.238C155.217 151.603 154.31 151.598 153.186 152.229C150.684 153.634 148.118 154.917 145.296 156.395C145.815 153.245 146.359 150.384 146.705 147.498C146.8 146.703 146.532 145.627 146.022 145.043C144.047 142.796 141.904 140.692 139.532 138.238C142.237 137.806 144.536 137.24 146.86 137.119C149.276 136.993 150.598 135.87 151.497 133.74C152.413 131.57 153.575 129.501 154.794 127.068V127.063Z" fill="#FEFDFA"/>
<rect x="250" y="145" width="30" height="21" fill="#FFDAB9"/>
<rect x="252" y="167" width="27" height="43" fill="#FFDAB9"/>
<rect x="139" y="21" width="21" height="22" fill="#FFDAB9"/>
<path d="M53.56 98L65 102.154V125L39 107.865L46.28 102.154L53.56 98Z" fill="#FFDAB9"/>
<rect x="171" y="31" width="27" height="21" fill="#FFDAB9"/>
<path d="M212 37.2085H228L231.5 46.7085L231 56.7085H226H221.5L212 55.2085V37.2085Z" fill="#FFDAB9"/>
</svg>
