<svg width="242" height="236" viewBox="0 0 242 236" fill="none" xmlns="http://www.w3.org/2000/svg">
<path d="M219.8 186.556C219.24 189.284 217.435 190.911 215.003 191.982C205.871 191.982 196.744 191.982 187.027 191.982C190.383 193.858 191.415 196.299 191.373 199.431C191.297 204.621 191.382 209.81 191.399 215C190.387 215.839 189.468 216.838 188.346 217.491C178.524 223.221 168.385 228.267 157.377 231.361C144.405 235.012 131.159 236.682 117.732 235.75C99.2124 234.464 81.7043 229.502 65.6506 219.924C64.5124 219.245 63.3952 218.533 62.2654 217.837C63.176 217.812 64.0908 217.761 65.0014 217.761C84.8029 217.757 104.609 217.761 124.41 217.74C125.198 217.74 126.442 218.229 126.421 216.686C126.4 215.147 125.156 215.666 124.376 215.666C102.678 215.649 80.9792 215.662 59.2806 215.666C55.1112 212.479 50.7732 209.486 46.823 206.046C43.1258 202.829 39.8206 199.166 36.3974 195.645C35.9168 195.152 35.7398 194.36 35.4236 193.706C36.6546 193.12 37.8856 192.534 39.1166 191.952C39.9598 191.973 40.8029 192.011 41.6418 192.011C69.8116 192.007 97.9814 191.994 126.151 191.99C145.329 191.99 164.506 191.99 183.688 191.99C188.869 191.99 191.348 189.516 191.356 184.402C191.365 178.921 191.382 173.445 191.39 167.965C200.812 167.973 210.235 167.977 219.657 167.986C219.703 174.179 219.75 180.372 219.796 186.569L219.8 186.556ZM143.491 225.32C147.926 225.847 152.327 221.088 152.087 216.842C151.783 211.53 148.878 208.436 143.604 208.179C138.567 207.934 134.827 211.969 134.869 216.964C134.911 221.821 138.503 225.32 143.491 225.32ZM177.47 216.998C177.773 211.825 174.055 208.352 169.11 208.141C164.565 207.947 160.51 212.319 160.472 216.674C160.434 221.307 164.603 225.51 169.11 225.358C173.878 225.198 177.461 221.766 177.47 216.998Z" fill="#2254B5"/>
<path d="M60.3345 21.2686C67.261 17.6178 74.0611 13.6971 81.1436 10.3835C90.3255 6.08766 100.22 4.01351 110.22 2.85417C116.868 2.08268 123.639 1.67375 130.308 1.99837C140.978 2.51691 151.454 4.46459 161.665 7.85829C175.176 12.3481 187.423 19.0512 198.346 28.1066C203.009 31.9725 207.241 36.3527 211.643 40.5305C212.018 40.8846 212.178 41.4664 212.439 41.9386C204.177 41.9596 195.918 41.9807 187.655 42.006C187.094 41.9807 186.534 41.9301 185.973 41.9301C148.33 41.9301 110.688 41.9301 73.0451 41.9386C68.8082 35.05 64.5672 28.1614 60.3303 21.2729L60.3345 21.2686Z" fill="#FFC997"/>
<path d="M60.3345 21.2686C64.5713 28.1572 68.8124 35.0458 73.0492 41.9343C74.6723 44.6282 76.3165 47.3137 77.9058 50.0286C78.8206 51.5927 79.8999 53.1272 80.4521 54.8219C81.759 58.8354 80.7304 62.5368 78.3738 65.9305C77.5686 66.6472 76.7633 67.3639 75.9581 68.0805C73.454 69.6657 70.7264 70.2179 67.7669 70.2053C56.5487 70.1589 45.3264 70.2222 34.1082 70.2432C28.7753 70.2432 23.4381 70.2432 18.1051 70.2432C16.2123 70.2179 14.3152 70.1926 12.4223 70.1716C7.61631 70.121 3.87693 68.1649 1.52031 63.9069C-0.768849 59.7713 -0.376782 55.6862 2.0515 51.7402C11.381 36.5592 20.6852 21.3656 30.0779 6.22257C34.222 -0.459421 42.3627 -2.00239 47.9949 2.77829C49.3018 3.88704 50.3558 5.36677 51.2959 6.82543C54.3692 11.6019 57.3329 16.4458 60.3387 21.2602L60.3345 21.2686ZM44.6561 29.9321C44.6561 26.1463 44.6729 22.3647 44.6518 18.579C44.635 15.7966 43.0288 14.0217 40.5625 14.0133C38.0668 14.0007 36.3636 15.708 36.3468 18.4989C36.2962 26.0662 36.2962 33.6377 36.3468 41.205C36.3636 43.9537 38.1511 45.7454 40.5836 45.7075C43.0035 45.6737 44.635 43.8441 44.6518 41.0743C44.6729 37.3602 44.6561 33.6461 44.6561 29.9321ZM45.0692 54.1643C45.1114 51.58 43.2227 49.5944 40.6595 49.5269C38.0457 49.4553 35.9041 51.5126 35.9126 54.0884C35.9168 56.5251 38.0289 58.6457 40.474 58.6709C42.9571 58.6962 45.0313 56.66 45.0734 54.1643H45.0692Z" fill="#A12121"/>
<path d="M18.1011 70.2473C23.434 70.2473 28.7712 70.2473 34.1042 70.2473C34.1042 75.0786 34.1042 79.9056 34.1084 84.7369C34.1084 89.0539 35.2045 90.639 39.1462 92.0344C35.8411 92.7975 34.0704 94.8885 34.062 98.2063C34.0451 104.003 34.0789 109.804 34.0915 115.601C34.0915 116.52 34.0915 117.434 34.0915 118.353C34.0789 124.15 34.0409 129.947 34.062 135.748C34.0704 139.057 35.8411 141.148 39.1462 141.92C35.2045 143.307 34.1126 144.896 34.1084 149.234C34.1084 154.773 34.0999 160.313 34.0957 165.848C34.0957 166.569 34.0957 167.29 34.0999 168.007C34.0999 173.319 34.3149 178.647 34.0367 183.947C33.8217 188.023 35.2255 190.671 39.1083 191.952C37.8773 192.538 36.6463 193.124 35.4153 193.706C34.3318 192.673 33.0038 191.801 32.2113 190.582C27.9871 184.065 23.4425 177.699 19.8802 170.831C14.9351 161.308 11.6172 151.11 9.65692 140.503C8.26993 132.991 7.38462 125.432 7.59541 117.801C7.89894 106.743 9.15102 95.7864 12.6332 85.2175C14.2943 80.1754 16.2672 75.2346 18.1011 70.2473Z" fill="#FFC997"/>
<path d="M219.8 186.556C219.754 180.363 219.708 174.17 219.661 167.977C219.657 167.278 219.653 166.574 219.649 165.874C219.657 160.279 219.674 154.685 219.678 149.091C219.678 144.951 218.51 143.277 214.699 141.92C218.822 140.229 219.716 138.914 219.72 134.513C219.724 129.74 219.72 124.968 219.72 120.2C219.72 118.687 219.72 117.173 219.72 115.66C219.72 110.188 219.72 104.716 219.72 99.2477C219.716 95.0994 218.662 93.5522 214.927 92.1483C218.645 90.5927 219.948 87.8103 219.75 83.8222C219.493 78.582 219.67 73.3249 219.661 68.0721C219.716 67.9667 219.741 67.8571 219.745 67.739C219.762 67.25 219.775 66.7652 219.792 66.2762C219.771 66.1623 219.729 66.0569 219.67 65.9642C219.695 60.8968 219.716 55.8337 219.741 50.7664C225.909 58.595 230.213 67.4524 233.915 76.6217C237.224 84.8171 239.496 93.3456 240.571 102.085C241.474 109.412 242.131 116.865 241.832 124.222C241.25 138.332 238.35 152.075 232.245 164.913C229.041 171.649 225.201 178.083 221.592 184.621C221.179 185.367 220.412 185.92 219.809 186.565L219.8 186.556Z" fill="#FFC997"/>
<path d="M219.737 50.7662C219.712 55.8336 219.691 60.8967 219.665 65.9641C210.239 65.9725 200.817 65.9809 191.39 65.9894C191.378 61.664 191.255 57.3344 191.386 53.009C191.508 48.8902 191.58 44.8937 187.659 42.2124C187.626 42.1914 187.659 42.0775 187.659 42.0101C195.922 41.989 204.181 41.9679 212.444 41.9426C215.551 42.0902 218.346 42.887 219.362 46.2258C219.792 47.6466 219.632 49.2486 219.737 50.7704V50.7662Z" fill="#2254B5"/>
<path d="M191.394 215C191.378 209.81 191.293 204.621 191.369 199.431C191.416 196.299 190.383 193.858 187.023 191.982C196.74 191.982 205.871 191.982 214.999 191.982C214.931 192.564 215.074 193.318 214.762 193.698C207.971 201.885 200.298 209.123 191.394 215Z" fill="#0C2C7E"/>
<path d="M59.2806 215.666C80.9791 215.658 102.678 215.645 124.376 215.666C125.156 215.666 126.4 215.148 126.421 216.686C126.442 218.234 125.198 217.74 124.41 217.74C104.609 217.766 84.8028 217.757 65.0014 217.761C64.0908 217.761 63.1802 217.812 62.2653 217.837C61.2704 217.112 60.2713 216.387 59.2764 215.666H59.2806Z" fill="#73B6FF"/>
<path d="M39.1124 191.948C35.2297 190.667 33.8258 188.019 34.0408 183.943C34.3191 178.643 34.1041 173.319 34.1041 168.003C63.88 167.994 93.656 167.994 123.432 167.935C124.431 167.935 126.252 168.774 126.328 167.02C126.421 164.866 124.41 165.929 123.428 165.929C93.6518 165.853 63.8758 165.853 34.0998 165.844C34.0998 160.305 34.1083 154.765 34.1125 149.23C34.1125 144.896 35.2086 143.307 39.1503 141.916C49.7361 142.025 60.3177 142.215 70.9035 142.232C101.51 142.274 132.121 142.249 162.727 142.244C170.729 142.244 178.734 142.219 186.736 142.202C189.999 143.421 191.344 145.33 191.352 148.85C191.369 154.525 191.361 160.204 191.365 165.878L191.356 165.865C189.413 165.874 187.465 165.823 185.53 165.929C185.088 165.954 184.67 166.519 184.244 166.835C184.683 167.21 185.1 167.88 185.56 167.91C187.495 168.036 189.442 167.969 191.386 167.973L191.394 167.956C191.382 173.437 191.369 178.913 191.361 184.394C191.352 189.507 188.869 191.982 183.692 191.982C164.515 191.99 145.337 191.982 126.155 191.982C97.9856 191.986 69.8158 191.999 41.6461 192.003C40.8029 192.003 39.9598 191.965 39.1208 191.944L39.1124 191.948ZM134.865 166.982C134.882 171.839 138.571 175.57 143.351 175.553C148.12 175.536 152.137 171.59 152.137 166.919C152.137 162.214 148.153 158.29 143.373 158.281C138.423 158.273 134.848 161.928 134.865 166.978V166.982ZM177.482 166.923C178.051 162.172 173.334 158.298 169.169 158.231C164.443 158.155 160.463 162.438 160.468 166.864C160.472 172.084 164.797 175.591 169.097 175.536C173.494 175.481 177.858 171.932 177.478 166.923H177.482ZM58.1592 177.265C52.9781 177.265 48.1173 176.923 43.3324 177.4C40.7186 177.661 42.6199 180.401 42.1899 181.957C41.9665 182.766 41.7515 184.035 43.3998 184.027C47.8896 184.006 52.3794 184.052 56.8692 183.968C57.3077 183.959 58.0623 183.238 58.1002 182.804C58.2436 181.076 58.1592 179.33 58.1592 177.265ZM61.9576 177.395C61.9576 179.326 61.8902 181.135 62.0124 182.927C62.0377 183.314 62.7376 183.959 63.1465 183.972C65.735 184.069 68.3319 184.065 70.9204 183.968C71.3124 183.951 71.9743 183.272 71.9996 182.867C72.1176 181.08 72.0502 179.28 72.0502 177.395H61.9576Z" fill="#73B6FF"/>
<path d="M143.491 225.32C138.503 225.32 134.912 221.821 134.869 216.964C134.827 211.969 138.567 207.934 143.605 208.179C148.874 208.436 151.783 211.53 152.087 216.842C152.327 221.087 147.926 225.847 143.491 225.32Z" fill="#73B6FF"/>
<path d="M177.47 217.002C177.457 221.771 173.878 225.198 169.11 225.362C164.603 225.514 160.434 221.311 160.472 216.678C160.505 212.323 164.565 207.951 169.11 208.145C174.055 208.356 177.773 211.83 177.47 217.002Z" fill="#73B6FF"/>
<path d="M219.649 165.874C219.649 166.574 219.657 167.278 219.661 167.977C210.239 167.969 200.817 167.965 191.394 167.956L191.386 167.973C191.378 167.269 191.369 166.565 191.361 165.861L191.369 165.874C200.796 165.874 210.226 165.874 219.653 165.874H219.649Z" fill="#0C2C7E"/>
<path d="M187.659 42.0059C187.659 42.0776 187.63 42.1872 187.659 42.2083C191.58 44.8895 191.508 48.8903 191.386 53.0049C191.255 57.3261 191.377 61.6556 191.39 65.9852L191.382 65.9684C189.438 65.9726 187.491 65.9051 185.555 66.0316C185.096 66.0611 184.679 66.7314 184.24 67.1066C184.67 67.4228 185.083 67.9877 185.526 68.013C187.465 68.1184 189.409 68.072 191.352 68.0763L191.361 68.0636C191.361 73.7127 191.331 79.3577 191.361 85.0068C191.373 87.2369 190.661 89.0834 188.953 90.5463C188.439 90.9847 187.984 91.4949 187.503 91.9712C187.246 92.005 186.989 92.0387 186.732 92.0766C185.855 91.9502 184.982 91.7141 184.105 91.7141C149.747 91.6972 115.392 91.6846 81.0339 91.7141C76.2027 91.7183 71.3672 92.0387 66.5359 92.064C57.4046 92.1104 48.269 92.0471 39.1376 92.026C35.1959 90.6306 34.104 89.0455 34.0998 84.7285C34.0998 79.8973 34.0998 75.0702 34.0956 70.2389C45.3137 70.2179 56.5361 70.1504 67.7543 70.201C70.718 70.2137 73.4413 69.6614 75.9455 68.0763C91.7504 68.0763 107.56 68.072 123.364 68.0678C123.858 68.0678 124.406 68.2069 124.827 68.0341C125.405 67.798 125.89 67.3301 126.412 66.9633C125.919 66.6303 125.468 66.1792 124.929 66.0021C124.418 65.8377 123.816 65.9684 123.255 65.9642C108.293 65.9515 93.3271 65.9389 78.3654 65.9262C80.722 62.5325 81.7506 58.8311 80.4437 54.8177C79.8915 53.1229 78.8122 51.5884 77.8974 50.0243C76.3081 47.3094 74.6639 44.6282 73.0408 41.9301C110.683 41.9301 148.326 41.9216 185.969 41.9216C186.529 41.9216 187.09 41.9722 187.651 41.9975L187.659 42.0059ZM134.848 66.9886C134.819 71.744 138.567 75.5888 143.297 75.6562C148.073 75.7279 152.078 71.7777 152.053 67.0307C152.027 62.3681 148.098 58.4517 143.444 58.439C138.731 58.4264 134.878 62.2627 134.848 66.9886ZM177.626 67.1108C177.664 62.4229 173.844 58.5149 169.143 58.4348C164.485 58.3547 160.543 62.2079 160.472 66.9043C160.4 71.7398 164.232 75.6562 169.042 75.6562C173.76 75.6562 177.588 71.8452 177.626 67.1108ZM42.2573 84.4925C46.667 84.4925 50.9165 84.5009 55.1702 84.4925C58.5428 84.484 58.155 84.8002 58.1676 81.4192C58.1845 77.3552 58.1676 77.3552 54.0572 77.3552C50.1619 77.3552 46.2665 77.3552 42.2573 77.3552V84.4925ZM67.0924 77.3552C65.9036 77.3552 64.7105 77.4353 63.5301 77.3383C61.6962 77.1865 61.692 78.4934 62.004 79.5094C62.5141 81.1662 60.2924 83.839 63.4668 84.4208C65.5621 84.8044 67.7922 84.3997 69.9507 84.5262C71.5822 84.6189 72.1218 84.1257 72.1007 82.4267C72.0417 77.3552 72.1176 77.3552 67.0882 77.3552H67.0924Z" fill="#73B6FF"/>
<path d="M44.6562 29.932C44.6562 33.646 44.673 37.3601 44.652 41.0742C44.6351 43.8398 43.0036 45.6736 40.5838 45.7074C38.1513 45.7411 36.368 43.9494 36.3469 41.2049C36.2963 33.6376 36.2963 26.0661 36.3469 18.4988C36.3638 15.708 38.0669 14.0048 40.5627 14.0132C43.0289 14.0259 44.6393 15.7965 44.652 18.5789C44.673 22.3647 44.6562 26.1462 44.6562 29.932Z" fill="#FFF9F7"/>
<path d="M78.3738 65.9304C93.3356 65.943 108.302 65.9557 123.263 65.9683C123.824 65.9683 124.431 65.8419 124.937 66.0063C125.481 66.1833 125.932 66.6344 126.421 66.9675C125.898 67.3342 125.413 67.8064 124.836 68.0383C124.414 68.2111 123.866 68.072 123.373 68.072C107.564 68.072 91.7589 68.0762 75.954 68.0804C76.7592 67.3637 77.5644 66.6471 78.3738 65.9304Z" fill="#0C2C7E"/>
<path d="M45.0693 54.1643C45.0314 56.66 42.9572 58.692 40.4699 58.671C38.0248 58.6457 35.9127 56.5251 35.9085 54.0884C35.9042 51.5126 38.0458 49.4553 40.6554 49.527C43.2228 49.5944 45.1073 51.58 45.0651 54.1643H45.0693Z" fill="#FFF7F3"/>
<path d="M39.146 92.0303C48.2774 92.0472 57.413 92.1104 66.5443 92.0682C71.3756 92.0429 76.2111 91.7225 81.0423 91.7183C115.401 91.6846 149.755 91.6972 184.114 91.7183C184.991 91.7183 185.863 91.9544 186.74 92.0809C190.593 93.94 191.677 97.0513 191.42 101.187C191.12 106.01 191.356 110.866 191.361 115.706C191.369 115.849 191.377 115.997 191.39 116.14C191.39 116.693 191.39 117.249 191.39 117.801C191.377 123.046 191.196 128.294 191.407 133.53C191.563 137.379 190.319 140.141 186.77 141.755C186.757 141.903 186.749 142.046 186.736 142.194C178.734 142.206 170.729 142.236 162.727 142.236C132.121 142.24 101.51 142.265 70.9034 142.223C60.3176 142.206 49.736 142.017 39.1502 141.907C35.8451 141.14 34.0787 139.045 34.066 135.735C34.0492 129.938 34.0829 124.142 34.0955 118.341C34.104 118.155 34.1166 117.966 34.125 117.78C34.4033 117.801 34.6857 117.848 34.964 117.848C64.8158 117.848 94.6635 117.852 124.515 117.852C124.798 117.852 125.118 117.936 125.35 117.822C125.729 117.637 126.05 117.329 126.396 117.072C126.05 116.743 125.755 116.263 125.35 116.128C124.84 115.963 124.241 116.081 123.676 116.081C95.7933 116.081 67.9102 116.081 40.0271 116.081C38.0626 116.081 36.098 116.128 34.1293 116.149C34.1208 115.963 34.1082 115.774 34.0998 115.588C34.0871 109.791 34.0492 103.99 34.0702 98.1937C34.0787 94.8801 35.8493 92.7849 39.1545 92.0219L39.146 92.0303ZM134.857 116.128C133.689 116.688 133.689 117.253 134.857 117.814C135.341 122.982 138.777 125.63 144.713 125.407C148.735 125.255 152.154 121.376 152.154 116.971C152.154 112.561 148.735 108.687 144.713 108.535C138.777 108.312 135.341 110.959 134.857 116.128ZM177.47 116.899C177.47 111.988 173.983 108.527 169.046 108.527C163.971 108.527 160.581 111.937 160.581 117.038C160.581 121.971 164.03 125.411 168.975 125.411C174.042 125.411 177.474 121.979 177.47 116.899ZM42.2952 134.091H58.079V127.624H42.2952V134.091ZM71.9911 127.573H62.1177V134.066H71.9911V127.573Z" fill="#5595E7"/>
<path d="M34.0999 165.84C63.8758 165.848 93.6518 165.848 123.428 165.924C124.41 165.924 126.421 164.862 126.328 167.016C126.252 168.77 124.431 167.927 123.432 167.931C93.656 167.99 63.88 167.99 34.1041 167.998C34.1041 167.277 34.1041 166.556 34.0999 165.84Z" fill="#0C2C7E"/>
<path d="M34.0916 115.592C34.1 115.778 34.1126 115.967 34.1211 116.153C34.1211 116.697 34.1211 117.241 34.1211 117.784C34.1126 117.97 34.1 118.16 34.0916 118.345C34.0916 117.426 34.0916 116.511 34.0916 115.592Z" fill="#449AD4"/>
<path d="M191.386 116.14C191.378 115.997 191.369 115.849 191.356 115.706C200.812 115.689 210.264 115.677 219.72 115.66C219.72 117.173 219.72 118.687 219.72 120.2C219.72 124.972 219.72 129.745 219.72 134.513C219.72 138.914 218.822 140.229 214.699 141.92C213.649 141.894 212.6 141.852 211.55 141.848C203.287 141.814 195.028 141.789 186.766 141.759C190.315 140.145 191.559 137.384 191.403 133.535C191.192 128.299 191.373 123.05 191.386 117.805C200.302 117.827 209.219 117.856 218.135 117.831C218.611 117.831 219.092 117.342 219.568 117.076C219.092 116.743 218.616 116.123 218.135 116.123C209.219 116.085 200.302 116.123 191.386 116.14Z" fill="#0C2C7E"/>
<path d="M187.508 91.9755C187.988 91.4991 188.443 90.989 188.958 90.5506C190.665 89.0919 191.378 87.2412 191.365 85.011C191.331 79.3619 191.361 73.717 191.365 68.0679C200.8 68.0679 210.231 68.0679 219.665 68.0679C219.674 73.3207 219.493 78.5778 219.754 83.818C219.952 87.8061 218.649 90.5885 214.931 92.1441C213.257 92.1273 211.58 92.1062 209.906 92.0935C202.44 92.0514 194.978 92.0134 187.512 91.9713L187.508 91.9755Z" fill="#2254B5"/>
<path d="M186.765 141.76C195.028 141.789 203.287 141.814 211.55 141.848C212.6 141.852 213.649 141.894 214.699 141.92C218.51 143.273 219.678 144.947 219.678 149.091C219.678 154.685 219.661 160.279 219.648 165.874C210.222 165.874 200.796 165.874 191.365 165.874C191.365 160.199 191.365 154.521 191.352 148.846C191.34 145.326 189.999 143.416 186.736 142.198C186.749 142.05 186.757 141.907 186.77 141.76H186.765Z" fill="#2254B5"/>
<path d="M187.507 91.9753C194.974 92.0175 202.435 92.0554 209.902 92.0976C211.575 92.106 213.253 92.1313 214.927 92.1482C218.662 93.552 219.716 95.0992 219.72 99.2475C219.729 104.72 219.72 110.192 219.72 115.66C210.264 115.676 200.812 115.689 191.356 115.706C191.356 110.866 191.116 106.01 191.415 101.187C191.673 97.0511 190.585 93.9441 186.736 92.0807C186.993 92.047 187.25 92.0133 187.507 91.9753Z" fill="#0C2C7E"/>
<path d="M219.665 68.072C210.23 68.072 200.8 68.072 191.365 68.072L191.356 68.0846C191.365 67.3806 191.373 66.6766 191.382 65.9725L191.39 65.9894C200.817 65.981 210.239 65.9725 219.665 65.9641C219.729 66.0611 219.771 66.1665 219.788 66.2803C219.771 66.7693 219.758 67.2541 219.745 67.7432C219.745 67.8612 219.716 67.9708 219.661 68.0762L219.665 68.072Z" fill="#0C2C7E"/>
<path d="M134.869 166.982C134.853 161.932 138.428 158.277 143.377 158.285C148.158 158.294 152.146 162.218 152.141 166.923C152.141 171.59 148.12 175.54 143.356 175.557C138.575 175.574 134.886 171.843 134.869 166.987V166.982Z" fill="#A12121"/>
<path d="M177.487 166.923C177.866 171.932 173.498 175.481 169.106 175.536C164.801 175.591 160.48 172.084 160.476 166.864C160.472 162.438 164.451 158.155 169.177 158.23C173.338 158.298 178.056 162.176 177.491 166.923H177.487Z" fill="#A12121"/>
<path d="M58.1634 177.261C58.1634 179.322 58.2477 181.072 58.1044 182.8C58.0664 183.239 57.3118 183.955 56.8734 183.964C52.3836 184.048 47.8938 184.002 43.404 184.023C41.7556 184.031 41.9664 182.762 42.1941 181.953C42.6283 180.397 40.7228 177.653 43.3365 177.395C48.1172 176.919 52.9822 177.261 58.1634 177.261Z" fill="#FEFFFF"/>
<path d="M61.9619 177.391H72.0545C72.0545 179.271 72.1219 181.071 72.0039 182.863C71.9786 183.268 71.3167 183.951 70.9246 183.963C68.3362 184.065 65.7393 184.065 63.1508 183.968C62.7418 183.951 62.042 183.31 62.0167 182.922C61.8945 181.13 61.9619 179.322 61.9619 177.391Z" fill="#FEFFFF"/>
<path d="M191.356 165.861C191.365 166.565 191.373 167.269 191.382 167.973C189.438 167.969 187.491 168.036 185.556 167.91C185.096 167.88 184.679 167.21 184.24 166.835C184.67 166.519 185.083 165.954 185.526 165.928C187.465 165.823 189.409 165.869 191.352 165.865L191.356 165.861Z" fill="#6CB9E7"/>
<path d="M134.848 66.9886C134.878 62.2627 138.735 58.4263 143.444 58.439C148.103 58.4516 152.028 62.3723 152.053 67.0307C152.078 71.7777 148.069 75.7279 143.297 75.6562C138.567 75.5887 134.815 71.7397 134.848 66.9886Z" fill="#A12121"/>
<path d="M177.626 67.1109C177.588 71.841 173.76 75.6562 169.042 75.6562C164.236 75.6562 160.4 71.7398 160.472 66.9043C160.543 62.2037 164.485 58.3547 169.144 58.4348C173.84 58.5149 177.659 62.4229 177.626 67.1109Z" fill="#A12121"/>
<path d="M42.2574 84.4925V77.3552C46.2666 77.3552 50.162 77.3552 54.0574 77.3552C58.172 77.3552 58.1804 77.3552 58.1678 81.4192C58.1551 84.8003 58.543 84.4841 55.1703 84.4925C50.9208 84.5052 46.6671 84.4925 42.2574 84.4925Z" fill="#FAFDFF"/>
<path d="M67.0925 77.3551C72.1219 77.3551 72.046 77.3551 72.105 82.4267C72.1261 84.1257 71.5865 84.6189 69.955 84.5262C67.7965 84.3997 65.5664 84.8044 63.4711 84.4208C60.2967 83.839 62.5142 81.162 62.0083 79.5094C61.6963 78.4934 61.7005 77.1865 63.5344 77.3383C64.7148 77.4352 65.9079 77.3551 67.0967 77.3551H67.0925Z" fill="#FAFDFF"/>
<path d="M191.382 65.9683C191.373 66.6723 191.365 67.3763 191.357 68.0804C189.413 68.0719 187.465 68.1225 185.53 68.0171C185.088 67.9919 184.67 67.4269 184.245 67.1108C184.683 66.7355 185.1 66.0652 185.56 66.0357C187.495 65.9093 189.443 65.9767 191.386 65.9725L191.382 65.9683Z" fill="#6CB9E7"/>
<path d="M134.857 116.128C135.342 110.959 138.777 108.312 144.713 108.535C148.735 108.687 152.154 112.561 152.154 116.971C152.154 121.38 148.735 125.255 144.713 125.407C138.777 125.63 135.342 122.982 134.857 117.814C134.857 117.253 134.857 116.688 134.857 116.128Z" fill="#0C2C7E"/>
<path d="M177.47 116.899C177.47 121.979 174.047 125.415 168.975 125.411C164.03 125.411 160.586 121.971 160.581 117.038C160.581 111.933 163.967 108.527 169.047 108.527C173.983 108.527 177.466 111.988 177.47 116.899Z" fill="#0C2C7E"/>
<path d="M34.1252 117.784C34.1252 117.241 34.1252 116.697 34.1252 116.153C36.0897 116.128 38.0543 116.085 40.023 116.085C67.9061 116.081 95.7892 116.085 123.672 116.085C124.233 116.085 124.836 115.967 125.346 116.132C125.755 116.267 126.05 116.747 126.391 117.076C126.046 117.333 125.725 117.645 125.346 117.827C125.118 117.936 124.794 117.856 124.511 117.856C94.6594 117.856 64.8118 117.856 34.9599 117.852C34.6817 117.852 34.3992 117.81 34.121 117.784H34.1252Z" fill="#0C2C7E"/>
<path d="M42.2954 134.095V127.628H58.0792V134.095H42.2954Z" fill="#FDFEFF"/>
<path d="M71.9911 127.573V134.066H62.1178V127.573H71.9911Z" fill="#FDFEFF"/>
<path d="M191.386 116.14C200.302 116.119 209.219 116.085 218.135 116.123C218.616 116.123 219.092 116.743 219.568 117.076C219.092 117.338 218.616 117.827 218.135 117.831C209.219 117.856 200.302 117.827 191.386 117.805C191.386 117.253 191.386 116.697 191.386 116.144V116.14Z" fill="#73B6FF"/>
<path d="M134.857 116.127C134.857 116.688 134.857 117.253 134.857 117.814C133.689 117.253 133.689 116.688 134.857 116.127Z" fill="#5DB1E3"/>
</svg>
