<svg width="273" height="231" viewBox="0 0 273 231" fill="none" xmlns="http://www.w3.org/2000/svg">
<path d="M43.186 50.158C43.77 48.9226 44.1721 47.5521 44.9674 46.4721C51.5527 37.5303 59.1358 29.5452 68.2507 23.1448C72.0041 20.5095 75.9952 18.2028 79.9188 15.817C83.0677 13.9036 86.1344 11.7701 89.4887 10.3057C96.5494 7.22143 103.727 4.42473 111.451 3.27142C116.878 2.46146 122.213 0.944256 127.654 0.345591C132.261 -0.162101 136.974 -0.0300422 141.619 0.23114C146.823 0.521669 152.002 1.24652 157.188 1.83638C167.418 3.00143 177.014 6.49365 186.155 10.8927C193.113 14.2411 214.5 31 211 31C211.836 31.537 189.485 12.8819 189.5 14C189.617 21.8179 214.43 46.6821 214.436 54.5C214.439 58.362 209.577 55.6458 213.442 55.6487C220.209 55.6546 178.5 13.1211 188.5 14C190.132 13.9824 206.032 22.9834 237.124 57.5885C239.915 63.4607 243.078 69.1774 245.532 75.1846C247.284 79.4721 248.214 84.1117 249.332 88.6369C250.333 92.6867 251.571 96.7659 251.844 100.889C252.317 108.038 252.252 115.231 252.164 122.4C252.117 126.271 251.853 130.191 251.158 133.992C250.221 139.107 248.93 144.175 247.495 149.178C246.453 152.806 245.13 156.386 243.572 159.822C241.3 164.835 238.7 169.697 236.253 174.63C235.789 175.564 235.393 176.529 234.964 177.48C229.978 172.879 224.989 168.28 220.136 163.805C222.075 160.415 224.088 157.489 225.512 154.302C230.721 142.628 232.59 130.502 230.055 117.816C226.838 101.725 218.701 88.8747 205.154 79.5308C202.947 78.0107 200.679 76.5785 198.44 75.1054C198.446 66.3132 198.566 57.521 198.422 48.7318C198.275 39.79 191.664 33.2164 182.854 33.1636C153.249 32.9904 123.642 33.0491 94.0373 33.1871C91.5488 33.1988 88.8196 34.0176 86.6509 35.2501C84.2562 36.6147 82.378 38.8861 80.2768 40.7643C80.3942 39.8956 80.4705 39.0211 80.6349 38.1613C81.1015 35.7226 80.1066 33.19 78.3165 32.3507V30.4608C78.117 30.3669 77.9145 30.2759 77.7149 30.182C68.5324 40.8494 59.9721 52.1771 47.2945 59.7719C47.2358 55.6575 46.015 52.5351 43.189 50.158H43.186Z" fill="#FFA653"/>
<path d="M47.4969 189.019C45.8711 186.366 44.2424 183.716 42.6254 181.057C42.3613 180.623 42.1618 180.153 41.9329 179.699C42.7164 177.368 43.5029 175.038 44.1544 173.099C45.9064 172.359 47.4969 171.681 49.0963 171.018C49.4338 170.877 49.7947 170.698 50.1469 170.695C53.3721 170.669 56.6119 170.475 59.8136 170.73C63.0094 170.986 66.1524 169.879 69.3423 170.628C70.4546 170.889 71.2528 170.387 71.2469 169.075C71.241 167.426 71.2498 165.777 71.2528 164.127C71.2528 162.783 71.2528 161.439 71.2528 160.095C71.5052 160.092 71.7605 160.089 72.0128 160.086C73.4567 163.432 71.8984 167.185 73.3188 170.619C75.5491 167.215 73.3863 163.012 75.3466 159.453C76.0362 160.374 76.5498 161.331 76.6202 162.32C76.7611 164.333 76.5762 166.369 76.6848 168.388C76.8168 170.854 78.2842 172.535 80.2709 173.829C83.0529 179.094 87.6456 182.161 93.3506 182.284C108.669 182.616 124.003 182.41 139.327 182.357C140.102 182.357 140.874 181.77 141.649 181.459C142.016 181.527 142.435 181.497 142.737 181.674C148.366 184.949 154.414 186.994 160.841 187.98C171.987 189.691 182.91 188.995 193.398 184.64C197.234 183.047 200.855 180.94 204.726 178.991C210.213 184.259 215.824 189.647 221.438 195.038C220.347 195.783 219.085 196.361 218.196 197.298C212.441 203.337 206.02 208.59 198.968 212.974C190.193 218.427 180.811 222.609 170.916 225.708C163.101 228.155 155.128 229.549 147.013 230.177C142.315 230.541 137.561 230.902 132.88 230.567C126.735 230.13 120.631 229.059 114.527 228.152C111.583 227.715 108.622 227.228 105.77 226.409C102.146 225.364 98.5478 224.146 95.0791 222.667C90.1342 220.557 85.1101 218.5 80.5057 215.765C75.0032 212.499 69.9028 208.558 64.6469 204.881C62.5222 203.393 60.4475 201.832 58.3492 200.306C60.0982 196.429 62.939 193.764 66.9271 192.203C67.6461 191.921 68.0364 190.791 68.5764 190.052C67.7606 189.758 66.9095 189.142 66.1348 189.224C61.7123 189.706 59.5993 188.344 58.5253 183.945C58.1702 182.495 58.1526 180.963 57.7593 179.528C57.6009 178.944 56.8643 178.158 56.3595 178.134C55.8401 178.111 55.0829 178.798 54.7866 179.361C54.4168 180.059 54.3904 180.946 54.2583 181.759C53.4249 186.871 52.4095 187.968 47.4969 189.019Z" fill="#FFA653"/>
<path d="M80.2739 173.832C78.2871 172.538 76.8198 170.856 76.6877 168.391C76.5792 166.372 76.764 164.336 76.6232 162.323C76.5527 161.334 76.0392 160.377 75.3495 159.455C73.3892 163.015 75.552 167.218 73.3217 170.622C71.8984 167.188 73.4596 163.435 72.0158 160.089C71.7634 160.092 71.5081 160.095 71.2557 160.098C71.2557 161.442 71.2557 162.786 71.2557 164.13C71.2557 165.78 71.2469 167.429 71.2499 169.078C71.2528 170.39 70.4546 170.889 69.3453 170.631C66.1524 169.882 63.0094 170.989 59.8165 170.733C56.6119 170.478 53.3721 170.672 50.1499 170.698C49.7977 170.701 49.4367 170.88 49.0993 171.021C47.4999 171.684 45.9093 172.362 44.1573 173.101C43.5029 175.041 42.7194 177.371 41.9358 179.701C40.671 177.894 39.1479 176.212 38.1883 174.252C34.7313 167.194 30.9808 160.221 28.2722 152.876C25.8893 146.414 24.2899 139.567 23.1835 132.753C21.7925 124.19 21.502 115.486 22.5027 106.802C23.1336 101.329 23.7382 95.8532 24.3544 90.3801C24.9326 90.2363 25.5107 90.0866 26.0917 89.9487C28.9149 89.2825 31.7644 88.7015 34.5464 87.8915C35.1715 87.7096 35.688 86.7998 36.0401 86.1131C36.9352 84.37 38.3967 83.5776 40.2279 83.7449C42.6812 83.9679 43.456 83.3047 43.7758 80.8425C44.1163 78.2278 44.2659 75.6835 43.2652 73.1832C43.3004 72.8163 43.2593 72.4201 43.3855 72.0856C44.5506 68.9925 45.7332 65.9053 46.9423 62.8268C47.0978 62.4336 47.359 61.9934 47.6994 61.7733C50.2584 60.1123 52.8468 58.5041 55.4263 56.8754C55.5877 59.1292 57.2458 58.7242 58.7307 58.8328C60.2861 58.9473 61.1048 58.152 61.1254 56.8284C61.1753 53.7265 63.0681 53.0839 65.6359 52.8227C66.352 52.7493 67.4084 51.7985 67.561 51.0883C68.3593 47.3848 68.5383 46.9329 72.2095 46.2931C74.0319 45.9762 74.7157 45.5624 74.1141 43.5727C73.486 41.4921 75.0737 40.1832 77.2042 40.7144C78.2079 40.9638 79.2497 41.0519 80.2739 41.2103C78.7185 45.0987 78.4368 49.1485 78.4426 53.301C78.4955 89.1153 78.4749 124.929 78.4749 160.744C78.1844 161.02 77.6474 161.29 77.6386 161.574C77.5711 163.875 77.5711 166.182 77.6386 168.482C77.6474 168.767 78.1844 169.037 78.4749 169.313C79.0765 170.815 79.6752 172.321 80.2768 173.823L80.2739 173.832Z" fill="#FFA653"/>
<path d="M221.438 195.044C215.824 189.656 210.213 184.265 204.726 178.997C200.855 180.946 197.234 183.056 193.398 184.646C182.91 189.001 171.987 189.697 160.841 187.986C154.414 187 148.366 184.952 142.737 181.679C142.435 181.503 142.013 181.533 141.649 181.465C138.019 178.768 134.356 176.115 130.776 173.36C128.912 171.925 127.187 170.305 125.4 168.77C125.203 168.227 125.118 167.608 124.792 167.159C122.902 164.544 120.96 161.97 119.034 159.382C118.301 157.836 117.447 156.336 116.854 154.737C115.269 150.464 113.799 146.147 112.282 141.848C112.135 140.979 111.971 140.11 111.845 139.239C111.531 137.085 111.231 134.928 110.926 132.771C111.375 126.919 111.821 121.07 112.27 115.219C113.335 112.064 114.401 108.906 115.466 105.752C118.11 100.287 120.898 94.9199 125.042 90.383C125.467 89.9164 125.599 89.1857 125.869 88.5782C127.207 87.3867 128.504 86.1425 129.895 85.0126C131.457 83.7449 132.948 82.169 134.755 81.4999C136.146 80.9863 136.78 80.5931 136.677 79.1786C139.524 77.7054 142.33 76.153 145.22 74.7737C159.55 67.9331 174.323 66.9764 189.451 71.6982C192.506 72.652 195.449 73.9637 198.443 75.1112C200.682 76.5844 202.953 78.0135 205.157 79.5337C218.706 88.8775 226.841 101.728 230.057 117.819C232.593 130.505 230.724 142.631 225.515 154.305C224.091 157.495 222.078 160.421 220.138 163.807C224.992 168.283 229.978 172.884 234.967 177.483C241.338 183.657 247.721 189.82 254.066 196.021C255.325 197.251 256.434 198.636 257.611 199.95C253.074 205.25 248.537 210.547 244.003 215.847C242.38 214.562 240.651 213.385 239.152 211.968C233.212 206.366 227.34 200.69 221.444 195.041L221.438 195.044ZM170.326 180.602C200.547 181.459 222.762 157.008 223.748 131.488C224.995 99.2544 199.526 78.0018 173.947 76.916C142.532 75.5807 119.108 100.792 118.996 128.812C118.882 157.087 143.002 180.79 170.326 180.605V180.602Z" fill="#2254B5"/>
<path d="M250.568 42.1464C247.486 42.1464 244.405 42.1523 241.324 42.1464C237.558 42.1405 235.475 40.1978 235.428 36.6587C235.381 33.1547 237.711 30.8569 241.423 30.8422C247.662 30.8158 253.899 30.8158 260.138 30.8451C263.606 30.8628 266.165 33.319 266.107 36.4796C266.039 40.1479 263.92 42.1317 260.041 42.1464C256.883 42.1582 253.728 42.1464 250.571 42.1464H250.568Z" fill="#0C2C7E"/>
<path d="M244 215.85C248.537 210.553 253.071 205.253 257.608 199.953C261.898 202.483 263.85 206.374 263.327 211.187C262.867 215.442 260.537 218.688 256.369 220.302C251.624 222.139 246.183 220.167 244 215.85Z" fill="#73B6FF"/>
<path d="M55.2366 56.6963C52.6571 58.3221 50.0688 59.9332 47.5098 61.5942C47.1693 61.8143 46.9082 62.2545 46.7526 62.6478C45.5436 65.7233 44.3609 68.8105 43.1958 71.9065C43.0697 72.2411 43.1107 72.6373 43.0755 73.0041C41.7931 74.4391 40.6545 76.0444 39.1989 77.2799C34.2393 81.4911 29.1683 85.5702 24.1413 89.7021C19.798 92.0176 15.4577 94.333 11.1145 96.6484C11.0763 96.082 11.0382 95.5127 11 94.9463C15.6895 92.1936 20.382 89.4439 25.0716 86.6912C33.9664 80.7809 41.9134 74.0782 45.2736 62.8826C44.3462 63.1819 43.9911 63.2963 43.636 63.4108C43.6067 62.8385 43.5803 62.2663 43.5509 61.6911C45.3763 61.0014 45.5289 59.631 45.2853 57.9172C44.9185 55.3552 43.9853 53.1777 41.8283 51.637C41.1445 51.1382 40.4608 50.6422 39.7741 50.1433C40.1614 49.7237 40.5488 49.304 40.9332 48.8844C41.62 49.2482 42.3067 49.6121 42.9934 49.976C45.8194 52.356 47.0402 55.4785 47.0989 59.5899C59.7765 51.998 68.3368 40.6674 77.5193 30C77.7189 30.0939 77.9213 30.1849 78.1209 30.2788C78.1209 30.9097 78.1209 31.5377 78.1209 32.1687L78.0886 32.2127C77.9683 32.3682 77.845 32.5238 77.7247 32.6793C77.2728 33.1723 76.7974 33.6477 76.3689 34.1642C73.6074 37.4833 71.022 40.9697 68.0551 44.095C63.929 48.4383 59.5183 52.5116 55.2308 56.6993L55.2366 56.6963Z" fill="#0C2C7E"/>
<path d="M43.8257 63.5927C44.1808 63.4782 44.5359 63.3638 45.4632 63.0645C42.1031 74.263 34.1561 80.9628 25.2612 86.8731C25.3258 86.2862 25.2818 85.6611 25.4725 85.1182C26.4967 82.1953 27.559 79.2842 28.6478 76.3877C29.6632 73.6849 30.7519 71.0114 31.7644 68.3086C32.0696 67.4899 32.228 66.6154 32.454 65.7672C36.4216 65.9727 40.2954 65.6792 43.8257 63.5927Z" fill="#FFA653"/>
<path d="M47.4969 189.019C52.4095 187.965 53.4249 186.871 54.2583 181.759C54.3904 180.946 54.4197 180.059 54.7866 179.361C55.083 178.798 55.8401 178.111 56.3595 178.134C56.8643 178.158 57.5979 178.947 57.7593 179.528C58.1526 180.963 58.1702 182.495 58.5253 183.945C59.5994 188.344 61.7123 189.709 66.1348 189.224C66.9095 189.139 67.7606 189.758 68.5764 190.052C68.0364 190.791 67.6461 191.921 66.9271 192.203C62.9419 193.764 60.0982 196.429 58.3492 200.306C58.27 200.449 58.1907 200.593 58.1144 200.737C57.953 200.931 57.7916 201.124 57.6302 201.318C55.3148 202.606 54.8364 202.354 54.1762 199.754C53.3222 196.397 51.9429 193.503 48.1602 192.432C46.3612 191.924 46.2409 190.753 47.4911 189.016L47.4969 189.019ZM60.4886 192.291C58.942 190.492 57.507 188.822 56.1277 187.217C55.0536 188.388 53.9091 189.635 52.8204 190.821C54.1145 192.743 55.3999 194.65 56.6735 196.54C57.956 195.111 59.2912 193.623 60.4886 192.288V192.291Z" fill="#0C2C7E"/>
<path d="M272.818 149.064C272.792 152.239 270.259 154.76 267.09 154.772C263.829 154.784 261.197 152.16 261.226 148.929C261.256 145.827 263.894 143.206 266.987 143.209C270.265 143.209 272.847 145.804 272.818 149.064Z" fill="#5595E7"/>
<path d="M221.952 30.8305C225.139 30.7982 227.751 33.4247 227.754 36.6645C227.754 39.6931 225.022 42.4047 221.847 42.5221C219.009 42.6277 216.118 39.7694 216.062 36.8083C216.001 33.4453 218.542 30.8628 221.949 30.8305H221.952Z" fill="#0C2C7E"/>
<path d="M24.3281 89.8841C29.3551 85.7551 34.4262 81.673 39.3857 77.4618C40.8384 76.2263 41.977 74.6211 43.2624 73.186C44.2631 75.6863 44.1134 78.2307 43.773 80.8454C43.4531 83.3076 42.6813 83.9708 40.225 83.7478C38.3968 83.5805 36.9353 84.3729 36.0373 86.116C35.6851 86.8027 35.1687 87.7125 34.5436 87.8944C31.7615 88.7044 28.912 89.2854 26.0889 89.9516C25.5078 90.0895 24.9297 90.2392 24.3516 90.383C24.3428 90.2186 24.3369 90.0514 24.3281 89.887V89.8841Z" fill="#FFA653"/>
<path d="M43.639 63.4079C40.1086 65.4915 36.2378 65.7879 32.2673 65.5825C30.7706 65.3007 29.271 65.022 27.7744 64.7402C27.3635 64.5524 26.9527 64.3646 26.5389 64.1768C24.4523 62.8092 21.9579 61.7997 20.382 59.9891C18.2573 57.5474 18.8091 54.5453 20.5053 51.8455C20.9983 52.0538 21.4913 52.2651 21.9814 52.4735C19.9477 57.2716 20.9719 60.1945 25.9167 61.9553C28.8073 62.9853 31.9914 63.1819 35.0434 63.7542C37.8783 63.0646 40.7161 62.3779 43.5509 61.6882C43.5803 62.2605 43.6067 62.8327 43.636 63.4079H43.639Z" fill="#0C2C7E"/>
<path d="M11.1898 95.1283C11.2279 95.6947 11.2661 96.264 11.3042 96.8304C8.15534 98.1803 5.02409 99.5743 1.84001 100.836C1.34993 101.03 0.619207 100.61 0 100.475C0.396175 100.014 0.701377 99.3395 1.2032 99.1282C4.50759 97.7401 7.85601 96.4489 11.1898 95.1283Z" fill="#0C2C7E"/>
<path d="M22.6769 49.3041C24.3936 48.5616 26.1075 47.8191 27.8242 47.0737L30.9261 48.3004C28.5403 49.0429 26.1544 49.7853 23.7686 50.5278C23.4047 50.1199 23.0408 49.709 22.6798 49.3011L22.6769 49.3041Z" fill="#0C2C7E"/>
<path d="M40.9362 48.8815C40.5488 49.3012 40.1614 49.7208 39.777 50.1405C37.576 49.533 35.375 48.9255 33.1741 48.3181C33.626 47.8427 34.0779 47.3673 34.5299 46.8889C35.2811 47.0356 36.0295 47.1824 36.7807 47.332C37.6347 47.602 38.4887 47.875 39.3456 48.1449C39.8768 48.3885 40.4079 48.635 40.9391 48.8786L40.9362 48.8815Z" fill="#0C2C7E"/>
<path d="M34.7166 47.0767C34.2647 47.5521 33.8128 48.0275 33.3608 48.5058C32.6096 48.5 31.8612 48.4941 31.11 48.4882L28.0081 47.2616C28.5832 47.1794 29.1614 47.0972 29.7366 47.0151C31.1012 47.0063 32.4658 47.0004 33.8333 46.9916C34.1268 47.0209 34.4232 47.0473 34.7166 47.0767Z" fill="#0C2C7E"/>
<path d="M22.8638 49.4889C23.2277 49.8968 23.5916 50.3077 23.9525 50.7156C23.3568 51.3641 22.764 52.0097 22.1683 52.6583C21.6752 52.4499 21.1822 52.2386 20.6921 52.0303C21.417 51.1851 22.1389 50.337 22.8638 49.4918V49.4889Z" fill="#0C2C7E"/>
<path d="M33.8333 46.9916C32.4687 47.0004 31.1041 47.0063 29.7366 47.0151C31.1012 47.0063 32.4658 47.0004 33.8333 46.9916Z" fill="#202225"/>
<path d="M39.5295 48.3325C38.6755 48.0626 37.8215 47.7896 36.9646 47.5197C37.8186 47.7896 38.6726 48.0626 39.5295 48.3325Z" fill="#26282B"/>
<path d="M26.7256 64.3586C27.1364 64.5465 27.5473 64.7343 27.9611 64.9221C27.5502 64.7343 27.1394 64.5465 26.7256 64.3586Z" fill="#282B2D"/>
<path d="M112.267 115.216C111.818 121.068 111.372 126.916 110.923 132.768C105.362 132.768 99.8039 132.759 94.2428 132.774C91.0059 132.783 89.2568 134.479 89.295 137.531C89.3273 140.175 91.2084 141.821 94.2487 141.83C100.259 141.845 106.272 141.842 112.282 141.845C113.799 146.144 115.272 150.458 116.854 154.734C117.447 156.333 118.298 157.833 119.035 159.379C110.788 159.382 102.542 159.379 94.2956 159.394C91.5077 159.4 89.3537 161.407 89.295 163.998C89.2392 166.636 91.2553 168.811 94.143 168.823C104.561 168.867 114.982 168.796 125.4 168.767C127.187 170.302 128.91 171.922 130.776 173.357C134.359 176.112 138.022 178.768 141.649 181.462C140.877 181.776 140.102 182.357 139.33 182.36C124.003 182.413 108.672 182.618 93.3536 182.287C87.6487 182.164 83.056 179.094 80.2739 173.832C79.6723 172.33 79.0737 170.824 78.4721 169.322C78.4721 166.463 78.4721 163.608 78.4721 160.75C78.4721 124.935 78.4955 89.1211 78.4398 53.3069C78.4339 49.1514 78.7127 45.1016 80.271 41.2162C80.271 41.0665 80.271 40.9168 80.271 40.7642C82.3751 38.8861 84.2504 36.6117 86.645 35.2501C88.8137 34.0175 91.5429 33.1988 94.0315 33.187C123.636 33.0491 153.244 32.9904 182.848 33.1635C191.658 33.2164 198.27 39.7899 198.416 48.7318C198.56 57.521 198.44 66.3131 198.434 75.1053C195.438 73.9579 192.497 72.6461 189.442 71.6923C174.317 66.9705 159.544 67.9272 145.211 74.7678C142.321 76.1471 139.512 77.6995 136.669 79.1727C122.556 79.1522 108.441 79.1081 94.3279 79.1316C91.2993 79.1375 89.2011 81.2915 89.2891 84.0178C89.383 86.8908 91.3052 88.5723 94.5539 88.5753C104.989 88.5811 115.425 88.5753 125.861 88.5753C125.591 89.1827 125.458 89.9164 125.033 90.3801C120.889 94.917 118.101 100.284 115.457 105.749C108.485 105.746 101.509 105.714 94.5362 105.755C91.358 105.772 89.2275 107.95 89.2891 110.946C89.3449 113.581 91.2113 115.204 94.2633 115.21C100.262 115.225 106.26 115.216 112.261 115.216H112.267ZM113.192 61.9317C119.501 61.9317 125.811 61.9494 132.12 61.9229C135.251 61.9112 137.267 60.0184 137.264 57.1982C137.264 54.2929 135.378 52.5292 132.126 52.5262C119.657 52.5086 107.19 52.5086 94.7211 52.5321C91.3786 52.538 89.2833 54.3927 89.2833 57.2129C89.2833 59.9861 91.4784 61.9141 94.7153 61.9229C100.875 61.9405 107.035 61.9288 113.192 61.9317Z" fill="#EFF6FF"/>
<path d="M80.274 40.7671C80.274 40.9168 80.274 41.0664 80.274 41.219C79.2499 41.0576 78.2081 40.9696 77.2044 40.7231C75.0739 40.1948 73.4862 41.5008 74.1143 43.5814C74.7129 45.5682 74.0321 45.9849 72.2097 46.3018C68.5385 46.9386 68.3594 47.3935 67.5612 51.097C67.4086 51.8072 66.3551 52.758 65.6361 52.8314C63.0654 53.0926 61.1755 53.7382 61.1256 56.8371C61.105 58.1607 60.2863 58.956 58.7309 58.8415C57.246 58.7329 55.5879 59.1379 55.4265 56.8841C59.714 52.6964 64.1248 48.6231 68.2509 44.2799C71.2178 41.1574 73.8002 37.6681 76.5647 34.3491C76.9931 33.8355 77.4685 33.3601 77.9205 32.8641C78.1728 32.9786 78.4282 33.093 78.6805 33.2075C78.5485 32.9375 78.4164 32.6675 78.2844 32.4005L78.3166 32.3564C80.1068 33.1958 81.1016 35.7283 80.635 38.167C80.4707 39.0269 80.3944 39.9014 80.277 40.77L80.274 40.7671Z" fill="#FFA653"/>
<path d="M78.4721 160.753C78.4721 163.611 78.4721 166.466 78.4721 169.325C78.1816 169.049 77.6445 168.779 77.6357 168.494C77.5653 166.193 77.5682 163.887 77.6357 161.586C77.6445 161.301 78.1816 161.031 78.4721 160.756V160.753Z" fill="#F2F2F4"/>
<path d="M170.326 180.602C143.002 180.787 118.882 157.084 118.996 128.809C119.108 100.789 142.532 75.5778 173.947 76.9131C199.526 78.0018 224.995 99.2515 223.748 131.485C222.759 157.005 200.547 181.459 170.326 180.599V180.602ZM162.831 78.665C156.501 80.0561 150.488 82.3069 144.935 85.6553C143.806 86.3362 143.013 87.5775 142.065 88.5577C140.933 89.0331 139.565 89.2473 138.705 90.025C133.705 94.559 129.156 99.4921 126.28 105.725C125.08 108.886 123.879 112.046 122.679 115.207C121.083 120.962 119.903 126.758 120.874 132.774C121.467 135.931 122.057 139.089 122.65 142.247C122.659 142.546 122.615 142.863 122.688 143.145C124.208 148.958 127.175 154.073 130.474 159.012C130.658 159.291 131.275 159.282 131.689 159.408C131.865 159.951 131.885 160.65 132.243 161.011C134.878 163.67 137.581 166.258 140.264 168.87C145.42 173.131 151.318 176.074 157.71 177.794C163.999 179.487 170.417 180.086 177.017 179.335C184.629 178.469 191.52 175.936 198.002 172.03C203.012 169.063 207.247 165.24 210.921 160.717C218.113 151.866 221.785 141.642 222.225 130.394C222.401 125.927 221.468 121.349 220.567 116.921C218.334 105.966 212.4 97.1591 204.021 89.9311C202.936 88.9949 201.55 88.4051 200.303 87.6538C199.749 87.0933 199.273 86.4095 198.627 85.9899C193.976 82.9848 188.958 80.8161 183.561 79.5454C182.355 79.249 181.152 78.9526 179.946 78.6533C174.238 78.6533 168.53 78.6533 162.822 78.6533L162.831 78.665Z" fill="#DBD8E5"/>
<path d="M125.866 88.5782C115.431 88.5782 104.995 88.587 94.5596 88.5782C91.3081 88.5782 89.3859 86.8966 89.2949 84.0207C89.2069 81.2944 91.3022 79.1404 94.3337 79.1345C108.446 79.111 122.562 79.1551 136.675 79.1756C136.777 80.5901 136.143 80.9833 134.752 81.4969C132.945 82.166 131.454 83.7419 129.893 85.0097C128.505 86.1395 127.204 87.3808 125.866 88.5752V88.5782Z" fill="#0C2C7E"/>
<path d="M125.4 168.77C114.982 168.796 104.561 168.867 94.1428 168.826C91.2552 168.814 89.2391 166.639 89.2948 164.001C89.3506 161.41 91.5075 159.4 94.2954 159.397C102.542 159.382 110.788 159.385 119.034 159.382C120.96 161.97 122.905 164.544 124.792 167.159C125.118 167.608 125.203 168.23 125.4 168.77Z" fill="#0C2C7E"/>
<path d="M112.267 115.216C106.269 115.216 100.271 115.225 94.2692 115.21C91.2172 115.204 89.3478 113.581 89.295 110.946C89.2334 107.95 91.3639 105.772 94.5421 105.755C101.515 105.716 108.49 105.746 115.463 105.749C114.398 108.904 113.333 112.061 112.267 115.216Z" fill="#0C2C7E"/>
<path d="M112.282 141.845C106.272 141.842 100.259 141.845 94.2485 141.83C91.2082 141.824 89.3271 140.175 89.2948 137.531C89.2567 134.479 91.0057 132.783 94.2426 132.774C99.8037 132.759 105.362 132.768 110.923 132.768C111.228 134.925 111.528 137.082 111.842 139.236C111.971 140.107 112.132 140.976 112.279 141.845H112.282Z" fill="#0C2C7E"/>
<path d="M22.1711 52.6583L23.9554 50.7155C26.3412 49.9731 28.7271 49.2306 31.1129 48.4882C31.8642 48.494 32.6125 48.4999 33.3638 48.5058C35.5648 49.1132 37.7658 49.7207 39.9667 50.3282C40.6505 50.8271 41.3343 51.323 42.021 51.8219C41.9329 54.3516 40.1047 55.8277 38.6373 57.5591C37.0556 59.4255 34.3763 60.7579 35.2361 63.9419C32.1841 63.3697 28.9971 63.1701 26.1094 62.143C21.1645 60.3822 20.1404 57.4623 22.1741 52.6612L22.1711 52.6583Z" fill="#F9FAFA"/>
<path d="M35.2332 63.939C34.3733 60.7549 37.0527 59.4255 38.6344 57.5562C40.0988 55.8247 41.93 54.3486 42.0181 51.819C44.1779 53.3597 45.1082 55.5371 45.4751 58.0991C45.7216 59.8129 45.566 61.1834 43.7407 61.873C40.9058 62.5627 38.068 63.2494 35.2332 63.939Z" fill="#FFA653"/>
<path d="M78.2814 32.3976C78.4134 32.6676 78.5455 32.9376 78.6776 33.2046C78.4252 33.0902 78.1699 32.9757 77.9175 32.8613C78.0378 32.7057 78.1611 32.5502 78.2814 32.3947V32.3976Z" fill="#F4F4F4"/>
<path d="M60.4885 192.288C59.2912 193.623 57.953 195.111 56.6735 196.54C55.3999 194.65 54.1145 192.743 52.8203 190.821C53.9091 189.635 55.0536 188.388 56.1276 187.217C57.5069 188.819 58.942 190.492 60.4885 192.291V192.288Z" fill="#FFC997"/>
<path d="M113.195 61.9317C107.035 61.9317 100.875 61.9405 94.7181 61.9258C91.4812 61.917 89.2891 59.989 89.2861 57.2158C89.2861 54.3926 91.3815 52.5409 94.724 52.535C107.193 52.5115 119.66 52.5115 132.129 52.5292C135.38 52.535 137.264 54.2987 137.267 57.2011C137.267 60.0213 135.254 61.9141 132.123 61.9258C125.813 61.9523 119.504 61.9346 113.195 61.9317ZM122.483 58.686C122.738 58.6391 122.993 58.5921 123.252 58.5422C123.601 57.923 124.05 57.3361 124.261 56.6729C124.381 56.2943 124.114 55.7895 124.02 55.3405C123.469 55.6281 122.574 55.8101 122.445 56.2268C122.213 56.9692 122.445 57.8555 122.483 58.6831V58.686ZM121.218 57.9846C120.939 58.0962 120.663 58.2077 120.384 58.3192C120.651 58.8768 120.921 59.4373 121.189 59.9949C121.4 59.9039 121.608 59.8129 121.819 59.719C121.62 59.1409 121.417 58.5628 121.218 57.9817V57.9846ZM128.135 54.1021C128.152 53.9172 128.17 53.7294 128.191 53.5445H126.709C126.7 53.659 126.691 53.7734 126.685 53.8908C127.169 53.9613 127.654 54.0317 128.138 54.1021H128.135Z" fill="#0C2C7E"/>
<path d="M198.008 172.036C191.526 175.942 184.635 178.475 177.023 179.34C170.423 180.092 164.005 179.493 157.716 177.8C151.324 176.08 145.426 173.137 140.269 168.876C152.803 168.873 165.34 168.879 177.874 168.849C179.057 168.849 180.254 168.685 181.422 168.474C184.219 167.969 185.657 166.011 185.369 163.221C185.175 161.328 182.775 159.4 180.553 159.4C164.266 159.4 147.979 159.408 131.692 159.414C131.275 159.288 130.662 159.297 130.477 159.018C127.181 154.076 124.211 148.964 122.691 143.151C122.618 142.866 122.662 142.552 122.653 142.253C131.14 142.267 139.627 142.282 148.114 142.297C146.864 144.41 146.47 146.628 147.515 148.92C149.458 153.169 154.632 154.202 158.218 150.945C161.314 148.134 164.225 145.117 167.221 142.191C169.83 142.203 172.436 142.217 175.045 142.229C177.833 144.958 180.585 147.729 183.42 150.408C186.302 153.131 190.308 153.108 192.949 150.458C195.552 147.849 195.47 143.823 192.735 140.958C191.852 140.034 190.933 139.148 190.017 138.253C186.869 135.174 183.711 132.099 180.257 128.73C181.26 127.882 181.985 127.345 182.619 126.72C186.147 123.233 189.695 119.765 193.152 116.205C195.338 113.954 195.549 110.403 193.832 107.888C192.11 105.367 188.626 104.314 185.824 105.57C184.882 105.992 184.063 106.694 183.186 107.269C182.158 105.388 180.213 105.834 178.698 105.804C171.576 105.669 164.451 105.76 157.326 105.772C154.831 104.496 152.34 104.457 149.851 105.793C141.995 105.769 134.136 105.749 126.28 105.725C129.156 99.4921 133.702 94.5619 138.705 90.025C139.562 89.2473 140.933 89.0331 142.065 88.5576C154.872 88.5665 167.679 88.5606 180.486 88.5958C182.745 88.6017 184.157 87.3867 185.037 85.5408C185.859 83.8182 185.243 82.2159 184.128 80.7633C183.863 80.4199 183.752 79.9592 183.57 79.5542C188.967 80.8249 193.985 82.9936 198.636 85.9986C199.282 86.4154 199.757 87.1021 200.312 87.6626C199.845 88.2935 199 88.9039 198.968 89.5554C198.71 94.7086 198.516 99.8677 198.472 105.024C198.284 127.362 198.158 149.698 198.008 172.036Z" fill="#EFF6FF"/>
<path d="M198.008 172.036C198.158 149.698 198.287 127.362 198.472 105.024C198.516 99.8647 198.71 94.7056 198.968 89.5553C199 88.9038 199.842 88.2934 200.312 87.6625C201.559 88.4137 202.944 89.0007 204.03 89.9398C212.409 97.1678 218.342 105.975 220.576 116.93C221.479 121.358 222.41 125.936 222.234 130.402C221.793 141.654 218.122 151.875 210.929 160.726C207.255 165.245 203.021 169.069 198.011 172.039L198.008 172.036Z" fill="#FFA653"/>
<path d="M120.877 132.774C119.906 126.755 121.086 120.959 122.682 115.207C131.234 115.351 139.788 115.498 148.34 115.641C152.66 120.087 156.979 124.533 161.434 129.117C160.187 130.285 158.831 131.556 157.475 132.824C145.276 132.806 133.077 132.791 120.88 132.774H120.877Z" fill="#EFF6FF"/>
<path d="M131.695 159.411C147.982 159.406 164.269 159.397 180.556 159.397C182.778 159.397 185.175 161.325 185.372 163.218C185.66 166.008 184.222 167.966 181.425 168.471C180.257 168.682 179.06 168.843 177.877 168.846C165.343 168.876 152.809 168.87 140.273 168.873C137.59 166.261 134.887 163.672 132.252 161.014C131.894 160.653 131.874 159.954 131.698 159.411H131.695Z" fill="#73B6FF"/>
<path d="M183.567 79.5541C183.749 79.962 183.86 80.4198 184.125 80.7632C185.24 82.2158 185.856 83.8181 185.034 85.5408C184.154 87.3866 182.742 88.6016 180.483 88.5957C167.676 88.5605 154.869 88.5664 142.062 88.5576C143.01 87.5745 143.803 86.3361 144.933 85.6523C150.485 82.3039 156.495 80.0559 162.828 78.662C163.227 78.8117 163.623 79.0875 164.025 79.0904C168.935 79.1198 173.847 79.1198 178.757 79.0904C179.156 79.0904 179.555 78.8117 179.952 78.6591C181.158 78.9555 182.361 79.2518 183.567 79.5512V79.5541Z" fill="#73B6FF"/>
<path d="M120.877 132.774C133.077 132.791 145.276 132.806 157.472 132.824C154.353 135.978 151.233 139.136 148.114 142.294C139.627 142.279 131.14 142.264 122.653 142.25C122.06 139.092 121.47 135.934 120.877 132.777V132.774Z" fill="#73B6FF"/>
<path d="M148.34 115.641C139.788 115.498 131.234 115.351 122.682 115.207C123.883 112.046 125.083 108.886 126.283 105.725C134.139 105.749 141.998 105.769 149.854 105.793C146.5 109.094 146.127 111.518 148.343 115.644L148.34 115.641Z" fill="#73B6FF"/>
<path d="M179.955 78.6621C179.556 78.8118 179.159 79.0906 178.76 79.0935C173.851 79.1228 168.938 79.1228 164.028 79.0935C163.629 79.0935 163.23 78.8147 162.831 78.665C168.539 78.665 174.247 78.665 179.955 78.665V78.6621Z" fill="#73B6FF"/>
<path d="M122.483 58.6831C122.444 57.8556 122.213 56.9693 122.444 56.2268C122.577 55.8072 123.472 55.6282 124.02 55.3406C124.114 55.7896 124.381 56.2914 124.261 56.6729C124.05 57.3361 123.601 57.923 123.251 58.5423C122.996 58.5892 122.741 58.6362 122.483 58.6861V58.6831Z" fill="#2B353E"/>
<path d="M121.218 57.9817C121.418 58.5598 121.62 59.1379 121.82 59.719C121.608 59.81 121.4 59.9009 121.189 59.9948C120.922 59.4373 120.652 58.8768 120.385 58.3192C120.663 58.2077 120.939 58.0961 121.218 57.9846V57.9817Z" fill="#2B353E"/>
<path d="M128.135 54.1021C127.651 54.0317 127.166 53.9613 126.682 53.8908C126.691 53.7764 126.7 53.6619 126.706 53.5446H128.188C128.17 53.7294 128.152 53.9173 128.132 54.1021H128.135Z" fill="#2B353E"/>
<path d="M148.34 115.641C146.124 111.515 146.497 109.091 149.851 105.79C152.34 104.452 154.831 104.49 157.326 105.769C160.683 109.056 164.04 112.343 167.397 115.627C168.592 116.889 169.786 118.148 171.113 119.55C172.512 118.071 173.721 116.792 174.928 115.515C177.68 112.765 180.43 110.016 183.183 107.266C184.057 106.691 184.876 105.989 185.818 105.567C188.621 104.311 192.104 105.364 193.827 107.885C195.543 110.397 195.335 113.948 193.146 116.202C189.692 119.762 186.144 123.227 182.613 126.717C181.98 127.345 181.255 127.879 180.251 128.727C183.705 132.096 186.86 135.171 190.012 138.25C190.924 139.142 191.846 140.031 192.729 140.955C195.464 143.82 195.546 147.846 192.943 150.455C190.302 153.102 186.299 153.125 183.415 150.405C180.577 147.726 177.827 144.955 175.039 142.226C173.771 140.906 172.501 139.585 171.171 138.2C169.722 139.661 168.468 140.923 167.215 142.185C164.222 145.111 161.311 148.128 158.212 150.939C154.626 154.197 149.452 153.166 147.509 148.914C146.462 146.625 146.855 144.404 148.108 142.291C151.228 139.133 154.347 135.978 157.469 132.821C158.825 131.55 160.181 130.282 161.428 129.114C156.976 124.53 152.654 120.084 148.334 115.638L148.34 115.641Z" fill="#A12121"/>
<path d="M167.4 115.627C164.043 112.34 160.686 109.053 157.329 105.769C164.454 105.758 171.579 105.667 178.699 105.802C180.213 105.831 182.159 105.385 183.186 107.266C180.436 110.016 177.683 112.765 174.933 115.515C172.421 115.553 169.912 115.591 167.4 115.627Z" fill="#73B6FF"/>
<path d="M167.221 142.185C168.474 140.923 169.727 139.658 171.177 138.2C172.506 139.585 173.777 140.906 175.045 142.226C172.436 142.214 169.83 142.2 167.221 142.188V142.185Z" fill="#73B6FF"/>
<path d="M167.4 115.627C169.912 115.589 172.421 115.55 174.933 115.515C173.724 116.792 172.518 118.071 171.118 119.55C169.792 118.15 168.597 116.889 167.403 115.627H167.4Z" fill="#EFF6FF"/>
</svg>
