<svg width="275" height="269" viewBox="0 0 275 269" fill="none" xmlns="http://www.w3.org/2000/svg">
<path d="M0.764268 175.228C0.678615 175.279 0.59667 175.336 0.519043 175.399C0.548539 175.373 0.581083 175.35 0.615993 175.331L0.764268 175.228Z" fill="#BA68C8"/>
<g opacity="0.1">
<path d="M238.782 109.713C238.376 109.253 237.868 108.894 237.297 108.667C236.727 108.44 236.111 108.35 235.5 108.406C234.889 108.461 234.299 108.66 233.779 108.987C233.26 109.313 232.824 109.757 232.508 110.284C231.985 109.847 231.357 109.554 230.686 109.434C230.015 109.314 229.325 109.37 228.682 109.597C228.04 109.824 227.467 110.215 227.021 110.73C226.575 111.245 226.271 111.868 226.138 112.536C226.638 111.94 227.279 111.477 228.002 111.191C228.726 110.904 229.509 110.802 230.282 110.894C231.055 110.987 231.792 111.27 232.428 111.719C233.064 112.168 233.577 112.768 233.923 113.466C233.945 113.242 233.945 113.017 233.923 112.793C233.851 112.256 233.67 111.74 233.392 111.276C233.517 111.124 233.652 110.981 233.797 110.848C234.527 110.2 235.441 109.797 236.412 109.695C237.382 109.592 238.36 109.796 239.209 110.278C239.088 110.075 238.944 109.885 238.782 109.713Z" fill="black"/>
<path d="M197.857 102.915C198.121 102.617 198.442 102.374 198.801 102.2C199.159 102.026 199.549 101.924 199.946 101.901C200.344 101.877 200.743 101.933 201.119 102.064C201.496 102.195 201.843 102.399 202.14 102.664C202.364 102.858 202.556 103.085 202.71 103.337C203.114 103.001 203.599 102.776 204.117 102.683C204.634 102.591 205.167 102.634 205.663 102.81C206.158 102.985 206.6 103.286 206.944 103.684C207.288 104.081 207.523 104.561 207.626 105.077C207.24 104.618 206.746 104.262 206.188 104.041C205.629 103.821 205.025 103.743 204.43 103.814C203.834 103.885 203.265 104.104 202.775 104.45C202.285 104.796 201.888 105.258 201.621 105.795C201.604 105.623 201.604 105.449 201.621 105.276C201.675 104.861 201.815 104.461 202.032 104.102C201.934 103.986 201.83 103.878 201.718 103.777C201.156 103.275 200.451 102.963 199.702 102.884C198.952 102.805 198.197 102.964 197.543 103.337C197.634 103.187 197.739 103.045 197.857 102.915Z" fill="black"/>
</g>
<path d="M137.372 268.39C213.24 268.39 274.744 232.882 274.744 189.08C274.744 145.278 213.24 109.77 137.372 109.77C61.5035 109.77 0 145.278 0 189.08C0 232.882 61.5035 268.39 137.372 268.39Z" fill="#FFDAB9"/>
<path d="M50.9835 127.392C47.2766 129.131 43.6838 130.99 40.2335 132.98C7.34482 151.983 -5.37268 178.199 2.05822 202.784L113.636 267.227C156.214 271.516 201.62 264.17 234.503 245.185C237.952 243.193 241.183 241.125 244.198 238.981L50.9835 127.392Z" fill="#FFA653"/>
<path d="M118.056 142.835L222.875 203.354C223.473 203.658 224.135 203.816 224.806 203.816C225.477 203.816 226.138 203.658 226.736 203.354L259.1 184.666C260.167 184.05 260.167 183.052 259.1 182.436L154.281 121.916C153.682 121.613 153.021 121.455 152.35 121.455C151.679 121.455 151.018 121.613 150.42 121.916L118.056 140.605C116.989 141.221 116.989 142.219 118.056 142.835Z" fill="#FFA653"/>
<path d="M130.773 249.433C150.25 249.433 166.04 240.318 166.04 229.074C166.04 217.83 150.25 208.714 130.773 208.714C111.296 208.714 95.5063 217.83 95.5063 229.074C95.5063 240.318 111.296 249.433 130.773 249.433Z" fill="#FFDAB9"/>
<path d="M219.494 199.322C224.518 202.225 224.518 206.93 219.494 209.827C214.469 212.724 206.32 212.729 201.296 209.827C196.271 206.924 196.271 202.225 201.296 199.322C206.32 196.419 214.441 196.425 219.494 199.322Z" fill="#FFA653"/>
<path d="M187.757 21.9779C187.757 19.9762 185.561 18.5846 183.075 18.3508C180.143 18.0714 178.067 19.3774 177.993 21.687C176.083 20.9 174.058 21.4019 174.212 23.512C173.716 22.9417 171.851 22.9417 171.178 23.1128C170.815 23.2153 170.478 23.3953 170.19 23.6404C169.903 23.8855 169.672 24.1899 169.513 24.5328C169.352 24.8677 169.291 25.2418 169.336 25.6106C168.224 25.2456 165.681 25.0403 165.048 26.0498C163.907 27.869 168.435 27.926 169.342 27.3785C169.536 28.7929 174.389 29.0267 175.564 27.7207C176.482 28.6446 177.805 28.8613 179.225 28.9297C181.626 29.078 183.103 28.2625 184.974 27.3044C187.01 29.0153 190.534 29.0609 192.388 27.0877C192.855 27.5325 194.144 27.658 195.176 27.4185C195.855 27.2588 196.015 26.9679 196.015 26.9679C196.414 27.1389 196.831 27.2651 197.258 27.3443C198.592 27.6238 201.067 27.3443 200.029 26.1296C199.676 25.719 198.381 25.4624 197.828 25.5593C197.258 24.4187 194.92 23.3352 193.579 24.299C193.528 22.9132 192.262 21.8353 190.483 21.5559C189.867 21.4931 188.435 21.4133 187.757 21.9779Z" fill="url(#paint0_linear_5283_8903)"/>
<path d="M38.933 42.035C38.933 39.8279 36.5093 38.2938 33.8004 38.0429C30.5725 37.735 28.2857 39.1835 28.2058 41.7156C26.0957 40.8487 23.8716 41.4076 24.037 43.7287C23.4667 43.0957 21.4365 43.1128 20.7008 43.2896C20.2992 43.4035 19.9268 43.6025 19.609 43.8731C19.2911 44.1437 19.0353 44.4796 18.8587 44.8579C18.6827 45.2268 18.6174 45.6388 18.6705 46.0441C17.4387 45.6392 14.6386 45.394 13.9428 46.5231C12.6939 48.5306 17.6725 48.5933 18.6763 47.9888C18.8873 49.5514 24.2366 49.808 25.5197 48.3652C26.5292 49.3803 27.9834 49.6084 29.5517 49.6997C32.1979 49.8594 33.8175 48.964 35.8819 47.909C38.1403 49.8308 41.9955 49.8308 44.0143 47.6637C44.5333 48.1485 45.9533 48.3025 47.0882 48.0287C47.8353 47.8519 48.012 47.5326 48.012 47.5326C48.4522 47.7183 48.9111 47.856 49.3807 47.9432C50.8521 48.2511 53.5781 47.9432 52.4375 46.603C52.044 46.1582 50.6183 45.873 50.0138 46.0327C49.3693 44.7723 46.803 43.5804 45.3317 44.6469C45.2746 43.1185 43.8774 41.9266 41.9099 41.6243C41.2598 41.4989 39.6801 41.4133 38.933 42.035Z" fill="url(#paint1_linear_5283_8903)"/>
<path d="M249.93 42.0972C249.93 39.4453 247.027 37.6033 243.742 37.2953C239.87 36.9303 237.121 38.6583 237.03 41.7094C234.498 40.6658 231.823 41.333 232.028 44.116C231.367 43.3575 228.903 43.3803 228.036 43.5913C227.554 43.7271 227.108 43.9656 226.727 44.2905C226.346 44.6153 226.04 45.0189 225.829 45.4733C225.618 45.9167 225.539 46.4117 225.601 46.899C224.124 46.4143 220.765 46.1177 219.927 47.4693C218.433 49.8817 224.404 49.9558 225.63 49.2315C225.886 51.1021 232.302 51.41 233.853 49.6821C235.068 50.9025 236.813 51.1762 238.695 51.2846C241.872 51.4728 243.828 50.4006 246.291 49.1346C248.989 51.4157 253.642 51.4614 256.072 48.8494C256.688 49.4197 258.393 49.6136 259.762 49.2886C260.657 49.0719 260.868 48.7183 260.868 48.7183C261.396 48.9435 261.946 49.1098 262.51 49.2144C264.273 49.5851 267.546 49.2144 266.172 47.6062C265.704 47.0701 263.993 46.728 263.269 46.8933C262.499 45.3821 259.414 43.9506 257.646 45.2281C257.577 43.3975 255.907 41.966 253.551 41.601C252.724 41.4528 250.859 41.3501 249.93 42.0972Z" fill="#F5F5F5"/>
<path d="M94.953 21.3675C94.3351 21.1408 93.6835 21.0194 93.0254 21.0082C92.4038 20.9626 92.2042 20.8371 92.0844 20.7003C91.4873 19.8407 90.6145 19.2109 89.6105 18.9153C88.6065 18.6197 87.5316 18.676 86.564 19.0749C86.2935 18.2319 85.7157 17.5216 84.9454 17.0852C84.175 16.6488 83.2687 16.5183 82.4066 16.7196C82.475 14.7806 79.9942 12.6934 77.7701 12.22C75.6372 11.7695 73.7781 11.9577 72.5576 13.3606C71.2574 10.8171 66.1476 10.0986 63.3816 11.4444C61.7905 12.22 60.4446 13.0127 59.7831 14.4727C59.3576 15.3768 59.1617 16.3719 59.2128 17.3698C58.135 16.4174 55.9793 16.1608 54.5364 16.7196C52.9681 17.3241 52.837 18.4647 52.7628 19.6795C51.834 19.408 50.8494 19.3903 49.9114 19.6281C48.9761 19.919 48.4058 20.6832 48.5313 21.3162C47.7557 21.2763 45.9136 21.8865 46.1246 22.7134C46.3641 23.6316 48.4685 23.5403 49.2555 23.5118C49.9972 23.4529 50.7332 23.3366 51.4568 23.1639C51.8208 23.3046 52.2073 23.3781 52.5974 23.3806C53.9376 23.3806 54.5079 22.8104 54.7246 22.2971C55.3748 23.6772 57.7015 24.7265 59.3497 25.1485C62.4464 25.9413 66.8319 25.4565 68.7367 23.1411C68.9585 23.5837 69.2737 23.9728 69.6606 24.2817C70.479 24.9327 71.4704 25.3293 72.512 25.4223C73.7838 25.542 77.1998 25.7017 78.1579 23.7114C78.8422 25.0516 81.8819 25.6675 84.1916 25.3367C85.088 25.2033 85.9601 24.9401 86.7807 24.5554C87.293 24.2868 87.7899 23.9898 88.2692 23.6658C88.4523 23.5374 88.6671 23.4616 88.8903 23.4465C89.1134 23.4314 89.3364 23.4777 89.5352 23.5802C91.1682 24.1564 92.9493 24.1564 94.5823 23.5802C95.894 23.0271 96.162 21.915 94.953 21.3675Z" fill="url(#paint2_linear_5283_8903)"/>
<path d="M233.845 24.2562C238.311 19.7908 238.311 12.551 233.845 8.08559C229.38 3.6202 222.14 3.62021 217.675 8.0856C213.209 12.551 213.209 19.7908 217.675 24.2562C222.14 28.7216 229.38 28.7216 233.845 24.2562Z" fill="url(#paint3_linear_5283_8903)"/>
<path d="M176.642 145.988C177.042 145.989 177.435 145.885 177.782 145.685L202.139 131.622C203.451 130.863 204.54 129.773 205.297 128.461C206.055 127.149 206.455 125.661 206.457 124.146V96.0245C206.384 95.4765 206.114 94.9736 205.698 94.6094C205.282 94.2452 204.748 94.0444 204.195 94.0444C203.643 94.0444 203.108 94.2452 202.693 94.6094C202.277 94.9736 202.007 95.4765 201.934 96.0245V124.151C201.933 124.874 201.742 125.583 201.381 126.208C201.019 126.834 200.5 127.353 199.875 127.716L175.518 141.779C175.103 142.038 174.783 142.424 174.604 142.88C174.425 143.336 174.398 143.837 174.526 144.309C174.653 144.782 174.93 145.2 175.314 145.504C175.698 145.807 176.17 145.979 176.659 145.993L176.642 145.988Z" fill="#0C2C7E"/>
<path d="M226.366 174.064C226.766 174.065 227.159 173.96 227.506 173.761L251.863 159.698C253.174 158.938 254.262 157.848 255.02 156.536C255.777 155.224 256.177 153.736 256.18 152.221V124.089C256.107 123.541 255.838 123.038 255.422 122.674C255.006 122.31 254.472 122.109 253.919 122.109C253.366 122.109 252.832 122.31 252.416 122.674C252 123.038 251.731 123.541 251.658 124.089V152.221C251.657 152.942 251.466 153.65 251.106 154.275C250.746 154.899 250.228 155.418 249.605 155.78L225.248 169.843C224.83 170.102 224.507 170.488 224.327 170.945C224.146 171.402 224.118 171.904 224.246 172.378C224.374 172.852 224.652 173.273 225.038 173.576C225.424 173.88 225.897 174.051 226.388 174.064H226.366Z" fill="#0C2C7E"/>
<path d="M128.623 117.696C129.024 117.699 129.418 117.592 129.764 117.388L154.121 103.325C155.432 102.566 156.521 101.476 157.279 100.164C158.036 98.8515 158.436 97.3635 158.438 95.8484V67.733C158.365 67.185 158.096 66.6821 157.68 66.3179C157.264 65.9537 156.73 65.7529 156.177 65.7529C155.624 65.7529 155.09 65.9537 154.674 66.3179C154.258 66.6821 153.989 67.185 153.916 67.733V95.8598C153.914 96.5821 153.723 97.2913 153.362 97.9168C153.001 98.5422 152.482 99.062 151.857 99.4241L127.5 113.487C127.082 113.746 126.759 114.132 126.579 114.589C126.398 115.046 126.37 115.548 126.498 116.022C126.626 116.497 126.904 116.917 127.29 117.22C127.676 117.524 128.149 117.695 128.64 117.708L128.623 117.696Z" fill="#E0E0E0"/>
<path d="M222.151 171.264V197.292C222.172 197.518 222.253 197.734 222.385 197.919C222.518 198.103 222.697 198.249 222.904 198.341C223.467 198.625 224.09 198.773 224.721 198.773C225.351 198.773 225.974 198.625 226.537 198.341C226.743 198.248 226.921 198.102 227.052 197.918C227.184 197.733 227.264 197.517 227.284 197.292V171.264H222.151Z" fill="#0C2C7E"/>
<path d="M243.634 159.025V185.053C243.655 185.279 243.736 185.495 243.868 185.68C244 185.864 244.179 186.01 244.387 186.102C244.95 186.387 245.572 186.535 246.203 186.535C246.834 186.535 247.456 186.387 248.019 186.102C248.227 186.01 248.406 185.864 248.538 185.68C248.67 185.495 248.751 185.279 248.772 185.053V159.025H243.634Z" fill="#0C2C7E"/>
<path d="M124.489 114.873V140.907C124.51 141.133 124.591 141.349 124.724 141.533C124.856 141.717 125.035 141.863 125.242 141.956C125.805 142.24 126.427 142.389 127.058 142.389C127.689 142.389 128.311 142.24 128.874 141.956C129.081 141.863 129.26 141.717 129.392 141.533C129.525 141.349 129.606 141.133 129.627 140.907V114.873H124.489Z" fill="#E0E0E0"/>
<path d="M145.978 102.635V128.669C145.999 128.894 146.08 129.111 146.212 129.295C146.345 129.479 146.523 129.625 146.73 129.718C147.293 130.002 147.914 130.15 148.544 130.15C149.174 130.15 149.795 130.002 150.357 129.718C150.564 129.625 150.743 129.479 150.875 129.295C151.008 129.111 151.089 128.894 151.11 128.669V102.635H145.978Z" fill="#E0E0E0"/>
<path d="M261.204 130.476L261.655 130.214C262.038 129.964 262.356 129.627 262.583 129.231C262.81 128.834 262.939 128.389 262.961 127.933V123.878C262.939 123.422 262.809 122.977 262.582 122.581C262.355 122.184 262.037 121.847 261.655 121.597L154.292 59.6516C153.889 59.4445 153.442 59.3364 152.989 59.3364C152.536 59.3364 152.089 59.4445 151.686 59.6516L151.235 59.9139C150.85 60.1615 150.531 60.498 150.304 60.8951C150.076 61.2921 149.948 61.738 149.929 62.1951V66.2499C149.948 66.707 150.076 67.1529 150.304 67.5499C150.531 67.947 150.85 68.2835 151.235 68.531L258.593 130.522C259.001 130.72 259.45 130.819 259.904 130.811C260.358 130.803 260.803 130.689 261.204 130.476Z" fill="#2254B5"/>
<path d="M256.842 125.926L262.579 122.612C262.813 123.003 262.944 123.446 262.962 123.901V127.962C262.943 128.419 262.814 128.865 262.587 129.262C262.36 129.659 262.04 129.995 261.656 130.243L261.205 130.505C260.8 130.711 260.353 130.818 259.899 130.818C259.445 130.818 258.998 130.711 258.593 130.505L256.842 129.49V125.926Z" fill="#0C2C7E"/>
<path d="M258.593 123.399L151.235 61.4197C150.511 61.0034 149.929 61.3399 149.929 62.1725V66.2273C149.948 66.6844 150.076 67.1303 150.304 67.5273C150.531 67.9244 150.85 68.2609 151.235 68.5085L258.593 130.499C259.317 130.915 259.899 130.573 259.899 129.741V125.68C259.877 125.224 259.748 124.779 259.521 124.382C259.294 123.985 258.976 123.648 258.593 123.399Z" fill="#5595E7"/>
<path d="M261.204 142.869L261.655 142.612C262.037 142.362 262.355 142.025 262.582 141.628C262.809 141.232 262.939 140.787 262.961 140.331V136.276C262.939 135.82 262.81 135.375 262.583 134.978C262.356 134.582 262.038 134.245 261.655 133.995L154.292 72.073C153.889 71.8659 153.442 71.7578 152.989 71.7578C152.536 71.7578 152.089 71.8659 151.686 72.073L151.235 72.3296C150.852 72.5789 150.534 72.9159 150.307 73.3125C150.08 73.7092 149.95 74.1542 149.929 74.6108V78.6656C149.948 79.1227 150.076 79.5686 150.304 79.9656C150.531 80.3626 150.85 80.6992 151.235 80.9467L258.593 142.869C258.997 143.074 259.445 143.181 259.899 143.181C260.352 143.181 260.8 143.074 261.204 142.869Z" fill="#2254B5"/>
<path d="M256.842 138.323L262.579 135.01C262.814 135.398 262.945 135.84 262.962 136.293V140.348C262.94 140.804 262.811 141.249 262.584 141.646C262.357 142.043 262.039 142.38 261.656 142.629L261.205 142.886C260.8 143.091 260.353 143.198 259.899 143.198C259.445 143.198 258.998 143.091 258.593 142.886L256.842 141.87V138.323Z" fill="#0C2C7E"/>
<path d="M258.593 135.803L151.235 73.8182C150.511 73.4019 149.929 73.7383 149.929 74.571V78.6257C149.948 79.0828 150.076 79.5287 150.304 79.9258C150.531 80.3228 150.85 80.6593 151.235 80.9069L258.593 142.869C259.317 143.285 259.899 142.949 259.899 142.116V138.062C259.876 137.608 259.746 137.167 259.519 136.774C259.292 136.381 258.974 136.049 258.593 135.803Z" fill="#5595E7"/>
<path d="M261.204 155.267L261.655 155.005C262.038 154.755 262.356 154.418 262.583 154.022C262.81 153.625 262.939 153.18 262.961 152.724V148.669C262.942 148.212 262.814 147.766 262.587 147.369C262.359 146.972 262.04 146.635 261.655 146.388L154.292 84.4426C153.889 84.2355 153.442 84.1274 152.989 84.1274C152.536 84.1274 152.089 84.2355 151.686 84.4426L151.235 84.705C150.85 84.9525 150.531 85.2891 150.304 85.6861C150.076 86.0831 149.948 86.529 149.929 86.9861V91.0409C149.95 91.4975 150.08 91.9425 150.307 92.3392C150.534 92.7358 150.852 93.0727 151.235 93.3221L258.593 155.267C258.997 155.473 259.445 155.58 259.899 155.58C260.352 155.58 260.8 155.473 261.204 155.267Z" fill="#2254B5"/>
<path d="M256.842 150.716L262.579 147.402C262.813 147.793 262.944 148.236 262.962 148.691V152.746C262.943 153.203 262.814 153.649 262.587 154.046C262.36 154.443 262.04 154.78 261.656 155.027L261.205 155.289C260.8 155.495 260.353 155.602 259.899 155.602C259.445 155.602 258.998 155.495 258.593 155.289L256.842 154.274V150.716Z" fill="#0C2C7E"/>
<path d="M258.593 148.195L151.235 86.2103C150.511 85.7939 149.929 86.1304 149.929 86.9631V91.0178C149.95 91.4744 150.08 91.9194 150.307 92.3161C150.534 92.7128 150.852 93.0497 151.235 93.299L258.593 155.267C259.317 155.683 259.899 155.347 259.899 154.514V150.459C259.875 150.006 259.744 149.564 259.517 149.171C259.29 148.777 258.973 148.443 258.593 148.195Z" fill="#5595E7"/>
<path d="M256.842 162.749V163.319C256.82 163.776 256.691 164.221 256.464 164.617C256.237 165.014 255.919 165.351 255.536 165.6L252 167.579C251.595 167.785 251.148 167.892 250.694 167.892C250.24 167.892 249.793 167.785 249.388 167.579L142.048 105.594C141.666 105.344 141.35 105.006 141.124 104.61C140.898 104.213 140.769 103.769 140.748 103.313V102.794C140.768 102.338 140.897 101.893 141.123 101.497C141.349 101.1 141.666 100.763 142.048 100.513L145.561 98.4828C145.966 98.2775 146.413 98.1704 146.867 98.1704C147.321 98.1704 147.768 98.2775 148.173 98.4828L255.536 160.508C255.913 160.754 256.227 161.085 256.454 161.474C256.68 161.863 256.813 162.3 256.842 162.749Z" fill="#2254B5"/>
<path d="M250.717 161.266V167.882C251.172 167.889 251.621 167.781 252.023 167.568L255.536 165.538C255.919 165.288 256.237 164.951 256.464 164.555C256.691 164.158 256.82 163.713 256.842 163.257V162.749C256.819 162.293 256.689 161.848 256.462 161.452C256.235 161.055 255.918 160.718 255.536 160.468L253.779 159.458L250.717 161.266Z" fill="#0C2C7E"/>
<path d="M249.411 164.044L142.048 102.059C141.89 102.006 141.752 101.906 141.654 101.77C141.557 101.635 141.504 101.473 141.504 101.306C141.504 101.139 141.557 100.977 141.654 100.841C141.752 100.706 141.89 100.605 142.048 100.553L145.561 98.5229C145.966 98.3175 146.413 98.2104 146.867 98.2104C147.321 98.2104 147.768 98.3175 148.173 98.5229L255.536 160.508C255.694 160.562 255.831 160.663 255.928 160.799C256.025 160.934 256.077 161.097 256.077 161.263C256.077 161.43 256.025 161.593 255.928 161.728C255.831 161.864 255.694 161.965 255.536 162.019L252 164.044C251.599 164.245 251.155 164.35 250.706 164.35C250.256 164.35 249.813 164.245 249.411 164.044Z" fill="#5595E7"/>
<path d="M246.126 168.954V169.473C246.105 169.929 245.976 170.374 245.749 170.771C245.522 171.168 245.204 171.505 244.82 171.754L241.313 173.779C240.909 173.984 240.461 174.091 240.007 174.091C239.553 174.091 239.106 173.984 238.701 173.779L131.338 111.776C130.955 111.527 130.637 111.19 130.41 110.793C130.183 110.397 130.054 109.952 130.032 109.495V108.976C130.055 108.52 130.185 108.076 130.412 107.679C130.639 107.283 130.956 106.946 131.338 106.695L134.851 104.671C135.254 104.464 135.701 104.355 136.154 104.355C136.608 104.355 137.054 104.464 137.457 104.671L244.82 166.696C245.202 166.941 245.52 167.274 245.747 167.667C245.974 168.059 246.104 168.501 246.126 168.954Z" fill="#2254B5"/>
<path d="M240.024 167.448V174.075C240.479 174.085 240.929 173.977 241.33 173.761L244.837 171.737C245.22 171.487 245.539 171.15 245.766 170.754C245.993 170.357 246.122 169.912 246.143 169.455V168.936C246.124 168.479 245.996 168.033 245.769 167.636C245.541 167.239 245.222 166.903 244.837 166.655L243.086 165.64L240.024 167.448Z" fill="#0C2C7E"/>
<path d="M238.701 170.231L131.338 108.246C131.18 108.192 131.043 108.09 130.946 107.955C130.849 107.819 130.797 107.657 130.797 107.49C130.797 107.324 130.849 107.161 130.946 107.026C131.043 106.89 131.18 106.789 131.338 106.735L134.851 104.71C135.254 104.503 135.701 104.395 136.154 104.395C136.607 104.395 137.054 104.503 137.457 104.71L244.82 166.695C245.545 167.111 245.545 167.784 244.82 168.201L241.313 170.231C240.908 170.436 240.461 170.543 240.007 170.543C239.553 170.543 239.106 170.436 238.701 170.231Z" fill="#5595E7"/>
<path d="M235.416 175.142V175.661C235.395 176.117 235.265 176.562 235.038 176.959C234.811 177.355 234.493 177.692 234.11 177.942L230.597 179.972C230.194 180.179 229.747 180.287 229.294 180.287C228.841 180.287 228.394 180.179 227.991 179.972L120.628 117.964C120.245 117.715 119.926 117.378 119.699 116.982C119.472 116.585 119.343 116.14 119.322 115.683V115.164C119.34 114.707 119.469 114.261 119.696 113.864C119.924 113.467 120.243 113.131 120.628 112.883L124.135 110.853C124.54 110.648 124.987 110.541 125.441 110.541C125.895 110.541 126.342 110.648 126.747 110.853L234.11 172.878C234.49 173.127 234.806 173.461 235.033 173.854C235.26 174.248 235.391 174.689 235.416 175.142Z" fill="#2254B5"/>
<path d="M229.296 173.63V180.257C229.749 180.265 230.196 180.159 230.597 179.949L234.11 177.919C234.492 177.669 234.81 177.332 235.037 176.935C235.264 176.539 235.394 176.094 235.416 175.637V175.118C235.393 174.662 235.263 174.218 235.036 173.821C234.809 173.425 234.492 173.088 234.11 172.837L232.353 171.874L229.296 173.63Z" fill="#0C2C7E"/>
<path d="M227.991 176.436L120.628 114.428C119.903 114.012 119.903 113.339 120.628 112.923L124.135 110.893C124.54 110.687 124.987 110.58 125.441 110.58C125.895 110.58 126.342 110.687 126.747 110.893L234.11 172.877C234.268 172.931 234.405 173.033 234.501 173.169C234.598 173.304 234.651 173.467 234.651 173.633C234.651 173.8 234.598 173.962 234.501 174.098C234.405 174.233 234.268 174.335 234.11 174.389L230.597 176.436C230.194 176.643 229.747 176.751 229.294 176.751C228.841 176.751 228.394 176.643 227.991 176.436Z" fill="#5595E7"/>
<path d="M253.911 123.12C254.155 123.281 254.358 123.497 254.504 123.75C254.649 124.004 254.733 124.288 254.749 124.58C254.749 125.11 254.373 125.333 253.911 125.065C253.665 124.905 253.461 124.69 253.314 124.436C253.167 124.182 253.083 123.897 253.067 123.605C253.067 123.069 253.443 122.829 253.911 123.12Z" fill="#EFF6FF"/>
<path d="M253.911 135.489C254.155 135.65 254.358 135.866 254.504 136.12C254.649 136.373 254.733 136.657 254.749 136.949C254.749 137.48 254.373 137.702 253.911 137.434C253.665 137.275 253.461 137.059 253.314 136.805C253.167 136.552 253.083 136.267 253.067 135.974C253.067 135.438 253.443 135.221 253.911 135.489Z" fill="#EFF6FF"/>
<path d="M253.911 147.859C254.155 148.02 254.358 148.236 254.504 148.489C254.649 148.743 254.733 149.027 254.749 149.319C254.749 149.849 254.373 150.072 253.911 149.804C253.665 149.644 253.461 149.429 253.314 149.175C253.167 148.921 253.083 148.636 253.067 148.344C253.067 147.808 253.443 147.591 253.911 147.859Z" fill="#EFF6FF"/>
<path d="M156.191 66.7916C156.437 66.9512 156.641 67.1667 156.788 67.4204C156.935 67.6741 157.019 67.9589 157.035 68.2516C157.035 68.7877 156.659 69.0044 156.191 68.7363C155.947 68.5754 155.744 68.3595 155.598 68.106C155.453 67.8525 155.369 67.5683 155.353 67.2764C155.324 66.746 155.7 66.5236 156.191 66.7916Z" fill="#E0E0E0"/>
<path d="M156.191 79.1614C156.437 79.321 156.641 79.5365 156.788 79.7902C156.935 80.0439 157.019 80.3287 157.035 80.6214C157.035 81.1574 156.659 81.3741 156.191 81.1061C155.947 80.9461 155.744 80.7312 155.599 80.4786C155.453 80.2261 155.369 79.9429 155.353 79.6519C155.324 79.1158 155.7 78.9162 156.191 79.1614Z" fill="#E0E0E0"/>
<path d="M156.191 91.5309C156.437 91.6905 156.641 91.906 156.788 92.1597C156.935 92.4134 157.019 92.6982 157.035 92.9909C157.035 93.5269 156.659 93.7437 156.191 93.4756C155.947 93.3156 155.744 93.1007 155.599 92.8482C155.453 92.5956 155.369 92.3124 155.353 92.0214C155.324 91.4625 155.7 91.2686 156.191 91.5309Z" fill="#EFF6FF"/>
<path d="M246.941 158.068C247.029 158.099 247.105 158.156 247.159 158.232C247.213 158.308 247.242 158.399 247.242 158.492C247.242 158.586 247.213 158.677 247.159 158.753C247.105 158.829 247.029 158.886 246.941 158.917C246.713 159.035 246.46 159.097 246.203 159.097C245.946 159.097 245.693 159.035 245.464 158.917C245.376 158.886 245.3 158.829 245.246 158.753C245.193 158.677 245.164 158.586 245.164 158.492C245.164 158.399 245.193 158.308 245.246 158.232C245.3 158.156 245.376 158.099 245.464 158.068C245.693 157.952 245.946 157.892 246.203 157.892C246.459 157.892 246.712 157.952 246.941 158.068Z" fill="#EFF6FF"/>
<path d="M236.197 164.301C236.608 164.535 236.608 164.917 236.197 165.156C235.969 165.272 235.717 165.332 235.462 165.332C235.206 165.332 234.954 165.272 234.726 165.156C234.315 164.917 234.315 164.535 234.726 164.301C234.954 164.187 235.206 164.127 235.462 164.127C235.717 164.127 235.969 164.187 236.197 164.301Z" fill="#EFF6FF"/>
<path d="M225.459 170.539C225.546 170.57 225.623 170.628 225.676 170.704C225.73 170.78 225.759 170.871 225.759 170.964C225.759 171.058 225.73 171.148 225.676 171.225C225.623 171.301 225.546 171.358 225.459 171.389C225.229 171.505 224.977 171.565 224.72 171.565C224.464 171.565 224.211 171.505 223.982 171.389C223.891 171.361 223.811 171.305 223.755 171.228C223.699 171.152 223.668 171.059 223.668 170.964C223.668 170.869 223.699 170.777 223.755 170.7C223.811 170.624 223.891 170.568 223.982 170.539C224.21 170.421 224.463 170.36 224.72 170.36C224.977 170.36 225.23 170.421 225.459 170.539Z" fill="#EFF6FF"/>
<path d="M149.279 101.728C149.367 101.759 149.443 101.816 149.497 101.893C149.551 101.969 149.58 102.06 149.58 102.153C149.58 102.246 149.551 102.337 149.497 102.413C149.443 102.489 149.367 102.547 149.279 102.578C149.05 102.693 148.797 102.753 148.541 102.753C148.284 102.753 148.031 102.693 147.802 102.578C147.714 102.547 147.638 102.489 147.584 102.413C147.53 102.337 147.501 102.246 147.501 102.153C147.501 102.06 147.53 101.969 147.584 101.893C147.638 101.816 147.714 101.759 147.802 101.728C148.03 101.61 148.284 101.548 148.541 101.548C148.798 101.548 149.051 101.61 149.279 101.728Z" fill="#E0E0E0"/>
<path d="M138.541 107.95C138.629 107.981 138.705 108.039 138.758 108.115C138.812 108.191 138.841 108.282 138.841 108.375C138.841 108.468 138.812 108.559 138.758 108.635C138.705 108.712 138.629 108.769 138.541 108.8C138.312 108.918 138.059 108.98 137.802 108.98C137.545 108.98 137.292 108.918 137.064 108.8C136.973 108.772 136.894 108.715 136.837 108.639C136.781 108.563 136.75 108.47 136.75 108.375C136.75 108.28 136.781 108.188 136.837 108.111C136.894 108.035 136.973 107.978 137.064 107.95C137.293 107.835 137.546 107.775 137.802 107.775C138.059 107.775 138.312 107.835 138.541 107.95Z" fill="#E0E0E0"/>
<path d="M127.796 114.183C127.886 114.213 127.964 114.27 128.02 114.347C128.075 114.424 128.105 114.516 128.105 114.611C128.105 114.706 128.075 114.798 128.02 114.875C127.964 114.952 127.886 115.009 127.796 115.039C127.567 115.154 127.314 115.214 127.058 115.214C126.801 115.214 126.548 115.154 126.319 115.039C126.229 115.009 126.151 114.952 126.096 114.875C126.04 114.798 126.01 114.706 126.01 114.611C126.01 114.516 126.04 114.424 126.096 114.347C126.151 114.27 126.229 114.213 126.319 114.183C126.548 114.068 126.801 114.008 127.058 114.008C127.314 114.008 127.567 114.068 127.796 114.183Z" fill="#E0E0E0"/>
<path d="M204.187 95.0778C204.431 95.2375 204.634 95.4523 204.779 95.7049C204.925 95.9576 205.009 96.2409 205.025 96.5321C205.025 97.0681 204.649 97.2848 204.187 97.0168C203.941 96.8585 203.737 96.6441 203.59 96.3913C203.443 96.1384 203.358 95.8544 203.343 95.5626C203.343 95.0265 203.719 94.8098 204.187 95.0778Z" fill="#EFF6FF"/>
<path d="M204.187 107.431C204.431 107.591 204.634 107.806 204.779 108.058C204.925 108.311 205.009 108.594 205.025 108.885C205.025 109.421 204.649 109.638 204.187 109.37C203.941 109.212 203.737 108.997 203.59 108.745C203.443 108.492 203.358 108.208 203.343 107.916C203.343 107.397 203.719 107.18 204.187 107.431Z" fill="#EFF6FF"/>
<path d="M204.187 119.818C204.431 119.977 204.634 120.192 204.779 120.445C204.925 120.697 205.009 120.981 205.025 121.272C205.025 121.808 204.649 122.025 204.187 121.757C203.941 121.598 203.737 121.384 203.59 121.131C203.443 120.878 203.358 120.594 203.343 120.302C203.343 119.766 203.719 119.55 204.187 119.818Z" fill="#EFF6FF"/>
<path d="M197.298 129.998C197.709 130.237 197.709 130.619 197.298 130.853C197.069 130.968 196.816 131.028 196.56 131.028C196.303 131.028 196.05 130.968 195.821 130.853C195.411 130.619 195.411 130.237 195.821 129.998C196.05 129.881 196.303 129.821 196.56 129.821C196.816 129.821 197.069 129.881 197.298 129.998Z" fill="#EFF6FF"/>
<path d="M186.559 136.236C186.647 136.267 186.723 136.324 186.777 136.4C186.831 136.476 186.86 136.567 186.86 136.661C186.86 136.754 186.831 136.845 186.777 136.921C186.723 136.997 186.647 137.054 186.559 137.085C186.33 137.201 186.077 137.261 185.821 137.261C185.564 137.261 185.311 137.201 185.082 137.085C184.994 137.054 184.918 136.997 184.865 136.921C184.811 136.845 184.782 136.754 184.782 136.661C184.782 136.567 184.811 136.476 184.865 136.4C184.918 136.324 184.994 136.267 185.082 136.236C185.311 136.118 185.564 136.056 185.821 136.056C186.078 136.056 186.331 136.118 186.559 136.236Z" fill="#EFF6FF"/>
<path d="M175.815 142.47C175.906 142.498 175.985 142.554 176.041 142.631C176.098 142.707 176.128 142.8 176.128 142.895C176.128 142.99 176.098 143.082 176.041 143.159C175.985 143.235 175.906 143.291 175.815 143.32C175.588 143.438 175.335 143.499 175.079 143.499C174.823 143.499 174.571 143.438 174.344 143.32C174.256 143.289 174.18 143.231 174.126 143.155C174.072 143.079 174.043 142.988 174.043 142.895C174.043 142.802 174.072 142.711 174.126 142.634C174.18 142.558 174.256 142.501 174.344 142.47C174.572 142.355 174.824 142.296 175.079 142.296C175.335 142.296 175.587 142.355 175.815 142.47Z" fill="#EFF6FF"/>
<path d="M219.02 190.015C218.673 188.767 218.205 187.556 217.622 186.4C217.56 186.268 217.497 186.137 217.428 186.006C216.869 184.922 216.586 183.717 216.604 182.497C216.622 181.278 216.94 180.081 217.531 179.014L217.651 178.792C218.384 177.547 218.759 176.124 218.734 174.68C218.69 173.89 218.453 173.123 218.045 172.445C217.636 171.767 217.068 171.199 216.391 170.791C216.041 170.588 215.677 170.411 215.301 170.26C214.956 170.125 214.659 169.891 214.447 169.586C214.236 169.281 214.12 168.92 214.115 168.549V166.417H207.3V168.544C207.296 168.916 207.18 169.278 206.968 169.583C206.755 169.888 206.456 170.122 206.108 170.255C205.73 170.399 205.363 170.575 205.013 170.779C204.331 171.18 203.758 171.742 203.343 172.417C202.928 173.091 202.685 173.856 202.635 174.646C202.603 176.09 202.966 177.516 203.684 178.769L203.799 178.974C204.384 180.047 204.696 181.247 204.706 182.469C204.716 183.691 204.424 184.896 203.856 185.978C203.787 186.109 203.724 186.24 203.662 186.371C203.068 187.524 202.59 188.733 202.236 189.981C201.99 191.187 201.877 192.417 201.899 193.648L201.865 203.565C201.865 204.854 202.704 206.143 204.397 207.13C205.916 207.961 207.597 208.452 209.325 208.567C210.143 208.635 210.965 208.635 211.783 208.567C213.501 208.458 215.176 207.979 216.693 207.164C218.404 206.194 219.248 204.883 219.253 203.628L219.282 196.454C219.282 195.558 219.316 194.623 219.322 193.688C219.356 192.456 219.255 191.225 219.02 190.015Z" fill="#BA68C8"/>
<path opacity="0.15" d="M217.531 179.014L217.651 178.792C218.272 177.731 218.635 176.54 218.711 175.313C218.558 175.808 218.341 176.282 218.067 176.722C217.227 177.953 216.188 179.036 214.993 179.927C213.852 180.879 212.529 181.963 212.387 183.468C212.244 184.974 213.271 186.24 214.434 187.118C215.598 187.996 216.961 188.612 218.01 189.627C218.458 190.077 218.856 190.574 219.196 191.11C219.158 190.742 219.099 190.377 219.019 190.015C218.672 188.767 218.204 187.556 217.622 186.399C217.559 186.268 217.497 186.137 217.428 186.006C216.869 184.922 216.586 183.717 216.603 182.497C216.621 181.278 216.94 180.081 217.531 179.014Z" fill="black"/>
<path d="M206.16 168.761V169.901C206.16 170.58 206.604 171.27 207.505 171.8C208.519 172.318 209.64 172.59 210.778 172.595C211.917 172.6 213.04 172.338 214.058 171.829C214.457 171.612 214.804 171.311 215.073 170.945C215.29 170.656 215.409 170.307 215.415 169.947V168.778C215.418 168.674 215.407 168.57 215.381 168.47C215.29 168.126 215.126 167.807 214.9 167.533C214.673 167.259 214.39 167.038 214.07 166.884L214.001 166.844C212.995 166.344 211.886 166.083 210.762 166.083C209.638 166.083 208.529 166.344 207.523 166.844C207.202 166.997 206.917 167.217 206.688 167.488C206.459 167.759 206.291 168.077 206.194 168.418C206.167 168.53 206.155 168.645 206.16 168.761Z" fill="#37474F"/>
<path d="M214.052 170.671C215.866 169.633 215.872 167.939 214.052 166.89C213.04 166.372 211.919 166.1 210.782 166.095C209.645 166.09 208.522 166.352 207.505 166.861C205.692 167.899 205.686 169.593 207.505 170.642C208.517 171.162 209.638 171.436 210.775 171.441C211.913 171.446 213.036 171.182 214.052 170.671Z" fill="#263238"/>
<path d="M206.16 167.42V168.11C206.157 168.219 206.168 168.329 206.194 168.435C206.287 168.778 206.453 169.096 206.68 169.369C206.908 169.641 207.191 169.862 207.511 170.015C208.399 170.503 209.39 170.771 210.403 170.796C211.668 170.887 212.933 170.624 214.058 170.038C214.458 169.822 214.806 169.522 215.079 169.159C215.227 168.955 215.33 168.722 215.381 168.475C215.407 168.373 215.418 168.267 215.415 168.161V167.449C215.382 167.04 215.24 166.649 215.003 166.314C214.766 165.98 214.444 165.716 214.07 165.549C213.99 165.504 213.91 165.458 213.824 165.418C212.833 164.963 211.752 164.737 210.661 164.755C209.57 164.774 208.498 165.038 207.523 165.527C206.616 166.046 206.16 166.741 206.16 167.42Z" fill="#37474F"/>
<path d="M206.159 167.398C206.159 168.869 208.224 170.067 210.779 170.078C213.333 170.09 215.415 168.903 215.421 167.438C215.426 165.972 213.356 164.763 210.801 164.757C208.246 164.752 206.165 165.932 206.159 167.398Z" fill="#455A64"/>
<path d="M209.227 164.666V167.067C209.225 167.105 209.225 167.143 209.227 167.181C209.258 167.303 209.314 167.418 209.393 167.516C209.472 167.614 209.571 167.695 209.684 167.751C209.993 167.916 210.337 168.008 210.687 168.019C211.126 168.05 211.564 167.959 211.953 167.757C212.09 167.68 212.21 167.578 212.307 167.455C212.359 167.384 212.394 167.302 212.41 167.215C212.415 167.179 212.415 167.143 212.41 167.107V164.7C212.399 164.559 212.35 164.424 212.269 164.309C212.187 164.193 212.077 164.102 211.948 164.044L211.862 163.999C211.519 163.84 211.144 163.761 210.766 163.767C210.388 163.773 210.016 163.864 209.678 164.033C209.555 164.091 209.449 164.18 209.371 164.291C209.292 164.402 209.242 164.531 209.227 164.666Z" fill="#37474F"/>
<path d="M209.228 164.66C209.228 165.167 209.941 165.584 210.825 165.59C211.709 165.595 212.433 165.185 212.433 164.671C212.433 164.158 211.72 163.747 210.836 163.742C209.952 163.736 209.228 164.152 209.228 164.66Z" fill="#455A64"/>
<path d="M210.231 164.665C210.231 164.842 210.488 164.99 210.801 164.996C211.115 165.002 211.372 164.848 211.372 164.671C211.372 164.494 211.115 164.34 210.801 164.34C210.488 164.34 210.231 164.46 210.231 164.665Z" fill="#263238"/>
<path d="M94.4569 207.279C93.1224 207.279 91.7822 207.279 90.4249 207.211C78.004 206.772 69.4952 203.39 65.1325 197.162C57.7187 186.566 63.1251 169.891 67.4707 156.489C68.3318 153.843 69.1416 151.356 69.7918 149.075C74.8902 131.265 74.8388 122.306 74.8046 116.951C74.8046 114.293 74.8046 112.691 75.449 111.425C75.4904 111.367 75.5511 111.327 75.6198 111.312C75.6886 111.296 75.7607 111.306 75.8228 111.339C75.8849 111.373 75.9327 111.427 75.9573 111.494C75.9819 111.56 75.9817 111.632 75.9566 111.698C75.3464 112.839 75.3578 114.379 75.3863 116.945C75.4148 121.981 75.4719 131.345 70.3506 149.229C69.7005 151.51 68.885 154.025 68.0239 156.677C63.7181 169.959 58.3574 186.486 65.6115 196.843C69.8659 202.922 78.2207 206.219 90.4534 206.652C129.461 208.021 159.516 189.492 182.327 149.982C197.999 122.842 200.531 98.9352 198.518 95.9526C198.313 95.6504 198.142 95.6789 198.079 95.6846C198.003 95.6952 197.926 95.6753 197.866 95.6293C197.805 95.5833 197.764 95.515 197.754 95.4394C197.743 95.3637 197.763 95.287 197.809 95.226C197.855 95.1651 197.923 95.1249 197.999 95.1143C198.197 95.0919 198.396 95.1287 198.573 95.2201C198.75 95.3115 198.895 95.4533 198.991 95.6276C201.523 99.3744 198.039 123.903 182.824 150.261C160.679 188.591 131.743 207.279 94.4569 207.279Z" fill="#263238"/>
<path d="M152.769 88.6808L120.542 85.6069C120.542 85.6069 134.97 128.983 137.109 137.868C134.098 139.619 125.937 142.665 120.354 150.632C117.28 155.011 113.51 161.496 110.145 164.963C110.242 164.963 109.164 165.471 108.702 165.721C108.058 166.064 107.397 166.377 106.752 166.714L102.663 168.83C102.162 169.054 101.703 169.363 101.306 169.742C101.039 170.05 100.831 170.404 100.69 170.786C99.6006 173.54 100.81 176.614 100.855 179.574C100.907 183.144 99.2414 186.663 99.8059 190.193C100.336 193.466 102.72 196.152 105.389 198.12C106.083 198.701 106.903 199.113 107.784 199.323C108.238 199.384 108.7 199.354 109.142 199.235C109.584 199.116 109.998 198.911 110.361 198.631C110.723 198.351 111.026 198.001 111.252 197.603C111.479 197.205 111.624 196.766 111.679 196.312C111.683 195.556 111.589 194.803 111.4 194.071C111.145 192.513 111.016 190.938 111.012 189.36C110.889 187.341 110.964 185.314 111.235 183.309C111.481 181.924 111.889 180.573 112.449 179.283C112.964 178.073 113.662 176.949 114.519 175.953C115.185 175.077 115.951 174.283 116.801 173.586C117.907 172.713 119.852 171.156 120.998 170.335C129.963 163.942 137.189 159.425 146.946 152.793C156.02 146.617 158.985 144.239 159.128 138.405C159.39 127.843 159.504 126.046 157.331 109.536C155.455 95.4559 152.769 88.6808 152.769 88.6808Z" fill="#F2B9A4"/>
<path d="M159.424 127.7C159.424 127.7 158.654 115.553 156.989 106.092C154.924 94.3894 154.365 93.2431 152.763 88.6808L120.256 85.6069L132.597 123.577L136.726 137.714C130.799 140.196 125.513 143.99 121.266 148.812C119.817 150.614 115.985 157.144 115.985 157.144C115.985 157.144 116.447 159.619 118.836 163.418C119.492 164.504 120.371 165.438 121.417 166.157C122.462 166.876 123.649 167.363 124.899 167.586C124.899 167.586 143.758 155.399 148.64 152.029C153.521 148.658 157.126 146.103 158.403 143.372C159.681 140.64 159.698 136.728 159.424 127.7Z" fill="#5595E7"/>
<path d="M153.339 99.1108H124.671L132.621 123.576L136.75 137.714C131.916 139.745 127.496 142.645 123.707 146.268L129.912 158.005C128.944 160.367 128.366 162.871 128.201 165.419C133.83 161.774 145.053 154.48 148.657 151.988C150.243 150.893 151.691 149.884 152.974 148.931L146.701 112.952C146.701 112.952 154.754 107.637 153.339 99.1108Z" fill="#0C2C7E"/>
<path d="M111.349 187.062C111.451 183.857 113.339 179.819 114.309 178.188C116.054 175.251 117.844 174.276 116.778 173.586L116.362 173.877C113.813 174.419 110.995 172.525 109.889 172.286C108.783 172.046 107.18 176.437 106.347 179.859C105.694 182.609 105.567 185.457 105.971 188.254L111.349 187.062Z" fill="#5595E7"/>
<path d="M108.725 200.35C108.212 200.92 107.465 201.091 104.511 199.637C101.899 198.348 99.9483 194.903 98.4598 191.687C96.9713 188.47 97.5416 184.182 98.3343 181.69C99.0527 178.99 99.2003 176.169 98.7677 173.409C98.4655 171.635 98.3457 171.43 98.9902 170.866C99.6346 170.301 100.228 169.845 100.228 169.845L108.725 200.35Z" fill="#EBEBEB"/>
<path d="M109.039 165.858C107.978 166.873 107.693 167.404 107.676 169.092C107.661 170.147 108.005 171.177 108.651 172.012C109.307 172.839 107.556 175.855 106.712 179.602C106.142 182.203 105.817 186.856 106.211 187.352C107.14 186.68 109.82 186.503 111.343 186.811C111.367 189.212 111.557 191.61 111.913 193.985C112.392 196.671 112.957 197.144 112.159 198.228C111.708 198.844 109.763 200.309 108.44 200.247C107.477 200.207 103.77 198.593 100.964 193.877C98.3462 189.474 99.253 186.166 99.9373 182.066C100.508 178.644 100.508 176.443 100.245 174.943C99.8974 172.724 99.5723 171.185 100.211 169.845C100.955 168.842 101.935 168.037 103.063 167.501C105.03 166.52 106.661 165.978 108.15 165.048C108.449 164.879 108.785 164.783 109.129 164.768C109.473 164.753 109.815 164.82 110.128 164.963C109.872 165.214 109.387 165.602 109.039 165.858Z" fill="#0C2C7E"/>
<path d="M110.847 197.453C109.706 198.023 109.313 198.206 108.628 199.164C108.46 199.517 108.187 199.811 107.846 200.005C107.506 200.198 107.114 200.283 106.724 200.247C105.013 200.048 103.245 198.474 102.606 197.795C101.967 197.116 99.5152 194.003 98.6141 191.721C97.581 189.247 97.3497 186.51 97.9526 183.897C98.7054 180.606 99.1274 179.454 99.0532 176.181C98.9791 172.907 98.4259 172.081 98.5628 171.385C98.3577 171.559 98.167 171.75 97.9925 171.955C97.8784 173.181 98.6198 173.962 98.4088 178.377C98.329 179.962 97.7359 182.18 97.3196 183.983C96.7606 186.726 97.0265 189.574 98.0838 192.166C99.2243 195.086 101.397 198.776 105.155 200.51C106.146 200.939 107.226 201.12 108.303 201.037C109.379 200.953 110.419 200.608 111.332 200.03C111.942 199.557 112.535 197.852 112.512 197.379C112.535 196.763 111.788 196.968 110.847 197.453Z" fill="#455A64"/>
<path d="M105.891 188.02C107.842 186.805 111.223 187.153 111.366 187.803V188.145C111.366 188.145 111.628 188.145 111.628 187.239C111.497 186.611 111.058 186.195 109.25 186.161C108.037 186.127 106.832 186.369 105.726 186.868C105.726 186.868 105.492 187.843 105.891 188.02Z" fill="#EFF6FF"/>
<path d="M106.005 184.37C108.965 183.321 111.56 184.216 111.708 184.655L111.662 184.866C111.662 184.866 112.022 184.866 112.022 183.959C111.93 183.623 111.349 182.967 109.672 182.819C108.421 182.717 107.162 182.894 105.988 183.338C105.988 183.338 105.623 184.062 106.005 184.37Z" fill="#EFF6FF"/>
<path d="M106.273 181.336C109.855 179.819 112.449 181.399 112.546 181.855L112.467 182.066C112.467 182.066 112.837 182.112 112.923 181.194C112.866 180.846 112.352 180.156 110.687 179.842C109.226 179.595 107.725 179.769 106.359 180.344C106.359 180.344 105.948 181 106.273 181.336Z" fill="#EFF6FF"/>
<path d="M106.94 177.743C110.254 176.796 113.784 178.473 113.892 178.929L113.801 179.111C113.801 179.111 114.183 179.185 114.268 178.267C114.211 177.919 113.613 177.509 112.033 176.916C110.481 176.357 108.796 176.285 107.203 176.71C107.203 176.71 106.609 177.4 106.94 177.743Z" fill="#EFF6FF"/>
<path d="M149.307 228.191C150.424 228.112 151.519 227.846 152.546 227.404C153.167 227.159 153.68 226.702 153.995 226.115C154.136 225.738 154.18 225.332 154.123 224.933C154.066 224.534 153.911 224.157 153.67 223.834C153.1 223.001 152.296 222.556 151.537 221.963C148.651 219.749 146.174 217.047 144.22 213.979C142.264 210.803 141.654 208.276 141.677 204.387C141.753 202.092 141.993 199.805 142.395 197.543C144.254 187.746 147.442 177.697 149.239 169.844C152.335 156.443 152.256 156.078 150.67 146.924C148.343 133.46 146.108 125.738 143.102 111.264C152.227 105.721 152.729 98.94 152.073 88.8858C146.912 90.5966 140.861 90.5396 135.592 90.2545C130.322 89.9693 125.03 89.6157 120.194 87.5342C109.638 106.251 111.93 109.599 119.327 129.656C122.977 139.55 132.084 158.136 132.084 158.136C129.917 166.383 129.433 170.523 129.558 179.75C129.644 185.847 130.567 194.395 130.009 198.028C129.91 198.6 129.731 199.154 129.478 199.676C129.212 200.194 128.872 200.671 128.469 201.091C127.687 202.131 127.07 203.285 126.638 204.512C126.299 205.254 126.119 206.058 126.11 206.874C126.101 207.689 126.264 208.497 126.587 209.246C127.539 211.168 129.358 212.474 130.682 214.105C132.105 215.95 133.33 217.94 134.337 220.041C134.725 220.8 135.107 221.564 135.558 222.288C136.555 223.858 137.866 225.204 139.407 226.245C140.949 227.285 142.688 227.996 144.517 228.333C145.777 228.567 147.283 228.333 148.56 228.236C148.811 228.242 149.056 228.219 149.307 228.191Z" fill="#F2B9A4"/>
<path d="M146.678 215.992C145.383 214.31 142.931 209.149 142.561 207.854C141.893 205.488 142.908 204.324 141.466 203.378C139.926 202.665 136.989 203.68 135.141 204.872C133.293 206.064 136.282 211.35 137.183 213.05C138.323 215.28 140.365 218.268 142.407 220.064C143.827 218.696 145.412 217.589 146.678 215.992Z" fill="#5595E7"/>
<path d="M151.936 227.763C150.796 229.337 150.322 229.474 147.682 229.959C145.338 230.369 140.839 229.16 138.044 227.455C135.25 225.75 132.529 222.089 131.412 219.192C130.234 216.464 128.568 213.975 126.496 211.846C125.218 210.523 125.024 210.574 125.002 209.537C124.979 208.499 125.327 208.675 125.361 207.826C134.178 214.601 143.239 220.851 151.936 227.763Z" fill="#EBEBEB"/>
<path d="M129.803 199.214C129.723 200.954 129.945 201.21 131.086 202.79C131.793 203.777 132.432 204.09 133.937 205.163C135.443 206.235 136.247 210.443 137.359 212.708C138.152 214.282 140.262 218.114 142.076 219.232C142.641 218.435 143.359 217.759 144.188 217.243C145.018 216.727 145.942 216.381 146.906 216.226C148.07 218.04 149.54 219.638 151.252 220.948C152.54 221.906 155.078 222.956 154.246 224.838C153.772 225.893 153.424 226.896 151.12 227.951C149.444 228.716 144.67 228.995 141.351 227.581C135.272 224.997 134.468 221.827 133.071 218.644C131.93 215.992 129.866 213.677 128.685 212.268C126.934 210.181 125.942 210.101 125.406 207.854C125.069 206.457 125.617 205.573 126.221 204.136C126.826 202.699 128.138 200.509 128.691 199.003C129.039 198.051 129.506 197.903 130.025 198.017L129.803 199.214Z" fill="#0C2C7E"/>
<path d="M152.769 224.912C152.323 225.045 151.929 225.313 151.641 225.68C151.354 226.047 151.188 226.494 151.166 226.959C151.041 227.849 151.229 228.67 150.083 229.16C148.475 229.839 147.02 229.805 144.859 229.48C142.535 229.211 140.287 228.486 138.244 227.347C135.841 225.87 133.892 223.761 132.609 221.25C131.435 218.684 130.024 216.233 128.395 213.928C126.969 212.069 126.079 211.761 124.973 210.084C124.973 210.392 124.91 210.654 124.876 210.899C126.461 213.124 127.545 213.677 129.398 216.34C130.066 217.298 131.195 219.762 132.25 221.866C133.699 224.471 135.785 226.667 138.312 228.248C140.724 229.805 146.171 230.768 148.897 230.278C152.592 229.616 153.778 228.39 154.354 227.506C154.771 226.856 154.759 225.75 154.731 224.855C154.679 223.731 153.83 224.501 152.769 224.912Z" fill="#455A64"/>
<path d="M141.904 219.591C142.788 218.239 145.429 216.352 147.225 216.665L147.402 216.899C147.579 216.682 147.436 216.466 146.969 215.895C146.626 215.502 145.594 215.582 144.168 216.243C143.165 216.717 141.636 217.657 141.055 218.77C141.108 218.971 141.215 219.154 141.365 219.299C141.515 219.444 141.701 219.545 141.904 219.591Z" fill="white"/>
<path d="M139.27 216.956C140.297 215.713 143.61 213.358 145.355 213.865L145.498 214.122C145.698 213.922 145.595 213.694 145.19 213.073C144.893 212.651 143.736 212.822 142.39 213.341C141.352 213.74 139.213 215.006 138.518 216.044C138.543 216.252 138.628 216.448 138.761 216.61C138.894 216.771 139.071 216.892 139.27 216.956Z" fill="white"/>
<path d="M137.559 213.843C138.643 212.651 142.167 210.421 143.89 210.991L144.015 211.253C144.226 211.065 144.129 210.831 143.758 210.187C143.479 209.748 142.224 209.913 140.85 210.364C139.801 210.717 137.599 211.875 136.858 212.879C136.875 213.088 136.949 213.289 137.073 213.46C137.197 213.63 137.365 213.762 137.559 213.843Z" fill="white"/>
<path d="M136.088 210.387C137.268 209.28 140.952 207.336 142.623 208.06L142.72 208.328C142.943 208.157 142.88 207.923 142.555 207.25C142.315 206.794 141.049 206.851 139.646 207.199C138.569 207.461 136.282 208.442 135.46 209.383C135.463 209.592 135.523 209.796 135.634 209.973C135.744 210.15 135.901 210.293 136.088 210.387Z" fill="white"/>
<path d="M146.758 125.995L143.644 111.544C143.644 111.544 156.795 108.122 152.74 88.6808L120.233 85.6069C120.233 85.6069 115.101 95.0567 113.715 99.2939C112.009 104.165 111.752 109.426 112.974 114.441C114.382 120.862 117.194 126.274 119.384 131.122C121.574 135.969 131.491 157.983 131.491 157.983C130.073 162.478 129.343 167.161 129.324 171.875C129.278 179.123 129.752 188.984 129.752 188.984C131.937 190.679 134.54 191.753 137.285 192.092C141.625 192.525 143.644 191.71 143.644 191.71C143.644 191.71 150.236 167.564 151.189 162.79C152.078 158.942 152.239 154.961 151.662 151.054C150.436 142.448 147.522 130.09 146.758 125.995Z" fill="#5595E7"/>
<path d="M138.084 156.819C137.873 154.178 135.963 149.063 133.522 142.562C131.304 136.625 128.789 129.895 127.004 123.485C123.428 110.602 121.683 105.732 113.054 101.649L112.917 102.219C121.232 106.211 122.949 110.996 126.456 123.634C128.247 130.072 130.762 136.813 132.986 142.761C135.267 148.949 137.292 154.287 137.497 156.847C137.702 159.408 136.955 163.086 136.157 166.89C135.455 170.249 134.725 173.734 134.583 176.882C134.378 181.25 131.281 181.974 130.34 182.094C130.052 182.12 129.761 182.12 129.473 182.094V182.665H129.678C129.917 182.663 130.155 182.648 130.391 182.619C131.446 182.488 134.908 181.684 135.136 176.87C135.279 173.751 136.003 170.306 136.699 166.97C137.543 163.178 138.301 159.539 138.084 156.819Z" fill="#0C2C7E"/>
<path d="M160.234 82.1009C161.46 80.0365 162.772 75.035 166.581 77.0082C170.944 79.2894 178.803 83.4525 181.603 84.7699C184.403 86.0873 185.481 85.8364 187.112 85.9504C188.743 86.0645 186.302 90.0736 186.302 90.0736L187.351 97.6243C184.791 97.6243 183.565 97.2308 182.042 96.1871C180.519 95.1435 179.761 93.695 177.942 92.6456C176.122 91.5963 165.327 89.0642 162.048 87.9521C158.768 86.8401 159.008 84.1711 160.234 82.1009Z" fill="#F2B9A4"/>
<path d="M182.555 89.543C182.663 90.5954 183.114 91.5831 183.838 92.3545C183.838 92.3545 182.481 92.0408 182.766 93.4495C183.051 94.8581 185.954 95.9987 185.954 95.9987L186.524 95.8504L185.623 92.5028C184.93 92.2581 184.297 91.8671 183.767 91.3565C183.238 90.8458 182.825 90.2274 182.555 89.543Z" fill="#D3A383" fill-opacity="0.466667"/>
<path d="M199.099 93.5069C199.272 93.5702 199.425 93.6788 199.541 93.8212C199.657 93.9637 199.733 94.1348 199.761 94.3167C199.869 94.8181 199.857 95.3381 199.725 95.8338C199.593 96.3295 199.346 96.7869 199.002 97.1682C198.887 97.3104 198.736 97.4193 198.564 97.4835C198.393 97.5476 198.207 97.5648 198.027 97.5331L185.23 94.1114C185.058 94.0485 184.906 93.9408 184.79 93.7994C184.673 93.6581 184.597 93.4881 184.568 93.3073C184.458 92.8059 184.47 92.2856 184.602 91.7896C184.734 91.2936 184.982 90.8364 185.327 90.4558C185.442 90.3139 185.594 90.2049 185.765 90.1399C185.936 90.0748 186.121 90.0559 186.302 90.0851L199.099 93.5069Z" fill="#37474F"/>
<path d="M185.327 90.4441C184.982 90.8246 184.734 91.2819 184.602 91.7779C184.47 92.2739 184.458 92.7942 184.568 93.2956C184.579 93.4823 184.648 93.6609 184.766 93.8061C184.884 93.9512 185.045 94.0555 185.225 94.1041C185.406 94.1528 185.597 94.1432 185.772 94.0769C185.947 94.0106 186.096 93.8908 186.199 93.7347C186.544 93.3542 186.792 92.8969 186.924 92.4009C187.056 91.9049 187.068 91.3846 186.958 90.8832C186.93 90.7022 186.855 90.5318 186.74 90.3895C186.624 90.2472 186.473 90.1381 186.302 90.0734C186.121 90.0442 185.936 90.0631 185.765 90.1282C185.594 90.1932 185.442 90.3022 185.327 90.4441Z" fill="#455A64"/>
<path d="M184.819 98.8783C185.738 99.4486 186.068 98.8783 186.656 98.6102C187.243 98.3422 187.323 99.2148 188.646 98.7756C188.972 98.6713 189.292 98.5475 189.604 98.4049C190.796 98.7585 191.315 98.0399 191.629 97.9259C191.966 98.0915 192.337 98.1776 192.712 98.1776C193.088 98.1776 193.459 98.0915 193.796 97.9259C194.041 97.7776 195.301 96.7853 195.301 96.7853L194.012 96.4431C193.326 95.6148 192.708 94.7317 192.165 93.8027C191.646 93.01 191.309 91.9321 190.773 91.4189C189.496 90.2098 188.138 90.5577 188.15 91.0368C188.22 91.4946 188.387 91.9321 188.64 92.3199C187.796 90.8201 186.45 90.8201 186.228 91.5386C186.219 92.0503 186.29 92.5602 186.439 93.0499C185.589 91.3048 184.243 91.7667 184.249 92.1146C184.277 92.7328 184.378 93.3454 184.551 93.9395C184.551 93.9395 183.833 92.0861 182.686 92.702C182.316 92.9073 182.88 95.9698 183.029 96.6427C183.319 97.9487 183.935 98.308 184.819 98.8783Z" fill="#F2B9A4"/>
<path d="M184.551 93.9287L184.871 95.2461C184.963 95.683 185.101 96.1092 185.281 96.5178C185.506 96.903 185.771 97.2625 186.074 97.59L186.946 98.6165C186.616 98.3085 186.296 97.9892 185.994 97.6584C185.672 97.3342 185.392 96.9701 185.161 96.5749C184.977 96.1573 184.845 95.7187 184.768 95.2689C184.705 94.8241 184.614 94.3792 184.551 93.9287Z" fill="#D3A383"/>
<path d="M186.416 93.0391C186.581 93.5523 186.718 94.0713 186.838 94.596C186.915 95.1214 187.089 95.628 187.351 96.0901C187.676 96.5118 188.034 96.9065 188.423 97.2706L189.564 98.4112C189.142 98.0804 188.725 97.7326 188.332 97.3676C187.925 97.0074 187.553 96.6103 187.22 96.1814C186.954 95.7037 186.783 95.1788 186.718 94.6359C186.655 94.0884 186.552 93.5637 186.416 93.0391Z" fill="#D3A383"/>
<path d="M188.64 92.3091C188.861 92.7986 189.052 93.3014 189.21 93.8147C189.348 94.3272 189.551 94.8199 189.815 95.2803C190.094 95.7308 190.414 96.1643 190.722 96.5977L191.64 97.915C190.945 97.0977 190.296 96.2429 189.695 95.3544C189.436 94.8793 189.245 94.3708 189.125 93.8432C188.954 93.3299 188.811 92.8166 188.64 92.3091Z" fill="#D3A383"/>
<path d="M185.692 85.9275C189.587 85.8705 191.036 86.7259 192.302 88.0775C193.568 89.4291 194.303 90.8263 195.775 92.5258C196.733 93.6378 195.461 94.4419 193.704 93.7804C191.948 93.1189 191.053 91.1628 189.279 90.8719L186.302 90.0735L185.692 85.9275Z" fill="#F2B9A4"/>
<path d="M190.773 91.4075C190.515 91.1452 190.205 90.9393 189.864 90.8029C189.522 90.6664 189.156 90.6024 188.788 90.6148C188.608 90.6296 188.435 90.6971 188.292 90.8087C188.26 90.8352 188.234 90.8681 188.215 90.9055C188.196 90.9428 188.186 90.9837 188.184 91.0254C188.191 91.1141 188.206 91.2019 188.229 91.2877C188.332 91.638 188.48 91.9735 188.669 92.2858L188.606 92.3257C188.42 91.9913 188.17 91.6968 187.87 91.4588C187.58 91.2143 187.206 91.0917 186.827 91.1167C186.736 91.1251 186.648 91.1522 186.569 91.1964C186.489 91.2406 186.42 91.3008 186.365 91.3733C186.314 91.4485 186.279 91.5336 186.264 91.623C186.248 91.7125 186.251 91.8042 186.273 91.8923C186.322 92.2769 186.397 92.6579 186.496 93.0328L186.598 93.4777L186.387 93.0671C186.226 92.7151 185.988 92.4034 185.692 92.1546C185.548 92.0319 185.379 91.9431 185.196 91.8947C185.013 91.8464 184.822 91.8397 184.637 91.8751C184.471 91.9208 184.272 92.012 184.317 92.1888C184.325 92.3798 184.344 92.5702 184.374 92.7591C184.426 93.1447 184.506 93.5259 184.614 93.8997L184.488 93.9453C184.325 93.5024 184.05 93.1094 183.69 92.8047C183.511 92.6636 183.284 92.5963 183.057 92.6165C182.943 92.6315 182.833 92.6662 182.732 92.7192C182.658 92.7192 182.641 92.8789 182.629 92.9929C182.632 93.9509 182.731 94.9063 182.926 95.8444C182.99 96.318 183.101 96.7841 183.257 97.2359C183.427 97.6902 183.723 98.0861 184.112 98.3765C184.3 98.519 184.5 98.6502 184.682 98.7814C184.875 98.9222 185.091 99.0266 185.321 99.0893C185.557 99.1342 185.801 99.0894 186.005 98.9639C186.208 98.8368 186.418 98.7207 186.633 98.616C186.419 98.7266 186.212 98.8484 186.011 98.981C185.804 99.1107 185.556 99.1595 185.315 99.1178C185.078 99.0606 184.854 98.96 184.654 98.8213C184.445 98.6989 184.244 98.5656 184.049 98.4221C183.65 98.1341 183.342 97.7385 183.16 97.2815C183.002 96.8234 182.885 96.3519 182.812 95.8729C182.614 94.935 182.509 93.9799 182.498 93.0214C182.498 92.9074 182.498 92.7477 182.658 92.6564C182.771 92.6014 182.892 92.563 183.017 92.5424C183.274 92.5164 183.531 92.5898 183.736 92.7477C184.117 93.0613 184.412 93.4678 184.591 93.9282L184.466 93.9738C184.357 93.5899 184.273 93.1994 184.215 92.8047C184.187 92.6157 184.17 92.4253 184.163 92.2344C184.15 92.1762 184.15 92.1158 184.163 92.0576C184.19 92.0038 184.229 91.9569 184.277 91.9208C184.363 91.8555 184.463 91.8106 184.568 91.7896C184.769 91.7553 184.975 91.7651 185.172 91.8182C185.369 91.8714 185.552 91.9667 185.709 92.0976C186.016 92.3635 186.263 92.6921 186.433 93.0614L186.33 93.0956C186.235 92.72 186.163 92.3392 186.114 91.955C186.087 91.854 186.084 91.7484 186.103 91.6459C186.123 91.5434 186.165 91.4465 186.227 91.3624C186.288 91.2782 186.368 91.2089 186.46 91.1595C186.552 91.1101 186.654 91.0818 186.758 91.0767C187.161 91.0482 187.558 91.1793 187.864 91.4417C188.173 91.6885 188.429 91.9949 188.617 92.3428L188.549 92.377C188.355 92.0587 188.205 91.7152 188.104 91.3562C188.079 91.265 188.066 91.1712 188.064 91.0767C188.067 91.0263 188.08 90.977 188.102 90.9318C188.125 90.8867 188.156 90.8467 188.195 90.8144C188.35 90.7003 188.534 90.633 188.726 90.6205C189.103 90.5984 189.481 90.6572 189.834 90.7929C190.187 90.9287 190.507 91.1382 190.773 91.4075Z" fill="#D3A383"/>
<path d="M144.38 51.9492C148.56 52.0975 151.224 52.6849 154.993 58.633L167.637 78.5476C167.637 78.5476 165.07 88.8129 162.39 88.0715C159.709 87.3301 158.398 87.0164 156.356 84.1194C153.339 79.865 146.496 69.9989 146.496 69.9989C146.496 69.9989 138.42 56.2834 144.38 51.9492Z" fill="#F2B9A4"/>
<path d="M140.399 51.6466C140.399 51.6466 130.813 50.7398 125.418 52.5534L116.766 55.4562C115.534 57.1214 114.622 62.5392 115.289 66.0237C115.859 69.012 118.608 81.5014 119.247 85.3052C116.635 90.5804 113.265 100.013 113.265 100.013C121.249 107.016 150.989 106.594 155.768 97.9144C155.768 97.9144 153.938 91.0366 152.392 85.6075C152.187 81.6154 152.392 79.2715 152.421 77.0816C153.617 76.1547 154.58 74.9619 155.234 73.5978C155.889 72.2336 156.216 70.7357 156.19 69.223C156.19 65.9324 155.586 64.0562 151.121 58.9578C146.655 53.8593 144.351 51.9603 144.351 51.9603L140.399 51.6466Z" fill="#F7A659"/>
<path opacity="0.2" d="M143.416 77.287C139.681 81.8493 130.299 80.3266 127.779 75.4849C128.948 83.0184 141.762 83.1439 143.416 77.287Z" fill="black"/>
<path opacity="0.3" d="M119.9 103.189C121.474 98.6663 124.462 89.7469 125.106 84.7227C126.03 77.805 120.23 66 120.23 66H115.668C115.668 66.0399 115.668 66.0798 115.668 66.1198C116.238 69.1081 118.987 81.5975 119.626 85.4013C117.014 90.6765 113.644 100.109 113.644 100.109C115.104 101.387 117.282 102.396 119.9 103.189Z" fill="#0C2C7E"/>
<path d="M134.126 44.6157C136.342 43.303 138.389 41.725 140.223 39.9165C142.133 37.9832 141.106 35.0405 142.709 33.2042C143.53 32.2575 145.024 32.1605 146.028 31.4477C146.586 31.0936 147.051 30.6101 147.382 30.0383C147.714 29.4665 147.903 28.8231 147.933 28.1628C147.933 27.3188 147.363 26.3778 146.513 26.3664C147.207 25.8815 147.718 25.1761 147.961 24.3647C148.071 23.958 148.031 23.5256 147.849 23.1458C147.667 22.7661 147.355 22.4641 146.969 22.2945C147.902 21.4484 148.728 20.4907 149.427 19.443C150.129 18.3832 150.417 17.1027 150.237 15.8445C150.231 15.7349 150.203 15.6276 150.154 15.5294C150.105 15.4313 150.036 15.3444 149.952 15.2742C149.775 15.1878 149.573 15.1656 149.381 15.2115C147.956 15.4054 146.581 15.8787 145.156 16.0783C140.023 16.7969 135.044 13.8371 129.895 14.6355C125.903 15.2571 121.642 18.5363 120.992 22.6538C120.358 22.7066 119.745 22.9075 119.202 23.2403C118.659 23.5731 118.202 24.0285 117.867 24.57C116.857 26.3345 116.416 28.3682 116.607 30.3926C117.206 35.5994 118.991 38.4965 122.498 41.6673C124.249 43.247 126.119 44.9693 127.123 47.1307C127.448 47.8322 127.169 48.2428 128.11 48.1116C129.051 47.9804 130.06 47.1022 130.847 46.6174C131.93 45.9502 133.031 45.2715 134.126 44.6157Z" fill="#4C4840"/>
<path d="M123.079 19.0376C117.844 15.1996 111.32 20.7029 112.814 24.7976C109.871 24.3756 107.682 27.5635 108.303 31.9433C106.022 32.1715 105.583 35.3651 106.547 37.5835C104.99 37.7375 103.695 39.6366 104.083 42.1459C102.167 41.068 100.633 42.9899 99.629 44.0164C99.4465 42.1858 97.422 42.1402 96.2928 41.3532C96.3913 40.4335 96.1874 39.5067 95.712 38.7133C95.2366 37.9199 94.5155 37.3031 93.6581 36.9562C91.6678 36.0608 93.4414 34.7834 93.4414 34.7834C93.4414 34.7834 91.8331 34.6408 91.2172 37.7432C90.6013 40.8456 92.7228 41.9177 94.2113 42.5337C94.4394 44.8148 95.1922 47.6093 98.6538 46.6626C100.878 48.4818 104.762 47.7119 105.389 45.4478C108.668 44.524 110.265 42.5508 109.022 39.859C111.976 38.918 114.206 36.3061 112.443 33.5288C114.422 33.6029 117.873 31.2932 116.436 28.4532C121.089 30.0842 123.279 28.0026 124.42 25.8583C125.56 23.714 123.079 19.0376 123.079 19.0376Z" fill="#4C4840"/>
<path d="M126.222 49.9652C126.273 47.2107 126.176 42.9906 126.176 42.9906C125.754 43.7091 123.171 44.9296 121.043 42.5515C118.58 39.8027 118.671 37.6241 119.988 36.0273C121.494 34.2024 124.499 34.2822 126.022 36.7345C128.052 36.9569 128.588 33.8317 126.729 31.1342C126.416 27.4387 130.214 27.1764 131.543 22.1978C136.578 24.1196 140.747 21.6275 144.197 24.8382C145.024 26.5491 146.119 29.2637 146.479 34.2822C146.94 41.1257 145.714 44.3935 143.627 45.6481C142.378 46.3952 141.186 46.9085 138.654 47.0111V50.0337C138.654 50.9633 138.945 51.4936 140.137 51.6191C141.409 52.9992 144.448 55.4514 137.89 56.4609C129.432 57.7554 124.733 54.0656 123.809 53.1075C125.994 52.3434 126.188 51.6932 126.222 49.9652Z" fill="#F2B9A4"/>
<path d="M135.21 39.7056L138.865 40.3956C138.831 40.639 138.747 40.8729 138.621 41.0835C138.494 41.294 138.326 41.4769 138.127 41.6211C137.928 41.7653 137.702 41.868 137.462 41.923C137.222 41.978 136.974 41.9841 136.732 41.9411C136.238 41.8389 135.803 41.5486 135.519 41.1314C135.234 40.7142 135.124 40.2029 135.21 39.7056Z" fill="#B16668"/>
<path d="M135.529 40.493C136 40.4244 136.481 40.5224 136.888 40.7702C137.295 41.0179 137.603 41.3999 137.759 41.8503C137.435 41.9887 137.078 42.0283 136.732 41.9644C136.382 41.8941 136.058 41.7269 135.798 41.482C135.538 41.237 135.352 40.924 135.261 40.5786C135.348 40.5446 135.438 40.516 135.529 40.493Z" fill="#F28F8F"/>
<path d="M144.215 27.8722L141.364 27.9122C141.352 27.7279 141.378 27.5432 141.439 27.3691C141.5 27.195 141.596 27.0351 141.721 26.8988C141.845 26.7626 141.996 26.6528 142.164 26.5761C142.332 26.4993 142.513 26.4572 142.698 26.4522C143.085 26.4487 143.458 26.5942 143.741 26.8586C144.023 27.123 144.193 27.486 144.215 27.8722Z" fill="#263238"/>
<path d="M130.83 29.6747L133.59 28.7793C133.542 28.5963 133.456 28.4252 133.339 28.2766C133.221 28.1279 133.075 28.0049 132.908 27.9152C132.741 27.8254 132.558 27.7707 132.369 27.7546C132.18 27.7384 131.99 27.7611 131.811 27.8212C131.442 27.9468 131.135 28.2087 130.952 28.5532C130.77 28.8977 130.726 29.2989 130.83 29.6747Z" fill="#263238"/>
<path d="M141.443 31.8188C141.465 32.1329 141.607 32.4266 141.839 32.6389C142.072 32.8513 142.377 32.966 142.692 32.9594C142.847 32.9596 143.001 32.9282 143.144 32.867C143.286 32.8058 143.415 32.7161 143.522 32.6035C143.628 32.4908 143.711 32.3576 143.765 32.2119C143.818 32.0662 143.841 31.9111 143.833 31.7561C143.811 31.442 143.669 31.1483 143.436 30.936C143.204 30.7236 142.899 30.6089 142.584 30.6155C142.429 30.6153 142.275 30.6467 142.132 30.7079C141.99 30.7691 141.861 30.8588 141.754 30.9714C141.647 31.0841 141.565 31.2173 141.511 31.363C141.458 31.5088 141.435 31.6638 141.443 31.8188Z" fill="#263238"/>
<path d="M132.883 33.0729C132.905 33.387 133.047 33.6807 133.279 33.893C133.512 34.1053 133.817 34.2201 134.132 34.2135C134.286 34.2137 134.44 34.1824 134.582 34.1215C134.724 34.0607 134.852 33.9715 134.959 33.8595C135.066 33.7475 135.149 33.6149 135.202 33.4699C135.256 33.3248 135.28 33.1704 135.272 33.0158C135.252 32.7022 135.111 32.4086 134.88 32.1961C134.648 31.9837 134.343 31.8687 134.029 31.8753C133.874 31.8743 133.72 31.905 133.577 31.9655C133.434 32.026 133.305 32.115 133.198 32.2272C133.091 32.3393 133.007 32.4721 132.953 32.6175C132.899 32.7629 132.875 32.9179 132.883 33.0729Z" fill="#263238"/>
<path d="M143.057 35.514L139.339 37.6868L137.354 30.0449L143.057 35.514Z" fill="#F0A170"/>
<path d="M138.615 47.0109C134.052 47.1021 129.564 46.1498 128.304 44.2222C128.444 44.8136 128.725 45.3626 129.122 45.8231C129.519 46.2836 130.021 46.642 130.585 46.8683C133.334 48.0659 138.643 48.1344 138.643 48.1344L138.615 47.0109Z" fill="#D3A383"/>
<path d="M109.261 88.6815C107.551 86.9706 104.978 82.5109 101.808 85.4023C98.1806 88.7157 91.6679 94.7893 89.3069 96.8081C86.9459 98.827 85.8395 98.8384 84.2883 99.3744C82.7371 99.9105 86.1418 103.15 86.1418 103.15L87.077 110.712C89.5578 110.067 90.6414 109.349 91.839 107.952C93.0366 106.554 93.4016 104.946 94.8786 103.469C96.3557 101.992 106.142 96.7397 109.022 94.8178C111.902 92.8959 110.978 90.3638 109.261 88.6815Z" fill="#F2B9A4"/>
<path d="M89.6203 101.644C89.7888 102.689 89.6105 103.761 89.1127 104.695C89.2439 104.599 89.4004 104.544 89.5627 104.536C89.7251 104.528 89.8862 104.567 90.0263 104.65C90.1664 104.732 90.2792 104.854 90.351 105C90.4227 105.146 90.4502 105.309 90.4301 105.471C90.5213 106.908 88.0063 108.761 88.0063 108.761H87.436V105.294C88.0398 104.877 88.5472 104.335 88.924 103.706C89.3008 103.076 89.5382 102.373 89.6203 101.644Z" fill="#D3A383"/>
<path d="M74.667 109.754C74.5184 109.861 74.4006 110.005 74.3255 110.172C74.2504 110.34 74.2207 110.524 74.2393 110.706C74.2669 111.214 74.414 111.709 74.6687 112.15C74.9233 112.591 75.2784 112.966 75.7049 113.244C75.8533 113.349 76.0265 113.414 76.2075 113.432C76.3884 113.45 76.5709 113.42 76.7372 113.346L88.2171 106.72C88.3658 106.612 88.4835 106.468 88.5586 106.301C88.6337 106.134 88.6634 105.95 88.6448 105.767C88.6172 105.26 88.4701 104.766 88.2154 104.326C87.9607 103.886 87.6056 103.512 87.1792 103.235C87.0309 103.127 86.8566 103.061 86.6741 103.043C86.4917 103.025 86.3078 103.056 86.1413 103.133L74.667 109.754Z" fill="#37474F"/>
<path d="M75.7049 109.856C76.1295 110.136 76.4827 110.511 76.7362 110.952C76.9897 111.392 77.1365 111.886 77.1649 112.394C77.1847 112.576 77.1555 112.761 77.0803 112.928C77.0051 113.095 76.8867 113.24 76.7372 113.346C76.5709 113.42 76.3884 113.449 76.2075 113.431C76.0265 113.413 75.8533 113.349 75.7049 113.243C75.2784 112.965 74.9233 112.591 74.6687 112.15C74.414 111.709 74.2669 111.214 74.2393 110.706C74.2207 110.523 74.2504 110.339 74.3255 110.172C74.4006 110.005 74.5184 109.861 74.667 109.753C74.8342 109.68 75.0176 109.65 75.1995 109.668C75.3813 109.686 75.5554 109.751 75.7049 109.856Z" fill="#455A64"/>
<path d="M89.8485 111.236C89.1072 112.029 88.6338 111.538 88.0065 111.453C87.3792 111.367 87.5217 112.211 86.1245 112.131C85.7822 112.115 85.4412 112.077 85.1037 112.017C84.0487 112.668 83.3472 112.114 83.0278 112.086C82.7465 112.334 82.4121 112.514 82.0503 112.613C81.6886 112.712 81.3089 112.727 80.9406 112.656C80.6611 112.576 79.1841 111.932 79.1841 111.932L80.3247 111.265C80.775 110.287 81.145 109.274 81.431 108.236C81.7276 107.335 81.7675 106.206 82.161 105.573C83.0792 104.073 84.4764 104.062 84.5904 104.529C84.6408 104.988 84.5941 105.453 84.4536 105.892C84.8813 104.227 86.1644 103.874 86.5751 104.518C86.7185 105.008 86.782 105.519 86.7633 106.029C87.1339 104.125 88.554 104.216 88.6395 104.558C88.7721 105.163 88.8334 105.781 88.822 106.4C88.822 106.4 89.033 104.421 90.2991 104.723C90.7097 104.82 90.9549 107.928 90.9891 108.618C91.0575 109.964 90.5614 110.472 89.8485 111.236Z" fill="#EBB797"/>
<path d="M88.8334 106.4C88.8904 106.851 88.9418 107.296 88.9703 107.752C89.0082 108.206 88.9948 108.664 88.9304 109.115C88.8066 109.555 88.6304 109.978 88.4057 110.375C88.1947 110.775 87.9666 111.168 87.7271 111.55L88.2973 110.33C88.7605 109.554 88.9606 108.65 88.8676 107.752L88.8334 106.4Z" fill="#D3A383"/>
<path d="M86.7745 106.029C86.7745 106.565 86.8372 107.101 86.8771 107.638C86.954 108.178 86.925 108.728 86.7916 109.257C86.5841 109.759 86.3261 110.239 86.0217 110.689C85.7365 111.145 85.4514 111.59 85.1035 112.017L85.9361 110.637C86.2157 110.184 86.458 109.709 86.6604 109.217C86.7941 108.704 86.8308 108.17 86.7688 107.643C86.7517 107.101 86.7517 106.565 86.7745 106.029Z" fill="#D3A383"/>
<path d="M84.4645 105.893C84.4246 106.429 84.4189 106.959 84.4131 107.495C84.4303 108.036 84.3728 108.578 84.2421 109.103C83.8894 110.118 83.484 111.114 83.0273 112.086L83.5976 110.575C83.7801 110.073 83.974 109.571 84.1337 109.063C84.2667 108.551 84.3337 108.024 84.3333 107.495C84.3428 106.959 84.3867 106.423 84.4645 105.893Z" fill="#D3A383"/>
<path d="M85.6565 98.9634C81.8811 99.9215 80.7006 101.119 79.8281 102.756C78.9555 104.393 78.6077 105.927 77.6268 107.951C76.988 109.269 78.4252 109.713 79.9535 108.624C81.4819 107.535 81.8355 105.408 83.4722 104.672L86.1412 103.132L85.6565 98.9634Z" fill="#EBB797"/>
<path d="M82.1724 105.573C82.3483 105.244 82.5916 104.957 82.8865 104.729C83.1813 104.501 83.521 104.338 83.8832 104.25C84.0743 104.212 84.2724 104.229 84.4535 104.301C84.499 104.322 84.5396 104.352 84.573 104.389C84.6063 104.427 84.6317 104.47 84.6474 104.518C84.67 104.611 84.6815 104.707 84.6816 104.803C84.675 105.176 84.6194 105.546 84.5163 105.904H84.4421C84.5333 105.521 84.7001 105.16 84.9326 104.843C85.1614 104.511 85.5116 104.281 85.9078 104.204C86.0075 104.187 86.1097 104.191 86.2079 104.216C86.3061 104.24 86.3981 104.285 86.4781 104.347C86.5553 104.414 86.6182 104.496 86.6633 104.588C86.7083 104.681 86.7345 104.781 86.7404 104.883C86.7926 105.261 86.823 105.642 86.8316 106.024H86.7233C86.7857 105.614 86.9397 105.224 87.1738 104.883C87.2901 104.712 87.4431 104.569 87.6217 104.464C87.8002 104.36 87.9999 104.296 88.206 104.278C88.3149 104.273 88.4238 104.29 88.5254 104.33C88.5807 104.355 88.6309 104.389 88.6737 104.432C88.7045 104.483 88.724 104.539 88.7307 104.598C88.7763 104.792 88.8105 104.991 88.8391 105.168C88.8838 105.564 88.9029 105.962 88.8961 106.36H88.7649C88.8168 105.868 88.9957 105.399 89.2839 104.997C89.4404 104.793 89.6688 104.656 89.9226 104.615C90.047 104.592 90.1746 104.592 90.299 104.615C90.4701 104.666 90.4986 104.82 90.5499 104.923C90.792 105.856 90.9391 106.811 90.9891 107.774C91.0442 108.253 91.0537 108.736 91.0176 109.217C90.9572 109.705 90.7595 110.166 90.4473 110.546C90.2933 110.734 90.1279 110.911 89.9625 111.082C89.8043 111.27 89.6105 111.425 89.3922 111.538C89.1712 111.643 88.919 111.661 88.6851 111.59C88.4573 111.511 88.2249 111.446 87.9893 111.396C88.2289 111.43 88.4513 111.515 88.6851 111.572C88.9158 111.643 89.1647 111.622 89.3808 111.515C89.5859 111.395 89.7675 111.239 89.9169 111.054C90.0827 110.872 90.2388 110.681 90.3846 110.483C90.6837 110.112 90.8697 109.663 90.9206 109.189C90.9548 108.712 90.9433 108.232 90.8864 107.757C90.8291 106.794 90.6763 105.839 90.4302 104.906C90.3903 104.803 90.3389 104.672 90.2591 104.666C90.1478 104.646 90.0339 104.646 89.9226 104.666C89.6956 104.703 89.4914 104.825 89.3523 105.008C89.0826 105.393 88.9175 105.841 88.8733 106.309H88.7421C88.747 105.918 88.726 105.527 88.6794 105.14C88.6794 104.946 88.6224 104.752 88.5824 104.569C88.5425 104.387 88.3657 104.353 88.1889 104.353C88.0006 104.366 87.8178 104.422 87.654 104.516C87.4901 104.61 87.3494 104.739 87.2423 104.894C87.0239 105.213 86.8762 105.575 86.8088 105.955L86.7119 106.411V105.949C86.7098 105.568 86.6851 105.187 86.6377 104.809C86.638 104.717 86.6177 104.627 86.5785 104.544C86.5393 104.461 86.4821 104.388 86.4111 104.33C86.34 104.272 86.257 104.231 86.1679 104.209C86.0789 104.187 85.9861 104.186 85.8964 104.204C85.5295 104.272 85.2016 104.476 84.9782 104.775C84.7502 105.083 84.5855 105.434 84.4934 105.807H84.4193C84.5238 105.457 84.5814 105.094 84.5904 104.729C84.5897 104.639 84.5801 104.549 84.5619 104.461C84.5487 104.421 84.5278 104.385 84.5004 104.354C84.473 104.322 84.4396 104.297 84.4022 104.278C84.236 104.211 84.0543 104.191 83.8775 104.221C83.5134 104.312 83.173 104.48 82.8789 104.713C82.5848 104.946 82.3439 105.239 82.1724 105.573Z" fill="#EBB797"/>
<path d="M116.766 55.4561C112.774 56.6765 110.356 57.9311 108.246 64.6549C105.674 72.8385 101.191 87.1643 101.191 87.1643C101.191 87.1643 106.324 96.4144 108.719 95.0058C111.114 93.5972 112.295 92.9527 113.521 89.6222C115.323 84.7405 119.418 73.4316 119.418 73.4316C119.418 73.4316 123.649 58.1022 116.766 55.4561Z" fill="#F2B9A4"/>
<path d="M97.3768 162.54C96.5411 163.066 95.8323 163.771 95.3009 164.604C94.7376 165.406 94.2705 166.271 93.9094 167.182C93.1545 168.982 92.8946 170.951 93.1566 172.885C93.1566 172.993 93.2821 172.93 93.2935 172.851C93.4697 170.953 93.9093 169.089 94.5995 167.313C94.9448 166.484 95.3568 165.685 95.8313 164.923C96.3275 164.125 96.8978 163.384 97.3996 162.591C97.4509 162.585 97.4509 162.511 97.3768 162.54ZM95.0956 158.935C94.1259 159.821 93.2576 160.812 92.5065 161.89C91.7672 163.01 91.1315 164.195 90.6074 165.431C90.0536 166.719 89.6184 168.056 89.3072 169.423C88.9714 170.84 88.8674 172.302 88.9992 173.752C88.9992 173.797 89.0506 173.752 89.0506 173.752C89.1931 173.039 89.387 172.337 89.5353 171.624C89.6836 170.912 89.7919 170.279 89.9516 169.617C90.5728 167.062 91.5826 164.617 92.9456 162.369C93.6088 161.207 94.3361 160.084 95.1242 159.004C95.1242 159.004 95.1013 158.913 95.0785 158.935H95.0956ZM165.549 144.325C165.879 143.131 165.943 141.879 165.738 140.658C165.738 140.583 165.652 140.658 165.641 140.686C165.321 141.827 165.105 142.967 164.768 144.108C164.455 145.19 164.054 146.244 163.571 147.262C162.489 149.39 161.121 151.361 159.504 153.118C159.436 153.193 159.504 153.347 159.59 153.272C161.623 151.897 163.251 150.003 164.306 147.786C164.844 146.682 165.255 145.521 165.532 144.325H165.549ZM170.996 139.791C170.646 141.432 170.204 143.052 169.673 144.644C169.176 146.293 168.544 147.899 167.785 149.446C167.094 150.857 166.297 152.215 165.401 153.506C164.916 154.219 164.386 154.892 163.873 155.588C163.36 156.284 162.841 157.088 162.287 157.818C162.287 157.818 162.287 157.92 162.287 157.886C163.755 156.794 165.037 155.473 166.086 153.974C167.091 152.534 167.967 151.007 168.703 149.412C169.411 147.881 169.984 146.292 170.414 144.661C170.783 143.054 170.974 141.411 170.984 139.762C171.019 139.745 170.984 139.762 170.979 139.791H170.996Z" fill="#E0E0E0"/>
<g opacity="0.3">
<path d="M95.0785 158.935C94.1088 159.821 93.2404 160.812 92.4894 161.89C91.756 163.01 91.1261 164.196 90.6074 165.431C90.0536 166.719 89.6184 168.056 89.3072 169.423C88.9714 170.84 88.8674 172.302 88.9992 173.752C88.9992 173.797 89.0506 173.752 89.0506 173.752C89.1931 173.039 89.387 172.337 89.5353 171.624C89.6836 170.912 89.7919 170.279 89.9516 169.617C90.5728 167.062 91.5826 164.617 92.9456 162.369C93.6088 161.207 94.3361 160.084 95.1242 159.004C95.1242 159.004 95.1013 158.913 95.0785 158.935ZM97.3597 162.54C96.524 163.066 95.8152 163.771 95.2838 164.604C94.7205 165.406 94.2534 166.271 93.8923 167.182C93.1373 168.982 92.8774 170.951 93.1395 172.885C93.1395 172.993 93.265 172.93 93.2764 172.851C93.4581 170.952 93.9034 169.088 94.5995 167.313C94.9448 166.484 95.3568 165.685 95.8313 164.923C96.3275 164.125 96.8978 163.384 97.3996 162.591C97.4509 162.585 97.4509 162.511 97.3768 162.54H97.3597ZM165.515 144.325C165.845 143.131 165.909 141.879 165.703 140.658C165.703 140.583 165.618 140.658 165.606 140.686C165.287 141.827 165.07 142.967 164.734 144.108C164.421 145.19 164.02 146.244 163.536 147.262C162.455 149.39 161.087 151.361 159.47 153.118C159.402 153.193 159.47 153.347 159.556 153.272C161.589 151.897 163.217 150.003 164.272 147.786C164.822 146.684 165.244 145.522 165.532 144.325H165.515ZM170.962 139.791C170.612 141.432 170.17 143.052 169.638 144.644C169.141 146.293 168.51 147.899 167.751 149.446C167.06 150.857 166.263 152.215 165.367 153.506C164.882 154.219 164.352 154.892 163.839 155.588C163.325 156.284 162.806 157.088 162.253 157.818C162.253 157.818 162.253 157.92 162.253 157.886C163.721 156.794 165.003 155.473 166.051 153.974C167.057 152.534 167.933 151.007 168.669 149.412C169.377 147.881 169.95 146.292 170.38 144.661C170.749 143.054 170.94 141.411 170.95 139.762C171.019 139.745 170.984 139.762 170.979 139.791H170.962Z" fill="white"/>
</g>
<defs>
<linearGradient id="paint0_linear_5283_8903" x1="182.571" y1="18.3135" x2="182.571" y2="28.9472" gradientUnits="userSpaceOnUse">
<stop offset="0.09" stop-color="#F2F2F2"/>
<stop offset="0.44" stop-color="#DFDFDF"/>
<stop offset="1" stop-color="#ACACAC"/>
</linearGradient>
<linearGradient id="paint1_linear_5283_8903" x1="33.2262" y1="38.002" x2="33.2262" y2="49.7182" gradientUnits="userSpaceOnUse">
<stop offset="0.0859998" stop-color="#F2F2F2"/>
<stop offset="0.441" stop-color="#DFDFDF"/>
<stop offset="0.856" stop-color="#ACACAC"/>
</linearGradient>
<linearGradient id="paint2_linear_5283_8903" x1="70.9179" y1="10.7778" x2="70.9179" y2="25.5024" gradientUnits="userSpaceOnUse">
<stop offset="0.0859998" stop-color="#F2F2F2"/>
<stop offset="0.441" stop-color="#DFDFDF"/>
<stop offset="0.856" stop-color="#ACACAC"/>
</linearGradient>
<linearGradient id="paint3_linear_5283_8903" x1="217.675" y1="8.08559" x2="233.845" y2="24.2562" gradientUnits="userSpaceOnUse">
<stop offset="0.02" stop-color="#EFF6FF"/>
<stop offset="0.5" stop-color="#F7D7BA"/>
<stop offset="1" stop-color="#FFB875"/>
</linearGradient>
</defs>
</svg>
