<svg width="290" height="289" viewBox="0 0 290 289" fill="none" xmlns="http://www.w3.org/2000/svg">
<path d="M211.925 268.886C214.913 269.231 217.949 269.346 220.878 269.964C226.145 271.078 231.365 272.441 236.572 273.821C237.749 274.134 238.859 274.839 239.885 275.537C241.36 276.539 241.554 278.133 240.111 279.151C238.415 280.344 236.521 281.573 234.547 281.989C226.581 283.665 218.587 285.25 210.538 286.439C204.434 287.343 198.24 287.597 192.085 288.156C191.851 288.175 191.629 288.377 191.403 288.492H100.626C98.6323 288.231 96.6468 287.886 94.6453 287.727C83.37 286.836 72.1382 285.611 61.1402 282.853C58.794 282.266 56.4795 281.386 54.3195 280.304C53.2851 279.785 52.0367 278.497 52.009 277.522C51.9812 276.591 53.2297 275.148 54.2363 274.752C57.5852 273.432 61.0332 272.267 64.5367 271.439C68.7496 270.448 73.0577 269.857 77.326 269.116C77.6986 269.053 78.1068 269.172 78.4992 269.203C78.0711 269.425 77.6629 269.711 77.2111 269.865C74.3576 270.844 71.4486 271.692 68.6545 272.818C67.8064 273.159 66.6452 274.284 66.7046 274.946C66.7878 275.826 67.7707 276.951 68.6506 277.36C70.7867 278.351 73.0418 279.183 75.3325 279.738C85.9659 282.33 96.8409 283.273 107.708 284.054C116.958 284.719 126.244 285.124 135.514 285.239C145.993 285.369 156.479 285.072 166.966 284.91C171.048 284.846 175.126 284.656 179.205 284.486C181.305 284.398 183.414 284.311 185.502 284.065C194.106 283.059 202.742 282.234 211.287 280.851C215.642 280.146 219.927 278.648 224.056 277.027C226.522 276.06 226.395 273.999 223.957 272.909C221.512 271.811 218.892 271.094 216.34 270.242C214.882 269.754 213.399 269.33 211.929 268.878L211.925 268.886Z" fill="#73B6FF"/>
<path d="M27.6866 193.022C27.1873 191.897 26.783 190.712 26.1727 189.65C20.2516 179.337 16.2488 168.324 13.8906 156.68C11.9804 147.243 11.6316 137.676 12.3371 128.176C13.1059 117.789 15.5988 107.674 20.5013 98.3331C23.7987 92.0514 27.9165 86.4157 33.6552 82.0839C39.6873 77.5341 45.7549 73.028 51.672 68.3315C55.7898 65.0619 59.8125 61.6535 63.6291 58.043C70.1961 51.8366 76.7037 45.5509 82.9934 39.0671C89.0848 32.7854 94.6413 25.9726 100.848 19.8138C110.962 9.78286 123.069 3.2277 137.282 1.15493C142.719 0.362288 148.287 -0.168783 153.761 0.049194C163.078 0.421737 172.039 2.78382 180.651 6.4498C189.144 10.0682 196.853 14.9707 203.963 20.7768C210.696 26.2738 216.209 32.8884 220.537 40.4384C225.642 49.3517 230.56 58.372 235.76 67.2298C241.336 76.7256 249.35 84.1051 257.32 91.5243C262.963 96.7756 268.195 102.391 272.503 108.871C277.631 116.588 281.158 124.978 283.838 133.764C285.137 138.033 285.106 142.436 284.384 146.823C282.363 159.121 277.029 170.107 270.834 180.728C268.084 185.445 265.107 190.03 262.23 194.675C260.478 193.684 259.127 194.33 258.318 195.923C257.621 197.295 257.26 198.836 256.737 200.295C256.329 201.432 255.901 202.558 255.512 203.612C255.433 203.612 255.691 203.612 255.952 203.612C255.691 204.31 255.425 205.011 255.164 205.709C254.375 205.665 253.582 205.625 252.79 205.582C252.54 205.475 252.29 205.368 252.041 205.261C252.932 204.012 253.844 202.776 254.708 201.508C255.152 200.858 255.675 200.192 255.873 199.455C256.047 198.805 256.024 197.564 255.718 197.43C254.993 197.112 253.824 196.954 253.23 197.338C250.554 199.066 249.829 204.674 251.771 207.227C252.068 207.615 252.251 208.091 252.572 208.681H246.076C246.076 208.598 246.076 208.515 246.072 208.431C246.215 208.174 246.353 207.92 246.496 207.663C246.666 207.607 246.837 207.552 247.007 207.496C246.825 207.409 246.639 207.326 246.456 207.238C247.174 205.788 248.085 204.397 248.529 202.871C248.791 201.975 248.664 200.339 248.093 199.954C246.781 199.07 245.775 200.267 245.149 201.377C244.673 202.217 244.289 203.2 244.197 204.147C244.043 205.76 244.154 207.397 244.154 209.335C245.802 210.258 247.725 211.332 249.643 212.407C249.377 212.918 249.116 213.425 248.85 213.936C247.875 213.417 246.948 212.589 245.917 212.442C244.019 212.169 242.061 212.292 240.127 212.248C240.127 212.169 240.127 212.085 240.127 212.006C240.52 211.741 240.916 211.475 241.308 211.206C241.213 211.103 241.114 210.996 241.019 210.893C240.678 210.964 240.341 211.035 239.679 211.174C240.567 209.866 241.447 208.875 241.962 207.722C242.529 206.454 243.734 205.079 242.184 203.64C244.078 200.81 245.961 197.972 247.875 195.159C248.593 194.104 249.385 193.106 250.233 191.96C248.553 191.279 247.126 190.759 245.763 190.105C245.374 189.919 245.176 189.345 244.891 188.944C245.275 188.679 245.644 188.223 246.052 188.179C248.018 187.969 250.007 187.965 251.965 187.7C253.019 187.557 254.284 187.319 255.001 186.642C258.845 183.023 262.547 179.254 266.296 175.541C266.427 175.406 266.554 175.267 266.685 175.132C266.732 175.109 266.792 175.097 266.827 175.061C266.851 175.041 266.843 174.986 266.847 174.946C266.788 175.006 266.732 175.061 266.673 175.121C266.562 175.053 266.443 175.037 266.316 175.073C265.658 175.128 265 175.184 264.342 175.239C263.173 175.327 261.996 175.382 260.831 175.513C250.206 176.69 239.877 179.171 229.803 182.718C227.286 183.602 224.825 184.644 222.122 185.698C224.088 187.569 225.808 189.206 227.528 190.843C227.437 191.017 227.346 191.195 227.255 191.37C226.521 191.302 225.764 191.326 225.059 191.144C222.895 190.585 220.723 190.042 218.615 189.313C217.022 188.762 215.718 188.976 214.346 189.915C211.632 191.778 208.845 193.53 206.087 195.329C206.075 180.538 206.063 165.744 206.051 150.953C209.48 150.945 212.912 150.941 216.34 150.933C217.683 154.551 219.835 156.097 223.648 156.101C238.772 156.113 253.891 156.113 269.015 156.101C273.597 156.097 276.521 153.152 276.537 148.507C276.565 140.648 276.561 132.793 276.537 124.934C276.521 120.222 273.589 117.301 268.849 117.261C264.624 117.23 260.395 117.254 256.17 117.254C245.343 117.254 234.511 117.242 223.684 117.261C219.705 117.269 217.01 119.346 216.352 122.81C216.233 123.5 216.019 124.189 216.007 124.883C215.963 127.308 216.031 129.738 215.959 132.163C215.944 132.746 215.73 133.554 215.313 133.855C212.301 136.051 209.21 138.144 206.146 140.268C206.119 139.939 206.067 139.614 206.067 139.285C206.051 116.699 206.043 94.1083 206.024 71.5219C206.024 70.6698 206.036 69.79 205.841 68.9696C204.775 64.4436 201.074 61.8001 195.775 61.8081C179.922 61.8358 164.069 61.9349 148.216 61.9309C130.247 61.9309 112.282 61.8556 94.3123 61.7883C90.8841 61.7764 87.987 62.7989 85.831 65.6009C84.2933 67.5983 83.9327 69.8653 83.9327 72.3027C83.9366 93.5059 83.9128 114.705 83.9009 135.908C81.2614 134.815 79.8188 133.079 80.2905 129.995C80.5362 128.382 80.3459 126.702 80.3301 125.049C80.2905 120.472 77.3973 117.341 72.8554 117.321C57.605 117.254 42.3545 117.257 27.104 117.325C22.9981 117.345 19.8553 120.238 19.7919 124.161C19.6532 132.544 19.6611 140.93 19.78 149.312C19.8315 153.093 22.8555 156.097 26.4382 156.109C42.085 156.157 57.7318 156.141 73.3786 156.125C75.9666 156.125 78.0948 154.999 79.2085 152.701C79.9932 151.076 81.0237 150.691 82.5931 150.913C83.0489 150.977 83.5165 150.953 83.9762 150.969C83.9683 153.874 83.9604 156.775 83.9564 159.68C83.9327 171.954 83.9128 184.224 83.893 196.498C81.6142 194.933 79.2917 193.419 77.0644 191.782C74.8569 190.161 72.6613 189.562 69.9742 190.724C68.1273 191.524 66.0744 191.865 64.1007 192.361C63.6568 192.472 63.1654 192.376 62.6937 192.376C62.5273 192.147 62.3608 191.917 62.1944 191.687C63.1059 190.977 64.1086 190.359 64.9013 189.539C65.7613 188.651 66.4311 187.577 67.2198 186.535C53.7686 180.867 39.394 177.312 24.4289 176.107C24.0682 176.088 23.7075 176.064 23.3509 176.044C23.2557 176.068 23.1567 176.088 23.0615 176.111C23.1527 176.155 23.2438 176.199 23.335 176.246C26.6681 179.516 30.0725 182.718 33.3025 186.087C34.8204 187.668 36.2591 188.94 38.6529 188.734C40.0083 188.619 41.4192 188.821 42.7746 189.063C43.5791 189.206 44.3203 189.701 45.0931 190.038C44.4907 190.565 43.9596 191.219 43.274 191.592C42.2039 192.17 41.0308 192.559 39.7467 193.09C40.4839 194.057 41.114 194.814 41.6609 195.622C43.2819 198.008 44.8712 200.414 46.4683 202.812C45.7946 204.999 47.2293 206.485 48.1804 208.17C48.6322 208.974 48.767 209.957 49.0444 210.857C49.0523 210.924 49.0563 210.992 49.0563 211.059C46.3811 210.75 43.7139 210.468 41.2567 211.994C40.9476 211.673 40.6424 211.348 40.3333 211.027C40.7652 210.742 41.1814 210.421 41.6372 210.175C44.8077 208.467 45.5885 207.302 45.0059 203.854C44.7245 202.189 43.8407 200.576 42.9807 199.086C42.7508 198.686 41.443 198.523 40.9238 198.797C40.4799 199.031 40.1192 200.176 40.3095 200.707C40.8326 202.17 41.7045 203.497 42.3585 204.92C42.6953 205.657 42.8658 206.47 43.1075 207.25C43.1075 207.334 43.1075 207.413 43.1075 207.496C41.1299 207.405 39.1562 207.31 37.1785 207.219C37.4243 206.589 37.6938 205.966 37.9038 205.324C38.201 204.425 38.8589 203.398 38.6449 202.625C38.0623 200.509 37.2419 198.424 36.2036 196.494C35.9341 195.995 34.436 195.828 33.6711 196.062C33.2985 196.173 32.9458 197.715 33.2193 198.333C33.8455 199.748 34.8561 200.992 35.7121 202.308C35.6487 202.391 35.5814 202.475 35.514 202.554C35.1375 202.526 34.757 202.498 34.3805 202.467L34.4043 202.483C34 202.348 33.5958 202.209 33.1915 202.074L33.2193 202.086C32.9577 201.409 32.6684 200.739 32.4425 200.053C31.8282 198.214 31.4596 196.248 30.5481 194.572C30.1121 193.771 28.6735 193.518 27.6906 193.014L27.6866 193.022ZM45.8897 208.427C45.7985 208.376 45.7074 208.324 45.6162 208.273C45.7074 208.324 45.8025 208.372 45.8937 208.423C46.0403 208.542 46.1869 208.665 45.9016 208.431C46.2662 208.499 46.0799 208.463 45.8897 208.431V208.427ZM222.947 61.6812C222.574 62.2995 222.158 62.8227 221.932 63.4211C221.781 63.8254 221.9 64.3326 221.896 64.7963C221.849 68.5891 222.36 68.062 218.694 68.1136C218.298 68.1175 217.83 67.9907 217.521 68.1572C216.958 68.4663 216.49 68.9498 215.983 69.358C216.494 69.7345 216.958 70.3092 217.525 70.44C218.341 70.6262 219.237 70.5549 220.085 70.4756C221.425 70.3528 222.047 70.7967 221.916 72.2313C221.825 73.2103 221.841 74.2209 221.987 75.1879C222.051 75.6159 222.558 75.9805 222.867 76.3729C223.24 76.0479 223.862 75.7745 223.937 75.394C224.163 74.2486 224.247 73.0597 224.254 71.8905C224.258 70.8957 224.583 70.4281 225.634 70.4796C226.688 70.5351 227.754 70.5747 228.796 70.4439C229.276 70.3845 229.704 69.901 230.156 69.6077C229.803 69.1916 229.522 68.5337 229.086 68.4068C228.226 68.1532 227.266 68.0581 226.371 68.1413C224.742 68.2919 224.14 67.737 224.235 66.0566C224.318 64.622 224.726 62.9891 222.951 61.6812H222.947ZM160.577 43.9339C164.002 43.9538 166.78 41.1399 166.796 37.6364C166.812 34.2399 164.14 31.6638 160.585 31.648C157.106 31.6281 154.553 34.0814 154.51 37.4858C154.462 40.9893 157.217 43.9181 160.577 43.9339ZM141.502 49.1575C141.502 48.9553 141.502 48.7493 141.502 48.5471C140.912 48.3331 140.337 48.0042 139.731 47.9209C138.387 47.7386 136.501 48.1706 135.823 47.4374C135.11 46.6686 135.665 44.8098 135.435 43.4702C135.32 42.8005 134.694 42.2179 134.297 41.5956C133.901 42.1862 133.271 42.7331 133.16 43.3751C132.914 44.7741 133.453 46.7439 132.696 47.5008C131.935 48.2578 129.977 47.7545 128.562 47.9447C128.091 48.0081 127.675 48.5075 127.235 48.8087C127.683 49.1654 128.103 49.7678 128.59 49.8352C129.95 50.0175 131.892 49.4468 132.573 50.1602C133.342 50.9607 132.898 52.8552 133.164 54.2383C133.267 54.7733 133.873 55.2093 134.25 55.6928C134.654 55.241 135.32 54.8407 135.415 54.3334C135.673 52.9423 135.177 50.9528 135.946 50.2394C136.751 49.4904 138.681 50.0056 140.107 49.855C140.591 49.8035 141.039 49.4071 141.506 49.1694L141.502 49.1575ZM75.055 81.5132C74.3932 81.2239 73.9295 80.891 73.4262 80.8236C72.2729 80.6651 70.5806 81.0574 70.0693 80.4352C69.4312 79.6584 69.7602 78.089 69.673 76.8604C69.669 76.793 69.6968 76.7098 69.6651 76.6662C69.3123 76.2144 68.9556 75.7665 68.595 75.3187C68.2938 75.7586 67.8063 76.1708 67.735 76.6464C67.5408 77.9265 68.0005 79.698 67.3109 80.3956C66.6253 81.0891 64.8418 80.6215 63.5696 80.8434C63.0742 80.9306 62.666 81.5132 62.2142 81.8739C62.6541 82.1751 63.0663 82.5516 63.5498 82.7458C63.8906 82.8845 64.3306 82.7735 64.7229 82.7775C68.1035 82.8013 67.6557 82.4763 67.6874 85.7261C67.6874 85.8569 67.6399 86.0194 67.6953 86.1185C68.0401 86.705 68.4087 87.2797 68.7694 87.8583C69.0706 87.2837 69.5937 86.7248 69.6334 86.1343C69.8474 82.9083 69.8038 82.9122 73.0179 82.7735C73.4063 82.7577 73.8463 82.7814 74.1673 82.611C74.4606 82.4565 74.627 82.0601 75.0511 81.5172L75.055 81.5132ZM232.645 97.4414C235.443 97.4731 238.094 95.0238 238.146 92.3645C238.201 89.507 235.672 86.7922 232.898 86.7407C229.815 86.6812 227.469 88.9403 227.445 91.984C227.421 95.1784 229.545 97.4057 232.645 97.4414ZM38.7044 166.711C38.8035 166.964 38.9025 167.218 38.9977 167.472C39.4455 167.515 39.8894 167.586 40.3372 167.594C43.3136 167.662 43.2819 167.662 43.5435 170.721C43.595 171.308 44.027 171.863 44.2846 172.433C44.5541 172.354 44.8276 172.279 45.097 172.2C45.097 171.181 45.1605 170.163 45.0812 169.152C44.9861 167.915 45.5251 167.511 46.6942 167.59C47.6969 167.658 48.7075 167.606 49.9163 167.606C49.417 165.419 47.9704 166.033 46.9875 166.065C45.537 166.108 44.8711 165.68 45.0891 164.174C45.1446 163.786 45.1842 163.362 45.0772 162.997C44.8791 162.323 44.566 161.685 44.3044 161.031C44.0389 161.685 43.7694 162.335 43.5197 162.993C43.4761 163.108 43.5118 163.255 43.5118 163.385C43.5118 166.338 43.6584 165.973 40.8326 166.049C40.1192 166.069 39.4138 166.481 38.7044 166.715V166.711ZM64.9211 100.862C64.929 98.1865 63.4507 96.6606 60.8271 96.6488C58.2668 96.6369 56.6062 98.242 56.5944 100.747C56.5825 103.208 58.4491 105.182 60.8548 105.245C63.2248 105.308 64.9132 103.489 64.9211 100.862ZM221.896 171.019C221.908 168.581 220.164 166.81 217.747 166.806C215.08 166.802 213.578 168.284 213.57 170.931C213.562 173.611 215.032 175.117 217.676 175.128C220.224 175.14 221.884 173.519 221.896 171.015V171.019ZM232.121 177.177C232.557 176.952 232.767 176.896 232.767 176.837C232.783 174.847 233.322 173.42 235.772 173.832C235.942 173.86 236.406 173.341 236.362 173.21C236.247 172.897 235.946 172.489 235.661 172.437C234.848 172.283 234.004 172.287 233.207 172.227C233.021 170.971 232.863 169.901 232.704 168.835C232.478 168.843 232.256 168.851 232.03 168.855C231.899 169.952 231.773 171.054 231.646 172.12C230.465 172.338 229.403 172.533 228.341 172.727C228.348 172.976 228.356 173.226 228.364 173.476C229.45 173.714 230.536 173.951 231.61 174.185C231.781 175.184 231.943 176.127 232.125 177.173L232.121 177.177ZM48.1646 209.616C48.0695 209.581 47.9743 209.529 47.8753 209.517C47.8436 209.513 47.7524 209.628 47.7643 209.652C47.8039 209.739 47.8792 209.811 47.9426 209.886C48.0179 209.795 48.0932 209.708 48.1685 209.616H48.1646ZM242.358 209.898C242.319 209.906 242.255 209.898 242.24 209.926C242.212 209.961 242.216 210.021 242.208 210.072L242.414 210.033C242.398 209.989 242.378 209.941 242.362 209.898H242.358ZM249.401 205.935C249.381 205.99 249.361 206.049 249.342 206.105C249.393 206.121 249.472 206.168 249.484 206.153C249.52 206.109 249.532 206.046 249.552 205.986C249.5 205.97 249.453 205.95 249.401 205.935Z" fill="#FFDAB9"/>
<path d="M211.925 268.886C213.395 269.338 214.874 269.762 216.336 270.249C218.888 271.102 221.508 271.819 223.953 272.917C226.391 274.011 226.514 276.067 224.052 277.034C219.923 278.655 215.638 280.154 211.283 280.859C202.738 282.242 194.102 283.066 185.498 284.073C183.41 284.319 181.301 284.402 179.201 284.493C175.122 284.664 171.04 284.854 166.962 284.917C156.479 285.08 145.993 285.377 135.51 285.246C126.236 285.131 116.954 284.727 107.704 284.061C96.837 283.281 85.9579 282.337 75.3286 279.745C73.0378 279.186 70.7867 278.358 68.6466 277.367C67.7667 276.959 66.7839 275.834 66.7006 274.954C66.6372 274.288 67.8024 273.166 68.6505 272.826C71.4486 271.704 74.3536 270.856 77.2071 269.873C77.6589 269.718 78.0671 269.433 78.4952 269.211C78.7449 269.199 78.9906 269.183 79.2403 269.171C79.6128 269.017 79.9893 268.862 80.3619 268.708C82.2246 268.961 84.0873 269.215 85.946 269.469C88.3081 272.073 91.2171 273.083 94.7563 273.075C128.293 273.012 161.834 273.012 195.371 273.067C199.536 273.075 202.821 271.748 205.104 268.196C205.833 268.101 206.559 268.006 207.288 267.911C207.712 268.117 208.132 268.323 208.556 268.525C208.913 268.565 209.27 268.605 209.626 268.644C209.892 268.676 210.153 268.708 210.419 268.739C210.918 268.787 211.418 268.839 211.921 268.886H211.925Z" fill="#2254B5"/>
<path d="M85.95 269.465C84.0873 269.211 82.2246 268.958 80.3659 268.704C79.9695 268.712 79.5732 268.724 79.1769 268.732C76.0063 267.939 72.8357 267.147 69.3085 266.267C72.8714 264.031 76.0578 262.034 79.2443 260.037C79.1531 259.791 79.0659 259.545 78.9748 259.299C78.2059 259.299 77.4053 259.161 76.6682 259.323C72.3562 260.258 68.0521 261.229 63.76 262.256C62.4679 262.565 61.4177 262.422 60.2485 261.697C55.6076 258.824 51.5572 255.289 47.8516 251.306C46.2346 249.57 44.5225 247.921 42.6518 246.027C45.8343 243.601 49.0088 241.18 52.1834 238.762C52.0605 238.532 51.9377 238.302 51.8148 238.072C51.2283 238.171 50.6258 238.211 50.0631 238.378C46.4605 239.436 42.8777 240.561 39.2633 241.572C38.5935 241.758 37.6384 241.802 37.1073 241.457C32.1295 238.251 27.2191 234.949 22.0391 231.509C22.8873 230.649 23.9217 229.69 24.8451 228.628C25.2295 228.184 25.3682 227.53 25.6179 226.967C24.9561 226.896 24.2902 226.813 23.6284 226.761C23.5095 226.753 23.3787 226.841 23.2638 226.904C18.6585 229.508 14.2355 228.937 9.65406 226.571C6.6975 225.041 3.41595 224.134 0.051178 222.862C0.617919 222.723 0.986498 222.632 1.35508 222.544C2.07638 222.588 2.79769 222.663 3.519 222.663C9.49553 222.675 15.476 222.501 21.4446 222.719C29.1452 223 36.6832 224.467 44.0746 226.627C56.9828 230.396 68.5832 236.483 78.1861 246.05C80.1399 247.996 82.0106 250.029 83.9209 252.023C83.9407 255.225 84.0358 258.431 83.9526 261.634C83.8773 264.459 84.3885 267.083 85.954 269.465H85.95Z" fill="#70B464"/>
<path d="M207.296 267.911C206.567 268.006 205.841 268.101 205.112 268.197C205.437 266.611 205.988 265.034 206.04 263.437C206.182 259.24 206.111 255.035 206.123 250.838C207.121 249.883 208.223 249.011 209.095 247.952C214.636 241.215 221.686 236.415 229.252 232.333C237.65 227.803 246.607 224.783 256.02 223.17C265.496 221.545 275.004 220.46 284.642 221.458C285.645 221.561 286.687 221.28 287.714 221.177C288.316 221.324 288.914 221.47 289.949 221.72C285.423 223.495 281.238 224.914 277.259 226.777C274.671 227.99 272.36 228.239 269.812 226.959C268.702 226.4 267.493 226 266.288 225.679C265.73 225.529 265.076 225.739 264.461 225.782C264.663 226.349 264.719 227.054 265.095 227.459C266.066 228.505 267.184 229.424 268.294 230.439C264.208 233.015 260.221 235.028 256.848 237.795C253.559 240.49 250.519 241.056 246.698 239.352C244.491 238.365 242.053 237.898 239.711 237.216C239.235 237.077 238.732 237.03 238.241 236.943C238.106 237.149 237.967 237.351 237.832 237.557C240.971 239.998 244.114 242.436 247.404 244.996C241.455 250.584 236.469 257.096 229.125 260.928C228.507 261.253 227.623 261.368 226.938 261.225C222.233 260.242 217.549 259.141 212.844 258.146C212.305 258.031 211.675 258.332 211.089 258.439C211.433 258.934 211.667 259.588 212.135 259.894C214.723 261.578 217.366 263.179 220.339 265.026C216.292 266.655 212.408 267.404 208.469 267.935C208.077 267.931 207.68 267.923 207.288 267.919L207.296 267.911Z" fill="#70B464"/>
<path d="M287.718 221.174C286.695 221.277 285.649 221.558 284.646 221.455C275.008 220.456 265.5 221.542 256.024 223.167C246.611 224.78 237.654 227.8 229.256 232.33C221.69 236.412 214.64 241.216 209.099 247.949C208.227 249.007 207.122 249.879 206.127 250.834C206.127 244.628 206.131 238.422 206.135 232.215C207.387 232.921 208.596 233.725 209.908 234.292C210.574 234.577 211.691 234.76 212.131 234.407C212.706 233.943 213.134 232.865 213.054 232.112C212.833 229.972 212.492 227.808 211.869 225.751C211.291 223.845 211.917 222.83 213.514 221.931C218.187 219.295 223.121 217.377 228.384 216.331C231.012 215.808 233.639 215.28 236.267 214.757C238.043 214.472 239.505 214.92 240.837 216.232C242.073 217.448 243.559 218.411 244.935 219.489C245.7 220.096 246.464 220.702 247.229 221.308C247.463 221.138 247.701 220.968 247.935 220.797C247.336 219.545 246.738 218.292 246.139 217.044C245.62 216.683 245.141 216.105 244.57 215.994C239.775 215.055 238.126 213.113 238.142 208.266C238.142 208.202 238.138 208.135 238.134 208.071C238.827 207.624 239.664 207.302 240.183 206.704C240.979 205.785 241.558 204.679 242.232 203.652C243.781 205.091 242.577 206.466 242.01 207.734C241.495 208.888 240.611 209.879 239.727 211.186C240.385 211.048 240.726 210.976 241.067 210.905C241.162 211.008 241.261 211.115 241.356 211.218C240.963 211.484 240.567 211.749 240.175 212.019C240 212.062 239.83 212.106 239.224 212.26C239.834 212.26 240.004 212.26 240.175 212.26C242.109 212.304 244.067 212.181 245.965 212.455C246.992 212.601 247.923 213.43 248.898 213.949C261.525 214.575 273.902 216.652 285.986 220.385C286.588 220.571 287.143 220.912 287.722 221.178L287.718 221.174Z" fill="#A8D99C"/>
<path d="M83.9209 252.023C82.0106 250.03 80.14 248.001 78.1861 246.051C68.5793 236.483 56.9829 230.392 44.0747 226.627C36.6793 224.471 29.1413 223.001 21.4447 222.719C15.4761 222.501 9.49558 222.676 3.51904 222.664C2.79774 222.664 2.07643 222.588 1.35513 222.545C6.76492 221.023 12.1192 219.255 17.5964 218.035C25.725 216.223 33.9843 215.189 42.3388 215.118C43.1592 215.118 43.9835 215.118 45.0021 215.118C44.5859 216.132 44.2927 216.854 43.9954 217.575C43.4604 219.081 42.0138 220.361 42.7153 222.632C43.9835 221.562 44.9506 220.741 45.9215 219.917C47.3166 218.839 48.8345 217.884 50.075 216.651C51.256 215.478 52.4212 215.411 53.8123 215.95C54.7833 216.085 55.7583 216.184 56.7213 216.362C63.9146 217.674 70.9612 219.457 77.1715 223.532C77.8096 223.952 78.3645 225.137 78.2852 225.902C78.0395 228.295 77.3816 230.646 77.0804 233.039C76.9813 233.832 77.231 235.057 77.7739 235.429C78.3288 235.81 79.5059 235.568 80.2827 235.271C81.5509 234.787 82.72 234.034 83.9288 233.396C83.9288 239.606 83.9288 245.813 83.9288 252.023H83.9209Z" fill="#A8D99C"/>
<path d="M252.825 205.582C253.618 205.626 254.407 205.665 255.199 205.709C256.202 206.018 257.32 206.145 258.168 206.692C258.857 207.14 259.69 208.131 259.626 208.804C259.507 210.12 258.287 210.501 257.058 210.199C256.047 209.95 255.088 209.51 254.105 209.157C253.745 208.907 253.388 208.658 253.031 208.412C252.952 208.523 252.873 208.634 252.79 208.741C253 208.915 253.21 209.09 253.42 209.26C254.462 211.376 253.594 212.688 251.252 212.53C250.729 212.494 250.206 212.451 249.687 212.411C247.768 211.337 245.846 210.263 244.197 209.339C244.197 207.401 244.086 205.765 244.241 204.152C244.332 203.2 244.717 202.221 245.192 201.381C245.818 200.272 246.825 199.075 248.137 199.958C248.708 200.343 248.834 201.98 248.573 202.875C248.125 204.401 247.213 205.796 246.5 207.243L246.516 207.227C246.417 207.282 246.314 207.334 246.215 207.389C246.31 207.465 246.401 207.54 246.496 207.619L246.54 207.671C246.397 207.928 246.258 208.182 246.116 208.44C245.945 208.519 245.779 208.598 245.608 208.681C245.779 208.681 245.949 208.685 246.12 208.689H252.615C252.294 208.095 252.112 207.623 251.815 207.235C249.869 204.683 250.598 199.075 253.273 197.347C253.868 196.962 255.037 197.121 255.762 197.438C256.067 197.569 256.087 198.809 255.917 199.463C255.722 200.2 255.199 200.862 254.751 201.516C253.888 202.784 252.976 204.021 252.08 205.269C251.93 205.325 251.779 205.376 251.185 205.59H252.829L252.825 205.582Z" fill="#70B464"/>
<path d="M43.9914 217.574C44.2847 216.853 44.5819 216.132 44.9981 215.117C43.9795 215.117 43.1591 215.117 42.3348 215.117C42.3467 214.994 42.3546 214.876 42.3586 214.753C45.866 215.347 48.4778 213.354 51.0578 211.614C51.0578 210.849 51.0578 210.009 51.0578 209.165C55.8295 209.394 60.5458 209.969 65.2263 210.809C65.2422 211.103 65.258 211.392 65.2739 211.685C61.382 212.632 57.4901 213.58 53.5547 214.539C53.6498 215.062 53.729 215.506 53.8083 215.95C52.4172 215.411 51.252 215.478 50.071 216.651C48.8305 217.884 47.3126 218.839 45.9175 219.917C45.2755 219.136 44.6334 218.355 43.9914 217.574Z" fill="#FEE0DC"/>
<path d="M35.74 202.321C34.8839 201.005 33.8733 199.76 33.2471 198.346C32.9737 197.731 33.3264 196.19 33.6989 196.075C34.4678 195.845 35.9619 196.007 36.2314 196.507C37.2698 198.437 38.0902 200.521 38.6728 202.638C38.8868 203.411 38.2289 204.437 37.9317 205.337C37.7216 205.979 37.4481 206.601 37.2064 207.231C36.8021 207.37 36.3979 207.505 35.9936 207.639L36.0135 207.619C35.8747 207.758 35.736 207.897 35.5973 208.036L35.6211 208.016C34.5114 208.337 33.3977 208.662 32.288 208.983C30.9405 209.375 29.7119 208.963 29.5177 207.635C29.4226 206.973 30.3778 205.84 31.1308 205.448C32.3554 204.817 33.8059 204.623 35.2803 204.211C34.9394 203.533 34.6699 203.002 34.4004 202.471C34.7769 202.499 35.1574 202.527 35.5339 202.558C35.744 202.61 35.95 202.665 36.1601 202.721C36.0174 202.586 35.8747 202.447 35.7321 202.313L35.74 202.321Z" fill="#70B464"/>
<path d="M255.984 203.612C255.726 203.612 255.469 203.612 255.544 203.612C255.933 202.558 256.361 201.428 256.769 200.295C257.292 198.833 257.653 197.291 258.35 195.924C259.163 194.33 260.51 193.684 262.262 194.675C262.797 196.514 261.877 197.85 260.724 199.106C259.737 200.18 258.75 201.262 257.443 202.689C259.591 203.026 261.188 203.259 262.777 203.541C263.356 203.644 264.089 203.691 264.446 204.06C265.056 204.69 265.424 205.554 265.896 206.319C265.167 206.755 264.43 207.575 263.708 207.564C261.093 207.524 259.25 205.879 257.482 204.135C257.141 203.798 256.487 203.783 255.976 203.62L255.984 203.612Z" fill="#70B464"/>
<path d="M27.7145 193.023C28.6973 193.526 30.1399 193.779 30.5719 194.58C31.4835 196.257 31.8521 198.222 32.4664 200.061C32.6962 200.751 32.9855 201.417 33.2431 202.094C32.7081 202.388 32.1612 202.649 31.646 202.974C29.8784 204.084 28.2019 205.372 26.3392 206.279C25.289 206.795 23.8662 206.696 23.3985 205.186C22.9308 203.672 23.9851 202.946 25.2176 202.645C27.0645 202.193 28.9589 201.92 30.9326 201.555C30.7265 201.397 30.5204 201.238 30.2866 201.06C30.5244 200.941 30.7463 200.83 31.0119 200.699C30.9167 200.545 30.8454 200.374 30.7305 200.243C29.5256 198.852 28.2416 197.525 27.1358 196.058C26.3075 194.961 26.4304 193.827 27.7105 193.019L27.7145 193.023Z" fill="#70B464"/>
<path d="M37.2103 207.231C39.188 207.322 41.1617 207.417 43.1393 207.508C43.3018 207.5 43.4643 207.492 43.6268 207.488C43.4643 207.413 43.3018 207.338 43.1393 207.262C42.8936 206.481 42.7271 205.669 42.3903 204.932C41.7363 203.513 40.8644 202.181 40.3413 200.719C40.151 200.188 40.5117 199.043 40.9556 198.809C41.4787 198.531 42.7826 198.698 43.0125 199.098C43.8725 200.588 44.7563 202.201 45.0377 203.866C45.6163 207.314 44.8356 208.483 41.669 210.187C41.2132 210.433 40.797 210.754 40.3651 211.039C39.6596 211.118 38.9502 211.202 38.2447 211.285C35.7083 211.59 34.769 210.417 35.633 208.019L35.6092 208.039C35.7479 207.9 35.8866 207.762 36.0253 207.623L36.0055 207.643C36.4098 207.508 36.814 207.373 37.2183 207.234L37.2103 207.231Z" fill="#70B464"/>
<path d="M51.0578 209.164V211.614C48.4778 213.354 45.866 215.347 42.3586 214.753C41.9979 213.837 41.6412 212.918 41.2806 212.002C43.7338 210.476 46.405 210.758 49.0802 211.067C49.1357 211.059 49.1951 211.055 49.2506 211.047C49.1912 210.988 49.1278 210.924 49.0683 210.865C48.7909 209.965 48.6561 208.982 48.2043 208.178C47.2571 206.493 45.8224 205.007 46.4922 202.819C47.0035 203.457 47.5504 204.076 48.026 204.741C49.0564 206.2 50.0512 207.686 51.0578 209.16V209.164Z" fill="#70B464"/>
<path d="M28.083 200.692C25.5743 200.462 23.0577 200.315 20.5648 199.966C19.4313 199.808 18.4484 198.916 19.0667 197.735C19.4472 197.01 20.7114 196.201 21.4565 196.304C24.1674 196.685 26.47 198.012 28.083 200.692Z" fill="#70B464"/>
<path d="M261.168 201.872C262.654 199.296 264.798 198.095 267.303 197.509C268.587 197.208 269.768 197.453 270.172 198.872C270.589 200.319 269.519 201.032 268.373 201.198C265.987 201.543 263.57 201.658 261.164 201.868L261.168 201.872Z" fill="#70B464"/>
<path d="M207.296 267.911C207.688 267.915 208.085 267.923 208.477 267.927C208.505 268.129 208.532 268.327 208.564 268.525C208.14 268.319 207.72 268.113 207.296 267.911Z" fill="#FBB9AC"/>
<path d="M79.1769 268.732C79.5732 268.724 79.9695 268.712 80.3658 268.704C79.9933 268.859 79.6168 269.013 79.2443 269.168C79.2244 269.025 79.2007 268.878 79.1769 268.732Z" fill="#FBB9AC"/>
<path d="M253.42 209.264C253.21 209.09 253 208.915 252.79 208.745C252.869 208.634 252.948 208.523 253.032 208.416C253.388 208.666 253.749 208.915 254.106 209.161C253.876 209.197 253.65 209.232 253.42 209.264Z" fill="#FEE0DC"/>
<path d="M83.9209 252.023C83.9209 245.813 83.9209 239.606 83.9209 233.396C83.9169 229.948 83.9129 226.504 83.909 223.056C83.909 214.206 83.9129 205.36 83.9169 196.51C83.9367 184.236 83.9605 171.966 83.9803 159.692C83.9843 156.787 83.9962 153.886 84.0001 150.981C86.2393 150.981 88.4786 150.989 90.7178 150.993C90.7138 164.333 90.7019 177.673 90.7019 191.017C90.7019 212.549 90.694 234.078 90.7217 255.61C90.7297 261.23 94.2926 264.709 99.9006 264.713C114.236 264.729 128.567 264.745 142.902 264.757C158.687 264.765 174.476 264.781 190.262 264.761C195.83 264.753 199.33 261.257 199.33 255.788C199.33 220.848 199.33 185.913 199.322 150.973C201.577 150.969 203.836 150.965 206.091 150.957C206.103 165.748 206.115 180.542 206.127 195.333C206.127 204.179 206.131 213.025 206.135 221.871C206.135 225.319 206.135 228.767 206.131 232.215C206.131 238.421 206.127 244.628 206.123 250.834C206.111 255.035 206.182 259.24 206.04 263.437C205.984 265.034 205.437 266.612 205.112 268.197C202.829 271.748 199.544 273.076 195.379 273.068C161.842 273.012 128.301 273.008 94.7642 273.076C91.2251 273.084 88.3161 272.073 85.954 269.469C84.3885 267.087 83.8812 264.464 83.9526 261.638C84.0358 258.436 83.9407 255.229 83.9209 252.027V252.023Z" fill="#0C2C7E"/>
<path d="M83.9328 135.92C83.9486 114.717 83.9724 93.5176 83.9645 72.3144C83.9645 69.881 84.3212 67.6101 85.8629 65.6126C88.0228 62.8106 90.916 61.7841 94.3441 61.8C112.313 61.8674 130.279 61.9387 148.248 61.9427C164.101 61.9427 179.954 61.8475 195.807 61.8198C201.105 61.8119 204.807 64.4553 205.873 68.9813C206.067 69.8017 206.051 70.6816 206.055 71.5337C206.075 94.1201 206.087 116.71 206.099 139.297C206.099 139.626 206.151 139.955 206.178 140.28C204.427 141.73 202.675 143.177 200.919 144.627C200.416 144.774 199.909 144.921 199.405 145.067C199.381 135.718 199.342 126.365 199.334 117.016C199.326 110.892 199.358 104.773 199.37 98.65C199.381 96.391 199.393 94.128 199.405 91.8689C199.405 91.4924 199.405 91.1159 199.405 90.7394C199.381 89.8041 199.358 88.8688 199.33 87.9335C199.31 86.8792 199.29 85.8211 199.27 84.7669C199.29 82.3334 199.445 79.8921 199.274 77.4706C199.175 76.02 198.569 74.6091 198.188 73.1784C197.142 70.6221 195.097 69.0685 192.493 68.9457C186.319 68.6564 180.128 68.7198 173.945 68.6445C173.858 68.7277 173.775 68.8149 173.688 68.8981C173.688 70.4874 173.688 72.0727 173.688 73.6619C173.406 77.5815 173.299 77.6727 169.352 77.6846C161.37 77.7084 153.384 77.7401 145.402 77.7678C136.683 77.7321 127.964 77.6965 119.249 77.6568C115.587 77.641 115.238 77.2764 115.234 73.5272C115.234 71.9022 115.234 70.2813 115.234 68.5692C109.824 68.5692 104.676 68.5335 99.532 68.5969C98.5016 68.6088 97.4394 68.8862 96.4565 69.231C92.64 70.5706 90.7693 73.6302 90.7654 78.4019C90.7495 99.2762 90.7336 120.15 90.7218 141.025C88.4588 139.325 86.1918 137.624 83.9288 135.924L83.9328 135.92Z" fill="#0C2C7E"/>
<path d="M83.9328 135.92C86.1958 137.62 88.4627 139.321 90.7257 141.021C95.1566 144.219 99.5875 147.422 104.018 150.62C103.943 150.743 103.868 150.87 103.792 150.992H90.7217C88.4825 150.992 86.2433 150.984 84.0041 150.981C83.5444 150.965 83.0767 150.988 82.6209 150.925C81.0515 150.703 80.025 151.088 79.2363 152.712C78.1227 155.011 75.9944 156.137 73.4064 156.137C57.7596 156.149 42.1128 156.168 26.4661 156.121C22.8833 156.109 19.8594 153.105 19.8078 149.324C19.6889 140.942 19.681 132.556 19.8197 124.173C19.8831 120.246 23.026 117.353 27.1319 117.337C42.3823 117.269 57.6328 117.265 72.8833 117.333C77.4291 117.353 80.3183 120.484 80.3579 125.061C80.3738 126.71 80.564 128.394 80.3183 130.007C79.8506 133.091 81.2893 134.83 83.9288 135.92H83.9328ZM76.0499 144.616C76.038 138.742 76.0182 132.869 76.0103 126.995C76.0023 122.453 74.8332 121.284 70.2517 121.284C59.4916 121.284 48.7354 121.284 37.9752 121.284C34.8086 121.284 31.6381 121.233 28.4714 121.3C25.285 121.367 24.0683 122.651 24.0643 125.826C24.0564 133.285 24.0485 140.74 24.0643 148.198C24.0723 151.044 25.1939 152.197 27.9998 152.201C42.6518 152.217 57.3039 152.217 71.9559 152.201C74.5003 152.201 75.8319 150.913 75.9905 148.369C76.0618 147.251 76.0261 146.126 76.042 145.004H94.1896C94.1896 144.873 94.1896 144.746 94.1896 144.616H76.046H76.0499Z" fill="#FFA653"/>
<path d="M83.909 223.056C83.9129 226.504 83.9169 229.948 83.9208 233.396C82.7121 234.034 81.5429 234.787 80.2747 235.271C79.4979 235.568 78.3208 235.81 77.766 235.429C77.223 235.056 76.9733 233.832 77.0724 233.039C77.3736 230.645 78.0315 228.295 78.2772 225.901C78.3565 225.141 77.8056 223.952 77.1636 223.531C70.9532 219.457 63.9105 217.674 56.7133 216.362C55.7503 216.188 54.7753 216.085 53.8043 215.95C53.7251 215.506 53.6458 215.062 53.5507 214.539C57.4822 213.58 61.378 212.633 65.2699 211.685C65.2541 211.392 65.2382 211.103 65.2224 210.81C60.5418 209.969 55.8216 209.395 51.0539 209.165C50.0432 207.69 49.0524 206.204 48.022 204.746C47.5504 204.076 47.0034 203.462 46.4882 202.824C44.8871 200.426 43.3018 198.02 41.6808 195.634C41.1299 194.826 40.5038 194.073 39.7666 193.102C41.0507 192.571 42.2238 192.182 43.2939 191.604C43.9795 191.231 44.5145 190.577 45.113 190.05C44.3441 189.713 43.599 189.218 42.7945 189.075C41.4391 188.833 40.0321 188.627 38.6728 188.746C36.275 188.952 34.8403 187.68 33.3224 186.099C30.0924 182.73 26.688 179.528 23.3549 176.262C23.3668 176.195 23.3708 176.131 23.3668 176.064C23.7274 176.084 24.0881 176.108 24.4448 176.127C24.8689 176.393 25.2612 176.754 25.7209 176.908C37.6027 180.939 48.5729 186.721 58.6276 194.204C64.1285 198.298 69.3838 202.74 73.5649 208.198C77.2309 212.981 80.4689 218.094 83.8931 223.06L83.909 223.056Z" fill="#70B464"/>
<path d="M206.131 232.214C206.131 228.766 206.131 225.318 206.135 221.87C206.285 221.66 206.464 221.462 206.587 221.236C211.755 211.681 218.555 203.418 226.942 196.573C237.674 187.811 249.591 181.033 262.678 176.365C263.3 176.143 263.815 175.624 264.382 175.239C265.04 175.184 265.698 175.128 266.356 175.073C266.348 175.227 266.34 175.382 266.336 175.54C262.587 179.258 258.885 183.027 255.041 186.641C254.323 187.319 253.055 187.557 252.005 187.7C250.047 187.965 248.058 187.969 246.092 188.179C245.684 188.223 245.315 188.678 244.931 188.944C245.216 189.34 245.414 189.919 245.803 190.105C247.166 190.759 248.593 191.278 250.273 191.96C249.425 193.105 248.632 194.108 247.915 195.158C246.001 197.972 244.118 200.814 242.224 203.64C241.55 204.666 240.971 205.776 240.175 206.691C239.656 207.29 238.819 207.615 238.13 208.059C233.667 208.499 229.181 208.812 224.79 210.068C225.495 210.655 226.2 210.944 226.93 211.13C229.724 211.84 232.526 212.521 235.324 213.207C236.16 213.413 236.881 213.667 236.263 214.749C233.636 215.272 231.008 215.799 228.38 216.322C223.117 217.372 218.183 219.286 213.51 221.922C211.913 222.822 211.287 223.836 211.866 225.743C212.488 227.799 212.829 229.959 213.051 232.103C213.13 232.856 212.702 233.935 212.127 234.398C211.687 234.755 210.574 234.573 209.904 234.283C208.592 233.717 207.383 232.912 206.131 232.207V232.214Z" fill="#70B464"/>
<path d="M216.388 122.814C217.045 119.35 219.74 117.273 223.72 117.265C234.547 117.245 245.379 117.257 256.206 117.257C260.431 117.257 264.66 117.23 268.884 117.265C273.628 117.301 276.561 120.226 276.573 124.938C276.597 132.797 276.597 140.652 276.573 148.511C276.557 153.152 273.632 156.101 269.051 156.105C253.927 156.117 238.808 156.117 223.684 156.105C219.871 156.105 217.719 154.555 216.376 150.937C216.376 150.679 216.376 150.422 216.372 150.16C216.503 149.613 216.736 149.066 216.752 148.515C216.855 145.004 216.839 145.004 220.311 145.004C220.331 145.927 220.343 146.851 220.375 147.774C220.493 150.988 221.686 152.165 224.889 152.165C239.22 152.173 253.551 152.173 267.882 152.165C271.353 152.165 272.293 151.194 272.293 147.663C272.297 140.529 272.134 133.396 272.352 126.27C272.487 121.878 270.236 121.26 267.252 121.26C253.317 121.26 239.382 121.256 225.447 121.26C221.611 121.26 220.382 122.517 220.367 126.385C220.347 132.46 220.323 138.532 220.303 144.608C219.974 144.608 219.645 144.608 219.316 144.608C217.615 144.608 216.764 143.753 216.764 142.043C216.764 136.316 216.776 130.594 216.748 124.867C216.748 124.181 216.51 123.499 216.38 122.814H216.388Z" fill="#FFA653"/>
<path d="M83.9089 223.056C80.4808 218.09 77.2468 212.978 73.5808 208.194C69.3996 202.737 64.1404 198.294 58.6434 194.2C48.5887 186.717 37.6185 180.935 25.7368 176.904C25.2771 176.75 24.8847 176.385 24.4606 176.124C39.4258 177.332 53.7964 180.883 67.2515 186.551C66.4628 187.593 65.7931 188.667 64.933 189.555C64.1364 190.375 63.1377 190.994 62.2262 191.703C62.3926 191.933 62.5591 192.163 62.7255 192.393C63.1972 192.393 63.6886 192.488 64.1325 192.377C66.1062 191.881 68.1591 191.54 70.006 190.74C72.693 189.575 74.8887 190.173 77.0962 191.798C79.3235 193.435 81.6459 194.949 83.9248 196.514C83.9248 205.364 83.9208 214.21 83.9169 223.06L83.9089 223.056Z" fill="#A8D99C"/>
<path d="M264.386 175.244C263.819 175.624 263.304 176.147 262.682 176.369C249.599 181.038 237.678 187.815 226.946 196.578C218.559 203.422 211.759 211.682 206.59 221.241C206.468 221.467 206.289 221.665 206.139 221.875C206.139 213.029 206.135 204.183 206.131 195.337C208.889 193.538 211.675 191.786 214.39 189.923C215.761 188.984 217.065 188.77 218.658 189.321C220.767 190.05 222.939 190.593 225.103 191.152C225.808 191.334 226.565 191.307 227.298 191.378C227.389 191.204 227.481 191.025 227.572 190.851C225.852 189.214 224.132 187.577 222.166 185.707C224.869 184.652 227.33 183.61 229.847 182.726C239.921 179.179 250.249 176.702 260.875 175.521C262.04 175.39 263.213 175.339 264.386 175.248V175.244Z" fill="#A8D99C"/>
<path d="M216.376 150.161C216.376 150.418 216.376 150.676 216.38 150.937C212.951 150.945 209.519 150.949 206.091 150.957C203.836 150.961 201.577 150.965 199.322 150.973C197.027 150.973 194.733 150.973 192.438 150.973C192.993 150.089 193.635 149.653 194.241 149.174C195.969 147.814 197.685 146.435 199.405 145.064C199.908 144.917 200.416 144.771 200.919 144.624C201.537 144.751 202.156 144.981 202.778 144.989C205.608 145.028 208.437 145.005 211.271 145.005C214.671 145.005 216.373 146.722 216.376 150.157V150.161Z" fill="#FFA653"/>
<path d="M216.376 150.161C216.376 146.726 214.674 145.008 211.271 145.008C208.441 145.008 205.608 145.032 202.778 144.993C202.156 144.985 201.541 144.755 200.919 144.628C202.671 143.177 204.423 141.727 206.178 140.28C209.242 138.156 212.333 136.063 215.345 133.868C215.761 133.567 215.975 132.758 215.991 132.175C216.063 129.75 215.995 127.321 216.039 124.895C216.051 124.201 216.265 123.512 216.384 122.822C216.51 123.508 216.748 124.19 216.752 124.875C216.784 130.602 216.768 136.325 216.768 142.052C216.768 143.761 217.619 144.616 219.32 144.616C219.649 144.616 219.978 144.616 220.307 144.616C220.307 144.747 220.307 144.882 220.307 145.012C216.835 145.012 216.851 145.012 216.748 148.524C216.732 149.075 216.502 149.618 216.368 150.168L216.376 150.161Z" fill="#FFA653"/>
<path d="M222.974 61.6816C224.75 62.9895 224.342 64.6223 224.258 66.057C224.163 67.7374 224.766 68.2923 226.395 68.1417C227.29 68.0585 228.249 68.1536 229.109 68.4072C229.545 68.534 229.827 69.1919 230.18 69.6081C229.728 69.9014 229.3 70.3849 228.82 70.4443C227.782 70.5751 226.712 70.5315 225.658 70.48C224.611 70.4285 224.286 70.8922 224.278 71.8909C224.27 73.064 224.191 74.249 223.961 75.3944C223.886 75.7749 223.264 76.0523 222.891 76.3733C222.586 75.9809 222.079 75.6203 222.011 75.1883C221.865 74.2213 221.849 73.2106 221.94 72.2317C222.075 70.797 221.449 70.3492 220.109 70.476C219.257 70.5553 218.365 70.6266 217.549 70.4404C216.982 70.3096 216.518 69.7349 216.007 69.3584C216.514 68.9462 216.982 68.4627 217.545 68.1575C217.85 67.9911 218.322 68.1219 218.718 68.1139C222.384 68.0624 221.873 68.5935 221.92 64.7967C221.924 64.333 221.805 63.8257 221.956 63.4215C222.182 62.823 222.598 62.2999 222.97 61.6816H222.974Z" fill="#0C2C7E"/>
<path d="M160.605 43.9341C157.244 43.9142 154.49 40.9894 154.538 37.4859C154.581 34.0815 157.133 31.6283 160.613 31.6481C164.172 31.6679 166.843 34.244 166.824 37.6365C166.804 41.14 164.029 43.9539 160.605 43.9341ZM160.459 33.2334C158.307 33.2532 156.131 35.5439 156.127 37.7871C156.127 40.0065 158.406 42.3527 160.53 42.321C162.88 42.2854 165.143 40.1016 165.183 37.8267C165.222 35.4012 162.967 33.2096 160.459 33.2294V33.2334Z" fill="#0C2C7E"/>
<path d="M141.53 49.1577C141.067 49.3955 140.619 49.7918 140.131 49.8433C138.704 49.9939 136.77 49.4827 135.97 50.2278C135.201 50.9411 135.696 52.9307 135.439 54.3218C135.344 54.8291 134.678 55.2333 134.274 55.6812C133.897 55.1977 133.291 54.7617 133.188 54.2267C132.922 52.8435 133.366 50.9491 132.597 50.1485C131.912 49.4351 129.973 50.0058 128.614 49.8235C128.127 49.7601 127.71 49.1537 127.259 48.797C127.699 48.4958 128.115 47.9965 128.586 47.9331C130.001 47.7428 131.959 48.2462 132.72 47.4892C133.477 46.7362 132.938 44.7665 133.184 43.3635C133.295 42.7254 133.925 42.1745 134.321 41.584C134.717 42.2062 135.344 42.7888 135.459 43.4586C135.688 44.8021 135.134 46.6569 135.847 47.4258C136.525 48.159 138.411 47.727 139.755 47.9093C140.361 47.9925 140.936 48.3175 141.526 48.5355C141.526 48.7376 141.526 48.9437 141.526 49.1458L141.53 49.1577Z" fill="#0C2C7E"/>
<path d="M75.0829 81.5134C74.6628 82.0603 74.4923 82.4527 74.1991 82.6073C73.8741 82.7777 73.4381 82.7539 73.0497 82.7698C69.8356 82.9045 69.8792 82.9045 69.6651 86.1306C69.6255 86.7211 69.1024 87.2799 68.8012 87.8546C68.4405 87.2759 68.0719 86.7013 67.7271 86.1147C67.6716 86.0156 67.7192 85.8571 67.7192 85.7224C67.6875 82.4725 68.1353 82.7975 64.7547 82.7737C64.3584 82.7737 63.9185 82.8807 63.5816 82.742C63.0981 82.5478 62.6859 82.1673 62.246 81.8701C62.6938 81.5134 63.102 80.9269 63.6014 80.8397C64.8736 80.6177 66.6571 81.0854 67.3427 80.3918C68.0323 79.6943 67.5726 77.9227 67.7668 76.6426C67.8381 76.167 68.3295 75.7549 68.6268 75.3149C68.9835 75.7628 69.3441 76.2106 69.6968 76.6624C69.7285 76.706 69.6968 76.7893 69.7048 76.8566C69.792 78.0852 69.463 79.6547 70.1011 80.4315C70.6124 81.0537 72.3046 80.6574 73.4579 80.8199C73.9573 80.8912 74.425 81.2201 75.0868 81.5095L75.0829 81.5134Z" fill="#0C2C7E"/>
<path d="M232.672 97.4411C229.573 97.4054 227.449 95.1781 227.473 91.9837C227.496 88.936 229.843 86.681 232.926 86.7404C235.696 86.7919 238.229 89.5067 238.173 92.3642C238.122 95.0235 235.47 97.4728 232.672 97.4411ZM232.72 88.3257C230.73 88.3019 228.876 90.1052 228.788 92.1462C228.713 93.9178 230.897 96.1491 232.684 96.1332C234.622 96.1134 236.529 94.1675 236.584 92.1581C236.64 90.0814 234.9 88.3574 232.72 88.3297V88.3257Z" fill="#0C2C7E"/>
<path d="M38.7322 166.711C39.4416 166.477 40.1471 166.065 40.8605 166.045C43.6902 165.969 43.5396 166.33 43.5396 163.381C43.5396 163.251 43.5039 163.104 43.5475 162.989C43.7972 162.331 44.0707 161.677 44.3322 161.027C44.5978 161.681 44.9069 162.319 45.1051 162.993C45.2121 163.358 45.1724 163.786 45.117 164.17C44.899 165.676 45.5648 166.108 47.0153 166.061C47.9982 166.029 49.4448 165.415 49.9442 167.602C48.7393 167.602 47.7248 167.658 46.7221 167.586C45.5489 167.507 45.0139 167.911 45.109 169.148C45.1883 170.159 45.1249 171.181 45.1249 172.196C44.8554 172.275 44.5819 172.35 44.3124 172.43C44.0548 171.859 43.6228 171.304 43.5713 170.717C43.3097 167.662 43.3414 167.662 40.3651 167.59C39.9172 167.579 39.4733 167.511 39.0255 167.468C38.9264 167.214 38.8273 166.96 38.7322 166.707V166.711Z" fill="#0C2C7E"/>
<path d="M64.949 100.862C64.941 103.49 63.2527 105.309 60.8827 105.245C58.481 105.182 56.6103 103.208 56.6222 100.747C56.6341 98.2423 58.2947 96.6332 60.8549 96.649C63.4746 96.6609 64.9569 98.1868 64.949 100.862ZM60.7004 97.838C59.012 97.8697 57.7914 99.1578 57.8152 100.874C57.8389 102.558 59.2617 104.013 60.9263 104.056C62.2936 104.092 64.0017 102.408 64.0374 100.993C64.081 99.3084 62.4878 97.8023 60.7004 97.834V97.838Z" fill="#0C2C7E"/>
<path d="M221.924 171.019C221.912 173.523 220.252 175.144 217.703 175.132C215.06 175.12 213.59 173.614 213.597 170.935C213.605 168.288 215.107 166.802 217.775 166.81C220.188 166.814 221.932 168.585 221.924 171.023V171.019ZM214.79 170.943C214.778 172.968 215.658 173.932 217.537 173.943C219.614 173.955 220.688 172.992 220.735 171.078C220.779 169.279 219.499 167.975 217.707 167.999C215.864 168.022 214.798 169.096 214.786 170.943H214.79Z" fill="#0C2C7E"/>
<path d="M232.149 177.177C231.971 176.131 231.805 175.188 231.634 174.189C230.56 173.955 229.474 173.718 228.388 173.48C228.38 173.23 228.372 172.98 228.364 172.731C229.427 172.537 230.489 172.338 231.67 172.124C231.797 171.058 231.923 169.957 232.054 168.859C232.28 168.851 232.502 168.843 232.728 168.839C232.886 169.905 233.045 170.971 233.231 172.231C234.028 172.287 234.868 172.287 235.685 172.441C235.97 172.497 236.271 172.905 236.386 173.214C236.434 173.345 235.966 173.864 235.795 173.836C233.346 173.42 232.807 174.851 232.791 176.841C232.791 176.9 232.581 176.956 232.145 177.181L232.149 177.177Z" fill="#0C2C7E"/>
<path d="M252.825 205.582H251.181C251.775 205.368 251.926 205.316 252.076 205.261C252.326 205.368 252.576 205.475 252.825 205.582Z" fill="#FDE4DC"/>
<path d="M48.1924 209.616C48.1171 209.707 48.0418 209.795 47.9665 209.886C47.9031 209.81 47.8317 209.739 47.7881 209.652C47.7762 209.628 47.8674 209.513 47.8991 209.517C47.9982 209.529 48.0933 209.581 48.1884 209.62L48.1924 209.616Z" fill="#FEE0DC"/>
<path d="M43.1353 207.263C43.2978 207.338 43.4603 207.413 43.6228 207.489C43.4603 207.497 43.2978 207.504 43.1353 207.508C43.1353 207.425 43.1353 207.342 43.1353 207.263Z" fill="#FEE0DC"/>
<path d="M246.496 207.246C246.678 207.334 246.865 207.417 247.047 207.504C246.877 207.559 246.706 207.615 246.536 207.67C246.536 207.67 246.492 207.619 246.492 207.623C246.5 207.492 246.504 207.361 246.512 207.23L246.496 207.246Z" fill="#FC908A"/>
<path d="M242.387 209.898C242.403 209.942 242.423 209.99 242.439 210.033L242.232 210.073C242.24 210.026 242.236 209.966 242.264 209.926C242.284 209.902 242.343 209.906 242.383 209.898H242.387Z" fill="#FEE0DC"/>
<path d="M246.116 208.685C245.945 208.685 245.775 208.681 245.604 208.677C245.775 208.598 245.941 208.519 246.112 208.436C246.112 208.519 246.112 208.602 246.116 208.685Z" fill="#FEE0DC"/>
<path d="M240.167 212.256H239.216C239.818 212.101 239.992 212.058 240.167 212.014C240.167 212.093 240.167 212.177 240.167 212.256Z" fill="#FEE0DC"/>
<path d="M45.9175 208.427C46.1089 208.463 46.2962 208.499 45.9295 208.427C46.2165 208.663 46.069 208.543 45.9215 208.419H45.9175V208.427Z" fill="#FC908A"/>
<path d="M249.429 205.935C249.481 205.951 249.529 205.97 249.581 205.986C249.561 206.042 249.553 206.11 249.513 206.154C249.501 206.17 249.417 206.122 249.369 206.106C249.389 206.05 249.409 205.99 249.429 205.935Z" fill="#FEE0DC"/>
<path d="M266.336 175.545C266.344 175.39 266.348 175.236 266.356 175.077C266.483 175.041 266.602 175.057 266.713 175.125L266.724 175.137C266.594 175.271 266.467 175.41 266.336 175.545Z" fill="#FC8C86"/>
<path d="M23.3793 176.06C23.3793 176.127 23.3793 176.195 23.3674 176.258C23.276 176.215 23.1847 176.171 23.0933 176.123C23.1886 176.099 23.288 176.079 23.3833 176.056L23.3793 176.06Z" fill="#FC8C86"/>
<path d="M45.9231 208.424C45.8314 208.373 45.7357 208.325 45.6441 208.273C45.7357 208.325 45.8274 208.377 45.9191 208.428L45.9231 208.424Z" fill="#FC908A"/>
<path d="M49.0722 210.869C49.132 210.928 49.1958 210.992 49.2556 211.052C49.1998 211.06 49.14 211.068 49.0842 211.072C49.0842 211.004 49.0842 210.936 49.0722 210.869Z" fill="#FEE0DC"/>
<path d="M266.713 175.126C266.772 175.066 266.828 175.01 266.888 174.95C266.884 174.99 266.888 175.042 266.868 175.066C266.828 175.102 266.772 175.114 266.725 175.138L266.713 175.126Z" fill="#FC8C86"/>
<path d="M236.263 214.757C236.881 213.675 236.16 213.421 235.324 213.215C232.522 212.529 229.72 211.852 226.93 211.138C226.201 210.952 225.499 210.663 224.79 210.076C229.185 208.82 233.667 208.507 238.13 208.067C238.13 208.13 238.138 208.198 238.138 208.261C238.122 213.112 239.771 215.054 244.566 215.989C245.137 216.1 245.612 216.679 246.136 217.044C245.735 217.86 245.335 218.672 244.931 219.489C243.555 218.415 242.069 217.452 240.833 216.231C239.501 214.919 238.039 214.471 236.263 214.757Z" fill="#FEE0DC"/>
<path d="M244.931 219.489C245.331 218.672 245.731 217.86 246.135 217.043C246.734 218.296 247.332 219.548 247.931 220.797C247.697 220.967 247.459 221.137 247.225 221.308C246.46 220.702 245.696 220.095 244.931 219.489Z" fill="#FEFEFE"/>
<path d="M43.9914 217.574C44.6335 218.355 45.2755 219.136 45.9175 219.916C44.9466 220.737 43.9756 221.557 42.7113 222.631C42.0098 220.36 43.4604 219.08 43.9914 217.574Z" fill="#FEFEFE"/>
<path d="M246.512 207.227C246.504 207.358 246.5 207.489 246.492 207.619C246.397 207.544 246.306 207.469 246.211 207.39C246.31 207.334 246.413 207.283 246.512 207.227Z" fill="#FEE5E0"/>
<path d="M37.2103 207.235C36.8061 207.37 36.4018 207.504 35.9976 207.643C36.4018 207.508 36.8061 207.374 37.2103 207.235Z" fill="#FEFEFE"/>
<path d="M35.7399 202.32C35.8826 202.455 36.0253 202.593 36.168 202.728C35.9579 202.673 35.7518 202.621 35.5418 202.566C35.6092 202.486 35.6765 202.403 35.7399 202.32Z" fill="#FEE5E0"/>
<path d="M198.704 145.508C196.984 146.879 195.268 148.255 193.54 149.618C192.934 150.097 192.296 150.533 191.737 151.417C194.032 151.417 196.326 151.417 198.621 151.417C198.621 186.357 198.629 221.293 198.629 256.233C198.629 261.702 195.129 265.201 189.561 265.205C173.776 265.225 157.986 265.209 142.201 265.201C127.866 265.193 113.535 265.174 99.1997 265.158C93.5918 265.15 90.0288 261.674 90.0209 256.054C89.9931 234.522 90.0011 212.994 90.0011 191.462C90.0011 178.121 90.013 164.777 90.0169 151.437C94.3725 151.437 98.7321 151.437 103.088 151.437C103.163 151.314 103.238 151.187 103.314 151.065C98.8827 147.866 94.4518 144.664 90.0209 141.466C90.0367 120.591 90.0486 99.717 90.0645 78.8427C90.0685 74.071 91.9431 71.0114 95.7557 69.6719C96.7386 69.3271 97.8007 69.0496 98.8311 69.0377C103.975 68.9743 109.124 69.01 114.533 69.01C114.533 70.7221 114.533 72.347 114.533 73.968C114.541 77.7172 114.89 78.0818 118.548 78.0977C127.267 78.1373 135.986 78.173 144.701 78.2086C144.701 79.9921 144.725 81.7755 144.701 83.555C144.69 84.5696 145.011 85.2869 146.152 85.1799C147.975 85.0095 149.786 84.6291 151.609 84.5736C154.594 84.4864 157.598 84.419 160.57 84.6608C163.63 84.9065 166.65 85.5921 169.701 85.9726C171.485 86.1945 173.292 86.25 175.091 86.2698C175.773 86.2778 176.669 86.1826 177.097 85.7625C178.389 84.4903 179.855 84.7955 181.357 84.9223C182.051 84.9818 182.764 84.9857 183.454 84.8946C186.434 84.4983 189.415 84.094 192.387 83.6184C194.698 83.2499 196.6 84.3041 198.562 85.2116C198.581 86.2659 198.601 87.324 198.621 88.3783C198.645 89.3136 198.669 90.2489 198.696 91.1842C198.696 91.5607 198.696 91.9372 198.696 92.3137C198.684 94.5728 198.673 96.8358 198.661 99.0948C198.649 105.218 198.617 111.337 198.625 117.46C198.637 126.81 198.673 136.163 198.696 145.512L198.704 145.508ZM174.473 247.177C174.612 247.724 174.846 248.266 174.87 248.813C174.977 251.683 175.155 251.79 177.6 250.323C179.356 249.269 181.135 248.247 183.165 247.054C183.165 248.584 183.089 249.646 183.208 250.684C183.248 251.041 183.779 251.611 184.076 251.604C184.425 251.596 185.047 251.072 185.055 250.759C185.13 248.124 185.13 245.484 185.047 242.849C185.035 242.524 184.405 242.215 184.06 241.898C183.763 242.234 183.256 242.548 183.208 242.92C183.085 243.867 183.168 244.842 183.168 246.079C180.882 244.763 178.837 243.602 176.808 242.409C175.456 241.612 174.885 241.981 174.87 243.534C174.862 244.363 174.652 245.187 174.533 246.015C172.571 244.83 170.645 243.586 168.639 242.476C167.149 241.652 166.697 241.981 166.658 243.768C166.618 245.54 166.61 247.311 166.67 249.083C166.693 249.808 166.931 250.526 167.153 251.679C169.832 250.03 172.155 248.599 174.481 247.169L174.473 247.177ZM111.375 246.071C111.299 244.731 111.224 243.392 111.117 241.505C108.192 243.146 105.727 244.533 103.103 246.003C103.103 244.83 103.21 243.891 103.056 242.995C102.985 242.583 102.406 242.262 102.057 241.898C101.76 242.238 101.209 242.571 101.201 242.92C101.13 245.492 101.13 248.072 101.201 250.644C101.213 250.997 101.752 251.33 102.049 251.675C102.402 251.322 103.004 251.001 103.056 250.605C103.199 249.547 103.103 248.461 103.103 247.054C104.617 247.957 105.739 248.627 106.861 249.297C109.693 250.991 111.199 250.244 111.379 247.058C113.864 248.544 116.353 250.03 119.198 251.73V242.112C118.734 242.135 118.437 242.06 118.239 242.171C115.944 243.451 113.662 244.763 111.375 246.067V246.071ZM193.088 208.464C192.454 208.147 191.852 207.727 191.182 207.529C189.046 206.89 186.87 206.379 184.734 205.729C182.507 205.052 181.623 203.446 182.106 201.187C182.229 200.613 182.34 200.03 182.455 199.455C183.117 198.984 184.116 198.659 184.385 198.021C186.192 193.725 187.857 189.369 189.537 185.025C190.548 182.422 189.74 180.4 187.453 178.902C186.739 175.64 186.264 172.303 185.261 169.133C182.677 160.945 182.629 152.705 184.365 144.414C185.305 139.92 186.624 135.505 187.611 131.019C188.606 126.493 188.372 121.994 186.181 117.829C183.129 112.019 180.042 106.217 176.685 100.585C175.67 98.8808 173.926 97.2519 172.127 96.4315C166.186 93.7167 159.952 91.9016 153.318 91.9412C149.584 91.961 145.894 91.7946 142.209 93.039C138.761 94.2042 134.924 94.2835 131.54 95.5755C124.969 98.0842 119.662 102.23 117.732 109.435C116.63 113.549 117.557 117.67 118.405 121.717C119.745 128.129 121.207 134.506 120.554 141.145C120.019 146.578 118.279 151.508 114.787 155.757C112.243 158.852 109.579 161.856 107.142 165.035C102.921 170.54 101.284 176.79 102.707 183.618C103.345 186.678 104.534 189.619 105.473 192.615C104.411 192.349 103.361 191.997 102.287 191.846C101.062 191.676 99.2314 191.156 98.7083 191.735C97.9037 192.623 97.6937 194.331 97.765 195.663C97.8998 198.191 98.6171 200.688 98.7281 203.213C98.9144 207.433 100.401 208.959 104.697 208.824C105.339 208.769 105.981 208.714 106.627 208.654C106.659 208.484 106.686 208.313 106.718 208.143C106.254 207.846 105.806 207.525 105.323 207.259C103.024 205.995 102.315 204.794 103.345 202.491C104.078 200.851 105.541 199.539 106.678 198.08C107.725 198.401 108.775 198.726 109.821 199.047C111.458 201.203 113.079 203.367 114.751 205.495C114.902 205.686 115.366 205.67 115.687 205.682C119.095 205.824 122.507 205.963 125.916 206.082C129.919 206.225 133.922 206.367 137.924 206.47C143.968 206.625 150.016 206.76 156.06 206.871C159.223 206.926 162.433 206.573 165.532 207.025C168.148 207.41 170.3 207.077 172.416 205.614C172.836 205.325 173.522 205.424 174.085 205.341C173.391 207.79 174.2 209.459 176.265 209.601C180.699 209.906 185.138 210.184 189.581 210.346C190.726 210.39 191.923 210.061 193.033 209.708C193.612 209.526 194.357 208.92 193.084 208.452L193.088 208.464ZM155.045 246.352C155.077 240.237 150.393 235.438 144.376 235.422C138.455 235.406 133.684 240.138 133.62 246.087C133.557 252.226 138.376 257.176 144.412 257.164C150.262 257.152 155.014 252.321 155.045 246.352ZM106.068 71.055C104.732 72.4818 104.752 79.0369 106.068 80.3131V71.055ZM103.539 76.4846C103.539 76.4846 103.532 76.4846 103.528 76.4846C103.528 75.5652 103.575 74.6378 103.5 73.7262C103.476 73.425 103.127 73.1555 102.925 72.8702C102.707 73.1357 102.303 73.3973 102.295 73.6707C102.236 75.5097 102.232 77.3526 102.283 79.1915C102.291 79.4808 102.664 79.7583 102.87 80.0396C103.092 79.7107 103.468 79.3976 103.508 79.0449C103.603 78.2007 103.539 77.3407 103.539 76.4846ZM96.7663 77.7013C96.7663 78.1611 96.6593 78.6565 96.798 79.0726C96.9328 79.4848 97.3132 79.8177 97.5867 80.1863C97.8126 79.8415 98.1851 79.5165 98.2406 79.1479C98.3476 78.4425 98.3714 77.6895 98.2446 76.988C98.1455 76.4292 97.773 75.9179 97.5233 75.3829C97.2696 75.8941 96.9843 76.3935 96.7782 76.9206C96.691 77.1505 96.7623 77.4398 96.7663 77.7053V77.7013ZM100.611 74.075H99.6396V79.786C99.9646 79.786 100.567 79.786 100.571 79.7741C100.611 77.8757 100.611 75.9734 100.611 74.075Z" fill="#EFF6FF"/>
<path d="M199.274 84.7629C197.313 83.8593 195.414 82.8011 193.1 83.1697C190.131 83.6453 187.151 84.0495 184.167 84.4458C183.477 84.537 182.764 84.533 182.07 84.4736C180.568 84.3468 179.102 84.0455 177.81 85.3138C177.382 85.7378 176.486 85.829 175.804 85.8211C174.005 85.8012 172.198 85.7458 170.414 85.5238C167.363 85.1434 164.343 84.4617 161.283 84.212C158.314 83.9702 155.306 84.0376 152.322 84.1248C150.499 84.1803 148.688 84.5568 146.865 84.7312C145.719 84.8382 145.402 84.1208 145.414 83.1063C145.434 81.3228 145.414 79.5394 145.414 77.7599C153.396 77.7321 161.382 77.7004 169.364 77.6767C173.311 77.6648 173.418 77.5696 173.7 73.654C175.388 73.654 177.076 73.6619 178.765 73.6619C178.781 75.2393 178.824 76.8206 178.808 78.398C178.796 79.4918 179.28 79.9238 180.362 79.9119C183.719 79.8802 187.08 79.9357 190.436 79.8881C192.442 79.8604 193.67 78.5446 193.678 76.5868C193.678 75.7981 193.698 75.0094 193.71 74.2168C194.419 74.0305 195.125 73.8244 195.838 73.6579C196.623 73.4756 197.412 73.329 198.2 73.1665C198.581 74.5972 199.187 76.0081 199.286 77.4587C199.457 79.8802 199.302 82.3215 199.282 84.755L199.274 84.7629Z" fill="#EFF6FF"/>
<path d="M178.761 73.666C177.072 73.666 175.384 73.6581 173.696 73.6581C173.696 72.0688 173.696 70.4835 173.696 68.8943C173.823 68.8507 173.906 68.7674 173.953 68.6406C180.136 68.7199 186.327 68.6565 192.501 68.9418C195.101 69.0647 197.146 70.6183 198.196 73.1746C197.408 73.337 196.615 73.4837 195.834 73.666C195.121 73.8324 194.415 74.0385 193.706 74.2248C193.167 73.9434 192.628 73.666 192.093 73.3767C191.53 73.0755 190.983 72.5087 190.417 72.4968C187.084 72.4136 183.746 72.4017 180.417 72.5127C179.855 72.5325 179.316 73.2657 178.765 73.666H178.761Z" fill="#EFF6FF"/>
<path d="M199.409 90.7317C199.385 89.7964 199.362 88.8611 199.334 87.9258C199.358 88.8611 199.381 89.7964 199.409 90.7317Z" fill="#F5CDC6"/>
<path d="M173.951 68.6372C173.907 68.7648 173.819 68.8485 173.692 68.8923C173.779 68.8086 173.863 68.7209 173.951 68.6372Z" fill="#F5CDC6"/>
<path d="M76.0499 145.004C76.034 146.125 76.0697 147.251 75.9984 148.369C75.8398 150.913 74.5082 152.197 71.9638 152.201C57.3118 152.217 42.6597 152.217 28.0077 152.201C25.2018 152.201 24.0802 151.044 24.0722 148.198C24.0524 140.739 24.0603 133.285 24.0722 125.826C24.0762 122.655 25.2929 121.367 28.4793 121.3C31.646 121.232 34.8165 121.284 37.9831 121.284C48.7433 121.284 59.4995 121.284 70.2596 121.284C74.8451 121.284 76.0142 122.453 76.0182 126.995C76.0261 132.868 76.0459 138.742 76.0578 144.615C76.034 144.746 76.0301 144.873 76.0578 145.004H76.0499ZM37.3054 123.975C33.4294 123.931 30.3341 125.346 28.0117 128.564C26.1371 131.168 25.4752 134.002 25.713 137.121C26.3273 143.45 31.86 148.163 38.2289 147.778C44.4472 147.402 49.4725 141.722 49.2664 135.532C49.0286 128.374 42.9451 123.345 37.3054 123.971V123.975ZM63.6965 137.466C66.7284 137.466 69.7682 137.573 72.7921 137.398C73.6284 137.351 75.0313 136.55 75.1106 135.952C75.3048 134.474 73.8899 134.327 72.7525 134.323C66.7522 134.299 60.7519 134.26 54.7555 134.382C54.054 134.398 53.3763 135.377 52.6867 135.912C53.3921 136.431 54.0699 137.355 54.8031 137.394C57.7596 137.565 60.732 137.466 63.7005 137.466H63.6965ZM63.8947 145.008C66.9265 145.008 69.9624 145.103 72.9863 144.944C73.7433 144.905 74.4606 144.057 75.1978 143.581C74.5003 143.133 73.8107 142.309 73.1052 142.297C66.9781 142.194 60.847 142.194 54.7238 142.301C54.0461 142.313 53.3842 143.189 52.7144 143.664C53.412 144.112 54.0936 144.917 54.811 144.952C57.8349 145.099 60.8707 145.016 63.9026 145.016L63.8947 145.008ZM63.748 129.551C66.7759 129.551 69.8078 129.638 72.8278 129.492C73.6323 129.452 74.4012 128.707 75.1859 128.283C74.3933 127.78 73.6125 126.86 72.808 126.84C66.8235 126.718 60.8311 126.729 54.8466 126.832C54.1293 126.844 53.4278 127.641 52.7144 128.073C53.4318 128.564 54.1253 129.436 54.8665 129.48C57.8191 129.642 60.7836 129.547 63.7441 129.547L63.748 129.551Z" fill="#EFF6FF"/>
<path d="M76.0499 145.004C76.0261 144.873 76.0261 144.747 76.0499 144.616C82.0978 144.616 88.1457 144.616 94.1935 144.616C94.1935 144.747 94.1935 144.873 94.1935 145.004H76.0459H76.0499Z" fill="#FC7773"/>
<path d="M220.315 145.008C220.315 144.878 220.315 144.743 220.315 144.612C220.335 138.536 220.355 132.465 220.379 126.389C220.39 122.517 221.623 121.265 225.459 121.265C239.394 121.257 253.329 121.265 267.263 121.265C270.244 121.265 272.495 121.887 272.364 126.274C272.146 133.4 272.309 140.538 272.305 147.668C272.305 151.199 271.361 152.17 267.894 152.17C253.563 152.178 239.232 152.178 224.901 152.17C221.698 152.17 220.505 150.993 220.386 147.779C220.351 146.855 220.343 145.932 220.323 145.008H220.315ZM265.254 126.56C262.654 123.801 259.23 123.488 255.945 124.194C250.86 125.287 247.558 128.771 246.663 133.864C245.826 138.616 247.198 142.789 251.395 145.817C255.338 148.663 259.424 148.991 263.653 146.895C267.81 144.834 270.018 141.335 270.283 136.666C270.26 136.016 270.307 135.35 270.208 134.712C269.669 131.327 268.425 128.355 265.258 126.556L265.254 126.56ZM232.3 145.004C235.395 145.004 238.498 145.1 241.586 144.933C242.315 144.893 243.488 144.061 243.599 143.435C243.841 142.107 242.569 142.23 241.661 142.23C235.597 142.222 229.538 142.179 223.474 142.286C222.705 142.298 221.948 143.13 221.187 143.582C221.924 144.057 222.642 144.897 223.406 144.941C226.363 145.1 229.332 145.004 232.3 145.004ZM232.225 129.548C235.32 129.548 238.423 129.639 241.51 129.481C242.252 129.441 242.949 128.565 243.67 128.074C242.961 127.642 242.256 126.841 241.538 126.829C235.478 126.73 229.415 126.722 223.355 126.837C222.626 126.849 221.916 127.753 221.199 128.24C221.908 128.676 222.602 129.449 223.331 129.484C226.288 129.627 229.26 129.544 232.225 129.544V129.548ZM232.534 137.082C235.764 137.082 238.998 137.126 242.228 137.038C242.727 137.026 243.559 136.46 243.603 136.075C243.659 135.624 243.123 134.906 242.656 134.637C242.133 134.335 241.396 134.332 240.75 134.328C237.65 134.3 234.551 134.316 231.452 134.316C228.812 134.316 226.177 134.308 223.537 134.32C222.392 134.324 221.247 134.637 221.365 135.964C221.405 136.396 222.693 137.007 223.434 137.034C226.462 137.157 229.498 137.086 232.534 137.082Z" fill="#EFF6FF"/>
<path d="M160.459 33.2336C162.967 33.2098 165.222 35.4054 165.183 37.8309C165.147 40.1019 162.88 42.2896 160.53 42.3252C158.406 42.3569 156.127 40.0107 156.127 37.7913C156.127 35.5481 158.307 33.2574 160.459 33.2376V33.2336Z" fill="#0C2C7E"/>
<path d="M232.72 87.8296C234.9 87.8573 237.056 90.4232 237 92.4999C236.949 94.5093 234.938 96.4801 233 96.4999C231.209 96.5198 228.425 93.7755 228.5 91.9999C228.587 89.9589 230.5 88 232.72 88.322L232.72 87.8296Z" fill="#0C2C7E"/>
<path d="M61 97.5C62.7874 97.4643 64.5436 99.3156 64.5 101C64.4644 102.415 62.3634 104.536 61 104.5C59.3355 104.456 57.5238 102.684 57.5001 101C57.4763 99.28 58.8117 97.5317 60.5 97.5H61Z" fill="#0C2C7E"/>
<path d="M214.5 170.944C214.512 169.097 216.157 167.52 218 167.5C219.791 167.476 221.044 169.201 221 171C220.952 172.914 219.577 174.512 217.5 174.5C215.621 174.488 214.488 173.529 214.5 171.5V170.944Z" fill="#0C2C7E"/>
<path d="M106.174 192.174C105.235 189.178 104.046 186.233 103.408 183.177C101.985 176.349 103.618 170.099 107.843 164.594C110.28 161.415 112.943 158.415 115.488 155.316C118.979 151.067 120.719 146.137 121.254 140.704C121.908 134.065 120.45 127.688 119.106 121.276C118.258 117.229 117.331 113.104 118.433 108.994C120.363 101.789 125.669 97.6431 132.24 95.1344C135.625 93.8424 139.457 93.7631 142.909 92.598C146.595 91.3535 150.285 91.52 154.018 91.5001C160.653 91.4605 166.891 93.2757 172.828 95.9905C174.623 96.8109 176.367 98.4397 177.385 100.144C180.742 105.78 183.83 111.582 186.881 117.388C189.069 121.553 189.307 126.052 188.312 130.578C187.325 135.064 186.009 139.479 185.066 143.973C183.33 152.264 183.378 160.504 185.962 168.692C186.965 171.862 187.436 175.199 188.154 178.461C185.256 178.009 182.367 177.28 179.458 177.177C175.396 177.034 171.314 177.363 167.24 177.49C167.366 176.789 167.501 176.091 167.616 175.386C168.131 172.259 168.643 169.128 169.158 165.997C170.105 164.067 170.961 162.089 172.015 160.218C173.367 157.817 173.704 155.522 171.742 153.322C169.61 150.933 167.418 148.594 165.254 146.232C165.238 145.289 165.222 144.346 165.206 143.402C168.207 144.259 168.175 144.243 169.828 141.397C170.236 140.696 170.906 140.149 171.096 139.939C170.834 137.592 170.608 135.619 170.39 133.641C170.311 132.932 170.24 132.218 170.168 131.505C169.927 129.642 168.805 128.469 167.069 128.073C165.551 127.728 163.958 127.708 162.397 127.546C161.39 124.878 160.359 122.334 160.641 119.251C160.831 117.158 159.856 114.804 158.873 112.83C158.469 112.022 156.531 111.356 155.532 111.606C154.038 111.978 154.541 113.615 154.728 114.844C154.831 115.533 154.882 116.227 154.969 117.011C154.22 116.841 153.685 116.714 152.544 116.453C153.15 117.661 153.483 118.458 153.927 119.183C155.057 121.038 157.173 122.247 157.288 124.779C157.355 126.269 157.799 127.74 158.077 129.222C157.561 129.123 157.03 129.068 156.531 128.909C155.639 128.628 154.732 127.938 153.899 128.033C152.057 128.247 150.923 130.585 151.391 132.71C151.803 134.588 153.02 135.306 154.621 135.036C155.984 137.303 157.24 139.392 158.497 141.48C158.358 142.943 158.219 144.405 158.085 145.872C156.067 147.73 155.948 150.088 156.321 152.577C156.674 154.916 157.022 157.25 157.375 159.588C157.355 160.048 157.339 160.508 157.32 160.964C157.157 165.034 156.297 168.842 153.511 172.029C152.762 172.889 152.298 173.995 151.704 174.989C148.62 176.487 146.778 179.095 145.573 182.159C145.113 183.328 144.447 183.831 143.314 184.259C138.534 186.059 133.754 187.89 129.078 189.943C127.108 190.807 125.241 191.492 123.054 191.381C118.983 191.171 114.909 191.005 110.835 191.048C109.567 191.06 108.307 191.817 107.046 192.229C106.757 192.206 106.468 192.182 106.178 192.158L106.174 192.174Z" fill="#FFDAB9"/>
<path d="M167.236 177.491C171.31 177.364 175.388 177.035 179.454 177.178C182.363 177.281 185.253 178.01 188.15 178.462C190.436 179.96 191.245 181.981 190.234 184.585C188.55 188.933 186.885 193.288 185.082 197.58C184.817 198.215 183.814 198.543 183.152 199.015C181.805 198.861 180.457 198.706 179.11 198.551L179.121 198.421C179.684 195.076 179.819 191.604 182.003 188.731C182.355 188.267 182.732 187.688 182.764 187.141C182.823 186.091 183.041 184.569 182.474 184.078C181.666 183.376 180.092 182.976 179.042 183.238C174.473 184.383 169.99 185.881 165.436 187.098C164.196 187.431 162.753 188.544 161.481 186.959C161.402 186.86 160.851 187.03 160.605 187.197C159.361 188.041 158.144 188.925 156.915 189.797C154.534 190.704 152.148 191.612 149.766 192.519C148.41 191.188 147.043 192.119 145.775 192.607C138.748 195.313 131.527 197.018 123.957 196.915C118.448 196.839 112.936 196.669 107.427 196.542C107.395 196.399 107.363 196.261 107.332 196.118C107.236 194.826 107.141 193.534 107.046 192.242C108.311 191.826 109.567 191.073 110.835 191.061C114.905 191.017 118.983 191.188 123.054 191.394C125.241 191.505 127.108 190.819 129.078 189.955C133.754 187.902 138.53 186.071 143.314 184.272C144.447 183.844 145.113 183.341 145.573 182.171C146.778 179.108 148.62 176.504 151.704 175.002C153.61 175.791 155.501 176.615 157.427 177.348C158.802 177.875 160.217 178.283 161.616 178.743C162.88 179.243 164.121 179.849 165.432 180.138C165.65 180.186 166.15 178.83 166.566 178.153C166.728 177.891 167.014 177.705 167.244 177.483L167.236 177.491Z" fill="#5595E7"/>
<path d="M149.766 192.523C152.148 191.616 154.534 190.708 156.915 189.801C164.874 190.062 172.376 187.53 179.918 185.865C179.014 188.628 178.039 191.259 177.326 193.962C177.017 195.127 177.259 196.439 177.251 197.684C176.43 200.093 175.61 202.499 174.79 204.909C174.227 204.988 173.537 204.889 173.117 205.178C171.001 206.636 168.849 206.969 166.233 206.589C163.134 206.133 159.924 206.49 156.761 206.434C150.713 206.327 144.669 206.189 138.625 206.034C134.622 205.931 130.619 205.788 126.617 205.646C123.204 205.527 119.796 205.388 116.388 205.245C116.067 205.234 115.603 205.245 115.452 205.059C113.78 202.931 112.159 200.767 110.522 198.611C111.493 198.71 112.464 198.841 113.439 198.9C123.533 199.526 133.402 198.421 142.965 194.993C145.236 194.18 147.499 193.348 149.766 192.523Z" fill="#FEC2B7"/>
<path d="M155.746 245.908C155.715 251.876 150.963 256.711 145.113 256.719C139.077 256.731 134.258 251.781 134.321 245.642C134.385 239.693 139.156 234.961 145.077 234.977C151.093 234.993 155.774 239.792 155.746 245.908ZM141.958 240.704V250.933C144.895 249.181 147.471 247.644 150.598 245.777C147.475 243.942 144.911 242.436 141.958 240.704Z" fill="#FFA653"/>
<path d="M107.042 192.246C107.137 193.538 107.233 194.83 107.328 196.122C103.947 197.184 102.302 200.307 102.766 203.767C103.039 205.804 104.32 206.969 105.398 208.384C101.101 208.519 99.6192 206.993 99.429 202.772C99.318 200.248 98.6007 197.747 98.4659 195.222C98.3946 193.891 98.6046 192.182 99.4092 191.295C99.9323 190.716 101.763 191.235 102.988 191.406C104.066 191.556 105.116 191.909 106.174 192.174C106.464 192.198 106.753 192.222 107.042 192.246Z" fill="#FC9983"/>
<path d="M149.766 192.523C147.499 193.347 145.236 194.18 142.965 194.992C133.406 198.42 123.537 199.526 113.439 198.9C112.464 198.84 111.493 198.71 110.522 198.61C109.476 198.289 108.425 197.964 107.379 197.643C107.395 197.279 107.411 196.914 107.427 196.546C112.936 196.672 118.445 196.847 123.957 196.918C131.527 197.021 138.748 195.317 145.775 192.61C147.047 192.123 148.41 191.187 149.766 192.523Z" fill="#0C2C7E"/>
<path d="M179.11 198.551C180.457 198.706 181.805 198.86 183.152 199.015C183.037 199.594 182.926 200.172 182.803 200.747C182.32 203.006 183.204 204.611 185.431 205.289C187.567 205.939 189.743 206.446 191.879 207.088C192.549 207.286 193.151 207.706 193.785 208.023C193.306 208.162 192.81 208.447 192.343 208.416C187.389 208.051 182.435 207.663 177.489 207.211C176.153 207.088 176.197 206.161 176.585 205.162C177.433 202.962 178.269 200.759 179.11 198.555V198.551Z" fill="#FC9983"/>
<path d="M112.08 246.613C111.897 249.799 110.391 250.546 107.561 248.852C106.44 248.182 105.318 247.513 103.804 246.609C103.804 248.016 103.899 249.106 103.757 250.16C103.705 250.556 103.103 250.873 102.75 251.23C102.453 250.885 101.914 250.552 101.902 250.2C101.827 247.628 101.827 245.048 101.902 242.475C101.91 242.127 102.461 241.794 102.758 241.453C103.107 241.818 103.685 242.139 103.757 242.551C103.911 243.446 103.804 244.386 103.804 245.559C106.428 244.084 108.897 242.701 111.818 241.061C111.925 242.947 112 244.287 112.076 245.622C112.076 245.951 112.076 246.284 112.08 246.613Z" fill="#0C2C7E"/>
<path d="M175.229 245.579C175.348 244.75 175.558 243.926 175.566 243.098C175.582 241.544 176.153 241.176 177.504 241.972C179.534 243.165 181.579 244.326 183.865 245.642C183.865 244.406 183.782 243.431 183.905 242.483C183.953 242.111 184.46 241.802 184.757 241.461C185.102 241.778 185.736 242.083 185.744 242.412C185.827 245.048 185.827 247.687 185.752 250.323C185.744 250.636 185.122 251.155 184.773 251.167C184.48 251.175 183.949 250.604 183.905 250.247C183.786 249.209 183.861 248.147 183.861 246.617C181.828 247.81 180.053 248.833 178.297 249.887C175.852 251.353 175.669 251.25 175.566 248.377C175.547 247.826 175.309 247.283 175.17 246.74C175.19 246.356 175.206 245.971 175.226 245.587L175.229 245.579Z" fill="#0C2C7E"/>
<path d="M179.11 198.551C178.269 200.755 177.433 202.958 176.585 205.158C176.197 206.16 176.157 207.088 177.489 207.207C182.435 207.655 187.389 208.043 192.343 208.412C192.81 208.447 193.306 208.158 193.785 208.019C195.057 208.487 194.312 209.093 193.734 209.276C192.624 209.628 191.431 209.953 190.282 209.914C185.839 209.751 181.4 209.474 176.965 209.169C174.901 209.026 174.092 207.357 174.786 204.908C175.606 202.498 176.426 200.093 177.247 197.683C177.869 197.929 178.495 198.175 179.117 198.42L179.106 198.551H179.11Z" fill="#EE806A"/>
<path d="M175.229 245.579C175.21 245.963 175.194 246.348 175.174 246.732C172.852 248.163 170.529 249.589 167.846 251.238C167.624 250.085 167.386 249.367 167.362 248.642C167.303 246.871 167.315 245.099 167.351 243.328C167.39 241.54 167.842 241.215 169.332 242.036C171.338 243.141 173.264 244.386 175.226 245.575L175.229 245.579Z" fill="#0C2C7E"/>
<path d="M112.08 246.613C112.08 246.28 112.08 245.951 112.076 245.623C114.362 244.323 116.641 243.011 118.94 241.731C119.138 241.62 119.439 241.695 119.899 241.671V251.29C117.053 249.59 114.564 248.104 112.08 246.617V246.613Z" fill="#0C2C7E"/>
<path d="M107.423 196.546C107.407 196.911 107.391 197.275 107.375 197.644C106.238 199.102 104.775 200.418 104.042 202.055C103.012 204.358 103.721 205.562 106.02 206.823C106.499 207.088 106.951 207.409 107.415 207.706C107.383 207.877 107.355 208.047 107.324 208.218C106.682 208.273 106.04 208.329 105.394 208.388C104.312 206.973 103.035 205.808 102.762 203.771C102.298 200.307 103.943 197.184 107.324 196.126C107.355 196.269 107.387 196.407 107.419 196.55L107.423 196.546Z" fill="#EE806A"/>
<path d="M106.769 70.6104V79.8684C105.453 78.5923 105.433 72.0371 106.769 70.6104Z" fill="#0C2C7E"/>
<path d="M104.24 76.0402C104.24 76.8963 104.304 77.7563 104.209 78.6005C104.169 78.9492 103.792 79.2623 103.57 79.5952C103.364 79.3139 102.992 79.0325 102.984 78.7471C102.932 76.9082 102.936 75.0653 102.996 73.2263C103.004 72.9529 103.408 72.6913 103.626 72.4258C103.828 72.7111 104.173 72.9846 104.201 73.2818C104.276 74.1973 104.228 75.1208 104.228 76.0402C104.232 76.0402 104.236 76.0402 104.24 76.0402Z" fill="#0C2C7E"/>
<path d="M97.4631 77.2565C97.4631 76.995 97.3878 76.7017 97.475 76.4718C97.6811 75.9447 97.9665 75.4453 98.2201 74.9341C98.4698 75.4652 98.8424 75.9804 98.9414 76.5392C99.0683 77.2407 99.0445 77.9897 98.9375 78.6991C98.882 79.0717 98.5134 79.3927 98.2835 79.7375C98.0101 79.3689 97.6296 79.036 97.4949 78.6238C97.3601 78.2077 97.4631 77.7123 97.4631 77.2526V77.2565Z" fill="#0C2C7E"/>
<path d="M101.311 73.6304C101.311 75.5288 101.311 77.4311 101.272 79.3295C101.272 79.3414 100.665 79.3374 100.34 79.3414V73.6304H101.311Z" fill="#0C2C7E"/>
<path d="M178.761 73.6662C179.312 73.2619 179.851 72.5327 180.413 72.5129C183.742 72.4019 187.083 72.4138 190.413 72.497C190.979 72.5129 191.526 73.0757 192.089 73.3769C192.624 73.6662 193.163 73.9436 193.702 74.225C193.69 75.0137 193.674 75.8063 193.67 76.595C193.662 78.5528 192.434 79.8686 190.428 79.8964C187.072 79.9439 183.715 79.8884 180.354 79.9201C179.268 79.932 178.788 79.4961 178.8 78.4062C178.82 76.8288 178.777 75.2475 178.757 73.6702L178.761 73.6662ZM180.247 73.2699C180.247 74.9384 180.156 76.3255 180.298 77.6849C180.346 78.1248 180.992 78.8303 181.388 78.8461C184.091 78.9492 186.798 78.9373 189.501 78.854C189.901 78.8421 190.591 78.2754 190.623 77.9187C190.749 76.4404 190.678 74.9423 190.678 73.3769C189.81 73.3333 189.232 73.2778 188.649 73.2778C185.954 73.2699 183.259 73.2738 180.247 73.2738V73.2699Z" fill="#5595E7"/>
<path d="M37.3015 123.975C42.9411 123.349 49.0247 128.379 49.2625 135.536C49.4686 141.727 44.4432 147.406 38.2249 147.783C31.856 148.167 26.3234 143.455 25.7091 137.125C26.367 137.11 27.0248 137.098 27.6827 137.082C27.8254 137.589 27.9721 138.092 28.1147 138.6C29.2997 142.714 33.469 145.872 37.5472 145.749C42.7945 145.591 47.2095 140.942 47.0431 135.754C46.8687 130.348 42.7747 126.365 37.357 126.338C37.3372 125.553 37.3173 124.768 37.2975 123.983L37.3015 123.975Z" fill="#FFA653"/>
<path d="M63.6966 137.466C60.7281 137.466 57.7557 137.565 54.7991 137.395C54.0659 137.351 53.3882 136.428 52.6828 135.913C53.3724 135.378 54.054 134.399 54.7516 134.383C60.7479 134.26 66.7482 134.3 72.7486 134.323C73.886 134.327 75.2969 134.474 75.1067 135.952C75.0274 136.547 73.6284 137.347 72.7882 137.399C69.7642 137.573 66.7245 137.466 63.6926 137.466H63.6966Z" fill="#5595E7"/>
<path d="M63.8947 145.008C60.8629 145.008 57.827 145.091 54.8031 144.945C54.0858 144.909 53.4041 144.108 52.7066 143.657C53.3763 143.181 54.0382 142.305 54.7159 142.293C60.843 142.186 66.9702 142.186 73.0973 142.289C73.8028 142.301 74.4924 143.125 75.1899 143.573C74.4528 144.049 73.7394 144.897 72.9784 144.937C69.9545 145.095 66.9187 145 63.8868 145L63.8947 145.008Z" fill="#5595E7"/>
<path d="M63.7481 129.551C60.7876 129.551 57.8191 129.647 54.8705 129.484C54.1293 129.444 53.4358 128.569 52.7184 128.077C53.4279 127.645 54.1333 126.849 54.8507 126.837C60.8351 126.738 66.8275 126.722 72.812 126.845C73.6125 126.86 74.3973 127.784 75.1899 128.287C74.4052 128.707 73.6363 129.456 72.8318 129.496C69.8118 129.639 66.78 129.555 63.7521 129.555L63.7481 129.551Z" fill="#5595E7"/>
<path d="M27.6867 137.078C27.0288 137.093 26.3709 137.105 25.7131 137.121C25.4753 133.998 26.1371 131.164 28.0117 128.565C30.3302 125.346 33.4294 123.932 37.3055 123.975C37.3253 124.76 37.3451 125.545 37.3649 126.333C36.4613 126.44 35.522 126.424 34.658 126.678C30.1756 127.994 27.7501 131.66 27.6867 137.081V137.078Z" fill="#FFC997"/>
<path d="M270.283 136.665C270.018 141.338 267.814 144.834 263.653 146.894C259.424 148.991 255.338 148.662 251.395 145.816C247.198 142.789 245.826 138.611 246.663 133.863C247.558 128.771 250.86 125.287 255.944 124.193C259.23 123.488 262.654 123.801 265.254 126.559C264.81 127.027 264.366 127.49 263.918 127.958C263.486 127.808 263.035 127.701 262.63 127.494C258.517 125.39 254.807 126.278 251.577 129.238C248.664 131.909 248.272 135.484 249.147 139.075C250.332 143.946 254.93 146.554 260.383 145.789C264.418 145.222 267.779 141.136 267.925 136.622L270.283 136.665Z" fill="#FFC997"/>
<path d="M232.3 145.004C229.335 145.004 226.363 145.099 223.406 144.941C222.645 144.901 221.928 144.057 221.187 143.581C221.948 143.129 222.705 142.301 223.474 142.285C229.534 142.178 235.597 142.222 241.661 142.23C242.569 142.23 243.841 142.107 243.599 143.435C243.488 144.057 242.315 144.893 241.586 144.933C238.498 145.099 235.395 145.004 232.3 145.004Z" fill="#5595E7"/>
<path d="M232.225 129.547C229.26 129.547 226.292 129.631 223.331 129.488C222.602 129.452 221.908 128.68 221.199 128.244C221.916 127.752 222.63 126.852 223.355 126.841C229.415 126.726 235.478 126.734 241.538 126.833C242.256 126.845 242.957 127.641 243.67 128.077C242.953 128.569 242.256 129.444 241.51 129.484C238.423 129.643 235.32 129.551 232.225 129.551V129.547Z" fill="#5595E7"/>
<path d="M232.534 137.086C229.502 137.086 226.462 137.157 223.434 137.038C222.697 137.01 221.405 136.4 221.365 135.968C221.246 134.64 222.392 134.327 223.537 134.323C226.177 134.312 228.812 134.319 231.452 134.319C234.551 134.319 237.65 134.304 240.75 134.331C241.396 134.335 242.133 134.339 242.656 134.64C243.123 134.91 243.659 135.627 243.603 136.079C243.555 136.464 242.723 137.03 242.228 137.042C238.998 137.129 235.768 137.086 232.534 137.09V137.086Z" fill="#5595E7"/>
<path d="M270.283 136.665C269.499 136.65 268.71 136.638 267.925 136.622C268.123 133.023 266.285 130.368 263.922 127.954C264.366 127.487 264.81 127.023 265.258 126.555C268.425 128.354 269.673 131.323 270.208 134.711C270.311 135.35 270.264 136.015 270.283 136.665Z" fill="#FFA653"/>
<path d="M158.069 129.242C157.795 127.764 157.347 126.29 157.28 124.799C157.165 122.267 155.049 121.054 153.919 119.203C153.475 118.474 153.143 117.681 152.536 116.473C153.678 116.734 154.213 116.857 154.962 117.032C154.874 116.247 154.823 115.549 154.72 114.864C154.534 113.635 154.034 111.998 155.524 111.626C156.523 111.376 158.461 112.038 158.865 112.85C159.852 114.82 160.823 117.174 160.633 119.271C160.352 122.354 161.382 124.899 162.389 127.566C162.512 128.362 162.63 129.163 162.753 129.96C162.686 130.919 162.496 131.89 162.575 132.837C163.031 138.167 163.586 143.494 164.033 148.824C164.291 151.924 163.594 154.539 160.062 155.396C159.408 154.377 158.346 153.422 158.188 152.332C157.883 150.227 158.085 148.048 158.077 145.9C158.215 144.437 158.354 142.975 158.489 141.508C159.955 137.367 158.854 133.312 158.065 129.25L158.069 129.242Z" fill="#FC9983"/>
<path d="M161.612 178.751C160.213 178.291 158.794 177.883 157.423 177.356C155.497 176.619 153.606 175.794 151.7 175.009C152.294 174.015 152.758 172.909 153.507 172.049C156.293 168.859 157.157 165.05 157.316 160.984C157.336 160.524 157.351 160.064 157.371 159.608C159.614 160.655 161.858 161.701 164.101 162.747C164.652 163.679 165.254 164.582 165.738 165.545C166.162 166.386 166.8 167.325 166.728 168.169C166.542 170.491 166.047 172.79 165.65 175.093C165.123 178.14 164.628 178.58 161.616 178.755L161.612 178.751Z" fill="#FC9983"/>
<path d="M164.097 162.748C161.854 161.701 159.61 160.655 157.367 159.609C157.015 157.274 156.662 154.936 156.313 152.598C155.941 150.109 156.059 147.751 158.077 145.892C158.085 148.04 157.883 150.22 158.188 152.324C158.346 153.414 159.408 154.369 160.062 155.388C162.662 156.521 164.79 155.574 165.365 152.863C165.631 151.611 165.5 150.271 165.547 148.972C170.228 152.519 171.215 155.923 168.991 161.246C168.516 162.391 167.763 163.417 167.137 164.499C166.122 163.917 165.107 163.33 164.093 162.748H164.097Z" fill="#FFA653"/>
<path d="M158.069 129.242C158.857 133.309 159.959 137.359 158.493 141.501C157.236 139.412 155.98 137.323 154.617 135.056C153.016 135.326 151.799 134.609 151.387 132.73C150.919 130.606 152.053 128.267 153.895 128.053C154.728 127.958 155.635 128.648 156.527 128.929C157.026 129.088 157.557 129.143 158.073 129.242H158.069Z" fill="#561D20"/>
<path d="M170.168 131.513C170.244 132.227 170.311 132.936 170.39 133.649C170.608 135.627 170.834 137.601 171.096 139.947C170.909 140.157 170.236 140.704 169.828 141.405C168.175 144.251 168.203 144.271 165.206 143.411C165.068 141.397 164.933 139.38 164.794 137.367C165.072 136.626 165.151 135.675 165.666 135.183C167.069 133.855 168.654 132.722 170.168 131.513Z" fill="#FC9983"/>
<path d="M167.141 164.495C167.767 163.413 168.52 162.387 168.995 161.242C171.215 155.919 170.228 152.515 165.551 148.967C165.452 148.056 165.353 147.148 165.254 146.237C167.418 148.599 169.61 150.937 171.742 153.327C173.704 155.527 173.367 157.821 172.015 160.223C170.965 162.094 170.105 164.071 169.158 166.001C168.484 165.498 167.814 164.999 167.141 164.499V164.495Z" fill="#FFB875"/>
<path d="M170.169 131.513C168.655 132.722 167.069 133.856 165.666 135.183C165.151 135.671 165.072 136.626 164.794 137.367C164.117 134.894 163.435 132.425 162.757 129.952C162.634 129.155 162.516 128.355 162.393 127.558C163.954 127.721 165.547 127.736 167.065 128.085C168.801 128.482 169.927 129.655 170.165 131.517L170.169 131.513Z" fill="#561D20"/>
<path d="M167.141 164.495C167.814 164.994 168.484 165.498 169.158 165.997C168.643 169.128 168.131 172.255 167.616 175.386C167.501 176.087 167.366 176.789 167.24 177.49C167.01 177.712 166.72 177.899 166.562 178.16C166.146 178.838 165.646 180.193 165.428 180.146C164.117 179.856 162.876 179.25 161.612 178.751C164.628 178.576 165.123 178.14 165.646 175.089C166.043 172.786 166.538 170.487 166.724 168.165C166.792 167.321 166.154 166.381 165.734 165.541C165.25 164.578 164.648 163.675 164.097 162.743C165.111 163.326 166.126 163.908 167.141 164.495Z" fill="#EE806A"/>
<path d="M162.757 129.952C163.435 132.425 164.117 134.894 164.794 137.367C164.933 139.38 165.068 141.397 165.207 143.411C165.222 144.354 165.238 145.297 165.25 146.24C165.349 147.152 165.448 148.064 165.547 148.971C165.496 150.271 165.627 151.607 165.361 152.863C164.79 155.574 162.662 156.521 160.058 155.388C163.59 154.536 164.291 151.92 164.029 148.817C163.582 143.482 163.027 138.159 162.571 132.829C162.492 131.882 162.682 130.911 162.749 129.952H162.757Z" fill="#EE806A"/>
<path d="M179.121 198.42C178.495 198.175 177.873 197.929 177.251 197.683C177.259 196.439 177.017 195.127 177.326 193.962C178.039 191.259 179.014 188.623 179.918 185.865C172.376 187.529 164.874 190.062 156.916 189.8C158.144 188.928 159.361 188.045 160.605 187.2C160.851 187.034 161.402 186.864 161.481 186.963C162.753 188.544 164.196 187.43 165.436 187.101C169.99 185.885 174.473 184.387 179.042 183.241C180.092 182.98 181.666 183.38 182.474 184.081C183.041 184.573 182.827 186.095 182.764 187.145C182.732 187.692 182.355 188.271 182.003 188.734C179.819 191.608 179.684 195.079 179.121 198.424V198.42Z" fill="#0C2C7E"/>
<path d="M141.958 240.704C144.907 242.436 147.471 243.942 150.598 245.777C147.471 247.643 144.895 249.181 141.958 250.933V240.704Z" fill="#0C2C7E"/>
<path d="M180.247 73.2696C183.259 73.2696 185.954 73.2656 188.649 73.2736C189.232 73.2736 189.81 73.329 190.678 73.3726C190.678 74.9381 190.753 76.4362 190.623 77.9145C190.591 78.2712 189.901 78.8379 189.501 78.8498C186.798 78.933 184.087 78.9449 181.388 78.8419C180.996 78.826 180.346 78.1206 180.298 77.6807C180.156 76.3213 180.247 74.9341 180.247 73.2656V73.2696Z" fill="#0C2C7E"/>
<path d="M27.6867 137.078C27.7461 131.656 30.1716 127.99 34.658 126.674C35.518 126.421 36.4612 126.437 37.3649 126.33C42.7826 126.361 46.8766 130.34 47.051 135.746C47.2174 140.934 42.8024 145.583 37.5551 145.741C33.4769 145.864 29.3076 142.706 28.1226 138.592C27.976 138.085 27.8333 137.581 27.6906 137.074L27.6867 137.078ZM37.4243 140.91C38.756 139.614 40.2739 138.469 41.3083 136.987C41.8433 136.218 41.8671 134.72 41.5104 133.788C41.0229 132.52 39.6913 132.548 38.427 132.873C37.8405 133.023 37.1469 133.016 36.5564 132.861C35.2445 132.512 33.8099 132.381 33.2867 133.741C32.9181 134.704 33.037 136.254 33.6077 137.09C34.5827 138.528 36.0808 139.61 37.4243 140.91Z" fill="#FFDAB9"/>
<path d="M263.922 127.959C266.288 130.372 268.123 133.028 267.925 136.626C267.783 141.14 264.422 145.226 260.383 145.793C254.93 146.558 250.333 143.95 249.148 139.079C248.272 135.489 248.664 131.914 251.577 129.243C254.807 126.282 258.521 125.394 262.63 127.499C263.035 127.705 263.486 127.808 263.918 127.963L263.922 127.959ZM255.596 130.099C254.357 132.059 252.395 133.897 249.71 135.612C250.868 135.849 252.164 136.163 253.166 135.754C254.006 135.413 254.506 134.236 255.275 133.285C255.972 136.602 256.654 139.844 257.336 143.082C258.338 141.184 259.04 139.234 259.571 137.244C259.912 135.964 260.467 135.378 261.877 135.524C263.269 135.667 264.687 135.556 266.094 135.556C266.094 135.338 266.094 135.12 266.09 134.902C265.662 134.843 265.234 134.744 264.802 134.732C261.28 134.629 258.912 136.346 257.696 139.884C256.963 136.464 256.293 133.357 255.596 130.099Z" fill="#FFDAB9"/>
<path d="M37.4243 140.91C36.0808 139.614 34.5827 138.528 33.6077 137.09C33.041 136.253 32.9181 134.704 33.2867 133.741C33.8059 132.381 35.2445 132.512 36.5564 132.861C37.1429 133.015 37.8365 133.023 38.427 132.873C39.6913 132.548 41.0229 132.52 41.5104 133.788C41.8671 134.72 41.8433 136.218 41.3083 136.987C40.2739 138.469 38.7559 139.614 37.4243 140.91Z" fill="#0C2C7E"/>
<path d="M255.596 130.098C256.293 133.356 256.963 136.459 257.696 139.883C258.912 136.348 261.28 134.631 264.802 134.731C265.234 134.743 265.662 134.842 266.09 134.902C266.09 135.12 266.09 135.338 266.094 135.555C264.687 135.555 263.268 135.67 261.877 135.524C260.466 135.377 259.908 135.964 259.571 137.244C259.044 139.237 258.342 141.183 257.336 143.082C256.654 139.84 255.972 136.602 255.275 133.285C254.506 134.236 254.006 135.417 253.166 135.754C252.164 136.162 250.868 135.849 249.71 135.611C252.395 133.896 254.357 132.059 255.596 130.098Z" fill="#0C2C7E"/>
</svg>
