<svg width="294" height="238" viewBox="0 0 294 238" fill="none" xmlns="http://www.w3.org/2000/svg">
<g clip-path="url(#clip0_5906_8265)">
<path d="M289.5 177C289.5 203.529 70.1143 203.529 42.5001 203.529C14.8858 203.529 9.99988 205 6.50004 151.5C5.58613 137.53 2.74772 79.0293 79.7477 79.0293C123.748 -34.4707 289.5 110.292 289.5 177Z" fill="#FFDAB9"/>
<path d="M291.693 199.547C291.942 191.914 290.632 184.585 286.338 178.152C283.952 174.577 280.934 171.47 277.731 168.562C257.591 168.552 237.456 168.547 217.317 168.537C207.175 168.497 197.033 168.452 186.891 168.428C177.894 168.408 168.893 168.413 159.892 168.413C159.135 168.413 158.377 168.477 157.62 168.512C139.279 168.517 120.938 168.522 102.596 168.527V168.542C102.586 169.155 102.576 169.772 102.566 170.389C104.375 170.17 104.454 171.649 104.738 172.744C106.287 178.744 107.747 184.774 109.276 190.784C111.792 200.682 114.357 210.566 116.828 220.474C117.057 221.4 116.763 222.456 116.708 223.451C116.708 223.556 116.708 223.666 116.708 223.77L117.212 223.835C117.197 224.293 117.182 224.756 117.167 225.214C116.659 225.667 116.215 226.27 115.623 226.528C115.109 226.748 114.422 226.578 113.814 226.578C79.7917 226.563 45.7641 226.548 11.7415 226.519C12.4239 226.867 13.1063 227.206 13.7938 227.539C20.419 228.61 27.1338 229.312 33.5797 230.497C36.18 230.975 38.7902 231.333 41.4104 231.602C95.1442 231.592 148.873 231.587 202.602 231.587C207.469 231.587 212.33 231.587 217.197 231.587C217.496 231.453 217.845 231.378 218.243 231.378C228.674 231.378 239.13 231.254 249.496 230.502C252.884 229.382 256.326 228.426 259.773 227.484C259.942 226.713 260.48 226.031 261.461 225.747C270.697 223.093 278.523 216.804 284.963 209.515C287.26 206.249 289.521 202.958 291.683 199.617C291.683 199.592 291.683 199.567 291.683 199.542L291.693 199.547ZM152.016 212.229C154.014 210.466 156.026 211.133 157.889 212.229C160.201 213.588 162.577 214.2 165.306 213.628C164.798 213.06 164.32 212.527 163.842 211.99C163.777 211.91 163.717 211.825 163.658 211.741C163.737 211.8 163.822 211.865 163.902 211.925C167.638 212.801 171.374 213.687 175.11 214.569L175.075 214.872C173.072 214.663 171.07 214.275 169.072 214.285C164.679 214.315 160.285 214.589 155.892 214.673C154.173 214.703 152.549 214.34 152.011 212.229H152.016ZM173.441 205.218C176.505 205.437 179.563 205.781 182.627 206.069C183.842 206.358 185.043 206.786 186.273 206.916C192.44 207.568 198.617 208.146 204.789 208.753C205.262 208.798 205.73 208.903 206.198 208.977C206.188 209.191 206.183 209.405 206.178 209.62C204.281 209.62 202.373 209.724 200.485 209.595C197.989 209.42 195.479 208.683 193.033 208.883C189.999 209.132 187.02 210.073 184.026 210.755C183.518 210.869 183.08 211.357 182.587 211.402C182.064 211.452 181.506 211.183 180.963 211.049C181.336 210.59 181.645 209.829 182.099 209.729C184.076 209.296 186.099 209.052 188.096 208.27H184.898C183.254 208.454 181.615 208.639 179.972 208.823C178.383 209.654 176.813 210.541 175.18 211.273C174.721 211.477 174.039 211.278 173.491 211.143C173.341 211.108 173.172 210.441 173.227 210.406C173.71 210.112 174.218 209.794 174.761 209.669C176.29 209.316 177.84 209.047 179.379 208.748C175.892 208.763 172.41 208.778 168.928 208.793C168.3 208.793 167.663 208.863 167.045 208.773C166.92 208.753 166.796 207.852 166.826 207.842C167.438 207.648 168.081 207.389 168.704 207.414C169.825 207.459 170.94 207.678 172.056 207.822H172.066C172.091 207.678 172.111 207.533 172.121 207.389C171.135 205.801 171.782 205.099 173.441 205.218ZM208.206 216.949C203.16 217.491 198.094 217.83 193.058 218.428C189.092 218.896 185.152 219.622 181.207 220.255C180.579 220.354 179.967 220.549 179.18 220.235C180.31 219.717 181.441 219.204 182.577 218.686V218.368H172.564C167.155 220.32 161.715 222.003 155.687 220.22C157.172 217.81 159.404 217.556 161.585 217.491C165.237 217.382 168.893 217.482 172.549 217.496H172.554C179.792 217.486 187.04 217.725 194.258 217.387C199.678 217.133 205.068 216.132 210.467 215.47C210.731 215.44 211.005 215.47 211.274 215.47C211.329 215.654 211.379 215.838 211.429 216.023C210.353 216.341 209.302 216.829 208.206 216.949ZM242.358 203.092C242.358 203.46 241.451 203.958 240.884 204.148C240.316 204.337 239.673 204.192 239.065 204.192C207.12 204.212 175.175 204.217 143.229 204.257C141.182 204.257 139.129 204.635 137.092 204.546C135.757 204.486 133.461 204.128 133.316 203.505C132.898 201.718 132.723 199.363 133.585 197.884C137.137 191.789 141.276 186.039 144.858 179.964C146.602 177.007 148.674 176.16 152.021 176.22C164.216 176.449 176.415 176.324 188.614 176.334C189.805 174.965 189.879 172.331 192.664 172.769C196.525 173.631 200.38 174.492 204.241 175.354V175.344C206.632 175.677 209.013 176.011 211.399 176.344C216.355 176.334 221.312 176.26 226.263 176.384C227.145 176.409 228.345 177.026 228.824 177.748C233.282 184.45 237.72 191.167 241.895 198.043C242.692 199.358 242.378 201.394 242.358 203.092ZM265.994 207.284C264.296 207.633 262.542 207.693 260.814 207.882C261.103 209.669 261.357 211.457 261.691 213.234C262.283 216.356 261.636 217.516 258.478 217.885C256.266 218.139 253.969 218.119 251.758 217.84C248.724 217.452 248.032 216.232 248.794 213.269C250.238 207.643 251.718 202.026 253.182 196.41C253.028 195.021 252.515 193.547 252.814 192.262C253.078 191.127 254.034 189.768 255.055 189.28C256.555 188.568 257.651 189.848 258.463 191.102C258.981 189.22 259.494 187.343 260.007 185.461C259.862 183.977 259.489 182.474 259.638 181.02C259.788 179.591 260.724 178.515 262.433 178.625C264.067 178.734 265.287 179.511 265.372 181.199C265.442 182.598 265.088 184.017 264.923 185.426H264.919C266.134 191.346 267.364 197.256 268.565 203.177C268.968 205.178 267.977 206.881 265.994 207.284Z" fill="#D7D7D7"/>
<path d="M0 232.827V238H4.29392C3.66627 236.247 2.52554 234.649 1.21545 233.15C0.806978 233.046 0.403489 232.941 0 232.827Z" fill="#FEFEFE"/>
<path d="M59.4324 237.208C58.3913 237.213 57.3551 237.218 56.319 237.213C55.522 237.268 54.725 237.328 53.928 237.382C54.0475 237.572 54.1472 237.776 54.2069 237.995H60.2941C59.9305 237.806 59.6416 237.532 59.4373 237.203L59.4324 237.208Z" fill="#FEFEFE"/>
<path d="M217.212 231.592C212.345 231.592 207.484 231.592 202.617 231.592C148.883 231.592 95.1541 231.602 41.4253 231.607C46.1576 232.095 50.9098 232.274 55.6719 232.304C59.0842 232.055 62.4665 231.841 65.799 231.781C85.824 231.428 105.889 231.767 125.919 231.767C127.099 231.767 127.842 232.439 128.156 233.29H215.912C216.061 232.568 216.495 231.916 217.212 231.592Z" fill="#FEFEFE"/>
<path d="M273.521 236.013C273.073 236.088 272.624 236.158 272.176 236.232C270.781 236.845 269.382 237.442 267.962 238H276.804C276.629 237.661 276.525 237.288 276.51 236.904C275.28 237.497 274.134 236.944 273.516 236.013H273.521Z" fill="#FEFEFE"/>
<path d="M288.191 236.023C287.2 236.576 286.188 237.084 285.142 237.547C284.001 238.05 282.921 237.691 282.203 236.994C281.899 237.328 281.6 237.667 281.297 238.005H293.401V236.238C292.818 236.561 292.231 236.875 291.628 237.164C290.173 237.866 288.813 237.114 288.191 236.023Z" fill="#FEFEFE"/>
<path d="M55.3129 168.532C40.334 168.542 25.3501 168.552 10.3662 168.562C7.3176 171.425 3.69616 173.675 0 175.841V218.94C0.159403 219.069 0.323788 219.194 0.488172 219.323C1.99254 213.816 3.52679 208.325 4.95146 202.803C7.51187 192.864 10.0025 182.906 12.4833 172.948C12.9316 171.136 13.8282 170.205 15.8257 170.369C17.5593 170.513 19.3177 170.414 21.0661 170.424C32.4884 170.419 43.9106 170.414 55.3328 170.409C55.3278 169.781 55.3179 169.159 55.3129 168.537V168.532Z" fill="#D7D7D7"/>
<path d="M114.282 225.637C79.5226 225.652 44.7727 225.637 10.0178 225.597C10.5907 225.911 11.1635 226.214 11.7414 226.513C45.769 226.548 79.8015 226.558 113.829 226.573C114.437 226.573 115.124 226.747 115.637 226.523C116.23 226.269 116.673 225.662 117.182 225.208H117.187C116.22 225.353 115.249 225.637 114.282 225.637Z" fill="#C8AF93"/>
<path d="M1.42951 220.065C5.3847 204.57 9.38971 189.09 13.305 173.585C13.7583 171.788 14.4757 171.091 16.3736 171.255C17.9178 171.39 19.5018 171.061 21.071 170.936C21.066 170.762 21.061 170.588 21.061 170.414C19.3126 170.404 17.5591 170.503 15.8206 170.359C13.8281 170.195 12.9314 171.126 12.4781 172.938C9.99743 182.896 7.51174 192.854 4.94634 202.793C3.52666 208.319 1.98742 213.816 0.488037 219.318C0.801862 219.567 1.11569 219.821 1.43449 220.06L1.42951 220.065Z" fill="#EAB0BD"/>
<path d="M8.53802 224.766C17.4397 224.756 26.3414 224.741 35.248 224.731C35.253 224.557 35.258 224.382 35.258 224.208C34.456 224.079 33.649 223.849 32.842 223.849C24.2193 223.83 15.5966 223.835 6.97388 223.835C7.49194 224.153 8.01498 224.462 8.543 224.766H8.53802Z" fill="#EAB0BD"/>
<path d="M55.3327 170.399C55.3277 169.777 55.3177 169.154 55.3127 168.527C55.8557 165.963 55.0736 164.519 52.2641 163.887C49.3849 163.234 49.2205 162.542 49.3899 158.927C49.4945 156.722 50.9042 155.666 52.847 155.357C54.3713 155.113 55.1982 154.665 54.9541 152.918C54.6851 151.006 56.0101 149.776 57.5294 149.313C61.4298 148.128 65.3701 146.898 69.39 146.33C78.1173 145.091 86.8397 145.559 95.4425 147.555C97.0465 147.929 98.5708 148.685 100.12 149.288C101.913 149.985 102.72 151.329 102.546 153.226C102.411 154.67 103.069 155.118 104.459 155.392C107.876 156.064 109.325 158.35 108.349 161.741C108.09 162.647 106.725 163.717 105.749 163.847C102.715 164.25 102.048 165.903 102.591 168.537C102.581 169.154 102.571 169.772 102.561 170.389V170.872C102.536 172.47 102.596 174.074 102.461 175.662C102.177 179.103 102.362 182.802 98.3815 184.555C95.9506 185.625 93.5745 186.94 91.034 187.627C84.0501 189.519 76.862 189.803 69.7985 188.493C65.8533 187.761 62.0475 185.994 58.3414 184.331C56.2193 183.38 55.3077 181.303 55.3825 178.839C55.4672 176.18 55.3476 173.516 55.3227 170.857C55.3576 170.708 55.3576 170.559 55.3227 170.414L55.3327 170.399ZM102.511 159.888C102.601 160.456 102.69 161.019 102.825 161.87C104.414 161.292 105.789 160.79 107.443 160.187C104.957 158.255 103.687 158.136 102.511 159.425H94.3864C94.3864 159.58 94.3864 159.734 94.3864 159.888H102.506H102.511ZM70.9841 158.36C73.5993 158.42 76.2194 158.479 78.8347 158.539C81.8484 158.479 84.8621 158.415 87.8758 158.355C89.9829 158.011 92.085 157.663 94.1922 157.319C94.1822 157.01 94.1722 156.707 94.1623 156.398C92.5284 156.159 90.8895 155.915 89.2556 155.676C87.5869 151.937 85.156 151.524 82.2817 154.367C81.5545 155.089 80.608 155.835 79.3926 154.685C78.1522 153.51 76.7774 153.719 75.5918 154.959C71.4324 155.288 67.2729 155.616 63.1185 155.945C63.0936 156.293 63.0637 156.637 63.0388 156.986C64.5731 157.309 66.1023 157.638 67.6366 157.961C68.7524 158.096 69.8732 158.23 70.989 158.365L70.9841 158.36ZM84.9318 185.924C88.2992 185.924 91.4873 183.205 91.5371 180.298C91.5819 177.654 88.2743 174.507 85.4499 174.507C81.8733 174.507 78.8197 177.061 78.74 180.138C78.6553 183.235 81.5395 185.929 84.9368 185.929L84.9318 185.924ZM55.243 158.195C53.4995 158.713 52.1047 159.132 50.7149 159.545C50.7299 159.814 50.7498 160.078 50.7648 160.346C52.1894 160.809 53.6141 161.273 55.243 161.8V158.195ZM84.2295 159.575H91.2581C91.2432 159.385 91.2233 159.191 91.2083 159.002C88.882 159.191 86.5607 159.38 84.2295 159.575Z" fill="#2254B5"/>
<path d="M116.713 223.441C112.524 206.975 108.349 190.51 104.115 174.059C103.826 172.933 103.094 171.923 102.571 170.857C102.541 172.455 102.601 174.059 102.471 175.647C102.187 179.088 102.372 182.787 98.3917 184.54C95.9608 185.61 93.5847 186.925 91.0442 187.612C84.0603 189.504 76.8723 189.788 69.8087 188.478C65.8635 187.746 62.0577 185.974 58.3516 184.316C56.2295 183.365 55.318 181.283 55.3927 178.824C55.4774 176.17 55.3628 173.506 55.3329 170.847C43.9157 170.877 32.4984 170.912 21.0812 170.942C19.517 171.066 17.928 171.395 16.3837 171.26C14.4858 171.096 13.7685 171.793 13.3152 173.591C9.39989 189.095 5.39489 204.575 1.4397 220.07C3.21306 221.42 5.0711 222.674 6.97896 223.84C15.6017 223.84 24.2244 223.835 32.8521 223.854C33.6541 223.854 34.4611 224.083 35.268 224.208C42.1074 224.098 48.9518 223.934 55.7962 223.894C59.4126 223.874 63.0291 224.083 66.6505 224.143C67.3977 224.158 68.1449 223.889 68.8921 223.889C80.4439 223.869 92.0006 223.884 103.552 223.869C107.941 223.859 112.329 223.8 116.718 223.765C116.718 223.655 116.718 223.546 116.718 223.441H116.713ZM23.7013 180.795H23.7063C25.0314 179.894 26.2418 178.56 27.7014 178.171C33.4847 176.628 39.2979 176.508 44.6828 179.575C45.7687 180.193 46.6703 181.736 46.9144 182.996C47.0489 183.698 45.6541 184.694 44.9518 185.56C44.4985 186.028 44.1299 186.74 43.5819 186.935C37.2656 189.19 30.9542 189.379 24.8321 186.362C22.0874 185.008 21.7387 182.643 23.7013 180.795ZM49.9879 212.547C49.161 213.279 48.4487 214.324 47.4773 214.683C38.2568 218.089 29.0513 218.661 20.324 213.344C15.3875 210.331 15.5817 204.526 20.4535 201.434C23.6615 199.397 27.2182 198.541 31.009 198.202C35.5221 197.794 39.9654 197.973 44.2793 199.233C46.755 199.955 49.435 200.647 50.8696 203.226C53.709 206.004 53.2806 210.535 49.9879 212.547ZM92.9172 211.053H92.9122C90.7802 213.727 87.627 214.26 84.5834 214.618C80.8025 215.066 76.9769 214.797 73.3903 213.284C72.2247 212.791 71.0441 212.154 70.1126 211.312C66.9394 208.444 67.4077 204.167 71.2533 202.3C78.2471 198.904 85.3356 199.088 92.2796 202.549C95.0343 203.923 96.8176 208.713 92.9172 211.053Z" fill="#D7D7D7"/>
<path d="M211.389 176.354C216.345 176.349 221.301 176.269 226.253 176.394C227.135 176.414 228.33 177.036 228.813 177.758C233.272 184.455 237.715 191.172 241.884 198.053C242.681 199.362 242.368 201.399 242.348 203.102C242.348 203.475 241.446 203.968 240.873 204.157C240.325 204.341 239.668 204.202 239.055 204.202C207.11 204.217 175.164 204.227 143.219 204.267C141.172 204.267 139.119 204.645 137.082 204.555C135.747 204.496 133.45 204.137 133.306 203.515C132.888 201.727 132.713 199.372 133.575 197.893C137.127 191.804 141.266 186.053 144.848 179.974C146.591 177.011 148.663 176.165 152.011 176.229C164.205 176.454 176.405 176.334 188.604 176.344C187.349 180.098 188.748 183.24 190.806 186.282C191.687 187.587 192.32 189.061 193.182 190.38C193.655 191.102 194.372 191.67 194.975 192.302C199.777 192.312 204.579 192.372 209.376 192.312C213.864 192.252 218.348 192.073 222.836 191.924C225.481 191.834 227.409 190.584 228.011 187.98C228.599 185.426 226.821 183.902 224.978 182.613C221.013 179.839 216.679 177.853 211.917 176.852C211.737 176.688 211.558 176.528 211.379 176.364L211.389 176.354ZM162.013 191.904L161.979 191.914C163.687 194.458 166.327 193.512 168.649 193.597C169.082 193.611 169.545 192.8 169.994 192.372C170.397 190.46 170.88 188.558 171.149 186.631C171.234 186.023 170.88 184.908 170.457 184.754C168.001 183.852 165.555 184.116 163.269 185.436C161.256 186.596 160.908 188.443 161.211 190.539C161.48 190.992 161.744 191.446 162.013 191.899V191.904ZM183.149 190.594C183.807 187.368 184.559 184.156 185.037 180.9C185.132 180.253 184.31 179.008 183.657 178.784C179.269 177.265 172.036 179.376 173.102 186.417C172.933 188.737 174.442 190.246 176.195 190.928C178.402 191.789 180.948 192.775 183.154 190.594H183.149ZM201.242 200.483C201.271 200.408 201.306 200.328 201.336 200.254H134.711V200.483H201.242ZM152.554 191.859C154.208 191.859 155.269 191.958 156.3 191.819C156.858 191.744 157.809 191.256 157.799 190.978C157.779 190.315 157.416 189.225 156.967 189.1C155.951 188.812 154.681 188.712 153.754 189.1C153.187 189.339 153.052 190.619 152.554 191.859Z" fill="#2254B5"/>
<path d="M211.926 176.837C216.688 177.838 221.022 179.824 224.987 182.598C226.83 183.887 228.609 185.406 228.021 187.965C227.418 190.569 225.491 191.819 222.845 191.909C218.362 192.063 213.874 192.242 209.386 192.297C204.584 192.362 199.787 192.297 194.985 192.287C195.214 188.802 195.916 185.262 195.538 181.846C195.194 178.749 193.665 175.786 192.658 172.764C196.519 173.626 200.375 174.487 204.23 175.348C200.584 178.166 200.215 180.317 201.884 183.892C203.328 186.989 207.329 187.497 209.899 186.178C212.743 184.724 213.675 181.363 212.28 178.356C212.066 177.893 212.036 177.345 211.921 176.837H211.926Z" fill="#F39EB1"/>
<path d="M260.818 207.871C261.107 209.654 261.356 211.446 261.695 213.224C262.288 216.351 261.64 217.506 258.482 217.874C256.27 218.133 253.974 218.108 251.762 217.829C248.724 217.446 248.036 216.221 248.798 213.259C250.243 207.632 251.722 202.021 253.187 196.4C254.846 196.255 256.5 196.111 258.158 195.966C259.045 199.935 259.937 203.898 260.823 207.866L260.818 207.871Z" fill="#2254B5"/>
<path d="M260.818 207.872C259.932 203.903 259.04 199.94 258.153 195.972C258.258 194.348 258.358 192.72 258.462 191.097C258.975 189.215 259.488 187.338 260.006 185.456C261.645 185.446 263.284 185.431 264.923 185.421C266.138 191.336 267.369 197.246 268.569 203.166C268.978 205.168 267.982 206.871 265.999 207.274C264.305 207.618 262.547 207.682 260.818 207.872Z" fill="#FFB875"/>
<path d="M211.927 176.837C212.041 177.345 212.071 177.892 212.285 178.355C213.685 181.363 212.749 184.719 209.904 186.178C207.329 187.497 203.334 186.989 201.889 183.892C200.22 180.317 200.594 178.166 204.235 175.348C206.622 175.682 209.003 176.015 211.389 176.349C211.568 176.513 211.747 176.673 211.927 176.837Z" fill="#E49BB2"/>
<path d="M114.76 224.711C94.9592 224.761 75.1633 224.751 55.3625 224.751C48.6626 224.751 41.9577 224.736 35.2577 224.726C26.3461 224.736 17.4395 224.751 8.52783 224.761C9.02099 225.045 9.51414 225.323 10.0123 225.597C44.7671 225.637 79.522 225.647 114.272 225.637C115.238 225.637 116.21 225.353 117.176 225.204C117.191 224.746 117.206 224.283 117.221 223.825C116.399 224.133 115.577 224.711 114.755 224.711H114.76Z" fill="#D7D7D7"/>
<path d="M192.664 172.769C193.67 175.791 195.199 178.754 195.543 181.851C195.922 185.271 195.219 188.806 194.99 192.292C194.382 191.654 193.67 191.092 193.197 190.37C192.335 189.05 191.702 187.577 190.821 186.272C188.763 183.23 187.364 180.088 188.619 176.334C189.809 174.965 189.879 172.331 192.669 172.769H192.664Z" fill="#F1809A"/>
<path d="M117.226 223.829C116.404 224.138 115.582 224.711 114.76 224.716C94.9595 224.765 75.1636 224.755 55.3628 224.755C48.6629 224.755 41.958 224.741 35.2581 224.731C35.2581 224.556 35.263 224.382 35.268 224.208C42.1124 224.093 48.9518 223.934 55.7962 223.894C59.4126 223.874 63.0341 224.083 66.6505 224.143C67.3977 224.158 68.1449 223.889 68.8921 223.889C80.4439 223.869 92.0006 223.889 103.552 223.869C107.941 223.864 112.329 223.804 116.718 223.765C116.887 223.785 117.052 223.809 117.221 223.829H117.226Z" fill="#F39EB1"/>
<path d="M116.713 223.441C112.524 206.981 108.349 190.51 104.115 174.059C103.826 172.934 103.099 171.923 102.571 170.857V170.374C104.379 170.155 104.459 171.634 104.743 172.729C106.292 178.734 107.756 184.759 109.281 190.769C111.796 200.667 114.362 210.551 116.832 220.459C117.062 221.385 116.768 222.441 116.713 223.436V223.441Z" fill="#EAB0BD"/>
<path d="M172.564 218.362C167.149 220.314 161.71 221.997 155.687 220.215C157.172 217.805 159.403 217.551 161.585 217.486C165.236 217.377 168.893 217.481 172.549 217.491C172.554 217.78 172.559 218.069 172.564 218.362Z" fill="#10652F"/>
<path d="M172.564 218.363C172.559 218.074 172.554 217.785 172.549 217.491C179.786 217.481 187.029 217.72 194.252 217.382C199.672 217.128 205.057 216.127 210.462 215.465C210.726 215.43 211 215.465 211.269 215.465C211.318 215.649 211.368 215.833 211.423 216.017C210.352 216.336 209.296 216.829 208.2 216.943C203.154 217.481 198.088 217.825 193.052 218.422C189.087 218.89 185.146 219.617 181.201 220.25C180.574 220.349 179.961 220.548 179.174 220.23C180.305 219.712 181.435 219.199 182.566 218.681V218.363H172.559H172.564Z" fill="#70B464"/>
<path d="M182.617 206.074C183.832 206.363 185.033 206.786 186.263 206.921C192.43 207.573 198.607 208.15 204.779 208.758C205.252 208.803 205.72 208.907 206.188 208.982C206.183 209.196 206.178 209.41 206.168 209.624C204.271 209.624 202.363 209.729 200.475 209.599C197.979 209.425 195.469 208.688 193.023 208.887C189.989 209.131 187.01 210.072 184.016 210.76C183.513 210.874 183.075 211.362 182.577 211.407C182.049 211.457 181.496 211.183 180.953 211.053C181.326 210.595 181.635 209.833 182.089 209.734C184.066 209.301 186.089 209.062 188.086 208.275H184.888C181.999 208.066 179.115 207.852 176.226 207.643C177.252 207.394 178.318 207.563 179.304 207.349C180.445 207.1 181.516 206.517 182.612 206.079L182.617 206.074Z" fill="#70B464"/>
<path d="M258.462 191.097C258.358 192.72 258.258 194.348 258.153 195.972C256.495 196.116 254.841 196.26 253.182 196.405C253.023 195.016 252.514 193.542 252.813 192.257C253.077 191.122 254.034 189.763 255.055 189.275C256.554 188.563 257.65 189.842 258.462 191.097Z" fill="#0C2C7E"/>
<path d="M264.923 185.426C263.284 185.435 261.645 185.45 260.006 185.46C259.862 183.977 259.488 182.473 259.638 181.019C259.787 179.585 260.724 178.51 262.432 178.624C264.066 178.734 265.287 179.51 265.371 181.198C265.441 182.597 265.087 184.016 264.923 185.426Z" fill="#FFA653"/>
<path d="M163.901 211.919C167.637 212.801 171.373 213.687 175.109 214.568L175.075 214.872C173.072 214.663 171.075 214.269 169.072 214.284C164.679 214.309 160.285 214.583 155.891 214.673C154.168 214.708 152.549 214.339 152.011 212.228C154.009 210.465 156.021 211.133 157.884 212.228C160.195 213.587 162.571 214.2 165.301 213.627C164.793 213.06 164.315 212.527 163.837 211.989L163.901 211.924V211.919Z" fill="#10652F"/>
<path d="M182.616 206.074C181.515 206.513 180.449 207.1 179.309 207.344C178.322 207.558 177.256 207.389 176.23 207.638C179.119 207.847 182.004 208.061 184.893 208.27C183.249 208.454 181.61 208.639 179.966 208.823C179.767 208.798 179.573 208.773 179.373 208.748C175.891 208.763 172.409 208.778 168.923 208.793C168.29 208.793 167.652 208.868 167.04 208.773C166.915 208.753 166.791 207.852 166.82 207.842C167.433 207.648 168.076 207.389 168.698 207.414C169.819 207.454 170.935 207.678 172.051 207.822H173.52C173.52 207.717 173.53 207.613 173.53 207.508C173.057 207.469 172.579 207.434 172.106 207.394C171.119 205.806 171.762 205.103 173.426 205.223C176.494 205.442 179.553 205.786 182.611 206.074H182.616Z" fill="#10652F"/>
<path d="M179.373 208.748C179.572 208.773 179.767 208.798 179.966 208.823C178.372 209.654 176.808 210.541 175.174 211.272C174.716 211.477 174.038 211.272 173.485 211.143C173.336 211.108 173.166 210.436 173.221 210.406C173.704 210.107 174.213 209.794 174.756 209.669C176.285 209.316 177.834 209.052 179.373 208.748Z" fill="#70B464"/>
<path d="M172.11 207.389C172.584 207.429 173.062 207.463 173.535 207.503C173.535 207.608 173.525 207.712 173.525 207.817H172.056C172.081 207.673 172.101 207.528 172.11 207.384V207.389Z" fill="#70B464"/>
<path d="M163.837 211.984C163.777 211.9 163.717 211.815 163.653 211.735C163.732 211.795 163.817 211.86 163.897 211.92L163.832 211.984H163.837Z" fill="#77CFE1"/>
<path d="M55.3332 170.842C43.911 170.872 32.4937 170.902 21.0715 170.937C21.0715 170.762 21.0715 170.588 21.0615 170.414C32.4838 170.409 43.906 170.404 55.3282 170.399C55.3631 170.548 55.3631 170.693 55.3282 170.842H55.3332Z" fill="#F39EB1"/>
<path d="M84.9323 185.924C81.535 185.924 78.6508 183.225 78.7355 180.133C78.8201 177.061 81.8737 174.502 85.4453 174.502C88.2698 174.502 91.5774 177.654 91.5325 180.293C91.4827 183.205 88.2947 185.919 84.9273 185.919L84.9323 185.924Z" fill="#73B6FF"/>
<path d="M75.5868 154.959C76.7723 153.719 78.1472 153.51 79.3875 154.685C80.603 155.84 81.5495 155.089 82.2767 154.367C85.151 151.524 87.5819 151.937 89.2506 155.676C88.7923 156.567 88.3341 157.459 87.8758 158.35C84.8621 158.41 81.8483 158.474 78.8346 158.534C79.3577 156.926 78.9193 156.084 77.0812 156.259C76.1696 156.348 75.3576 156.219 75.5918 154.954H75.5868V154.959Z" fill="#F49FB2"/>
<path d="M75.5868 154.959C75.3527 156.224 76.1646 156.353 77.0762 156.264C78.9143 156.084 79.3527 156.931 78.8296 158.539C76.2144 158.479 73.5992 158.42 70.979 158.36C71.1634 157.06 70.6652 156.129 69.3302 155.975C67.9354 155.815 67.6266 156.806 67.6266 157.956C66.0923 157.633 64.5631 157.304 63.0288 156.981C63.0537 156.632 63.0836 156.289 63.1085 155.94C67.2679 155.611 71.4274 155.283 75.5818 154.954L75.5868 154.959Z" fill="#F8F9FA"/>
<path d="M102.511 159.425C103.692 158.141 104.962 158.255 107.443 160.187C105.789 160.79 104.414 161.293 102.825 161.87C102.691 161.019 102.601 160.451 102.511 159.888V159.425Z" fill="#F8F9FA"/>
<path d="M55.2429 158.195V161.8C53.609 161.267 52.1843 160.809 50.7647 160.346C50.7497 160.077 50.7298 159.814 50.7148 159.545C52.1046 159.131 53.4994 158.713 55.2429 158.195Z" fill="#F8F9FA"/>
<path d="M87.8758 158.35C88.3341 157.458 88.7924 156.567 89.2507 155.676C90.8846 155.915 92.5234 156.154 94.1573 156.398C94.1673 156.706 94.1772 157.01 94.1872 157.319C92.0801 157.662 89.978 158.011 87.8708 158.355H87.8758V158.35Z" fill="#F8F9FA"/>
<path d="M67.6321 157.956C67.6321 156.806 67.9459 155.81 69.3357 155.974C70.6707 156.129 71.1688 157.06 70.9845 158.359C69.8687 158.225 68.7479 158.09 67.6321 157.956Z" fill="#EAB0BD"/>
<path d="M84.2295 159.579C86.5608 159.39 88.8871 159.196 91.2084 159.007C91.2233 159.196 91.2432 159.39 91.2582 159.579H84.2295Z" fill="#89CFDF"/>
<path d="M102.511 159.425V159.888H94.3914C94.3914 159.734 94.3914 159.58 94.3914 159.425H102.516H102.511Z" fill="#89CFDF"/>
<path d="M49.9926 212.542C49.1607 213.269 48.4483 214.314 47.477 214.673C38.2565 218.084 29.051 218.656 20.3236 213.334C15.3822 210.321 15.5764 204.516 20.4532 201.424C23.6661 199.387 27.2228 198.536 31.0086 198.192C35.5217 197.784 39.9651 197.968 44.279 199.223C46.7547 199.945 49.4396 200.642 50.8693 203.216C50.8145 203.266 50.7547 203.321 50.6999 203.375C49.3251 202.584 48.005 201.663 46.5604 201.025C41.0311 198.591 35.188 198.302 29.3648 199.313C26.366 199.83 23.3374 200.941 20.6773 202.424C17.0658 204.441 16.6574 208.937 19.7558 211.681C21.4594 213.189 23.6612 214.539 25.848 215.022C34.0871 216.844 42.2715 217.103 49.8282 212.338C49.883 212.403 49.9378 212.467 49.9876 212.532V212.542H49.9926Z" fill="#73B6FF"/>
<path d="M92.9217 211.048C90.7897 213.722 87.6365 214.255 84.5929 214.613C80.8121 215.061 76.9864 214.792 73.3998 213.279C72.2342 212.786 71.0536 212.148 70.1221 211.307C66.944 208.439 67.4122 204.162 71.2628 202.295C78.2566 198.899 85.3451 199.083 92.2891 202.544C95.0438 203.918 96.8271 208.708 92.9267 211.048C93.5793 209.276 95.2779 207.518 93.7885 205.591C92.7623 204.262 91.3725 202.867 89.8482 202.315C83.9204 200.174 77.903 200.119 72.1246 202.922C68.0897 204.874 67.8655 208.793 71.5966 211.327C75.6912 214.105 80.3588 214.289 85.0014 213.538C87.7062 213.099 90.2866 211.904 92.9267 211.048H92.9217Z" fill="#73B6FF"/>
<path d="M23.701 180.79C25.0261 179.889 26.2365 178.554 27.6961 178.166C33.4794 176.622 39.2926 176.508 44.6775 179.57C45.7634 180.187 46.665 181.731 46.9091 182.991C47.0436 183.693 45.6488 184.694 44.9465 185.555L44.812 185.416C46.67 182.757 46.3562 181.268 43.5368 179.814C42.6003 179.331 41.589 178.863 40.5629 178.689C34.7696 177.723 29.061 177.559 23.8554 180.959C23.8007 180.904 23.7459 180.85 23.696 180.79H23.701Z" fill="#73B6FF"/>
<path d="M44.9517 185.56C44.4984 186.028 44.1348 186.74 43.5818 186.935C37.2705 189.19 30.9541 189.379 24.832 186.362C22.0873 185.008 21.7386 182.643 23.7013 180.795C23.7511 180.85 23.8059 180.905 23.8607 180.96C22.9391 183.748 23.3177 184.724 26.0923 185.924C32.3937 188.647 38.6453 188.269 44.8172 185.416L44.9517 185.555V185.56Z" fill="#73B6FF"/>
<path d="M50.8744 203.221C53.7137 205.995 53.2853 210.526 49.9927 212.537C49.9379 212.472 49.888 212.408 49.8333 212.343C52.1795 209.555 52.1745 206.537 50.705 203.376C50.7598 203.321 50.8146 203.271 50.8744 203.216V203.221Z" fill="#73B6FF"/>
<path d="M173.102 186.417C172.036 179.371 179.269 177.265 183.657 178.784C184.315 179.013 185.132 180.252 185.037 180.9C184.564 184.151 183.807 187.368 183.149 190.594C182.516 188.777 180.967 189.628 179.871 189.633C177.042 189.638 174.676 188.926 173.102 186.422V186.417Z" fill="#F39EB1"/>
<path d="M161.211 190.54C160.907 188.443 161.251 186.591 163.268 185.436C165.555 184.117 168.001 183.853 170.457 184.754C170.875 184.908 171.229 186.024 171.149 186.631C170.885 188.563 170.397 190.46 169.993 192.372C167.323 192.218 164.648 192.063 161.978 191.914L162.013 191.904C161.744 191.451 161.48 190.998 161.211 190.545V190.54Z" fill="#F39EB1"/>
<path d="M201.247 200.478H134.721V200.249H201.346C201.316 200.324 201.281 200.403 201.252 200.478H201.247Z" fill="#89CFDF"/>
<path d="M173.102 186.417C174.681 188.921 177.047 189.638 179.872 189.628C180.973 189.628 182.517 188.772 183.149 190.589C180.943 192.775 178.397 191.784 176.19 190.923C174.442 190.241 172.933 188.732 173.097 186.412H173.102V186.417Z" fill="#F1809A"/>
<path d="M152.559 191.854C153.057 190.614 153.191 189.33 153.759 189.096C154.691 188.707 155.961 188.807 156.972 189.096C157.421 189.225 157.779 190.311 157.804 190.973C157.814 191.252 156.863 191.74 156.305 191.814C155.274 191.954 154.213 191.854 152.559 191.854Z" fill="#FBE2E7"/>
<path d="M161.979 191.909C164.649 192.063 167.319 192.217 169.994 192.367C169.545 192.795 169.082 193.607 168.649 193.592C166.327 193.507 163.682 194.448 161.979 191.909Z" fill="#F1809A"/>
<path d="M50.7054 203.381C52.1798 206.537 52.1798 209.555 49.8336 212.348C42.2769 217.113 34.0926 216.849 25.8534 215.032C23.6666 214.549 21.4648 213.2 19.7612 211.691C16.6628 208.947 17.0663 204.451 20.6828 202.435C23.3378 200.951 26.3715 199.841 29.3702 199.323C35.1885 198.312 41.0366 198.601 46.5659 201.036C48.0104 201.673 49.3305 202.594 50.7054 203.386V203.381ZM24.1797 204.566C22.4761 205.557 22.6703 207.035 23.2482 208.519C24.2893 211.203 28.3889 213.12 32.4985 212.682C30.775 212.174 29.3453 211.93 28.09 211.327C26.7501 210.685 25.151 209.953 24.4536 208.793C23.8409 207.767 24.3192 206.094 24.3142 204.705C24.4686 204.561 24.623 204.411 24.7725 204.267C29.963 201.21 35.4325 200.822 41.1312 202.544C45.0465 203.729 46.1873 205.676 45.2159 209.57C42.3367 210.7 39.4625 211.83 36.5284 212.98C39.8859 212.99 43.064 212.627 45.3653 209.744C47.5372 207.488 47.0441 204.471 43.9208 202.868C38.0179 199.831 31.9605 199.821 25.963 202.709C25.415 202.972 25.0614 203.635 24.623 204.113C24.4736 204.262 24.3241 204.416 24.1747 204.566H24.1797Z" fill="#0C2C7E"/>
<path d="M92.9222 211.048C90.287 211.905 87.7017 213.1 84.9969 213.538C80.3542 214.29 75.6817 214.101 71.592 211.327C67.861 208.798 68.0852 204.879 72.1201 202.923C77.8984 200.124 83.9159 200.174 89.8437 202.315C91.368 202.863 92.7528 204.262 93.784 205.591C95.2734 207.518 93.5747 209.271 92.9222 211.048ZM89.3506 209.301C91.0293 207.498 90.9595 205.94 89.1264 204.312C85.5498 201.135 77.2409 201.344 73.8785 204.705C72.4339 206.149 72.1649 207.673 73.6344 209.281C75.7963 212.238 79.1139 212.418 82.2123 212.283C84.7777 212.174 87.7615 212.124 89.3555 209.296L89.3506 209.301Z" fill="#0C2C7E"/>
<path d="M44.8173 185.416C38.6504 188.269 32.3988 188.647 26.0924 185.924C23.3178 184.724 22.9392 183.748 23.8607 180.96C29.0712 177.564 34.7799 177.723 40.5682 178.689C41.5943 178.858 42.6006 179.326 43.5421 179.814C46.3615 181.268 46.6753 182.757 44.8173 185.416ZM28.3091 184.156C31.1634 186.536 37.8683 186.85 40.6877 184.734C42.2469 183.564 42.2967 182.339 40.8372 181.263C40.7126 180.989 40.6529 180.641 40.4486 180.462C38.0675 178.41 30.5108 178.604 28.3489 180.84C27.3925 181.831 26.8496 183.036 28.3091 184.156Z" fill="#0C2C7E"/>
<path d="M24.6228 204.107C25.0661 203.629 25.4198 202.967 25.9678 202.703C31.9653 199.815 38.0226 199.83 43.9255 202.863C47.0488 204.471 47.542 207.488 45.3701 209.739C45.3203 209.679 45.2705 209.624 45.2157 209.565C46.192 205.671 45.0463 203.724 41.136 202.539C35.4373 200.816 29.9678 201.205 24.7772 204.257L24.6228 204.102V204.107Z" fill="#73B6FF"/>
<path d="M24.3187 204.705C24.3187 206.094 23.8405 207.767 24.4532 208.793C25.1506 209.958 26.7496 210.685 28.0896 211.327C29.3449 211.929 30.7745 212.168 32.4981 212.681C28.3885 213.119 24.2888 211.203 23.2477 208.519C22.6699 207.035 22.4756 205.556 24.1792 204.565L24.3187 204.705Z" fill="#73B6FF"/>
<path d="M45.3701 209.744C43.0687 212.626 39.8906 212.99 36.5332 212.98C39.4672 211.83 42.3415 210.7 45.2157 209.569C45.2655 209.629 45.3153 209.684 45.3651 209.744H45.3701Z" fill="#73B6FF"/>
<path d="M24.1797 204.565C24.3291 204.416 24.4786 204.262 24.628 204.112C24.628 204.112 24.7824 204.262 24.7824 204.267C24.628 204.416 24.4736 204.56 24.3241 204.71L24.1847 204.57H24.1797V204.565Z" fill="#89CFDF"/>
<path d="M73.6241 209.285C72.1596 207.677 72.4236 206.149 73.8732 204.71C77.2406 201.349 85.5445 201.14 89.1211 204.316C90.9542 205.944 91.024 207.503 89.3453 209.305L89.2008 209.171C89.8384 206.054 89.2755 205.083 86.2967 203.823C83.3577 202.579 80.4087 202.773 77.4548 203.644C74.3066 204.575 73.5096 205.82 73.7935 209.116C73.7337 209.171 73.6789 209.231 73.6191 209.285H73.6241Z" fill="#73B6FF"/>
<path d="M89.3508 209.305C87.7518 212.133 84.7729 212.178 82.2075 212.293C79.1091 212.427 75.7915 212.248 73.6296 209.29C73.6894 209.236 73.7442 209.181 73.804 209.126C78.9298 212.183 84.0656 212.427 89.2113 209.176L89.3558 209.31L89.3508 209.305Z" fill="#73B6FF"/>
<path d="M40.8421 181.264C42.3016 182.339 42.2468 183.564 40.6926 184.734C37.8732 186.85 31.1683 186.541 28.314 184.157C28.3787 184.092 28.4485 184.032 28.5132 183.967C29.1508 184.191 29.7835 184.42 30.4211 184.644C33.5344 185.745 36.583 185.665 39.5917 184.241C40.8969 183.624 41.4548 182.782 40.6976 181.398L40.847 181.264H40.8421Z" fill="#73B6FF"/>
<path d="M28.3087 184.156C26.8542 183.036 27.3921 181.831 28.3486 180.84C30.5055 178.605 38.0672 178.41 40.4483 180.462C40.6575 180.641 40.7123 180.994 40.8368 181.263L40.6924 181.398C38.2266 179.944 35.5217 179.795 32.762 180.004C29.5839 180.248 28.3187 181.438 28.503 183.967C28.4382 184.032 28.3735 184.096 28.3037 184.156H28.3087Z" fill="#73B6FF"/>
<path d="M89.2063 209.171C84.0605 212.422 78.9248 212.174 73.799 209.121C73.515 205.825 74.312 204.575 77.4602 203.644C80.4142 202.773 83.3631 202.579 86.3021 203.824C89.281 205.083 89.8439 206.054 89.2063 209.171Z" fill="#D5D7D7"/>
<path d="M28.5082 183.967C28.3239 181.437 29.5891 180.247 32.7672 180.003C35.5269 179.789 38.2268 179.939 40.6975 181.398C41.4547 182.782 40.8968 183.623 39.5917 184.241C36.5829 185.665 33.5294 185.744 30.421 184.644C29.7834 184.42 29.1508 184.196 28.5132 183.967H28.5082Z" fill="#D5D7D7"/>
</g>
<defs>
<clipPath id="clip0_5906_8265">
<rect width="293.401" height="238" fill="white"/>
</clipPath>
</defs>
</svg>
