<svg width="19" height="15" viewBox="0 0 19 15" fill="none" xmlns="http://www.w3.org/2000/svg">
<path d="M16.8311 0.399292H2.18001C1.22093 0.399292 0.44104 1.17918 0.44104 2.13826V12.2813C0.44104 13.2404 1.22093 14.0203 2.18001 14.0203H16.8311C17.7902 14.0203 18.57 13.2404 18.57 12.2813V2.13826C18.57 1.17918 17.7902 0.399292 16.8311 0.399292ZM17.3461 12.2813C17.3461 12.5653 17.1151 12.7963 16.8311 12.7963H2.18001C1.896 12.7963 1.66497 12.5653 1.66497 12.2813V2.13826C1.66497 1.85426 1.896 1.62322 2.18001 1.62322H16.8311C17.1151 1.62322 17.3461 1.85426 17.3461 2.13826V12.2813Z" fill="#0C2C7E"/>
<path d="M4.43398 6.08274C5.36762 6.08274 6.12448 5.32587 6.12448 4.39223C6.12448 3.45859 5.36762 2.70172 4.43398 2.70172C3.50034 2.70172 2.74347 3.45859 2.74347 4.39223C2.74347 5.32587 3.50034 6.08274 4.43398 6.08274Z" fill="#0C2C7E"/>
<path d="M8.37849 9.46375L6.12448 7.20974L2.74347 10.5908V11.7178H16.2675V10.5908L11.7595 6.08273L8.37849 9.46375Z" fill="#0C2C7E"/>
</svg>
