<svg width="17" height="18" viewBox="0 0 17 18" fill="none" xmlns="http://www.w3.org/2000/svg">
<path d="M15.1785 1.89744H14.5892V1.30816C14.5892 0.98257 14.3255 0.718872 13.9999 0.718872C13.6743 0.718872 13.4106 0.98257 13.4106 1.30816V1.89744H9.28564V1.30816C9.28564 0.98257 9.02194 0.718872 8.69635 0.718872C8.37076 0.718872 8.10706 0.98257 8.10706 1.30816V1.89744H3.98206V1.30816C3.98206 0.98257 3.71837 0.718872 3.39278 0.718872C3.06719 0.718872 2.80349 0.98257 2.80349 1.30816V1.89744H2.21421C1.2382 1.89744 0.44635 2.68929 0.44635 3.6653V15.451C0.44635 16.427 1.2382 17.2189 2.21421 17.2189H15.1785C16.1545 17.2189 16.9464 16.427 16.9464 15.451V3.6653C16.9464 2.68929 16.1545 1.89744 15.1785 1.89744ZM2.21421 3.07601H2.80349V3.6653C2.80349 3.99089 3.06719 4.25459 3.39278 4.25459C3.71837 4.25459 3.98206 3.99089 3.98206 3.6653V3.07601H8.10706V3.6653C8.10706 3.99089 8.37076 4.25459 8.69635 4.25459C9.02194 4.25459 9.28564 3.99089 9.28564 3.6653V3.07601H13.4106V3.6653C13.4106 3.99089 13.6743 4.25459 13.9999 4.25459C14.3255 4.25459 14.5892 3.99089 14.5892 3.6653V3.07601H15.1785C15.3347 3.07601 15.4849 3.13789 15.5954 3.24838C15.7059 3.35887 15.7678 3.50914 15.7678 3.66529V5.43315H1.62491V3.66529C1.62491 3.33971 1.88862 3.07601 2.21421 3.07601ZM15.1785 16.0403H2.21421C1.88862 16.0403 1.62492 15.7766 1.62492 15.451V6.61173H15.7678V15.451C15.7678 15.6072 15.7059 15.7574 15.5954 15.8679C15.4849 15.9784 15.3346 16.0403 15.1785 16.0403ZM5.16064 8.37959C5.16064 8.53575 5.09876 8.68601 4.98827 8.7965C4.87778 8.90699 4.72751 8.96886 4.57136 8.96886H3.98207C3.65648 8.96886 3.39279 8.70517 3.39279 8.37958C3.39279 8.05399 3.65648 7.79029 3.98207 7.79029H4.57136C4.72752 7.79029 4.87779 7.85217 4.98827 7.96266C5.09876 8.07315 5.16064 8.22343 5.16064 8.37959ZM8.10706 8.37959C8.10706 8.53575 8.04519 8.68601 7.9347 8.7965C7.82421 8.90699 7.67394 8.96886 7.51779 8.96886H6.9285C6.60291 8.96886 6.33921 8.70517 6.33921 8.37958C6.33921 8.05399 6.60291 7.79029 6.9285 7.79029H7.51779C7.67395 7.79029 7.82421 7.85217 7.9347 7.96266C8.04519 8.07315 8.10706 8.22343 8.10706 8.37959ZM11.0535 8.37959C11.0535 8.53575 10.9916 8.68601 10.8811 8.7965C10.7706 8.90699 10.6204 8.96886 10.4642 8.96886H9.87493C9.54934 8.96886 9.28564 8.70517 9.28564 8.37958C9.28564 8.05399 9.54934 7.79029 9.87493 7.79029H10.4642C10.6204 7.79029 10.7706 7.85217 10.8811 7.96266C10.9916 8.07315 11.0535 8.22343 11.0535 8.37959ZM13.9999 8.37959C13.9999 8.53575 13.938 8.68601 13.8276 8.7965C13.7171 8.90699 13.5668 8.96886 13.4106 8.96886H12.8214C12.4958 8.96886 12.2321 8.70517 12.2321 8.37958C12.2321 8.05399 12.4958 7.79029 12.8214 7.79029H13.4106C13.5668 7.79029 13.7171 7.85217 13.8276 7.96266C13.938 8.07315 13.9999 8.22343 13.9999 8.37959ZM5.16064 11.326C5.16064 11.4822 5.09876 11.6324 4.98827 11.7429C4.87778 11.8534 4.72751 11.9153 4.57136 11.9153H3.98207C3.65648 11.9153 3.39279 11.6516 3.39279 11.326C3.39279 11.0004 3.65648 10.7367 3.98207 10.7367H4.57136C4.72752 10.7367 4.87779 10.7986 4.98827 10.9091C5.09876 11.0196 5.16064 11.1699 5.16064 11.326ZM8.10706 11.326C8.10706 11.4822 8.04519 11.6324 7.9347 11.7429C7.82421 11.8534 7.67394 11.9153 7.51779 11.9153H6.9285C6.60291 11.9153 6.33921 11.6516 6.33921 11.326C6.33921 11.0004 6.60291 10.7367 6.9285 10.7367H7.51779C7.67395 10.7367 7.82421 10.7986 7.9347 10.9091C8.04519 11.0196 8.10706 11.1699 8.10706 11.326ZM11.0535 11.326C11.0535 11.4822 10.9916 11.6324 10.8811 11.7429C10.7706 11.8534 10.6204 11.9153 10.4642 11.9153H9.87493C9.54934 11.9153 9.28564 11.6516 9.28564 11.326C9.28564 11.0004 9.54934 10.7367 9.87493 10.7367H10.4642C10.6204 10.7367 10.7706 10.7986 10.8811 10.9091C10.9916 11.0196 11.0535 11.1699 11.0535 11.326ZM13.9999 11.326C13.9999 11.4822 13.938 11.6324 13.8276 11.7429C13.7171 11.8534 13.5668 11.9153 13.4106 11.9153H12.8214C12.4958 11.9153 12.2321 11.6516 12.2321 11.326C12.2321 11.0004 12.4958 10.7367 12.8214 10.7367H13.4106C13.5668 10.7367 13.7171 10.7986 13.8276 10.9091C13.938 11.0196 13.9999 11.1699 13.9999 11.326ZM5.16064 14.2724C5.16064 14.4286 5.09876 14.5789 4.98827 14.6894C4.87778 14.7998 4.72751 14.8617 4.57136 14.8617H3.98207C3.65648 14.8617 3.39279 14.598 3.39279 14.2724C3.39279 13.9468 3.65648 13.6832 3.98207 13.6832H4.57136C4.72752 13.6832 4.87779 13.745 4.98827 13.8555C5.09876 13.966 5.16064 14.1163 5.16064 14.2724ZM8.10706 14.2724C8.10706 14.4286 8.04519 14.5789 7.9347 14.6894C7.82421 14.7998 7.67394 14.8617 7.51779 14.8617H6.9285C6.60291 14.8617 6.33921 14.598 6.33921 14.2724C6.33921 13.9468 6.60291 13.6832 6.9285 13.6832H7.51779C7.67395 13.6832 7.82421 13.745 7.9347 13.8555C8.04519 13.966 8.10706 14.1163 8.10706 14.2724Z" fill="#0C2C7E"/>
</svg>
