<svg width="18" height="17" viewBox="0 0 18 17" fill="none" xmlns="http://www.w3.org/2000/svg">
<path d="M13.0938 6.90649C14.1763 6.90649 15.1838 7.23178 16.0249 7.78864C16.4089 7.13456 16.7046 6.48991 16.8588 5.88019C18.2784 0.256682 11.6986 -2.42173 8.97255 2.80553C6.24629 -2.42154 -0.333079 0.256866 1.08652 5.88037C1.626 8.01707 3.86712 10.404 5.79441 12.3212C7.08019 13.5997 8.4388 14.8236 8.4388 14.8236C8.44231 14.8269 8.44656 14.8288 8.44989 14.8317C8.01722 14.0622 7.76938 13.1756 7.76938 12.2315C7.76938 9.29529 10.1582 6.90649 13.0938 6.90649Z" fill="#0C2C7E"/>
<path d="M13.0939 7.83044C10.6639 7.83044 8.69331 9.80062 8.69331 12.2316C8.6935 14.6621 10.6639 16.6323 13.0939 16.6323C15.525 16.6323 17.4949 14.6621 17.4949 12.2312C17.4953 9.80062 15.5255 7.83044 13.0939 7.83044ZM15.1524 12.9706H13.8331V14.2897C13.8331 14.698 13.5021 15.029 13.0939 15.029C12.6856 15.029 12.3546 14.698 12.3546 14.2897V12.9706H11.0359C10.6276 12.9706 10.2966 12.6396 10.2966 12.2314C10.2966 11.8231 10.6276 11.4921 11.0359 11.4921H12.3546V10.1732C12.3546 9.76495 12.6856 9.43394 13.0939 9.43394C13.5021 9.43394 13.8331 9.76495 13.8331 10.1732V11.4921H15.1524C15.5606 11.4921 15.8916 11.8231 15.8916 12.2314C15.8916 12.6396 15.5606 12.9706 15.1524 12.9706Z" fill="#0C2C7E"/>
</svg>
