<svg width="22" height="17" viewBox="0 0 22 17" fill="none" xmlns="http://www.w3.org/2000/svg">
<path d="M12.1959 4.6933H9.44914V11.4006H12.1959V4.6933Z" fill="#0C2C7E"/>
<path d="M8.84516 6.43243H6.09714V11.4008H8.84516V6.43243Z" fill="#0C2C7E"/>
<path d="M15.5463 8.17255H12.7996V11.4007H15.5463V8.17255Z" fill="#0C2C7E"/>
<path d="M10.6505 0.15181L10.1121 1.06465L9.08142 1.30255C8.93335 1.33719 8.8756 1.51761 8.97903 1.63001L9.69785 2.41608L9.57903 3.61096C9.5644 3.77033 9.73301 3.87965 9.87313 3.80343L10.8219 3.27939L11.7727 3.80343C11.9116 3.87939 12.0815 3.77007 12.0666 3.61096L11.9462 2.41608L12.6655 1.63001C12.7682 1.51761 12.7123 1.33719 12.5639 1.30255L11.5333 1.06465L10.9933 0.15181C10.8902 -0.0232137 10.7313 0.0181041 10.6505 0.15181Z" fill="#0C2C7E"/>
<path d="M19.1571 1.67828C19.8534 2.33321 20.1821 3.08155 20.1452 3.76367C20.1077 4.44118 19.7025 5.03708 19.0745 5.31271C18.446 5.58679 17.8901 5.49723 17.4836 5.1536C17.0746 4.80843 16.8089 4.22176 16.8115 3.47856C16.8131 3.32766 16.9252 3.30867 17.0094 3.341C17.5678 3.55067 18.0305 3.73134 18.4167 4.09191C18.2494 3.23912 18.6582 2.3717 18.9231 1.72884C18.97 1.61387 19.085 1.61027 19.1571 1.67828Z" fill="#0C2C7E"/>
<path d="M20.6553 8.91599C20.8709 9.84756 20.7274 10.6521 20.316 11.199C19.9085 11.7402 19.2413 12.0117 18.5663 11.8901C17.8916 11.7682 17.4787 11.3848 17.3311 10.8741C17.1828 10.3595 17.2885 9.72309 17.704 9.10872C17.7882 8.98399 17.8939 9.03096 17.946 9.10435C18.2925 9.58836 18.5771 9.99589 18.6985 10.5104C19.0329 9.70872 19.8549 9.21548 20.4323 8.8277C20.5349 8.75816 20.6327 8.81975 20.6553 8.91599Z" fill="#0C2C7E"/>
<path d="M19.1691 12.6279C18.9645 13.562 18.49 14.2265 17.8844 14.5444C17.2844 14.8598 16.564 14.8185 16.0069 14.4189C15.4494 14.0206 15.2411 13.4981 15.3278 12.9728C15.4135 12.4449 15.7823 11.9152 16.4211 11.537C16.5509 11.4597 16.6256 11.548 16.6415 11.636C16.7472 12.2227 16.8288 12.7134 16.7177 13.2294C17.3634 12.6477 18.3176 12.5558 19.0064 12.4513C19.1275 12.4339 19.1906 12.5304 19.1691 12.6279Z" fill="#0C2C7E"/>
<path d="M10.8215 16.5949C11.3065 16.5949 11.6997 16.2017 11.6997 15.7167C11.6997 15.2317 11.3065 14.8385 10.8215 14.8385C10.3365 14.8385 9.9433 15.2317 9.9433 15.7167C9.9433 16.2017 10.3365 16.5949 10.8215 16.5949Z" fill="#0C2C7E"/>
<path d="M17.5208 2.88945C16.2761 2.49629 16.167 1.66505 16.167 0.32954C16.167 0.0544299 16.2137 0.0262004 16.4237 0.0705978C17.8256 0.367008 18.3895 1.65813 17.8736 2.76524C17.7879 2.94693 17.6837 2.94129 17.5208 2.88945Z" fill="#0C2C7E"/>
<path d="M20.4575 5.05044C20.9933 5.84318 21.1496 6.6449 20.9628 7.30265C20.7782 7.95526 20.2529 8.44825 19.5793 8.57811C18.9056 8.70771 18.3828 8.49778 18.062 8.07562C17.7387 7.64782 17.6076 7.01702 17.7733 6.29383C17.808 6.14678 17.9232 6.15217 17.9979 6.20195C18.4952 6.52941 18.9082 6.80709 19.2064 7.24285C19.229 6.37544 19.82 5.61888 20.2178 5.04942C20.2891 4.94753 20.4023 4.96909 20.4575 5.05044Z" fill="#0C2C7E"/>
<path d="M16.4195 15.5033C15.8005 16.2331 15.0706 16.5978 14.3875 16.5952C13.7087 16.5924 13.0923 16.2182 12.7866 15.6046C12.4805 14.991 12.542 14.431 12.8639 14.0086C13.1877 13.5824 13.761 13.287 14.5014 13.2521C14.6523 13.2451 14.678 13.3578 14.6498 13.4435C14.4694 14.0115 14.3115 14.4819 13.972 14.8868C14.814 14.6759 15.7017 15.0408 16.3579 15.2718C16.4742 15.3123 16.4837 15.4281 16.4195 15.5033Z" fill="#0C2C7E"/>
<path d="M2.48764 1.67828C1.78985 2.33321 1.46265 3.08155 1.49986 3.76367C1.53733 4.44118 1.94229 5.03708 2.57053 5.31271C3.19876 5.58679 3.75463 5.49723 4.16088 5.1536C4.57021 4.80843 4.83608 4.22176 4.83172 3.47856C4.83172 3.32766 4.71828 3.30867 4.63385 3.341C4.07645 3.55067 3.614 3.73134 3.22674 4.09191C3.39509 3.23912 2.98473 2.3717 2.72117 1.72884C2.67523 1.61387 2.56001 1.61027 2.48764 1.67828Z" fill="#0C2C7E"/>
<path d="M0.989695 8.91599C0.774381 9.84756 0.917582 10.6521 1.32768 11.199C1.73547 11.7402 2.40348 12.0117 3.07843 11.8901C3.75363 11.7682 4.16526 11.3848 4.31231 10.8741C4.46065 10.3595 4.35517 9.72309 3.93943 9.10872C3.85525 8.98399 3.75106 9.03096 3.69871 9.10435C3.35123 9.58836 3.06662 9.99589 2.94626 10.5104C2.61187 9.70872 1.78859 9.21548 1.21091 8.8277C1.11006 8.75816 1.01074 8.81975 0.989695 8.91599Z" fill="#0C2C7E"/>
<path d="M2.47494 12.6279C2.68076 13.562 3.15527 14.2265 3.75964 14.5444C4.36119 14.8598 5.08027 14.8185 5.63742 14.4189C6.19611 14.0206 6.40321 13.4981 6.31749 12.9728C6.2305 12.4449 5.863 11.9152 5.22424 11.537C5.09438 11.4597 5.01945 11.548 5.00354 11.636C4.89806 12.2227 4.81543 12.7134 4.92757 13.2294C4.2806 12.6477 3.32619 12.5558 2.63918 12.4513C2.5178 12.4339 2.45338 12.5304 2.47494 12.6279Z" fill="#0C2C7E"/>
<path d="M4.12379 2.88945C5.36691 2.49629 5.47778 1.66505 5.47778 0.32954C5.47778 0.0544299 5.43081 0.0262004 5.22115 0.0705978C3.81788 0.367008 3.25354 1.65813 3.77092 2.76524C3.85509 2.94693 3.9598 2.94129 4.12379 2.88945Z" fill="#0C2C7E"/>
<path d="M1.18609 5.05044C0.649981 5.84318 0.495232 6.6449 0.680777 7.30265C0.866835 7.95526 1.39191 8.44825 2.06531 8.57811C2.73922 8.70771 3.2607 8.49778 3.58252 8.07562C3.90588 7.64782 4.03573 7.01702 3.86995 6.29383C3.83658 6.14678 3.72136 6.15217 3.64693 6.20195C3.14855 6.52941 2.7364 6.80709 2.4382 7.24285C2.41433 6.37544 1.82459 5.61888 1.42655 5.04942C1.35572 4.94753 1.24229 4.96909 1.18609 5.05044Z" fill="#0C2C7E"/>
<path d="M5.22381 15.5033C5.84281 16.2331 6.5737 16.5978 7.2566 16.5952C7.9359 16.5924 8.55208 16.2182 8.85798 15.6046C9.16415 14.991 9.10255 14.431 8.78022 14.0086C8.45558 13.5824 7.88329 13.287 7.14137 13.2521C6.99047 13.2451 6.9666 13.3578 6.99329 13.4435C7.17499 14.0115 7.33128 14.4819 7.67234 14.8868C6.82879 14.6759 5.94315 15.0408 5.28669 15.2718C5.17043 15.3123 5.1594 15.4281 5.22381 15.5033Z" fill="#0C2C7E"/>
</svg>
