<svg width="22" height="15" viewBox="0 0 22 15" fill="none" xmlns="http://www.w3.org/2000/svg">
<path d="M21.6814 6.63523C20.6401 6.07452 19.4538 5.82972 18.2238 5.91708C18.2288 5.83731 18.2333 5.7578 18.2362 5.67882C18.2822 4.42898 18.0546 3.21208 17.5775 2.15969C17.5096 2.00957 17.3544 1.91777 17.1894 1.92954C16.041 2.0114 14.9121 2.43874 13.8963 3.17181C13.3566 1.98368 12.5771 0.999023 11.6214 0.303618C11.4824 0.202668 11.294 0.202668 11.1551 0.303618C10.199 0.999023 9.41933 1.9842 8.87988 3.17259C8.19963 2.68353 7.4536 2.3221 6.69678 2.11863C6.65178 2.10634 6.61073 2.09588 6.57336 2.08672C6.27048 2.01114 5.96022 1.96014 5.65102 1.93477C5.62997 1.93268 5.60892 1.93085 5.5876 1.92954C5.42208 1.91751 5.26682 2.00931 5.19893 2.15969C4.68631 3.29054 4.46553 4.58066 4.5521 5.91681C3.3224 5.82972 2.13612 6.07478 1.0951 6.63497C0.960103 6.70768 0.879842 6.85126 0.889052 7.00347C0.961945 8.2031 1.34062 9.40796 1.98402 10.4873C2.64558 11.5972 3.57398 12.5474 4.66868 13.2347C4.91999 13.3924 5.17998 13.5362 5.44103 13.662C6.44389 14.1471 7.53307 14.4029 8.59357 14.4029C8.60094 14.4029 8.6083 14.4029 8.61567 14.4029C9.59328 14.3998 10.5472 14.1793 11.3888 13.7648C12.2403 14.1848 13.1966 14.4029 14.1855 14.4029C14.31 14.4029 14.435 14.3995 14.56 14.3924C15.7826 14.325 17.0094 13.9246 18.108 13.2347C19.2027 12.5474 20.1311 11.5975 20.7927 10.4873C21.4361 9.4077 21.8148 8.2031 21.8877 7.00347C21.8966 6.85152 21.8163 6.70768 21.6814 6.63523ZM16.9678 2.74002C17.3199 3.62216 17.4854 4.62198 17.4475 5.65032C17.4396 5.86869 17.4223 6.09125 17.3962 6.30937L17.3959 6.31146C17.3899 6.36115 17.3833 6.41084 17.3762 6.46053C17.3725 6.48695 17.3688 6.5131 17.3649 6.53925C17.3599 6.57351 17.3544 6.60804 17.3488 6.6423C17.3441 6.67159 17.3394 6.70088 17.3344 6.73017C17.3291 6.76129 17.3233 6.79241 17.3175 6.82353C17.3117 6.85518 17.3057 6.88709 17.2996 6.91873C17.2941 6.94724 17.2881 6.97601 17.2823 7.00451C17.2752 7.03825 17.2683 7.07199 17.261 7.10546C17.2552 7.13214 17.2488 7.15855 17.2428 7.18523C17.2346 7.22027 17.2265 7.25532 17.2181 7.29036C17.212 7.31547 17.2054 7.34058 17.1991 7.36568C17.1899 7.40151 17.181 7.43734 17.1712 7.47317C17.1646 7.4975 17.1578 7.52182 17.151 7.54614C17.141 7.58223 17.1307 7.61832 17.1202 7.65441C17.1131 7.67847 17.1057 7.70227 17.0986 7.72607C17.0875 7.76216 17.0767 7.79799 17.0654 7.83408C17.0578 7.85814 17.0496 7.8822 17.0417 7.90626C17.0302 7.94157 17.0186 7.97714 17.0065 8.01218C16.9981 8.03703 16.9891 8.06161 16.9804 8.0862C16.9683 8.12046 16.9562 8.15498 16.9436 8.18898C16.9341 8.21487 16.9241 8.24076 16.9141 8.26665C16.9017 8.29934 16.8894 8.33203 16.8765 8.36472C16.8654 8.39245 16.8541 8.42017 16.8428 8.44789C16.8304 8.47823 16.8183 8.50883 16.8054 8.53916C16.7925 8.56976 16.7791 8.6001 16.766 8.63044C16.7541 8.6579 16.7423 8.68536 16.7302 8.71256C16.7149 8.74682 16.6989 8.78108 16.6831 8.81534C16.6723 8.83861 16.662 8.86189 16.651 8.88491C16.6312 8.92649 16.6107 8.96781 16.5904 9.00939C16.5828 9.02509 16.5754 9.04078 16.5675 9.05621C16.5389 9.11348 16.5097 9.17023 16.4794 9.22699C16.4791 9.22751 16.4789 9.22803 16.4786 9.22856C16.4544 9.27406 16.4299 9.31904 16.4049 9.36403C16.3989 9.37501 16.3928 9.38573 16.3868 9.39672C16.3618 9.44118 16.3365 9.48564 16.311 9.52957C16.3076 9.53533 16.3044 9.54082 16.301 9.54631C16.2773 9.58633 16.2536 9.62608 16.2294 9.66557C16.2233 9.67525 16.2176 9.68492 16.2115 9.6946C16.1849 9.73775 16.1581 9.78038 16.1307 9.82275C16.1257 9.83033 16.1207 9.83792 16.116 9.8455C16.0912 9.88342 16.0665 9.92108 16.0412 9.95874C16.0362 9.96633 16.0312 9.97391 16.026 9.9815C15.9976 10.0233 15.9691 10.0647 15.9402 10.1057C15.9344 10.1141 15.9284 10.1225 15.9223 10.1308C15.8952 10.169 15.8678 10.2069 15.8399 10.2443C15.8368 10.2485 15.8336 10.253 15.8305 10.2571C15.8002 10.2979 15.7697 10.3382 15.7386 10.3782C15.7323 10.3863 15.726 10.3945 15.7197 10.4026C15.6568 10.4831 15.5928 10.5624 15.5273 10.6398C15.521 10.6473 15.5147 10.6549 15.5081 10.6623C15.4752 10.7007 15.4423 10.7391 15.4089 10.7768C15.4071 10.7789 15.405 10.781 15.4031 10.7831C15.371 10.8192 15.3386 10.855 15.306 10.8903C15.3002 10.8966 15.2944 10.9029 15.2884 10.9094C15.2542 10.946 15.22 10.9824 15.1852 11.0182C15.181 11.0224 15.1771 11.0266 15.1729 11.0308C15.1402 11.0642 15.1076 11.0974 15.0744 11.1301C15.0697 11.1348 15.0652 11.1393 15.0605 11.144C15.025 11.179 14.9892 11.2136 14.9531 11.2476C14.9476 11.2528 14.9423 11.2578 14.9368 11.263C14.9021 11.2957 14.8671 11.3278 14.8318 11.3598C14.8294 11.3618 14.8273 11.3639 14.825 11.366C14.7879 11.3992 14.7505 11.4322 14.7131 11.4646C14.7068 11.4699 14.7008 11.4754 14.6944 11.4806C14.6192 11.5452 14.5426 11.6079 14.4655 11.6686C14.4589 11.6736 14.4526 11.6788 14.446 11.6838C14.4071 11.7141 14.3681 11.7439 14.3287 11.7732C14.3279 11.7738 14.3268 11.7745 14.326 11.7751C14.2876 11.8036 14.2489 11.8316 14.2102 11.8593C14.2039 11.8637 14.1979 11.8682 14.1916 11.8726C14.1521 11.9003 14.1126 11.9278 14.0729 11.9547C14.0687 11.9576 14.0642 11.9605 14.06 11.9634C14.0229 11.9882 13.9855 12.0128 13.9482 12.0369C13.9426 12.0405 13.9371 12.0439 13.9316 12.0476C13.8916 12.0729 13.8516 12.0981 13.811 12.1224C13.8045 12.1263 13.7982 12.1302 13.7916 12.1341C13.7537 12.1569 13.7158 12.1794 13.6774 12.2014C13.6737 12.2034 13.6697 12.2058 13.6661 12.2079C13.6255 12.2312 13.5847 12.2537 13.5437 12.2759C13.5358 12.2801 13.5279 12.2845 13.5197 12.2887C13.479 12.3107 13.4379 12.3321 13.3966 12.353C13.3963 12.3533 13.3961 12.3533 13.3955 12.3536C13.3542 12.3745 13.3126 12.3946 13.2711 12.4145C13.2621 12.4187 13.2532 12.4229 13.2442 12.4273C13.2032 12.4467 13.1619 12.4658 13.1203 12.4841C13.1169 12.4856 13.1132 12.4872 13.1098 12.4888C13.0713 12.5058 13.0327 12.5223 12.9942 12.5382C12.9848 12.5421 12.9753 12.5461 12.9658 12.55C12.925 12.5667 12.8842 12.5829 12.8432 12.5986C12.8353 12.6015 12.8277 12.6044 12.8198 12.6072C12.7842 12.6206 12.7484 12.6337 12.7127 12.6465C12.7066 12.6486 12.7006 12.6509 12.6942 12.653C12.7027 12.6433 12.7111 12.6331 12.7195 12.6232C12.7434 12.5955 12.7669 12.5675 12.7906 12.5395C12.8106 12.5157 12.8306 12.4917 12.8503 12.4676C12.874 12.4386 12.8971 12.4093 12.9203 12.38C12.9395 12.3559 12.9584 12.3319 12.9774 12.3073C13.0005 12.2769 13.0234 12.2463 13.0463 12.2157C13.0645 12.1914 13.0829 12.1671 13.1008 12.1422C13.1237 12.1106 13.1463 12.0784 13.169 12.0463C13.1861 12.0217 13.2034 11.9976 13.2205 11.9728C13.2434 11.9396 13.2655 11.9058 13.2879 11.8721C13.304 11.8478 13.3203 11.8237 13.3361 11.7994C13.359 11.7638 13.3813 11.7277 13.404 11.6916C13.4184 11.6684 13.4332 11.6453 13.4474 11.6218C13.4718 11.5815 13.4958 11.5405 13.5197 11.4997C13.5313 11.4798 13.5432 11.4604 13.5545 11.4406C13.5895 11.3794 13.6237 11.3176 13.6571 11.2554C14.185 10.2718 14.5276 9.13231 14.6479 7.9604C14.681 7.63663 14.6981 7.30475 14.6981 6.97339C14.6981 6.93102 14.6979 6.88892 14.6973 6.84681C14.6973 6.84001 14.6973 6.83347 14.6971 6.82667C14.6968 6.79555 14.696 6.76417 14.6952 6.73305C14.695 6.71448 14.6942 6.69565 14.6937 6.67708C14.6931 6.65772 14.6926 6.63785 14.6918 6.6185C14.6918 6.61693 14.6918 6.6151 14.6916 6.61353C14.6913 6.59522 14.6905 6.57717 14.6894 6.55887C14.6879 6.52435 14.6863 6.49009 14.6844 6.45556C14.6844 6.4553 14.6844 6.45504 14.6844 6.45452C14.6844 6.45399 14.6844 6.45347 14.6844 6.45295C14.6834 6.43412 14.6823 6.41555 14.6813 6.39672C14.6808 6.38783 14.6802 6.37894 14.6797 6.36978C14.6797 6.36874 14.6797 6.36769 14.6794 6.36664C14.6794 6.3635 14.6792 6.36011 14.6789 6.35697L14.6784 6.35069C14.6766 6.32428 14.675 6.29812 14.6729 6.27171C14.6671 6.18959 14.6597 6.10642 14.6516 6.02378C14.6505 6.01332 14.6497 6.00312 14.6487 5.99266C14.6484 5.989 14.6479 5.98533 14.6476 5.98167C14.645 5.95421 14.6418 5.92649 14.6389 5.89981C14.6342 5.85849 14.6294 5.81691 14.6242 5.77454C14.6202 5.74316 14.616 5.71151 14.6118 5.68013C14.6116 5.67673 14.611 5.67359 14.6105 5.67019C14.6058 5.6341 14.6005 5.59827 14.5952 5.56296C14.59 5.52792 14.5847 5.49288 14.5789 5.45809C14.5679 5.38957 14.5558 5.31974 14.5431 5.24939C14.5245 5.14713 14.5034 5.04305 14.481 4.93974C14.4734 4.90548 14.466 4.87148 14.4581 4.83775C14.4581 4.83748 14.4581 4.83748 14.4581 4.83722C14.4576 4.83435 14.4568 4.83147 14.4563 4.82859L14.45 4.80218C14.4447 4.77942 14.4392 4.75667 14.4339 4.73575C14.4258 4.70253 14.4173 4.66932 14.4092 4.63715C14.4016 4.60655 14.3937 4.57648 14.3852 4.54509C14.3634 4.46324 14.3408 4.38295 14.3179 4.3058C14.3102 4.2799 14.3026 4.25454 14.295 4.22969C14.2658 4.13319 14.235 4.03799 14.2034 3.94672C14.2031 3.94593 14.2029 3.94489 14.2024 3.9441C14.2008 3.93913 14.1989 3.93416 14.1974 3.92946C15.0542 3.27014 16.0023 2.86346 16.9678 2.74002ZM11.3885 1.11619C12.2393 1.80767 12.9182 2.77664 13.3616 3.93599L13.3642 3.94279C13.3745 3.96947 13.3845 3.99641 13.3947 4.02413C13.4063 4.05551 13.4179 4.08716 13.429 4.1188C13.4334 4.13136 13.4376 4.14417 13.4421 4.15699C13.4466 4.1698 13.4511 4.18209 13.4553 4.19517C13.4555 4.19621 13.4558 4.197 13.4563 4.19805C13.4847 4.28069 13.5126 4.36699 13.5397 4.45591C13.5682 4.54823 13.5961 4.64578 13.6224 4.74464C13.6295 4.77132 13.6366 4.79799 13.6437 4.82624C13.6516 4.85736 13.6595 4.88822 13.6674 4.92117C13.6721 4.94053 13.6768 4.96014 13.6813 4.97976L13.6858 4.99885C13.6874 5.00591 13.6887 5.01219 13.69 5.01742C13.6921 5.02631 13.6939 5.03546 13.6961 5.04435C13.7005 5.06475 13.7053 5.08489 13.7097 5.10503C13.7303 5.19944 13.7495 5.29516 13.7666 5.38826C13.7782 5.4526 13.7895 5.51746 13.7995 5.58101C13.8047 5.61318 13.8095 5.64587 13.8145 5.67882C13.8187 5.70707 13.8229 5.73505 13.8266 5.76356C13.8268 5.76696 13.8274 5.77036 13.8279 5.77376L13.8289 5.78239C13.8329 5.81194 13.8368 5.84149 13.8405 5.86948C13.8453 5.90766 13.8497 5.94663 13.8542 5.98664C13.8571 6.01306 13.8603 6.03947 13.8626 6.06589C13.8626 6.06745 13.8629 6.06876 13.8632 6.07033C13.8721 6.15559 13.8795 6.24163 13.8855 6.32637C13.8855 6.32741 13.8855 6.3282 13.8858 6.32925C13.8876 6.35331 13.8892 6.3771 13.8908 6.40117V6.40273C13.8908 6.403 13.8908 6.40326 13.8908 6.40352C13.8908 6.40666 13.891 6.41006 13.8913 6.4132C13.8932 6.44013 13.8945 6.46681 13.8958 6.4927C13.8976 6.52644 13.8992 6.55991 13.9008 6.59365C13.9008 6.59574 13.901 6.59784 13.901 6.59993C13.9016 6.61065 13.9021 6.62137 13.9024 6.63183C13.9024 6.63471 13.9026 6.63785 13.9026 6.64073C13.9034 6.65982 13.9039 6.67917 13.9045 6.69826C13.9045 6.69931 13.9045 6.70035 13.9045 6.70166C13.905 6.71683 13.9055 6.73226 13.9058 6.74743C13.9058 6.74874 13.9058 6.75031 13.9058 6.75161C13.9066 6.78091 13.9071 6.81046 13.9074 6.83975C13.9074 6.84341 13.9074 6.84733 13.9076 6.85099C13.9076 6.85204 13.9076 6.85309 13.9076 6.85439C13.9082 6.89336 13.9084 6.93259 13.9084 6.97208C13.9084 7.27676 13.8929 7.58197 13.8624 7.87933C13.8558 7.94445 13.8482 8.00931 13.84 8.0739C13.8374 8.09561 13.8339 8.11706 13.831 8.1385C13.8253 8.18139 13.8197 8.22428 13.8132 8.26717C13.8092 8.2928 13.805 8.31843 13.8008 8.34406C13.7947 8.38251 13.7887 8.42069 13.7821 8.45887C13.7774 8.48607 13.7721 8.51327 13.7671 8.54047C13.7605 8.57683 13.7539 8.61292 13.7468 8.64901C13.7413 8.67699 13.7355 8.70471 13.7297 8.7327C13.7224 8.76774 13.7153 8.80279 13.7076 8.83783C13.7013 8.86608 13.6947 8.89406 13.6884 8.9223C13.6805 8.95656 13.6726 8.99082 13.6642 9.02482C13.6574 9.05307 13.65 9.08131 13.6429 9.10956C13.6342 9.14303 13.6258 9.17651 13.6166 9.20999C13.6089 9.23823 13.6011 9.26621 13.5932 9.29446C13.584 9.32741 13.5745 9.36063 13.5647 9.39332C13.5566 9.4213 13.5482 9.44929 13.5395 9.47701C13.5295 9.5097 13.5195 9.54213 13.509 9.57456C13.5 9.60228 13.4911 9.62974 13.4821 9.65746C13.4713 9.68963 13.4605 9.7218 13.4495 9.7537C13.44 9.7809 13.4305 9.8081 13.4208 9.8353C13.4095 9.86721 13.3976 9.89911 13.3858 9.93076C13.3758 9.95744 13.3658 9.98437 13.3555 10.0108C13.3434 10.0424 13.3308 10.0741 13.3184 10.1055C13.3079 10.1316 13.2976 10.158 13.2869 10.1839C13.274 10.2156 13.2605 10.2467 13.2471 10.2781C13.2363 10.3034 13.2255 10.3291 13.2142 10.3544C13.2003 10.3861 13.1858 10.4175 13.1716 10.4491C13.1605 10.4734 13.1495 10.498 13.1382 10.5223C13.1232 10.5545 13.1074 10.5864 13.0919 10.6186C13.0808 10.6416 13.0698 10.6646 13.0584 10.6876C13.0416 10.7214 13.0245 10.7546 13.0071 10.7878C12.9963 10.8085 12.9861 10.8294 12.975 10.85C12.9548 10.8882 12.934 10.9259 12.9132 10.9635C12.9048 10.9787 12.8966 10.9941 12.8882 11.0093C12.8587 11.0619 12.8287 11.1139 12.7979 11.1654C12.7919 11.1756 12.7856 11.1853 12.7795 11.1953C12.7548 11.2366 12.7298 11.2776 12.704 11.3182C12.6924 11.3365 12.6806 11.3543 12.669 11.3723C12.6485 11.4042 12.6279 11.4364 12.6069 11.468C12.5935 11.4882 12.5795 11.508 12.5661 11.5279C12.5463 11.5567 12.5266 11.5857 12.5066 11.6142C12.4919 11.6349 12.4769 11.6553 12.4621 11.6759C12.4427 11.7031 12.4229 11.7303 12.4029 11.757C12.3874 11.7779 12.3716 11.7983 12.3558 11.8187C12.3361 11.8446 12.3161 11.8705 12.2961 11.8962C12.2798 11.9168 12.2635 11.9369 12.2469 11.9573C12.2269 11.9822 12.2066 12.007 12.1864 12.0316C12.1695 12.052 12.1524 12.0719 12.1353 12.092C12.1148 12.1161 12.0943 12.1399 12.0735 12.1634C12.0558 12.1833 12.0382 12.2029 12.0206 12.2225C11.9998 12.2456 11.9787 12.2686 11.9574 12.2913C11.9393 12.3107 11.9214 12.3298 11.9029 12.3489C11.8816 12.3711 11.8601 12.3933 11.8385 12.4153C11.8201 12.4341 11.8014 12.4527 11.7827 12.471C11.7608 12.4927 11.7387 12.5139 11.7166 12.5351C11.6977 12.5531 11.6787 12.5712 11.6598 12.5889C11.6374 12.6099 11.6145 12.6303 11.5919 12.6509C11.5727 12.6682 11.5535 12.6857 11.534 12.7027C11.5109 12.7228 11.4877 12.7427 11.4643 12.7626C11.4448 12.7791 11.4251 12.7958 11.4053 12.812C11.3988 12.8173 11.3922 12.8225 11.3859 12.8277C11.3793 12.8225 11.3727 12.8173 11.3664 12.812C11.3466 12.7958 11.3272 12.7791 11.3074 12.7626C11.284 12.7427 11.2609 12.7231 11.2377 12.7027C11.2182 12.6857 11.199 12.6684 11.1798 12.6509C11.1572 12.6305 11.1343 12.6099 11.1119 12.5889C11.0927 12.5712 11.0738 12.5531 11.0551 12.5351C11.033 12.5139 11.0109 12.4924 10.989 12.471C10.9703 12.4524 10.9517 12.4339 10.9332 12.4153C10.9117 12.3933 10.8901 12.3711 10.8688 12.3489C10.8506 12.3298 10.8325 12.3107 10.8143 12.2913C10.7932 12.2686 10.7722 12.2456 10.7511 12.2225C10.7335 12.2029 10.7159 12.1833 10.6982 12.1634C10.6775 12.1399 10.6569 12.1161 10.6364 12.092C10.6193 12.0719 10.6022 12.052 10.5854 12.0316C10.5648 12.007 10.5448 11.9822 10.5246 11.9573C10.5083 11.9369 10.4917 11.9168 10.4754 11.8962C10.4551 11.8705 10.4354 11.8446 10.4156 11.8187C10.3998 11.7983 10.3843 11.7777 10.3688 11.757C10.3488 11.7301 10.3293 11.7029 10.3096 11.6757C10.2948 11.6553 10.2798 11.6349 10.2651 11.6142C10.2451 11.5857 10.2254 11.5567 10.2056 11.5277C10.1919 11.5078 10.1783 11.4879 10.1648 11.4678C10.1438 11.4361 10.1233 11.4042 10.1027 11.372C10.0912 11.354 10.0793 11.3362 10.0677 11.3182C10.0419 11.2774 10.0167 11.2358 9.99169 11.1942C9.9859 11.1845 9.97984 11.1751 9.97405 11.1654C9.94327 11.1139 9.91327 11.0619 9.88379 11.0093C9.87537 10.9941 9.86722 10.9787 9.85879 10.9635C9.83801 10.9259 9.81722 10.8882 9.79695 10.85C9.7859 10.8294 9.77564 10.8085 9.76485 10.7878C9.74774 10.7546 9.73038 10.7214 9.7138 10.6879C9.70248 10.6649 9.69143 10.6419 9.68011 10.6188C9.66459 10.5869 9.64906 10.555 9.63406 10.5229C9.62275 10.4985 9.6117 10.4742 9.60064 10.4499C9.58617 10.4185 9.57196 10.3869 9.55801 10.3552C9.54696 10.3301 9.53617 10.3047 9.52538 10.2794C9.51196 10.248 9.49854 10.2163 9.48538 10.1847C9.4746 10.1588 9.46433 10.1327 9.45381 10.1065C9.44118 10.0749 9.42854 10.0432 9.41644 10.0116C9.40618 9.9849 9.39618 9.95822 9.38644 9.93155C9.3746 9.8999 9.36302 9.86799 9.35144 9.83609C9.3417 9.80889 9.33223 9.78169 9.32276 9.75449C9.3117 9.72232 9.30065 9.69041 9.29013 9.65799C9.28092 9.63052 9.27197 9.6028 9.26328 9.57534C9.25302 9.54291 9.24276 9.51022 9.23276 9.47779C9.22434 9.45007 9.21592 9.42209 9.20776 9.3941C9.19802 9.36115 9.18881 9.3282 9.17934 9.29525C9.17145 9.26726 9.16355 9.23902 9.15618 9.21103C9.14724 9.17756 9.13855 9.14408 9.12987 9.11061C9.12276 9.08236 9.11539 9.05438 9.10855 9.02587C9.10013 8.99187 9.09224 8.95761 9.08434 8.92335C9.07776 8.8951 9.07119 8.86712 9.06513 8.83888C9.0575 8.80409 9.05013 8.76905 9.04303 8.734C9.03724 8.70602 9.03145 8.6783 9.02592 8.65031C9.01882 8.61422 9.01224 8.57787 9.00566 8.54178C9.00066 8.51458 8.9954 8.48738 8.99066 8.46018C8.98408 8.422 8.97803 8.38382 8.97198 8.34537C8.96803 8.31974 8.96356 8.29411 8.95961 8.26848C8.95329 8.22585 8.9475 8.18296 8.94172 8.14007C8.93882 8.11836 8.93566 8.09692 8.93277 8.07547C8.92461 8.01088 8.91724 7.94602 8.9104 7.8809C8.87988 7.58354 8.86435 7.27833 8.86435 6.97365C8.86435 6.44301 8.91145 5.91472 9.00461 5.40265C9.01224 5.36002 9.0204 5.31765 9.02882 5.27554C9.02934 5.27319 9.02987 5.27084 9.03013 5.26848C9.03119 5.26404 9.03224 5.25933 9.03303 5.25462C9.04119 5.21252 9.04987 5.17041 9.05882 5.12987C9.05961 5.127 9.06013 5.12386 9.06066 5.12098C9.06092 5.11915 9.06145 5.11758 9.06171 5.11575C9.06224 5.11287 9.06303 5.11 9.06355 5.10712C9.07092 5.07312 9.07855 5.03938 9.08671 5.00434L9.09434 4.97112C9.1025 4.9366 9.11066 4.90208 9.11961 4.86782C9.12013 4.86573 9.12092 4.86285 9.12145 4.86024C9.12197 4.85788 9.12276 4.85553 9.12329 4.85318C9.13329 4.81238 9.14408 4.77158 9.15487 4.73078C9.15592 4.72686 9.15697 4.72293 9.15802 4.71927C9.16934 4.67717 9.18118 4.63506 9.19329 4.59295C9.19355 4.59243 9.19355 4.59165 9.19381 4.59112C9.20644 4.54771 9.21908 4.50403 9.23223 4.46088C9.24565 4.41773 9.25908 4.37458 9.27355 4.33012C9.28302 4.30083 9.29249 4.2718 9.30223 4.24277C9.30276 4.24146 9.30328 4.23989 9.30355 4.23858C9.31539 4.20249 9.32776 4.16666 9.3396 4.13292C9.35118 4.1005 9.36276 4.06833 9.3746 4.03642C9.37486 4.03564 9.37512 4.03485 9.37539 4.03407C9.37828 4.02622 9.38144 4.01811 9.38433 4.01027C9.39302 3.98647 9.4017 3.96293 9.41091 3.93913V3.93887C9.8588 2.77664 10.5377 1.80767 11.3885 1.11619ZM5.80891 2.74028C6.00127 2.76487 6.19364 2.80122 6.38389 2.84856C6.41889 2.85719 6.45389 2.86634 6.48968 2.87602C7.21571 3.07138 7.93306 3.43307 8.57909 3.92815C8.57225 3.94802 8.56567 3.9679 8.55883 3.98804C8.55883 3.9883 8.55857 3.98882 8.55857 3.98908C8.54725 4.02204 8.53646 4.05499 8.5262 4.08663V4.0869C8.5091 4.13815 8.49357 4.18837 8.4812 4.22891C8.4812 4.22943 8.48094 4.22969 8.48094 4.23021C8.48094 4.23047 8.48068 4.23074 8.48068 4.231C8.48068 4.23126 8.48041 4.23152 8.48041 4.23178C8.4662 4.27755 8.45226 4.32463 8.43962 4.36987C8.43936 4.37118 8.43884 4.37222 8.43857 4.37353C8.4312 4.39916 8.42384 4.42505 8.41673 4.45094C8.41094 4.47134 8.40542 4.49148 8.39989 4.5124C8.3991 4.51554 8.39805 4.51868 8.39726 4.52156C8.38515 4.56706 8.37331 4.61231 8.362 4.65781C8.36015 4.66435 8.35857 4.67089 8.357 4.67743C8.352 4.69652 8.34752 4.71587 8.34305 4.73523C8.33857 4.75327 8.3341 4.77106 8.32989 4.7891V4.78962C8.32989 4.79015 8.32963 4.79067 8.32936 4.79119L8.32173 4.82362C8.312 4.86416 8.30279 4.90522 8.2941 4.94602C8.29384 4.94759 8.29331 4.94942 8.29279 4.95125C8.29252 4.95256 8.29226 4.9536 8.292 4.95491C8.29147 4.95674 8.29121 4.95883 8.29068 4.96093C8.29016 4.96302 8.28989 4.96459 8.28937 4.96694C8.28016 5.00931 8.27121 5.05272 8.26252 5.09614C8.26095 5.10241 8.25989 5.10895 8.25858 5.11549C8.25805 5.11863 8.25726 5.12203 8.25673 5.12517C8.24752 5.17067 8.23884 5.21644 8.23068 5.26168C8.12937 5.81874 8.07806 6.3941 8.07806 6.97156C8.07806 7.30266 8.0949 7.6348 8.12832 7.95831C8.24858 9.13022 8.59094 10.2697 9.11908 11.2533C9.1525 11.3156 9.18671 11.3773 9.22171 11.4385C9.23329 11.4586 9.24539 11.4785 9.25697 11.4984C9.28065 11.5389 9.30434 11.5797 9.32881 11.6197C9.34328 11.6435 9.35828 11.6668 9.37302 11.6906C9.39539 11.7264 9.41749 11.762 9.44012 11.7973C9.45617 11.8221 9.47275 11.8467 9.48907 11.8713C9.51117 11.9045 9.53301 11.938 9.55565 11.9707C9.57301 11.9958 9.59064 12.0206 9.60801 12.0455C9.63012 12.0771 9.65248 12.1088 9.67512 12.1399C9.69327 12.165 9.71196 12.1898 9.73038 12.2144C9.75301 12.2448 9.77538 12.2748 9.79853 12.3047C9.81774 12.3295 9.83695 12.3538 9.85643 12.3784C9.87932 12.4074 9.90248 12.4365 9.92563 12.4652C9.94563 12.4896 9.96563 12.5136 9.9859 12.5377C10.0093 12.5657 10.0327 12.5934 10.0564 12.6208C10.0648 12.6308 10.0733 12.641 10.0817 12.6507C10.0759 12.6486 10.0698 12.6465 10.0641 12.6444C10.0277 12.6316 9.99168 12.6185 9.95563 12.6049C9.948 12.602 9.94037 12.5994 9.933 12.5963C9.89195 12.5806 9.85116 12.5644 9.81038 12.5476C9.8009 12.5437 9.79117 12.5398 9.78169 12.5358C9.74327 12.5199 9.70511 12.5037 9.66696 12.4869C9.66301 12.4851 9.65906 12.4835 9.65538 12.482C9.61407 12.4637 9.57328 12.4448 9.53222 12.4255C9.52301 12.421 9.51354 12.4166 9.50433 12.4121C9.46302 12.3925 9.42196 12.3724 9.38091 12.3517C9.37986 12.3512 9.37854 12.3507 9.37749 12.3499C9.33723 12.3295 9.29749 12.3086 9.2575 12.2871C9.24881 12.2824 9.24013 12.278 9.23171 12.2733C9.19145 12.2513 9.15118 12.2291 9.11118 12.2063C9.10645 12.2037 9.10171 12.2008 9.09697 12.1982C9.06013 12.177 9.02329 12.1553 8.98645 12.1334C8.97908 12.1289 8.97171 12.1245 8.96435 12.12C8.92461 12.096 8.88514 12.0714 8.84593 12.0465C8.83935 12.0423 8.83303 12.0382 8.82646 12.034C8.7904 12.011 8.75462 11.9874 8.71883 11.9634C8.7133 11.9597 8.70777 11.956 8.70251 11.9524C8.66357 11.926 8.62462 11.8993 8.58594 11.8718C8.57857 11.8666 8.57146 11.8614 8.5641 11.8564C8.52699 11.83 8.49015 11.8033 8.45331 11.7758C8.45094 11.774 8.44884 11.7724 8.44647 11.7709C8.40805 11.7421 8.36963 11.7128 8.33173 11.6833C8.32436 11.6775 8.31673 11.6715 8.30937 11.6657C8.23305 11.6059 8.15779 11.5439 8.08332 11.4803C8.07621 11.4743 8.06911 11.468 8.062 11.462C8.02516 11.4304 7.98859 11.3982 7.95227 11.3655C7.94885 11.3624 7.94543 11.3592 7.94201 11.3564C7.90832 11.3258 7.87464 11.2949 7.84122 11.2635C7.83491 11.2575 7.82833 11.2515 7.82201 11.2455C7.78675 11.212 7.75149 11.1783 7.71649 11.1437C7.71096 11.1382 7.70543 11.1327 7.69991 11.1273C7.66807 11.0956 7.63649 11.0637 7.60518 11.0315C7.60017 11.0263 7.59518 11.0213 7.59018 11.0161C7.55597 10.9808 7.52228 10.945 7.4886 10.9089C7.48202 10.9018 7.4757 10.8948 7.46913 10.888C7.43755 10.8537 7.40597 10.8189 7.37492 10.7839C7.37229 10.7807 7.36939 10.7779 7.36676 10.775C7.33387 10.7378 7.30124 10.6999 7.26861 10.662C7.26176 10.6539 7.25492 10.646 7.24808 10.6379C7.18308 10.561 7.1194 10.4826 7.05703 10.4026C7.05045 10.3939 7.04361 10.3853 7.03703 10.3767C7.00651 10.3369 6.97598 10.2972 6.94598 10.2566C6.94256 10.2519 6.93914 10.2472 6.93572 10.2428C6.90835 10.2056 6.88125 10.168 6.85414 10.1303C6.84809 10.1217 6.84204 10.1133 6.83599 10.1047C6.80704 10.0639 6.77862 10.0226 6.7502 9.98097C6.74494 9.97339 6.73994 9.96554 6.73494 9.95796C6.70967 9.92056 6.68494 9.8829 6.66046 9.84498C6.65546 9.83739 6.65047 9.82981 6.64547 9.82196C6.6181 9.7796 6.59126 9.73671 6.56468 9.69381C6.55889 9.6844 6.5531 9.67472 6.54731 9.66531C6.52284 9.62556 6.49889 9.58554 6.47521 9.545C6.47205 9.53977 6.46889 9.53454 6.46573 9.52905C6.43994 9.48485 6.41442 9.44039 6.38942 9.39541C6.38363 9.38495 6.37758 9.37449 6.37179 9.36377C6.34653 9.31826 6.32153 9.27223 6.29705 9.22594C6.17995 9.00469 6.07259 8.77846 5.97759 8.55276C5.95864 8.50778 5.93996 8.46254 5.9218 8.41729C5.64865 7.7381 5.46682 7.03014 5.38077 6.31015C5.22945 5.04618 5.37734 3.81804 5.80891 2.74028ZM5.78654 12.9566C5.55129 12.8431 5.31708 12.7137 5.09077 12.5714C3.19556 11.3815 1.91323 9.3452 1.69824 7.20981C2.59111 6.78352 3.59792 6.61274 4.63973 6.71082C4.64 6.71212 4.64026 6.71343 4.64026 6.71474C4.64184 6.7252 4.64368 6.7354 4.64526 6.7456C4.65158 6.78457 4.65789 6.82353 4.66447 6.8625C4.66763 6.88002 4.67079 6.89781 4.67394 6.91533C4.67947 6.94698 4.68526 6.97836 4.69131 7.01C4.695 7.02962 4.69894 7.0495 4.70289 7.06911C4.70868 7.09866 4.71447 7.12822 4.72078 7.15751C4.72499 7.17791 4.7292 7.19804 4.73368 7.21844C4.73999 7.24747 4.74631 7.2765 4.75289 7.30553C4.75736 7.32567 4.76183 7.34581 4.76657 7.36595C4.77341 7.39576 4.78052 7.42557 4.78789 7.45513C4.79262 7.47422 4.7971 7.49331 4.80183 7.51214C4.80999 7.54483 4.81841 7.57778 4.8271 7.61048C4.83131 7.62617 4.83525 7.64186 4.83946 7.65755C4.85236 7.70541 4.86552 7.75353 4.87894 7.80113C4.88131 7.8095 4.88394 7.81787 4.88631 7.82624C4.89762 7.86599 4.9092 7.90548 4.9213 7.94497C4.92657 7.96249 4.93209 7.97975 4.93762 7.99728C4.94709 8.02788 4.95657 8.05821 4.9663 8.08881C4.97262 8.10816 4.97893 8.12752 4.98525 8.14661C4.99472 8.17512 5.0042 8.20362 5.01367 8.23213C5.02051 8.25201 5.02735 8.27188 5.0342 8.29176C5.04393 8.31974 5.05367 8.34772 5.06393 8.37571C5.07104 8.39532 5.07788 8.41494 5.08525 8.43455C5.09577 8.46332 5.10656 8.49209 5.11735 8.5206C5.12419 8.53916 5.1313 8.55747 5.13814 8.57604C5.15025 8.60742 5.16261 8.63881 5.17498 8.67019C5.18103 8.68562 5.18709 8.70105 5.1934 8.71648C5.21209 8.76303 5.2313 8.80958 5.25103 8.85614C5.35471 9.1025 5.47208 9.34991 5.59997 9.59156C6.22969 10.7805 7.1023 11.7902 8.12332 12.5113C8.15753 12.5356 8.19226 12.5594 8.22674 12.5829C8.23779 12.5902 8.24858 12.5976 8.25963 12.6052C8.28358 12.6211 8.30726 12.6371 8.33121 12.6528C8.3441 12.6611 8.357 12.6695 8.37015 12.6779C8.39252 12.6922 8.41489 12.7066 8.43752 12.721C8.45094 12.7294 8.46436 12.7378 8.47752 12.7461C8.50041 12.7602 8.52331 12.7744 8.5462 12.7882C8.55883 12.7958 8.57146 12.8037 8.58436 12.8112C8.61015 12.8267 8.6362 12.8418 8.66199 12.857C8.67172 12.8628 8.68146 12.8685 8.6912 12.874C8.72698 12.8947 8.76304 12.9148 8.79909 12.9347C8.80409 12.9376 8.80935 12.9402 8.81435 12.9428C8.84514 12.9598 8.87619 12.9763 8.90724 12.9927C8.91908 12.999 8.93119 13.0053 8.94329 13.0116C8.9675 13.0241 8.99198 13.0369 9.01645 13.0492C9.03013 13.056 9.04356 13.0628 9.05724 13.0696C9.0804 13.0811 9.10382 13.0926 9.12697 13.1039C9.14092 13.1107 9.1546 13.1172 9.16855 13.1238C9.1925 13.1353 9.21644 13.1463 9.24065 13.1572C9.25355 13.1633 9.26644 13.1693 9.27934 13.175C9.30776 13.1878 9.33618 13.2004 9.3646 13.2129C9.37302 13.2166 9.38144 13.2205 9.38986 13.2239C9.4267 13.2399 9.46381 13.2553 9.50091 13.2705C9.50986 13.2741 9.51907 13.2778 9.52801 13.2815C9.55617 13.2927 9.58407 13.304 9.61222 13.3149C9.62564 13.3202 9.63906 13.3251 9.65248 13.3304C9.67643 13.3395 9.70064 13.3487 9.72459 13.3573C9.73906 13.3625 9.75353 13.3678 9.76801 13.373C9.79143 13.3814 9.81511 13.3897 9.83853 13.3978C9.85301 13.4028 9.86722 13.4078 9.88169 13.4128C9.90642 13.4211 9.93116 13.4292 9.9559 13.4373C9.96563 13.4405 9.97511 13.4439 9.98484 13.447C8.64725 13.781 7.15229 13.617 5.78654 12.9566ZM17.6862 12.5714C16.1455 13.5386 14.3652 13.8406 12.7924 13.4473C12.7995 13.4449 12.8066 13.4426 12.8137 13.4402C12.8421 13.4311 12.8703 13.4219 12.8987 13.4122C12.9108 13.408 12.9229 13.4039 12.935 13.3999C12.9611 13.391 12.9871 13.3819 13.0132 13.3725C13.0255 13.368 13.0382 13.3636 13.0505 13.3589C13.0769 13.3492 13.1034 13.3393 13.1298 13.3293C13.1411 13.3249 13.1526 13.3207 13.164 13.3163C13.195 13.3042 13.2261 13.2919 13.2569 13.2794C13.2632 13.2768 13.2695 13.2744 13.2758 13.2718C13.3137 13.2564 13.3516 13.2404 13.3892 13.2242C13.395 13.2216 13.4008 13.2192 13.4066 13.2166C13.4376 13.203 13.469 13.1894 13.5 13.1753C13.5116 13.1701 13.5232 13.1646 13.5347 13.1593C13.56 13.1476 13.5855 13.1358 13.6108 13.124C13.6237 13.1178 13.6366 13.1117 13.6497 13.1055C13.6739 13.0937 13.6982 13.0819 13.7224 13.0699C13.7353 13.0634 13.7482 13.0571 13.7611 13.0505C13.7863 13.0377 13.8116 13.0249 13.8366 13.0116C13.8479 13.0058 13.8592 12.9998 13.8703 12.994C13.9024 12.977 13.9345 12.9598 13.9663 12.9423C13.9703 12.9402 13.9745 12.9378 13.9784 12.9357C14.0147 12.9156 14.051 12.8952 14.0871 12.8745C14.096 12.8693 14.105 12.8641 14.1139 12.8588C14.1408 12.8434 14.1674 12.8277 14.1939 12.8118C14.2063 12.8044 14.2184 12.7969 14.2308 12.7895C14.2542 12.7754 14.2776 12.761 14.3008 12.7466C14.3137 12.7385 14.3268 12.7304 14.3397 12.7221C14.3626 12.7077 14.3855 12.693 14.4081 12.6781C14.4208 12.67 14.4334 12.6619 14.446 12.6535C14.4705 12.6376 14.495 12.6211 14.5192 12.6049C14.5297 12.5978 14.5402 12.591 14.5505 12.5837C14.5852 12.5602 14.6197 12.5361 14.6542 12.5118C15.6752 11.7908 16.5478 10.781 17.1775 9.59208C17.1846 9.57874 17.1912 9.5654 17.1981 9.55207C17.2217 9.50682 17.2454 9.46158 17.2683 9.41607C17.2802 9.39253 17.2915 9.369 17.3031 9.34546C17.3209 9.3091 17.3388 9.27302 17.3562 9.23666C17.3681 9.21208 17.3794 9.18723 17.3907 9.16239C17.4073 9.12682 17.4238 9.09125 17.4402 9.05542C17.4512 9.03084 17.462 9.00573 17.473 8.98115C17.4888 8.94506 17.5049 8.9087 17.5204 8.87261C17.5307 8.84829 17.5407 8.82371 17.5509 8.79939C17.5662 8.76225 17.5817 8.72511 17.5965 8.68797C17.6059 8.66418 17.6152 8.64011 17.6246 8.61631C17.6394 8.57813 17.6541 8.53995 17.6686 8.5015C17.6773 8.47823 17.6859 8.45495 17.6944 8.43141C17.7088 8.39218 17.7228 8.35269 17.7367 8.3132C17.7446 8.29071 17.7523 8.26796 17.7601 8.24547C17.7741 8.20493 17.7875 8.16413 17.8007 8.12333C17.8078 8.10163 17.8149 8.07966 17.8217 8.05795C17.8349 8.01611 17.8478 7.974 17.8607 7.93189C17.867 7.91097 17.8733 7.88979 17.8794 7.86887C17.892 7.82571 17.9044 7.7823 17.9162 7.73889C17.9217 7.71875 17.9275 7.69861 17.9328 7.67847C17.9449 7.63375 17.9565 7.58877 17.9678 7.54378C17.9725 7.52469 17.9775 7.5056 17.9822 7.48651C17.9936 7.43996 18.0046 7.39341 18.0151 7.34659C18.0191 7.32881 18.0236 7.31102 18.0275 7.29324C18.0383 7.24433 18.0486 7.19543 18.0588 7.14626C18.062 7.13031 18.0657 7.11462 18.0688 7.09866C18.0796 7.04479 18.0896 6.99065 18.0993 6.93625C18.1015 6.92501 18.1036 6.91402 18.1057 6.90278C18.117 6.83923 18.1275 6.77515 18.1375 6.71134C19.1793 6.61327 20.1861 6.78404 21.079 7.21034C20.864 9.34546 19.5817 11.3817 17.6862 12.5714Z" fill="#0C2C7E"/>
</svg>
