<svg width="16" height="17" viewBox="0 0 16 17" fill="none" xmlns="http://www.w3.org/2000/svg">
<path d="M1.80136 16.1559H7.88045C8.79439 16.1559 9.53838 15.3918 9.53838 14.4531V10.4801C9.53838 10.1665 9.29108 9.91252 8.98574 9.91252C8.68039 9.91252 8.43309 10.1665 8.43309 10.4801V14.4531C8.43309 14.766 8.1851 15.0207 7.88045 15.0207H1.80136C1.49671 15.0207 1.24872 14.766 1.24872 14.4531V1.96646C1.24872 1.65358 1.49671 1.39888 1.80136 1.39888H7.88045C8.1851 1.39888 8.43309 1.65358 8.43309 1.96646V5.93949C8.43309 6.25308 8.68039 6.50707 8.98574 6.50707C9.29108 6.50707 9.53838 6.25308 9.53838 5.93949V1.96646C9.53838 1.02783 8.79439 0.263733 7.88045 0.263733H1.80136C0.887424 0.263733 0.143433 1.02783 0.143433 1.96646V14.4531C0.143433 15.3918 0.887424 16.1559 1.80136 16.1559Z" fill="#0C2C7E"/>
<path d="M11.6004 3.56568C11.3918 3.33653 11.0436 3.32305 10.8191 3.53802C10.5967 3.75228 10.5842 4.11126 10.7922 4.33972L13.7923 7.64238H2.90659C2.60124 7.64238 2.35394 7.89636 2.35394 8.20996C2.35394 8.52355 2.60124 8.77753 2.90659 8.77753H13.7923L10.7914 12.0795C10.5835 12.3079 10.5959 12.6676 10.8184 12.8812C10.9262 12.984 11.0616 13.0344 11.1963 13.0344C11.3441 13.0344 11.4912 12.9741 11.6004 12.8542L15.4689 8.5973C15.6665 8.37949 15.6665 8.04107 15.4689 7.82327L11.6004 3.56568Z" fill="#0C2C7E"/>
</svg>
