<svg width="19" height="19" viewBox="0 0 19 19" fill="none" xmlns="http://www.w3.org/2000/svg">
<path fill-rule="evenodd" clip-rule="evenodd" d="M10.1771 3.42696V4.20635C10.0964 4.27647 10.0194 4.35066 9.94635 4.42863C9.87327 4.35066 9.79625 4.27647 9.7156 4.20635V3.42696C10.0829 3.38228 9.80986 3.38228 10.1771 3.42696ZM2.2968 8.91853L2.28869 6.38605C2.28638 5.65574 1.20968 5.41404 1.19299 5.86726L0.947243 12.5302C0.93609 12.8333 1.02993 13.0889 1.20187 13.3378C1.57141 13.8723 1.93188 14.2919 2.3008 14.7211C2.85209 15.3626 3.42184 16.0256 4.08059 17.1319L6.88915 15.5106C6.23126 14.1067 6.96607 12.6021 4.60069 11.2217C4.56172 11.1991 4.53029 11.1654 4.51035 11.125L3.56579 9.48886C3.26994 8.97637 2.48594 9.06421 2.32849 9.65181C2.30522 9.73738 2.29908 9.82671 2.31041 9.91467C2.32174 10.0026 2.35033 10.0875 2.39452 10.1644L3.64128 12.3238C3.67103 12.3766 3.67877 12.439 3.66283 12.4974C3.64688 12.5559 3.60854 12.6057 3.55611 12.636C3.50369 12.6664 3.4414 12.6749 3.38277 12.6596C3.32414 12.6444 3.27388 12.6066 3.2429 12.5546L1.99614 10.3951C1.85784 10.1546 1.81207 9.87185 1.86743 9.59999C1.92279 9.32813 2.07547 9.08582 2.2968 8.91853ZM12.224 15.6864L11.6302 16.7158C11.6198 16.7347 11.6171 16.7569 11.6228 16.7778C11.6285 16.7987 11.642 16.8165 11.6606 16.8275L15.3506 18.9581L15.3504 18.9585C15.3694 18.9687 15.3917 18.9712 15.4125 18.9655C15.4334 18.9597 15.4512 18.9462 15.4624 18.9277H15.4628L16.0565 17.8984C16.067 17.8794 16.0696 17.8572 16.064 17.8363C16.0583 17.8155 16.0447 17.7976 16.0261 17.7866L12.3362 15.6561L12.3364 15.6557C12.3173 15.6454 12.2951 15.6429 12.2742 15.6487C12.2534 15.6544 12.2355 15.6679 12.2244 15.6864L12.224 15.6862V15.6864ZM17.5959 8.91853L17.604 6.38605C17.6063 5.65574 18.683 5.41404 18.6997 5.86726L18.9455 12.5302C18.9566 12.8333 18.8628 13.0889 18.6908 13.3378C18.3213 13.8723 17.9608 14.2919 17.5919 14.7211C17.0406 15.3626 16.4709 16.0256 15.8121 17.1319L13.0037 15.5106C13.6617 14.1067 12.9268 12.6021 15.2922 11.2217C15.3312 11.1991 15.3626 11.1654 15.3825 11.125L16.3271 9.48905C16.3715 9.41226 16.4307 9.34499 16.5012 9.29112C16.5717 9.23725 16.6522 9.19783 16.7379 9.17512C17.3274 9.01718 17.793 9.65419 17.4984 10.1646L16.2516 12.324C16.2219 12.3768 16.2141 12.4392 16.2301 12.4976C16.246 12.5561 16.2844 12.6059 16.3368 12.6362C16.3892 12.6666 16.4515 12.6751 16.5101 12.6598C16.5688 12.6446 16.619 12.6068 16.65 12.5547L17.8968 10.3953C18.0351 10.1548 18.0808 9.87204 18.0255 9.60018C17.9701 9.32832 17.8174 9.08601 17.5961 8.91873L17.5959 8.91853ZM8.25563 16.7028C8.27844 16.7484 8.28298 16.7985 8.23206 16.8274L4.54208 18.9579L4.54231 18.9583C4.52326 18.9685 4.50101 18.971 4.48017 18.9653C4.45932 18.9596 4.44148 18.9461 4.43032 18.9275H4.42994L3.84311 17.9112C3.81692 17.8625 3.82003 17.813 3.86665 17.7867L7.55663 15.6561V15.6557C7.57567 15.6455 7.59792 15.643 7.61877 15.6487C7.63962 15.6544 7.65746 15.668 7.66861 15.6865L7.669 15.6862L8.25563 16.7028ZM9.94635 11.5894C14.5613 9.82167 16.1422 3.88465 12.2538 3.88465C11.1764 3.88465 10.3452 4.52105 9.94635 5.19129C9.54747 4.52105 8.71628 3.88465 7.63889 3.88465C3.7505 3.88465 5.33142 9.82167 9.94635 11.5894ZM9.62807 2.97309C9.33745 2.30696 8.8633 1.78759 8.2359 1.41743L8.23567 1.41782C7.61825 1.06002 6.90215 0.910175 6.19307 0.990398C6.48196 1.65222 6.95253 2.17282 7.58497 2.54605L7.5852 2.54567C8.20267 2.90346 8.9188 3.0533 9.62792 2.97309H9.62807ZM10.745 2.18889C10.5493 2.4268 10.3877 2.69072 10.2647 2.97309C10.9738 3.0533 11.6899 2.90346 12.3073 2.54567L12.3076 2.54605C12.94 2.17282 13.4106 1.65222 13.6995 0.990398C12.9904 0.910175 12.2743 1.06002 11.6569 1.41782L11.6566 1.41743C11.3088 1.61757 10.9999 1.87892 10.745 2.18889Z" fill="#0C2C7E"/>
</svg>
