<svg width="17" height="17" viewBox="0 0 17 17" fill="none" xmlns="http://www.w3.org/2000/svg">
<path d="M5.60557 0.463257H0.922471C0.461406 0.463257 0.085968 0.81523 0.085968 1.24748V5.63788C0.085968 5.81078 0.234167 5.95281 0.421886 5.95281H1.42635C1.61077 5.95281 1.76227 5.81078 1.76227 5.63788V3.14011L4.66039 5.85709C4.79212 5.98059 5.00289 5.98059 5.13462 5.85709L5.84269 5.19328C5.97442 5.06979 5.97442 4.87219 5.84269 4.74869L2.94457 2.0317H5.60886C5.79329 2.0317 5.94478 1.88968 5.94478 1.71678V0.77818C5.94149 0.602194 5.79329 0.463257 5.60557 0.463257Z" fill="#0C2C7E"/>
<path d="M15.9795 0.463257H11.2964C11.112 0.463257 10.9605 0.602194 10.9605 0.77818V1.71986C10.9605 1.89276 11.1087 2.03479 11.2964 2.03479H13.9607L11.0626 4.75177C10.9308 4.87527 10.9308 5.07287 11.0626 5.19637L11.7706 5.86018C11.9024 5.98368 12.1131 5.98368 12.2449 5.86018L15.143 3.14319V5.64097C15.143 5.81387 15.2912 5.95589 15.4789 5.95589H16.4834C16.6678 5.95589 16.8193 5.81387 16.8193 5.64097V1.24748C16.816 0.81523 16.4405 0.463257 15.9795 0.463257Z" fill="#0C2C7E"/>
<path d="M5.60557 14.5792H2.94127L5.83939 11.8622C5.97113 11.7387 5.97113 11.5411 5.83939 11.4176L5.13133 10.7538C4.9996 10.6303 4.78883 10.6303 4.65709 10.7538L1.75897 13.4708V10.973C1.75897 10.8001 1.61077 10.6581 1.42305 10.6581H0.421886C0.237461 10.6581 0.085968 10.797 0.085968 10.973V15.3634C0.085968 15.7957 0.461406 16.1476 0.922471 16.1476H5.60557C5.78999 16.1476 5.94149 16.0087 5.94149 15.8327V14.891C5.94149 14.7181 5.79329 14.5792 5.60557 14.5792Z" fill="#0C2C7E"/>
<path d="M16.4801 10.6581H15.4756C15.2912 10.6581 15.1397 10.797 15.1397 10.973V13.4708L12.2416 10.7538C12.1099 10.6303 11.8991 10.6303 11.7674 10.7538L11.0593 11.4176C10.9276 11.5411 10.9276 11.7387 11.0593 11.8622L13.9574 14.5792H11.2931C11.1087 14.5792 10.9572 14.7181 10.9572 14.8941V15.8358C10.9572 16.0087 11.1054 16.1507 11.2931 16.1507H15.9762C16.4373 16.1507 16.8127 15.7987 16.8127 15.3665V10.973C16.816 10.797 16.6678 10.6581 16.4801 10.6581Z" fill="#0C2C7E"/>
</svg>
