<svg width="26" height="20" viewBox="0 0 26 20" fill="none" xmlns="http://www.w3.org/2000/svg">
<path d="M24.3773 11.5081C24.9561 11.0872 25.2981 10.219 25.4296 9.7718C25.4823 9.61395 25.4033 9.4298 25.2981 9.4298C24.9824 9.4298 24.4036 9.50872 23.8775 9.95596C23.667 10.1401 23.4828 10.3769 23.325 10.5874C23.4302 9.98227 23.4828 9.66657 23.5091 9.03517C23.8248 9.00887 24.351 8.90363 24.7456 8.43008C25.2192 7.87761 25.3507 6.98313 25.377 6.48328C25.377 6.29912 25.2718 6.14127 25.1666 6.16758C24.8509 6.2465 24.2984 6.45697 23.9038 7.00944C23.7459 7.24621 23.6144 7.5093 23.5091 7.74607C23.4828 7.11467 23.4565 6.79897 23.3513 6.19388C23.667 6.08865 24.1405 5.87819 24.4299 5.32571C24.7456 4.66801 24.693 3.74722 24.5878 3.27367C24.5615 3.08951 24.4036 2.95797 24.2984 3.01059C24.009 3.14213 23.5355 3.48414 23.2724 4.14184C23.1671 4.40493 23.1145 4.69432 23.0619 4.9574C22.8778 4.35231 22.7725 4.03661 22.5357 3.45783C22.8251 3.29998 23.2198 2.95797 23.3513 2.35288C23.5091 1.64256 23.1934 0.721775 22.983 0.274535C22.9041 0.116685 22.7199 0.0114523 22.641 0.0903769C22.4042 0.300843 22.0096 0.748083 21.9307 1.4584C21.9043 1.7478 21.9043 2.03719 21.957 2.32658C21.615 1.72149 21.4045 1.40579 20.9573 0.853316C20.7994 0.64285 20.5626 0.590233 20.4311 0.695466C20.2995 0.800699 20.3259 1.03747 20.4837 1.24794C20.9046 1.80041 21.0888 2.06349 21.4308 2.66858C21.2203 2.51073 20.9573 2.37919 20.6942 2.32658C20.0365 2.16873 19.5103 2.45812 19.2472 2.64227C19.142 2.69489 19.1683 2.85274 19.2472 2.93167C19.5103 3.16844 20.0102 3.58937 20.6152 3.77353C21.1414 3.93138 21.6413 3.85245 21.957 3.77353C22.1937 4.326 22.299 4.61539 22.4568 5.19417C22.2727 4.98371 22.0622 4.79955 21.8254 4.69432C21.2466 4.40493 20.6679 4.56277 20.3785 4.66801C20.2732 4.69432 20.2469 4.85217 20.2995 4.9574C20.4837 5.24679 20.8783 5.74664 21.4308 6.06234C21.9043 6.32543 22.4042 6.37804 22.7199 6.35173C22.8251 6.93052 22.8514 7.24621 22.8777 7.82499C22.7462 7.58822 22.5884 7.37776 22.3779 7.1936C21.878 6.77267 21.2729 6.79897 20.9573 6.85159C20.852 6.8779 20.7731 6.98313 20.8257 7.11467C20.9573 7.43037 21.194 8.00915 21.6413 8.43008C22.0359 8.7984 22.5094 8.95625 22.8514 9.00886C22.8251 9.61395 22.7725 9.90335 22.6673 10.4821C22.6147 10.219 22.4831 9.98227 22.3253 9.7718C21.9307 9.24564 21.3519 9.14041 21.0362 9.1141C20.9309 9.08779 20.8257 9.21933 20.852 9.32456C20.9046 9.66657 21.0099 10.2717 21.3519 10.7978C21.6413 11.2451 22.0885 11.5081 22.3779 11.6397C22.22 12.2185 22.1148 12.4816 21.8517 13.034C21.8517 12.7709 21.7991 12.5079 21.6939 12.2448C21.4308 11.6397 20.8783 11.4029 20.5889 11.2977C20.4837 11.2714 20.3785 11.3503 20.3522 11.4555C20.3259 11.7975 20.2732 12.4289 20.4837 13.034C20.6679 13.5602 21.0099 13.9022 21.2729 14.1127C20.9572 14.6388 20.7994 14.9019 20.4311 15.3755C20.4837 15.1124 20.51 14.823 20.4837 14.5599C20.3785 13.9022 19.9049 13.5339 19.6418 13.376C19.5366 13.3234 19.4051 13.376 19.3788 13.4813C19.2735 13.797 19.0631 14.4284 19.1157 15.0598C19.1683 15.6122 19.4051 16.0595 19.6155 16.2962C19.4577 16.4804 19.2472 16.6646 19.0631 16.8224C18.2738 16.3752 17.4056 16.1384 16.4585 16.1384H9.38163C8.43454 16.1384 7.56636 16.4015 6.77712 16.8224C6.59296 16.6646 6.38249 16.4804 6.22464 16.2962C6.43511 16.0332 6.69819 15.6122 6.7245 15.0598C6.77712 14.4284 6.56665 13.797 6.46142 13.4813C6.4088 13.376 6.27726 13.2971 6.19834 13.376C5.93525 13.5602 5.46171 13.9285 5.35647 14.5599C5.30386 14.823 5.33016 15.1124 5.40909 15.3755C5.04077 14.9019 4.85662 14.6388 4.56723 14.1127C4.83031 13.9285 5.19862 13.5602 5.35647 13.034C5.56694 12.4289 5.51432 11.7975 5.48801 11.4555C5.48801 11.324 5.35647 11.2451 5.25124 11.2977C4.96185 11.4029 4.40938 11.666 4.14629 12.2448C4.04106 12.4816 3.98845 12.7709 3.98845 13.034C3.75167 12.4816 3.64644 12.2185 3.46228 11.6397C3.75167 11.5081 4.19891 11.2451 4.4883 10.7978C4.83031 10.2717 4.93554 9.64026 4.98816 9.32456C5.01447 9.19302 4.90923 9.08779 4.804 9.1141C4.4883 9.14041 3.90952 9.27195 3.5149 9.7718C3.35705 9.98227 3.25182 10.2454 3.17289 10.4821C3.06766 9.90335 3.01504 9.61395 2.98873 9.00886C3.30443 8.95625 3.80429 8.7984 4.19891 8.43008C4.64615 8.00915 4.90923 7.40406 5.01447 7.11467C5.06708 7.00944 4.98816 6.8779 4.88293 6.85159C4.56723 6.82528 3.96214 6.79897 3.46228 7.1936C3.25182 7.35145 3.09397 7.58822 2.96242 7.82499C2.98873 7.21991 3.01504 6.93052 3.12027 6.35173C3.43597 6.37804 3.96214 6.32543 4.40938 6.06234C4.96185 5.74664 5.33016 5.22048 5.54063 4.9574C5.61955 4.85217 5.56694 4.72062 5.46171 4.66801C5.17232 4.56277 4.59353 4.40493 4.01475 4.69432C3.77798 4.79955 3.56751 4.98371 3.38336 5.19417C3.54121 4.61539 3.64644 4.326 3.88321 3.77353C4.19891 3.87876 4.69877 3.93138 5.22493 3.77353C5.83002 3.58937 6.32988 3.14213 6.59296 2.93167C6.69819 2.85274 6.69819 2.69489 6.59296 2.64227C6.32988 2.45812 5.80371 2.16873 5.14601 2.32658C4.88293 2.37919 4.61984 2.51073 4.40938 2.66858C4.75138 2.0898 4.93554 1.80041 5.35647 1.24794C5.51432 1.06378 5.51432 0.827007 5.40909 0.695466C5.27755 0.590233 5.04077 0.64285 4.88293 0.853316C4.43569 1.4321 4.22522 1.72149 3.88321 2.32658C3.90952 2.03719 3.93583 1.7478 3.90952 1.4584C3.8306 0.748083 3.43597 0.300843 3.1992 0.0903769C3.12027 0.0114523 2.93612 0.116685 2.85719 0.274535C2.64673 0.748083 2.33103 1.64256 2.48888 2.35288C2.62042 2.95797 3.04135 3.29998 3.30443 3.45783C3.04135 4.03661 2.93612 4.35231 2.77827 4.9574C2.75196 4.69432 2.67303 4.40493 2.5678 4.14184C2.30472 3.48414 1.83117 3.14213 1.54178 3.01059C1.43655 2.95797 1.30501 3.08951 1.25239 3.27367C1.14716 3.77353 1.06823 4.69432 1.41024 5.32571C1.69963 5.87819 2.17318 6.08865 2.48888 6.19388C2.43626 6.82528 2.40995 7.14098 2.38364 7.77238C2.27841 7.5093 2.14687 7.24621 1.98902 7.03575C1.5944 6.48327 1.04192 6.2465 0.726226 6.19388C0.620993 6.16758 0.51576 6.32543 0.51576 6.50958C0.542068 7.00944 0.673609 7.90392 1.14716 8.45639C1.54178 8.92994 2.06795 9.03517 2.38364 9.06148C2.40995 9.69288 2.46257 10.0086 2.5678 10.6137C2.40995 10.3769 2.22579 10.1664 2.01533 9.98227C1.48916 9.53503 0.910383 9.4561 0.594685 9.4561C0.489452 9.4561 0.410527 9.64026 0.463144 9.79811C0.594685 10.2717 0.936692 11.1135 1.51547 11.5345C2.01533 11.9028 2.54149 11.8765 2.85719 11.8238C3.04135 12.4289 3.14658 12.7183 3.40966 13.2971C3.1992 13.1129 2.96242 12.9288 2.72565 12.7972C2.12056 12.4816 1.51547 12.5342 1.22608 12.6131C1.12085 12.6131 1.09454 12.7972 1.19977 12.9551C1.43655 13.376 1.98902 14.139 2.64673 14.4284C3.22551 14.6651 3.72536 14.5336 4.01475 14.4021C4.33045 14.9545 4.51461 15.2176 4.90923 15.7438C4.67246 15.6122 4.38307 15.4807 4.11999 15.4018C3.43597 15.2176 2.8835 15.4018 2.59411 15.5596C2.48888 15.6122 2.51519 15.7964 2.64673 15.9279C2.98873 16.2962 3.69906 16.9276 4.43569 17.0592C5.06708 17.1644 5.51432 16.9276 5.7774 16.7172C5.96156 16.9013 6.0668 17.0066 6.22464 17.1644C5.35647 17.7695 4.61984 18.6114 4.06737 19.5848C3.98845 19.7163 4.09368 19.8742 4.25153 19.8742H21.7465C21.9043 19.8742 21.9833 19.7163 21.9307 19.5848C21.3519 18.6114 20.6152 17.7695 19.7734 17.1644C19.9312 17.0066 20.0365 16.9013 20.2206 16.7172C20.4837 16.9276 20.9309 17.1644 21.5623 17.0592C22.299 16.9276 23.0093 16.2962 23.3513 15.9279C23.4828 15.7964 23.4828 15.6122 23.4039 15.5596C23.1408 15.4281 22.5621 15.2176 21.878 15.4018C21.5886 15.4807 21.3256 15.6122 21.0888 15.7438C21.4834 15.2439 21.6676 14.9545 21.9833 14.4021C22.2727 14.5336 22.7988 14.6651 23.3513 14.4284C24.009 14.139 24.5615 13.376 24.7983 12.9551C24.8772 12.7972 24.8509 12.6131 24.7456 12.5868C24.4562 12.5079 23.8512 12.4552 23.2461 12.7709C22.983 12.9025 22.7725 13.0866 22.5621 13.2708C22.8251 12.692 22.9304 12.4026 23.1145 11.7975C23.3513 11.8502 23.8775 11.8765 24.3773 11.5081Z" fill="#0C2C7E"/>
<path d="M9.59209 10.4821L10.3024 10.6663C10.4076 10.8241 10.5392 10.982 10.6707 11.1135C11.118 11.5871 11.6967 11.8502 12.3281 11.9817V13.5865H11.381C11.2758 13.5865 11.1969 13.6391 11.1706 13.7444L10.8812 14.7441C10.8549 14.8756 10.9338 15.0072 11.0917 15.0072H14.8274C14.959 15.0072 15.0642 14.8756 15.0379 14.7441L14.7485 13.7444C14.7222 13.6654 14.6433 13.5865 14.538 13.5865H13.5909V11.9817C14.2223 11.8765 14.8011 11.5871 15.2484 11.1135C15.3799 10.982 15.5114 10.8241 15.6167 10.6663L16.327 10.4821C17.9318 10.0612 19.0367 8.58795 19.0367 6.93053V6.24652C19.0367 6.08867 18.9052 5.95713 18.7474 5.95713H16.6427V5.03634C16.6427 4.87849 16.5112 4.74695 16.3533 4.74695H9.53947C9.38162 4.74695 9.25008 4.87849 9.25008 5.03634V5.95713H7.11912C6.96127 5.95713 6.82973 6.08867 6.82973 6.24652V6.93053C6.85604 8.58795 7.98729 10.0612 9.59209 10.4821ZM16.6427 6.85161H18.1686V6.93053C18.1686 8.16702 17.353 9.27196 16.1691 9.61397C16.6164 8.45641 16.6427 7.24623 16.6427 6.85161ZM13.1174 8.71949H12.8543C12.2755 8.71949 11.7494 8.27225 11.7231 7.69347C11.6967 7.11469 12.0914 6.64114 12.6175 6.53591V6.11498C12.6175 6.08867 12.6438 6.03605 12.6965 6.03605H13.2752C13.3016 6.03605 13.3542 6.06236 13.3542 6.11498V6.53591C13.854 6.61483 14.2223 7.03576 14.2486 7.56193C14.2486 7.58824 14.2223 7.64085 14.1697 7.64085H13.5909C13.5646 7.64085 13.5383 7.61454 13.512 7.58824C13.4857 7.40408 13.3279 7.24623 13.1174 7.24623H12.828C12.6438 7.24623 12.4597 7.37777 12.4071 7.56193C12.3545 7.82501 12.5649 8.03548 12.8017 8.03548H13.1174C13.7488 8.03548 14.275 8.56164 14.2223 9.21935C14.196 9.7192 13.8014 10.1138 13.3279 10.2191V10.6663C13.3279 10.6926 13.3015 10.7452 13.2489 10.7452H12.6702C12.6438 10.7452 12.5912 10.7189 12.5912 10.6663V10.2454C12.0914 10.1664 11.7231 9.74551 11.6967 9.21935C11.6967 9.19304 11.7231 9.14042 11.7757 9.14042H12.3545C12.3808 9.14042 12.4071 9.16673 12.4334 9.19304C12.4597 9.3772 12.6175 9.53504 12.828 9.53504H13.1174C13.3015 9.53504 13.4857 9.4035 13.5383 9.21935C13.5646 8.95626 13.3542 8.71949 13.1174 8.71949ZM7.75051 6.85161H9.27639C9.27639 7.27254 9.32901 8.48272 9.74994 9.61397C8.56607 9.27196 7.75051 8.16702 7.75051 6.93053V6.85161Z" fill="#0C2C7E"/>
</svg>
