<svg width="18" height="15" viewBox="0 0 18 15" fill="none" xmlns="http://www.w3.org/2000/svg">
<path d="M12.4507 3.98397C12.0998 4.20994 12.0047 4.67378 12.2247 5.02463C13.1048 6.39235 13.1167 8.16444 12.2544 9.54406C12.0344 9.89491 12.1414 10.3587 12.4923 10.5788C12.6172 10.6561 12.7539 10.6918 12.8907 10.6918C13.1405 10.6918 13.3843 10.5669 13.527 10.3409C14.6985 8.46772 14.6806 6.06529 13.4854 4.20994C13.2653 3.85909 12.7956 3.758 12.4507 3.98397ZM16.1138 2.6103C15.8938 2.25945 15.4299 2.15836 15.0791 2.37838C14.7282 2.59841 14.6212 3.06224 14.8471 3.41309C16.3754 5.83337 16.3457 8.9375 14.7639 11.328C14.5379 11.6729 14.6331 12.1427 14.978 12.3687C15.1029 12.452 15.2515 12.4936 15.3883 12.4936C15.6321 12.4936 15.87 12.3747 16.0186 12.1546C17.9156 9.27051 17.9572 5.53009 16.1138 2.6103Z" fill="#0C2C7E"/>
<path d="M9.22185 0.427899L4.85703 3.79963H1.82425C1.26527 3.80558 0.819275 4.25158 0.819275 4.80461V9.81167C0.819275 10.3647 1.26527 10.8107 1.81831 10.8107H4.85108L9.2159 14.1824C9.87598 14.6938 10.8274 14.2241 10.8274 13.3915V1.2188C10.8334 0.39222 9.88192 -0.0775634 9.22185 0.427899Z" fill="#0C2C7E"/>
</svg>
