<svg width="18" height="18" viewBox="0 0 18 18" fill="none" xmlns="http://www.w3.org/2000/svg">
<path d="M2.40164 7.98128C2.37165 8.05504 2.358 8.13352 2.36148 8.21215C2.36496 8.29077 2.38551 8.36798 2.42193 8.43927C2.45834 8.51056 2.5099 8.5745 2.57359 8.62737C2.63727 8.68024 2.71182 8.72098 2.79289 8.74722C2.87395 8.77345 2.95991 8.78466 3.04576 8.78018C3.1316 8.77571 3.21562 8.75564 3.2929 8.72114C3.37019 8.68665 3.4392 8.63843 3.49591 8.57928C3.55263 8.52013 3.59592 8.45125 3.62325 8.37663C4.01905 7.35158 4.71513 6.44582 5.63541 5.75838C6.55568 5.07093 7.66472 4.62825 8.84133 4.47872C10.0179 4.32918 11.2168 4.47855 12.3069 4.9105C13.397 5.34244 14.3364 6.04034 15.0224 6.92791C15.7084 7.81549 16.1146 8.85857 16.1966 9.94316C16.2787 11.0277 16.0333 12.1121 15.4874 13.0777C14.9416 14.0433 14.1162 14.853 13.1015 15.4182C12.0868 15.9835 10.9218 16.2826 9.73391 16.2828C8.63582 16.2864 7.55542 16.0298 6.5978 15.538C6.45008 15.4738 6.2813 15.4631 6.12533 15.5081C5.96936 15.553 5.83772 15.6503 5.75683 15.7803C5.67594 15.9104 5.65176 16.0636 5.68916 16.2093C5.72656 16.355 5.82277 16.4824 5.95848 16.5659C7.1106 17.1603 8.41133 17.4714 9.73391 17.4689C11.729 17.4541 13.6415 16.7379 15.0758 15.4687C16.51 14.1994 17.3563 12.4741 17.4396 10.6497C17.5228 8.82531 16.8366 7.04144 15.5229 5.66715C14.2093 4.29286 12.3686 3.43332 10.3819 3.26636V1.65492H11.4618C11.6336 1.65492 11.7984 1.59244 11.92 1.48123C12.0415 1.37001 12.1097 1.21917 12.1097 1.06189C12.1097 0.904615 12.0415 0.753778 11.92 0.642564C11.7984 0.531351 11.6336 0.468872 11.4618 0.468872H8.00602C7.83418 0.468872 7.66937 0.531351 7.54785 0.642564C7.42633 0.753778 7.35807 0.904615 7.35807 1.06189C7.35807 1.21917 7.42633 1.37001 7.54785 1.48123C7.66937 1.59244 7.83418 1.65492 8.00602 1.65492H9.08595V3.28296C7.59571 3.39367 6.17211 3.89596 4.98632 4.72944C3.80052 5.56292 2.90299 6.69212 2.40164 7.98128Z" fill="#0C2C7E"/>
<path d="M9.73351 6.79504C9.56166 6.79504 9.39685 6.85752 9.27534 6.96874C9.15382 7.07995 9.08556 7.23079 9.08556 7.38807V9.76016C9.08546 9.87037 9.11897 9.97841 9.18231 10.0721C9.24565 10.1659 9.33631 10.2416 9.44409 10.2907L11.172 11.0814C11.2618 11.1227 11.3609 11.1441 11.4614 11.1439C11.6075 11.144 11.7493 11.099 11.8639 11.0162C11.9785 10.9333 12.0592 10.8174 12.0928 10.6873C12.1264 10.5572 12.111 10.4205 12.0491 10.2995C11.9872 10.1784 11.8824 10.08 11.7517 10.0203L10.3823 9.39407V7.38807C10.3823 7.31012 10.3655 7.23294 10.3329 7.16094C10.3003 7.08894 10.2525 7.02353 10.1922 6.96846C10.132 6.91338 10.0605 6.86971 9.98174 6.83996C9.90303 6.8102 9.81868 6.79494 9.73351 6.79504Z" fill="#0C2C7E"/>
<path d="M0.446396 9.76014C0.446396 9.91742 0.514663 10.0683 0.636178 10.1795C0.757693 10.2907 0.922503 10.3532 1.09435 10.3532H6.278C6.44985 10.3532 6.61466 10.2907 6.73618 10.1795C6.85769 10.0683 6.92596 9.91742 6.92596 9.76014C6.92596 9.60286 6.85769 9.45202 6.73618 9.34081C6.61466 9.22959 6.44985 9.16711 6.278 9.16711H1.09435C0.922503 9.16711 0.757693 9.22959 0.636178 9.34081C0.514663 9.45202 0.446396 9.60286 0.446396 9.76014Z" fill="#0C2C7E"/>
<path d="M6.92627 12.1312C6.92627 11.974 6.85801 11.8231 6.73649 11.7119C6.61498 11.6007 6.45017 11.5382 6.27832 11.5382H1.95861C1.78676 11.5382 1.62195 11.6007 1.50044 11.7119C1.37892 11.8231 1.31065 11.974 1.31065 12.1312C1.31065 12.2885 1.37892 12.4393 1.50044 12.5506C1.62195 12.6618 1.78676 12.7243 1.95861 12.7243H6.27832C6.45017 12.7243 6.61498 12.6618 6.73649 12.5506C6.85801 12.4393 6.92627 12.2885 6.92627 12.1312Z" fill="#0C2C7E"/>
<path d="M3.68615 15.0973H6.27797C6.44982 15.0973 6.61463 15.0348 6.73615 14.9236C6.85766 14.8124 6.92593 14.6616 6.92593 14.5043C6.92593 14.347 6.85766 14.1962 6.73615 14.0849C6.61463 13.9737 6.44982 13.9113 6.27797 13.9113H3.68615C3.5143 13.9113 3.34949 13.9737 3.22797 14.0849C3.10646 14.1962 3.03819 14.347 3.03819 14.5043C3.03819 14.6616 3.10646 14.8124 3.22797 14.9236C3.34949 15.0348 3.5143 15.0973 3.68615 15.0973Z" fill="#0C2C7E"/>
</svg>
