<svg width="18" height="12" viewBox="0 0 18 12" fill="none" xmlns="http://www.w3.org/2000/svg">
<path fill-rule="evenodd" clip-rule="evenodd" d="M17.9083 5.97154C17.8628 6.0486 14.7704 11.275 9.4675 11.275C4.16465 11.275 1.0722 6.04876 1.02674 5.97154C0.947751 5.83576 0.947751 5.66476 1.02674 5.52898C1.07218 5.45118 4.16465 0.224976 9.4675 0.224976C14.7704 0.224976 17.8628 5.45044 17.9083 5.52841C17.9872 5.66492 17.9872 5.83502 17.9083 5.97154ZM9.4675 2.77524C7.90377 2.77524 6.63435 4.10806 6.63435 5.74983C6.63435 7.39161 7.90379 8.72443 9.4675 8.72443C11.0312 8.72443 12.3006 7.39161 12.3006 5.74983C12.3006 4.10806 11.0312 2.77524 9.4675 2.77524Z" fill="#0C2C7E"/>
</svg>
