<svg width="105" height="87" viewBox="0 0 105 87" fill="none" xmlns="http://www.w3.org/2000/svg">
<path d="M90.7123 49.4975C89.6123 50.8175 88.5023 52.1275 87.3523 53.4975C87.1023 53.3375 86.8623 53.2175 86.6723 53.0375C81.8223 48.5675 76.9423 44.1275 72.1523 39.6075C63.4823 31.4375 54.9123 23.1775 46.2023 15.0475C42.7023 11.7875 38.5823 9.39746 34.1923 7.47746C27.1323 4.39746 20.6123 5.49746 14.5723 10.0075C6.63231 15.9375 3.90231 26.1675 8.10231 34.7875C9.13231 36.8975 10.6523 38.8875 12.3423 40.5275C21.9723 49.8875 31.7423 59.1075 41.4223 68.4075C46.1223 72.9175 50.7523 77.5075 55.4123 82.0675C55.5523 82.2075 55.6723 82.3575 55.8523 82.5575C54.6423 83.9675 53.4623 85.3575 52.1923 86.8475C51.5823 86.2875 51.0223 85.7975 50.4923 85.2875C40.7623 75.9175 31.0223 66.5575 21.3023 57.1675C16.2123 52.2475 11.2223 47.2275 6.08232 42.3775C3.01232 39.4775 1.2523 35.9775 0.522305 31.8875C-0.487695 26.2075 -0.0976899 20.6775 2.26231 15.3475C3.70231 12.0975 6.33231 9.84746 8.87231 7.53746C13.0623 3.72746 17.8023 0.967463 23.5423 0.247463C30.7023 -0.652537 37.3223 0.927463 43.2323 4.99746C46.4523 7.20746 49.3723 9.84746 52.4223 12.2875C53.6123 13.5075 54.8023 14.7175 55.9923 15.9375C57.0423 16.8175 58.1023 17.6975 59.1523 18.5775C60.6723 19.9975 62.1923 21.4175 63.7123 22.8375C64.7223 23.7975 65.7223 24.7675 66.7323 25.7275C67.9423 27.1975 69.1523 28.6675 70.3623 30.1375C71.3423 30.8775 72.3123 31.6175 73.2923 32.3475C74.5023 33.5875 75.7023 34.8175 76.9123 36.0575C77.9623 36.7875 79.0123 37.5075 80.0623 38.2375C81.5923 39.6675 83.1223 41.1075 84.6523 42.5375C85.6523 43.3375 86.6623 44.1275 87.6623 44.9275C88.6823 46.4475 89.6923 47.9675 90.7123 49.4875V49.4975Z" fill="#37437F"/>
<path d="M63.1424 75.0375C62.3824 76.0075 61.6324 77.0874 60.7624 78.0675C59.4524 79.5375 58.2524 79.6174 56.7124 78.2674C55.2424 76.9774 53.8524 75.5874 52.4324 74.2374C41.6124 63.9274 30.7724 53.6274 19.9724 43.2874C17.6624 41.0774 15.2124 38.9374 13.3324 36.3974C9.31236 30.9674 8.46235 24.8774 11.6324 18.8074C14.8224 12.6874 20.1924 9.58745 27.1124 9.40745C31.8224 9.27745 35.8724 11.0474 39.2724 14.2274C46.0524 20.5574 52.7524 26.9674 59.5124 33.3074C67.5024 40.7974 75.5124 48.2574 83.5224 55.7274C83.6924 55.8874 83.9024 56.0174 84.2024 56.2575C82.5924 57.5174 81.1024 58.6774 79.4624 59.9674C77.3024 57.9375 75.1824 55.9474 73.0724 53.9474C60.7124 42.2374 48.3824 30.4874 35.9924 18.8174C31.1024 14.2074 23.4424 14.1474 19.0324 18.5274C14.5024 23.0174 14.5224 29.9775 19.2624 34.6075C25.6624 40.8675 32.1724 47.0074 38.6724 53.1674C45.1424 59.2974 51.6224 65.4174 58.1724 71.4574C59.6224 72.7974 61.3824 73.7874 63.1424 75.0474V75.0375Z" fill="#35427F"/>
<path d="M77.0623 62.4274C75.7423 63.8274 74.4823 65.1574 73.1423 66.5774C69.3623 63.2774 65.5224 60.1374 61.9324 56.7374C53.5323 48.8074 45.2523 40.7474 36.9323 32.7374C34.9423 30.8274 32.9223 28.9374 31.0323 26.9374C29.7723 25.6074 28.4323 24.9974 26.5723 25.6474C26.4923 26.7874 26.8223 27.7374 27.7023 28.6674C39.8023 41.2874 52.8123 52.9574 65.5623 64.8974C67.1923 66.4274 68.8223 67.9574 70.5023 69.5274C69.1523 70.7974 67.8423 72.0274 66.3423 73.4374C63.8723 71.3374 61.1423 69.1974 58.6223 66.8374C46.8223 55.7574 35.0923 44.5974 23.3223 33.4774C21.6723 31.9174 20.1823 30.2674 19.5823 28.0174C18.2123 22.8774 23.2223 17.8274 28.6023 18.8674C30.8523 19.3074 32.6223 20.5274 34.2423 22.0674C44.9423 32.2774 55.6523 42.4874 66.3823 52.6574C69.5423 55.6574 72.8023 58.5474 76.0123 61.4874C76.3323 61.7774 76.6523 62.0674 77.0523 62.4374L77.0623 62.4274Z" fill="#33407E"/>
<path d="M90.7124 49.4974C89.6924 47.9774 88.6824 46.4574 87.6624 44.9374C89.0324 43.5374 90.4824 42.2174 91.7624 40.7374C95.8624 35.9974 98.1724 30.5774 97.5724 24.1874C97.0224 18.3374 94.3024 13.6374 89.6324 10.1374C82.5724 4.83744 72.6424 4.50744 64.8524 9.41744C61.7624 11.3674 58.9324 13.7574 55.9824 15.9374C54.7924 14.7174 53.6024 13.5074 52.4124 12.2874C57.1524 5.91744 63.3724 1.89745 71.2224 0.477445C83.4424 -1.72255 96.1824 3.70745 101.642 16.2074C103.062 19.4674 104.672 22.6874 104.792 26.3174C104.842 27.9174 104.772 29.6574 104.222 31.1374C102.072 36.9574 99.2024 42.3874 94.5124 46.6274C93.3324 47.6974 91.9724 48.5474 90.6924 49.5074L90.7124 49.4974Z" fill="#F3A863"/>
<path d="M84.6423 42.5374C83.1123 41.1074 81.5823 39.6674 80.0523 38.2374C81.9223 36.6274 83.9623 35.1774 85.6223 33.3774C88.1523 30.6374 89.0523 27.3174 88.0023 23.6174C85.5323 14.9774 75.2423 13.0674 69.0723 17.8974C67.1623 19.3874 65.4923 21.1774 63.7123 22.8274C62.1923 21.4074 60.6723 19.9874 59.1523 18.5674C61.3623 16.8674 63.5623 15.1474 65.7923 13.4674C72.1623 8.66741 79.0723 8.23741 85.6623 12.1974C94.1423 17.2974 96.5123 27.8974 90.7623 35.8274C88.9923 38.2674 86.7023 40.3174 84.6423 42.5474V42.5374Z" fill="#F3A863"/>
<path d="M66.7223 25.7275C68.0923 24.2775 69.3923 22.7475 70.8523 21.3875C74.2823 18.2075 80.0523 18.6475 82.9523 22.2175C84.7723 24.4575 84.9023 27.0175 83.1323 29.6275C82.2623 30.9075 81.1623 32.0275 80.0723 33.1475C79.0723 34.1775 77.9623 35.0975 76.8923 36.0575C75.6823 34.8175 74.4823 33.5875 73.2723 32.3475C73.5123 31.8875 73.6423 31.3375 73.9923 30.9975C74.7623 30.2575 75.6723 29.6575 76.4623 28.9275C77.8023 27.7075 77.9123 26.7575 76.9723 25.0475C74.7523 26.7475 72.5423 28.4375 70.3323 30.1275C69.1223 28.6575 67.9123 27.1875 66.7023 25.7175L66.7223 25.7275Z" fill="#F2A761"/>
</svg>
