<svg width="204" height="310" viewBox="0 0 204 310" fill="none" xmlns="http://www.w3.org/2000/svg">
<path d="M53.3174 239.362C53.8404 238.942 54.3233 238.214 54.8866 238.142C60.2737 237.462 65.6787 236.935 71.0658 236.237C71.6112 236.166 72.3846 235.334 72.4741 234.767C72.6305 233.783 72.331 232.733 72.2237 231.709C77.1369 234.668 82.077 237.543 87.5267 236.814C89.1004 237.543 90.142 238.334 91.2731 238.491C94.6395 238.947 98.0774 238.956 101.421 239.523C104.247 240.002 105.856 238.616 107.358 236.68C107.931 237.006 108.467 237.507 109.08 237.632C119.443 239.734 129.519 242.733 139.189 247.039C139.319 247.991 139.413 248.948 139.592 249.891C139.963 251.862 138.926 252.622 137.276 253.53C134.991 254.786 133.507 253.096 131.67 252.743C129.497 251.97 127.575 252.645 126.332 254.348C125.232 255.859 124.669 257.759 123.868 259.489C123.077 260.839 123.488 262.002 124.441 263.07C124.651 264.309 124.857 265.551 125.12 267.116C126.059 266.285 126.797 265.627 127.53 264.975C128.607 265.65 129.6 266.571 130.771 266.96C134.392 268.158 138.255 268.122 141.943 269.45C145.833 270.849 150.111 271.283 154.264 271.766C156.464 272.02 159.423 268.833 160.085 266.186C161.283 262.306 159.987 258.689 158.9 255.05C161.99 256.261 165.164 257.299 168.15 258.729C173.01 261.058 178.182 262.927 182.045 266.928C183.06 267.979 184.034 269.195 184.62 270.514C186.524 274.783 189.869 277.622 193.646 280.068C195.26 281.114 196.892 282.16 198.613 283.005C200.871 284.109 201.43 286.116 201.693 288.28C202.212 292.599 202.632 296.931 203.106 301.254C203.392 303.892 203.701 306.525 204 309.158H149.011C149.311 305.783 149.432 302.381 149.95 299.041C150.522 295.321 150.107 293.998 146.906 291.995C146.275 291.602 145.623 291.24 145.006 290.828C141.934 288.79 141.72 287.668 143.808 284.681C146.056 281.467 145.511 278.61 141.885 277.063C138.353 275.557 134.665 274.041 130.905 273.514C118.732 271.797 107.452 268.283 97.9343 260.053C96.1193 258.483 93.4592 257.831 91.1166 256.945C88.7561 256.056 86.2436 255.56 83.9144 254.607C81.6165 253.669 81.3617 252.314 82.7655 250.432C84.1514 248.572 84.0217 248.022 81.7283 247.517C78.5407 246.811 75.3084 246.292 72.0941 245.702C65.5312 244.49 58.8028 243.793 53.3263 239.362H53.3174Z" fill="#CDCBCA"/>
<path d="M53.3166 239.362C58.7887 243.788 65.5214 244.49 72.0843 245.702C75.2987 246.296 78.531 246.811 81.7186 247.517C84.0165 248.027 84.1416 248.576 82.7557 250.432C81.352 252.318 81.6068 253.668 83.9047 254.607C86.2339 255.56 88.7509 256.056 91.1069 256.945C93.4495 257.831 96.1095 258.483 97.9246 260.053C107.443 268.283 118.722 271.797 130.896 273.514C134.655 274.046 138.344 275.557 141.875 277.063C145.501 278.61 146.047 281.467 143.798 284.681C141.71 287.668 141.925 288.79 144.996 290.828C145.617 291.24 146.266 291.602 146.896 291.995C150.097 293.998 150.513 295.321 149.94 299.041C149.426 302.381 149.301 305.783 149.002 309.158H111.001C109.302 298.196 106.857 287.538 99.087 278.959C98.1973 277.975 97.4865 276.817 96.7891 275.677C95.7251 273.929 96.2302 272.606 97.9827 271.614C100.486 270.201 100.71 268.931 98.2912 267.223C93.9905 264.192 89.6003 261.237 85.0089 258.671C76.3851 253.852 67.5511 249.412 58.9094 244.624C56.8216 243.466 55.1451 241.566 53.3032 239.984C53.2004 239.894 53.3032 239.568 53.3121 239.354L53.3166 239.362Z" fill="#806343"/>
<path d="M66.3191 147.384C69.2876 144.688 72.2561 141.992 75.2291 139.296C76.7491 138.129 78.9933 137.718 79.3465 135.335C80.0931 136.77 80.8263 135.599 81.4254 135.237C87.8899 131.361 94.6987 128.276 101.928 126.13C102.013 131.973 105.218 136.623 108.969 140.32C113.542 144.822 119.864 146.597 126.306 146.878C130.437 147.057 134.595 146.615 138.739 146.449C138.261 147.057 137.885 147.799 137.286 148.246C132.806 151.608 127.388 152.131 122.139 153.169C110.046 154.416 97.7477 153.714 86.0167 156.995C85.5115 157.948 85.0287 158.855 84.6576 159.548C91.9895 171.163 96.5227 183.779 99.7863 196.914C99.0754 197.249 98.3199 197.517 97.6582 197.933C96.098 198.917 94.6763 200.173 93.0177 200.919C92.0521 201.353 90.7422 201.018 89.5887 201.027C88.9718 200.142 88.3593 199.252 87.7424 198.367C87.4428 197.71 87.1746 197.039 86.8393 196.4C85.3327 193.534 83.8127 190.677 82.2614 187.838C82.2167 187.753 81.7294 187.914 81.4477 187.959C78.211 178.423 72.1577 170.577 66.252 162.646C66.1358 161.707 66.1313 160.737 65.8854 159.834C65.264 157.563 64.9734 155.323 65.501 152.972C65.9122 151.143 66.0553 149.252 66.3191 147.388V147.384Z" fill="#2254B5"/>
<path d="M181.325 60.4656C180.65 62.1421 179.979 63.8141 179.304 65.4906C178.745 67.2833 178.187 69.0716 177.628 70.8643C174.632 71.0118 171.642 71.1638 168.646 71.3114C165.36 71.3114 162.061 71.1549 158.789 71.3605C155.024 71.5975 152.637 73.8194 151.707 77.4272C151.157 79.5642 150.844 81.7726 150.54 83.9633C149.503 91.4516 148.564 98.8997 152.123 106.12C154.072 110.081 157.586 111.753 161.945 110.246C163.036 110.389 164.171 110.801 165.208 110.631C168.463 110.094 171.677 109.321 174.914 108.677C176.975 108.266 179.054 107.917 181.124 107.541C181.897 109.325 182.671 111.109 183.444 112.888C182.63 113.192 181.835 113.581 180.994 113.782C175.249 115.15 169.496 116.474 163.746 117.815C161.694 117.104 158.391 118.266 156.982 120.189C154.792 123.184 155.726 126.349 156.401 129.532C156.991 132.331 157.47 135.157 157.944 137.982C158.82 143.204 159.182 144.683 164.363 144.219C164.506 144.205 164.654 144.263 164.802 144.29C159.508 145.198 154.385 144.379 149.347 142.761C148.765 142.627 148.184 142.488 147.603 142.354C145.225 141.026 142.846 139.694 140.468 138.366C147.098 136.069 148.157 134.294 146.311 128.576C147.008 128.312 147.701 128.053 148.819 127.628C147.424 127.275 146.49 127.038 145.555 126.805C143.696 122.782 141.84 118.763 139.981 114.739C140.459 112.996 140.937 111.248 141.434 109.441C140.437 109.12 139.346 108.766 138.255 108.413C137.96 104.698 137.66 100.979 137.365 97.2634C137.727 96.718 138.076 96.1636 138.461 95.6316C140.118 93.3486 139.899 91.5023 137.803 90.0925C137.933 88.7781 138.009 87.4504 138.197 86.1449C138.599 83.324 139.06 80.5119 139.493 77.6954C141.165 76.627 142.833 75.5585 144.5 74.49C144.406 74.3067 144.308 74.1234 144.214 73.9356C143.101 73.6406 141.988 73.341 140.875 73.046C142.144 69.7735 143.418 66.4965 144.688 63.224C146.172 62.303 147.661 61.3821 149.15 60.4656C149.047 60.251 148.949 60.0319 148.846 59.8174C147.996 59.9515 147.151 60.0856 146.302 60.2152C147.388 58.2795 148.475 56.3481 149.561 54.4124C154.886 54.5465 160.25 54.3319 165.521 54.9175C171.132 55.5389 176.519 57.3183 181.329 60.4745L181.325 60.4656Z" fill="#365236"/>
<path d="M69.5098 55.6147C73.52 51.3452 77.4408 46.9864 81.585 42.8555C83.2436 41.2014 85.4119 40.0569 87.3432 38.6844C89.6545 38.5413 90.8124 40.1061 91.7468 41.8228C92.6186 43.4188 93.2936 45.1221 94.0581 46.7763C91.8362 49.6151 89.4802 52.3645 87.4371 55.3241C86.0959 57.2688 87.0973 58.7889 89.3818 59.6562C95.8821 62.1284 102.602 62.7364 109.468 62.3922C115.531 63.6976 118.325 68.2487 120.439 73.466C118.91 76.4345 118.638 79.6488 118.597 82.9079C118.557 86.0508 116.483 89.2697 113.447 89.8732C110.671 90.4276 107.734 90.4276 104.89 90.2577C104.019 90.204 102.669 91.1742 102.002 89.6899C101.22 89.5871 100.433 89.4842 99.6509 89.3814C95.7257 87.7809 91.711 86.3727 87.9021 84.5263C82.5596 81.9378 77.3782 79.0274 72.1296 76.2512C70.3771 75.1693 68.6247 74.0874 66.8722 73.0099C66.2552 72.2946 65.7322 71.4721 65.0124 70.8775C62.3971 68.7226 61.9455 66.3353 63.6801 63.3534C64.2658 62.343 64.8067 61.3058 65.3656 60.282C66.747 58.7218 68.1239 57.166 69.5054 55.6102L69.5098 55.6147Z" fill="#FFB875"/>
<path d="M147.598 142.35C148.179 142.488 148.76 142.622 149.341 142.756C149.082 143.248 148.626 143.722 148.59 144.232C147.995 152.315 147.423 160.402 146.918 168.494C146.815 170.112 146.663 171.847 147.11 173.358C149.426 181.222 149.703 189.345 150.253 197.414C150.955 207.661 151.317 217.93 151.827 228.19C150.503 229.098 149.243 230.122 147.835 230.877C145.988 231.87 144.374 233.787 141.871 232.755C141.178 231.834 140.48 230.908 139.787 229.987C138.844 224.207 138.008 218.408 136.935 212.655C135.048 202.524 133.05 192.412 129.38 182.737C128.49 180.395 126.8 178.28 126.295 175.884C124.699 168.355 123.492 160.742 122.133 153.16C127.381 152.127 132.8 151.604 137.279 148.237C137.878 147.79 138.254 147.048 138.732 146.44C141.687 145.072 144.642 143.709 147.598 142.341V142.35Z" fill="#0C2C7E"/>
<path d="M60.8543 24.3605C53.9606 23.3815 47.049 23.1311 40.2268 24.6332C36.8828 25.3709 36.1585 26.9759 37.0884 29.7789C37.8842 32.1797 37.0884 33.9545 34.6877 34.8174C32.4211 35.631 29.9354 36.2077 27.5436 36.2122C19.0986 36.2301 11.1364 34.0082 3.30827 30.378C9.16928 28.5138 14.8738 26.8417 19.6395 22.5991C11.7533 18.9689 4.64499 14.78 0 6.73728C1.11319 7.14411 1.82849 7.38105 2.52591 7.65823C10.3316 10.7698 18.2983 13.0856 26.8372 12.3524C28.1561 12.2406 29.4839 11.9322 30.749 11.5253C33.7265 10.5686 34.7458 8.6686 34.0305 5.68221C33.3867 2.99536 33.7891 1.72123 36.4759 1.22052C40.5397 0.469448 44.7153 -0.00443928 48.8417 3.13568e-05C53.8131 0.00450199 58.7844 0.634861 64.0374 1.01039C65.097 8.91001 66.1386 16.6934 67.1982 24.6154C66.6661 24.6914 66.1833 24.7629 65.7005 24.8344C64.0911 24.6779 62.4772 24.5215 60.8677 24.3605H60.8543Z" fill="#73B6FF"/>
<path d="M168.649 71.3067C171.645 71.1592 174.636 71.0072 177.631 70.8596C181.257 71.6912 182.576 72.8938 182.388 75.3347C182.254 77.1006 181.999 78.8576 181.784 80.6146C181.257 84.9466 180.604 89.2876 182.933 93.3648C183.85 95.7655 185.025 98.1037 185.629 100.58C186.63 104.716 185.826 105.829 181.802 107.063C181.552 107.139 181.351 107.376 181.131 107.537C179.062 107.912 176.987 108.261 174.922 108.672C171.685 109.316 168.471 110.089 165.216 110.626C164.179 110.796 163.043 110.385 161.952 110.241C158.792 108.668 158.287 105.418 157.603 102.579C155.953 95.7119 156.127 88.7243 157.594 81.8261C158.094 79.4701 158.796 77.0291 160.012 74.986C161.885 71.8387 165.35 71.566 168.654 71.3067H168.649ZM161.197 79.4298C161.17 79.5237 161.143 79.6176 161.116 79.707H178.963C178.963 79.6131 178.963 79.5192 178.963 79.4298H161.201H161.197Z" fill="#4C734D"/>
<path d="M163.748 117.814C169.497 116.473 175.25 115.15 180.995 113.782C181.836 113.581 182.631 113.192 183.445 112.888C183.579 112.95 183.713 113.075 183.847 113.071C188.533 112.968 189.592 116.25 190.504 119.92C191.251 122.933 192.418 125.835 193.37 128.799C193.777 130.068 194.434 131.378 194.367 132.635C194.313 133.694 193.616 135.317 192.789 135.639C184.187 139.032 175.872 143.4 166.403 144.093C164.074 143.096 163.046 141.232 162.621 138.808C161.901 134.687 160.958 130.6 160.243 126.478C159.46 121.95 160.453 119.656 163.748 117.81V117.814ZM185.569 120.448C185.506 120.193 185.444 119.942 185.381 119.688C179.404 120.899 173.422 122.111 167.445 123.322C167.498 123.573 167.548 123.818 167.601 124.069C173.592 122.862 179.578 121.655 185.569 120.448Z" fill="#4D754D"/>
<path d="M89.5876 201.027C90.741 201.018 92.0554 201.353 93.0166 200.92C94.6752 200.173 96.1013 198.917 97.6571 197.933C98.3188 197.517 99.0743 197.249 99.7851 196.914C100.684 197.701 102.164 198.353 102.383 199.297C103.223 202.949 103.912 206.673 104.18 210.406C104.515 215.087 105.092 219.647 106.759 224.078C108.127 227.712 109.013 231.472 107.738 235.375C104.895 233.028 104.537 232.943 101.891 235.853C100.348 237.552 98.5512 237.226 96.7719 237.114C95.0194 237.007 93.2401 236.72 91.5636 236.211C85.8636 234.476 80.168 232.706 74.5573 230.703C73.386 230.283 72.5902 228.812 71.6201 227.824C72.3533 226.255 72.9211 224.583 73.8599 223.148C75.286 220.97 77.423 220.604 79.8103 221.458C79.5823 221.681 79.1218 222.003 79.1666 222.119C79.779 223.662 80.1948 225.41 81.2454 226.59C81.7372 227.144 83.5165 226.733 84.6565 226.496C88.5951 225.678 90.5488 223.353 90.4236 219.437C90.2269 213.299 89.8693 207.161 89.5831 201.027H89.5876Z" fill="#FFB875"/>
<path d="M141.876 232.759C144.38 233.792 145.989 231.874 147.84 230.882C149.244 230.126 150.505 229.098 151.833 228.195C154.752 229.098 155.405 231.592 155.7 234.114C156.272 238.96 156.504 243.846 157.126 248.684C157.403 250.847 158.293 252.935 158.905 255.059C159.991 258.698 161.283 262.315 160.09 266.195C157.358 263.835 156.634 263.969 153.773 266.544C152.892 267.335 151.47 268.019 150.344 267.948C147.344 267.76 144.335 267.286 141.389 266.647C135.144 265.288 129.122 263.312 123.864 259.494C124.665 257.764 125.228 255.863 126.328 254.352C127.57 252.649 129.488 251.974 131.666 252.747C129.788 253.968 130.959 255.425 131.522 256.646C132.224 258.152 133.306 259.382 135.318 259.082C141.331 258.179 143.933 254.446 143.168 248.438C142.507 243.243 142.292 237.99 141.876 232.764V232.759Z" fill="#FFB875"/>
<path d="M147.67 40.9466C152.659 39.5249 157.676 38.2329 162.929 38.7113C170.099 39.364 176.291 41.9704 180.48 48.1399C182.483 51.086 183.145 54.3675 182.027 57.8724C171.405 52.387 160.032 51.2112 148.394 52.5613C142.753 53.2185 137.227 54.8413 131.647 56.0261C132.372 54.6581 133.096 53.2856 133.816 51.9131C137.343 46.8791 141.984 43.2579 147.666 40.9466H147.67Z" fill="#4D754D"/>
<path d="M147.67 40.9469C141.988 43.2582 137.347 46.8794 133.82 51.9133C133.109 52.3738 132.394 52.8253 131.687 53.2903C130.449 54.1084 129.215 54.931 127.981 55.7491C126.998 56.1113 126.189 57.2379 125.361 57.2468C123.815 57.2647 123.144 57.8548 122.643 59.1692C122.362 59.8979 121.754 60.497 121.293 61.1586C119.018 60.9351 116.483 61.9812 114.619 59.7772C114.654 59.3614 114.869 58.8428 114.699 58.5478C113.282 56.1515 113.353 55.8564 115.696 54.3051C116.165 53.9966 116.438 53.3931 116.8 52.9237C116.907 52.5705 116.903 52.0475 117.14 51.891C119.232 50.5185 121.061 48.8554 122.943 47.2192C124.49 45.878 125.871 43.6203 128.594 44.3758C128.634 44.3893 128.768 44.1612 128.817 44.0271C129.671 41.6756 131.321 41.604 133.44 42.6189C134.146 40.0483 136.198 39.9991 138.25 39.9454C140.763 40.9469 143.159 40.7501 145.417 39.2212C146.172 39.7979 146.923 40.3701 147.679 40.9469H147.67Z" fill="#2254B5"/>
<path d="M148.162 30.3064C147.974 31.0217 147.786 31.737 147.603 32.4523C146.794 32.8949 146.029 33.4895 145.166 33.7532C142.001 34.7323 138.854 34.2361 135.787 33.2793C128.759 31.0887 124.521 23.3545 125.303 16.8676C129.394 13.841 133.833 12.9379 138.706 14.6457C138.519 14.7575 138.344 14.9006 138.148 14.9766C134.625 16.3446 134.12 18.3117 136.547 21.1058C136.873 21.4769 137.392 22.067 137.285 22.371C136.368 25.0489 138.465 25.4557 140.079 26.1621C141.313 26.703 142.614 27.083 143.883 27.5346C144.679 27.8207 145.479 28.3751 146.262 28.3482C147.773 28.2946 148.256 28.9384 148.157 30.2974L148.162 30.3064Z" fill="#0C2C7E"/>
<path d="M125.299 16.8723C124.517 23.3547 128.76 31.0934 135.783 33.284C138.85 34.2407 141.997 34.737 145.162 33.7579C146.025 33.4897 146.79 32.8995 147.599 32.457C147.872 35.0365 148.01 37.5758 145.408 39.23C143.151 40.7589 140.759 40.9556 138.242 39.9542C135.591 39.2344 132.94 38.5191 130.289 37.7994C128.635 36.7711 126.98 35.7429 125.326 34.7191C125.045 34.4062 124.758 34.0977 124.477 33.7847C122.554 31.1515 120.628 28.5139 118.705 25.8806C118.379 24.9373 118.048 23.994 117.722 23.0507C117.941 19.0048 120.762 16.7114 125.299 16.8768V16.8723Z" fill="#2254B5"/>
<path d="M66.876 73.0145C68.6285 74.0964 70.381 75.1783 72.1335 76.2557C72.4375 79.0722 72.7415 81.8887 73.0455 84.7052C71.2125 84.8796 70.2066 85.9927 70.3765 87.7229C70.5866 89.8241 70.609 92.265 71.7132 93.8834C73.2779 96.1813 73.6043 98.439 73.4791 100.978C73.336 103.826 73.9396 106.41 76.1123 108.44C76.1928 109.177 76.2643 109.911 76.3537 110.648C77.3507 118.879 78.3476 127.105 79.3446 135.335C78.9914 137.718 76.7471 138.129 75.2271 139.296C74.0156 129.626 72.8085 119.952 71.597 110.282C71.6774 108.35 72.3302 106.2 71.6953 104.541C70.8996 102.458 72.0306 100.607 71.4986 98.6625C71.1767 97.4912 71.4986 96.1366 71.1365 94.9921C70.6403 93.4408 69.764 92.0102 69.0487 90.526C68.3245 84.6873 67.6002 78.8487 66.876 73.01V73.0145Z" fill="#575757"/>
<path d="M148.161 30.3068C148.259 28.9477 147.781 28.3039 146.266 28.3576C145.483 28.3844 144.683 27.83 143.887 27.5439C142.617 27.0879 141.312 26.7079 140.083 26.1714C138.469 25.4651 136.372 25.0583 137.288 22.3803C137.391 22.0763 136.873 21.4907 136.551 21.1151C134.119 18.321 134.628 16.3539 138.151 14.9859C138.353 14.9099 138.527 14.7668 138.71 14.6551C140.641 12.6746 142.425 12.4019 145.541 13.4882C145.957 13.6358 146.516 13.3541 147.008 13.3094C149.972 13.0367 151.907 15.3748 151.156 18.2495C151.027 18.7368 150.982 19.3492 151.165 19.7963C152.14 22.1792 151.246 25.8272 149.399 27.6691C148.756 28.3129 148.563 29.4171 148.166 30.3068H148.161Z" fill="#2254B5"/>
<path d="M60.8555 24.3606C62.4649 24.5171 64.0788 24.6735 65.6882 24.8345C66.9624 35.0946 68.232 45.3592 69.5061 55.6193C68.1247 57.1751 66.7478 58.7353 65.3663 60.2911C64.3336 52.2842 63.292 44.2818 62.2816 36.2748C61.7809 32.3049 61.3294 28.335 60.8555 24.3606Z" fill="#575757"/>
<path d="M117.721 23.0418C118.047 23.9851 118.378 24.9284 118.704 25.8717L118.664 25.7555C116.943 27.3739 116.643 30.852 118.056 32.8593C117.801 33.1902 117.542 33.521 117.287 33.8473C116.536 33.8384 115.785 33.8295 115.034 33.8161C115.002 32.7029 115.087 31.5718 114.895 30.4899C114.788 29.8774 114.341 29.104 113.827 28.8447C113.42 28.6391 112.535 28.9475 112.11 29.3141C110.505 30.6911 110.179 32.5822 110.509 34.5492C110.612 35.1662 111.207 36.0737 111.699 36.1542C112.257 36.2481 112.995 35.6401 113.572 35.2198C114.131 34.813 114.578 34.2586 115.074 33.7713C113.992 36.6281 113.237 37.1377 110.563 36.8248C108.726 33.3019 109.526 30.1322 112.861 27.6823C110.903 26.5826 108.945 25.4828 106.982 24.383C107.997 22.5679 106.423 22.7691 105.547 22.7065C104.698 22.6439 103.821 22.9301 102.959 23.0642C102.055 22.5903 101.121 22.17 100.258 21.6291C98.8724 20.7618 97.5401 19.8095 96.1855 18.8975C98.555 15.2942 100.093 14.8427 103.875 16.6086C108.489 18.7634 113.107 20.9004 117.721 23.0463V23.0418Z" fill="#3D3D3D"/>
<path d="M96.1857 18.8932C97.5403 19.8097 98.877 20.7574 100.258 21.6247C101.121 22.1657 102.056 22.5859 102.959 23.0598C101.998 23.3772 100.889 24.173 100.098 23.9271C97.7772 23.2163 96.2975 24.4859 95.381 26.0015C93.8028 28.5989 92.7075 31.487 91.4111 34.2498C90.812 34.5583 90.2174 34.8623 89.6183 35.1708C87.62 34.4376 86.8197 32.7566 86.5559 30.8745C86.0239 27.1102 86.8868 23.6321 89.368 20.7038C90.8388 18.9692 92.6181 17.8605 95.0323 19.072C95.3139 19.2151 95.7968 18.9602 96.1857 18.8887V18.8932Z" fill="#575757"/>
<path d="M163.746 117.815C160.456 119.661 159.459 121.955 160.241 126.483C160.952 130.61 161.895 134.691 162.619 138.813C163.044 141.232 164.068 143.101 166.402 144.098C165.87 144.16 165.333 144.223 164.801 144.285C164.654 144.259 164.506 144.2 164.363 144.214C159.181 144.683 158.824 143.203 157.943 137.977C157.469 135.156 156.991 132.331 156.401 129.528C155.73 126.34 154.791 123.175 156.982 120.184C158.39 118.262 161.694 117.099 163.746 117.81V117.815Z" fill="#253825"/>
<path d="M89.5876 201.027C89.8737 207.165 90.2314 213.299 90.4281 219.437C90.5532 223.358 88.6041 225.678 84.661 226.496C83.5209 226.733 81.7416 227.144 81.2499 226.59C80.1993 225.41 79.7835 223.662 79.171 222.119C79.1263 222.003 79.5868 221.681 79.8148 221.458C81.7103 222.133 83.5969 223.586 85.5372 221.551C87.1109 221.426 87.3746 220.429 87.3299 219.066C87.1377 213.366 86.9589 207.666 86.9052 201.966C86.8963 200.767 87.4506 199.569 87.7457 198.367C88.3626 199.252 88.9751 200.142 89.5921 201.027H89.5876Z" fill="#FFA653"/>
<path d="M131.652 56.0214C137.231 54.8367 142.761 53.2139 148.399 52.5567C160.036 51.2065 171.409 52.3823 182.031 57.8678C181.794 58.7351 181.557 59.6024 181.325 60.4652C176.514 57.309 171.132 55.5297 165.517 54.9082C160.241 54.3226 154.881 54.5372 149.557 54.4031C144.286 54.3986 139.211 55.5341 134.195 57.0363C133.042 57.3805 131.862 57.6219 130.69 57.908C131.012 57.2777 131.33 56.6518 131.652 56.0214Z" fill="#A8D99C"/>
<path d="M87.7415 198.367C87.4465 199.565 86.8921 200.767 86.901 201.966C86.9547 207.666 87.138 213.366 87.3257 219.066C87.3704 220.434 87.1112 221.426 85.533 221.551C84.6389 214.783 83.7045 208.019 82.8685 201.246C82.3231 196.824 81.9118 192.389 81.4424 187.959C81.724 187.914 82.2113 187.753 82.256 187.838C83.8118 190.677 85.3274 193.534 86.834 196.4C87.1693 197.039 87.4375 197.71 87.737 198.367H87.7415Z" fill="#575757"/>
<path d="M71.6257 227.824C72.5958 228.812 73.3871 230.283 74.5629 230.703C80.1736 232.706 85.8692 234.476 91.5692 236.211C93.2457 236.72 95.025 237.007 96.7775 237.114C98.5524 237.226 100.354 237.547 101.896 235.853C104.543 232.943 104.901 233.028 107.744 235.375C107.614 235.808 107.485 236.247 107.355 236.685C105.853 238.625 104.243 240.006 101.418 239.528C98.074 238.96 94.6361 238.956 91.2697 238.495C90.1386 238.343 89.097 237.547 87.5233 236.819C82.0736 237.547 77.1335 234.673 72.2203 231.713C71.1205 230.555 70.7718 229.281 71.6257 227.824Z" fill="#0C2C7E"/>
<path d="M69.05 90.5305C69.7653 92.0148 70.6416 93.4409 71.1378 94.9967C71.5044 96.1412 71.1781 97.4958 71.5 98.6671C72.032 100.612 70.9009 102.463 71.6967 104.546C72.3315 106.205 71.6788 108.355 71.5983 110.286C70.9992 109.705 70.4046 109.124 69.8056 108.543C68.6253 105.525 67.4496 102.507 66.2693 99.4897C65.9608 97.9518 64.2128 96.1903 66.618 95.3186V91.7868C67.3601 91.8449 68.0978 91.8985 68.898 91.9611C68.9427 91.5409 68.9919 91.0402 69.0456 90.535L69.05 90.5305Z" fill="#0C2C7E"/>
<path d="M89.6139 35.1749C90.2129 34.8664 90.8075 34.5624 91.4066 34.2539C95.0054 35.8544 97.2542 38.4071 97.2452 42.5469L94.0577 46.7762C93.2932 45.122 92.6181 43.4187 91.7463 41.8227C90.8075 40.106 89.6541 38.5412 87.3428 38.6843C88.0983 37.513 88.8583 36.3462 89.6139 35.1749Z" fill="#FFA653"/>
<path d="M66.3178 147.384C66.054 149.248 65.9065 151.139 65.4996 152.967C64.9721 155.319 65.2627 157.559 65.8841 159.83C66.13 160.733 66.1345 161.703 66.2507 162.642C65.3655 161.126 64.4848 159.611 63.5996 158.095C63.8902 155.23 64.1853 152.359 64.4759 149.494C65.0883 148.792 65.7053 148.09 66.3178 147.384Z" fill="#6679BD"/>
<path d="M66.2732 99.4854C67.4534 102.503 68.6292 105.521 69.8094 108.538C68.4012 106.106 66.9438 103.697 65.6473 101.207C65.455 100.84 66.0452 100.071 66.2732 99.4854Z" fill="#0C2C7E"/>
<path d="M64.4751 149.494C64.1845 152.359 63.8895 155.229 63.5989 158.095C63.0803 155.145 61.7123 152.109 64.4751 149.494Z" fill="#7787C4"/>
<path d="M139.186 247.038C139.11 244.213 138.895 241.383 138.998 238.567C139.101 235.701 139.516 232.849 139.794 229.992C140.487 230.913 141.184 231.834 141.877 232.759C142.288 237.985 142.507 243.238 143.169 248.433C143.933 254.442 141.336 258.175 135.318 259.078C133.302 259.382 132.22 258.152 131.523 256.641C130.955 255.421 129.788 253.963 131.666 252.743C133.503 253.096 134.988 254.786 137.272 253.53C138.922 252.622 139.959 251.867 139.588 249.891C139.409 248.947 139.315 247.991 139.186 247.038Z" fill="#FFA653"/>
<path d="M123.865 259.489C129.122 263.307 135.144 265.283 141.39 266.642C144.331 267.281 147.34 267.755 150.344 267.943C151.466 268.015 152.893 267.331 153.773 266.539C156.634 263.964 157.359 263.83 160.09 266.191C159.429 268.837 156.469 272.025 154.27 271.77C150.116 271.287 145.838 270.853 141.948 269.454C138.26 268.126 134.398 268.162 130.776 266.964C129.605 266.575 128.608 265.659 127.535 264.979C126.502 264.344 125.474 263.709 124.441 263.075C123.489 262.002 123.078 260.844 123.869 259.494L123.865 259.489Z" fill="#0C2C7E"/>
<path d="M124.436 263.075C125.468 263.709 126.497 264.344 127.529 264.979C126.792 265.632 126.058 266.289 125.115 267.121C124.851 265.551 124.641 264.313 124.436 263.075Z" fill="#CCCBCA"/>
<path d="M147.597 142.35C144.642 143.718 141.687 145.081 138.732 146.449C134.588 146.615 130.43 147.057 126.299 146.879C119.857 146.597 113.536 144.822 108.962 140.32C105.211 136.627 102.01 131.973 101.921 126.13C103.593 124.798 105.26 123.466 106.937 122.138C107.934 121.347 109.342 120.699 107.88 119.138C107.746 118.052 107.612 116.966 107.478 115.879C108.166 116.442 108.841 117.024 109.543 117.569C114.591 121.494 119.973 124.427 126.711 123.269C126.863 123.663 127.015 124.056 127.167 124.445C125.097 126.662 128.231 125.934 128.512 126.819C131.432 131.763 135.782 135.233 140.462 138.353C142.841 139.681 145.219 141.013 147.597 142.341V142.35Z" fill="#FFA653"/>
<path d="M168.651 71.3064C165.348 71.5657 161.887 71.8385 160.01 74.9858C158.794 77.0289 158.092 79.4698 157.591 81.8259C156.125 88.7241 155.95 95.7117 157.6 102.579C158.284 105.417 158.789 108.672 161.95 110.241C157.591 111.752 154.077 110.076 152.128 106.115C148.569 98.8948 149.508 91.4467 150.545 83.9584C150.849 81.7677 151.158 79.5592 151.712 77.4223C152.642 73.8145 155.029 71.5926 158.794 71.3556C162.066 71.15 165.365 71.3109 168.651 71.3064Z" fill="#253826"/>
<path d="M128.518 126.823C128.237 125.938 125.103 126.667 127.173 124.449C132.962 122.406 136.024 117.529 139.011 112.709C139.668 111.65 139.404 110.157 137.182 109.598C132.265 108.35 127.494 106.513 122.662 104.917C122.179 104.327 121.061 103.866 122.259 102.937C122.988 102.82 123.73 102.758 124.445 102.579C129.14 101.403 133.449 99.4628 136.619 95.6717C138.586 93.3157 138.175 92.0371 135.47 90.6959C133.364 89.6542 131.29 88.5455 129.202 87.4636C130.588 87.7453 131.974 88.0269 133.355 88.3086C134.835 88.8987 136.315 89.4888 137.795 90.0745C139.89 91.4842 140.109 93.3306 138.452 95.6136C138.067 96.1411 137.723 96.7 137.357 97.2454C133.668 100.491 129.439 102.749 124.602 103.902C124.615 104.103 124.629 104.305 124.642 104.506C129.175 105.802 133.713 107.099 138.246 108.395C139.337 108.748 140.428 109.102 141.425 109.423C140.929 111.23 140.45 112.973 139.972 114.721C139.717 114.846 139.391 114.909 139.216 115.106C136.091 118.62 132.984 122.147 129.792 125.764C131.344 126.121 133.306 126.881 135.3 126.971C138.707 127.127 142.131 126.868 145.547 126.787C146.481 127.024 147.411 127.257 148.81 127.61C147.697 128.03 147 128.294 146.302 128.558C144.992 128.692 143.651 129.081 142.382 128.92C137.746 128.321 133.132 127.534 128.514 126.814L128.518 126.823Z" fill="#74442E"/>
<path d="M130.691 57.9083C131.858 57.6222 133.042 57.3808 134.196 57.0365C139.212 55.5344 144.286 54.3989 149.557 54.4033C148.47 56.3391 147.384 58.2704 146.298 60.2062C144.903 60.9752 143.588 61.9855 142.1 62.4639C137.513 63.9258 132.828 64.9272 127.95 64.2387C128.862 62.1286 129.774 60.0185 130.686 57.9083H130.691Z" fill="#AFBC6E"/>
<path d="M128.518 126.823C133.141 127.538 137.75 128.325 142.386 128.929C143.656 129.094 144.997 128.705 146.307 128.567C148.153 134.289 147.094 136.064 140.464 138.357C135.783 135.232 131.433 131.768 128.514 126.823H128.518Z" fill="#AFBC6E"/>
<path d="M145.551 126.8C142.136 126.885 138.711 127.145 135.305 126.984C133.311 126.89 131.348 126.134 129.797 125.777C132.989 122.16 136.096 118.633 139.221 115.119C139.395 114.922 139.722 114.859 139.977 114.734C141.836 118.758 143.692 122.777 145.551 126.8Z" fill="#AFBC6E"/>
<path d="M137.799 90.0834C136.319 89.4932 134.839 88.9031 133.359 88.3175C132.47 87.7005 131.62 87.021 130.686 86.4756C128.308 85.0897 125.889 83.7663 123.488 82.4162L123.797 81.7233C124.15 81.6741 124.499 81.6249 124.852 81.5757C130.02 81.3746 134.839 79.8456 139.489 77.6863C139.055 80.5028 138.595 83.3148 138.192 86.1358C138.004 87.4457 137.928 88.769 137.799 90.0834Z" fill="#ACB86D"/>
<path d="M144.689 63.2148C143.419 66.4873 142.145 69.7643 140.875 73.0368C136.704 70.8283 132.537 68.6243 128.366 66.4158C128.532 66.2772 128.679 66.0492 128.862 66.0135C134.138 65.0702 139.413 64.1447 144.689 63.2148Z" fill="#ACB86E"/>
<path d="M138.251 108.409C133.718 107.112 129.18 105.816 124.647 104.519C124.633 104.318 124.62 104.117 124.606 103.916C129.444 102.762 133.673 100.504 137.361 97.2588C137.656 100.974 137.956 104.693 138.251 108.409Z" fill="#ACB86D"/>
<path d="M128.366 66.4158C132.537 68.6243 136.703 70.8328 140.875 73.0368C141.988 73.3318 143.101 73.6314 144.214 73.9264C144.308 74.1097 144.406 74.293 144.5 74.4808C142.833 75.5493 141.161 76.6178 139.493 77.6862C134.844 79.8456 130.029 81.3745 124.856 81.5757C124.472 81.2985 124.087 81.0169 123.403 80.5206C124.289 80.391 124.838 80.306 125.393 80.2256C130.275 79.9573 134.884 78.6743 139.216 76.43C139.806 76.126 140.208 75.4509 140.696 74.9457C140.155 74.5076 139.667 73.9711 139.068 73.6403C135.255 71.5481 131.415 69.5005 127.583 67.4395C127.284 66.7958 126.989 66.1565 126.689 65.5127C127.248 65.8122 127.807 66.1118 128.366 66.4113V66.4158Z" fill="#744630"/>
<path d="M128.365 66.4157C127.806 66.1162 127.248 65.8166 126.689 65.5171C126.532 65.2176 126.376 64.9136 126.215 64.614C126.796 64.4889 127.373 64.3637 127.954 64.2385C132.827 64.9225 137.512 63.9256 142.103 62.4637C143.592 61.9898 144.907 60.9749 146.301 60.206C147.146 60.0719 147.996 59.9422 148.845 59.8081C148.948 60.0227 149.046 60.2418 149.149 60.4563C147.66 61.3773 146.176 62.2983 144.688 63.2147C139.412 64.1446 134.137 65.07 128.861 66.0134C128.678 66.0446 128.531 66.2771 128.365 66.4157Z" fill="#774932"/>
<path d="M122.263 102.941C121.065 103.871 122.183 104.331 122.666 104.922C123.077 107.845 123.484 110.769 123.895 113.693C121.038 114.86 118.289 114.149 115.414 113.519C109.173 112.155 105.261 108.114 103.505 102.44C102.262 98.4257 102.454 93.9596 102.007 89.699C102.668 91.1833 104.023 90.2176 104.895 90.2668C107.738 90.4367 110.675 90.4367 113.452 89.8823C116.483 89.2743 118.562 86.0599 118.602 82.9171C118.642 79.6535 118.915 76.4436 120.444 73.4751C121.49 75.5897 122.532 77.7043 123.578 79.8234C123.452 81.0036 123.327 82.1794 123.202 83.3597C122.889 89.8868 122.581 96.4184 122.268 102.946L122.263 102.941Z" fill="#FFA653"/>
<path d="M99.7357 99.4674C99.7089 96.11 99.6821 92.7525 99.6553 89.3906C100.438 89.4934 101.224 89.5963 102.007 89.6991C102.454 93.9641 102.262 98.4258 103.504 102.44C105.261 108.114 109.173 112.151 115.414 113.519C118.289 114.149 121.038 114.86 123.895 113.693C124.932 116.621 125.978 119.55 126.984 122.491C127.056 122.697 126.81 123.01 126.716 123.278C119.979 124.436 114.601 121.503 109.549 117.578C108.847 117.033 108.172 116.451 107.483 115.888C103.053 111.288 100.321 105.887 99.7357 99.4674Z" fill="#4D754D"/>
<path d="M123.573 79.8187C122.526 77.7041 121.485 75.5895 120.439 73.4704C118.324 68.2487 115.534 63.7021 109.468 62.3966C111.184 61.5249 112.901 60.6486 114.618 59.7769C116.482 61.9764 119.022 60.9347 121.293 61.1583C122.933 62.3117 124.574 63.4651 126.215 64.6186C126.371 64.9181 126.528 65.2221 126.689 65.5216C126.988 66.1654 127.283 66.8047 127.583 67.4485C126.398 71.5615 125.213 75.6744 124.024 79.7874C123.872 79.8008 123.725 79.8098 123.573 79.8232V79.8187Z" fill="#4D754D"/>
<path d="M161.197 79.4297H178.959C178.959 79.5236 178.959 79.6175 178.959 79.7069H161.112C161.139 79.613 161.166 79.5191 161.193 79.4297H161.197Z" fill="#A8A8A8"/>
<path d="M185.568 120.448C179.578 121.655 173.591 122.862 167.601 124.069C167.547 123.819 167.498 123.573 167.444 123.322C173.422 122.111 179.403 120.899 185.381 119.688C185.443 119.943 185.506 120.193 185.568 120.448Z" fill="#9EA49E"/>
<path d="M126.215 64.614C124.574 63.4606 122.934 62.3072 121.293 61.1537C121.753 60.4965 122.366 59.893 122.643 59.1643C123.148 57.8544 123.814 57.2598 125.361 57.2419C126.184 57.233 126.997 56.1108 127.981 55.7443C129.215 54.9261 130.449 54.0991 131.687 53.2854C132.394 52.8205 133.109 52.3645 133.82 51.9084C133.095 53.2809 132.371 54.6489 131.647 56.0214C131.325 56.6518 131.008 57.2777 130.686 57.908C129.774 60.0182 128.862 62.1283 127.95 64.2385C127.369 64.3636 126.792 64.4888 126.211 64.614H126.215Z" fill="#FFA653"/>
<path d="M116.8 52.9234C112.79 50.0979 111.681 46.8612 113.259 41.9882C113.822 40.2536 114.761 38.6442 115.53 36.9811C117.757 39.6053 119.491 39.7663 121.959 37.3298C122.974 36.3239 123.649 34.9693 124.48 33.7756C124.762 34.0886 125.048 34.3971 125.33 34.71C124.919 35.7338 124.364 36.7263 124.136 37.7903C123.841 39.1672 124.016 40.5263 125.764 40.875C127.887 41.2997 129.729 40.0166 130.292 37.7903C132.943 38.51 135.594 39.2253 138.246 39.9451C136.194 39.9988 134.142 40.0479 133.435 42.6186C131.316 41.6037 129.671 41.6752 128.813 44.0268C128.763 44.1609 128.629 44.3845 128.589 44.3755C125.866 43.62 124.485 45.8777 122.938 47.2188C121.056 48.8551 119.223 50.5182 117.135 51.8907C116.898 52.0471 116.903 52.5702 116.795 52.9234H116.8Z" fill="#88482A"/>
<path d="M124.476 33.7757C123.644 34.9694 122.973 36.324 121.954 37.3299C119.486 39.7663 117.756 39.6054 115.525 36.9811C116.111 35.935 116.697 34.8889 117.282 33.8472C117.537 33.5164 117.796 33.1856 118.051 32.8592C118.252 30.4898 118.458 28.1248 118.659 25.7554L118.7 25.8716C120.622 28.5093 122.549 31.1425 124.471 33.7757H124.476Z" fill="#FDCDA0"/>
<path d="M130.293 37.7949C129.729 40.0212 127.888 41.3043 125.764 40.8796C124.016 40.5264 123.846 39.1674 124.137 37.7949C124.365 36.7309 124.919 35.7384 125.33 34.7146C126.984 35.7428 128.639 36.7711 130.293 37.7949Z" fill="#FACA9D"/>
<path d="M73.0509 84.7051C73.1939 85.4159 73.3325 86.1223 73.4756 86.8331C74.0344 89.6317 74.705 92.2426 77.9283 93.3334C80.8566 94.3259 80.5884 97.0485 80.718 99.4627C78.8582 102.378 79.5065 105.458 80.1323 108.534C78.7956 108.502 77.4589 108.471 76.1177 108.44C73.945 106.41 73.3415 103.826 73.4845 100.978C73.6097 98.4389 73.2833 96.1767 71.7186 93.8833C70.6188 92.2649 70.592 89.824 70.3819 87.7228C70.212 85.9882 71.2134 84.8794 73.0509 84.7051Z" fill="#0C2C7E"/>
<path d="M106.169 36.5384C106.026 37.1196 106.075 38.0048 105.713 38.2373C103.831 39.4264 101.863 40.4815 99.8875 41.5142C99.0559 41.9479 98.1305 42.2117 97.2498 42.5514C97.2587 38.4116 95.01 35.8544 91.4111 34.2584C92.7076 31.4911 93.8029 28.603 95.3811 26.0101C96.2975 24.499 97.7818 23.2249 100.098 23.9357C100.889 24.1771 101.998 23.3858 102.959 23.0684C103.822 22.9343 104.698 22.6481 105.547 22.7107C106.419 22.7733 107.997 22.5766 106.982 24.3872C102.91 26.4795 100.697 29.8548 100.008 34.3389C99.8025 35.6935 99.9366 36.5026 101.622 36.4132C103.133 36.3328 104.653 36.4892 106.173 36.5429L106.169 36.5384Z" fill="#0C2C7E"/>
<path d="M106.169 36.5385C104.654 36.4848 103.129 36.3284 101.618 36.4088C99.9326 36.4982 99.7985 35.6935 100.004 34.3345C100.688 29.8504 102.901 26.4751 106.978 24.3828C108.936 25.4826 110.899 26.5824 112.857 27.6821C109.522 30.1321 108.722 33.2973 110.559 36.8246C109.097 36.7307 107.631 36.6324 106.169 36.5385Z" fill="#575757"/>
<path d="M115.07 33.7713C114.574 34.2586 114.122 34.813 113.568 35.2198C112.991 35.64 112.258 36.248 111.695 36.1541C111.207 36.0692 110.613 35.1661 110.506 34.5492C110.175 32.5821 110.506 30.691 112.106 29.3141C112.531 28.9475 113.42 28.6435 113.823 28.8447C114.337 29.104 114.779 29.8729 114.891 30.4899C115.083 31.5717 114.999 32.7028 115.03 33.816L115.07 33.7713Z" fill="#969696"/>
<path d="M118.664 25.751C118.463 28.1204 118.257 30.4854 118.056 32.8548C116.643 30.8475 116.943 27.3693 118.664 25.751Z" fill="#312F2E"/>
<path d="M99.7357 99.4673C100.321 105.883 103.053 111.283 107.483 115.888C107.617 116.974 107.752 118.061 107.886 119.143C105.016 118.235 102.074 117.506 99.2931 116.38C94.2189 114.323 89.2386 112.03 84.2181 109.839C82.5997 107.295 83.1854 104.568 83.6772 101.904C83.8023 101.22 84.5758 100.652 85.0497 100.031C89.945 99.8428 94.8404 99.6551 99.7312 99.4673H99.7357Z" fill="#FFB875"/>
<path d="M126.716 123.273C126.815 123.009 127.056 122.696 126.985 122.486C125.979 119.545 124.933 116.621 123.895 113.688C123.484 110.764 123.073 107.841 122.666 104.917C127.499 106.513 132.264 108.35 137.187 109.598C139.409 110.161 139.668 111.654 139.015 112.709C136.024 117.528 132.962 122.406 127.177 124.449C127.025 124.056 126.873 123.662 126.721 123.273H126.716Z" fill="#AFBC6F"/>
<path d="M85.0499 100.026C84.576 100.647 83.8026 101.211 83.6774 101.899C83.1856 104.564 82.6 107.291 84.2184 109.835C82.4033 110.823 81.308 109.544 80.1277 108.534C79.5018 105.458 78.8536 102.378 80.7134 99.4626C82.1574 99.6504 83.6059 99.8382 85.0499 100.026Z" fill="#FFA653"/>
<path d="M122.264 102.941C122.577 96.4137 122.885 89.8821 123.198 83.355C125.201 84.7275 127.204 86.1 129.207 87.4724C131.294 88.5499 133.369 89.6631 135.474 90.7047C138.175 92.0414 138.59 93.3245 136.623 95.6805C133.454 99.4716 129.144 101.412 124.45 102.588C123.735 102.766 122.992 102.829 122.264 102.945V102.941Z" fill="#ACB86D"/>
<path d="M129.206 87.4681C127.203 86.0956 125.2 84.7231 123.197 83.3506C123.322 82.1704 123.448 80.9946 123.577 79.8143C123.729 79.8009 123.877 79.792 124.029 79.7786C124.485 79.9261 124.941 80.0736 125.397 80.2212C124.847 80.3016 124.297 80.3866 123.407 80.5162C124.091 81.0125 124.476 81.2896 124.86 81.5713C124.507 81.6205 124.158 81.6696 123.805 81.7188L123.497 82.4118C125.898 83.7619 128.316 85.0852 130.695 86.4711C131.624 87.0121 132.478 87.6961 133.368 88.313C131.982 88.0314 130.596 87.7497 129.215 87.4681H129.206Z" fill="#784E37"/>
<path d="M125.389 80.2256C124.933 80.0781 124.477 79.9306 124.021 79.7831C125.205 75.6701 126.39 71.5571 127.579 67.4441C131.41 69.5051 135.251 71.5526 139.064 73.6449C139.663 73.9757 140.151 74.5077 140.692 74.9503C140.204 75.4555 139.802 76.1261 139.212 76.4345C134.88 78.6788 130.27 79.9619 125.389 80.2301V80.2256Z" fill="#ACB86D"/>
</svg>
