<svg width="345" height="205" viewBox="0 0 345 205" fill="none" xmlns="http://www.w3.org/2000/svg">
<path d="M52.3541 151.519C52.6114 151.283 52.8467 151.019 53.1335 150.817C54.4754 149.867 55.071 148.692 54.5159 147.141C53.9387 145.523 52.7695 144.598 50.8835 144.564C48.9275 144.53 46.9679 144.547 45.0084 144.547C31.8537 144.547 18.699 144.547 5.54437 144.547C4.99289 144.547 4.43774 144.581 3.89361 144.52C1.58474 144.273 0.0222129 142.817 0.000153702 140.932C-0.018229 139.122 1.61415 137.588 3.90464 137.422C5.7907 137.287 7.6878 137.294 9.58121 137.237C9.86063 137.321 10.14 137.476 10.4195 137.476C15.7615 137.49 21.0998 137.493 26.4418 137.473C26.8242 137.473 27.2029 137.247 27.5852 137.125C28.5191 137.105 29.4529 137.081 30.3868 137.061C30.9493 137.203 31.5081 137.47 32.0706 137.473C37.5707 137.504 43.0745 137.493 48.5746 137.473C49.0378 137.473 49.4974 137.301 49.957 137.21C52.0379 137.166 54.1151 137.125 56.1961 137.081C56.7475 137.216 57.299 137.453 57.8579 137.466C59.902 137.514 61.9498 137.483 63.9977 137.483C64.4793 137.385 64.9646 137.287 65.4499 137.186C65.6889 137.186 65.9279 137.186 66.1668 137.186C66.9132 137.257 67.6595 137.331 68.4022 137.402C68.6301 137.402 68.8544 137.402 69.0823 137.402C69.9537 137.328 70.8213 137.257 71.6927 137.183C71.9316 137.183 72.1743 137.183 72.4133 137.183C73.3876 137.183 74.3655 137.183 75.3398 137.183C75.4648 137.183 75.5898 137.186 75.7148 137.189C75.9979 137.254 76.2847 137.318 76.5678 137.382C86.601 137.409 96.6343 137.446 106.668 137.449C107.686 137.449 108.708 137.254 109.726 137.145C110.282 137.145 110.837 137.145 111.392 137.145C111.774 137.152 112.157 137.159 112.539 137.166L115.41 137.159H116.197C117.414 137.159 118.631 137.159 119.844 137.156C120.212 137.156 120.58 137.149 120.951 137.145C122.047 137.152 123.142 137.159 124.238 137.166L125.014 137.156C125.241 137.149 125.469 137.142 125.697 137.135C129.455 137.139 133.209 137.145 136.966 137.149C139.253 137.145 141.536 137.139 143.823 137.135C152.882 137.135 161.941 137.139 171 137.142C172.456 137.139 173.911 137.135 175.364 137.132C175.632 137.243 175.9 137.449 176.169 137.449C180.823 137.47 185.478 137.48 190.132 137.439C190.489 137.439 190.846 137.027 191.199 136.808L193.401 137.135C193.647 137.145 193.893 137.156 194.14 137.162C195.118 137.156 196.096 137.149 197.074 137.142C197.316 137.142 197.563 137.142 197.805 137.142C198.783 137.26 199.761 137.379 200.736 137.497C198.824 138.919 198.092 140.595 198.71 142.145C199.357 143.77 200.923 144.577 203.475 144.577C212.045 144.584 220.611 144.584 229.181 144.587C231.262 144.587 233.343 144.544 235.424 144.604C237.163 144.655 238.611 145.787 238.931 147.314C239.269 148.922 238.633 150.286 237.063 150.986C236.019 151.452 234.732 151.658 233.563 151.638C231.685 151.604 230.31 152.242 229.501 153.715C228.67 155.235 229.056 156.644 230.402 157.84C230.648 158.056 230.751 158.411 230.92 158.698C229.879 158.728 228.839 158.722 227.802 158.793C225.6 158.941 223.898 160.539 223.927 162.38C223.957 164.201 225.534 165.681 227.692 165.88C228.24 165.931 228.795 165.903 229.343 165.903C243.431 165.903 257.52 165.903 271.608 165.903C273.424 165.903 275.141 166.052 276.197 167.751C277.465 169.795 276.333 172.427 273.836 172.927C272.829 173.129 271.777 173.204 270.744 173.207C256.593 173.224 242.446 173.244 228.295 173.19C226.203 173.183 224.802 173.981 223.703 175.47C222.659 176.886 223.306 178.889 225.346 179.592C228.582 180.703 231.784 180.696 235.067 180.7C239.538 180.706 244.008 180.69 248.483 180.706C251.325 180.717 252.95 182.054 252.953 184.331C252.957 186.662 251.24 188.142 248.409 188.165C244.979 188.192 241.549 188.172 238.119 188.172C219.251 188.172 200.386 188.176 181.518 188.169C178.011 188.169 176.169 186.291 176.823 183.453C177.235 181.666 178.555 180.72 180.827 180.71C186.706 180.686 192.588 180.71 198.467 180.686C199.375 180.683 200.309 180.609 201.188 180.402C203.25 179.919 204.294 178.426 204.07 176.47C203.857 174.606 202.379 173.268 200.291 173.251C194.103 173.204 187.919 173.231 181.732 173.204C181.081 173.204 180.43 173.048 179.779 172.967C179.956 172.619 180.081 172.237 180.323 171.933C181.272 170.765 181.684 169.535 180.849 168.187C180.033 166.876 178.739 166.505 177.128 166.512C168.194 166.555 159.257 166.528 150.323 166.535C148.069 166.535 146.536 167.822 146.757 169.859C146.871 170.927 147.676 171.93 148.168 172.964C144.245 172.964 140.323 172.964 136.4 172.964C136.705 172.498 136.992 172.018 137.323 171.565C138.962 169.315 138.069 166.934 135.234 166.153C134.492 165.947 133.679 165.876 132.896 165.876C124.756 165.856 116.616 165.876 108.476 165.856C105.668 165.849 104.296 164.502 104.407 161.971C104.487 160.147 106.304 158.786 108.785 158.772C112.885 158.749 116.988 158.793 121.087 158.755C123.701 158.732 125.043 157.431 125.01 155.077C124.977 152.756 123.602 151.671 120.638 151.668C98.7263 151.665 76.8178 151.668 54.9056 151.658C54.0563 151.658 53.2034 151.56 52.3541 151.506V151.519ZM210.03 158.441C211.986 158.441 213.942 158.492 215.894 158.428C217.824 158.364 218.773 157.252 218.776 155.242C218.776 153.212 217.842 152.029 215.927 152.043C211.85 152.067 207.769 152.161 203.699 152.367C201.548 152.475 201.026 153.273 201.114 155.573C201.18 157.32 202.177 158.374 203.986 158.428C206 158.492 208.015 158.441 210.03 158.441Z" fill="#BFD56F"/>
<path d="M32.339 44.9597C37.784 43.926 41.6664 40.4296 46.001 37.6427C47.1003 36.9366 48.2106 36.2137 49.3981 35.6529C52.1445 34.3557 54.3357 34.778 56.4755 36.8387C58.0711 38.3757 59.5491 40.0547 61.3469 41.362C64.2587 43.4801 67.9389 43.1558 71.3728 43.5071C74.7994 43.8584 76.2369 45.1421 76.4832 48.3378C76.6413 50.412 76.6009 52.5132 76.9612 54.5604C77.5788 58.0804 79.7774 60.8403 82.4686 63.3063C84.0311 64.7353 85.6084 66.1575 87.09 67.654C88.7114 69.2958 88.8915 71.326 87.1525 72.7617C83.6635 75.6433 82.8914 79.2106 83.0091 83.2745C83.0605 85.1021 82.3363 86.9499 81.9649 88.7876C81.5862 88.0883 81.2186 87.3789 80.8215 86.6864C78.6266 82.8387 75.7222 79.4977 71.3324 77.7614C68.1448 76.498 64.6595 75.873 61.3064 74.9609C64.4168 69.6268 68.6779 65.2994 74.4721 62.2659C74.064 62.2152 73.667 62.1983 73.4059 62.3605C70.7405 63.9989 67.8544 65.4244 65.5087 67.3905C62.9241 69.5593 60.8359 72.228 58.5307 74.6805C56.3872 74.5724 54.2438 74.4643 52.0967 74.3528C51.5673 73.1198 50.5121 71.8463 50.6151 70.6572C50.821 68.2959 51.3688 65.8737 52.321 63.6746C53.3173 61.3707 54.9571 59.2999 56.3137 57.1244C56.435 57.0095 56.56 56.898 56.6814 56.7866C56.8027 56.6717 56.9277 56.5602 57.049 56.4487C57.1703 56.3339 57.2954 56.2224 57.4167 56.1075C57.4829 56.0434 57.5527 55.9826 57.6226 55.9217C57.5196 55.9521 57.413 55.9792 57.3101 56.0096C57.1851 56.1211 57.0637 56.2359 56.9387 56.3474C56.8174 56.4589 56.6924 56.5704 56.5711 56.6852C56.4497 56.7967 56.3247 56.9115 56.2034 57.023C55.2108 57.9824 53.9901 58.8168 53.2769 59.9282C51.6849 62.4044 50.3504 65.0157 48.9533 67.4952C47.2952 64.7454 45.5378 61.8301 43.7841 58.9182C43.5414 59.0364 43.2951 59.1512 43.0524 59.2695C43.3355 59.8438 43.6407 60.4079 43.8944 60.9923C45.7253 65.2015 47.5452 69.414 49.3724 73.6232C45.1554 73.4002 41.3833 72.0659 38.2987 69.4275C33.7802 65.5629 32.3059 60.4417 32.0302 55.0232C31.8611 51.6822 32.2177 48.3176 32.339 44.9665V44.9597ZM58.4498 55.3711C58.5013 55.3508 58.5638 55.3373 58.6042 55.3036C58.6263 55.2833 58.6189 55.2292 58.6226 55.1921C58.5638 55.2529 58.5049 55.3103 58.4498 55.3711C58.3946 55.3846 58.3285 55.3846 58.2843 55.4116C58.2549 55.4285 58.2549 55.486 58.2439 55.5231C58.3138 55.4725 58.3799 55.4218 58.4498 55.3711Z" fill="#93B252"/>
<path d="M257.737 44.9427C262.781 43.8246 266.564 40.7268 270.627 38.048C272.108 37.0717 273.671 36.1663 275.296 35.4096C277.538 34.3658 279.55 34.9367 281.266 36.5379C281.351 36.619 281.45 36.6933 281.516 36.7845C284.961 41.7234 290.09 43.5611 296.23 43.4901C300.12 43.4462 301.697 45.9832 301.888 49.2296C302.032 51.6787 302.116 54.1853 302.767 56.5399C303.635 59.6815 306.112 61.9719 308.624 64.1609C309.168 64.6339 309.546 65.2622 310.002 65.8196C304.076 65.2217 301.708 66.3939 298.998 71.0895C297.837 73.1029 296.491 75.025 295.226 76.9877C294.995 76.9979 294.763 77.0114 294.531 77.0215C291.818 76.3391 289.105 75.6567 286.392 74.9743C289.881 69.2923 294.487 64.6508 300.888 61.5665C298.623 62.3604 296.41 63.2556 294.432 64.4717C290.105 67.1303 286.884 70.8159 283.866 74.6467C281.634 74.5419 279.402 74.4372 277.171 74.3291C275.616 71.8665 275.568 69.3329 276.336 66.5932C277.38 62.8536 279.52 59.7288 282.053 56.7594C282.171 56.6446 282.292 56.5297 282.41 56.4149C282.531 56.3034 282.656 56.1885 282.778 56.0771C282.829 56.0027 282.884 55.9318 282.936 55.8575C282.855 55.9048 282.774 55.9521 282.693 55.9994C282.568 56.1108 282.447 56.2257 282.322 56.3372C282.193 56.4453 282.064 56.55 281.936 56.6581C280.877 57.5601 279.538 58.2999 278.822 59.391C277.083 62.0395 275.634 64.8467 274.079 67.5729C272.443 64.7859 270.689 61.7996 268.935 58.8134C268.788 58.8843 268.641 58.9519 268.494 59.0228C270.531 63.8839 272.568 68.7484 274.601 73.6096C266.983 73.2177 260.336 68.7721 258.104 60.7592C256.645 55.5197 256.7 50.2363 257.729 44.9427H257.737Z" fill="#93B252"/>
<path d="M52.354 151.52C53.2033 151.574 54.0563 151.672 54.9055 151.672C76.8177 151.682 98.7262 151.675 120.638 151.682C123.602 151.682 124.98 152.769 125.01 155.09C125.043 157.445 123.701 158.745 121.087 158.769C116.988 158.803 112.885 158.762 108.785 158.786C106.304 158.799 104.487 160.164 104.406 161.985C104.296 164.515 105.664 165.863 108.476 165.87C116.616 165.89 124.756 165.87 132.896 165.89C133.675 165.89 134.488 165.964 135.234 166.167C138.069 166.947 138.959 169.326 137.323 171.579C136.992 172.032 136.709 172.511 136.4 172.977C128.727 173.059 121.054 173.136 113.381 173.217C111.37 173.238 109.359 173.268 107.348 173.292C106.899 173.184 106.447 172.988 105.998 172.984C100.403 172.964 94.807 172.964 89.2113 172.984C88.7628 172.984 88.3143 173.187 87.8657 173.298C83.1487 173.271 78.4354 173.275 73.7184 173.19C72.6485 173.17 71.4867 173.028 70.5419 172.613C68.9095 171.89 68.1484 170.204 68.5271 168.812C69.0087 167.035 70.4867 165.907 72.4978 165.897C77.5199 165.87 82.5421 165.897 87.5642 165.883C89.3547 165.88 91.0165 165.299 91.4981 163.681C91.807 162.64 91.6599 161.022 90.9503 160.306C90.0937 159.441 88.4429 158.897 87.1084 158.843C82.645 158.668 78.1707 158.776 73.6963 158.776C60.4056 158.776 47.115 158.779 33.8243 158.772C31.7654 158.772 30.2874 157.766 29.8463 156.144C29.4014 154.499 30.1735 152.8 31.8757 152.026C32.4897 151.746 33.2765 151.702 33.986 151.692C40.1075 151.617 46.2289 151.574 52.3503 151.52H52.354Z" fill="#AAC155"/>
<path d="M131.966 47.9151C135.675 38.7705 139.381 29.6225 143.091 20.4779C143.687 19.005 144.275 17.5288 144.859 16.0559C145.503 14.431 146.11 12.8805 147.878 11.8164C148.86 11.2252 149.422 9.97529 150.04 8.95171C151.429 6.65796 152.731 4.32029 154.069 1.99951C154.235 2.00627 154.404 2.01303 154.569 2.0164C154.871 3.03998 155.106 4.08382 155.492 5.07699C155.764 5.77289 156.238 6.4046 156.624 7.06333C156.977 8.18825 157.382 9.30642 157.672 10.4448C158.385 13.2082 159.533 16.0357 158.385 18.8328C157.477 21.0522 156.191 23.2074 154.702 25.1465C150.257 30.9366 146.407 36.9159 145.977 44.2296C145.584 50.8777 144.871 57.5327 144.959 64.1775C145.043 70.5959 142.764 76.1394 139.312 81.4668C138.403 80.9127 137.477 80.3824 136.587 79.8047C132.694 77.2745 129.003 77.8623 126.403 81.5444C124.98 83.5578 123.73 85.6759 122.403 87.7467C121.955 87.919 121.502 88.0913 121.054 88.2669C120.738 87.4832 120.429 86.6995 120.109 85.9191C119.532 84.5172 118.947 83.1153 118.363 81.7134C122.896 70.4473 127.429 59.1812 131.962 47.9185L131.966 47.9151Z" fill="#A4D5CC"/>
<path d="M139.315 81.4671C142.768 76.1398 145.047 70.5963 144.962 64.1779C144.874 57.5331 145.587 50.8781 145.981 44.23C146.411 36.9163 150.26 30.937 154.705 25.1469C156.194 23.2045 157.481 21.0526 158.389 18.8332C159.533 16.0361 158.389 13.2086 157.676 10.4452C157.382 9.30681 156.981 8.18865 156.628 7.06373C157.029 6.57052 157.382 6.0334 157.845 5.59762C158.841 4.6585 160.198 4.81051 160.812 6.00299C161.805 7.92515 162.599 9.93177 163.617 11.8404C164.371 13.2559 165 14.9415 167.29 14.8098C167.327 15.1983 167.308 15.6003 167.404 15.9752C168.419 19.9277 169.687 23.8429 170.415 27.8393C171.136 31.7849 170.481 35.7677 168.062 39.1324C166.481 41.3282 166.294 43.2942 167.235 45.5846C167.467 46.1555 167.558 46.7737 167.713 47.3716C166.5 50.2329 164.897 53.0097 164.165 55.969C162.996 60.7119 161.573 65.1035 157.205 68.3499C154.275 70.5288 153.543 73.6941 154.077 77.0756C154.231 78.0687 154.51 79.045 154.735 80.0281C152.849 78.9944 150.893 79.1329 148.974 79.8592C147.238 80.5145 145.565 81.3118 143.852 82.0178C142.231 82.6867 140.694 82.6157 139.323 81.4671H139.315Z" fill="#B4DFD7"/>
<path d="M230.92 158.698C230.751 158.408 230.648 158.056 230.401 157.84C229.056 156.644 228.67 155.236 229.501 153.715C230.31 152.243 231.685 151.604 233.563 151.638C234.732 151.658 236.019 151.452 237.063 150.986C238.633 150.287 239.266 148.922 238.931 147.314C238.611 145.787 237.163 144.655 235.424 144.605C233.346 144.544 231.262 144.588 229.181 144.588C220.611 144.588 212.045 144.588 203.475 144.578C200.923 144.578 199.353 143.767 198.71 142.145C198.096 140.598 198.827 138.919 200.739 137.497C200.868 137.382 200.993 137.264 201.122 137.149C201.489 137.149 201.857 137.149 202.225 137.149C203.327 137.605 204.386 137.744 205.552 137.18C206.147 136.892 206.938 136.94 207.64 136.835C219.512 136.936 231.379 137.034 243.251 137.136C244.556 137.136 245.861 137.136 247.167 137.136C248.086 137.136 249.005 137.136 249.924 137.136C258.09 137.136 266.255 137.136 274.424 137.132C276.708 137.136 278.994 137.142 281.277 137.146C285.814 137.359 290.347 137.575 294.884 137.788C296.112 139.081 296.906 140.52 296.105 142.233C295.73 143.03 295.031 143.699 294.48 144.426C293.381 144.473 292.285 144.557 291.186 144.561C277.792 144.571 264.398 144.561 251.005 144.574C248.479 144.574 246.858 145.757 246.692 147.615C246.505 149.753 247.861 151.233 250.42 151.628C250.957 151.712 251.516 151.678 252.067 151.678C257.817 151.678 263.564 151.678 269.314 151.685C270.229 151.685 271.145 151.733 272.064 151.76C272.149 151.962 272.189 152.199 272.325 152.368C274.641 155.222 274.424 156.654 271.351 158.712C257.876 158.708 244.398 158.705 230.924 158.698H230.92Z" fill="#AAC255"/>
<path d="M295.23 76.9844C296.495 75.0217 297.84 73.0996 299.002 71.0862C301.712 66.3906 304.076 65.2184 310.006 65.8163H309.969C310.193 65.9379 310.414 66.0595 310.638 66.1778C312.227 67.2115 313.852 68.1979 315.388 69.2924C317.521 70.8126 319.65 70.8599 322.054 69.7822C324.51 68.681 327.061 67.725 329.639 66.8804C331.786 66.1778 333.856 66.8365 335.374 68.2283C339.466 71.9814 341.407 76.4743 340.076 81.8354C339.852 82.7441 339.459 83.7137 338.837 84.4298C337.065 86.4804 336.176 88.5714 337.705 91.0611C336.94 91.6996 336.194 92.3549 335.411 92.9731C332.15 95.5371 328.808 98.1011 324.139 97.5539C322.076 97.314 320.098 96.4763 318.08 95.9121C319.194 93.6893 320.308 91.4631 321.422 89.2403C322.808 87.8113 324.19 86.379 325.572 84.9501C326.003 84.6764 326.436 84.4028 326.87 84.1292C326.764 84.0008 326.661 83.8724 326.554 83.7441C326.153 84.065 325.749 84.3893 325.348 84.7102C324.675 85.1291 323.999 85.5514 323.116 86.102C323.264 85.1933 323.378 84.494 323.491 83.7981C323.473 82.3861 323.455 80.974 323.433 79.5619C323.253 79.5721 323.072 79.5856 322.892 79.5957V83.7914C322.267 85.4703 321.642 87.1492 321.017 88.8282C319.657 90.9665 318.297 93.1015 316.94 95.2399L314.432 94.5473C312.892 92.0306 314.249 89.6524 315.157 87.2539C314.988 87.21 314.822 87.1661 314.653 87.1222C314.135 87.8992 313.62 88.6795 312.977 89.6457C311.756 86.7337 310.602 83.9907 309.451 81.2442C309.234 81.3017 309.017 81.3591 308.8 81.4132C309.462 83.3691 310.127 85.325 310.789 87.281C310.671 87.3283 310.554 87.3722 310.436 87.4195C308.973 86.4398 307.51 85.4568 306.046 84.4771C305.921 84.6359 305.8 84.7947 305.675 84.9534C306.076 85.2676 306.513 85.548 306.874 85.8959C309.138 88.085 312.296 89.7234 312.363 93.2907C309.524 93.0373 306.682 92.8245 303.851 92.5171C300.278 92.132 297.454 90.5544 296.667 87.2235C295.877 83.8691 295.689 80.393 295.234 76.9709L295.23 76.9844Z" fill="#CCD562"/>
<path d="M257.737 44.9429C256.711 50.2398 256.652 55.5198 258.112 60.7593C260.343 68.7722 266.99 73.2179 274.608 73.6097C275.277 76.0927 275.946 78.5756 276.616 81.0585C270.358 74.7482 262.711 69.637 259.457 69.7485C261.722 71.191 264.281 72.6199 266.586 74.336C271.461 77.9641 275.193 82.4469 276.071 88.2708C276.652 92.1287 276.355 96.098 276.45 100.017C275.961 100.017 275.465 99.9626 274.987 100.033C270.49 100.692 266.097 100.287 261.784 98.9863C261.31 98.7667 260.84 98.5505 260.365 98.3309C260.792 95.5237 259.516 93.4056 257.086 91.8652C255.053 90.5781 254.038 88.7708 253.347 86.6797C252.534 84.2272 251.597 81.8084 250.714 79.3762C249.508 76.498 248.255 76.2312 246.078 78.4878C245.211 79.3863 244.567 80.4707 243.825 81.4706C241.005 80.1532 239.398 77.9067 238.266 75.3055C237.953 73.2347 237.843 71.2011 239.269 69.3668C239.457 69.1269 239.383 68.7182 239.435 68.3871C241.008 67.269 242.586 66.1542 244.159 65.036C244.891 64.7455 245.619 64.455 246.35 64.1645C250.181 62.2457 251.56 58.8777 250.505 54.0064C250.464 52.4964 250.339 50.9864 250.398 49.4797C250.497 46.9562 251.953 45.5577 254.652 45.2435C255.678 45.1253 256.711 45.0476 257.74 44.9496L257.737 44.9429Z" fill="#86A248"/>
<path d="M136.966 137.153C133.209 137.149 129.455 137.143 125.697 137.139C127.05 135.285 128.521 133.491 129.705 131.548C130.282 130.599 130.466 129.336 128.947 128.663C127.558 128.049 126.473 128.603 125.499 129.474C125.065 129.863 124.675 130.292 124.264 130.7C124.172 129.883 124.466 129.271 124.591 128.633C125.006 126.498 125.561 124.36 125.679 122.204C125.782 120.269 124.462 118.6 122.995 118.363C120.973 118.039 120.087 119.478 119.19 120.738C118.797 121.289 118.502 121.944 118.359 122.59C117.984 124.262 117.723 125.958 117.561 126.826C116.66 125.197 115.528 122.873 114.12 120.701C113.388 119.573 112.065 118.911 110.48 119.363C108.932 119.806 108.583 120.985 108.495 122.282C108.473 122.617 108.499 122.958 108.506 123.296C107.995 123.123 107.484 122.954 106.973 122.779C102.528 121.259 98.1675 119.465 93.6233 118.276C86.1415 116.313 78.4833 115.083 70.6412 115.168C70.2552 115.171 69.8691 114.948 69.4831 114.833C71.8214 113.725 74.156 112.621 76.4943 111.513C77.1413 111.357 77.8031 111.249 78.4318 111.043C81.9907 109.884 85.5312 108.689 89.0938 107.54C91.3806 106.804 93.6894 106.138 95.9909 105.439C100.642 104.53 105.293 103.618 109.943 102.709C111.546 102.577 113.153 102.446 114.756 102.314C115.664 104.878 117.605 106.594 120.194 107.692C122.83 108.813 124.811 110.574 126.514 112.688C128.271 114.874 130.995 115.691 133.815 114.867C135.426 114.394 136.97 113.729 138.543 113.151C138.97 121.204 138.477 129.204 136.977 137.149L136.966 137.153Z" fill="#DDEF9D"/>
<path d="M131.966 47.9158C127.433 59.1819 122.899 70.448 118.366 81.7107C116.418 77.9711 114.462 74.2382 112.528 70.4953C109.815 65.2355 107.116 59.969 104.414 54.7058C104.289 54.591 104.16 54.4728 104.035 54.3579L104.043 54.368C104.193 53.5438 104.23 52.6891 104.506 51.9054C107.73 42.7506 110.991 33.606 114.234 24.4546C114.66 23.2486 115.113 22.1068 116.752 21.9143C118.517 21.7082 119.267 22.7521 119.877 23.9918C123.484 31.292 127.087 38.5955 130.712 45.8889C131.061 46.5949 131.547 47.2435 131.966 47.9192V47.9158Z" fill="#E3F4F2"/>
<path d="M32.339 44.9595C32.2177 48.314 31.861 51.6752 32.0302 55.0162C32.3022 60.4313 33.7765 65.556 38.2987 69.4205C41.3796 72.0555 45.1517 73.3899 49.3687 73.6162C50.2106 75.9539 51.093 78.2848 51.0967 80.6393C48.4496 78.3726 46.0194 75.9235 43.1958 73.954C38.8869 70.9475 35.5045 69.6165 33.3978 69.5895C34.0008 69.907 34.3978 70.1333 34.8133 70.3293C38.9935 72.2886 42.6958 74.8019 45.6407 78.2037C49.3246 82.4568 51.6592 87.1591 51.4533 92.7195C51.3614 95.1282 51.229 97.5368 51.1151 99.942C47.5525 99.9319 43.9899 99.9251 40.4274 99.915C41.6002 96.1146 40.1406 93.3817 36.6589 91.1791C35.5265 90.4629 34.7986 89.0104 34.2434 87.7604C33.0118 84.9836 32.0044 82.1223 30.9051 79.2982C30.3684 78.5483 29.9897 77.4538 29.2397 77.1599C28.6955 76.947 27.3646 77.5956 26.9014 78.2003C25.6183 79.8624 24.6072 81.7034 23.4896 83.4736C20.1402 82.4635 17.0152 81.1427 14.8239 78.4334C11.0849 73.8121 12.7688 67.6774 18.4564 65.3127C19.4564 64.8972 20.5152 64.5763 21.4601 64.073C24.8278 62.2792 25.7984 59.3875 25.6072 56.033C25.4969 54.0737 25.2727 52.1177 25.1477 50.155C24.9675 47.2667 26.5227 45.5642 29.611 45.223C30.5191 45.1216 31.4272 45.0473 32.3353 44.9629L32.339 44.9595Z" fill="#86A248"/>
<path d="M167.709 47.3716C167.555 46.7737 167.467 46.1555 167.231 45.5845C166.294 43.2908 166.481 41.3247 168.058 39.1323C170.478 35.7711 171.132 31.7849 170.411 27.8392C169.68 23.8429 168.415 19.9276 167.4 15.9752C167.305 15.6002 167.323 15.1982 167.286 14.8097C168.161 12.8538 167.161 11.0668 166.636 9.25609C166.055 7.25286 165.308 5.29016 164.665 3.30044C164.496 2.77007 164.341 2.20254 164.371 1.65866C164.404 1.10127 164.672 0.554014 164.834 0C165.437 0.310788 166.125 0.537123 166.632 0.945877C168.904 2.77007 169.617 5.37799 170.562 7.84403C172.853 13.8199 175.139 19.7992 177.309 25.8157C178.448 28.9743 179.044 32.3152 180.412 35.3758C181.842 38.5682 183.713 41.6321 185.743 44.5441C187.842 47.5574 188.603 50.8882 188.875 54.2664C189.081 56.7966 189.699 59.1072 190.743 61.3976C191.776 63.6609 192.754 65.9446 193.754 68.218C195.971 73.7481 198.188 79.2814 200.408 84.8115C200.033 90.3077 199.658 95.8039 199.287 101.3C198.772 101.324 198.261 101.344 197.747 101.364C198.394 98.1247 197.239 95.5337 194.507 93.4358C193.338 92.5373 192.305 91.4833 191.235 90.4766C189.5 88.8382 188.713 86.8856 189.25 84.6256C189.728 82.6021 190.346 80.6057 190.934 78.6058C191.529 76.5857 192.136 74.5757 191 72.5454C190.886 69.5457 188.662 67.7721 186.346 66.2148C183.643 64.3974 181.79 62.2252 181.187 59.1478C180.279 54.4893 178.724 50.0234 176.125 45.9055C175.992 45.6521 175.882 45.392 175.728 45.1521C174.04 42.5273 172.117 42.4159 170.047 44.8008C169.29 45.6758 168.489 46.5169 167.705 47.375L167.709 47.3716Z" fill="#CCEADF"/>
<path d="M107.186 180.605C108.469 180.645 109.756 180.662 111.039 180.727C112.977 180.825 114.488 182.041 114.73 183.655C115.039 185.726 114.072 187.307 112.057 187.881C111.37 188.077 110.62 188.162 109.896 188.162C81.4796 188.175 53.0599 188.175 24.644 188.169C21.3608 188.169 19.6034 186.621 19.802 183.966C19.9233 182.311 21.3829 180.902 23.1881 180.747C23.8572 180.689 24.5337 180.703 25.2065 180.703C38.9862 180.703 52.7658 180.706 66.5455 180.7C73.5861 180.696 80.6266 180.669 87.6672 180.652C87.9797 180.679 88.2922 180.71 88.6084 180.737L107.19 180.602L107.186 180.605Z" fill="#BFD56F"/>
<path d="M109.932 102.709C105.281 103.617 100.631 104.53 95.9799 105.438C95.2225 102.911 94.7445 100.273 93.6416 97.8847C91.9062 94.1282 91.5202 90.365 92.2555 86.3991C93.0974 81.8453 95.2887 77.7916 97.535 73.7412C98.9468 71.1941 100.013 68.451 98.8034 65.6844C97.263 62.1576 97.149 58.9179 99.6417 55.7695C100.704 54.5635 101.267 55.2797 101.932 56.1952C102.675 57.2187 103.576 58.1444 104.406 59.1105C104.406 62.796 104.212 66.4917 104.462 70.1604C104.778 74.7884 106.009 79.2847 108.844 83.1797C110.66 85.6728 112.98 87.855 115.076 90.1758C113.363 94.3546 111.646 98.5333 109.932 102.712V102.709Z" fill="#B4DFD7"/>
<path d="M69.472 114.833C69.858 114.951 70.2478 115.171 70.6301 115.167C78.4722 115.083 86.1267 116.312 93.6122 118.275C98.16 119.468 102.517 121.258 106.962 122.778C107.473 122.954 107.984 123.123 108.495 123.295C109.105 125.329 109.719 127.362 110.329 129.393C109.399 129.187 108.914 128.653 108.293 128.403C107.429 128.055 106.465 127.92 105.543 127.693C103.561 125.4 101.289 126.217 98.9652 127.318C98.9652 126.339 99.0056 125.498 98.9579 124.66C98.8292 122.447 97.399 120.582 95.0938 120.039C89.9724 118.829 84.7223 122.143 85.7885 127.46C85.9098 128.065 86.0164 128.67 86.1304 129.274C86.0826 129.318 86.0348 129.362 85.987 129.41C82.4134 128.933 82.1708 129.065 80.4575 132.166C80.3582 132.345 79.77 132.294 79.4097 132.352C78.7332 129.609 76.8508 131.747 75.3692 131.548C75.4537 131.105 75.553 130.693 75.6045 130.274C75.7809 128.781 76.1743 127.264 76.0089 125.802C75.917 124.977 75.0346 124.025 74.2184 123.565C73.8287 123.346 72.4096 123.961 72.0713 124.515C71.1044 126.092 70.45 127.832 69.847 129.132C69.2735 128.143 68.597 126.552 67.5051 125.258C66.9756 124.633 65.5602 124.184 64.7366 124.369C64.0896 124.515 63.652 125.724 63.2917 126.528C63.1337 126.879 63.3726 127.4 63.494 127.829C63.8763 129.16 64.2881 130.487 64.7991 132.169C64.1373 131.646 63.8322 131.261 63.4241 131.115C62.6888 130.855 61.8947 130.737 61.1263 130.558C61.0564 131.23 60.6961 132.034 60.9682 132.555C61.8542 134.247 62.9719 135.841 64.0013 137.47C61.9535 137.47 59.9057 137.5 57.8615 137.453C57.3063 137.439 56.7549 137.203 56.2034 137.068C56.0784 130.021 55.9534 122.974 55.8284 115.927C60.3762 115.559 64.9278 115.188 69.4757 114.819L69.472 114.833Z" fill="#D0E489"/>
<path d="M151.477 197.33C160.974 197.33 170.467 197.337 179.963 197.324C181.853 197.324 183.305 197.959 184.11 199.577C184.853 201.06 184.511 202.445 183.43 203.671C182.301 204.948 180.676 204.989 179.073 204.992C164.985 204.999 150.896 204.992 136.808 204.992C132.091 204.992 127.374 205.016 122.657 204.982C120.021 204.961 118.388 203.823 118.072 201.918C117.624 199.205 119.333 197.357 122.444 197.34C128.631 197.303 134.819 197.33 141.003 197.33C144.496 197.33 147.985 197.33 151.477 197.33Z" fill="#C1D673"/>
<path d="M199.291 101.3C199.666 95.8038 200.041 90.3076 200.412 84.8113C202.368 80.7812 204.35 76.7579 206.265 72.7109C206.739 71.7042 206.997 70.613 207.353 69.5591C210.342 63.421 213.313 57.2728 216.328 51.1448C216.927 49.9253 217.703 48.7734 218.394 47.5911C219.842 46.8445 220.486 45.7804 219.949 44.2535C220.173 44.0305 220.398 43.8042 220.618 43.5812C220.945 43.1995 221.229 42.7705 221.615 42.4495C222.273 41.9023 223.089 40.926 223.673 41.0172C224.953 41.2165 224.523 42.3347 224.313 43.1961C224.262 43.4055 224.313 43.6353 224.32 43.8582C222.931 45.8783 221.534 47.8917 220.159 49.922C220.008 50.1449 219.853 50.4658 219.909 50.6989C220.475 53.0569 219.92 55.7155 222.1 57.6511C222.295 57.8234 222.383 58.1477 222.42 58.4146C222.879 61.8231 221.876 64.904 219.615 67.5626C215.923 71.9069 212.225 76.2647 210.004 81.4197C208.993 83.7709 208.328 86.3788 208.217 88.8955C208.066 92.3412 208.592 95.8139 208.831 99.2765C205.651 99.9521 202.467 100.628 199.287 101.303L199.291 101.3Z" fill="#A4D5CC"/>
<path d="M99.6417 55.7693C97.149 58.9177 97.263 62.1539 98.8035 65.6841C100.013 68.4474 98.9469 71.1904 97.5351 73.7409C95.2887 77.7913 93.0975 81.8451 92.2556 86.3988C91.5203 90.3681 91.9063 94.128 93.6416 97.8845C94.7483 100.276 95.2225 102.911 95.9799 105.438C93.6821 106.137 91.3695 106.806 89.0827 107.539C85.5201 108.684 81.976 109.884 78.4207 111.042C77.7921 111.245 77.1303 111.356 76.4832 111.512C78.6744 105.272 80.862 99.0297 83.0605 92.7902C86.9871 81.6424 90.8805 70.481 94.8953 59.3602C95.5718 57.4921 96.7961 55.7895 97.8145 53.9248C98.5939 54.7119 99.116 55.2423 99.6417 55.7693Z" fill="#A4D5CC"/>
<path d="M61.3064 74.9614C64.6594 75.8701 68.1448 76.4984 71.3323 77.7618C75.7221 79.5016 78.6266 82.8392 80.8215 86.6869C81.2186 87.3794 81.5825 88.0888 81.9649 88.7881C80.2149 92.1054 76.803 93.1796 73.3067 93.8282C70.5198 94.3451 68.1999 95.4328 66.3359 97.2807C63.5307 100.064 60.2182 101.304 56.1115 100.639C55.8247 100.591 55.5085 100.679 55.207 100.703C55.1593 98.0171 55.3173 95.3112 55.0048 92.6493C54.6923 89.9873 54.5489 87.4199 55.8688 84.9573C57.663 81.6163 59.4902 78.2888 61.3064 74.9546V74.9614Z" fill="#86A248"/>
<path d="M61.3065 74.9608C59.494 78.295 57.663 81.6191 55.8689 84.9635C54.549 87.4227 54.6887 89.9901 55.0049 92.6555C55.3174 95.3141 55.1593 98.0233 55.2071 100.709C55.413 105.786 55.6189 110.864 55.8248 115.941C55.9498 122.988 56.0748 130.035 56.1998 137.081C54.1189 137.122 52.0416 137.166 49.9607 137.21C48.4276 136.237 49.4313 134.882 49.4717 133.754C49.6666 128.227 50.0269 122.704 50.3247 117.181C50.5894 111.435 50.8504 105.688 51.1151 99.9421C51.2291 97.5335 51.3615 95.1283 51.4534 92.7197C51.6629 87.1592 49.3283 82.4569 45.6408 78.2038C42.6922 74.802 38.9936 72.2887 34.8134 70.3294C34.3979 70.1334 34.0008 69.9071 33.3979 69.5896C35.5045 69.6166 38.887 70.9476 43.1959 73.9541C46.0194 75.9236 48.4496 78.3727 51.0968 80.6395C51.0968 78.2849 50.2107 75.954 49.3688 73.6163C47.5452 69.4038 45.7253 65.1946 43.8944 60.9855C43.6407 60.401 43.3356 59.8369 43.0525 59.2626C43.2951 59.1444 43.5415 59.0295 43.7841 58.9113C45.5415 61.8232 47.2952 64.7386 48.9533 67.4884C50.3504 65.0088 51.685 62.3975 53.2769 59.9214C53.9902 58.8099 55.2108 57.9755 56.2035 57.0195L56.3211 57.1276C54.9645 59.2998 53.3284 61.3739 52.3284 63.6778C51.3762 65.877 50.8284 68.2991 50.6225 70.6604C50.5195 71.8495 51.571 73.1197 52.1041 74.3527C52.7585 76.7309 53.413 79.1058 54.1262 81.7137C55.6814 79.2308 57.1079 76.9573 58.5344 74.6804C60.8396 72.2279 62.9242 69.5592 65.5125 67.3904C67.8581 65.4243 70.7442 63.9988 73.4097 62.3604C73.6744 62.1982 74.0678 62.2185 74.4759 62.2658C68.6816 65.3027 64.4205 69.6301 61.3102 74.9608H61.3065Z" fill="#4F6425"/>
<path d="M294.48 144.428C295.031 143.702 295.734 143.033 296.105 142.236C296.906 140.523 296.112 139.084 294.884 137.794C295.002 137.601 295.116 137.409 295.234 137.216C295.359 137.189 295.487 137.166 295.612 137.138C296.23 137.149 296.851 137.159 297.469 137.169C297.704 137.179 297.943 137.186 298.179 137.196C299.046 137.189 299.91 137.179 300.778 137.172C301.013 137.179 301.252 137.189 301.487 137.196C302.351 137.176 303.215 137.159 304.079 137.138C304.315 137.132 304.554 137.122 304.789 137.115C305.271 136.895 305.752 136.679 306.234 136.459C306.947 136.693 307.646 137.068 308.377 137.122C309.752 137.226 311.146 137.152 312.528 137.149C312.771 137.159 313.013 137.169 313.256 137.179C314.363 137.172 315.469 137.169 316.576 137.162L317.672 137.172C318.778 137.179 319.888 137.182 320.995 137.189C321.238 137.172 321.477 137.159 321.719 137.142C321.958 137.142 322.197 137.138 322.436 137.135C322.822 137.253 323.205 137.47 323.591 137.473C327.418 137.497 331.245 137.497 335.069 137.473C335.4 137.473 335.727 137.274 336.054 137.169C337.764 137.257 339.477 137.314 341.183 137.443C343.168 137.591 344.694 138.949 344.856 140.628C345.018 142.304 343.753 143.874 341.834 144.331C341.308 144.456 340.753 144.543 340.212 144.543C325.33 144.553 310.447 144.553 295.565 144.543C295.201 144.543 294.84 144.469 294.476 144.428H294.48Z" fill="#C0D670"/>
<path d="M23.4895 83.4701C24.6072 81.7 25.6182 79.8589 26.9013 78.1969C27.3646 77.5956 28.6992 76.9436 29.2396 77.1564C29.9896 77.4503 30.3683 78.5448 30.9051 79.2948C30.3793 81.146 29.8573 82.9972 29.3315 84.8484C29.0668 85.6186 28.7984 86.3889 28.5337 87.1624C24.0851 89.9798 22.2285 92.9357 24.6439 97.7867C25.4381 99.3845 25.666 100.864 24.4822 102.374C24.2873 102.621 24.3131 103.013 24.2395 103.337C22.8719 104.827 21.3755 106.235 20.2064 107.847C19.7542 108.472 19.8755 109.587 20.0446 110.424C20.8571 114.438 23.9858 116.36 27.8867 117.532C27.8756 119.123 27.8609 120.714 27.8499 122.302C24.0704 122.261 20.3277 121.842 17.21 119.748C15.7394 118.762 14.482 117.326 13.5739 115.86C12.1768 113.596 12.618 111.299 14.4526 109.286C14.9636 108.725 15.5041 108.185 16.0703 107.671C18.1181 105.81 18.6916 103.739 17.4453 101.246C15.7651 97.8846 16.3828 94.8815 19.4674 92.429C21.1181 91.1182 22.0814 89.5204 22.4527 87.5509C22.7101 86.176 23.1366 84.8248 23.4895 83.4634V83.4701Z" fill="#EA943C"/>
<path d="M115.076 90.1759C112.98 87.8552 110.657 85.6729 108.844 83.1798C106.009 79.2848 104.778 74.7885 104.462 70.1605C104.212 66.4918 104.407 62.7962 104.407 59.1106C104.392 58.5025 104.528 57.8506 104.333 57.2932C103.951 56.1953 103.388 55.1481 102.748 53.7495C103.399 54.0603 103.723 54.2157 104.043 54.3711L104.035 54.361C104.16 54.4758 104.289 54.594 104.414 54.7089C107.116 59.972 109.815 65.2385 112.528 70.4983C114.462 74.2413 116.421 77.9775 118.366 81.7137C118.947 83.1156 119.535 84.5176 120.113 85.9195C120.433 86.6998 120.745 87.4836 121.058 88.2673C119.569 89.3855 118.08 90.507 116.594 91.6252L115.076 90.1759Z" fill="#CCEADF"/>
<path d="M318.072 95.9155C320.091 96.4796 322.069 97.314 324.131 97.5572C328.8 98.1045 332.142 95.5439 335.403 92.9765C336.187 92.3617 336.933 91.7029 337.698 91.0645C342.091 97.3512 340.135 104.064 333.084 106.932C330.712 107.894 328.278 107.85 325.933 107.013C323.12 106.006 320.304 105.54 317.33 106.131C315.977 102.628 316.565 99.2429 318.072 95.9188V95.9155Z" fill="#B8C146"/>
<path d="M320.995 137.19C319.888 137.183 318.778 137.179 317.672 137.173C317.352 132.207 317.991 127.319 319.297 122.481C317.01 127.184 316.543 132.136 316.576 137.163C315.469 137.169 314.363 137.173 313.256 137.179C312.929 131.825 310.517 123.816 309.366 123.339C310.392 127.822 311.458 132.487 312.528 137.152C311.142 137.152 309.752 137.23 308.377 137.125C307.649 137.068 306.947 136.693 306.234 136.463C306.491 135.923 306.785 135.392 306.995 134.838C307.414 133.724 307.789 132.592 308.182 131.467C308.164 131.328 308.146 131.193 308.124 131.055L308.138 131.065C307.859 130.217 307.612 129.356 307.293 128.518C306.311 125.93 305.234 123.353 306.646 120.603C309.19 119.627 310.848 120.775 312.234 122.579C312.877 123.947 313.521 125.319 314.175 126.711C314.403 126.194 314.602 125.741 314.8 125.288C315.205 122.88 316.517 120.927 318.407 119.269C321.021 119.41 322.168 120.387 322.381 122.944C322.484 124.157 322.234 125.396 322.142 126.626C321.565 128.258 320.984 129.893 320.407 131.524C322.017 130.288 323.161 128.511 325.668 129.112L325.708 129.136C325.83 129.231 325.947 129.325 326.069 129.42C326.186 129.541 326.308 129.666 326.425 129.788C326.223 130.744 326.264 131.822 325.771 132.632C324.811 134.213 323.561 135.646 322.429 137.142C322.19 137.142 321.951 137.146 321.712 137.149C322.436 135.318 323.161 133.484 323.885 131.653C322.179 133.217 321.304 135.092 320.988 137.196L320.995 137.19Z" fill="#93B252"/>
<path d="M148.172 172.974C147.679 171.941 146.878 170.937 146.76 169.87C146.54 167.833 148.073 166.546 150.326 166.546C159.26 166.539 168.198 166.566 177.132 166.522C178.746 166.515 180.04 166.887 180.853 168.198C181.687 169.546 181.276 170.775 180.327 171.944C180.084 172.245 179.959 172.63 179.783 172.978C176.981 173.059 174.184 173.191 171.382 173.207C164.856 173.241 158.33 173.231 151.804 173.207C150.591 173.204 149.378 173.059 148.165 172.978L148.172 172.974Z" fill="#AAC155"/>
<path d="M207.353 69.5591C206.997 70.6131 206.739 71.7042 206.265 72.7109C204.35 76.7579 202.368 80.7813 200.412 84.8114C198.195 79.2814 195.978 73.7514 193.757 68.218C194.496 67.0796 195.346 65.9884 195.945 64.7926C196.467 63.7487 196.897 62.6035 197.015 61.4752C197.133 60.3402 197.467 59.2727 198.651 59.2153C199.555 59.1714 200.761 59.7423 201.375 60.401C202.305 61.3942 202.864 62.6914 203.533 63.8771C204.375 65.3669 205.122 66.9005 206.011 68.3666C206.302 68.843 206.897 69.1639 207.35 69.5557L207.353 69.5591Z" fill="#E3F4F2"/>
<path d="M44.7951 165.903C47.365 165.903 49.9349 165.873 52.5048 165.91C55.196 165.947 56.7843 167.265 56.935 169.501C57.0821 171.636 55.5894 173.389 52.9754 173.467C47.4753 173.629 41.9641 173.639 36.464 173.474C33.8463 173.396 32.5485 171.693 32.7213 169.356C32.8721 167.312 34.4419 165.967 36.9015 165.917C39.5303 165.859 42.1627 165.903 44.7951 165.903Z" fill="#C1D673"/>
<path d="M318.348 151.375C320.914 151.375 323.48 151.334 326.047 151.388C328.003 151.429 329.635 152.513 330.135 153.986C330.705 155.658 330.275 157.101 328.756 158.172C328.253 158.526 327.558 158.841 326.947 158.847C321.157 158.905 315.355 159.057 309.576 158.827C306.737 158.716 305.351 156.165 306.399 153.753C307.149 152.027 308.749 151.409 310.649 151.385C313.216 151.355 315.782 151.378 318.348 151.378V151.375Z" fill="#C1D673"/>
<path d="M271.347 158.708C274.421 156.651 274.638 155.218 272.321 152.364C272.185 152.195 272.145 151.958 272.06 151.756C279.524 151.732 286.987 151.671 294.451 151.709C296.811 151.719 298.267 153.185 298.263 155.212C298.263 157.255 296.815 158.732 294.473 158.745C286.763 158.786 279.053 158.728 271.347 158.711V158.708Z" fill="#BFD56F"/>
<path d="M27.5889 137.125C27.2066 137.247 26.8279 137.473 26.4455 137.473C21.1035 137.497 15.7652 137.494 10.4232 137.477C10.1437 137.477 9.86432 137.318 9.5849 137.237C12.7173 134.761 15.721 132.119 19.0263 129.852C21.7469 127.988 24.8242 126.562 27.7433 124.94C27.6919 129.001 27.6404 133.061 27.5852 137.122L27.5889 137.125Z" fill="#D1E589"/>
<path d="M88.6048 180.74C88.2923 180.713 87.9798 180.686 87.6636 180.656C88.4651 179.663 89.5643 178.767 89.9982 177.656C90.7372 175.754 89.3254 174.447 87.8658 173.298C88.3143 173.19 88.7629 172.987 89.2114 172.984C94.8071 172.964 100.403 172.964 105.998 172.984C106.451 172.984 106.899 173.183 107.348 173.291C104.804 175.278 103.8 177.234 107.12 180.453C101.333 180.439 95.5498 180.416 89.7666 180.423C89.3768 180.423 88.9908 180.632 88.6011 180.74H88.6048Z" fill="#C4D87A"/>
<path d="M244.152 65.0292C242.578 66.1474 241.001 67.2622 239.427 68.3804C238.898 66.2623 238.707 64.0091 237.766 62.0599C235.674 57.7223 233.21 53.5402 230.898 49.2939C230.975 48.4359 231.251 47.5474 231.085 46.7299C230.714 44.8753 230.085 43.0646 229.652 41.2168C229.541 40.7405 229.769 40.1966 229.843 39.6831L231.266 40.1662C232.008 41.683 232.725 43.2133 233.505 44.7131C234.468 46.5644 235.483 48.3953 236.483 50.233C238.034 53.0774 239.633 55.9015 241.13 58.7696C242.203 60.8269 243.148 62.9416 244.148 65.0326L244.152 65.0292Z" fill="#CCEADF"/>
<path d="M131.095 188.172C129.69 188.172 128.282 188.223 126.878 188.162C124.352 188.051 122.734 186.473 122.804 184.271C122.87 182.058 124.366 180.744 126.947 180.713C129.819 180.683 132.694 180.676 135.565 180.72C137.915 180.754 139.672 182.392 139.661 184.433C139.65 186.352 137.911 188.031 135.679 188.155C134.157 188.24 132.624 188.172 131.098 188.172V188.179L131.095 188.172Z" fill="#C0D670"/>
<path d="M27.5889 137.125C27.6404 133.065 27.6918 129.004 27.747 124.944C27.7837 124.065 27.8205 123.187 27.8573 122.309C27.8683 120.718 27.883 119.127 27.894 117.539C27.9198 116.248 27.872 114.951 27.9896 113.664C28.1845 111.526 27.7617 109.58 26.5227 107.722C25.8389 106.698 25.4859 105.489 24.9859 104.364C25.9087 105.54 26.8315 106.712 27.7543 107.888C27.8757 107.854 28.0007 107.82 28.122 107.786C28.2617 100.915 28.3977 94.0406 28.5374 87.1695C28.8021 86.3993 29.0705 85.6291 29.3352 84.8555C29.3352 88.6795 29.3352 92.5069 29.3352 96.331C29.4823 96.3445 29.6257 96.358 29.7728 96.3682C30.5264 95.3615 31.2838 94.3548 32.0375 93.3481C32.1662 93.419 32.2985 93.4934 32.4272 93.5643C32.1552 94.1014 31.9419 94.6723 31.6 95.1689C30.0522 97.4289 29.5338 99.851 29.6919 102.53C29.9014 106.114 29.7617 109.715 29.8279 113.306C29.85 114.438 30.0411 115.566 30.1551 116.694C30.2764 116.718 30.3978 116.745 30.5228 116.769C31.736 114.914 32.9493 113.06 34.1625 111.205C34.3317 111.293 34.5008 111.381 34.6699 111.468C33.5118 113.6 32.3537 115.732 31.1993 117.863C30.0411 119.093 29.9639 120.545 30.1661 122.056C30.1661 122.579 30.1588 123.099 30.1551 123.623C30.2323 128.102 30.3132 132.582 30.3904 137.065C29.4566 137.085 28.5227 137.108 27.5889 137.129V137.125Z" fill="#905D3B"/>
<path d="M318.414 119.262C316.524 120.92 315.212 122.87 314.807 125.282C314.782 124.62 314.76 123.957 314.734 123.295C314.774 122.758 314.811 122.221 314.852 121.684C314.822 116.978 314.793 112.272 314.76 107.57C313.958 102.814 313.157 98.0572 312.355 93.3008C312.289 89.7301 309.135 88.0951 306.866 85.9061C306.506 85.5581 306.068 85.2744 305.668 84.9636C305.793 84.8048 305.914 84.646 306.039 84.4873C307.502 85.4669 308.965 86.45 310.429 87.4296C310.546 87.3823 310.664 87.3384 310.782 87.2911C310.12 85.3352 309.454 83.3792 308.793 81.4233C309.01 81.3659 309.226 81.3084 309.443 81.2544C310.598 84.0008 311.749 86.7472 312.969 89.6558C313.613 88.6897 314.127 87.9127 314.646 87.1323C314.815 87.1763 314.98 87.2202 315.149 87.2641C314.241 89.6626 312.885 92.0408 314.425 94.5575C314.789 96.0506 315.153 97.5471 315.624 99.4794C316.149 97.7802 316.543 96.5168 316.933 95.25C318.293 93.1116 319.653 90.9767 321.01 88.8383C321.146 88.9734 321.278 89.1085 321.414 89.2471C320.3 91.4699 319.186 93.6961 318.072 95.9189C316.565 99.2463 315.977 102.628 317.33 106.131C317.69 110.509 318.05 114.887 318.414 119.265V119.262Z" fill="#526626"/>
<path d="M231.269 40.1628L229.846 39.6797C229.773 40.1932 229.541 40.7371 229.655 41.2134C230.085 43.0612 230.714 44.8719 231.089 46.7265C231.254 47.544 230.979 48.4325 230.902 49.2905C229.946 47.8345 228.813 46.4495 228.078 44.9057C226.835 42.291 226.515 42.1255 224.328 43.8551C224.321 43.6355 224.269 43.4024 224.321 43.193C224.53 42.3316 224.96 41.2134 223.681 41.0141C223.096 40.9229 222.28 41.8992 221.622 42.4464C221.236 42.7673 220.953 43.1964 220.626 43.5781C221.284 41.8012 221.898 40.0074 222.629 38.2575C222.773 37.9163 223.357 37.5312 223.754 37.5177C225.773 37.44 227.839 37.261 229.788 37.5988C230.435 37.7103 230.788 39.2642 231.273 40.1594L231.269 40.1628Z" fill="#FDFDFC"/>
<path d="M322.436 137.135C323.569 135.642 324.819 134.21 325.778 132.626C326.267 131.818 326.23 130.737 326.433 129.781C329.642 132.244 332.848 134.703 336.058 137.166C335.731 137.274 335.4 137.47 335.073 137.47C331.245 137.494 327.418 137.494 323.594 137.47C323.208 137.47 322.826 137.25 322.44 137.132L322.436 137.135Z" fill="#D1E589"/>
<path d="M250.497 53.9995C251.549 58.8708 250.174 62.2388 246.343 64.1576C247.347 61.1814 248.325 58.1985 249.387 55.2393C249.556 54.7663 250.119 54.4083 250.497 53.9995Z" fill="#E3F4F2"/>
<path d="M325.675 129.105C323.168 128.504 322.025 130.277 320.414 131.517C320.991 129.885 321.572 128.25 322.15 126.619C323.326 127.446 324.502 128.277 325.675 129.105Z" fill="#D1E589"/>
<path d="M88.6047 180.74C88.9944 180.629 89.3805 180.423 89.7702 180.423C95.5534 180.416 101.34 180.436 107.123 180.453C107.123 180.453 107.182 180.612 107.186 180.609C100.995 180.652 94.7997 180.696 88.6047 180.744V180.74Z" fill="#D0E489"/>
<path d="M219.953 44.2573C220.49 45.7842 219.846 46.8484 218.398 47.5949C218.916 46.4835 219.434 45.3687 219.953 44.2573Z" fill="#E3F4F2"/>
<path d="M310.631 66.1808C310.407 66.0592 310.186 65.9376 309.962 65.8193C310.186 65.9409 310.407 66.0626 310.631 66.1808Z" fill="#93B252"/>
<path d="M326.076 129.413C325.958 129.318 325.837 129.223 325.716 129.129C325.833 129.223 325.955 129.318 326.076 129.413Z" fill="#D1E589"/>
<path d="M171 137.146C161.941 137.146 152.882 137.143 143.823 137.139C143.779 136.636 143.757 136.129 143.69 135.626C142.632 127.691 141.565 119.755 140.499 111.82C142.234 111.837 143.985 111.732 145.701 111.901C147.139 112.043 148.521 112.58 149.955 112.807C152.507 113.205 154.51 111.918 156.555 110.813C161.161 113.182 166.206 113.719 171.36 113.786C171.22 117.306 171.014 120.83 170.963 124.353C170.904 128.616 170.978 132.883 170.996 137.146H171Z" fill="#DDEF9D"/>
<path d="M191.199 136.808C190.842 137.027 190.489 137.436 190.132 137.439C185.478 137.48 180.823 137.47 176.169 137.45C175.9 137.45 175.632 137.24 175.364 137.132C175.25 129.254 175.136 121.38 175.022 113.502C180.489 113.127 185.691 111.81 190.676 109.735C191.037 109.789 191.43 109.769 191.75 109.904C199.405 113.171 207.052 116.451 214.688 119.755C215.015 119.897 215.206 120.302 215.46 120.583C212.096 122.741 211.195 125.66 212.515 129.305H210.916C207.883 128.045 206.589 130.274 204.897 131.849C205.177 130.791 205.703 129.845 205.956 128.842C206.486 126.734 207.026 124.613 207.265 122.468C207.43 120.968 206.228 119.964 204.798 119.437C203.379 118.914 202.335 119.66 201.552 120.691C200.997 121.424 200.302 122.15 200.055 122.978C199.57 124.599 199.353 126.292 199.162 127.271C198.206 125.656 197.125 123.407 195.588 121.457C195.015 120.728 193.294 120.279 192.254 120.461C190.82 120.711 190.213 122.123 190.533 123.43C190.927 125.035 191.665 126.565 192.217 128.139C192.493 128.93 192.673 129.747 192.897 130.551C192.64 130.656 192.382 130.761 192.125 130.866C191.452 130.197 190.853 129.443 190.085 128.889C189.585 128.531 188.485 128.136 188.265 128.335C187.75 128.795 187.268 129.649 187.368 130.261C187.783 132.835 189.232 134.967 191.21 136.804L191.199 136.808Z" fill="#DDEF9D"/>
<path d="M30.3904 137.061C30.3132 132.582 30.2324 128.102 30.1552 123.619C31.6441 122.94 33.1368 122.261 34.6258 121.582L34.7435 121.609C35.0192 121.515 35.2913 121.424 35.567 121.329C37.4273 120.535 39.2877 119.745 41.1443 118.951C41.6958 118.934 42.2657 118.998 42.7914 118.883C45.3098 118.343 47.8172 117.752 50.3283 117.177C50.0268 122.7 49.6702 128.224 49.4754 133.75C49.4349 134.879 48.4312 136.23 49.9643 137.206C49.5048 137.297 49.0415 137.466 48.582 137.47C43.0819 137.49 37.5781 137.497 32.078 137.47C31.5155 137.47 30.9566 137.203 30.3941 137.058L30.3904 137.061Z" fill="#D1E589"/>
<path d="M79.4134 132.355C79.7737 132.298 80.3656 132.348 80.4612 132.169C82.1744 129.072 82.4171 128.936 85.9907 129.413C86.0716 129.453 86.1525 129.494 86.2333 129.534L86.1341 129.278C86.0201 128.673 85.9135 128.068 85.7922 127.464C84.7223 122.146 89.9761 118.832 95.0975 120.042C97.4027 120.586 98.8328 122.45 98.9615 124.663C99.0093 125.498 98.9689 126.339 98.9689 127.322C101.289 126.22 103.565 125.403 105.546 127.697C105.528 128.825 105.087 130.146 105.572 131.044C106.726 133.186 108.318 135.125 109.734 137.149C108.715 137.253 107.693 137.453 106.675 137.453C96.6416 137.449 86.6083 137.412 76.5751 137.385C76.7883 137.014 77.0016 136.645 77.2111 136.274C77.9464 134.97 78.6817 133.663 79.417 132.359L79.4134 132.355ZM93.1305 125.785C93.3548 125.788 93.5791 125.791 93.8033 125.795C94.1453 125.285 94.8695 124.677 94.7519 124.288C94.4982 123.464 93.8033 122.751 93.2886 121.994C92.8364 122.511 91.9871 123.055 92.0239 123.545C92.079 124.312 92.7335 125.042 93.1305 125.788V125.785ZM85.3032 132.2C85.0201 132.234 84.737 132.267 84.4576 132.304C84.248 132.835 83.7039 133.524 83.8951 133.865C84.3032 134.595 85.0899 135.146 85.7223 135.77C86.0458 135.311 86.7223 134.767 86.6194 134.412C86.3878 133.622 85.7664 132.929 85.3069 132.196L85.3032 132.2ZM103.965 130.17C103.145 129.463 102.715 128.795 102.318 128.808C100.873 128.866 100.495 129.967 100.451 131.044C100.436 131.369 101.384 132.065 101.491 132.004C102.267 131.561 102.936 130.967 103.965 130.17ZM91.3952 128.734C90.4062 127.889 89.7224 127.308 89.0385 126.724C88.6709 127.166 87.8915 127.798 88.0091 128.014C88.4209 128.764 89.1452 129.372 89.7518 130.031C90.1819 129.693 90.6121 129.352 91.3952 128.73V128.734Z" fill="#568122"/>
<path d="M175.022 113.502C175.136 121.38 175.25 129.255 175.364 137.132C173.908 137.136 172.452 137.139 171 137.143C170.981 132.879 170.908 128.613 170.967 124.35C171.014 120.826 171.224 117.306 171.364 113.786C171.452 111.317 171.54 108.847 171.628 106.381C171.636 102.858 171.661 99.3345 171.628 95.8111C171.621 95.2808 171.408 94.7099 171.139 94.2268C169.25 90.8453 167.323 87.484 165.408 84.116C165.422 83.9944 165.437 83.8728 165.452 83.7512C166.371 84.8795 167.334 85.9807 168.194 87.1462C169.323 88.6765 170.367 90.2608 171.706 92.1898C171.878 91.3587 171.996 91.0412 172 90.7237C172.15 79.9542 172.286 69.1847 172.426 58.4185C172.459 57.6382 172.415 56.8477 172.544 56.0809C172.647 55.4627 172.908 54.7769 173.842 55.4525C173.952 61.3204 174.059 67.1882 174.169 73.056C175.062 72.4716 175.5 71.8669 175.93 71.2622C176.364 70.6541 176.713 69.9718 177.257 69.4617C177.599 69.1407 178.228 69.0766 178.728 68.8975C177.603 70.9514 176.356 72.958 175.393 75.0727C174.801 76.37 174.338 77.8327 174.331 79.2245C174.309 83.9978 174.536 88.7677 174.628 93.541C174.684 96.4091 174.628 99.2771 174.691 102.145C174.713 103.267 174.915 104.385 175.051 105.628C178.673 100.274 182.158 95.1152 185.647 89.9602C184.445 92.933 182.864 95.7064 181.353 98.5103C179.702 101.574 178.114 104.669 176.496 107.749C174.783 109.405 174.882 111.452 175.022 113.509V113.502Z" fill="#905D3B"/>
<path d="M109.73 137.149C108.315 135.129 106.723 133.187 105.568 131.045C105.083 130.146 105.524 128.825 105.543 127.697C106.465 127.924 107.429 128.059 108.293 128.407C108.914 128.657 109.399 129.19 110.329 129.396C109.719 127.363 109.105 125.329 108.495 123.299C108.491 122.961 108.462 122.623 108.484 122.285C108.576 120.988 108.925 119.809 110.469 119.367C112.054 118.914 113.377 119.576 114.109 120.704C115.517 122.877 116.653 125.201 117.55 126.829C117.708 125.961 117.973 124.268 118.348 122.593C118.491 121.948 118.789 121.292 119.179 120.742C120.076 119.478 120.962 118.042 122.984 118.367C124.451 118.603 125.771 120.272 125.668 122.208C125.554 124.363 124.995 126.498 124.58 128.636C124.455 129.275 124.161 129.886 124.252 130.704C124.664 130.295 125.054 129.863 125.488 129.477C126.462 128.606 127.547 128.052 128.936 128.667C130.455 129.339 130.271 130.602 129.694 131.552C128.51 133.494 127.039 135.288 125.686 137.142C125.458 137.149 125.23 137.156 124.999 137.163C125.833 135.092 126.668 133.024 127.506 130.957C127.348 130.903 127.19 130.846 127.032 130.792C125.528 132.687 124.506 134.781 124.223 137.176C123.127 137.169 122.032 137.163 120.936 137.156C121.021 133.312 121.102 129.467 121.179 125.971C121.094 126.16 120.657 126.745 120.598 127.356C120.289 130.623 120.076 133.896 119.83 137.166C118.613 137.166 117.396 137.166 116.182 137.169C115.602 131.977 114.455 126.913 112.017 122.147C113.142 127.153 114.271 132.163 115.396 137.169C114.44 137.169 113.48 137.173 112.524 137.176C111.432 134.268 108.635 130.707 106.793 130.224C107.487 131.072 108.098 131.68 108.535 132.376C109.528 133.947 110.436 135.561 111.377 137.156C110.822 137.156 110.267 137.156 109.712 137.156L109.73 137.149ZM121.561 124.545C121.745 124.579 121.929 124.61 122.113 124.643C122.348 123.606 122.587 122.573 122.822 121.535C122.583 121.495 122.348 121.458 122.109 121.417C121.925 122.461 121.745 123.502 121.561 124.545ZM123.708 131.302L123.767 131.217L123.679 131.207L123.708 131.305V131.302Z" fill="#F3B446"/>
<path d="M191.199 136.808C189.221 134.97 187.776 132.838 187.357 130.264C187.257 129.653 187.739 128.795 188.254 128.339C188.474 128.14 189.574 128.535 190.074 128.893C190.846 129.443 191.445 130.2 192.114 130.869C192.371 130.764 192.629 130.66 192.886 130.555C192.662 129.751 192.482 128.933 192.206 128.143C191.658 126.569 190.915 125.038 190.522 123.434C190.202 122.126 190.809 120.714 192.243 120.464C193.283 120.282 195.004 120.731 195.577 121.461C197.114 123.41 198.195 125.66 199.151 127.275C199.342 126.295 199.559 124.606 200.044 122.981C200.291 122.153 200.986 121.424 201.541 120.694C202.324 119.664 203.368 118.917 204.787 119.441C206.217 119.968 207.419 120.971 207.254 122.471C207.015 124.616 206.475 126.738 205.945 128.846C205.691 129.849 205.169 130.795 204.886 131.852C206.578 130.278 207.872 128.052 210.905 129.308C210.831 130.345 210.761 131.386 210.688 132.423C210.438 132.872 210.188 133.322 209.934 133.767C209.166 134.791 208.397 135.811 207.629 136.835C206.927 136.94 206.136 136.889 205.541 137.176C204.375 137.74 203.316 137.602 202.213 137.146C202.213 134.403 202.213 131.663 202.213 128.92C202.044 128.91 201.872 128.9 201.702 128.889C201.504 131.643 201.309 134.396 201.111 137.146C200.982 137.26 200.857 137.379 200.728 137.494C199.75 137.375 198.772 137.257 197.798 137.139C197.331 134.359 196.86 131.582 196.394 128.802C196.158 128.839 195.923 128.876 195.688 128.91C196.147 131.653 196.607 134.396 197.066 137.139C196.088 137.146 195.11 137.152 194.132 137.159C193.397 134.477 191.566 132.518 189.346 130.835C190.695 132.933 192.044 135.031 193.393 137.129L191.191 136.801L191.199 136.808ZM201.997 127.633C202.236 127.687 202.471 127.741 202.71 127.795C203.199 126.075 203.684 124.356 204.173 122.64C203.923 122.582 203.673 122.525 203.423 122.468C202.949 124.19 202.471 125.91 201.997 127.633ZM195.449 128.173C195.68 128.096 195.916 128.015 196.147 127.937C195.478 126.275 194.813 124.616 194.143 122.954C193.919 123.035 193.695 123.113 193.471 123.194C194.129 124.853 194.791 126.515 195.449 128.173ZM192.827 131.298L192.886 131.21L192.798 131.197L192.827 131.295V131.298Z" fill="#93B252"/>
<path d="M79.4134 132.356C78.6781 133.66 77.9428 134.967 77.2075 136.271C76.9979 136.642 76.7847 137.014 76.5714 137.382C76.2883 137.318 76.0016 137.251 75.7185 137.186C76.2994 135.784 76.884 134.383 77.4648 132.981C77.2443 132.913 77.0237 132.845 76.8031 132.778C76.3178 134.247 75.8288 135.714 75.3435 137.183C74.3692 137.183 73.3912 137.183 72.417 137.183C72.7625 133.524 73.1045 129.863 73.4795 125.887C71.9942 129.748 71.5383 133.423 71.6964 137.18C70.825 137.254 69.9573 137.325 69.086 137.399C68.2661 133.737 67.4426 130.072 66.6227 126.41L66.0565 126.525C66.8396 130.15 67.6264 133.774 68.4095 137.399C67.6632 137.328 66.9169 137.254 66.1742 137.183C65.619 136.274 65.0639 135.369 64.505 134.46C64.358 134.551 64.2109 134.643 64.0639 134.734C64.5271 135.548 64.9903 136.365 65.4536 137.18C64.9683 137.278 64.4867 137.376 64.0014 137.477C62.9719 135.845 61.8543 134.254 60.9719 132.562C60.6998 132.038 61.0601 131.237 61.13 130.565C61.8984 130.744 62.6962 130.859 63.4278 131.123C63.8359 131.268 64.1411 131.653 64.8028 132.177C64.2955 130.494 63.88 129.167 63.4977 127.836C63.3763 127.407 63.1374 126.886 63.2955 126.535C63.6558 125.731 64.0933 124.522 64.7403 124.376C65.5639 124.191 66.9794 124.64 67.5088 125.265C68.6044 126.559 69.2809 128.15 69.8507 129.14C70.4537 127.839 71.1081 126.099 72.075 124.522C72.417 123.968 73.8324 123.353 74.2221 123.572C75.0383 124.032 75.9207 124.985 76.0126 125.809C76.1781 127.272 75.7847 128.788 75.6082 130.281C75.5604 130.697 75.4575 131.109 75.3729 131.555C76.8545 131.754 78.7369 129.616 79.4134 132.359V132.356ZM63.2697 133.139C63.1521 133.241 63.0344 133.342 62.9205 133.443L63.6116 134.035C63.6962 133.964 63.7771 133.893 63.8616 133.822C63.6631 133.595 63.4683 133.366 63.2697 133.139ZM62.6153 132.602C62.5932 132.568 62.5822 132.514 62.5491 132.501C62.5124 132.487 62.4572 132.508 62.4131 132.514C62.4425 132.568 62.4719 132.619 62.505 132.673C62.5418 132.65 62.5785 132.626 62.619 132.602H62.6153Z" fill="#93B252"/>
<path d="M140.499 111.82C141.565 119.755 142.631 127.69 143.69 135.626C143.757 136.126 143.779 136.632 143.823 137.139C141.536 137.142 139.253 137.149 136.966 137.153C138.466 129.207 138.959 121.204 138.532 113.154C138.429 112.556 138.334 111.955 138.227 111.357C137.639 108.02 137.051 104.682 136.462 101.348C136.341 97.9324 133.282 96.419 131.304 94.0374C132.459 94.7502 133.617 95.463 135.198 96.4359C134.602 94.5779 134.128 93.1017 133.653 91.6221C136.426 95.8211 137.793 100.466 139.124 105.364C139.426 104.645 139.58 104.104 139.867 103.628C141.142 101.496 142.455 99.385 143.753 97.2636C143.922 97.2771 144.095 97.2906 144.264 97.3075C143.234 99.3242 142.205 101.338 141.179 103.354C139.767 106.094 139.856 108.938 140.499 111.82Z" fill="#526626"/>
<path d="M210.03 158.441C208.015 158.441 205.997 158.489 203.986 158.428C202.177 158.37 201.18 157.32 201.114 155.573C201.026 153.273 201.548 152.475 203.699 152.367C207.769 152.161 211.85 152.067 215.927 152.043C217.842 152.033 218.776 153.212 218.776 155.242C218.776 157.252 217.824 158.364 215.894 158.428C213.942 158.495 211.986 158.441 210.03 158.441Z" fill="#AAC255"/>
<path d="M115.414 137.166C114.289 132.16 113.16 127.15 112.035 122.144C114.473 126.91 115.62 131.974 116.201 137.166C115.94 137.166 115.679 137.166 115.414 137.166Z" fill="#EA943C"/>
<path d="M119.848 137.159C120.094 133.889 120.308 130.616 120.616 127.349C120.675 126.734 121.113 126.15 121.197 125.964C121.12 129.46 121.039 133.305 120.955 137.149C120.587 137.149 120.219 137.156 119.848 137.159Z" fill="#EA943C"/>
<path d="M71.6963 137.183C71.5382 133.423 71.9941 129.747 73.4794 125.89C73.1044 129.866 72.7588 133.524 72.4169 137.186C72.1779 137.186 71.9353 137.186 71.6963 137.186V137.183Z" fill="#86A248"/>
<path d="M68.4058 137.403C67.6227 133.778 66.836 130.153 66.0529 126.528L66.619 126.414C67.4389 130.079 68.2625 133.741 69.0823 137.403C68.8544 137.403 68.6301 137.403 68.4022 137.403H68.4058Z" fill="#86A248"/>
<path d="M111.396 137.149C110.454 135.555 109.546 133.94 108.554 132.369C108.112 131.673 107.506 131.065 106.811 130.217C108.653 130.704 111.451 134.264 112.543 137.169C112.16 137.163 111.778 137.156 111.399 137.149H111.396Z" fill="#EA943C"/>
<path d="M197.074 137.145C196.614 134.402 196.155 131.659 195.695 128.916C195.93 128.879 196.166 128.842 196.401 128.808C196.868 131.588 197.338 134.365 197.805 137.145C197.563 137.145 197.316 137.145 197.074 137.145Z" fill="#86A248"/>
<path d="M124.238 137.169C124.521 134.774 125.539 132.679 127.047 130.784C127.205 130.838 127.363 130.896 127.521 130.95C126.686 133.017 125.848 135.088 125.014 137.155C124.756 137.159 124.499 137.162 124.238 137.165V137.169Z" fill="#EA943C"/>
<path d="M193.401 137.139C192.051 135.041 190.702 132.943 189.353 130.845C191.577 132.528 193.408 134.487 194.14 137.169C193.893 137.159 193.647 137.152 193.401 137.142V137.139Z" fill="#86A248"/>
<path d="M75.3398 137.182C75.8251 135.713 76.3141 134.247 76.7994 132.777C77.02 132.845 77.2405 132.912 77.4611 132.98C76.8802 134.382 76.2957 135.784 75.7148 137.186C75.5898 137.186 75.4648 137.182 75.3398 137.179V137.182Z" fill="#86A248"/>
<path d="M65.4499 137.186C64.9867 136.372 64.5234 135.555 64.0602 134.74C64.2072 134.649 64.3543 134.558 64.5014 134.467C65.0565 135.376 65.6117 136.281 66.1705 137.19C65.9315 137.19 65.6926 137.19 65.4536 137.19L65.4499 137.186Z" fill="#86A248"/>
<path d="M58.5306 74.6802C57.1041 76.9571 55.6776 79.2306 54.1224 81.7135C53.4055 79.109 52.7548 76.7307 52.1003 74.3525C54.2438 74.4606 56.3872 74.5721 58.5306 74.6802Z" fill="#86A248"/>
<path d="M56.685 56.7863C56.5637 56.8978 56.4387 57.0127 56.3173 57.1241L56.2034 57.016C56.3247 56.9046 56.4497 56.7897 56.571 56.6782L56.685 56.7829V56.7863Z" fill="#4F6425"/>
<path d="M58.4498 55.3709C58.5087 55.3101 58.5675 55.2527 58.6226 55.1919C58.619 55.2291 58.6263 55.2865 58.6042 55.3034C58.5638 55.3372 58.5013 55.3473 58.4498 55.3709Z" fill="#4F6425"/>
<path d="M57.049 56.449C56.9277 56.5604 56.8027 56.6753 56.6814 56.7868L56.5674 56.6821C56.6887 56.5706 56.8137 56.4557 56.935 56.3442L57.0453 56.449H57.049Z" fill="#4F6425"/>
<path d="M56.9387 56.3442C57.0637 56.2327 57.185 56.1178 57.31 56.0063L57.4203 56.1077C57.299 56.2225 57.174 56.334 57.0527 56.4489L56.9424 56.3442H56.9387Z" fill="#4F6425"/>
<path d="M57.3064 56.0063C57.4093 55.9759 57.516 55.9489 57.6189 55.9185C57.549 55.9793 57.4829 56.0434 57.413 56.1043L57.3064 56.0063Z" fill="#4F6425"/>
<path d="M58.4498 55.3706C58.3799 55.4213 58.3138 55.4719 58.2439 55.5226C58.2549 55.4855 58.2549 55.428 58.2843 55.4111C58.3285 55.3841 58.3946 55.3841 58.4498 55.3706Z" fill="#4F6425"/>
<path d="M312.355 93.3008C313.157 98.0572 313.958 102.814 314.76 107.57C313.436 108.239 312.19 109.154 310.774 109.536C304.829 111.141 302.083 110.026 299.41 106.425C298.631 105.374 297.704 104.307 296.587 103.594C294.142 102.037 291.531 100.702 288.991 99.2767C288.359 98.5234 287.546 97.8477 287.116 97.0066C284.347 91.5779 284.756 83.4501 290.995 79.3626C292.178 78.5856 293.355 77.7985 294.531 77.0182C294.763 77.008 294.995 76.9945 295.226 76.9844C295.679 80.4064 295.866 83.8825 296.66 87.237C297.447 90.5645 300.271 92.1421 303.844 92.5305C306.675 92.838 309.517 93.0508 312.355 93.3041V93.3008Z" fill="#B8C146"/>
<path d="M276.454 100.013C276.358 96.0945 276.656 92.1252 276.075 88.2674C275.196 82.4435 271.465 77.9607 266.59 74.3326C264.285 72.6165 261.726 71.1909 259.461 69.7451C262.715 69.6336 270.362 74.7447 276.619 81.055C275.95 78.5721 275.281 76.0892 274.612 73.6063C272.575 68.7451 270.538 63.8806 268.505 59.0195C268.652 58.9485 268.799 58.881 268.946 58.81C270.7 61.7963 272.454 64.7826 274.09 67.5695C275.645 64.8434 277.094 62.0362 278.833 59.3877C279.549 58.2966 280.891 57.5567 281.947 56.6548L282.061 56.7561C279.527 59.7255 277.388 62.8503 276.344 66.5899C275.579 69.3295 275.627 71.8598 277.182 74.3258C277.891 76.704 278.601 79.0822 279.351 81.6057C280.91 79.2072 282.391 76.9236 283.873 74.6434C286.892 70.8092 290.112 67.127 294.439 64.4684C296.417 63.2523 298.631 62.3571 300.895 61.5632C294.495 64.6441 289.888 69.289 286.399 74.971C284.575 78.3762 282.66 81.7408 280.976 85.2034C280.325 86.5378 279.895 88.0951 279.91 89.5443C279.95 93.2265 280.299 96.9086 280.524 100.591C280.597 102.628 280.674 104.665 280.748 106.705C280.825 109.529 280.902 112.35 280.98 115.174C281.079 122.501 281.182 129.829 281.281 137.156C278.998 137.152 276.711 137.146 274.428 137.142C274.579 134.571 274.73 132.004 274.877 129.433C275.152 124.68 275.424 119.927 275.696 115.174C275.836 111.806 275.98 108.442 276.119 105.074C276.23 103.388 276.344 101.706 276.454 100.02V100.013Z" fill="#4F6425"/>
<path d="M280.516 100.588C280.292 96.9054 279.943 93.2266 279.902 89.5411C279.888 88.0918 280.322 86.5345 280.969 85.2001C282.653 81.7376 284.568 78.3729 286.392 74.9678C289.105 75.6502 291.818 76.3325 294.531 77.0149C293.351 77.7953 292.178 78.5824 290.995 79.3593C284.756 83.4469 284.347 91.5713 287.116 97.0034C287.546 97.8445 288.355 98.5201 288.991 99.2735C286.421 101.111 283.461 100.814 280.516 100.584V100.588Z" fill="#86A248"/>
<path d="M283.866 74.6437C282.384 76.9273 280.902 79.2076 279.344 81.606C278.594 79.086 277.884 76.7044 277.174 74.3262C279.406 74.4309 281.638 74.539 283.869 74.6437H283.866Z" fill="#86A248"/>
<path d="M282.414 56.4151C282.292 56.53 282.175 56.6448 282.053 56.7597C282.053 56.7597 281.943 56.6583 281.939 56.6583C282.068 56.5502 282.197 56.4455 282.325 56.3374L282.41 56.4151H282.414Z" fill="#4F6425"/>
<path d="M282.329 56.3373C282.454 56.2258 282.575 56.111 282.7 55.9995L282.785 56.0772C282.664 56.1887 282.539 56.3035 282.417 56.415L282.333 56.3373H282.329Z" fill="#4F6425"/>
<path d="M282.697 55.9993C282.777 55.952 282.858 55.9047 282.939 55.8574C282.888 55.9317 282.833 56.0027 282.781 56.077L282.7 56.0027L282.697 55.9993Z" fill="#4F6425"/>
<path d="M141.179 103.354C142.209 101.337 143.238 99.3241 144.264 97.3074C145.036 96.5405 145.808 95.7771 146.378 95.2163C144.657 93.4935 146.451 91.3146 145.135 89.7268C145.345 93.0509 144.904 95.4257 143.753 97.2668C142.455 99.3849 141.142 101.5 139.867 103.631C139.58 104.108 139.426 104.651 139.124 105.368C137.793 100.469 136.425 95.8244 133.653 91.6253C134.128 93.1016 134.602 94.5778 135.198 96.4392C133.617 95.4629 132.462 94.7501 131.304 94.0407C133.282 96.4223 136.341 97.9357 136.462 101.351C134.55 101.118 132.646 100.834 130.727 100.669C127.55 100.395 124.521 99.7295 123.701 96.4561C122.991 93.6151 122.819 90.6592 122.411 87.754C123.738 85.6832 124.988 83.5651 126.411 81.5517C129.01 77.8696 132.697 77.2784 136.595 79.812C137.484 80.3897 138.411 80.92 139.319 81.4741C140.69 82.6226 142.227 82.6969 143.848 82.0247C145.562 81.3153 147.235 80.5214 148.97 79.8661C150.893 79.1398 152.845 78.9979 154.731 80.035C157.591 82.4098 158.65 85.6933 159.996 88.8316C159.606 90.2842 159.216 91.7368 158.83 93.1894C156.856 95.0102 156.18 97.1452 156.977 99.6383C156.782 99.77 156.562 99.8815 156.393 100.04C152.08 104.087 147.301 106.307 141.179 103.364V103.354Z" fill="#CCD562"/>
<path d="M122.41 87.7471C122.819 90.6523 122.991 93.6081 123.701 96.4491C124.521 99.7226 127.55 100.391 130.727 100.662C132.646 100.827 134.55 101.111 136.462 101.344C137.05 104.682 137.639 108.019 138.227 111.353C138.334 111.951 138.429 112.553 138.532 113.151C136.959 113.728 135.414 114.394 133.804 114.867C130.984 115.691 128.26 114.873 126.502 112.688C124.8 110.57 122.822 108.81 120.183 107.692C117.591 106.59 115.653 104.878 114.741 102.314C113.859 98.5301 114.388 94.956 116.591 91.6252C118.08 90.507 119.565 89.3855 121.054 88.2673C121.502 88.095 121.955 87.9227 122.403 87.7471H122.41Z" fill="#B8C146"/>
<path d="M159.996 88.8209C158.65 85.6826 157.591 82.3991 154.731 80.0243C154.507 79.0412 154.227 78.0649 154.073 77.0718C153.54 73.6936 154.271 70.5249 157.202 68.346C161.569 65.0997 162.992 60.7081 164.161 55.9652C164.889 53.0059 166.496 50.2257 167.709 47.3678C168.492 46.5098 169.294 45.6686 170.051 44.7937C172.121 42.4087 174.044 42.5236 175.731 45.145C175.886 45.3849 175.996 45.6484 176.128 45.8983C175.978 46.601 175.845 47.307 175.676 48.0063C175.073 50.4859 174.456 52.962 173.845 55.4416C172.912 54.7659 172.65 55.4517 172.548 56.0699C172.419 56.8367 172.459 57.6272 172.43 58.4076C171.559 59.2656 170.606 60.0662 169.838 60.9952C168.297 62.8532 166.687 64.6909 165.448 66.7144C164.86 67.6772 164.739 69.1028 164.97 70.2209C165.455 72.562 166.297 74.8456 167.029 77.1427C167.86 79.754 167.286 81.8552 165.455 82.747C165.191 82.5612 164.93 82.3788 164.665 82.193C164.569 82.2572 164.478 82.3248 164.382 82.389C164.742 82.845 165.103 83.301 165.463 83.7571L165.448 83.7436C165.433 83.8652 165.419 83.9868 165.404 84.1084C164.408 84.9867 163.419 85.8651 162.419 86.7366C161.617 87.4359 160.805 88.1216 159.996 88.8142V88.8209Z" fill="#EA943C"/>
<path d="M275.693 115.167C275.421 119.92 275.145 124.674 274.873 129.427C274.726 131.997 274.571 134.565 274.424 137.135C266.259 137.135 258.093 137.135 249.928 137.139C249.854 132.099 249.781 127.062 249.707 122.022C254.303 121.775 258.623 120.822 262.141 117.856C262.656 117.184 263.174 116.512 263.689 115.836C267.693 115.613 271.696 115.387 275.696 115.164L275.693 115.167Z" fill="#D1E589"/>
<path d="M281.277 137.149C281.178 129.822 281.075 122.495 280.976 115.167C281.877 115.282 282.77 115.431 283.675 115.505C291.009 116.096 298.168 117.485 305.142 119.637C305.701 119.809 306.149 120.272 306.649 120.6C305.237 123.353 306.315 125.927 307.296 128.514C307.613 129.352 307.863 130.21 308.138 131.062C307.782 130.923 307.429 130.781 307.072 130.643C306.447 129.977 305.818 129.308 305.193 128.643C305.186 127.687 305.429 126.653 305.101 125.798C304.756 124.89 304.032 123.839 303.16 123.461C302.671 123.248 301.201 124.093 300.782 124.778C299.936 126.16 299.506 127.758 299.043 128.92C298.366 127.781 297.623 126.231 296.561 124.9C296.131 124.363 294.914 123.991 294.197 124.136C293.594 124.258 293.002 125.177 292.759 125.853C292.55 126.434 292.763 127.18 292.932 127.825C293.281 129.163 293.726 130.481 294.27 132.251C293.487 131.464 293.127 130.883 292.59 130.622C292.013 130.342 291.197 130.166 290.616 130.329C290.34 130.406 290.09 131.48 290.292 131.926C290.921 133.308 291.642 134.69 292.587 135.896C293.061 136.504 294.105 136.733 294.888 137.135C295.006 137.159 295.12 137.186 295.234 137.22C295.116 137.412 295.002 137.605 294.884 137.798C290.347 137.585 285.814 137.369 281.277 137.156V137.149Z" fill="#D1E589"/>
<path d="M210.695 132.423C210.769 131.386 210.842 130.345 210.912 129.308C211.375 129.308 211.842 129.308 212.511 129.308C211.192 125.663 212.092 122.745 215.456 120.586C215.802 120.481 216.151 120.387 216.493 120.268C221.835 118.441 226.082 121.582 225.423 126.156C225.394 126.359 225.46 126.575 225.434 126.339C227.471 126.484 229.357 126.616 231.243 126.751C231.758 127.771 232.269 128.791 232.799 129.842C237.163 128.629 238.453 129.085 239.262 132.257C241.931 131.791 243.766 132.416 243.979 134.125C244.1 135.092 243.516 136.135 243.247 137.142C231.379 137.041 219.508 136.943 207.636 136.841C208.405 135.818 209.173 134.798 209.942 133.774C210.129 134.115 210.232 134.544 210.522 134.777C211.015 135.176 211.622 135.45 212.181 135.777C212.412 135.281 212.839 134.784 212.842 134.288C212.842 133.058 212.228 132.251 210.695 132.426V132.423ZM214.353 127.45C214.342 129.045 214.743 130.041 216.114 130.214C216.423 130.251 217.284 129.237 217.166 128.977C216.802 128.146 216.096 127.443 215.519 126.694C215.059 126.994 214.596 127.291 214.35 127.454L214.353 127.45ZM221.526 123.863C220.787 123.096 220.251 122.538 219.714 121.984C219.276 122.505 218.398 123.119 218.501 123.525C218.695 124.285 219.456 124.92 219.982 125.609C220.412 125.126 220.839 124.643 221.526 123.866V123.863ZM232.578 133.19C233.232 133.919 233.604 134.332 233.979 134.744C234.666 134.088 235.446 133.49 235.971 132.737C236.1 132.551 235.398 131.876 235.074 131.423C234.335 131.947 233.596 132.467 232.578 133.186V133.19ZM230.354 130.247C229.663 129.535 229.276 129.139 228.89 128.744C228.218 129.396 227.442 129.994 226.935 130.744C226.806 130.933 227.515 131.605 227.843 132.058C228.582 131.528 229.321 130.994 230.354 130.247ZM240.534 136.943C241.126 136.24 241.751 135.801 241.843 135.281C241.898 134.956 241.148 134.514 240.762 134.125C240.181 134.679 239.604 135.237 239.023 135.791C239.416 136.088 239.806 136.389 240.534 136.943Z" fill="#568122"/>
<path d="M243.247 137.136C243.516 136.129 244.1 135.085 243.979 134.119C243.762 132.41 241.931 131.788 239.262 132.251C238.453 129.079 237.163 128.623 232.799 129.835C232.269 128.785 231.754 127.765 231.243 126.744C231.589 126.454 231.89 126.079 232.291 125.883C235.24 124.447 238.207 123.049 241.17 121.637C243.251 121.853 245.328 122.072 247.409 122.289C247.328 127.238 247.247 132.187 247.166 137.139C245.861 137.139 244.556 137.139 243.251 137.139L243.247 137.136Z" fill="#D0E489"/>
<path d="M247.166 137.139C247.247 132.19 247.328 127.241 247.409 122.289C247.42 120.708 247.435 119.127 247.446 117.546C247.501 116.144 247.428 114.722 247.641 113.34C247.883 111.773 247.729 110.371 246.85 108.972C245.85 107.371 245.027 105.678 244.126 104.027C245.284 105.391 246.439 106.756 247.597 108.121H248.111V86.8352C248.365 86.1664 248.622 85.4975 248.876 84.8286C248.961 88.5479 249.045 92.2673 249.13 95.9866C249.266 96.0102 249.406 96.0339 249.542 96.0575C250.185 95.2198 250.832 94.3854 251.475 93.5476C251.689 94.0002 251.659 94.3414 251.475 94.5779C249.244 97.4527 249.141 100.702 249.251 104.064C249.391 108.344 249.284 112.631 249.284 116.914C249.494 116.931 249.7 116.945 249.909 116.961C251.277 115.002 252.645 113.039 254.012 111.08C254.056 111.121 254.097 111.161 254.145 111.198C253.001 113.418 251.854 115.641 250.711 117.86C249.542 119.076 249.512 120.525 249.7 122.018C249.773 127.059 249.847 132.095 249.92 137.136C249.001 137.136 248.082 137.136 247.163 137.136L247.166 137.139Z" fill="#905D3B"/>
<path d="M201.118 137.152C201.316 134.399 201.511 131.646 201.71 128.896C201.879 128.906 202.052 128.916 202.221 128.926C202.221 131.669 202.221 134.409 202.221 137.152C201.853 137.152 201.486 137.152 201.118 137.152Z" fill="#86A248"/>
<path d="M321.418 89.2405C321.282 89.1053 321.15 88.9702 321.013 88.8317C321.639 87.1528 322.264 85.4739 322.889 83.7949C323.087 83.7949 323.289 83.7949 323.488 83.7983C323.374 84.4976 323.26 85.1968 323.113 86.1022C323.995 85.5515 324.672 85.1327 325.344 84.7104C325.418 84.7915 325.492 84.8725 325.572 84.9502C324.186 86.3792 322.804 87.8115 321.418 89.2405Z" fill="#568122"/>
<path d="M316.936 95.2433C316.543 96.5101 316.153 97.7735 315.627 99.4727C315.157 97.5404 314.793 96.0473 314.429 94.5508C315.263 94.7805 316.102 95.0102 316.936 95.2433Z" fill="#B8C146"/>
<path d="M323.488 83.8017C323.289 83.8017 323.087 83.8017 322.889 83.7983C322.889 82.3997 322.889 81.0012 322.889 79.6026C323.069 79.5925 323.249 79.579 323.429 79.5688C323.447 80.9809 323.466 82.393 323.488 83.805V83.8017Z" fill="#86A248"/>
<path d="M325.344 84.7142C325.745 84.3933 326.15 84.069 326.55 83.748C326.657 83.8764 326.76 84.0048 326.866 84.1332C326.433 84.4068 326.003 84.6804 325.569 84.954C325.491 84.8797 325.414 84.7987 325.344 84.7176V84.7142Z" fill="#568122"/>
<path d="M224.324 43.8586C226.515 42.1324 226.832 42.2945 228.074 44.9092C228.81 46.453 229.942 47.8381 230.898 49.294C233.21 53.5403 235.677 57.7259 237.766 62.06C238.707 64.0092 238.894 66.2658 239.427 68.3805C239.38 68.7116 239.45 69.1237 239.266 69.3635C237.843 71.1979 237.949 73.2315 238.262 75.3023C238.082 75.5219 237.927 75.7685 237.714 75.9576C236.185 77.3157 235.861 79.4506 233.703 80.5485C232.607 81.1059 231.909 82.9234 231.74 84.2476C231.556 85.6765 232.005 87.2575 232.53 88.6628C233.578 91.4667 234.865 94.1928 236.056 96.9494C236.089 97.5135 236.122 98.0777 236.155 98.6418C227.049 98.8986 217.909 97.9729 208.831 99.2769C208.596 95.8143 208.067 92.345 208.217 88.8959C208.328 86.3792 208.993 83.7713 210.004 81.4201C212.225 76.2651 215.923 71.9073 219.615 67.563C221.876 64.901 222.879 61.8202 222.42 58.415C222.383 58.1481 222.295 57.8238 222.1 57.6515C219.92 55.7159 220.475 53.0573 219.909 50.6993C219.854 50.4662 220.004 50.1453 220.159 49.9224C221.534 47.8955 222.931 45.8787 224.321 43.8586H224.324Z" fill="#B4DFD7"/>
<path d="M250.714 117.863C251.858 115.643 253.005 113.42 254.148 111.201C254.174 111.086 254.2 110.971 254.229 110.86L254.02 111.083C252.652 113.042 251.284 115.005 249.917 116.964C249.707 116.947 249.501 116.934 249.292 116.917C249.292 112.633 249.398 108.346 249.258 104.066C249.148 100.702 249.251 97.4519 251.483 94.5805C251.667 94.344 251.692 94.0029 251.483 93.5502C250.839 94.388 250.192 95.2224 249.549 96.0601C249.413 96.0365 249.273 96.0128 249.137 95.9892C249.053 92.2699 248.968 88.5505 248.883 84.8312C249.494 83.0138 250.104 81.1963 250.714 79.3789C251.597 81.8112 252.534 84.2299 253.347 86.6824C254.038 88.7701 255.053 90.5774 257.086 91.8679C259.516 93.4083 260.792 95.5264 260.365 98.3336C260.071 99.3336 259.773 100.33 259.479 101.33C258.167 104.337 258.498 106.154 261.075 108.255C263.641 110.346 265.41 112.559 263.685 115.846C263.171 116.518 262.652 117.19 262.137 117.866C260.913 117.934 259.689 118.069 258.465 118.055C255.88 118.032 253.299 117.937 250.718 117.869L250.714 117.863ZM254.806 110.12C254.909 109.992 255.012 109.863 255.115 109.735C255.045 109.698 254.972 109.661 254.902 109.627C254.865 109.785 254.828 109.948 254.795 110.106C254.748 110.194 254.7 110.282 254.656 110.373C254.707 110.289 254.759 110.204 254.81 110.12H254.806ZM251.964 93.057L252.071 93.1279L252.082 93.0063L251.964 93.057Z" fill="#FCAA54"/>
<path d="M250.714 79.376C250.104 81.1934 249.494 83.0108 248.883 84.8283C248.626 85.4971 248.372 86.166 248.119 86.8349C247.214 87.7301 246.328 88.6422 245.398 89.5137C243.174 91.5981 242.758 94.3614 244.086 97.074C245.001 98.9455 245.486 100.908 243.762 102.705C243.67 102.908 243.575 103.111 243.483 103.313C242.825 103.962 242.152 104.6 241.512 105.266C238.902 107.962 238.902 109.357 240.302 112.465C241.608 115.363 244.45 116.583 247.45 117.546C247.439 119.126 247.424 120.707 247.413 122.288C245.332 122.072 243.251 121.853 241.174 121.636C238.685 120.961 236.438 119.92 234.644 118.123C231.762 115.235 231.67 111.907 234.464 108.958C235.063 108.323 235.685 107.705 236.266 107.06C237.633 105.546 238.343 103.942 237.361 101.962C236.839 100.905 236.552 99.7495 236.159 98.6381C236.126 98.0739 236.093 97.5098 236.06 96.9456C237.236 95.2937 238.409 93.6384 239.597 91.9933C240.233 91.115 241.159 90.3346 241.497 89.3752C242.405 86.7775 243.067 84.1087 243.825 81.467C244.571 80.4671 245.211 79.3861 246.078 78.4841C248.255 76.2242 249.508 76.4944 250.714 79.3726V79.376Z" fill="#EA943C"/>
<path d="M243.821 81.4668C243.06 84.1085 242.402 86.7772 241.494 89.375C241.159 90.3344 240.229 91.1181 239.593 91.9931C238.405 93.6382 237.233 95.2935 236.056 96.9454C234.869 94.1889 233.578 91.4593 232.53 88.6589C232.005 87.2536 231.56 85.6726 231.74 84.2436C231.909 82.9194 232.607 81.102 233.703 80.5446C235.861 79.4467 236.185 77.3151 237.714 75.9537C237.927 75.7645 238.082 75.5179 238.262 75.2983C239.394 77.8995 241.001 80.146 243.821 81.4634V81.4668Z" fill="#CCEADF"/>
<path d="M276.454 100.013C276.343 101.698 276.23 103.381 276.119 105.066C271.832 104.043 267.546 103.019 263.259 101.996C262.77 100.992 262.281 99.9857 261.788 98.9824C266.101 100.286 270.494 100.688 274.991 100.03C275.468 99.9587 275.965 100.016 276.454 100.013Z" fill="#E3F4F2"/>
<path d="M261.784 98.9825C262.273 99.9858 262.762 100.993 263.255 101.996C261.998 101.773 260.74 101.547 259.483 101.324C259.777 100.324 260.071 99.3271 260.369 98.3271C260.843 98.5467 261.314 98.7629 261.788 98.9825H261.784Z" fill="#CCEADF"/>
<path d="M116.594 91.625C114.392 94.9558 113.863 98.5332 114.745 102.313C113.142 102.445 111.535 102.577 109.932 102.709C111.646 98.5299 113.363 94.3511 115.076 90.1724C115.583 90.6554 116.087 91.1385 116.594 91.6216V91.625Z" fill="#A4D5CC"/>
<path d="M31.1957 117.86C32.3538 115.728 33.5119 113.597 34.67 111.465C34.5009 111.377 34.3317 111.289 34.1626 111.201C32.9494 113.056 31.7361 114.911 30.5228 116.765C30.4015 116.742 30.2802 116.715 30.1552 116.691C30.0412 115.563 29.85 114.434 29.828 113.303C29.7618 109.708 29.9015 106.111 29.692 102.526C29.5339 99.8475 30.0523 97.4254 31.6001 95.1654C31.942 94.6689 32.1552 94.0979 32.4273 93.5608C32.2986 93.4899 32.1663 93.4156 32.0376 93.3446C31.2839 94.3513 30.5265 95.358 29.7728 96.3647C29.6258 96.3512 29.4824 96.341 29.3353 96.3275C29.3353 92.5035 29.3353 88.676 29.3353 84.852C29.8574 83.0008 30.3831 81.1496 30.9089 79.2983C32.0082 82.1225 33.0155 84.9837 34.2472 87.7606C34.8023 89.0105 35.5303 90.4631 36.6627 91.1792C40.1444 93.3818 41.6039 96.1181 40.4311 99.9151C38.284 104.327 38.5487 105.648 42.24 108.938C45.5121 111.857 45.6628 114.265 42.7731 117.579C41.4679 117.752 40.1664 118.056 38.8612 118.066C36.3097 118.086 33.7545 117.941 31.203 117.863L31.1957 117.86Z" fill="#FCAA54"/>
<path d="M236.155 98.6379C236.549 99.7493 236.835 100.905 237.358 101.962C238.339 103.945 237.63 105.55 236.262 107.06C235.677 107.705 235.06 108.323 234.46 108.958C231.67 111.907 231.758 115.235 234.641 118.123C236.435 119.92 238.677 120.961 241.17 121.636C238.207 123.048 235.24 124.447 232.291 125.883C231.891 126.078 231.589 126.453 231.243 126.744C229.357 126.609 227.471 126.477 225.435 126.332C225.46 126.572 225.394 126.355 225.423 126.149C226.082 121.575 221.835 118.434 216.493 120.261C216.151 120.376 215.802 120.474 215.456 120.579C215.203 120.295 215.012 119.89 214.684 119.751C207.048 116.447 199.401 113.167 191.746 109.901C191.43 109.765 191.033 109.782 190.677 109.732C191.963 108.624 193.246 107.516 194.533 106.408L194.507 106.424C194.621 106.404 194.728 106.37 194.835 106.327C195.805 104.671 196.78 103.016 197.75 101.361C198.265 101.34 198.776 101.317 199.291 101.296C202.471 100.621 205.655 99.9452 208.835 99.2696C217.912 97.9623 227.052 98.8913 236.159 98.6345L236.155 98.6379Z" fill="#EEFDB7"/>
<path d="M197.75 101.368C196.78 103.023 195.805 104.678 194.835 106.333C194.724 106.367 194.618 106.398 194.507 106.428L194.533 106.411C194.107 106.411 193.658 106.327 193.261 106.428C187.761 107.833 182.132 107.816 176.496 107.742C178.114 104.661 179.702 101.567 181.353 98.5029C182.864 95.699 184.445 92.9289 185.647 89.9528C182.162 95.1078 178.673 100.263 175.051 105.621C174.919 104.377 174.717 103.259 174.691 102.138C174.632 99.2697 174.684 96.4017 174.628 93.5336C174.536 88.7603 174.309 83.987 174.331 79.2171C174.338 77.8253 174.801 76.3659 175.393 75.0654C176.36 72.9507 177.603 70.944 178.728 68.8901C180.04 69.2685 178.974 69.9137 178.967 70.4576C178.959 71.1163 179.103 71.7784 179.18 72.4372C179.897 72.1804 180.629 71.9473 181.323 71.6467C181.507 71.569 181.573 71.2751 181.72 71.0994C183.081 69.4509 185.79 69.4104 186.893 71.194C187.923 72.8594 189.037 73.606 191 72.5453C192.136 74.5755 191.529 76.5855 190.934 78.6056C190.346 80.6055 189.728 82.602 189.25 84.6255C188.713 86.8855 189.5 88.8414 191.235 90.4764C192.302 91.4831 193.335 92.5371 194.507 93.4357C197.239 95.5335 198.394 98.1245 197.746 101.364L197.75 101.368ZM186.154 89.3245L186.243 89.3887L186.257 89.2839L186.154 89.3245Z" fill="#FDAA54"/>
<path d="M191.004 72.5487C189.04 73.6094 187.926 72.8595 186.897 71.1974C185.794 69.4171 183.088 69.4577 181.724 71.1028C181.577 71.2785 181.511 71.5724 181.327 71.6501C180.629 71.9507 179.901 72.1838 179.184 72.4406C179.106 71.7818 178.959 71.1197 178.97 70.461C178.978 69.9171 180.048 69.2685 178.731 68.8935C178.231 69.0726 177.603 69.1367 177.261 69.4577C176.717 69.9678 176.367 70.6502 175.934 71.2582C175.503 71.8629 175.066 72.4676 174.173 73.052C174.062 67.1842 173.956 61.3164 173.845 55.4485C174.456 52.9724 175.073 50.4962 175.676 48.0166C175.845 47.3174 175.978 46.6113 176.128 45.9087C178.728 50.03 180.283 54.4959 181.191 59.151C181.794 62.2285 183.647 64.4006 186.349 66.218C188.665 67.7754 190.89 69.5523 191.004 72.5487Z" fill="#F7A855"/>
<path d="M307.076 130.639C307.432 130.777 307.785 130.919 308.142 131.058L308.127 131.048C308.146 131.186 308.164 131.321 308.186 131.46C307.793 132.585 307.418 133.716 306.999 134.831C306.789 135.388 306.495 135.915 306.237 136.456C305.756 136.672 305.274 136.892 304.793 137.111C305.351 135.615 305.907 134.118 306.465 132.618C306.285 132.554 306.109 132.487 305.929 132.422C305.311 133.993 304.697 135.564 304.079 137.135C303.215 137.155 302.351 137.172 301.487 137.192C301.862 133.439 302.237 129.686 302.616 125.936C301.149 129.554 300.649 133.314 300.778 137.169C299.91 137.175 299.046 137.186 298.179 137.192C298.179 133.301 296.991 129.69 295.366 126.207C296.064 129.862 296.767 133.514 297.465 137.169C296.848 137.159 296.226 137.148 295.609 137.138C294.884 136.007 294.16 134.875 293.432 133.747C293.002 133.183 292.575 132.618 292.145 132.054C291.973 132.206 291.8 132.355 291.623 132.507C292.204 132.939 292.789 133.372 293.37 133.804C293.873 134.916 294.377 136.024 294.877 137.135C294.09 136.733 293.05 136.5 292.575 135.895C291.631 134.686 290.91 133.308 290.281 131.926C290.079 131.48 290.329 130.406 290.605 130.328C291.189 130.166 292.002 130.342 292.579 130.622C293.12 130.885 293.476 131.463 294.259 132.25C293.719 130.48 293.274 129.163 292.921 127.825C292.752 127.183 292.539 126.433 292.748 125.852C292.991 125.176 293.583 124.257 294.186 124.136C294.903 123.991 296.12 124.366 296.55 124.899C297.616 126.23 298.355 127.781 299.031 128.919C299.495 127.757 299.925 126.159 300.77 124.778C301.19 124.095 302.66 123.251 303.149 123.46C304.021 123.839 304.745 124.889 305.09 125.798C305.414 126.653 305.175 127.686 305.182 128.642C304.679 129.919 304.175 131.193 303.723 132.345C304.851 131.77 305.958 131.206 307.065 130.642L307.076 130.639Z" fill="#F3B446"/>
<path d="M316.576 137.162C316.543 132.139 317.006 127.183 319.297 122.481C317.991 127.318 317.352 132.207 317.672 137.172C317.308 137.172 316.94 137.166 316.576 137.162Z" fill="#86A248"/>
<path d="M312.532 137.149C311.465 132.483 310.396 127.822 309.37 123.335C310.521 123.815 312.932 131.821 313.26 137.176C313.017 137.166 312.774 137.155 312.532 137.145V137.149Z" fill="#86A248"/>
<path d="M300.778 137.169C300.645 133.315 301.149 129.555 302.616 125.937C302.241 129.69 301.866 133.443 301.487 137.193C301.252 137.186 301.013 137.176 300.778 137.169Z" fill="#EA943C"/>
<path d="M297.469 137.166C296.77 133.514 296.068 129.859 295.37 126.204C296.995 129.687 298.182 133.298 298.182 137.19C297.947 137.183 297.708 137.173 297.473 137.166H297.469Z" fill="#EA943C"/>
<path d="M320.995 137.19C321.311 135.088 322.186 133.21 323.892 131.646C323.168 133.477 322.444 135.311 321.719 137.142C321.477 137.159 321.238 137.173 320.995 137.19Z" fill="#86A248"/>
<path d="M304.079 137.135C304.697 135.565 305.311 133.994 305.929 132.423C306.109 132.487 306.285 132.555 306.465 132.619C305.907 134.115 305.351 135.615 304.793 137.112C304.554 137.118 304.318 137.129 304.083 137.135H304.079Z" fill="#EA943C"/>
<path d="M294.888 137.129C294.384 136.018 293.881 134.91 293.381 133.798L293.439 133.744C294.164 134.876 294.888 136.007 295.616 137.136C295.491 137.159 295.362 137.186 295.237 137.213C295.123 137.18 295.006 137.153 294.892 137.129H294.888Z" fill="#EA943C"/>
<path d="M24.9823 104.361C25.4823 105.486 25.8352 106.695 26.5191 107.719C27.7581 109.577 28.1809 111.523 27.986 113.661C27.8684 114.945 27.9162 116.242 27.8904 117.536C23.9896 116.364 20.8609 114.441 20.0484 110.428C19.8792 109.59 19.7579 108.476 20.2101 107.851C21.3756 106.239 22.8756 104.831 24.2433 103.341C24.372 103.574 24.5007 103.807 24.6293 104.043L24.6146 104.023C24.7433 104.141 24.872 104.26 25.0007 104.378L24.986 104.358L24.9823 104.361Z" fill="#FDAA54"/>
<path d="M28.5338 87.1665C28.3941 94.0376 28.2581 100.912 28.1184 107.783C27.997 107.817 27.872 107.851 27.7507 107.885C26.8279 106.709 25.9051 105.537 24.9823 104.361L24.997 104.381C24.8683 104.263 24.7396 104.145 24.611 104.027L24.6257 104.047C24.497 103.814 24.3683 103.581 24.2396 103.344C24.3132 103.02 24.2874 102.628 24.4823 102.382C25.6661 100.872 25.4382 99.392 24.644 97.7941C22.2322 92.9431 24.0852 89.9872 28.5338 87.1699V87.1665Z" fill="#FCAA54"/>
<path d="M306.649 120.596C306.149 120.269 305.697 119.806 305.142 119.634C298.164 117.485 291.009 116.097 283.675 115.502C282.77 115.428 281.877 115.279 280.976 115.164C280.899 112.34 280.822 109.519 280.744 106.695C287.98 109.53 295.292 112.205 302.418 115.256C306.715 117.097 310.719 119.519 314.852 121.681C314.811 122.218 314.774 122.755 314.734 123.292C313.903 123.052 313.069 122.809 312.238 122.569C310.852 120.769 309.197 119.62 306.649 120.593V120.596Z" fill="#EEFDB7"/>
<path d="M312.238 122.572C313.069 122.812 313.903 123.055 314.734 123.295C314.756 123.957 314.782 124.619 314.808 125.282C314.609 125.734 314.41 126.183 314.182 126.704C313.528 125.312 312.885 123.944 312.241 122.572H312.238Z" fill="#D0E489"/>
<path d="M308.186 131.46C308.168 131.322 308.149 131.187 308.127 131.048C308.146 131.187 308.164 131.322 308.186 131.46Z" fill="#D1E589"/>
<path d="M42.7693 117.576C42.2289 118.036 41.6884 118.492 41.1443 118.951C39.284 119.745 37.4236 120.535 35.567 121.329C35.2913 121.424 35.0192 121.515 34.7435 121.61L34.6258 121.583C33.1368 121.738 31.6515 121.897 30.1662 122.052C29.9639 120.542 30.0375 119.086 31.1993 117.86C33.7508 117.938 36.306 118.083 38.8575 118.063C40.1627 118.052 41.4678 117.748 42.7693 117.576Z" fill="#EA943C"/>
<path d="M141.179 103.354C147.297 106.3 152.08 104.077 156.393 100.03C156.562 99.8712 156.782 99.7597 156.977 99.6279C157.422 100.55 157.724 101.56 158.338 102.374C159.705 104.195 159.371 105.982 158.448 107.773C157.904 108.823 157.194 109.799 156.558 110.813C154.514 111.918 152.51 113.205 149.959 112.806C148.525 112.583 147.143 112.043 145.705 111.901C143.988 111.732 142.238 111.833 140.503 111.82C139.859 108.938 139.771 106.097 141.183 103.354H141.179Z" fill="#B8C146"/>
<path d="M156.555 110.814C157.191 109.803 157.9 108.827 158.444 107.773C159.367 105.983 159.702 104.196 158.334 102.375C157.724 101.561 157.419 100.551 156.974 99.6285C156.172 97.1355 156.852 95.0005 158.827 93.1797C158.955 93.8891 159.084 94.6019 159.213 95.3113C160.297 101.23 166.066 105.257 171.625 106.378C171.536 108.847 171.448 111.317 171.36 113.783C166.205 113.712 161.161 113.178 156.555 110.81V110.814Z" fill="#EA943C"/>
<path d="M176.496 107.742C182.132 107.817 187.761 107.837 193.261 106.428C193.655 106.327 194.107 106.411 194.533 106.411C193.25 107.519 191.963 108.627 190.677 109.735C185.691 111.813 180.489 113.127 175.022 113.502C174.882 111.445 174.783 109.398 176.496 107.742Z" fill="#EA943C"/>
<path d="M93.1306 125.784C92.7298 125.038 92.0791 124.308 92.0239 123.541C91.9872 123.051 92.8364 122.511 93.2887 121.991C93.8034 122.747 94.4982 123.46 94.7519 124.284C94.8732 124.673 94.1453 125.281 93.8034 125.791C93.5791 125.788 93.3548 125.784 93.1306 125.781V125.784Z" fill="#476B1C"/>
<path d="M85.3032 132.2C85.7665 132.933 86.3841 133.625 86.6157 134.416C86.7187 134.767 86.0422 135.314 85.7187 135.774C85.0863 135.149 84.2995 134.598 83.8914 133.869C83.7002 133.527 84.2444 132.838 84.4539 132.308C84.737 132.274 85.0201 132.24 85.2995 132.203L85.3032 132.2Z" fill="#476B1C"/>
<path d="M103.965 130.17C102.936 130.967 102.267 131.562 101.491 132.004C101.384 132.065 100.436 131.369 100.451 131.045C100.495 129.964 100.877 128.866 102.318 128.808C102.715 128.792 103.142 129.464 103.965 130.17Z" fill="#476B1C"/>
<path d="M91.3953 128.734C90.6085 129.355 90.182 129.693 89.7518 130.034C89.1452 129.372 88.4209 128.767 88.0092 128.018C87.8915 127.801 88.6709 127.17 89.0386 126.727C89.7224 127.311 90.4063 127.893 91.3953 128.737V128.734Z" fill="#476B1C"/>
<path d="M86.1341 129.278L86.2334 129.535C86.1525 129.494 86.0716 129.454 85.9907 129.413C86.0385 129.369 86.0863 129.322 86.1341 129.278Z" fill="#D0E489"/>
<path d="M171.625 106.381C166.066 105.262 160.297 101.232 159.213 95.3138C159.084 94.6044 158.955 93.8916 158.827 93.1822C159.216 91.7296 159.602 90.277 159.992 88.821C160.801 88.1285 161.613 87.4427 162.415 86.7434C163.415 85.8719 164.408 84.9902 165.4 84.1152C167.316 87.4832 169.242 90.8445 171.132 94.226C171.4 94.7057 171.614 95.28 171.621 95.8103C171.658 99.3337 171.632 102.857 171.621 106.381H171.625Z" fill="#FCAA54"/>
<path d="M165.452 82.7535C167.283 81.8651 167.856 79.7605 167.025 77.1492C166.294 74.8521 165.452 72.5718 164.966 70.2274C164.735 69.1092 164.856 67.6837 165.444 66.7209C166.683 64.6974 168.294 62.8597 169.834 61.0017C170.603 60.0727 171.559 59.2721 172.426 58.4141C172.286 69.1836 172.147 79.9531 172 90.7192C171.996 91.0367 171.875 91.3543 171.706 92.1853C170.367 90.2564 169.323 88.672 168.194 87.1417C167.334 85.9763 166.371 84.875 165.452 83.7467C165.452 83.7467 165.463 83.7602 165.466 83.7602C165.466 83.4224 165.459 83.088 165.459 82.7502L165.452 82.7535Z" fill="#FCAA54"/>
<path d="M121.561 124.545C121.745 123.501 121.925 122.461 122.109 121.417C122.348 121.458 122.583 121.495 122.822 121.535C122.587 122.572 122.348 123.606 122.113 124.643C121.929 124.609 121.745 124.579 121.561 124.545Z" fill="#EA943C"/>
<path d="M123.708 131.301L123.679 131.203L123.767 131.213L123.708 131.301Z" fill="#DDEF9D"/>
<path d="M210.695 132.423C212.228 132.244 212.846 133.052 212.842 134.285C212.842 134.781 212.416 135.278 212.181 135.774C211.622 135.447 211.011 135.173 210.522 134.774C210.232 134.541 210.129 134.112 209.942 133.771C210.192 133.322 210.442 132.873 210.695 132.427V132.423Z" fill="#476B1C"/>
<path d="M201.997 127.633C202.471 125.91 202.949 124.191 203.423 122.468C203.673 122.525 203.923 122.583 204.173 122.64C203.684 124.36 203.199 126.079 202.71 127.795C202.471 127.741 202.236 127.687 201.997 127.633Z" fill="#86A248"/>
<path d="M195.449 128.173C194.791 126.515 194.129 124.853 193.471 123.194C193.695 123.113 193.919 123.035 194.143 122.954C194.813 124.616 195.478 126.275 196.147 127.937C195.916 128.015 195.68 128.096 195.449 128.173Z" fill="#86A248"/>
<path d="M192.827 131.298L192.798 131.2L192.886 131.21L192.827 131.298Z" fill="#DDEF9D"/>
<path d="M63.2697 133.139C63.4682 133.365 63.6631 133.595 63.8616 133.822C63.777 133.892 63.6962 133.963 63.6116 134.034L62.9204 133.443C63.0381 133.342 63.1557 133.241 63.2697 133.139Z" fill="#86A248"/>
<path d="M62.6153 132.602C62.5785 132.626 62.5417 132.65 62.5013 132.673C62.4719 132.619 62.4425 132.569 62.4094 132.515C62.4572 132.508 62.5086 132.488 62.5454 132.501C62.5785 132.515 62.5895 132.569 62.6116 132.602H62.6153Z" fill="#86A248"/>
<path d="M143.753 97.2666C144.904 95.4255 145.345 93.054 145.135 89.7266C146.451 91.3143 144.661 93.4932 146.378 95.216C145.808 95.7768 145.036 96.5436 144.264 97.3071C144.095 97.2936 143.922 97.2801 143.753 97.2632V97.2666Z" fill="#568122"/>
<path d="M259.483 101.324C260.74 101.547 261.998 101.773 263.255 101.996C267.542 103.02 271.829 104.043 276.116 105.067C275.976 108.435 275.833 111.799 275.693 115.167C271.689 115.39 267.685 115.617 263.685 115.84C265.41 112.553 263.645 110.34 261.079 108.249C258.498 106.148 258.167 104.33 259.483 101.324Z" fill="#EEFDB7"/>
<path d="M165.452 82.7547C165.452 83.0925 165.459 83.4269 165.459 83.7648C165.099 83.3087 164.739 82.8527 164.378 82.3966C164.474 82.3324 164.566 82.2649 164.661 82.2007C164.926 82.3865 165.187 82.5689 165.452 82.7547Z" fill="#905D3B"/>
<path d="M250.714 117.863C253.295 117.931 255.88 118.025 258.461 118.049C259.685 118.059 260.91 117.927 262.134 117.86C258.615 120.826 254.299 121.778 249.7 122.025C249.512 120.532 249.542 119.083 250.711 117.867L250.714 117.863Z" fill="#EA943C"/>
<path d="M307.076 130.639C305.969 131.204 304.862 131.764 303.734 132.342C304.186 131.194 304.69 129.917 305.193 128.64C305.818 129.305 306.447 129.974 307.072 130.639H307.076Z" fill="#93B252"/>
<path d="M214.353 127.451C214.6 127.292 215.059 126.991 215.523 126.69C216.096 127.444 216.802 128.146 217.17 128.974C217.284 129.234 216.427 130.248 216.118 130.21C214.747 130.042 214.346 129.045 214.357 127.447L214.353 127.451Z" fill="#476B1C"/>
<path d="M221.526 123.863C220.839 124.636 220.412 125.123 219.982 125.606C219.456 124.917 218.695 124.281 218.501 123.521C218.398 123.119 219.276 122.501 219.714 121.981C220.251 122.538 220.784 123.092 221.526 123.859V123.863Z" fill="#476B1C"/>
<path d="M232.578 133.19C233.593 132.471 234.332 131.95 235.074 131.427C235.394 131.876 236.1 132.555 235.972 132.741C235.446 133.491 234.666 134.092 233.979 134.747C233.607 134.335 233.236 133.92 232.578 133.194V133.19Z" fill="#476B1C"/>
<path d="M230.354 130.247C229.317 130.994 228.582 131.524 227.843 132.058C227.519 131.605 226.806 130.933 226.935 130.744C227.442 129.994 228.214 129.399 228.89 128.744C229.276 129.139 229.663 129.535 230.354 130.247Z" fill="#476B1C"/>
<path d="M240.534 136.943C239.806 136.389 239.413 136.092 239.023 135.791C239.604 135.237 240.181 134.68 240.762 134.125C241.152 134.514 241.898 134.957 241.843 135.281C241.755 135.798 241.13 136.24 240.534 136.943Z" fill="#476B1C"/>
<path d="M247.446 117.546C244.446 116.583 241.604 115.36 240.299 112.465C238.898 109.36 238.898 107.965 241.508 105.266C242.152 104.604 242.821 103.965 243.479 103.317C243.7 103.56 243.924 103.803 244.144 104.047L244.126 104.026C245.027 105.678 245.85 107.374 246.85 108.972C247.725 110.37 247.883 111.772 247.641 113.34C247.428 114.721 247.497 116.14 247.446 117.546Z" fill="#FCAA54"/>
<path d="M243.758 102.709C245.483 100.912 244.997 98.949 244.082 97.0775C242.755 94.3649 243.17 91.6015 245.394 89.5172C246.325 88.6457 247.211 87.7336 248.115 86.8384C248.115 93.9325 248.115 101.03 248.115 108.124H247.6C246.442 106.759 245.288 105.394 244.13 104.03L244.148 104.05C244.019 103.604 243.891 103.158 243.762 102.712L243.758 102.709Z" fill="#FCAA54"/>
<path d="M254.792 110.107C254.828 109.948 254.865 109.786 254.898 109.627C254.968 109.665 255.042 109.702 255.112 109.736C255.009 109.864 254.906 109.992 254.803 110.121L254.788 110.107H254.792Z" fill="#905D3B"/>
<path d="M254.02 111.083L254.229 110.86C254.203 110.975 254.174 111.086 254.148 111.201C254.104 111.164 254.06 111.123 254.02 111.083Z" fill="#905D3B"/>
<path d="M254.806 110.121C254.755 110.205 254.703 110.29 254.652 110.374C254.7 110.286 254.748 110.199 254.792 110.107L254.806 110.121Z" fill="#905D3B"/>
<path d="M251.964 93.0575L252.082 93.0068L252.071 93.1285L251.964 93.0575Z" fill="#905D3B"/>
<path d="M243.758 102.709C243.887 103.155 244.016 103.601 244.144 104.047C243.924 103.803 243.7 103.56 243.479 103.317C243.571 103.114 243.666 102.912 243.758 102.709Z" fill="#905D3B"/>
<path d="M194.507 106.428C194.618 106.398 194.724 106.364 194.835 106.333C194.728 106.377 194.621 106.408 194.507 106.428Z" fill="#EA943C"/>
<path d="M186.154 89.3252L186.257 89.2847L186.243 89.3894L186.154 89.3252Z" fill="#905D3B"/>
<path d="M293.377 133.801C292.796 133.369 292.212 132.936 291.631 132.504C291.803 132.352 291.976 132.203 292.153 132.051C292.579 132.615 293.009 133.18 293.439 133.744L293.381 133.798L293.377 133.801Z" fill="#EA943C"/>
<path d="M24.2432 103.341C24.3719 103.574 24.5006 103.807 24.6293 104.043C24.5006 103.81 24.3719 103.577 24.2432 103.341Z" fill="#905D3B"/>
</svg>
