<svg width="304" height="191" viewBox="0 0 304 191" fill="none" xmlns="http://www.w3.org/2000/svg">
<path d="M0.64321 186.373C-0.00488508 182.406 1.6675 178.939 3.23559 175.546C7.13534 167.113 11.2139 158.762 15.2552 150.396C15.6835 149.514 16.3018 148.717 16.8642 147.905C17.8438 146.493 19.1512 145.785 20.9316 145.789C33.711 145.811 46.4941 145.826 59.2735 145.767C66.0264 145.733 72.7792 145.536 79.5321 145.443C80.1839 145.435 80.8394 145.64 81.495 145.748C81.6328 147.26 80.4223 146.787 79.6662 146.981C75.8782 146.955 72.0939 146.955 68.3059 146.895C66.965 146.873 66.1903 147.491 65.8811 148.728C65.084 151.905 64.164 155.06 63.5755 158.274C62.73 162.897 62.1154 167.564 61.4413 172.219C61.0427 174.983 61.9702 176.328 64.7115 176.838C66.2238 177.121 67.777 177.311 69.3115 177.319C72.2838 177.33 75.2561 177.117 78.2284 177.121C81.2007 177.125 84.1693 177.359 87.1416 177.352C91.5405 177.341 95.943 177.102 100.342 177.147C112.995 177.281 125.651 177.583 138.304 177.646C141.436 177.661 144.576 177.043 147.705 176.652C149.161 176.469 149.817 175.43 149.921 174.063C149.981 173.266 149.925 172.45 149.828 171.653C149.132 166.066 148.443 160.475 147.679 154.9C147.403 152.881 147.087 150.843 146.472 148.914C146.249 148.206 145.165 147.417 144.383 147.309C142.181 147 139.935 147.026 137.704 146.921C137.719 146.411 137.734 145.901 137.749 145.39C148.014 145.372 158.279 145.357 168.545 145.338C169.327 146.594 170.105 147.849 170.887 149.1C165.792 151.242 160.697 153.38 155.601 155.522C155.341 156.997 155.11 158.475 154.815 159.943C154.402 162.014 155.594 162.572 157.322 162.87C162.645 163.79 167.956 164.789 173.271 165.761C178.829 166.778 184.382 167.813 189.939 168.819C196.953 170.089 203.985 171.266 210.976 172.659C212.518 172.968 213.714 172.763 215.014 172.052C222.24 168.111 229.488 164.204 236.729 160.286C236.762 160.412 236.8 160.535 236.833 160.662C236.822 161.906 236.807 163.146 236.796 164.39C236.766 167.623 236.736 170.856 236.706 174.085C235.853 174.201 234.982 174.242 234.155 174.451C232.39 174.901 230.617 175.356 228.907 175.978C227.991 176.309 227.946 177.196 228.728 177.721C229.678 178.361 230.736 178.983 231.831 179.233C236.543 180.306 241.321 180.835 246.126 179.97C247.925 179.646 249.694 179.062 251.4 178.402C251.963 178.186 253.266 177.482 251.657 176.663C251.911 175.993 252.358 175.33 252.387 174.648C252.544 171.217 252.589 167.783 252.674 164.353C252.674 163.124 252.682 161.895 252.685 160.662C252.659 159.097 251.322 158.9 250.35 158.859C246.815 158.714 243.269 158.788 239.727 158.781C240.29 158.412 240.852 158.043 241.411 157.671C242.923 156.658 243.34 150.795 241.999 149.458C241.709 149.361 241.422 149.205 241.12 149.171C237.571 148.773 234.021 148.363 230.464 148.02C227.462 147.733 224.452 147.528 221.446 147.29C221.353 147.268 221.256 147.253 221.163 147.249C220.914 146.512 220.664 145.77 220.411 145.033C226.37 145.011 232.326 144.988 238.286 144.97C248.156 144.97 258.023 144.962 267.893 144.966C273.775 144.966 279.652 144.999 285.533 144.985C287.053 144.981 288.252 145.554 288.897 146.888C290.264 149.726 291.593 152.587 292.797 155.499C295.653 162.42 298.555 169.325 301.166 176.339C302.268 179.3 302.682 182.518 303.408 185.621C300.522 186.235 297.661 187.193 294.745 187.386C289.128 187.766 283.477 187.811 277.842 187.83C229.622 187.975 181.406 188.15 133.186 188.176C101.977 188.195 70.7642 187.993 39.555 187.848C31.249 187.807 22.9466 187.625 14.6406 187.465C11.0537 187.394 7.46311 187.263 3.87996 187.062C2.78863 187.003 1.71592 186.612 0.635761 186.377L0.64321 186.373ZM260.608 157.302C260.611 158.051 260.615 158.799 260.619 159.548C260.597 165.139 260.57 170.73 260.548 176.32C258.865 176.67 257.162 176.961 255.509 177.408C255.069 177.527 254.477 178.134 254.469 178.525C254.462 178.909 255.054 179.397 255.494 179.665C256.011 179.982 256.634 180.265 257.226 180.302C260.496 180.492 263.777 180.809 267.037 180.66C268.973 180.57 271.152 180.391 272.523 178.522C273.521 179.151 274.452 179.952 275.533 180.358C276.661 180.782 277.928 180.902 279.146 181.032C282.695 181.416 286.159 180.913 289.541 179.836C289.999 179.691 290.681 179.099 290.636 178.797C290.565 178.298 290.044 177.818 289.619 177.427C289.37 177.199 288.941 177.17 288.595 177.05C288.699 176.447 288.893 175.847 288.897 175.244C288.915 170 288.9 164.751 288.897 159.507C288.915 158.65 288.93 157.794 288.949 156.933C289.184 156.557 289.414 156.181 289.649 155.805C290.815 153.6 290.372 151.965 288.219 150.978C285.109 149.555 281.954 149.436 278.814 150.933C277.082 151.905 276.445 154.069 277.209 155.775C277.682 156.833 277.861 158.025 278.173 159.153C278.129 164.994 278.084 170.834 278.043 176.67C276.199 177.289 274.359 177.907 272.519 178.525C272.136 178.142 271.752 177.754 271.372 177.371C271.502 175.601 271.756 173.832 271.733 172.063C271.681 167.895 271.495 163.727 271.365 159.559C271.365 158.803 271.365 158.047 271.368 157.291C271.495 157.026 271.622 156.762 271.752 156.498C273.227 154.363 272.765 152.285 270.392 151.246C267.405 149.942 264.347 149.786 261.349 151.331C258.723 152.59 258.384 155.309 260.611 157.291L260.608 157.302Z" fill="#FFC997"/>
<path d="M222.929 53.0254C224.836 53.7666 226.743 54.5115 228.65 55.2528C228.855 58.0835 229.089 60.9143 229.261 63.7525C229.805 72.6992 230.322 81.6496 230.851 90.6C230.978 92.373 231.105 94.1459 231.231 95.9226C231.347 98.0159 231.458 100.113 231.574 102.206C231.574 103.07 231.57 103.938 231.566 104.802C227.588 104.028 223.61 103.253 219.633 102.478V86.0708H187.95C187.95 91.3524 187.924 96.6713 187.961 101.994C187.98 104.687 188.3 105.234 190.993 105.462C197.411 105.998 203.847 106.311 210.276 106.713C210.027 108.479 209.915 110.281 209.483 111.998C209.069 113.634 208.563 115.343 207.661 116.736C206.361 118.755 205.173 120.688 205.456 123.21C205.501 123.593 205.251 124.01 205.14 124.413C202.804 125.921 200.48 127.448 198.13 128.935C195.165 130.812 192.178 132.655 189.202 134.518C188.237 133.143 187.205 131.81 186.319 130.383C185.064 128.361 183.92 126.268 182.725 124.208C181.782 120.547 180.84 116.885 179.901 113.224C179.529 111.775 179.168 110.326 178.802 108.873C178.892 107.544 178.978 106.214 179.067 104.888C179.168 102.884 179.268 100.876 179.365 98.8726L179.708 86.1788C179.838 76.219 179.968 66.2555 180.099 56.2957C181.86 55.4539 183.611 54.5898 185.391 53.789C185.708 53.6474 186.144 53.7592 186.524 53.7554C186.501 60.1805 186.505 66.6093 186.446 73.0344C186.431 74.7589 187.001 75.6864 188.867 75.7758C192.07 75.9322 195.266 76.2637 198.469 76.476C199.951 76.5729 201.441 76.6213 202.927 76.5766C208.537 76.4127 214.146 76.2525 219.748 75.9806C221.312 75.9062 222.15 74.8223 222.21 73.2281C222.448 66.4939 222.679 59.7596 222.914 53.0291L222.929 53.0254Z" fill="#2254B5"/>
<path d="M123.156 35.5015C123.156 38.6302 123.185 41.7627 123.156 44.8914C123.137 46.6271 122.455 47.454 120.451 47.4838C112.183 47.5993 103.914 48.076 95.645 48.117C85.5511 48.1691 75.4535 47.8488 65.3559 47.8265C58.4838 47.8116 51.6155 48.117 44.7434 48.1282C39.4842 48.1356 34.2249 47.9568 28.9694 47.7557C26.634 47.6663 24.3135 47.156 21.9819 47.13C20.0525 47.1076 19.6204 45.9865 19.6428 44.5376C19.6837 41.5131 19.8812 38.4924 20.0152 35.4717C23.4159 35.5909 26.8165 35.8106 30.2209 35.8144C60.4765 35.8441 90.7359 35.8404 120.992 35.8255C121.718 35.8255 122.444 35.6132 123.167 35.4977L123.156 35.5015Z" fill="#FFDAB9"/>
<path d="M79.6699 146.984C80.426 146.791 81.6328 147.264 81.495 145.748C81.536 143.521 81.6924 141.282 81.5732 139.062C81.4913 137.55 81.0145 136.06 80.7128 134.563C80.7017 132.589 80.6868 130.614 80.6756 128.64C80.9065 127.884 81.1412 127.128 81.3721 126.372C83.0333 126.983 84.6983 127.594 86.3595 128.205C86.9889 128.458 87.5998 128.778 88.2479 128.957C95.9282 131.047 103.75 132.112 111.71 131.929C116.135 131.825 120.556 131.453 124.977 131.199C125.364 131.553 126.012 131.862 126.08 132.268C126.217 133.099 126.128 133.997 125.975 134.838C124.653 142.18 121.174 148.102 115.073 152.635C109.367 156.87 103.124 159.164 96.0958 159.54C91.7416 159.775 87.4918 159.198 83.3052 158.047C82.7987 155.052 82.2884 152.058 81.7818 149.059C81.7483 148.474 81.7148 147.893 81.685 147.376C80.8581 147.215 80.2621 147.1 79.6699 146.984ZM90.4939 142.701C90.3411 142.649 90.1847 142.593 90.032 142.541C90.0581 139.77 89.4398 137.162 87.8903 134.842C87.5253 134.294 86.8362 133.963 86.2961 133.531C85.7896 134.175 85.0186 134.745 84.8249 135.471C83.8639 139.084 83.9794 142.761 84.6014 146.422C84.7839 147.499 84.9999 148.612 85.4581 149.588C86.2924 151.365 87.3465 151.484 88.1324 149.748C89.1492 147.502 89.7303 145.059 90.5013 142.697L90.4939 142.701Z" fill="#5595E7"/>
<path d="M198.409 46.336C196.223 46.1199 194.033 45.9039 191.753 45.6804C191.928 44.0788 192.059 42.872 192.193 41.6652C192.062 41.5535 191.932 41.4417 191.802 41.33C191.127 41.9148 190.353 42.4213 189.798 43.1067C189.098 43.9708 188.531 44.3284 187.529 43.4978C185.254 41.6131 182.717 40.4621 179.574 41.2369C179.063 39.6166 179.894 38.5104 180.892 37.8251C182.598 36.6518 184.427 35.553 186.356 34.8267C191.161 33.0202 192.092 29.2583 190.129 24.6061C189.194 22.3862 189.31 20.4606 190.606 18.3077C189.317 18.4232 188.222 18.52 187.053 18.6243C189.042 15.8233 190.841 12.8957 193.038 10.3071C195.403 7.521 198.707 6.85428 202.275 7.29752C203.289 7.42416 204.335 7.40554 205.356 7.31614C209.971 6.9027 214.165 7.8525 217.655 11.0557C218.284 11.6331 218.657 11.9236 219.502 11.2829C221.726 9.5882 224.188 9.19339 226.747 10.5343C229.153 11.7969 230.68 13.8083 230.695 16.531C230.713 19.6896 229.16 22.0324 226.158 23.2802C225.715 23.4627 225.261 23.6154 224.665 23.8351C224.843 24.3193 224.989 24.7663 225.171 25.1984C226.087 27.3624 226.143 29.4557 224.944 31.575C224.285 32.7409 223.849 34.037 223.353 35.2923C222.266 38.0485 223.387 40.0599 225.551 41.7211C227.071 42.8869 228.676 43.9671 230.05 45.2893C231.637 46.8127 231.768 48.3622 230.751 50.2022C227.544 48.7086 224.4 48.8352 221.383 50.9993C220.515 49.7813 219.681 48.6043 218.731 47.2671C218.497 48.8464 218.292 50.191 218.091 51.5356C217.133 51.2339 216.064 51.1147 215.241 50.6007C213.103 49.2673 213.111 46.9394 212.865 44.7679L212.88 41.4976C213.047 40.6148 213.211 39.7358 213.379 38.8531C213.844 38.0821 214.31 37.3111 214.776 36.54C216.865 37.2775 218.936 36.6667 220.195 34.9422C221.45 33.2176 221.629 30.3086 220.281 28.7107C219.539 27.8317 218.381 26.9899 217.293 26.8C216.154 26.6026 214.872 27.2022 213.498 27.4853C213.826 25.7645 214.154 24.0325 214.533 22.0324C209.036 21.4364 203.646 20.8517 198.182 20.2594C198.081 18.4381 197.985 16.68 197.888 14.9182C197.754 14.881 197.62 14.8437 197.486 14.8065C196.856 16.7433 196.227 18.6802 195.601 20.5947C194.83 20.6505 194.111 20.6989 193.377 20.7511C193.176 23.6377 192.986 26.4014 192.792 29.1614C191.932 32.3013 192.919 35.2103 193.921 38.1156C194.737 40.9352 196.405 43.1365 198.778 44.8312C198.655 45.3303 198.536 45.8294 198.413 46.3248L198.409 46.336ZM210.012 10.1506C209.978 10.3108 209.945 10.4747 209.907 10.6348C207.691 10.497 205.475 10.3592 203.553 10.24C206.726 11.8193 210.097 13.4954 213.464 15.1715C213.524 14.9033 213.58 14.6314 213.666 14.2478C214.969 15.0151 216.172 15.7228 217.539 16.5273C217.428 15.9202 217.353 15.5365 217.249 14.9704C218.176 15.2609 218.955 15.5067 219.867 15.7935C218.124 11.4617 210.98 7.93072 206.369 8.89914C207.542 9.3014 208.779 9.72602 210.015 10.1506H210.012Z" fill="black"/>
<path d="M123.156 35.5012C122.429 35.6166 121.703 35.8289 120.98 35.8289C90.7248 35.8438 60.4654 35.8476 30.2098 35.8178C26.8091 35.8178 23.4085 35.5943 20.0041 35.4751C18.7042 33.4451 19.1139 31.2811 19.7881 29.2362C19.9445 28.7557 21.3078 28.6701 22.116 28.4056C22.3991 27.9065 22.8982 27.4186 22.9243 26.9046C23.0211 25.005 22.9243 23.0979 22.9839 21.1946C23.0062 20.513 23.2595 19.8351 23.4085 19.1572C23.3787 19.2615 23.3787 19.3658 23.4085 19.4664V28.3125C24.5445 28.3125 25.4608 28.3125 26.3808 28.3125C28.3325 28.3013 30.288 28.2939 32.2434 28.2827C32.899 28.2827 33.5545 28.2864 34.2063 28.2902C35.4429 28.2827 36.6758 28.279 37.9124 28.2715C38.5344 28.2715 39.1565 28.2715 39.7785 28.2678C45.7194 28.2529 51.6602 28.2343 57.6011 28.2194C58.13 28.2268 58.6589 28.2306 59.1878 28.238L74.649 28.2231C77.2898 28.2231 79.9269 28.2268 82.5677 28.2306C83.5584 28.1523 84.5455 28.0741 85.5363 27.9996L90.6614 28.2864C92.561 28.2864 94.4643 28.2864 96.3639 28.2864C98.3417 28.2864 100.32 28.2939 102.301 28.2939C103.039 28.2976 103.78 28.3051 104.517 28.3088C105.378 28.3162 106.238 28.3237 107.098 28.3274H119.74C119.74 25.2881 119.74 22.3828 119.74 19.4813C119.77 19.3733 119.774 19.269 119.74 19.161C119.889 19.7122 120.154 20.2635 120.165 20.8184C120.217 22.8335 120.131 24.8523 120.221 26.8636C120.243 27.3925 120.705 27.9028 120.965 28.4205C123.379 28.6179 124.433 30.4579 123.793 33.3967C123.636 34.1118 123.375 34.8009 123.159 35.5049L123.156 35.5012Z" fill="#FFB875"/>
<path d="M219.636 102.475C223.614 103.25 227.592 104.024 231.57 104.799C232.371 104.922 233.168 105.041 233.969 105.164C234.17 105.265 234.367 105.361 234.569 105.462C237.667 106.01 240.759 106.579 243.862 107.105C248.491 107.891 252.779 109.25 255.33 113.66C255.602 115.336 256.198 117.038 256.049 118.677C255.926 120.052 254.935 121.348 254.332 122.681C252.302 122.774 250.238 123.154 248.253 122.901C242.495 122.167 237.381 119.661 232.602 116.487C229.488 114.42 226.497 112.17 223.484 110.025C223.551 111.161 223.83 112.412 223.629 113.578C223.417 114.815 222.724 115.966 222.288 117.172C222.229 117.336 222.445 117.605 222.53 117.821C222.385 118.532 222.121 119.243 222.109 119.959C222.061 122.588 220.59 123.817 218.158 124.179V118.793C217.852 118.815 217.547 118.837 217.241 118.863C217.431 120.759 217.621 122.651 217.811 124.547C217.338 127.054 216.023 128.116 213.304 128.186C212.835 127.356 212.366 126.529 211.896 125.698V120.208C211.744 120.163 211.591 120.119 211.438 120.078C210.809 120.797 210.176 121.512 209.546 122.231C209.256 122.778 208.786 123.303 208.712 123.881C208.488 125.676 208.526 127.512 208.205 129.285C208.123 129.751 207.118 130.052 206.533 130.429C206.294 129.848 205.955 129.285 205.833 128.682C205.549 127.27 205.367 125.836 205.147 124.41C205.259 124.007 205.505 123.594 205.464 123.21C205.181 120.689 206.365 118.755 207.669 116.737C208.57 115.34 209.077 113.634 209.49 111.999C209.922 110.278 210.034 108.479 210.284 106.714C210.574 104.207 212.008 102.542 214.422 102.188C216.109 101.938 217.897 102.359 219.64 102.482L219.636 102.475Z" fill="#F4AFA5"/>
<path d="M83.3052 158.047C87.4917 159.198 91.7453 159.776 96.0958 159.541C103.128 159.161 109.371 156.87 115.073 152.635C121.174 148.106 124.653 142.18 125.975 134.839C126.128 133.997 126.214 133.099 126.079 132.269C126.012 131.863 125.361 131.554 124.977 131.2C127.834 130.581 130.691 129.967 133.547 129.349C135.056 128.734 136.564 128.119 138.069 127.505C138.203 127.889 138.337 128.272 138.472 128.656C138.568 130.492 138.665 132.328 138.766 134.165C138.419 136.06 137.943 137.945 137.768 139.856C137.6 141.685 137.745 143.543 137.753 145.387C137.738 145.897 137.723 146.408 137.708 146.918C137.708 147.026 137.701 147.134 137.674 147.242C137.306 150.144 136.941 153.049 136.564 155.95C136.315 157.895 135.574 159.5 133.581 160.226C133.447 160.357 133.313 160.487 133.179 160.617C131.305 161.254 129.476 162.163 127.551 162.472C122.485 163.284 117.394 164.055 112.28 164.446C102.778 165.173 93.4512 164.465 84.7951 159.898C84.2997 159.511 83.8043 159.127 83.3126 158.74C83.3126 158.505 83.3089 158.275 83.3052 158.04V158.047Z" fill="#0C2C7E"/>
<path d="M255.33 113.657C252.778 109.247 248.488 107.887 243.861 107.101C240.759 106.576 237.667 106.006 234.568 105.459C234.557 105.354 234.557 105.246 234.568 105.142C234.676 104.49 234.889 103.839 234.878 103.19C234.784 97.3092 234.661 91.4279 234.524 85.5503C234.416 81.036 234.412 76.5105 234.095 72.0074C233.928 69.6087 233.194 67.2509 232.717 64.8746C232.307 65.3104 232.307 65.6754 232.307 66.0404C232.296 72.4022 232.386 78.764 232.207 85.122C232.155 86.9583 231.328 88.7722 230.855 90.5973C230.326 81.6469 229.804 72.7002 229.264 63.7497C229.093 60.9153 228.858 58.0845 228.654 55.25C231.995 56.211 233.771 58.8294 235.149 61.6974C238.256 68.1598 241.213 74.6966 244.241 81.1962C244.677 82.1311 245.173 83.0399 245.642 83.9599C246.398 86.083 247.124 88.2172 247.94 90.3179C248.119 90.7761 248.603 91.115 248.946 91.5098C249.054 92.3106 249.046 93.145 249.285 93.9011C251.203 99.95 253.177 105.98 255.106 112.022C255.27 112.536 255.259 113.109 255.334 113.653L255.33 113.657Z" fill="#FFA653"/>
<path d="M0.643049 186.373C1.72321 186.612 2.79592 186.999 3.88725 187.059C7.4704 187.26 11.0573 187.39 14.6479 187.461C22.9502 187.621 31.2563 187.804 39.5623 187.845C70.7715 187.99 101.984 188.191 133.193 188.172C181.413 188.146 229.629 187.971 277.849 187.826C283.485 187.807 289.131 187.763 294.752 187.383C297.665 187.185 300.529 186.228 303.415 185.617C303.78 187.595 302.961 188.72 300.976 188.988C298.22 189.357 295.471 189.96 292.707 190.027C283.161 190.254 273.607 190.4 264.06 190.381C250.968 190.355 237.88 190.146 224.787 190.027C208.905 189.886 193.019 189.755 177.137 189.621C167.77 189.543 158.402 189.379 149.035 189.398C112.607 189.465 76.1834 189.651 39.756 189.651C29.2784 189.651 18.8009 189.208 8.32335 188.914C6.28967 188.858 4.26345 188.519 2.22977 188.336C0.996895 188.224 0.441916 187.617 0.650499 186.37L0.643049 186.373Z" fill="#FFA653"/>
<path d="M180.114 56.2889C179.983 66.2487 179.853 76.2122 179.722 86.172C179.559 87.2746 179.395 88.3733 179.197 89.6993C176.702 81.5497 177.827 73.4113 177.808 65.3063C177.476 65.7906 177.283 66.2859 177.171 66.8C176.147 71.4409 175.83 76.0968 175.957 80.883C176.169 88.9805 175.793 97.0966 175.663 105.205C174.042 104.844 172.433 104.43 170.802 104.132C163.93 102.885 161.188 105.131 161.907 111.373C158.838 110.774 157.825 109.887 158.272 106.907C158.879 102.896 159.646 98.8285 161.036 95.0368C164.276 86.2093 167.789 77.4712 171.48 68.8225C173.022 65.2058 175.216 61.8536 177.305 58.4976C177.897 57.5441 179.16 57.0115 180.117 56.2852L180.114 56.2889Z" fill="#FFA653"/>
<path d="M232.699 121.609C232.956 123.061 233.213 124.518 233.47 125.97C233.451 126.276 233.406 126.585 233.425 126.887C233.798 132.779 234.174 138.668 234.554 144.56C229.82 144.605 225.085 144.653 220.348 144.698C217.297 142.195 215.755 142.173 212.746 144.564C212.615 144.668 212.392 144.653 212.213 144.691C211.505 144.795 210.801 144.97 210.094 144.989C207.699 145.045 205.304 145.045 202.905 145.067C202.41 145.033 201.914 145.004 201.419 144.97C201.177 142.568 199.862 140.824 197.973 140.575C197.009 140.448 196.014 140.541 195.035 140.534C193.738 140.526 192.439 140.56 191.142 140.497C189.444 140.415 187.749 140.258 186.054 140.135C185.891 139.376 185.727 138.619 185.567 137.86C185.619 137.636 185.667 137.416 185.719 137.193C187.053 137.167 188.386 137.137 189.716 137.111C192.744 139.636 195.914 139.245 199.147 137.562C201.732 137.435 204.339 137.483 206.894 137.148C211.39 136.56 215.874 135.811 220.325 134.954C221.398 134.746 222.642 134.079 223.29 133.226C226.259 129.323 227.7 124.745 228.583 119.974C229.954 120.517 231.324 121.061 232.691 121.605L232.699 121.609Z" fill="#0C2C7E"/>
<path d="M212.861 44.7795C213.103 46.951 213.096 49.2789 215.237 50.6123C216.06 51.1263 217.129 51.2493 218.087 51.5472C218.839 52.0203 219.595 52.497 220.351 52.9701C219.338 55.0075 218.522 57.179 217.267 59.0599C214.783 62.7846 211.952 66.2262 207.874 68.3977C205.791 69.5077 203.765 69.3699 201.907 68.1035C200.644 67.2431 199.482 66.1629 198.476 65.0045C195.318 61.3543 193.098 57.138 191.396 52.6386C193.18 51.7521 195.027 50.9624 196.722 49.927C197.452 49.48 197.869 48.5153 198.428 47.7853C203.799 48.8692 208.615 48.0684 212.414 43.7812C212.529 44.0345 212.693 44.407 212.861 44.7832V44.7795Z" fill="#F4AFA5"/>
<path d="M191.396 52.6387C193.098 57.1381 195.318 61.3544 198.476 65.0046C199.478 66.163 200.64 67.2469 201.907 68.1036C203.769 69.37 205.792 69.5041 207.874 68.3978C211.952 66.2263 214.783 62.7847 217.267 59.06C218.523 57.1828 219.338 55.0113 220.351 52.9702C221.093 53.0968 221.834 53.2197 222.571 53.3464C222.333 54.8623 222.236 56.4192 221.83 57.8905C220.731 61.8684 219.584 65.8352 218.288 69.7499C217.699 71.5266 216.385 72.67 214.358 72.9792C206.618 74.1562 198.882 75.2252 191.019 74.6069C189.112 74.4579 188.278 73.3852 187.939 71.534C186.866 65.6602 186.758 59.7417 186.852 53.8045C188.364 53.4171 189.88 53.0298 191.392 52.6387H191.396Z" fill="#FFA653"/>
<path d="M239.5 38.1307C239.567 37.5161 239.649 36.9016 239.694 36.287C239.868 34.0125 241.072 32.8764 243.307 32.8789C259.87 32.8864 276.434 32.8789 292.998 32.9087C294.73 32.9087 296.462 33.1694 298.194 33.1508C299.669 33.1322 300.22 33.7319 300.097 35.1547C300.022 36.0151 300.063 36.8867 300.052 37.7545C297.311 37.7471 294.57 37.7694 291.828 37.7098C290.867 37.6875 289.91 37.4603 288.949 37.3299C288.301 36.801 287.526 35.7432 287.034 35.8624C286.297 36.0412 285.757 37.0431 285.131 37.6949C281.045 37.7359 276.952 37.6353 272.881 37.8998C271.521 37.9892 270.676 38.0451 270.288 36.6222C268.828 35.3335 268.27 35.3894 266.895 36.9612C266.236 37.3448 265.599 38.0078 264.91 38.0637C262.023 38.2983 259.122 38.4771 256.231 38.4101C254.961 38.3803 253.401 39.304 252.365 37.7322C252.246 36.1231 251.277 35.4936 249.855 35.9481C248.767 36.2945 247.899 37.0878 248.629 38.4808C245.586 38.3654 242.543 38.2536 239.5 38.1382V38.1307Z" fill="#5680BE"/>
<path d="M189.723 137.114C188.39 137.14 187.056 137.17 185.727 137.196C185.053 134.279 184.378 131.359 183.704 128.443C183.477 128.499 183.25 128.558 183.023 128.614C183.875 131.698 184.725 134.778 185.578 137.862C185.742 138.622 185.905 139.378 186.066 140.138C184.594 140.164 183.123 140.187 181.652 140.213C180.963 137.769 180.274 135.33 179.585 132.886L179.041 133.043C179.667 135.438 180.296 137.829 180.922 140.224C179.432 140.22 177.938 140.213 176.448 140.209C175.774 138.611 175.104 137.009 174.43 135.412C174.247 135.497 174.068 135.587 173.886 135.672C174.456 137.073 175.026 138.473 175.648 139.997C174.735 140.123 173.964 140.228 173.193 140.332C172.672 140.429 172.15 140.529 171.629 140.626C171.13 139.945 170.716 139.17 170.113 138.604C168.18 136.79 168.109 134.387 167.863 132.022C167.811 131.534 167.803 131.039 167.774 130.547C169.454 128.934 171.226 127.404 172.791 125.686C174.791 123.489 177.044 122.148 180.117 122.666C180.989 123.176 181.864 123.686 182.736 124.2C183.928 126.264 185.075 128.353 186.33 130.376C187.213 131.802 188.245 133.136 189.213 134.51C187.719 135.706 188.844 136.384 189.727 137.114H189.723Z" fill="#F4AFA5"/>
<path d="M161.9 111.373C161.181 105.134 163.926 102.888 170.794 104.133C172.426 104.427 174.035 104.844 175.655 105.202C176.013 105.317 176.37 105.436 176.724 105.552C176.839 106.27 176.884 107.008 177.085 107.701C177.417 108.844 177.849 109.958 178.236 111.083C178.482 113.202 178.724 115.321 178.97 117.441C175.338 117.78 172.761 119.907 170.541 122.54C169.204 124.127 168.027 125.844 166.775 127.501C165.375 122.383 163.982 117.266 162.559 112.159C162.473 111.858 162.123 111.63 161.896 111.37L161.9 111.373Z" fill="#F4AFA5"/>
<path d="M105.996 122.991C105.478 122.521 105.035 121.907 104.432 121.613C102.949 120.886 101.273 120.495 99.8911 119.631C97.3993 118.07 97.5185 114.979 100.193 113.731C102.8 112.517 105.609 111.742 108.335 110.785C108.622 110.684 108.95 110.695 109.24 110.599C112.063 109.623 112.332 108.449 110.294 106.241C109.586 105.473 108.897 104.665 108.342 103.782C106.759 101.257 107.355 98.7318 109.892 96.8955C109.963 96.9775 110.104 97.0743 110.093 97.1451C109.307 101.32 112.134 103.362 114.905 105.533C116.485 106.77 117.93 108.222 119.248 109.738C120.254 110.893 119.997 112.111 118.47 112.688C116.403 113.467 114.287 114.118 112.19 114.815C111.724 114.968 111.177 114.968 110.778 115.217C110.033 115.683 108.916 116.204 108.808 116.845C108.696 117.489 109.486 118.476 110.127 119.024C111.918 120.562 113.84 121.951 115.71 123.4C116.526 124.998 115.535 126.052 114.589 127.118C112.507 127.825 110.428 128.533 108.015 129.356C108.38 128.496 108.67 127.814 108.961 127.133C109.735 126.749 110.547 126.425 111.266 125.952C111.695 125.672 111.967 125.155 112.305 124.745C111.899 124.425 111.531 123.918 111.076 123.825C109.4 123.471 107.698 123.255 106.003 122.991H105.996Z" fill="#D0DAEC"/>
<path d="M148.8 39.4231C150.189 38.5851 151.478 37.6167 152.916 36.9797C154.882 36.1082 156.622 36.7488 158.145 38.2238C159.658 39.6876 159.55 41.2967 158.7 42.9728C156.722 46.88 153.672 49.8225 150.096 52.2472C149.772 52.467 149.005 52.3702 148.629 52.1318C145.392 50.0646 142.245 47.8931 140.125 44.5483C138.568 42.0937 138.449 40.5108 139.865 38.7825C141.231 37.1138 143.638 36.6185 145.939 37.6763C146.986 38.1567 147.921 38.8793 148.796 39.4269L148.8 39.4231Z" fill="#FFA653"/>
<path d="M135.097 82.0629C131.641 82.0629 128.188 82.0852 124.731 82.0517C123.163 82.0368 122.057 80.8784 122.076 79.1353C122.09 77.6044 122.254 76.055 122.53 74.5465C122.765 73.2726 123.647 72.4495 125.007 72.4681C129.823 72.5314 134.639 72.6469 139.455 72.7437C139.95 72.7549 140.483 72.6506 140.934 72.7996C142.181 73.2056 143.094 73.7419 142.74 75.4627C142.427 76.9861 142.677 78.6138 142.591 80.1931C142.502 81.8394 141.373 82.372 139.921 82.3981C138.311 82.4279 136.702 82.4056 135.093 82.4056V82.0629H135.097Z" fill="#5595E7"/>
<path d="M109.683 82.0897C106.953 82.0897 104.227 82.0488 101.497 82.1046C100.141 82.1307 99.5896 81.5943 99.6268 80.2386C99.6827 78.257 99.6715 76.268 99.6119 74.2865C99.5747 73.0276 100.111 72.4167 101.348 72.4391C106.92 72.5322 112.496 72.6365 118.068 72.737C119.569 72.7631 119.744 74.0072 119.759 74.9756C119.789 77.0055 119.636 79.0504 119.338 81.058C119.278 81.4677 118.265 82.0041 117.677 82.0264C115.014 82.1307 112.347 82.0711 109.68 82.0711V82.086L109.683 82.0897Z" fill="#2254B5"/>
<path d="M267.074 14.2741C264.411 14.2741 261.744 14.222 259.081 14.2965C257.785 14.3337 257.263 13.775 257.256 12.5719C257.245 10.7133 257.245 8.85469 257.256 6.99607C257.263 5.77437 257.848 5.29761 259.118 5.30879C264.385 5.36466 269.651 5.34976 274.918 5.32368C276.289 5.31624 277.019 5.83024 276.997 7.27542C276.967 9.01112 276.985 10.7468 276.989 12.4788C276.993 13.7787 276.445 14.3412 275.067 14.2965C272.404 14.2108 269.737 14.2704 267.074 14.2704V14.2741Z" fill="#2254B5"/>
<path d="M117.386 70.5164C114.906 70.5164 112.429 70.4903 109.948 70.5239C108.22 70.5462 107.505 69.7305 107.482 68.032C107.464 66.3708 107.244 64.7133 107.166 63.0521C107.106 61.7746 107.65 61.1376 109.05 61.1786C114.488 61.35 119.93 61.4691 125.368 61.566C126.497 61.5846 126.91 62.0725 126.888 63.1564C126.854 64.9517 126.862 66.7508 126.888 68.5498C126.906 69.9763 126.199 70.5462 124.821 70.5276C122.344 70.4978 119.863 70.5201 117.382 70.5201L117.386 70.5164Z" fill="#73B6FF"/>
<path d="M244.253 14.2739C241.586 14.2739 238.919 14.2329 236.256 14.2925C234.971 14.3223 234.464 13.8344 234.513 12.5493C234.58 10.754 234.531 8.95501 234.531 7.15599C234.531 5.93429 235.149 5.33834 236.364 5.33834C241.697 5.33834 247.027 5.35324 252.361 5.32717C253.475 5.32345 253.929 5.78158 253.907 6.88409C253.87 8.80603 253.859 10.728 253.907 12.6499C253.941 13.8567 253.441 14.3111 252.25 14.2888C249.583 14.2403 246.916 14.2739 244.249 14.2739H244.253Z" fill="#5595E7"/>
<path d="M252.026 16.8812C254.503 16.8812 256.98 16.9333 259.457 16.8626C261.159 16.8141 261.807 17.5591 261.733 19.2091C261.662 20.7549 261.703 22.3043 261.721 23.8538C261.74 25.1425 261.17 25.8242 259.84 25.8242C254.637 25.8204 249.437 25.8204 244.234 25.8242C242.912 25.8242 242.327 25.1649 242.342 23.8687C242.36 22.1963 242.364 20.5239 242.342 18.8515C242.323 17.425 243.031 16.8588 244.409 16.8737C246.949 16.9035 249.486 16.8812 252.026 16.8812Z" fill="#73B6FF"/>
<path d="M181.648 140.209C183.119 140.183 184.591 140.161 186.062 140.135C187.757 140.258 189.451 140.414 191.15 140.496C192.446 140.559 193.746 140.522 195.042 140.533C192.126 142.526 191.627 143.837 192.506 147.215C187.179 147.223 181.853 147.145 176.534 147.279C173.539 147.353 170.761 147.167 168.697 144.645C168.872 142.723 170.143 141.599 171.625 140.626C172.146 140.53 172.668 140.429 173.186 140.332C174.27 140.291 175.357 140.247 176.441 140.206C177.931 140.209 179.424 140.217 180.914 140.22C181.156 140.217 181.399 140.213 181.644 140.209H181.648Z" fill="#5681BE"/>
<path d="M186.855 53.8046C186.762 59.7418 186.87 65.6603 187.943 71.5342C188.282 73.3853 189.116 74.458 191.023 74.607C198.886 75.2253 206.622 74.1601 214.362 72.9793C216.388 72.6702 217.703 71.5267 218.292 69.75C219.591 65.8354 220.735 61.8686 221.834 57.8906C222.24 56.4194 222.337 54.8625 222.575 53.3465C222.694 53.2385 222.813 53.1305 222.932 53.0225C222.698 59.7567 222.467 66.4909 222.225 73.2252C222.169 74.8193 221.331 75.9032 219.763 75.9777C214.157 76.2496 208.548 76.4098 202.942 76.5737C201.46 76.6184 199.966 76.5699 198.484 76.4731C195.28 76.2645 192.085 75.9293 188.881 75.7728C187.015 75.6797 186.445 74.756 186.46 73.0315C186.52 66.6064 186.516 60.1776 186.539 53.7525C186.65 53.7488 186.755 53.7674 186.855 53.8084V53.8046Z" fill="#FFB875"/>
<path d="M248.942 91.5132C248.599 91.1184 248.115 90.7795 247.936 90.3214C247.124 88.2206 246.398 86.0827 245.638 83.9633C246.364 83.0582 246.912 81.8477 247.851 81.3076C249.918 80.1083 250.153 78.2645 250.126 76.2681C250.071 72.1263 249.936 67.9844 249.836 63.8425C250.067 63.8276 250.301 63.8128 250.532 63.7979C250.909 63.8053 251.285 63.8127 251.657 63.8202C251.657 68.1483 251.739 72.4764 251.627 76.797C251.575 78.8121 252.201 80.1567 253.985 81.1772C256.049 82.358 257.494 84.1272 257.337 86.6823C257.08 90.8987 253.508 92.9212 248.942 91.517V91.5132Z" fill="#3D5890"/>
<path d="M232.699 121.609C231.328 121.065 229.957 120.521 228.59 119.978C226.572 119.259 224.549 118.536 222.53 117.817C222.441 117.597 222.229 117.333 222.288 117.169C222.724 115.962 223.413 114.811 223.629 113.575C223.83 112.409 223.547 111.158 223.484 110.021C226.497 112.167 229.488 114.417 232.602 116.484C237.381 119.657 242.495 122.164 248.253 122.898C250.238 123.151 252.305 122.767 254.332 122.678C251.438 125.971 247.62 126.161 243.798 125.36C241.009 124.779 238.371 123.46 235.656 122.503C234.688 122.16 233.686 121.903 232.699 121.609Z" fill="#F29895"/>
<path d="M23.4048 19.1539C23.2558 19.8318 23.0025 20.5097 22.9802 21.1913C22.9206 23.0946 23.0174 25.0017 22.9206 26.9013C22.8945 27.4153 22.3954 27.9032 22.1123 28.4023C22.1123 25.3891 22.1123 22.3795 22.1123 19.288C21.3748 19.1577 20.7081 19.0385 19.8663 18.8932C20.9577 18.2526 21.8292 17.7423 22.6785 17.2432C24.7643 19.221 27.4721 18.1483 30.0459 18.0179C30.2917 18.0067 30.5338 17.9918 30.7797 17.9807C31.0329 17.9807 31.2899 17.9807 31.5432 17.9769C32.4074 17.9769 33.2678 17.9769 34.1319 17.9769C35.0035 17.9769 35.875 17.9769 36.7429 17.9769C37.4916 17.9769 38.2365 17.9769 38.9851 17.9769C39.3502 17.9918 39.7189 18.0067 40.0839 18.0179C41.9202 18.1036 43.7565 18.2675 45.5927 18.2637C53.139 18.2414 60.6852 18.1669 68.2277 18.1036C69.0285 18.0961 69.833 18.0328 70.6338 17.9955C71.0026 17.9881 71.375 17.9807 71.7438 17.9732C75.3493 17.9732 78.9585 17.9732 82.564 17.9769C84.1619 17.9769 85.7598 17.9769 87.3577 17.9769C87.6221 17.9807 87.8866 17.9881 88.151 17.9918C90.7546 17.9956 93.3619 18.003 95.9654 18.0067C96.6619 17.813 97.3696 17.4406 98.0587 17.4704C99.4741 17.5262 100.882 17.7944 102.294 17.9732C103.162 17.9732 104.033 17.9732 104.901 17.9732C105.147 17.9881 105.389 18.003 105.635 18.0142C108.391 18.0998 111.147 18.2004 113.904 18.2675C115.2 18.301 116.507 18.3792 117.788 18.2377C118.753 18.1296 119.684 17.705 120.753 17.3884C121.23 17.6864 122.049 18.2004 123.059 18.8299C122.433 18.9677 121.8 19.1092 120.962 19.2955C120.962 22.2789 120.962 25.3444 120.962 28.4135C120.701 27.8958 120.239 27.3855 120.217 26.8566C120.127 24.8453 120.213 22.8265 120.161 20.8114C120.146 20.2564 119.885 19.7052 119.736 19.1539C114.797 19.1874 109.855 19.2172 104.916 19.2508C103.05 19.2508 101.187 19.2508 99.3214 19.247C98.4535 19.247 97.5894 19.2508 96.7215 19.2545C96.3379 19.2545 95.958 19.2545 95.5743 19.2545C93.2278 19.2545 90.8849 19.2545 88.5384 19.2545C88.151 19.2545 87.7674 19.2508 87.38 19.247C86.393 19.247 85.4059 19.247 84.4189 19.247C83.7969 19.247 83.1748 19.247 82.5528 19.247C80.1504 19.2172 77.7442 19.139 75.3418 19.1688C73.8966 19.1875 72.4515 19.3662 71.0026 19.4705C70.6301 19.4668 70.2613 19.4631 69.8889 19.4556C67.7807 19.4854 65.6725 19.5152 63.5644 19.545L62.4432 19.4743C61.5717 19.3998 60.7001 19.3253 59.8322 19.247C56.3161 19.2172 52.8 19.1614 49.2839 19.1688C48.2038 19.1688 47.1273 19.3513 46.0509 19.4519C44.1885 19.4556 42.3262 19.4594 40.4639 19.4631L39.3092 19.2433C37.5884 19.2433 35.8639 19.2433 34.1431 19.2433C33.3795 19.2433 32.6159 19.2433 31.8561 19.2433C31.4985 19.247 31.141 19.2508 30.7834 19.2545C28.3251 19.221 25.8668 19.1837 23.4085 19.1502L23.4048 19.1539Z" fill="#FFA653"/>
<path d="M269.528 63.8231C269.644 67.7228 269.726 71.6263 269.897 75.5223C269.923 76.1481 270.244 76.8073 270.575 77.3623C272.389 80.3644 274.162 83.3739 274.78 86.9087C275.242 89.5607 274.56 91.0021 271.938 91.4304C269.927 91.7582 267.767 91.6539 265.744 91.3187C263.766 90.9909 262.69 89.136 263.353 87.2439C264.467 84.0816 265.904 81.0348 267.145 77.9135C267.539 76.9191 267.975 75.8575 268.005 74.8146C268.12 71.157 268.065 67.4956 268.076 63.8342C268.56 63.8305 269.04 63.8231 269.525 63.8193L269.528 63.8231ZM268.918 79.5971C268.277 83.1989 267.588 86.8007 269.175 90.3726C270.43 86.7634 269.871 83.1765 268.918 79.5971ZM267.029 80.3011C265.498 83.2994 264.213 86.3537 264.966 89.8325C267.189 87.0018 267.044 83.6384 267.029 80.3011ZM273.559 90.2385C273.663 86.3686 272.631 83.2585 271.29 79.9025C270.344 82.4539 271.566 88.3874 273.559 90.2385Z" fill="#5681BE"/>
<path d="M105.996 122.99C107.691 123.258 109.393 123.474 111.069 123.825C111.523 123.921 111.892 124.428 112.298 124.745C111.955 125.154 111.684 125.672 111.259 125.951C110.544 126.424 109.728 126.745 108.953 127.132C102.093 127.248 95.2354 127.348 88.3745 127.512C87.6966 127.527 87.0299 127.963 86.3594 128.205C84.6982 127.594 83.0333 126.983 81.3721 126.372C83.6739 125.773 85.9423 124.905 88.2814 124.629C94.1701 123.94 100.089 123.519 105.996 122.99Z" fill="#5595E7"/>
<path d="M146.126 4.57849C144.848 6.98836 143.589 9.40941 142.263 11.7895C142.14 12.013 141.537 12.1322 141.213 12.0539C138.434 11.3947 135.764 10.5007 133.73 8.32179C132.333 6.82447 133.056 4.38108 135.078 3.89314C135.432 3.80747 135.864 3.72181 136.177 3.84472C138.296 4.66415 139.611 3.87079 140.874 2.08667C141.354 1.40878 142.937 1.09218 143.895 1.26724C145.347 1.53542 145.619 2.96942 146.126 4.57849Z" fill="#FFA653"/>
<path d="M80.6717 128.644C80.6829 130.618 80.6978 132.592 80.709 134.566C79.6996 133.583 78.7684 132.491 77.6547 131.646C76.8539 131.043 75.8632 130.827 75.1443 132.033C74.5148 133.091 74.7271 133.743 75.6509 134.555C76.2841 135.11 77.0215 136.347 76.7906 136.887C76.4591 137.669 75.3492 138.473 74.4701 138.607C70.805 139.162 68.2574 135.088 69.8031 131.314C71.3377 127.564 75.6062 126.04 79.3904 127.903C79.83 128.119 80.2434 128.394 80.668 128.64L80.6717 128.644Z" fill="#2254B5"/>
<path d="M138.766 134.172C138.669 132.336 138.572 130.5 138.471 128.663C140.684 127.382 143.001 126.745 145.541 127.527C148.241 128.358 149.377 130.462 149.884 133.006C150.238 134.779 149.135 137.208 147.426 137.997C146.435 138.456 145.15 138.675 144.099 138.478C143.381 138.344 142.513 137.383 142.319 136.634C142.178 136.083 142.867 135.088 143.448 134.63C144.379 133.896 144.721 133.278 144.118 132.157C143.455 130.92 142.49 131.036 141.637 131.617C140.587 132.332 139.715 133.308 138.766 134.172Z" fill="#2254B5"/>
<path d="M285.131 46.2436C280.308 46.2436 275.484 46.2436 270.661 46.2473C270.828 45.0852 270.27 44.426 269.193 44.1243C269.193 44.1243 269.104 44.0088 269.104 44.0125C269.13 43.7853 269.156 43.5544 269.182 43.3272C274.27 43.3272 279.358 43.3235 284.446 43.3197C285.306 43.3197 286.17 43.3086 287.031 43.3048C287.135 43.2937 287.239 43.275 287.344 43.249C291.105 43.1484 294.871 43.0739 298.629 42.9212C299.099 42.9026 299.553 42.4556 300.015 42.2061C299.866 43.167 299.818 44.1578 299.52 45.0703C299.397 45.4465 298.756 45.8786 298.328 45.9009C295.195 46.076 292.055 46.1542 288.919 46.2622C288.86 45.0629 288.465 44.2211 287.031 44.4669C285.589 44.1988 285.042 44.8841 285.124 46.2436H285.131Z" fill="#969FB7"/>
<path d="M165.505 17.5037C166.943 17.336 168.325 16.822 169.502 17.1163C172.024 17.742 172.351 20.5281 170.027 22.234C168.321 23.4855 166.284 24.2863 164.358 25.2249C164.068 25.3665 163.42 25.2845 163.248 25.0648C161.606 22.938 159.721 20.9304 159.617 17.9916C159.568 16.6619 159.974 15.835 161.289 15.2837C162.581 14.7399 163.416 15.2763 164.239 16.051C164.768 16.5501 165.2 17.1498 165.505 17.5037Z" fill="#0C2C7E"/>
<path d="M114.581 127.122C115.527 126.056 116.518 125.002 115.703 123.404C118.198 123.553 120.723 123.516 123.182 123.896C127.763 124.6 132.315 125.527 136.863 126.436C137.321 126.526 137.671 127.14 138.073 127.513C136.565 128.127 135.056 128.742 133.551 129.356C133.346 129.241 133.145 129.047 132.929 129.025C126.817 128.38 120.701 127.755 114.585 127.125L114.581 127.122Z" fill="#5595E7"/>
<path d="M70.6784 14.5794C70.6412 14.4826 70.6226 14.382 70.6226 14.2777C70.6226 12.9555 70.6226 11.6295 70.6226 10.2774C72.47 10.4115 74.0046 10.4376 75.5094 10.6499C79.7629 11.2384 83.9383 10.7653 88.0876 9.83789C88.1137 11.3315 88.136 12.8251 88.1621 14.315C86.296 14.5496 84.4263 14.788 82.5602 15.0227C78.6008 14.8774 74.6415 14.7284 70.6784 14.5831V14.5794Z" fill="#3D5891"/>
<path d="M62.8156 10.1807C62.9795 11.4433 63.1471 12.706 63.3594 14.3411H45.7007C45.7007 12.855 45.7007 11.5216 45.7007 10.1881C47.6524 10.4302 49.6079 10.907 51.5559 10.8697C55.3104 10.7952 59.0611 10.4302 62.8119 10.1844L62.8156 10.1807Z" fill="#98B0D9"/>
<path d="M168.697 144.646C170.761 147.167 173.539 147.357 176.534 147.279C181.857 147.145 187.183 147.227 192.505 147.216C193.213 147.867 193.921 148.515 194.628 149.167C194.077 149.383 193.526 149.778 192.971 149.782C186.87 149.827 180.769 149.849 174.668 149.778C173.405 149.763 172.15 149.339 170.891 149.104C170.109 147.849 169.33 146.594 168.548 145.342C168.597 145.111 168.645 144.876 168.693 144.646H168.697Z" fill="#4A6EA8"/>
<path d="M166.783 127.505C168.031 125.847 169.211 124.13 170.549 122.543C172.768 119.906 175.346 117.783 178.977 117.444C179.357 119.187 179.737 120.927 180.117 122.67C177.044 122.152 174.791 123.493 172.791 125.691C171.226 127.408 169.453 128.939 167.774 130.552C167.446 129.538 167.114 128.522 166.787 127.505H166.783Z" fill="#F29895"/>
<path d="M300.022 42.2023C299.561 42.4518 299.106 42.8988 298.637 42.9174C294.875 43.0738 291.113 43.1483 287.351 43.2489C287.362 42.5114 287.422 41.7739 287.377 41.0402C287.314 40.0494 287.411 39.1927 288.528 38.8389C292.357 38.9618 296.19 39.0884 300.019 39.2113C300.019 40.2096 300.019 41.2078 300.019 42.206L300.022 42.2023Z" fill="#5680BE"/>
<path d="M40.043 1.27521C40.0541 2.86937 40.069 4.46354 40.0802 6.05771C38.9665 6.32216 37.8528 6.59034 36.7429 6.85479C34.5342 6.68346 32.3254 6.51212 30.1167 6.34451C29.99 4.65723 29.8671 2.96994 29.7405 1.28266C33.1746 2.19521 36.6088 1.97173 40.043 1.27148V1.27521Z" fill="#5681BE"/>
<path d="M266.899 46.2395C262.09 46.2842 257.278 46.3252 252.469 46.3699C252.57 45.1817 252.06 44.4107 250.909 44.0792H250.924C250.935 43.8147 250.946 43.5503 250.961 43.2858C251.687 43.1816 252.413 42.9692 253.136 42.9841C258.205 43.0773 263.275 43.2188 268.348 43.3417C268.601 43.5652 268.854 43.785 269.108 44.0084C269.108 44.0084 269.197 44.1239 269.197 44.1202C269.055 44.2356 268.918 44.3511 268.776 44.4666C267.364 44.2245 266.809 44.8837 266.899 46.2358V46.2395Z" fill="#969FB7"/>
<path d="M266.899 46.2392C266.806 44.8909 267.364 44.2279 268.776 44.47C269.029 45.9785 269.472 47.4796 269.502 48.9918C269.599 53.8264 269.547 58.6648 269.551 63.4994C269.566 63.6075 269.558 63.7155 269.528 63.8198C269.044 63.8235 268.564 63.8309 268.079 63.8347C267.822 63.235 267.364 62.6428 267.338 62.0282C267.152 57.8081 267.055 53.5843 266.936 49.3605C266.906 48.3176 266.91 47.2784 266.899 46.2355V46.2392Z" fill="#B4C9E7"/>
<path d="M102.647 12.1364C100.007 12.0209 97.3659 11.9054 94.3563 11.7751C94.5314 10.2293 94.6841 8.89589 94.8331 7.56246C97.8091 9.06351 100.979 8.10626 104.059 8.2329C104.595 8.25525 105.15 7.77104 105.698 7.52148C105.694 8.93687 105.691 10.356 105.687 11.7714C104.674 11.8943 103.661 12.0135 102.647 12.1364Z" fill="#5680BE"/>
<path d="M250.532 63.7937C250.302 63.8086 250.067 63.8235 249.836 63.8384C249.575 62.8476 249.106 61.8606 249.087 60.8661C249.002 55.916 249.035 50.9622 249.028 46.0083C249.415 45.3453 249.802 44.6786 250.19 44.0156C250.436 44.038 250.681 44.0603 250.924 44.0827H250.909C251.032 44.7457 251.255 45.4087 251.259 46.0716C251.296 51.3942 251.315 56.7205 251.263 62.0431C251.259 62.6279 250.786 63.2089 250.532 63.7937Z" fill="#98B0D9"/>
<path d="M285.131 46.2428C285.049 44.8833 285.597 44.1943 287.038 44.4624C287.288 46.3434 287.742 48.2281 287.746 50.1091C287.753 54.5601 287.545 59.0111 287.422 63.4621C287.425 63.5813 287.422 63.7004 287.41 63.8159C287.168 63.8159 286.926 63.8159 286.68 63.8159C285.634 63.0449 285.515 61.9796 285.533 60.7579C285.593 56.549 285.574 52.3401 285.537 48.1312C285.533 47.4981 285.273 46.8723 285.135 46.2391L285.131 46.2428Z" fill="#D0DAEC"/>
<path d="M212.861 44.7799C212.693 44.4074 212.526 44.0349 212.414 43.7779C208.615 48.065 203.799 48.8696 198.428 47.782C198.42 47.2978 198.417 46.8173 198.409 46.3331C198.532 45.8339 198.651 45.3348 198.774 44.8357C199.378 44.9475 199.988 45.1784 200.584 45.1561C204.037 45.0257 207.486 44.8842 210.704 43.3459C211.632 42.9026 212.623 42.6829 212.876 41.5059L212.861 44.7761V44.7799Z" fill="#EB8889"/>
<path d="M239.772 42.2093C239.682 41.2111 239.593 40.2092 239.504 39.2109C243.053 39.3488 246.603 39.4866 250.153 39.6244C250.149 40.7381 250.141 41.8555 250.138 42.9691C246.681 42.7159 243.228 42.4626 239.772 42.2056V42.2093Z" fill="#5681BE"/>
<path d="M88.0915 9.83464C83.9422 10.7658 79.7668 11.2388 75.5132 10.6466C74.0047 10.438 72.4739 10.4082 70.6264 10.2742C70.6264 11.6299 70.6264 12.9522 70.6264 14.2745C70.5072 12.941 70.2465 11.6001 70.3471 10.2853C70.3806 9.84209 71.2969 9.16792 71.863 9.11205C74.556 8.85132 77.2638 8.67253 79.9642 8.65764C82.1729 8.64646 84.3854 8.86622 86.5867 9.07853C87.1082 9.13067 87.5924 9.57018 88.0915 9.83091V9.83464Z" fill="#5680BE"/>
<path d="M234.554 144.56C234.177 138.667 233.798 132.778 233.425 126.886C233.406 126.584 233.455 126.275 233.47 125.97C234.986 131.955 236.502 137.941 238.018 143.926C236.863 144.139 235.708 144.347 234.554 144.56Z" fill="#FFA653"/>
<path d="M239.772 42.2098C243.228 42.4631 246.681 42.7163 250.138 42.9696C250.156 43.316 250.171 43.6661 250.19 44.0125C249.802 44.6755 249.415 45.3422 249.028 46.0052C247.061 45.9792 245.091 46.0388 243.131 45.9084C239.831 45.6886 239.667 45.454 239.772 42.2061V42.2098Z" fill="#969FB7"/>
<path d="M30.1167 6.34748C32.3254 6.51881 34.5341 6.69014 36.7429 6.85776C36.7429 7.83735 36.7429 8.81694 36.7429 9.79654C35.253 9.79654 33.7631 9.85613 32.277 9.78536C31.1559 9.73321 30.7275 10.1243 30.7648 11.2752C30.8318 13.5063 30.7834 15.7411 30.7797 17.976C30.5338 17.9871 30.2917 18.002 30.0459 18.0132C30.0682 14.1246 30.0906 10.2323 30.1129 6.34375L30.1167 6.34748Z" fill="#D0DAEC"/>
<path d="M250.532 63.7941C250.786 63.2093 251.259 62.6282 251.263 62.0435C251.311 56.7209 251.292 51.3946 251.259 46.072C251.255 45.409 251.032 44.746 250.909 44.083C252.063 44.4145 252.574 45.1855 252.469 46.3737C252.559 50.3926 252.685 54.4078 252.723 58.4268C252.734 59.8422 252.577 61.265 252.391 62.6729C252.335 63.0789 251.911 63.4365 251.657 63.8164C251.281 63.809 250.905 63.8015 250.532 63.7941Z" fill="#5B84C0"/>
<path d="M70.6785 14.5789C74.6378 14.7242 78.5972 14.8732 82.5602 15.0184C82.5602 15.633 82.5528 16.2439 82.5528 16.8584C79.4352 16.8659 76.3139 16.8808 73.1964 16.8733C72.4067 16.8733 71.673 16.8696 71.7512 17.9721C71.3824 17.9796 71.01 17.987 70.6412 17.9945C70.6561 16.8547 70.6673 15.7149 70.6822 14.5752L70.6785 14.5789Z" fill="#D0DAEC"/>
<path d="M62.8157 10.1809C59.0649 10.4267 55.3142 10.7918 51.5597 10.8662C49.6117 10.9035 47.6562 10.4305 45.7045 10.1846C46.6245 9.93135 47.537 9.47321 48.4607 9.45459C52.6436 9.37637 56.8301 9.39127 61.0167 9.45459C61.6201 9.46576 62.216 9.9239 62.8157 10.1735V10.1809Z" fill="#B4C9E7"/>
<path d="M36.7466 9.79739C36.7466 8.81779 36.7466 7.8382 36.7466 6.85861C37.8603 6.59415 38.9739 6.32598 40.0839 6.06152C40.0839 10.0469 40.0876 14.0324 40.0913 18.0215C39.7263 18.0066 39.3576 17.9917 38.9926 17.9805C38.9926 15.3323 38.9926 12.6803 38.9926 9.82346H36.754L36.7466 9.80111V9.79739Z" fill="#C1D2EA"/>
<path d="M269.551 63.5038C269.547 58.6691 269.599 53.8307 269.502 48.9961C269.472 47.4839 269.029 45.9791 268.776 44.4743C268.917 44.3589 269.055 44.2434 269.197 44.1279C270.273 44.4296 270.832 45.0889 270.664 46.251C270.594 48.6087 270.519 50.9665 270.452 53.3279C270.363 56.5088 270.296 59.686 270.173 62.8631C270.165 63.0829 269.767 63.2914 269.547 63.5038H269.551Z" fill="#99B1D9"/>
<path d="M102.301 17.9803C100.889 17.8016 99.4814 17.5334 98.0661 17.4775C97.377 17.4514 96.673 17.8239 95.9728 18.0139C95.9728 17.105 95.9728 16.1962 95.9728 15.0527C98.189 15.0527 100.249 15.0527 102.308 15.0527C102.308 16.0286 102.301 17.0045 102.301 17.9803Z" fill="#B4C9E7"/>
<path d="M287.422 63.4661C287.545 59.0151 287.753 54.5641 287.746 50.1131C287.746 48.2284 287.288 46.3475 287.038 44.4665C288.468 44.2207 288.867 45.0662 288.927 46.2618C288.796 46.8987 288.558 47.5356 288.554 48.1725C288.521 52.6198 288.539 57.0634 288.535 61.5107C288.535 62.3711 288.688 63.3246 287.422 63.4661Z" fill="#B5CAE7"/>
<path d="M285.217 76.92C285.314 79.6502 285.057 82.4512 286.733 85.0101C288.39 83.915 288.427 82.2724 288.476 80.8123C288.554 78.4807 288.312 76.1416 288.252 73.8025C288.241 73.3369 288.439 72.8638 288.539 72.3945C289.586 75.9479 289.493 79.531 288.856 83.1328C288.796 83.4755 288.763 83.8293 288.759 84.1794C288.759 84.2614 288.927 84.3433 289.02 84.4253C286.64 86.0641 285.638 85.8407 285.168 83.0546C284.747 80.5516 284.937 77.9443 284.855 75.3817C284.975 75.8957 285.098 76.406 285.217 76.92Z" fill="#A6BBDE"/>
<path d="M105.698 7.51792C105.151 7.76748 104.596 8.25168 104.059 8.22934C100.979 8.1027 97.8129 9.05994 94.8331 7.55889C98.4498 6.39307 102.07 6.45639 105.698 7.51792Z" fill="#3E5991"/>
<path d="M40.043 1.27505C36.6088 1.97157 33.1746 2.19877 29.7405 1.28622C29.8485 1.14469 29.9267 0.947278 30.072 0.865335C32.3627 -0.460654 38.1843 -0.214825 40.043 1.27505Z" fill="#97B0D9"/>
<path d="M300.019 39.211C296.19 39.0881 292.357 38.9615 288.528 38.8386C288.666 38.3357 288.807 37.8329 288.945 37.3301C289.902 37.4642 290.86 37.6914 291.824 37.7137C294.566 37.7733 297.307 37.751 300.048 37.7584C300.037 38.2426 300.03 38.7268 300.019 39.211Z" fill="#3E5992"/>
<path d="M82.5528 16.8592C82.5528 16.2446 82.5602 15.6338 82.5602 15.0192C84.4263 14.7846 86.2961 14.5462 88.1622 14.3115C88.1622 15.5407 88.1622 16.7698 88.1585 17.999C87.894 17.9952 87.6295 17.9878 87.3651 17.9841C86.9479 17.6153 86.5643 16.9821 86.1099 16.9263C84.9515 16.7884 83.7596 16.9076 82.5826 16.9225L82.5491 16.8629L82.5528 16.8592Z" fill="#C0D0E9"/>
<path d="M250.153 39.6245C246.603 39.4866 243.053 39.3488 239.504 39.2073C239.504 38.8497 239.5 38.4884 239.496 38.1309C242.539 38.2463 245.582 38.3581 248.626 38.4735C249.136 38.8572 249.642 39.2408 250.153 39.6245Z" fill="#405D96"/>
<path d="M102.647 12.1365C103.66 12.0136 104.674 11.8944 105.687 11.7715C105.672 13.8536 105.657 15.9394 105.646 18.0215C105.4 18.0066 105.158 17.9917 104.912 17.9805C104.907 15.7482 104.165 14.6407 102.685 14.6581C102.673 13.8163 102.662 12.9783 102.647 12.1365Z" fill="#D8E2F2"/>
<path d="M286.681 63.8193C286.923 63.8193 287.165 63.8193 287.411 63.8193C287.66 65.6705 287.91 67.5254 288.156 69.3766C287.712 68.423 287.265 67.4658 286.833 66.5346C286.651 67.6967 286.461 68.9147 286.271 70.129C286.088 69.6634 285.906 69.2015 285.723 68.7359C285.682 68.058 285.489 67.3466 285.634 66.7134C285.861 65.7226 286.319 64.7803 286.681 63.8193Z" fill="#A9BDDF"/>
<path d="M102.685 14.6574C104.165 14.64 104.907 15.7475 104.912 17.9798C104.044 17.9798 103.173 17.9798 102.305 17.9798C102.305 17.004 102.309 16.0281 102.312 15.0522C102.435 14.9219 102.562 14.7878 102.685 14.6574Z" fill="#A7BCE0"/>
<path d="M234.553 144.56C235.708 144.348 236.863 144.139 238.017 143.927C238.111 144.273 238.2 144.623 238.293 144.97C232.337 144.992 226.378 145.011 220.418 145.033C220.381 144.925 220.359 144.813 220.348 144.698C225.082 144.653 229.816 144.605 234.553 144.56Z" fill="#F0E1BE"/>
<path d="M285.723 68.7363C285.906 69.2019 286.088 69.6638 286.271 70.1294C285.921 72.394 285.567 74.6549 285.217 76.9195C285.098 76.4055 284.975 75.8952 284.855 75.3812C285.146 73.165 285.433 70.9525 285.723 68.7363Z" fill="#ABBFE0"/>
<path d="M242.007 149.458C243.351 150.795 242.934 156.658 241.418 157.671C240.859 158.043 240.297 158.412 239.735 158.781C238.736 159.284 237.734 159.783 236.736 160.286C229.495 164.204 222.247 168.111 215.021 172.052C213.721 172.76 212.526 172.965 210.984 172.659C203.996 171.266 196.96 170.089 189.947 168.819C184.39 167.813 178.836 166.778 173.279 165.761C167.964 164.789 162.652 163.791 157.33 162.871C155.605 162.573 154.413 162.01 154.823 159.943C155.117 158.475 155.348 156.997 155.605 155.522C163.163 156.852 170.712 158.215 178.274 159.503C188.572 161.258 198.89 162.93 209.188 164.696C211.315 165.061 213.219 165.027 215.193 163.858C218.329 162.003 221.636 160.446 224.873 158.762C226.229 158.893 227.581 159.019 228.937 159.146C229.32 159.343 229.689 159.615 230.095 159.723C231.838 160.185 233.432 159.842 234.695 158.543C235.697 157.511 236.505 156.33 235.701 154.773C235.693 153.998 235.682 153.224 235.675 152.445C237.787 151.451 239.895 150.452 242.007 149.458Z" fill="#B4C9E7"/>
<path d="M242.007 149.458C239.895 150.452 237.787 151.45 235.675 152.445C234.874 151.559 234.222 150.192 233.239 149.882C230.922 149.156 228.4 148.411 226.05 148.631C222.474 148.966 221.305 152.181 222.981 155.812C222.217 157.693 224.173 157.823 224.877 158.758C221.64 160.442 218.329 161.999 215.196 163.854C213.222 165.02 211.319 165.057 209.192 164.692C198.893 162.93 188.58 161.254 178.277 159.5C170.713 158.211 163.163 156.848 155.609 155.518C160.704 153.38 165.8 151.238 170.895 149.1C172.154 149.335 173.409 149.759 174.672 149.774C180.773 149.845 186.874 149.823 192.975 149.778C193.53 149.774 194.081 149.376 194.632 149.164C196.234 150.039 198 150.259 199.277 148.929C200.279 147.882 200.73 146.307 201.426 144.966C201.922 144.999 202.417 145.029 202.912 145.063C203.564 145.297 204.201 145.692 204.868 145.744C207.192 145.931 209.527 146.001 211.859 146.113C212.22 147.614 212.585 149.115 212.947 150.616C213.301 152.192 214.399 152.888 215.882 153.216C219.074 153.924 222.158 151.339 221.461 147.286C224.467 147.525 227.477 147.73 230.479 148.016C234.036 148.359 237.586 148.769 241.135 149.167C241.433 149.201 241.72 149.357 242.014 149.454L242.007 149.458ZM189.071 157.272C192.141 157.283 195.21 157.213 198.275 157.324C201.315 157.432 204.13 158.211 206.481 161.377C206.868 160.393 207.11 159.783 207.352 159.172C208.153 159.432 208.95 159.697 209.755 159.961C211.069 158.509 209.792 157.395 209.185 156.185L209.226 155.093C209.814 154.911 210.395 154.672 210.999 154.557C212.392 154.292 212.693 153.544 212.101 152.326C211.893 151.897 211.706 151.462 211.524 151.059C210.678 151.164 209.952 151.253 209.226 151.342C209.088 150.665 208.95 149.99 208.823 149.361C206.44 150.08 204.35 151.037 202.182 151.29C197.962 151.778 193.698 151.871 189.451 152.125C187.675 151.912 185.905 151.659 184.125 151.491C180.81 151.179 177.495 150.836 174.169 150.653C172.597 150.568 171.096 151.164 170.727 152.881C170.351 154.631 171.349 155.942 172.951 156.471C174.687 157.045 176.53 157.566 178.337 157.604C181.916 157.678 185.5 157.403 189.083 157.276L189.071 157.272Z" fill="#98B0D9"/>
<path d="M137.674 147.249C137.701 147.141 137.712 147.033 137.708 146.925C139.939 147.033 142.185 147.007 144.386 147.312C145.169 147.42 146.249 148.21 146.476 148.918C147.09 150.847 147.407 152.885 147.683 154.903C148.446 160.483 149.135 166.07 149.832 171.657C149.932 172.454 149.988 173.27 149.925 174.067C149.821 175.434 149.165 176.473 147.709 176.656C144.58 177.047 141.44 177.665 138.308 177.65C125.655 177.59 112.998 177.285 100.346 177.151C95.9468 177.106 91.5442 177.345 87.1454 177.356C84.1731 177.363 81.2045 177.129 78.2322 177.125C75.2599 177.121 72.2876 177.337 69.3153 177.322C67.7807 177.315 66.2275 177.125 64.7153 176.842C61.9739 176.332 61.0428 174.987 61.445 172.223C62.1192 167.567 62.7338 162.9 63.5793 158.278C64.1678 155.064 65.0878 151.905 65.8849 148.732C66.194 147.495 66.9687 146.877 68.3096 146.899C72.0939 146.959 75.8819 146.959 79.6699 146.985C80.2659 147.1 80.8581 147.216 81.6887 147.376C81.7185 147.894 81.752 148.478 81.7856 149.063C78.56 149.071 75.3307 149.071 72.1051 149.085C69.1961 149.1 69.1179 149.167 68.4139 152.069C67.8291 154.468 67.52 156.974 66.6224 159.25C64.9909 163.384 64.8308 167.679 64.76 171.989C64.7451 172.793 65.464 174.004 66.1754 174.35C67.5163 175.006 69.0955 175.482 70.578 175.486C76.895 175.501 83.2158 175.259 89.5329 175.233C93.4327 175.218 97.3287 175.49 101.228 175.505C104.134 175.516 107.039 175.248 109.944 175.233C111.982 175.222 114.019 175.493 116.056 175.52C120.958 175.575 125.864 175.609 130.765 175.553C134.665 175.508 138.565 175.367 142.457 175.169C146.118 174.983 147.184 173.594 146.547 169.992C146.256 168.353 145.753 166.752 145.534 165.105C144.971 160.908 144.576 156.684 143.995 152.486C143.615 149.748 142.807 149.145 140.073 149.108C139.347 149.097 138.621 149.108 137.794 149.108C137.749 148.337 137.715 147.793 137.682 147.249H137.674Z" fill="#2254B5"/>
<path d="M251.665 176.663C253.274 177.487 251.967 178.187 251.408 178.403C249.702 179.062 247.929 179.647 246.134 179.971C241.329 180.835 236.55 180.302 231.838 179.233C230.743 178.984 229.686 178.358 228.736 177.721C227.954 177.196 227.998 176.31 228.914 175.978C230.624 175.36 232.397 174.902 234.163 174.451C234.989 174.239 235.861 174.201 236.714 174.086C236.74 176.358 238.055 177.382 240.159 177.613C240.889 177.691 241.631 177.691 242.364 177.725C245.519 177.844 248.678 177.993 251.665 176.663Z" fill="#F0A475"/>
<path d="M278.814 150.941C281.958 149.447 285.109 149.563 288.219 150.989C290.372 151.973 290.815 153.608 289.649 155.816C289.344 155.824 289.027 155.794 288.729 155.85C283.615 156.8 280.673 155.347 278.814 150.945V150.941Z" fill="#B4C9E7"/>
<path d="M261.345 151.342C264.344 149.796 267.402 149.953 270.389 151.256C272.761 152.292 273.223 154.374 271.748 156.508C271.413 156.411 271.022 156.154 270.746 156.247C268.456 157.011 266.366 156.206 264.31 155.409C262.507 154.709 261.416 153.368 261.345 151.342Z" fill="#B4C9E7"/>
<path d="M236.803 164.391C236.814 163.146 236.829 161.906 236.84 160.662C242.126 162.547 247.407 162.558 252.693 160.662C252.693 161.891 252.685 163.12 252.685 164.353C251.225 164.51 249.765 164.662 248.301 164.819C244.469 164.677 240.636 164.536 236.803 164.391Z" fill="#5681BE"/>
<path d="M288.595 177.058C288.941 177.177 289.37 177.207 289.619 177.434C290.044 177.822 290.565 178.302 290.636 178.805C290.677 179.103 289.995 179.699 289.541 179.844C286.159 180.921 282.695 181.427 279.145 181.04C277.927 180.906 276.661 180.79 275.533 180.366C274.452 179.96 273.521 179.159 272.523 178.529L272.516 178.54C274.359 177.922 276.199 177.304 278.043 176.686C279.131 179.028 281.317 178.66 283.291 178.816C285.176 178.578 287.18 178.701 288.599 177.058H288.595Z" fill="#F0A575"/>
<path d="M252.693 160.662C247.408 162.558 242.126 162.547 236.841 160.662C236.807 160.535 236.77 160.413 236.736 160.286C237.735 159.783 238.736 159.284 239.735 158.781C243.277 158.789 246.819 158.714 250.358 158.859C251.33 158.9 252.667 159.098 252.693 160.662Z" fill="#98B0D9"/>
<path d="M271.361 159.574C271.491 163.742 271.677 167.91 271.73 172.078C271.752 173.843 271.495 175.616 271.368 177.386C269.856 179.069 267.77 178.969 265.785 179.196C265.502 178.939 265.219 178.686 264.869 178.373C265.908 178.164 266.798 177.989 267.688 177.81C269.569 177.68 270.381 176.749 270.325 174.793C270.214 170.838 270.27 166.875 270.258 162.915C268.888 162.785 267.502 162.476 266.146 162.569C264.34 162.692 263.647 162.062 263.96 160.297C266.426 160.055 268.891 159.816 271.357 159.574H271.361Z" fill="#D0D9EB"/>
<path d="M265.785 179.192C267.767 178.965 269.856 179.066 271.368 177.382C271.752 177.766 272.132 178.153 272.516 178.537L272.523 178.525C271.152 180.395 268.973 180.574 267.037 180.663C263.778 180.812 260.496 180.496 257.226 180.306C256.634 180.272 256.012 179.989 255.494 179.669C255.058 179.401 254.466 178.913 254.469 178.529C254.477 178.138 255.065 177.531 255.509 177.412C257.166 176.961 258.865 176.671 260.548 176.324C260.511 177.706 261.252 178.552 262.522 178.835C263.584 179.069 264.697 179.084 265.789 179.196L265.785 179.192Z" fill="#F0A575"/>
<path d="M288.595 177.058C287.176 178.701 285.172 178.578 283.287 178.816C282.673 178.354 282.058 177.896 281.444 177.434C281.574 177.427 281.704 177.419 281.835 177.416C282.699 177.419 283.563 177.438 284.427 177.431C287.105 177.404 287.783 176.723 287.79 174.011C287.798 170.186 287.787 166.361 287.783 162.536C285.798 162.405 283.809 162.271 281.824 162.141C282.054 161.318 281.175 159.936 282.96 159.902C284.941 159.776 286.919 159.645 288.9 159.519C288.904 164.763 288.919 170.011 288.9 175.255C288.9 175.859 288.703 176.462 288.599 177.062L288.595 177.058Z" fill="#D1DAEC"/>
<path d="M248.301 164.818C249.761 164.662 251.225 164.509 252.685 164.353C252.6 167.787 252.551 171.221 252.399 174.648C252.369 175.329 251.922 175.992 251.668 176.663C248.678 177.989 245.523 177.84 242.368 177.724C242.915 177.497 243.441 177.169 244.011 177.061C245.061 176.864 246.134 176.797 247.199 176.674C250.052 176.581 251.352 175.825 251.557 173.653C251.765 171.4 251.605 169.109 251.605 166.584H241.988C241.828 165.455 242.323 165.109 243.437 165.112C245.061 165.116 246.681 164.926 248.305 164.818H248.301Z" fill="#FCFDFD"/>
<path d="M265.785 179.193C264.694 179.081 263.584 179.066 262.519 178.832C261.249 178.552 260.507 177.703 260.545 176.321C260.567 170.73 260.593 165.14 260.615 159.549C261.729 159.798 262.846 160.048 263.96 160.294C263.647 162.059 264.344 162.689 266.146 162.566C267.502 162.473 268.884 162.782 270.259 162.912C268.27 162.916 266.284 162.92 264.295 162.923H261.818C261.818 167.285 261.763 171.464 261.848 175.639C261.878 177.07 262.839 177.826 264.321 177.789L267.689 177.807C266.798 177.986 265.908 178.161 264.869 178.37C265.219 178.683 265.502 178.94 265.785 179.193Z" fill="#B4C9E7"/>
<path d="M282.956 159.894C281.172 159.928 282.051 161.309 281.82 162.133C281.034 162.133 280.244 162.133 279.213 162.133C279.213 166.576 279.272 170.774 279.183 174.972C279.145 176.659 279.868 177.367 281.44 177.43C282.054 177.892 282.669 178.35 283.284 178.812C281.31 178.655 279.123 179.02 278.036 176.681C278.08 170.841 278.125 165.001 278.166 159.164C278.266 159.164 278.371 159.164 278.471 159.164C279.965 159.41 281.455 159.652 282.948 159.898L282.956 159.894Z" fill="#B6CAE6"/>
<path d="M278.479 159.165C278.378 159.165 278.274 159.165 278.173 159.165C277.864 158.032 277.682 156.844 277.209 155.786C276.445 154.077 277.078 151.916 278.814 150.94C280.673 155.343 283.615 156.796 288.729 155.846C289.027 155.79 289.344 155.823 289.649 155.812C289.414 156.189 289.183 156.565 288.949 156.941C285.533 157.939 282.077 157.969 278.482 157.161V159.161L278.479 159.165Z" fill="#A7BCE0"/>
<path d="M261.345 151.343C261.416 153.365 262.507 154.706 264.31 155.41C266.366 156.211 268.452 157.012 270.746 156.248C271.022 156.155 271.413 156.412 271.748 156.509C271.622 156.773 271.495 157.038 271.365 157.302C267.778 158.129 264.191 158.677 260.608 157.302C258.384 155.321 258.719 152.602 261.345 151.343Z" fill="#A7BCE0"/>
<path d="M212.939 150.624C212.578 149.122 212.213 147.621 211.852 146.12C211.971 145.644 212.094 145.167 212.213 144.694C212.392 144.653 212.615 144.668 212.746 144.567C215.755 142.176 217.293 142.202 220.348 144.701C220.359 144.817 220.381 144.928 220.418 145.037C220.668 145.774 220.918 146.515 221.171 147.253C220.847 149.663 219.785 151.678 217.197 151.864C215.815 151.964 214.362 151.071 212.939 150.624ZM219.64 147.599C219.651 145.629 218.199 143.956 216.47 143.945C214.925 143.934 213.04 145.774 213.044 147.29C213.047 149.145 214.455 150.594 216.262 150.609C218.385 150.627 219.633 149.514 219.64 147.599Z" fill="#FCFDFD"/>
<path d="M248.301 164.818C246.677 164.926 245.053 165.116 243.433 165.112C242.32 165.112 241.824 165.459 241.984 166.584L241.969 166.654H237.88C237.88 168.83 237.876 170.688 237.88 172.543C237.891 176.029 238.45 176.592 241.977 176.67C243.716 176.67 245.456 176.674 247.199 176.678C246.134 176.8 245.061 176.868 244.011 177.065C243.441 177.173 242.916 177.501 242.368 177.728C241.631 177.694 240.893 177.698 240.163 177.616C238.062 177.385 236.744 176.361 236.718 174.089C236.747 170.856 236.777 167.623 236.807 164.394C240.64 164.535 244.472 164.68 248.305 164.822L248.301 164.818Z" fill="#E7ECF4"/>
<path d="M260.608 157.302C264.195 158.676 267.782 158.129 271.365 157.302C271.365 158.058 271.365 158.814 271.361 159.57C268.895 159.812 266.429 160.051 263.964 160.293C262.85 160.043 261.733 159.794 260.619 159.548C260.619 158.799 260.612 158.05 260.608 157.302Z" fill="#99B1D9"/>
<path d="M278.479 159.164V157.164C282.077 157.969 285.53 157.943 288.945 156.944C288.927 157.801 288.912 158.658 288.893 159.518C286.912 159.645 284.934 159.775 282.952 159.902C281.459 159.656 279.969 159.414 278.475 159.168L278.479 159.164Z" fill="#99B0D9"/>
<path d="M212.939 150.624C214.362 151.071 215.815 151.965 217.197 151.864C219.785 151.678 220.843 149.663 221.171 147.253C221.268 147.253 221.361 147.272 221.458 147.294C222.158 151.346 219.07 153.931 215.878 153.224C214.396 152.896 213.293 152.199 212.943 150.624H212.939Z" fill="#5B85C0"/>
<path d="M219.636 102.474C217.893 102.352 216.105 101.931 214.418 102.18C212.004 102.538 210.57 104.199 210.28 106.706C203.851 106.303 197.415 105.991 190.997 105.454C188.3 105.227 187.98 104.679 187.965 101.987C187.932 96.6639 187.954 91.3451 187.954 86.0635H219.636V102.471V102.474Z" fill="#EFF6FF"/>
<path d="M189.723 137.114C188.84 136.388 187.716 135.706 189.209 134.511C192.185 132.652 195.172 130.808 198.137 128.931C200.488 127.445 202.812 125.918 205.147 124.409C205.371 125.832 205.549 127.266 205.832 128.678C205.955 129.281 206.294 129.844 206.533 130.425C207.114 130.048 208.119 129.747 208.205 129.281C208.525 127.508 208.484 125.672 208.712 123.877C208.782 123.299 209.255 122.774 209.546 122.227C210.332 123.381 211.114 124.54 211.896 125.694C212.366 126.525 212.835 127.352 213.304 128.182C208.589 131.311 203.87 134.44 199.154 137.565C195.925 139.248 192.755 139.639 189.723 137.114Z" fill="#FEFEFE"/>
<path d="M176.732 105.555C176.374 105.436 176.016 105.321 175.663 105.202C175.793 97.0929 176.169 88.9806 175.957 80.8794C175.83 76.0932 176.151 71.4373 177.171 66.7963C177.283 66.2823 177.48 65.7832 177.808 65.3027C177.827 73.4077 176.702 81.5461 179.197 89.6957C179.395 88.3734 179.559 87.2709 179.723 86.1684C179.607 90.3997 179.492 94.6309 179.38 98.8622C178.747 100.702 178.11 102.542 177.477 104.382C177.227 104.773 176.981 105.161 176.732 105.552V105.555Z" fill="#FFB875"/>
<path d="M230.855 90.5967C231.328 88.7716 232.155 86.9577 232.207 85.1214C232.386 78.7634 232.297 72.4016 232.308 66.0398C232.308 65.6748 232.308 65.3098 232.717 64.874C233.194 67.2504 233.928 69.6081 234.096 72.0068C234.412 76.5099 234.42 81.0317 234.524 85.5498C234.662 91.431 234.785 97.3123 234.878 103.19C234.889 103.838 234.677 104.494 234.565 105.142C233.451 102.065 232.341 98.9922 231.228 95.9156C231.101 94.1426 230.974 92.3697 230.848 90.593L230.855 90.5967Z" fill="#FFB875"/>
<path d="M180.117 122.67C179.737 120.927 179.357 119.187 178.978 117.444C178.732 115.325 178.49 113.205 178.244 111.086C178.434 110.345 178.624 109.607 178.814 108.866C179.179 110.315 179.54 111.768 179.912 113.217C180.851 116.878 181.793 120.539 182.736 124.201C181.864 123.69 180.989 123.18 180.117 122.666V122.67Z" fill="#2B4A90"/>
<path d="M231.235 95.9189C232.345 98.9955 233.459 102.068 234.572 105.145C234.557 105.249 234.557 105.357 234.572 105.462C234.371 105.361 234.174 105.264 233.973 105.164C233.175 104.177 232.378 103.19 231.581 102.202C231.466 100.109 231.354 98.0122 231.239 95.9189H231.235Z" fill="#FFC997"/>
<path d="M137.674 147.249C137.708 147.793 137.742 148.337 137.786 149.108C138.609 149.108 139.336 149.1 140.066 149.108C142.8 149.145 143.612 149.748 143.988 152.486C144.569 156.684 144.964 160.904 145.526 165.105C145.746 166.748 146.249 168.353 146.539 169.992C147.176 173.594 146.107 174.983 142.45 175.169C138.557 175.367 134.658 175.505 130.758 175.553C125.856 175.609 120.951 175.575 116.049 175.519C114.012 175.497 111.974 175.221 109.937 175.233C107.031 175.248 104.126 175.512 101.221 175.504C97.3212 175.49 93.4252 175.218 89.5255 175.233C83.2047 175.259 76.8876 175.505 70.5705 175.486C69.0881 175.482 67.5088 175.005 66.168 174.35C65.4565 174.003 64.7414 172.797 64.7526 171.988C64.8271 167.679 64.9835 163.384 66.6149 159.25C67.5126 156.974 67.8217 154.467 68.4065 152.069C69.1105 149.171 69.1887 149.104 72.0977 149.085C75.3232 149.067 78.5525 149.07 81.7781 149.063C82.2847 152.058 82.795 155.052 83.3015 158.051C83.3015 158.285 83.3052 158.516 83.309 158.751C80.3925 159.54 77.4538 160.259 74.5671 161.146C72.8724 161.667 71.4309 162.848 71.4943 164.703C71.5576 166.584 73.3715 167.262 74.8949 167.66C78.7164 168.659 82.5491 169.783 86.4526 170.264C97.1462 171.579 107.899 172.569 118.671 171.422C124.184 170.834 129.663 169.817 135.09 168.67C136.933 168.282 138.721 167.105 140.248 165.917C141.608 164.863 141.302 163.727 140.058 162.464C138.244 160.624 135.92 160.438 133.577 160.233C135.574 159.507 136.311 157.898 136.561 155.957C136.933 153.056 137.298 150.154 137.671 147.249H137.674Z" fill="#5595E7"/>
<path d="M114.581 127.121C120.697 127.75 126.813 128.376 132.925 129.021C133.141 129.043 133.339 129.237 133.547 129.352C130.691 129.97 127.834 130.585 124.977 131.203C120.556 131.453 116.135 131.829 111.71 131.929C103.75 132.116 95.9281 131.047 88.2478 128.957C87.5997 128.782 86.9888 128.462 86.3594 128.205C87.0298 127.963 87.7003 127.531 88.3744 127.512C95.2316 127.344 102.092 127.248 108.953 127.132C108.663 127.814 108.372 128.495 108.007 129.356C110.421 128.533 112.503 127.825 114.581 127.117V127.121ZM112.685 129.836C115.252 130.57 117.826 130.872 120.362 129.777C117.796 128.123 115.248 128.983 112.685 129.836ZM101.47 129.322C101.47 129.505 101.47 129.687 101.47 129.87H106.123C106.123 129.687 106.123 129.505 106.123 129.322H101.47Z" fill="#5681BE"/>
<path d="M90.4938 142.702C89.7265 145.059 89.1417 147.506 88.1249 149.752C87.339 151.488 86.2849 151.369 85.4506 149.592C84.9925 148.616 84.7764 147.503 84.5939 146.426C83.9719 142.769 83.8564 139.092 84.8174 135.476C85.0111 134.749 85.7821 134.176 86.2886 133.535C86.8287 133.967 87.5178 134.299 87.8828 134.846C89.436 137.163 90.0506 139.774 90.0245 142.545C90.1772 142.597 90.3336 142.653 90.4864 142.705L90.4938 142.702Z" fill="#EFF6FF"/>
<path d="M212.88 41.5085C212.626 42.6855 211.635 42.9053 210.708 43.3485C207.486 44.8868 204.041 45.0283 200.588 45.1587C199.988 45.181 199.381 44.9501 198.778 44.8384C196.405 43.1436 194.74 40.9423 193.921 38.1265C194.085 37.5454 194.297 36.9718 194.405 36.3796C194.882 33.7574 195.251 31.1464 192.796 29.1723C192.99 26.4086 193.18 23.6449 193.381 20.762C194.111 20.7098 194.833 20.6577 195.604 20.6055C196.226 18.6911 196.86 16.7542 197.489 14.8174C197.623 14.8546 197.757 14.8919 197.891 14.9291C197.988 16.6909 198.085 18.449 198.186 20.2703C203.65 20.8626 209.039 21.4473 214.537 22.0433C214.157 24.0434 213.829 25.7754 213.502 27.4962C214.876 27.2131 216.154 26.6135 217.297 26.8109C218.385 27.0008 219.543 27.8389 220.284 28.7216C221.633 30.3233 221.454 33.2285 220.199 34.953C218.943 36.6776 216.869 37.2921 214.783 36.5509C213.543 35.549 213.885 34.2454 214.489 33.2173C214.772 32.7331 215.889 32.7406 216.545 32.5469C216.306 32.2824 215.945 31.8839 215.409 31.2879C216.232 30.759 216.928 30.3158 217.625 29.8688C217.498 29.7012 217.371 29.5336 217.245 29.366C216.288 30.1072 215.327 30.8484 214.556 31.4444C214.366 30.841 214.098 29.9769 213.788 28.9898C212.995 29.4107 212.585 29.6938 212.131 29.8577C208.168 31.2879 207.646 35.2771 209.658 38.3202C210.712 39.9143 211.829 39.9963 213.39 38.864C213.222 39.7467 213.058 40.6257 212.891 41.5085H212.88ZM198.212 36.3684C197.985 38.1228 198.625 39.0055 200.219 39.2141C202.044 39.4525 203.598 38.2829 203.802 36.3684H198.215H198.212ZM209.173 24.74C208.581 23.2575 205.903 21.898 204.875 22.3673C204.618 22.4865 204.343 22.9223 204.361 23.1905C204.384 23.4661 204.715 23.887 204.983 23.9503C206.279 24.252 207.594 24.4569 209.173 24.7437V24.74ZM193.861 23.1197C193.928 23.3804 193.999 23.6449 194.066 23.9056C195.098 23.8423 196.133 23.8274 197.154 23.6933C197.441 23.6561 197.683 23.2799 197.947 23.0601C197.727 22.8106 197.463 22.3264 197.288 22.3561C196.137 22.5498 195.001 22.8553 193.861 23.1197Z" fill="#F4AFA5"/>
<path d="M213.375 38.8644C211.814 39.993 210.697 39.911 209.643 38.3206C207.632 35.2775 208.153 31.2884 212.116 29.8581C212.571 29.6942 212.98 29.4111 213.774 28.9902C214.083 29.981 214.355 30.8414 214.541 31.4448C215.312 30.8489 216.269 30.1076 217.23 29.3664C217.357 29.534 217.483 29.7016 217.61 29.8693C216.914 30.3162 216.217 30.7632 215.394 31.2884C215.934 31.8843 216.295 32.2829 216.53 32.5473C215.874 32.7373 214.757 32.7335 214.474 33.2178C213.874 34.2458 213.528 35.5494 214.768 36.5514C214.303 37.3224 213.837 38.0934 213.371 38.8644H213.375Z" fill="#ED9694"/>
<path d="M210.012 10.151C208.775 9.72643 207.538 9.30182 206.365 8.89955C210.976 7.93113 218.12 11.4621 219.863 15.7939C218.951 15.5071 218.172 15.265 217.245 14.9708C217.349 15.5332 217.424 15.9206 217.536 16.5277C216.169 15.7232 214.965 15.0155 213.662 14.2482C213.58 14.6318 213.52 14.9037 213.461 15.1719C210.094 13.4958 206.723 11.8197 203.549 10.2404C205.475 10.3596 207.687 10.4974 209.904 10.6353C209.937 10.4751 209.971 10.3112 210.008 10.151H210.012Z" fill="#2A2A2A"/>
<path d="M192.789 29.1729C195.243 31.1469 194.874 33.7579 194.398 36.3801C194.29 36.9724 194.077 37.5459 193.913 38.127C192.915 35.2217 191.928 32.3128 192.785 29.1729H192.789Z" fill="#E99492"/>
<path d="M46.0545 19.4547C47.131 19.3541 48.2111 19.1753 49.2876 19.1716C52.8037 19.1641 56.3198 19.22 59.8359 19.2498C59.8359 19.5776 59.8359 19.9053 59.8359 20.2331C59.2474 19.9836 58.6701 19.5552 58.0667 19.518C56.4055 19.4174 54.7331 19.4547 53.0644 19.4844C49.3732 19.5515 49.7979 18.7954 49.7904 22.859C49.7904 25.0938 50.3342 25.6712 52.5988 25.7903C54.2638 25.876 55.9324 25.8127 57.6011 25.8127C57.6011 26.6098 57.5974 27.4106 57.5936 28.2077C51.6528 28.2226 45.7119 28.2412 39.771 28.2561C39.879 28.1816 39.9908 28.1034 40.0988 28.0252H47.902C47.5183 26.7848 47.0677 25.6376 46.8218 24.4495C46.4829 22.7994 46.3004 21.1159 46.0508 19.4435L46.0545 19.4547Z" fill="#D1DAEB"/>
<path d="M71.01 19.4734C72.4552 19.3654 73.9004 19.1866 75.3493 19.1717C77.7517 19.1419 80.1541 19.2201 82.5603 19.2499C82.5603 19.3281 82.5528 19.4101 82.5491 19.4883C81.0667 19.4883 79.5842 19.4883 78.1018 19.4883C74.0084 19.4883 73.6173 20.0246 74.8241 24.025C74.8762 24.2 74.9247 24.4198 75.0513 24.5241C75.4498 24.8518 75.8894 25.3994 76.3065 25.3956C78.3886 25.3696 80.4707 25.1945 82.5528 25.0753L82.6012 25.0977C82.5901 26.1406 82.5789 27.1872 82.564 28.2301C79.9232 28.2301 77.2861 28.2264 74.6453 28.2264C73.6843 27.4256 72.7271 26.6211 71.7661 25.8203C71.5128 23.7046 71.2633 21.5927 71.01 19.4771V19.4734Z" fill="#B5C9E5"/>
<path d="M96.3603 28.2788C96.0996 25.2693 95.8389 22.2635 95.5781 19.2539C95.9618 19.2539 96.3417 19.2539 96.7253 19.2539C96.7253 21.2243 96.6434 23.2021 96.7663 25.165C96.8035 25.7609 97.4032 26.3234 97.7459 26.9007C98.1556 26.4425 98.8633 26.0254 98.9266 25.5226C99.1762 23.5224 99.2209 21.4962 99.3438 19.4811C102.685 19.5333 102.271 19.0602 102.297 22.4013C102.312 24.3642 102.297 26.3234 102.297 28.2863C100.32 28.2863 98.3418 28.2788 96.3603 28.2788Z" fill="#B5C9E7"/>
<path d="M30.7833 19.2573C31.1409 19.2535 31.4985 19.2498 31.8561 19.2461C31.4128 21.6075 31.0329 23.9615 32.6904 26.5018C34.1318 24.077 34.1169 21.7752 34.1616 19.4845C35.0295 19.7527 36.5529 18.7731 36.6795 20.3821C36.8807 22.859 36.7317 25.362 36.7317 27.8427C35.7335 28.0177 34.9699 28.1518 34.2026 28.2896C33.5471 28.2896 32.8915 28.2859 32.2397 28.2859C30.951 27.2914 30.6567 25.9654 30.761 24.3973C30.8727 22.6914 30.7833 20.9743 30.7833 19.261V19.2573Z" fill="#B4C9E7"/>
<path d="M82.5641 28.2306C82.5753 27.1877 82.5864 26.141 82.5976 25.0981C83.8417 25.0795 84.5344 24.5804 84.4562 23.206C84.3817 21.8949 84.4302 20.5726 84.4227 19.2578C85.4098 19.2578 86.3968 19.2578 87.3838 19.2578C87.3838 20.8036 87.4807 22.3568 87.354 23.8913C87.2274 25.4371 87.3168 27.1579 85.5327 28.0071C84.5419 28.0853 83.5549 28.1635 82.5641 28.238V28.2306Z" fill="#86A5D2"/>
<path d="M59.8359 20.2372C59.8359 19.9095 59.8359 19.5817 59.8359 19.2539C60.7075 19.3284 61.579 19.4066 62.4469 19.4811C62.4469 21.0716 62.581 22.6806 62.391 24.2487C62.242 25.4704 62.5996 27.0348 60.9607 27.6866C60.3685 27.8691 59.7726 28.0553 59.1803 28.2379C58.6514 28.2304 58.1225 28.2267 57.5936 28.2192C57.5936 27.4184 57.5936 26.6213 57.5974 25.8205C58.1672 25.6157 58.7371 25.4108 59.4522 25.1538C59.5752 23.5298 59.7018 21.8835 59.8284 20.2372H59.8359Z" fill="#C3D2EA"/>
<path d="M102.294 28.2908C102.294 26.3279 102.312 24.365 102.294 22.4058C102.268 19.0685 102.681 19.5378 99.34 19.4856C99.3213 19.4074 99.3139 19.3292 99.3213 19.251C101.187 19.251 103.05 19.251 104.916 19.2547C104.782 22.2717 104.644 25.2887 104.51 28.3057C103.772 28.302 103.031 28.2945 102.294 28.2908Z" fill="#A7BDE0"/>
<path d="M34.2064 28.2908C34.9699 28.1567 35.7372 28.0226 36.7354 27.8438C36.7354 25.3669 36.8844 22.8602 36.6833 20.3833C36.5529 18.7742 35.0333 19.7538 34.1654 19.4856C34.1468 19.4074 34.1393 19.3292 34.1468 19.251C35.8676 19.251 37.5921 19.251 39.3129 19.251C39.2049 21.3294 39.1863 23.4189 38.9442 25.4787C38.8287 26.4359 38.27 27.341 37.9124 28.2722C36.6758 28.2796 35.443 28.2833 34.2064 28.2908Z" fill="#A6BCE0"/>
<path d="M104.51 28.3051C104.644 25.2881 104.782 22.2711 104.916 19.2541C109.855 19.2205 114.797 19.1907 119.736 19.1572C119.766 19.2652 119.762 19.3733 119.736 19.4775C115.729 19.4775 111.717 19.5222 107.709 19.4552C106.428 19.4329 105.948 19.8202 106.015 21.1313C106.108 22.9788 105.951 24.8374 106.082 26.6774C106.123 27.2472 106.745 27.7762 107.099 28.32C106.238 28.3125 105.378 28.3051 104.517 28.3013L104.51 28.3051Z" fill="#D8E2F0"/>
<path d="M30.7833 19.2576C30.7833 20.971 30.8727 22.688 30.761 24.394C30.6604 25.962 30.951 27.288 32.2397 28.2825C30.2842 28.2937 28.3325 28.3012 26.377 28.3123C27.4572 28.1894 28.5411 28.0665 29.6548 27.9399C29.6548 25.6268 29.5952 23.3026 29.6771 20.9859C29.7218 19.7046 29.1743 19.4029 28.0271 19.455C26.4888 19.5258 24.943 19.4699 23.401 19.4662C23.3712 19.3619 23.3712 19.2576 23.401 19.1533C25.8593 19.1868 28.3176 19.2241 30.7759 19.2576H30.7833Z" fill="#CFDAEC"/>
<path d="M37.9124 28.2722C38.27 27.341 38.8287 26.4359 38.9442 25.4787C39.19 23.4152 39.2049 21.3294 39.3129 19.251C39.6965 19.3255 40.0839 19.3962 40.4676 19.4707C40.3446 22.3276 40.2254 25.1844 40.1025 28.0412C39.9945 28.1195 39.8828 28.194 39.7748 28.2722C39.1527 28.2722 38.5307 28.2722 37.9087 28.2759L37.9124 28.2722Z" fill="#C5D4EB"/>
<path d="M85.5325 28.0003C87.3166 27.1548 87.2272 25.4302 87.3538 23.8845C87.4768 22.3499 87.3836 20.7967 87.3836 19.251C87.771 19.251 88.1546 19.2547 88.542 19.2584C88.542 22.0743 88.542 24.8902 88.542 27.9146C89.0337 28.0003 89.8494 28.1418 90.6576 28.2833C88.948 28.1865 87.2384 28.0934 85.5325 27.9965V28.0003Z" fill="#C3D3EA"/>
<path d="M59.1841 28.2376C59.7763 28.0551 60.3723 27.8689 60.9645 27.6864C61.7057 27.8018 62.4506 27.9173 63.1918 28.0328C65.4788 28.0402 67.7658 28.003 70.049 28.0849C71.0137 28.1184 71.267 27.8093 71.0137 26.9414C71.2632 26.569 71.5165 26.1928 71.7661 25.8203C72.727 26.6248 73.688 27.4257 74.6453 28.2265C69.4903 28.2265 64.3353 28.2339 59.1841 28.2376Z" fill="#D1DAEB"/>
<path d="M199.154 137.565C203.87 134.436 208.585 131.307 213.304 128.182C216.023 128.115 217.338 127.054 217.811 124.543C217.926 124.42 218.042 124.298 218.157 124.178C220.59 123.817 222.061 122.588 222.109 119.958C222.124 119.243 222.385 118.532 222.53 117.82C224.549 118.543 226.571 119.262 228.59 119.981C227.707 124.752 226.266 129.326 223.297 133.233C222.649 134.082 221.409 134.753 220.333 134.961C215.878 135.818 211.397 136.567 206.901 137.155C204.346 137.49 201.739 137.442 199.154 137.569V137.565Z" fill="#2254B5"/>
<path d="M211.896 125.691C211.114 124.536 210.328 123.378 209.546 122.223C210.175 121.504 210.809 120.789 211.438 120.07C211.591 120.115 211.744 120.16 211.896 120.201V125.691Z" fill="#313D5C"/>
<path d="M218.158 124.175C218.042 124.298 217.927 124.421 217.811 124.54C217.621 122.644 217.431 120.752 217.241 118.856C217.547 118.834 217.852 118.811 218.158 118.785V124.171V124.175Z" fill="#F09492"/>
<path d="M84.7951 159.906C93.4513 164.469 102.782 165.18 112.28 164.454C117.39 164.063 122.482 163.296 127.551 162.48C129.476 162.171 131.305 161.262 133.179 160.625C133.585 160.763 134.088 160.793 134.378 161.057C135.119 161.728 136.006 162.413 136.349 163.281C136.512 163.698 135.715 164.726 135.119 165.162C134.237 165.806 133.186 166.268 132.147 166.637C126.374 168.67 120.288 168.778 114.295 169.14C109.501 169.427 104.648 169.196 99.854 168.79C95.5818 168.428 91.3282 167.635 87.1231 166.775C85.3464 166.41 83.6293 165.512 82.024 164.614C80.0871 163.53 80.2026 161.847 82.1916 160.856C83.011 160.446 83.9235 160.219 84.7951 159.91V159.906Z" fill="#0C2C7E"/>
<path d="M84.7951 159.905C83.9235 160.215 83.0147 160.442 82.1916 160.852C80.2063 161.842 80.0871 163.522 82.0239 164.61C83.6293 165.511 85.3464 166.405 87.123 166.77C91.3319 167.634 95.5818 168.424 99.854 168.785C104.648 169.191 109.501 169.422 114.295 169.135C120.288 168.778 126.374 168.666 132.147 166.632C133.186 166.267 134.24 165.802 135.119 165.157C135.712 164.721 136.512 163.693 136.349 163.276C136.002 162.408 135.119 161.723 134.378 161.053C134.088 160.788 133.585 160.758 133.179 160.621C133.313 160.49 133.447 160.36 133.581 160.229C135.924 160.434 138.248 160.621 140.062 162.461C141.306 163.723 141.612 164.859 140.252 165.913C138.725 167.098 136.937 168.275 135.093 168.666C129.666 169.813 124.184 170.83 118.675 171.418C107.903 172.566 97.1536 171.571 86.4563 170.26C82.5529 169.78 78.7201 168.655 74.8986 167.657C73.3752 167.258 71.5613 166.58 71.498 164.699C71.4347 162.844 72.8761 161.663 74.5708 161.142C77.4575 160.256 80.3963 159.537 83.3127 158.747C83.8081 159.134 84.3035 159.518 84.7951 159.905Z" fill="#2254B5"/>
<path d="M201.423 144.97C200.726 146.311 200.275 147.886 199.273 148.933C198 150.263 196.234 150.039 194.629 149.168C193.921 148.516 193.213 147.868 192.506 147.216C191.627 143.838 192.126 142.527 195.042 140.534C196.022 140.541 197.016 140.448 197.981 140.575C199.869 140.821 201.18 142.568 201.426 144.97H201.423ZM199.895 145.011C199.895 142.839 198.756 141.685 196.588 141.662C194.789 141.644 193.202 143.32 193.239 145.19C193.273 146.791 194.915 148.363 196.554 148.359C198.677 148.356 199.899 147.13 199.895 145.007V145.011Z" fill="#FCFCFD"/>
<path d="M212.213 144.69C212.094 145.167 211.971 145.644 211.852 146.117C209.52 146.002 207.185 145.934 204.86 145.748C204.194 145.696 203.557 145.305 202.905 145.067C205.3 145.044 207.699 145.044 210.094 144.988C210.801 144.97 211.509 144.795 212.213 144.69Z" fill="#E5C99B"/>
<path d="M185.574 137.859C184.721 134.775 183.872 131.695 183.019 128.611C183.246 128.555 183.473 128.495 183.7 128.439C184.375 131.356 185.049 134.276 185.723 137.192C185.671 137.416 185.622 137.636 185.57 137.859H185.574Z" fill="#F09493"/>
<path d="M252.365 37.7241C253.4 39.296 254.961 38.3722 256.231 38.402C259.122 38.4691 262.023 38.2903 264.91 38.0556C265.595 37.9998 266.232 37.3368 266.895 36.9531C267.159 37.7055 267.428 38.4542 267.692 39.2066C262.116 39.3518 256.54 39.4934 250.961 39.6386C251.43 39.0017 251.896 38.3611 252.365 37.7241Z" fill="#3F5C95"/>
<path d="M270.288 36.619C270.676 38.0418 271.521 37.9859 272.881 37.8965C276.952 37.6284 281.045 37.7326 285.131 37.6917C285.284 38.0641 285.433 38.4366 285.586 38.8054C280.233 38.9357 274.877 39.0698 269.525 39.2002C269.778 38.3398 270.035 37.4756 270.288 36.6152V36.619Z" fill="#3E5A93"/>
<path d="M252.365 37.7249C251.896 38.3618 251.43 39.0024 250.961 39.6393C250.961 40.8536 250.961 42.0716 250.961 43.2858C250.95 43.5503 250.938 43.8147 250.924 44.0792C250.678 44.0568 250.432 44.0345 250.19 44.0121C250.171 43.6657 250.156 43.3156 250.138 42.9692C250.141 41.8555 250.149 40.7381 250.153 39.6244C249.642 39.2408 249.136 38.8572 248.625 38.4735C247.895 37.0805 248.76 36.2909 249.851 35.9407C251.274 35.4863 252.246 36.1158 252.361 37.7249H252.365Z" fill="#304372"/>
<path d="M270.288 36.6183C270.035 37.4787 269.778 38.3428 269.525 39.2032C269.413 40.5777 269.301 41.9521 269.189 43.3265C269.163 43.5537 269.137 43.7846 269.111 44.0118C268.858 43.7883 268.605 43.5686 268.351 43.3451C268.169 41.9595 269.122 40.3951 267.696 39.2107C267.431 38.4583 267.163 37.7096 266.899 36.9573C268.269 35.3854 268.832 35.3296 270.292 36.6183H270.288Z" fill="#304272"/>
<path d="M285.585 38.809C285.433 38.4366 285.284 38.0641 285.131 37.6953C285.753 37.0435 286.293 36.0416 287.034 35.8628C287.526 35.7436 288.301 36.8014 288.949 37.3303C288.811 37.8332 288.669 38.336 288.532 38.8388C287.414 39.1889 287.317 40.0493 287.381 41.0401C287.425 41.7739 287.366 42.5151 287.355 43.2489C287.25 43.2749 287.146 43.2936 287.042 43.3047C286.792 41.7292 287.884 39.7216 285.589 38.809H285.585Z" fill="#2F4271"/>
<path d="M181.648 140.209C181.406 140.213 181.164 140.217 180.918 140.22C180.292 137.825 179.663 135.434 179.037 133.039L179.581 132.883C180.27 135.326 180.959 137.766 181.648 140.209Z" fill="#F1908F"/>
<path d="M176.445 140.209C175.357 140.25 174.273 140.295 173.189 140.336C173.964 140.228 174.735 140.124 175.648 139.997C175.029 138.474 174.456 137.073 173.886 135.673C174.068 135.587 174.247 135.498 174.43 135.412C175.104 137.01 175.774 138.612 176.448 140.209H176.445Z" fill="#F1908F"/>
<path d="M30.7833 17.9764C30.7833 15.7416 30.8355 13.5068 30.7684 11.2757C30.7349 10.1247 31.1595 9.73364 32.2807 9.78579C33.7668 9.85283 35.2567 9.79697 36.7466 9.79697L36.754 9.81931C36.754 12.5383 36.754 15.2611 36.7503 17.9801C35.8787 17.9801 35.0071 17.9801 34.1393 17.9801C33.9307 15.8496 34.1393 13.5999 32.1875 11.3539C31.9417 13.9053 31.748 15.9427 31.5506 17.9764C31.2973 17.9764 31.0403 17.9764 30.7871 17.9801L30.7833 17.9764Z" fill="#B5C9E7"/>
<path d="M99.3251 19.251C99.3176 19.3292 99.3251 19.4074 99.3437 19.4856C99.2208 21.5007 99.1724 23.5269 98.9265 25.5271C98.8632 26.0262 98.1555 26.4471 97.7458 26.9052C97.4031 26.3279 96.8035 25.7655 96.7662 25.1695C96.6433 23.2066 96.7252 21.2288 96.7252 19.2584C97.5931 19.2584 98.4572 19.2547 99.3251 19.251Z" fill="#D9E4F3"/>
<path d="M36.7466 17.9811C36.7466 15.2621 36.7466 12.5393 36.7503 9.82031C37.4133 9.82031 38.08 9.82031 38.9888 9.82031C38.9888 12.6771 38.9888 15.3291 38.9888 17.9774C38.2402 17.9774 37.4952 17.9774 36.7466 17.9774V17.9811Z" fill="#A7BDE0"/>
<path d="M34.143 19.2498C34.1356 19.328 34.143 19.41 34.1616 19.4845C34.1169 21.7752 34.1318 24.077 32.6904 26.5018C31.0329 23.9615 31.4091 21.6075 31.8561 19.2461C32.6196 19.2461 33.3795 19.2461 34.143 19.2461V19.2498Z" fill="#D8E3F3"/>
<path d="M71.7474 17.976C71.6692 16.8735 72.403 16.8735 73.1926 16.8772C76.3102 16.8847 79.4315 16.8698 82.549 16.8623L82.5826 16.9219C82.5788 17.2757 82.5714 17.6296 82.5677 17.9834C78.9622 17.9834 75.3529 17.9834 71.7474 17.9797V17.976Z" fill="#B5C9E7"/>
<path d="M31.5469 17.9731C31.7443 15.9357 31.938 13.8983 32.1838 11.3506C34.1355 13.6003 33.9232 15.85 34.1355 17.9768C33.2714 17.9768 32.411 17.9768 31.5469 17.9768V17.9731Z" fill="#D9E4F3"/>
<path d="M84.4225 19.2535C84.43 20.5721 84.3816 21.8906 84.456 23.2017C84.5343 24.5761 83.8415 25.0752 82.5974 25.0939L82.549 25.0715C82.549 23.2092 82.549 21.3468 82.5453 19.4845C82.549 19.4063 82.5527 19.3243 82.5565 19.2461C83.1785 19.2461 83.8005 19.2461 84.4225 19.2461V19.2535Z" fill="#ABC0DF"/>
<path d="M63.5718 19.5522C63.4451 22.3793 63.3185 25.2063 63.1918 28.0333C62.4506 27.9179 61.7057 27.8024 60.9645 27.6869C62.6033 27.0351 62.2458 25.4707 62.3948 24.249C62.5847 22.681 62.4469 21.0719 62.4506 19.4814C62.8231 19.5038 63.1993 19.5299 63.5718 19.5522Z" fill="#E7ECF5"/>
<path d="M71.0136 26.9374C70.7678 24.8962 70.5369 22.8551 70.2687 20.8177C70.2091 20.3558 70.0229 19.9126 69.8962 19.4619C70.2687 19.4656 70.6375 19.4694 71.0099 19.4768C71.2632 21.5924 71.5128 23.7043 71.766 25.82C71.5165 26.1924 71.2632 26.5649 71.0136 26.9411V26.9374Z" fill="#D1DBED"/>
<path d="M82.5714 17.98C82.5751 17.6262 82.5826 17.2723 82.5863 16.9185C83.7633 16.9036 84.9552 16.7844 86.1136 16.9222C86.568 16.9781 86.9516 17.6113 87.3688 17.98C85.7709 17.98 84.173 17.98 82.5751 17.98H82.5714Z" fill="#86A6D3"/>
<path d="M285.586 38.8086C287.88 39.7211 286.789 41.7288 287.038 43.3043C286.178 43.308 285.314 43.3192 284.453 43.3192C279.365 43.3229 274.277 43.3266 269.189 43.3266C269.301 41.9522 269.413 40.5778 269.525 39.2034C274.877 39.073 280.233 38.939 285.586 38.8086Z" fill="#5680BE"/>
<path d="M267.692 39.2109C269.119 40.3991 268.165 41.9635 268.348 43.3453C263.278 43.2224 258.209 43.0809 253.136 42.9878C252.413 42.9729 251.687 43.1852 250.961 43.2895C250.961 42.0715 250.961 40.8573 250.961 39.643C256.537 39.4977 262.116 39.3562 267.692 39.2109Z" fill="#5681BE"/>
<path d="M222.977 155.816C221.301 152.184 222.471 148.966 226.046 148.635C228.397 148.415 230.922 149.16 233.235 149.886C234.218 150.195 234.87 151.562 235.671 152.449C235.682 153.224 235.69 153.998 235.701 154.777C234.826 157.798 233.388 158.662 229.775 158.345C230.084 157.976 230.393 157.608 230.702 157.239C231.362 157.12 232.069 157.116 232.673 156.863C234.259 156.203 235.045 154.092 234.3 152.46C233.652 151.045 232.598 150.296 231.179 150.739V155.041C227.92 158.349 225.614 158.569 222.974 155.82L222.977 155.816ZM226.776 149.842C224.877 149.819 223.413 151.16 223.365 152.959C223.313 154.769 224.963 156.576 226.627 156.535C228.535 156.49 230.08 154.952 230.054 153.131C230.028 151.372 228.52 149.86 226.776 149.838V149.842Z" fill="#FDFDFE"/>
<path d="M222.977 155.817C225.618 158.565 227.92 158.346 231.183 155.038C231.023 155.772 230.866 156.502 230.706 157.236C230.397 157.604 230.088 157.973 229.779 158.342C229.499 158.61 229.22 158.878 228.94 159.146C227.585 159.02 226.229 158.889 224.877 158.763C224.173 157.824 222.217 157.694 222.981 155.817H222.977Z" fill="#5983BF"/>
<path d="M228.937 159.145C229.216 158.877 229.495 158.609 229.775 158.341C233.388 158.657 234.822 157.793 235.701 154.772C236.505 156.329 235.697 157.506 234.695 158.542C233.432 159.842 231.838 160.184 230.095 159.723C229.685 159.615 229.32 159.343 228.937 159.145Z" fill="#435D94"/>
<path d="M207.348 159.168C207.106 159.779 206.864 160.39 206.477 161.373C204.127 158.207 201.314 157.429 198.271 157.321C195.206 157.213 192.137 157.28 189.071 157.269C189.194 155.552 189.317 153.834 189.444 152.121C193.69 151.864 197.955 151.775 202.175 151.287C204.346 151.034 206.436 150.076 208.816 149.357C208.943 149.987 209.08 150.661 209.218 151.339C208.254 151.942 207.289 152.546 206.324 153.153C206.38 153.283 206.44 153.414 206.495 153.544H209.218V155.09C209.203 155.455 209.192 155.816 209.177 156.181C207.918 156.393 206.663 156.606 205.307 156.833C206.008 157.637 206.674 158.405 207.341 159.172L207.348 159.168Z" fill="#D0DAEC"/>
<path d="M189.44 152.121C189.317 153.838 189.194 155.555 189.068 157.268C185.485 157.398 181.901 157.67 178.322 157.596C176.516 157.559 174.676 157.037 172.936 156.464C171.335 155.935 170.336 154.62 170.713 152.873C171.081 151.16 172.586 150.56 174.154 150.646C177.477 150.828 180.792 151.167 184.11 151.484C185.891 151.651 187.66 151.905 189.437 152.117L189.44 152.121Z" fill="#FEFEFE"/>
<path d="M209.222 155.087V153.541H206.499C206.443 153.41 206.384 153.28 206.328 153.15C207.293 152.546 208.257 151.943 209.222 151.336C209.948 151.246 210.678 151.157 211.52 151.053C211.703 151.451 211.889 151.891 212.097 152.319C212.69 153.541 212.392 154.289 210.995 154.55C210.392 154.666 209.814 154.904 209.222 155.087Z" fill="#B5C9E7"/>
<path d="M207.349 159.169C206.682 158.401 206.011 157.634 205.315 156.83C206.667 156.602 207.926 156.39 209.185 156.178C209.792 157.388 211.069 158.502 209.755 159.955C208.95 159.69 208.153 159.429 207.352 159.165L207.349 159.169Z" fill="#B5C9E7"/>
<path d="M264.299 162.923C266.288 162.92 268.273 162.916 270.262 162.912C270.273 166.871 270.221 170.835 270.329 174.79C270.385 176.746 269.573 177.677 267.692 177.807C266.571 177.8 265.45 177.796 264.325 177.789C264.318 172.835 264.306 167.877 264.299 162.923ZM268.634 164.208C266.683 166.305 266.325 173.725 267.852 175.423C268.057 175.654 268.597 175.889 268.765 175.785C269.085 175.58 269.45 175.129 269.454 174.783C269.465 171.818 269.42 168.849 269.324 165.884C269.309 165.396 268.94 164.92 268.634 164.212V164.208Z" fill="#98B0D9"/>
<path d="M287.779 162.528C287.779 166.353 287.794 170.179 287.787 174.004C287.783 176.716 287.101 177.401 284.423 177.423C283.559 177.431 282.695 177.416 281.831 177.408C281.708 172.86 281.596 168.316 281.451 163.769C281.418 162.778 281.865 162.48 282.785 162.502C284.449 162.543 286.114 162.521 287.779 162.524V162.528Z" fill="#FEFEFE"/>
<path d="M287.779 162.528C286.114 162.528 284.449 162.55 282.785 162.505C281.865 162.483 281.421 162.781 281.451 163.772C281.596 168.316 281.708 172.864 281.831 177.411C281.701 177.419 281.57 177.426 281.44 177.43C279.864 177.363 279.146 176.659 279.183 174.972C279.272 170.774 279.213 166.576 279.213 162.133C280.244 162.133 281.03 162.133 281.82 162.133C283.805 162.263 285.794 162.397 287.779 162.528Z" fill="#E7ECF5"/>
<path d="M247.195 176.678C245.456 176.678 243.716 176.674 241.973 176.67C241.973 173.333 241.966 169.996 241.966 166.655L241.981 166.584C245.128 166.584 248.272 166.584 251.598 166.584C251.598 169.109 251.762 171.4 251.549 173.653C251.348 175.825 250.048 176.581 247.191 176.674L247.195 176.678ZM249.549 175.114C250.678 173.653 250.812 172.961 250.518 169.236C250.473 168.692 250.063 168.174 249.821 167.646C249.259 167.936 248.484 168.085 248.175 168.543C246.893 170.446 246.759 173.624 249.549 175.114Z" fill="#D0DAEC"/>
<path d="M264.299 162.923C264.306 167.877 264.318 172.834 264.325 177.788C262.843 177.829 261.882 177.069 261.852 175.639C261.766 171.464 261.822 167.284 261.822 162.923H264.299Z" fill="#7999CC"/>
<path d="M219.64 147.599C219.629 149.517 218.385 150.627 216.262 150.609C214.455 150.594 213.047 149.145 213.044 147.29C213.04 145.774 214.925 143.934 216.47 143.945C218.202 143.957 219.651 145.629 219.64 147.599Z" fill="#D0DAEC"/>
<path d="M241.969 166.655C241.969 169.993 241.977 173.33 241.977 176.671C238.453 176.593 237.891 176.034 237.88 172.544C237.872 170.689 237.88 168.83 237.88 166.655H241.969Z" fill="#B4C9E7"/>
<path d="M112.686 129.837C115.248 128.984 117.796 128.123 120.362 129.777C117.826 130.872 115.252 130.57 112.686 129.837Z" fill="#3F5B94"/>
<path d="M101.47 129.322H106.123C106.123 129.505 106.123 129.687 106.123 129.87H101.47C101.47 129.687 101.47 129.505 101.47 129.322Z" fill="#415E98"/>
<path d="M198.212 36.3691H203.799C203.594 38.2836 202.041 39.4569 200.216 39.2148C198.625 39.0062 197.981 38.1235 198.208 36.3691H198.212Z" fill="#F8F7F8"/>
<path d="M209.173 24.7402C207.594 24.4534 206.279 24.2485 204.983 23.9468C204.719 23.8835 204.383 23.4663 204.361 23.187C204.339 22.9188 204.614 22.483 204.875 22.3638C205.903 21.8945 208.581 23.254 209.173 24.7365V24.7402Z" fill="#090706"/>
<path d="M193.861 23.1203C195.001 22.8522 196.137 22.5467 197.288 22.3568C197.463 22.327 197.724 22.8149 197.947 23.0607C197.683 23.2805 197.441 23.6567 197.154 23.6939C196.133 23.828 195.098 23.8467 194.066 23.9062C193.999 23.6455 193.928 23.3811 193.861 23.1203Z" fill="#201716"/>
<path d="M59.8359 20.237C59.7092 21.8833 59.5863 23.5259 59.4597 25.1536C58.7445 25.4106 58.1747 25.6155 57.6048 25.8203C55.9361 25.8203 54.2638 25.8837 52.6025 25.798C50.3379 25.6788 49.7904 25.1015 49.7941 22.8667C49.7978 18.8068 49.3732 19.5629 53.0681 19.4921C54.7368 19.4623 56.4092 19.4251 58.0704 19.5256C58.6738 19.5629 59.2511 19.9912 59.8396 20.2408L59.8359 20.237Z" fill="#E6EBF4"/>
<path d="M82.5454 19.4883C82.5454 21.3506 82.5454 23.213 82.5491 25.0753C80.467 25.1982 78.3849 25.3733 76.3028 25.3956C75.8857 25.3994 75.4461 24.8518 75.0476 24.5241C74.921 24.4198 74.8725 24.2 74.8204 24.025C73.6173 20.0246 74.0047 19.4883 78.0981 19.4883C79.5805 19.4883 81.063 19.4883 82.5454 19.4883Z" fill="#C2D2E9"/>
<path d="M199.895 145.011C199.895 147.134 198.677 148.359 196.554 148.363C194.915 148.367 193.273 146.795 193.239 145.193C193.202 143.32 194.789 141.648 196.588 141.666C198.756 141.689 199.892 142.839 199.895 145.015V145.011Z" fill="#D0DAEC"/>
<path d="M226.776 149.842C228.52 149.86 230.028 151.376 230.054 153.134C230.08 154.956 228.534 156.494 226.627 156.539C224.962 156.576 223.312 154.77 223.365 152.963C223.417 151.16 224.881 149.823 226.776 149.846V149.842Z" fill="#D0DAEC"/>
<path d="M230.706 157.235C230.866 156.501 231.023 155.771 231.183 155.037V150.735C232.602 150.288 233.656 151.037 234.304 152.456C235.049 154.091 234.263 156.2 232.676 156.859C232.073 157.108 231.365 157.116 230.706 157.235Z" fill="#D1DAEC"/>
<path d="M268.634 164.208C268.936 164.916 269.305 165.392 269.324 165.88C269.42 168.845 269.465 171.814 269.454 174.778C269.454 175.129 269.089 175.576 268.765 175.78C268.597 175.888 268.061 175.65 267.852 175.419C266.325 173.721 266.683 166.301 268.634 164.204V164.208Z" fill="#B4C5E2"/>
<path d="M249.549 175.114C246.759 173.624 246.893 170.446 248.175 168.543C248.484 168.081 249.259 167.936 249.821 167.646C250.063 168.174 250.473 168.692 250.518 169.236C250.812 172.961 250.678 173.653 249.549 175.114Z" fill="#E7ECF5"/>
</svg>
