<svg width="296" height="222" viewBox="0 0 296 222" fill="none" xmlns="http://www.w3.org/2000/svg">
<path d="M267.535 205.934C268.211 206.017 268.888 206.167 269.565 206.17C277.139 206.187 284.71 206.177 292.284 206.184C295.109 206.184 295.993 207.079 295.997 209.921C296.004 213.786 295.997 217.648 295.997 221.652H0.00677626C0.00677626 219.202 0.00677626 216.794 0.00677626 214.386C0.00677626 212.71 -0.0105715 211.035 0.0102467 209.355C0.0380043 207.187 1.01993 206.194 3.20931 206.184C7.77545 206.163 12.345 206.187 16.9112 206.163C17.5218 206.163 18.1325 205.983 18.7432 205.889C22.5772 205.986 26.4147 206.121 30.2487 206.156C31.3486 206.167 32.4555 205.886 33.5554 205.736C34.2875 205.775 35.0161 205.813 35.7482 205.851C36.2791 205.951 36.8099 206.139 37.3443 206.142C42.2331 206.17 47.1184 206.17 52.0072 206.177C53.2876 205.948 54.5644 205.722 55.8447 205.493C57.1181 206.888 58.558 206.17 59.9702 205.813C60.5046 205.934 61.0389 206.149 61.5732 206.16C63.8528 206.198 66.1359 206.177 68.419 206.177C74.6401 206.177 80.8613 206.177 87.0825 206.18C88.4773 206.076 89.8721 205.972 91.2635 205.868C91.3815 205.886 91.496 205.899 91.6139 205.917C93.7999 205.997 95.9858 206.076 98.1717 206.156C99.5734 206.163 100.975 206.17 102.377 206.177C105.024 206.09 107.672 206.007 110.319 205.92C138.903 205.92 167.482 205.917 196.066 205.91C196.989 205.91 197.912 205.868 198.835 205.847C202.339 205.847 205.847 205.854 209.351 205.858C210.43 205.674 211.506 205.493 212.585 205.31C213.172 205.598 213.754 206.139 214.341 206.139C231.03 206.184 247.723 206.177 264.412 206.163C264.971 206.163 265.526 206.007 266.085 205.927C266.567 205.927 267.046 205.927 267.528 205.931L267.535 205.934Z" fill="#CCC7E5"/>
<path d="M40.5608 14.4965H90.1741C90.1741 10.5029 90.1567 6.59602 90.1914 2.68913C90.1984 2.04029 90.4378 1.39146 90.5696 0.746094C90.5696 5.36427 90.5696 9.97898 90.5696 14.5833C91.4961 14.5833 92.2386 14.5833 92.9811 14.5833C93.4252 14.5867 93.8659 14.5902 94.31 14.5972C97.5715 14.6041 100.836 14.611 104.098 14.618C105.757 14.6214 107.419 14.5972 109.077 14.6388C110.503 14.677 111.287 15.4507 111.371 16.8837C111.409 17.5117 111.388 18.1432 111.395 18.7712C111.391 30.0304 111.377 41.2931 111.398 52.5523C111.398 53.954 111.103 55.0678 109.643 55.557C108.723 55.5674 107.804 55.5744 106.884 55.5848C105.84 55.5848 104.792 55.5813 103.748 55.5778C100.614 55.5813 97.4813 55.5883 94.3447 55.5917C94.0047 55.7132 93.6611 55.8346 93.3211 55.9526C92.4051 55.8554 91.4926 55.7583 90.5766 55.6577C90.4933 55.6264 90.41 55.616 90.3233 55.6264C89.5738 55.6021 88.8244 55.5605 88.0749 55.5605C71.0456 55.557 54.0198 55.5605 36.9905 55.557C34.2529 55.557 33.6769 54.9741 33.6769 52.2018C33.6769 41.3486 33.6838 30.4988 33.6595 19.6456C33.6595 18.9933 33.4201 18.341 33.2917 17.6921C33.9649 14.5243 36.2965 14.2884 38.9543 14.6943C39.388 14.2641 39.4019 14.8367 39.5754 14.4897C39.5754 14.1427 39.5754 15.3884 39.5754 14.4897L39.9293 14.5763C39.735 14.2641 40.2555 14.611 40.429 14.4375L40.5608 14.4965ZM70.7784 43.4061C60.6643 43.4061 50.5535 43.4269 40.4393 43.3818C39.0272 43.3749 38.5345 43.7808 38.4928 45.2416C38.4443 46.9279 39.1209 47.2575 40.6406 47.254C60.751 47.2124 80.8614 47.2263 100.972 47.2263C101.374 47.2263 101.801 47.2783 102.176 47.1707C102.467 47.0875 102.811 46.8481 102.939 46.5844C103.765 44.8495 102.849 43.4131 100.941 43.4131C90.8854 43.4131 80.8302 43.4131 70.775 43.4131L70.7784 43.4061ZM54.1481 28.7293C54.5957 24.8224 51.0428 20.225 45.7515 20.284C40.2693 20.343 37.2507 25.0583 37.4103 28.6703C37.6254 33.5556 40.9737 37.1572 45.7758 37.1641C50.5813 37.1745 54.1481 33.5799 54.1481 28.7293ZM80.4971 37.5215C87.433 37.5215 94.369 37.4868 101.305 37.5493C102.665 37.5631 103.13 37.1884 103.081 35.7971C103.033 34.4682 102.936 33.6597 101.232 33.6701C87.4747 33.7291 73.7208 33.7326 59.9634 33.6667C58.3257 33.6597 58.2736 34.3918 58.2424 35.6479C58.2077 37.0115 58.5061 37.577 60.0362 37.5562C66.8542 37.4764 73.6757 37.5215 80.4971 37.5215ZM91.3989 27.8202C94.2302 27.8202 97.0615 27.7716 99.8893 27.841C101.086 27.8723 101.44 27.3657 101.308 26.297C101.19 25.3636 101.77 24.0139 100.038 24.0105C94.3204 23.9966 88.5989 24.0105 82.8808 24.0001C81.1563 24.0001 81.6386 25.2769 81.5519 26.2345C81.4617 27.2304 81.6351 27.8757 82.9085 27.841C85.7363 27.7647 88.5676 27.8167 91.3989 27.8167V27.8202ZM68.0131 27.8202C70.7819 27.8202 73.5542 27.7577 76.3196 27.848C77.697 27.8931 77.8081 27.1852 77.7491 26.1374C77.6901 25.1242 77.9989 23.9792 76.3161 23.9896C70.7784 24.0243 65.2408 24.0243 59.7031 23.9896C58.0203 23.9792 58.3361 25.1277 58.2736 26.1409C58.2112 27.1922 58.3396 27.8896 59.7101 27.8445C62.4754 27.7543 65.2477 27.8167 68.0166 27.8167L68.0131 27.8202Z" fill="#FFA653"/>
<path d="M43.8951 68.7737C55.7996 68.7737 67.7077 68.8084 79.6122 68.7355C81.2534 68.7251 81.6593 69.2317 81.6142 70.7896C81.5067 74.3703 81.5379 77.9545 81.6038 81.5387C81.6281 82.819 81.1285 83.3534 79.9037 83.336C79.4977 83.3291 79.0952 83.336 78.6893 83.336C55.5116 83.336 32.3375 83.336 9.15985 83.336C7.21451 83.336 6.24183 82.3414 6.24183 80.3521C6.24183 77.0593 6.3147 73.7596 6.20714 70.4704C6.16203 69.0374 6.68595 68.7424 8.00097 68.7459C19.9645 68.7876 31.9281 68.7702 43.8916 68.7702L43.8951 68.7737ZM46.6604 77.8123C51.917 77.8123 57.1771 77.7567 62.4337 77.8435C64.1894 77.8712 63.8181 76.7783 63.8667 75.786C63.9187 74.7242 63.9187 73.9401 62.3955 73.947C51.9378 74.006 41.4767 74.0129 31.019 73.9435C29.3466 73.9331 29.5027 74.8353 29.4854 75.9143C29.468 77.035 29.4299 77.8816 31.0572 77.8504C36.2548 77.7498 41.4559 77.8123 46.657 77.8123H46.6604ZM8.35141 73.9817C8.35141 75.0504 8.2265 75.9247 8.40346 76.7332C8.49714 77.153 9.12169 77.7602 9.51376 77.7672C14.465 77.8365 19.4198 77.8018 24.3745 77.8192C25.8075 77.8261 25.6895 76.8477 25.6791 75.9109C25.6687 74.9949 25.8491 73.9748 24.4023 73.9782C19.163 73.9921 13.9272 73.9817 8.35488 73.9817H8.35141ZM71.3543 80.2515C74.0191 80.2445 76.0037 78.3015 75.9968 75.7131C75.9864 73.1212 74.0017 71.2025 71.3266 71.2025C68.6861 71.2025 66.6598 73.1802 66.6737 75.7408C66.6876 78.3154 68.7035 80.2584 71.3543 80.2515Z" fill="#FFA653"/>
<path d="M252.643 76.3997C256.283 76.4032 259.919 76.4553 263.555 76.3859C264.985 76.3581 265.471 76.8543 265.467 78.2907C265.432 96.0174 265.432 113.748 265.467 131.474C265.467 133.129 264.849 133.816 263.212 133.688C262.351 133.622 261.48 133.674 260.613 133.674C258.087 133.674 255.558 133.681 253.032 133.685C253.014 132.935 252.976 132.186 252.976 131.436C252.976 115.212 252.987 98.991 252.959 82.7666C252.955 80.6432 252.751 78.5232 252.643 76.3997Z" fill="#FFA653"/>
<path d="M92.9915 14.632H90.5801C90.5801 10.0277 90.5801 5.41302 90.5801 0.794839C91.5342 0.531142 92.4919 0.0384433 93.4495 0.0384433C130.277 0.000276568 167.108 0.0037468 203.935 0.0037468C206.305 0.0037468 208.675 -0.00666157 211.048 0.00721725C213.078 0.0210961 213.442 0.392354 213.442 2.47071C213.449 9.98609 213.446 17.5015 213.442 25.0203C213.442 35.0929 213.435 45.1689 213.432 55.2415C212.627 55.0923 211.822 54.9431 211.017 54.7939C211.003 54.0444 210.975 53.2915 210.975 52.542C210.975 36.5293 210.951 20.5166 211.007 4.50395C211.014 2.93565 210.628 2.46377 209.001 2.46724C171.022 2.51581 133.046 2.5054 95.0664 2.5054C94.4488 2.5054 93.8312 2.5054 92.9915 2.5054V14.6355V14.632Z" fill="#0C2C7E"/>
<path d="M267.535 205.933C267.053 205.933 266.574 205.933 266.092 205.93C263.319 205.951 260.759 205.233 258.417 203.744L261.307 201.346C269.28 204.761 277.923 200.149 279.859 191.86C280.067 190.976 280.057 190.028 280.057 189.109C280.067 160.119 280.067 131.13 280.064 102.141C280.064 101.912 280.04 101.679 280.022 101.45C281.292 101.45 282.566 101.45 283.836 101.45C283.822 107.286 283.794 113.126 283.794 118.962C283.79 141.678 283.843 164.394 283.728 187.11C283.714 189.872 283.267 192.811 282.24 195.354C279.62 201.85 274.585 205.396 267.531 205.933H267.535Z" fill="#ECD898"/>
<path d="M261.307 201.344C260.342 202.143 259.381 202.944 258.416 203.742C254.641 205.977 250.481 205.584 246.366 205.494C253.993 203.194 258.451 197.708 261.317 190.627C263.67 184.818 264.357 178.753 264.058 172.542C263.833 170.804 263.607 169.062 263.382 167.324C262.566 164.555 261.747 161.786 260.932 159.018C259.693 155.534 257.611 152.602 255.037 149.993C252.334 147.255 249.048 145.614 245.304 144.83C246.724 144.802 248.139 144.771 249.558 144.743C250.703 144.754 251.848 144.761 252.993 144.771C260.939 146.433 264.742 152.352 267.459 159.188C268.527 161.88 268.944 164.829 269.658 167.661C269.877 169.77 270.245 171.876 270.272 173.986C270.311 176.741 270.082 179.503 269.967 182.258C269.197 185.085 268.51 187.938 267.639 190.734C266.383 194.762 264.138 198.239 261.31 201.348L261.307 201.344Z" fill="#A0BCE3"/>
<path d="M252.993 144.768C251.848 144.757 250.703 144.75 249.558 144.74C249.538 142.564 249.52 140.389 249.503 138.213C249.506 136.697 249.513 135.184 249.517 133.668C249.517 115.861 249.531 98.055 249.489 80.2484C249.489 78.9646 249.066 77.6809 248.837 76.3971C248.563 75.4082 248.42 74.3534 247.99 73.4409C245.308 67.7748 240.843 64.1421 234.666 63.3579C229.955 62.7611 225.128 63.0561 220.354 62.9693C220.146 62.9658 219.931 63.1359 219.719 63.2261C219.719 61.9562 219.719 60.6862 219.722 59.4129C222.956 59.4302 226.193 59.34 229.42 59.5031C232.05 59.6349 234.743 59.7772 237.272 60.433C245.138 62.4766 249.999 67.7124 252.324 75.4117C252.424 75.7413 252.535 76.0709 252.643 76.3971C252.754 78.5205 252.955 80.6405 252.959 82.764C252.987 98.9883 252.973 115.209 252.976 131.434C252.976 132.183 253.011 132.932 253.032 133.682C253.032 135.191 253.025 136.704 253.025 138.213C253.014 140.396 253.004 142.578 252.993 144.764V144.768Z" fill="#ECD898"/>
<path d="M275.925 99.6741C277.063 98.7338 276.459 97.627 276.202 96.5687C273.142 83.8835 273.246 71.2156 276.348 58.5511C276.49 57.9648 276.424 57.3229 276.459 56.7087C277.191 56.6914 277.923 56.6775 278.655 56.6602C278.763 56.7712 278.87 56.8822 278.982 56.9967C279.325 61.2853 279.464 65.6016 280.057 69.8554C281.299 78.7205 283.357 87.3705 288.027 95.1773C287.919 95.7915 287.753 96.3987 287.715 97.0163C287.666 97.7762 286.771 98.6609 288.11 99.2994C288.336 99.4069 288.037 100.604 287.982 101.294C287.951 100.684 287.919 100.077 287.881 99.3063C284.453 99.3063 281.185 99.2855 277.92 99.3237C277.254 99.3306 276.591 99.5457 275.925 99.6671V99.6741Z" fill="#D3625E"/>
<path d="M214.129 55.589C215.066 55.7694 216.003 55.9498 216.822 56.106C217.221 55.8215 217.571 55.5716 217.925 55.3184C217.807 56.2725 217.606 57.2232 217.592 58.1774C217.547 61.196 217.575 64.2182 217.575 67.2819C218.414 67.3235 218.983 67.3548 219.552 67.3825C218.907 67.4519 217.845 67.7954 217.682 67.5456C216.797 66.2098 215.833 67.1917 214.917 67.275C214.528 67.3097 214.147 67.4519 213.765 67.5456C213.637 67.6219 213.508 67.6948 213.383 67.7711C212.589 67.896 211.798 68.0244 211.003 68.1493C210.531 68.2534 210.056 68.361 209.584 68.4651C206.35 68.8086 203.12 69.1521 199.886 69.499C198.956 69.5095 198.026 69.5199 197.096 69.5337C192.943 69.2562 188.786 68.9786 184.633 68.701C181.396 68.0452 178.159 67.3929 174.922 66.7372C174.922 66.0328 174.915 65.3285 174.911 64.6241C178.846 64.2841 182.791 64.0204 186.715 63.5832C194.338 62.7366 201.722 60.8803 208.803 57.9102C210.59 57.1608 212.36 56.3627 214.136 55.589H214.129Z" fill="#D0615E"/>
<path d="M214.129 55.5879C212.353 56.3616 210.583 57.1597 208.796 57.9091C201.711 60.8792 194.331 62.7355 186.708 63.5821C182.784 64.0193 178.839 64.2795 174.904 64.623L174.883 64.6334C174.894 61.8472 174.908 59.0611 174.918 56.2749C178.037 55.5636 181.157 54.8523 184.272 54.141C188.547 53.9537 192.818 53.7663 197.093 53.5789C197.905 53.5512 198.72 53.5199 199.532 53.4922C202.873 53.8287 206.218 54.1688 209.56 54.5053L211.017 54.7899C211.822 54.9391 212.627 55.0883 213.432 55.2374C213.664 55.3519 213.897 55.4699 214.129 55.5844V55.5879Z" fill="#EB6E6A"/>
<path d="M64.5919 151.731C65.0395 152.054 65.4871 152.376 65.9347 152.703C65.7057 153.514 65.4767 154.326 65.2512 155.138C65.0083 155.27 64.7689 155.405 64.526 155.537C63.2665 156.335 62.007 157.13 60.744 157.928C57.2743 158.226 53.8011 158.525 50.3314 158.823C48.0345 155.27 44.5197 153.605 40.5399 153.23C37.2715 152.921 34.0273 153.567 31.595 156.207C30.6756 155.416 29.7596 154.625 28.8401 153.83C30.4743 152.675 32.1086 151.516 33.7428 150.361C34.7594 149.878 35.776 149.392 36.7927 148.91C37.2819 148.705 37.7711 148.501 38.2603 148.296C40.5573 147.8 42.8577 147.304 45.1546 146.804C51.0774 146.526 56.7712 147.363 62.0348 150.277C62.8918 150.753 63.7384 151.242 64.5885 151.728L64.5919 151.731Z" fill="#F0706B"/>
<path d="M288.023 95.1843C283.353 87.3775 281.296 78.7275 280.053 69.8624C279.457 65.6086 279.321 61.2923 278.978 57.0037C279.661 57.0037 280.345 56.969 281.025 57.0037C283.107 57.1043 285.189 57.2258 287.27 57.3403C289.588 65.789 290.643 74.38 289.81 83.1202C289.425 87.1624 288.631 91.1664 288.023 95.1843ZM284.536 72.607C284.536 74.0504 284.567 75.4972 284.526 76.9406C284.498 77.8323 284.831 78.2244 285.733 78.162C286.573 78.103 287.624 78.3563 287.642 77.0274C287.676 74.1961 287.676 71.3648 287.642 68.537C287.624 67.2081 286.576 67.4614 285.733 67.4024C284.828 67.34 284.498 67.7355 284.529 68.6237C284.574 69.9492 284.54 71.2815 284.54 72.6104L284.536 72.607ZM287.638 64.9459C287.832 63.6135 287.194 63.2284 285.955 63.211C284.772 63.1902 284.505 63.6655 284.508 64.7446C284.508 65.848 284.696 66.4691 286.011 66.3962C287.052 66.3372 287.912 66.3268 287.638 64.9493V64.9459Z" fill="#F0706B"/>
<path d="M33.3022 17.7374C33.4306 18.3897 33.67 19.0385 33.67 19.6909C33.6943 30.5441 33.6873 41.3939 33.6873 52.2471C33.6873 55.0194 34.2633 55.6023 37.0009 55.6023C54.0302 55.6023 71.056 55.6023 88.0854 55.6058C88.8348 55.6058 89.5843 55.6474 90.3337 55.6717C90.306 56.5703 90.2782 57.469 90.2539 58.3677C71.8645 58.3677 53.475 58.3746 35.0856 58.3746C32.7158 58.3746 32.0114 57.6772 32.0114 55.2484C32.001 43.6839 31.9768 32.1159 32.0635 20.5513C32.0704 19.6076 32.8719 18.6708 33.3022 17.7305V17.7374Z" fill="#A2AFC9"/>
<path d="M85.3478 99.3166C86.9543 99.2541 87.6725 98.3832 87.6621 96.8115C87.6482 94.9274 87.6621 93.0434 87.6621 91.1211C84.9245 90.2398 84.3971 88.9109 86.1771 87.124C86.4408 87.2281 86.7149 87.3114 86.9682 87.4398C88.3769 88.1511 89.0361 87.7104 89.109 86.1282C89.1541 85.1498 89.3935 84.1817 89.5739 83.0333C91.3192 84.1679 92.8285 84.1332 94.4732 83.2623C95.7327 82.5961 96.7319 83.3351 96.9783 84.8098C97.0789 85.4239 97.235 86.0276 97.3669 86.6348C97.1726 87.5161 96.9817 88.4009 96.784 89.2822C96.4127 90.9546 96.2739 92.7311 95.6112 94.2786C94.5148 96.8496 94.6917 98.5151 96.7805 100.344C95.5522 103.324 93.4218 105.371 90.365 106.381C88.2069 107.096 86.1806 106.554 85.5178 104.941C84.7753 103.137 84.2063 101.218 85.3478 99.3062V99.3166Z" fill="#FE8662"/>
<path d="M19.3886 183.347C18.2609 178.583 18.0736 173.829 19.5343 169.09C19.9576 169.315 20.3809 169.541 20.8077 169.766C23.2538 170.908 25.7 172.05 28.1461 173.191C29.9712 174.933 31.7928 176.678 33.6178 178.42C33.0037 181.775 32.3896 185.134 31.7754 188.489C27.6465 186.775 23.5175 185.061 19.3886 183.347Z" fill="#F0706B"/>
<path d="M56.1432 128.498C56.2507 126.308 56.3548 124.122 56.4624 121.933C56.4589 117.967 57.8954 114.015 56.5491 110.039C56.5838 109.373 56.622 108.703 56.6567 108.037C57.7184 108.012 58.7836 107.988 59.8454 107.964C59.9494 108.613 60.0535 109.262 60.1368 109.768C61.1118 109.851 61.9653 109.921 62.8189 109.994C61.0979 111.881 58.9502 113.529 59.3735 116.562C59.6649 118.664 59.8731 120.781 60.116 122.891C60.1333 123.29 60.1125 123.699 60.1784 124.091C60.5566 126.332 60.9418 126.6 63.2561 126.27C64.3872 126.11 65.5148 125.937 66.6425 125.77C67.5828 125.715 68.5231 125.663 69.4634 125.607C68.079 128.067 66.6911 130.524 65.3067 132.984C63.1069 132.62 60.9106 132.259 58.7108 131.894C56.4589 131.815 55.883 130.468 56.1501 128.494L56.1432 128.498Z" fill="#FE8762"/>
<path d="M269.967 182.257C270.082 179.499 270.311 176.74 270.273 173.985C270.241 171.876 269.874 169.77 269.658 167.66C270.38 167.782 271.105 168.045 271.817 168.004C273.957 167.886 275.703 168.705 276.379 170.655C277.056 172.598 277.774 174.874 277.379 176.775C276.397 181.494 275.224 182.681 269.967 182.261V182.257Z" fill="#D3DBE6"/>
<path d="M52.0558 115.635C51.0045 115.642 49.9532 115.645 48.9053 115.652C48.9886 115.506 49.1725 115.267 49.1413 115.232C45.4044 111.297 45.7722 105.389 49.9775 102.134C52.7151 101.971 54.1168 103.234 54.8802 106.554C55.0085 107.835 54.3215 108.109 53.1974 108.019C52.4236 107.956 51.4035 107.807 51.4139 109.046C51.4243 110.274 52.441 110.066 53.2182 110.073C54.0405 110.08 54.9079 109.965 54.894 111.193C54.6234 113.105 53.7282 114.618 52.0558 115.635Z" fill="#616161"/>
<path d="M20.8077 169.766C20.3844 169.54 19.9611 169.314 19.5343 169.089C20.7799 163.274 23.8124 158.51 28.1392 154.513C28.9372 155.106 29.7352 155.696 30.5333 156.289C29.9712 157.059 29.3987 157.819 28.8505 158.6C25.8492 162.85 25.6896 167.403 27.4209 172.153C25.7 171.417 23.9929 170.657 22.2546 169.963C21.8174 169.79 21.2934 169.828 20.8077 169.769V169.766Z" fill="#F0706B"/>
<path d="M85.3476 99.3174C84.206 101.229 84.7751 103.148 85.5176 104.952C86.1803 106.562 88.2066 107.107 90.3648 106.392C93.4181 105.379 95.552 103.335 96.7802 100.355C97.3666 100.57 97.953 100.785 98.5359 101C97.2591 103.252 97.8871 105.601 98.1924 107.933C92.509 107.936 86.8257 107.94 81.1458 107.943L83.2588 99.3798C83.9562 99.359 84.6536 99.3382 85.351 99.3208L85.3476 99.3174Z" fill="#FFB875"/>
<path d="M90.2503 58.3717C90.2781 57.4731 90.3058 56.5744 90.3301 55.6758C90.4169 55.6654 90.5036 55.6758 90.5834 55.707C90.5834 56.5397 90.5834 57.3759 90.5834 58.3891H93.0192C93.0122 65.0023 92.9949 71.6121 93.0087 78.2254C93.0087 78.7736 93.2412 79.3184 93.3696 79.8666C92.294 79.8596 91.2218 79.8527 90.1462 79.8423C90.2018 79.6792 90.3058 79.5161 90.3058 79.3531C90.292 72.3581 90.2677 65.3632 90.2469 58.3717H90.2503Z" fill="#0C2C7E"/>
<path d="M29.2287 198.926C25.2177 195.54 22.1193 191.511 20.4399 186.48C20.6308 186.46 20.8598 186.359 21.009 186.428C24.4162 188.028 27.8131 189.648 31.2099 191.265C30.6131 193.808 30.0163 196.355 29.4161 198.898C29.3536 198.902 29.2912 198.912 29.2287 198.93V198.926Z" fill="#D3635F"/>
<path d="M71.1844 108.053C72.6451 107.679 74.1059 107.304 75.5701 106.933C76.7567 107.3 77.9399 107.668 79.1265 108.036C79.7754 108.654 80.4277 109.271 80.8198 109.642C81.9231 109.42 82.7836 109.247 83.6441 109.077C83.6441 110.382 83.7378 111.7 83.5921 112.991C83.54 113.452 82.9016 113.844 82.5303 114.271C82.0619 114.122 81.5935 113.976 81.0973 113.82C80.7573 114.68 80.4277 115.51 80.0981 116.339C79.4839 116.218 78.8698 116.096 78.6269 116.051C78.1273 115.027 77.9087 114.011 77.2876 113.411C75.6187 111.794 74.1336 110.125 73.6514 107.127C72.2461 108.595 71.1809 109.712 70.1157 110.826C70.4731 109.903 70.8305 108.98 71.1879 108.057L71.1844 108.053Z" fill="#2C1811"/>
<path d="M33.5623 205.739C32.459 205.888 31.3556 206.169 30.2557 206.159C26.4182 206.124 22.5842 205.989 18.7502 205.892C18.6946 205.646 18.5212 205.236 18.601 205.177C19.8917 204.23 21.1547 203.213 22.5495 202.447C24.156 201.569 25.8908 200.92 27.5667 200.174C29.2217 201.902 31.1439 202.96 33.6317 202.623C33.6074 203.661 33.5866 204.698 33.5623 205.739Z" fill="#0C2C7E"/>
<path d="M90.153 79.8418C91.2286 79.8487 92.3007 79.8557 93.3763 79.8661C93.8378 79.9875 94.2958 80.1055 94.7573 80.2269C96.0584 80.6676 97.3596 81.1082 98.5184 81.5003C98.0778 83.4676 97.7239 85.0568 97.3665 86.6424C97.2346 86.0352 97.0785 85.428 96.9779 84.8174C96.735 83.3427 95.7357 82.6037 94.4728 83.2699C92.8281 84.1408 91.3188 84.1755 89.5735 83.0409C89.3931 84.1859 89.1502 85.1574 89.1086 86.1358C89.0357 87.718 88.3765 88.1587 86.9678 87.4474C86.7145 87.319 86.4404 87.2357 86.1767 87.1316C86.142 86.3891 86.0657 85.6431 86.0795 84.9006C86.142 81.9444 87.1864 80.6641 90.153 79.8487V79.8418Z" fill="#2C1811"/>
<path d="M79.123 108.036C77.9363 107.669 76.7532 107.301 75.5665 106.933C76.4513 105.157 77.1626 103.262 78.2729 101.638C79.3971 99.9971 81.302 99.4974 83.2554 99.376C82.5511 102.232 81.8467 105.084 81.1423 107.939C80.4692 107.97 79.7961 108.005 79.1195 108.036H79.123Z" fill="#FE8762"/>
<path d="M253.024 138.219C253.024 136.709 253.028 135.196 253.031 133.687C255.557 133.687 258.087 133.68 260.613 133.677C260.609 133.909 260.602 134.138 260.602 134.371C260.571 138.621 261.091 138.187 256.838 138.205C255.568 138.212 254.294 138.212 253.024 138.219Z" fill="#A2AFC8"/>
<path d="M31.2098 191.261C27.8095 189.644 24.4127 188.027 21.0089 186.424C20.8597 186.355 20.6307 186.455 20.4399 186.476C20.2178 185.876 19.9957 185.279 19.7737 184.679C20.3045 184.72 20.884 184.641 21.3628 184.828C24.7909 186.157 28.1981 187.541 31.6123 188.905C31.477 189.689 31.3417 190.477 31.2064 191.261H31.2098Z" fill="#F0706B"/>
<path d="M275.925 99.6748C276.591 99.5533 277.254 99.3382 277.92 99.3313C281.185 99.2966 284.453 99.3139 287.881 99.3139C287.92 100.081 287.951 100.691 287.982 101.302C286.601 101.351 285.224 101.399 283.843 101.448C282.573 101.448 281.299 101.448 280.029 101.448C278.714 101.448 277.399 101.448 275.925 101.448V99.6748Z" fill="#C33F3B"/>
<path d="M219.549 67.3858C218.98 67.3581 218.411 67.3269 217.571 67.2852C217.571 64.2215 217.543 61.2028 217.589 58.1807C217.602 57.2265 217.807 56.2758 217.922 55.3217C219.198 55.1794 219.827 55.6652 219.705 57.0288C219.636 57.8164 219.712 58.6214 219.726 59.4159C219.726 60.6858 219.726 61.9592 219.722 63.2291C219.667 64.6135 219.608 66.0014 219.552 67.3858H219.549Z" fill="#C23E3A"/>
<path d="M71.1843 108.054C70.8269 108.977 70.4695 109.9 70.1121 110.823C70.0046 110.93 69.897 111.035 69.7894 111.142C69.8762 110.247 69.439 110.008 68.5924 110.025C66.6667 110.063 64.741 110.011 62.8153 109.994C61.9618 109.921 61.1117 109.851 60.1333 109.768C60.05 109.258 59.9459 108.609 59.8418 107.964C63.6203 107.995 67.3988 108.023 71.1773 108.054H71.1843Z" fill="#818180"/>
<path d="M49.9776 102.132C45.7724 105.386 45.4011 111.295 49.1414 115.23C49.1727 115.264 48.9888 115.507 48.9055 115.65C46.4212 114.851 45.8556 112.718 45.4982 110.542C45.3039 109.369 45.4462 108.141 45.4358 106.941C45.9007 105.855 46.2546 104.703 46.8618 103.703C47.5315 102.603 48.5342 101.854 49.9776 102.128V102.132Z" fill="#555555"/>
<path d="M33.6317 202.625C31.1439 202.961 29.2182 201.903 27.5667 200.175C28.1218 199.759 28.6735 199.343 29.2286 198.926C29.2911 198.912 29.3535 198.902 29.4195 198.898C30.0371 199.155 30.6547 199.408 31.2688 199.665C31.9073 199.832 32.5491 199.998 33.1008 200.141C33.3298 200.852 33.5311 201.48 33.7323 202.108C33.7011 202.281 33.6664 202.455 33.6352 202.628L33.6317 202.625Z" fill="#F88563"/>
<path d="M54.8943 111.194C54.9081 109.962 54.0442 110.08 53.2184 110.073C52.4377 110.066 51.4246 110.274 51.4141 109.046C51.4037 107.807 52.4238 107.956 53.1976 108.019C54.3183 108.106 55.0053 107.835 54.8804 106.555C55.033 106.978 55.1822 107.401 55.3627 107.904C55.7582 107.946 56.2093 107.995 56.6569 108.04C56.6222 108.706 56.5875 109.376 56.5493 110.042C55.5604 109.799 55.1267 110.354 54.8943 111.194Z" fill="#808080"/>
<path d="M287.271 57.3373C285.189 57.2228 283.107 57.0979 281.025 57.0008C280.345 56.9695 279.662 57.0008 278.978 57.0008C278.871 56.8897 278.763 56.7787 278.652 56.6642L278.642 56.6364H287.874V54.6448H278.631C277.739 54.6344 276.851 54.624 275.959 54.6136C276.199 54.4991 276.435 54.2909 276.674 54.2874C280.46 54.2666 284.245 54.2736 288.114 54.2736C288.416 55.5365 288.669 56.6503 287.267 57.3338L287.271 57.3373Z" fill="#EB817D"/>
<path d="M31.6124 188.905C28.1983 187.538 24.791 186.157 21.3629 184.828C20.8876 184.644 20.3047 184.724 19.7738 184.679C19.6454 184.234 19.5171 183.787 19.3887 183.343C23.5176 185.057 27.6466 186.771 31.7755 188.485C31.72 188.624 31.668 188.762 31.6124 188.905Z" fill="#DDAEAC"/>
<path d="M30.5334 156.289C29.7353 155.696 28.9373 155.106 28.1393 154.513C28.3752 154.287 28.6077 154.061 28.8402 153.836C29.7596 154.627 30.6756 155.418 31.5951 156.213C34.1558 158.343 37.2785 159.193 40.3839 160.092C40.1132 160.21 39.8461 160.328 39.5754 160.442C36.5603 159.058 33.5451 157.673 30.5299 156.289H30.5334Z" fill="#E0B9B6"/>
<path d="M275.959 54.6172C276.851 54.6276 277.739 54.638 278.631 54.6484C278.635 55.3111 278.638 55.9773 278.642 56.64L278.652 56.6678C277.92 56.6851 277.188 56.699 276.456 56.7164C276.289 56.0155 276.126 55.3181 275.959 54.6172Z" fill="#C43F3B"/>
<path d="M198.842 205.851C197.919 205.872 196.996 205.914 196.073 205.914C167.489 205.921 138.909 205.921 110.326 205.924C110.093 205.293 109.861 204.661 109.629 204.03C109.365 203.141 108.935 202.538 107.838 202.701C107.429 202.763 106.978 202.545 106.544 202.454H109.223C108.827 201.698 108.553 201.171 108.275 200.643C109.455 200.716 109.358 199.904 109.288 199.151C109.216 198.364 109.091 197.583 108.99 196.799C133.968 196.806 158.943 196.809 183.922 196.816C185.067 197.635 186.215 198.45 187.36 199.269C190.313 202.926 194.067 205.126 198.793 205.553C198.8 205.654 198.814 205.754 198.842 205.851Z" fill="#0C2C7E"/>
<path d="M212.592 205.313C211.513 205.497 210.437 205.678 209.358 205.861C208.834 205.74 208.31 205.535 207.783 205.518C206.204 205.462 204.619 205.48 203.04 205.469C207.7 204.019 211.509 201.313 214.202 197.281C220.902 187.247 222.248 176.223 219.351 164.721C216.964 155.245 212.412 147.362 201.933 144.826C204.48 144.809 207.027 144.795 209.573 144.777C210.049 144.881 210.524 144.986 210.999 145.093C211.811 145.339 212.62 145.586 213.432 145.832C214.587 146.689 215.805 147.47 216.888 148.41C220.42 151.481 222.654 155.405 224.243 159.749C224.382 160.131 224.854 160.394 225.173 160.71C225.194 161.484 225.125 162.275 225.253 163.031C225.534 164.707 225.912 166.369 226.249 168.035C227.04 172.767 227.095 177.5 226.249 182.233C226.252 182.358 226.259 182.483 226.263 182.608C225.784 184.814 225.305 187.021 224.826 189.228C224.719 189.422 224.576 189.606 224.504 189.811C222.47 195.685 219.514 200.876 213.97 204.179C213.602 204.397 213.376 204.855 213.081 205.202C212.918 205.237 212.755 205.272 212.592 205.306V205.313Z" fill="#A0BCE3"/>
<path d="M102.384 206.18C100.982 206.173 99.5803 206.166 98.182 206.159C97.842 205.462 97.5054 204.761 97.1654 204.064C95.0766 199.404 92.9879 194.741 90.8956 190.081C90.7638 190.122 90.6319 190.161 90.5001 190.202V204.848C90.4064 204.241 90.2329 203.633 90.2295 203.026C90.2052 198.994 90.0664 194.956 90.2746 190.934C90.3925 188.627 89.3239 186.847 88.4981 184.918C88.4807 184.876 88.0782 185.001 87.8562 185.046C87.2629 183.186 86.6661 181.327 86.0728 179.467C86.3989 179.238 86.7146 178.822 87.0512 178.804C90.3405 178.648 93.6332 178.554 96.926 178.443C96.8913 178.554 96.8601 178.662 96.8254 178.773C96.409 178.811 95.9926 178.853 95.4895 178.901C96.7837 184.089 98.012 189.092 99.3027 194.078C99.4034 194.466 99.9134 194.751 100.236 195.088L100.385 195.094C99.5213 197.079 100.548 198.831 101.062 200.649L102.006 204.126C102.134 204.81 102.262 205.493 102.387 206.177L102.384 206.18Z" fill="#A7A7A7"/>
<path d="M59.9736 205.816C58.5615 206.174 57.125 206.892 55.8481 205.497C55.8655 205.244 55.8828 204.987 55.8967 204.734C56.1569 203.748 56.4727 202.77 56.6358 201.771C56.667 201.569 56.1292 201.278 55.8551 201.028C56.8682 200.587 57.295 199.786 57.5344 198.724C58.2006 195.765 58.9674 192.829 59.6961 189.887C59.6995 189.658 59.703 189.432 59.7065 189.203C60.4871 186.317 61.2678 183.426 62.052 180.54C62.1838 179.859 62.3157 179.183 62.451 178.503C65.8097 178.496 69.1683 178.489 72.527 178.479C71.3855 181.004 70.244 183.53 69.1024 186.056C68.9775 186.292 68.8526 186.532 68.7242 186.768C67.1455 190.144 65.5598 193.513 64.0193 196.906C63.9152 197.135 64.172 197.531 64.2587 197.846C63.3254 199.38 62.392 200.914 61.4587 202.447C60.9625 203.571 60.4698 204.696 59.9736 205.816Z" fill="#A7A7A7"/>
<path d="M52.0142 206.181C47.1254 206.174 42.24 206.177 37.3512 206.149C36.8203 206.149 36.286 205.958 35.7551 205.858C36.3727 205.268 36.9869 204.678 37.6045 204.088C38.746 203.315 39.891 202.541 41.0325 201.767C41.147 201.746 41.2442 201.698 41.3275 201.614C42.4759 201.285 43.6244 200.955 44.7729 200.622C46.6882 201.833 48.4404 203.53 51.0357 202.732C51.3861 203.651 51.7401 204.571 52.0905 205.487C52.0627 205.719 52.0385 205.948 52.0107 206.181H52.0142Z" fill="#0C2C7E"/>
<path d="M91.2703 205.872C91.0136 205.532 90.7568 205.192 90.4966 204.852V190.206C90.6284 190.165 90.7603 190.127 90.8921 190.085C92.9809 194.745 95.0697 199.408 97.1619 204.068C95.028 203.825 93.1093 204.227 91.6208 205.921C91.5028 205.903 91.3883 205.889 91.2703 205.872Z" fill="#0C2C7E"/>
<path d="M86.4373 203.766C86.6559 204.574 86.871 205.379 87.0896 206.187C80.8684 206.187 74.6472 206.187 68.426 206.184C69.4392 205.382 70.4558 204.581 71.469 203.776C76.4584 203.776 81.4513 203.769 86.4407 203.766H86.4373Z" fill="#5595E7"/>
<path d="M102.384 206.18C102.255 205.497 102.127 204.813 102.002 204.13C104.545 204.095 107.089 204.064 109.629 204.029C109.861 204.661 110.094 205.292 110.326 205.924C107.679 206.01 105.031 206.094 102.384 206.18Z" fill="#5595E7"/>
<path d="M91.6208 205.92C93.1059 204.223 95.0246 203.821 97.162 204.067C97.502 204.765 97.842 205.462 98.1786 206.163C95.9927 206.083 93.8068 206.003 91.6208 205.924V205.92Z" fill="#5595E7"/>
<path d="M203.037 205.466C204.619 205.477 206.201 205.459 207.78 205.518C208.307 205.536 208.831 205.744 209.355 205.862C205.851 205.862 202.343 205.855 198.838 205.851C198.811 205.754 198.793 205.654 198.79 205.55C200.205 205.522 201.621 205.494 203.033 205.463L203.037 205.466Z" fill="#647080"/>
<path d="M197.093 53.5836C192.818 53.771 188.547 53.9583 184.273 54.1457C184.273 52.043 184.273 49.9369 184.276 47.8308C184.279 42.9247 184.252 38.0185 184.311 33.1123C184.328 31.7626 183.877 31.2977 182.513 31.3012C162.486 31.3428 142.456 31.3358 122.428 31.3601C119.871 31.3601 119.778 31.4989 119.642 34.0526C117.415 33.4558 116.943 33.8028 116.943 36.0685C116.943 53.4691 116.967 70.8731 116.905 88.2737C116.898 89.9912 117.449 90.359 119.066 90.3555C139.184 90.307 159.305 90.3104 179.422 90.3659C181.077 90.3694 181.819 89.953 181.49 88.2494C183.345 88.1985 184.273 87.2397 184.273 85.373C184.273 80.4183 184.262 75.4601 184.29 70.5053C184.29 69.9051 184.512 69.3048 184.63 68.7046C188.783 68.9821 192.94 69.2597 197.093 69.5373C196.982 71.293 196.895 73.0521 196.75 74.8043C196.652 75.9528 197.27 76.1332 198.217 76.0985C199.105 76.0673 199.956 76.1991 199.897 74.8321C199.82 73.0591 199.879 71.2791 199.879 69.5026C203.113 69.1591 206.343 68.8156 209.577 68.4686C209.601 71.116 209.626 73.7634 209.65 76.4108C206.25 76.4177 202.853 76.4177 199.452 76.4316C196.496 76.4409 195.018 77.9386 195.018 80.9249C194.151 80.9249 193.28 80.9804 192.419 80.9075C190.789 80.7722 190.157 81.4314 190.161 83.1039C190.199 100.779 190.174 118.453 190.213 136.128C190.213 136.818 190.629 137.505 190.855 138.196C192.825 138.31 194.8 138.425 196.77 138.543C196.77 140.243 196.819 141.95 196.743 143.647C196.691 144.813 197.426 144.781 198.193 144.809C194.064 145.628 190.549 147.547 187.694 150.656C186.663 151.467 185.633 152.283 184.599 153.095C183.939 152.984 183.284 152.776 182.624 152.772C170.446 152.751 158.267 152.755 146.088 152.762C142.227 152.762 142.699 152.335 142.598 156.332C142.56 157.831 143.035 158.344 144.569 158.337C156.4 158.282 168.232 158.303 180.067 158.299C179.38 159.687 178.697 161.079 178.01 162.466C177.389 162.237 176.764 161.811 176.143 161.807C166.084 161.766 156.026 161.779 145.967 161.779C142.608 161.779 142.688 161.779 142.591 165.19C142.542 166.863 143.084 167.376 144.76 167.366C154.704 167.3 164.648 167.338 174.589 167.317C175.262 167.317 175.931 167.102 176.604 166.984C175.664 171.342 175.418 175.735 175.938 180.169C153.923 180.169 131.911 180.172 109.896 180.158C108.803 180.158 107.731 180.04 107.873 181.65C107.446 177.105 107.023 172.56 106.596 168.014C106.693 167.581 106.874 167.147 106.877 166.713C106.895 157.203 106.895 147.696 106.874 138.185C106.874 137.71 106.627 137.235 106.496 136.756C108.772 135.715 111.058 134.695 113.321 133.623C114.795 132.922 116.128 132.054 116.35 130.219C122.578 130.215 128.802 130.233 135.03 130.17C135.599 130.163 136.606 129.699 136.654 129.345C136.817 128.113 135.721 128.488 135.069 128.484C128.726 128.453 122.383 128.46 116.044 128.456C116.003 128.345 115.957 128.238 115.916 128.127C122.55 128.127 129.184 128.109 135.818 128.137C138.118 128.148 138.119 128.196 138.119 125.83C138.119 119.772 138.077 113.714 138.15 107.659C138.167 106.105 137.751 105.522 136.106 105.546C129.819 105.629 123.532 105.577 117.241 105.584C116.742 105.584 116.239 105.653 115.631 105.699C115.597 106.441 115.565 107.066 115.538 107.69C115.434 107.669 115.326 107.659 115.222 107.659C115.083 107.045 114.979 106.417 114.795 105.817C113.955 103.062 112.554 102 109.993 102.139C108.963 102.597 107.932 103.058 106.902 103.516C106.898 102.35 106.891 101.188 106.888 100.022C106.891 86.1607 106.898 72.2957 106.902 58.4342L106.877 58.3093C109.07 58.403 109.632 57.8583 109.657 55.6099C111.121 55.1207 111.416 54.0104 111.412 52.6051C111.388 41.346 111.405 30.0833 111.409 18.8241C139.142 18.8241 166.875 18.8414 194.609 18.7998C196.267 18.7998 196.802 19.2786 196.791 20.9614C196.722 30.1492 196.743 39.3335 196.774 48.5213C196.781 50.2076 196.982 51.8973 197.097 53.5836H197.093ZM137.053 164.569C138.254 164.732 138.486 164.108 138.479 163.042C138.441 156.575 138.427 150.104 138.49 143.636C138.504 142.332 138.101 141.964 136.814 141.974C130.461 142.033 124.108 142.058 117.755 141.964C116.148 141.94 115.867 142.498 115.881 143.956C115.951 150.711 115.902 157.47 115.895 164.229C115.791 163.622 115.6 163.018 115.597 162.411C115.572 156.811 115.586 151.207 115.576 145.607C115.576 145.028 115.493 144.448 115.451 143.872C115.267 143.858 115.083 143.841 114.899 143.827C114.771 144.368 114.535 144.913 114.531 145.454C114.507 151.863 114.549 158.275 114.49 164.684C114.476 165.992 114.885 166.352 116.166 166.342C122.689 166.283 129.215 166.318 135.742 166.311C136.13 166.311 136.519 166.224 137.053 166.162V164.576V164.569ZM142.293 121.77C144.77 121.937 146.883 122.204 148.993 122.197C152.563 122.183 156.133 121.923 159.704 121.899C167.68 121.85 175.657 121.899 183.638 121.878C187.163 121.867 186.653 122.364 186.687 118.88C186.712 116.396 186.639 116.333 184.182 116.333C171.001 116.333 157.823 116.333 144.642 116.333C144.236 116.333 143.767 116.212 143.444 116.375C143.004 116.593 142.379 117.01 142.348 117.385C142.22 118.859 142.296 120.351 142.296 121.774L142.293 121.77ZM164.415 130.899C170.602 130.899 176.788 130.899 182.978 130.899C186.764 130.899 186.698 130.896 186.722 127.166C186.733 125.656 186.118 125.299 184.751 125.327C181.583 125.396 178.409 125.348 175.241 125.348C165.526 125.348 155.811 125.33 146.095 125.354C141.779 125.365 142.365 124.747 142.254 129.279C142.223 130.608 142.681 130.934 143.948 130.927C150.769 130.871 157.594 130.903 164.419 130.899H164.415ZM158.066 113.2C161.994 113.2 165.918 113.231 169.845 113.193C174.422 113.148 173.791 113.97 173.87 108.957C173.884 107.999 173.562 107.645 172.58 107.631C168.437 107.562 164.294 107.374 160.151 107.322C155.765 107.267 151.376 107.305 146.987 107.315C146.415 107.315 145.828 107.315 145.266 107.423C142.251 108.006 142.341 108.02 142.247 111.208C142.199 112.884 142.855 113.259 144.385 113.231C148.944 113.151 153.507 113.204 158.069 113.204L158.066 113.2ZM158.413 143.737C154.249 143.737 150.089 143.737 145.925 143.737C142.272 143.737 142.712 143.407 142.594 147.137C142.542 148.796 143.063 149.337 144.753 149.323C153.25 149.25 161.747 149.288 170.244 149.288C174.294 149.288 174.245 149.288 174.231 145.277C174.228 144.049 173.829 143.699 172.635 143.713C167.896 143.768 163.156 143.737 158.416 143.737H158.413Z" fill="#EFF6FF"/>
<path d="M209.56 54.506C206.218 54.1694 202.874 53.8294 199.532 53.4928C199.647 52.7642 199.855 52.0321 199.858 51.3035C199.879 39.3399 199.834 27.3798 199.921 15.4198C199.935 13.6155 199.414 13.2373 197.693 13.2408C167.066 13.2928 136.439 13.279 105.812 13.279H103.872C103.977 13.8966 104.042 14.2817 104.108 14.6668C100.847 14.6599 97.5818 14.653 94.3203 14.646C94.3203 11.1486 94.3203 7.65456 94.3203 4.13281H209.56V54.506Z" fill="#EFF6FF"/>
<path d="M104.108 14.6673C104.043 14.2821 103.977 13.897 103.873 13.2794H105.812C136.439 13.2794 167.066 13.2933 197.693 13.2412C199.414 13.2412 199.935 13.6159 199.921 15.4202C199.831 27.3803 199.879 39.3438 199.858 51.3039C199.858 52.0325 199.647 52.7646 199.532 53.4933C198.72 53.521 197.905 53.5522 197.093 53.58C196.982 51.8937 196.777 50.2075 196.77 48.5177C196.739 39.3299 196.718 30.1456 196.788 20.9578C196.802 19.275 196.267 18.7962 194.605 18.7962C166.872 18.8378 139.139 18.8205 111.405 18.8205C111.398 18.1925 111.419 17.561 111.381 16.933C111.298 15.5 110.514 14.7228 109.088 14.6881C107.429 14.6464 105.767 14.6707 104.108 14.6673Z" fill="#2254B5"/>
<path d="M209.559 54.506V4.1328H94.3201C94.3201 7.65108 94.3201 11.1485 94.3201 14.646C93.876 14.6425 93.4353 14.6391 92.9912 14.6321C92.9912 10.6628 92.9912 6.69344 92.9912 2.50203C93.8309 2.50203 94.4485 2.50203 95.0661 2.50203C133.045 2.50203 171.021 2.51244 209.001 2.46387C210.628 2.46387 211.01 2.93575 211.006 4.50059C210.951 20.5133 210.972 36.526 210.975 52.5387C210.975 53.2881 211.003 54.041 211.017 54.7905C210.531 54.6933 210.045 54.5997 209.559 54.5025V54.506Z" fill="#737373"/>
<path d="M70.7924 43.4581C80.8476 43.4581 90.9028 43.4581 100.958 43.4581C102.866 43.4581 103.782 44.8945 102.957 46.6294C102.832 46.8931 102.485 47.1325 102.193 47.2158C101.818 47.3233 101.392 47.2713 100.989 47.2713C80.8788 47.2713 60.7684 47.2609 40.658 47.299C39.1348 47.299 38.4617 46.9729 38.5103 45.2866C38.5519 43.8259 39.0446 43.4199 40.4568 43.4268C50.571 43.4754 60.6817 43.4511 70.7959 43.4511L70.7924 43.4581Z" fill="#0C2C7E"/>
<path d="M54.1621 28.7818C54.1621 33.6324 50.5918 37.227 45.7897 37.2166C40.9876 37.2062 37.6394 33.6047 37.4242 28.7228C37.2646 25.1108 40.2833 20.3955 45.7654 20.3365C51.0602 20.2775 54.6097 24.8783 54.1621 28.7818Z" fill="#0C2C7E"/>
<path d="M80.5111 37.5736C73.6896 37.5736 66.8682 37.5285 60.0502 37.6083C58.5201 37.6257 58.2217 37.0636 58.2564 35.7C58.2876 34.444 58.3397 33.7119 59.9774 33.7188C73.7347 33.7847 87.4886 33.7813 101.246 33.7223C102.95 33.7153 103.047 34.5203 103.095 35.8492C103.144 37.2405 102.679 37.6118 101.319 37.6014C94.383 37.5389 87.447 37.5736 80.5111 37.5736Z" fill="#0C2C7E"/>
<path d="M91.4128 27.8723C88.5815 27.8723 85.7503 27.8203 82.9225 27.8966C81.6456 27.9313 81.4756 27.286 81.5658 26.2902C81.6525 25.3325 81.1703 24.0522 82.8947 24.0557C88.6128 24.0626 94.3343 24.0522 100.052 24.0661C101.784 24.0695 101.208 25.4193 101.322 26.3526C101.458 27.4248 101.1 27.9279 99.9032 27.8966C97.0754 27.8272 94.2441 27.8758 91.4128 27.8723Z" fill="#0C2C7E"/>
<path d="M68.0268 27.8721C65.258 27.8721 62.4857 27.8096 59.7204 27.8998C58.3498 27.9449 58.2215 27.2475 58.2839 26.1962C58.3464 25.1865 58.0306 24.0346 59.7134 24.045C65.2511 24.0762 70.7887 24.0797 76.3264 24.045C78.0092 24.0346 77.7004 25.1796 77.7594 26.1927C77.8183 27.2406 77.7073 27.9484 76.3298 27.9033C73.5645 27.8131 70.7922 27.8755 68.0234 27.8755L68.0268 27.8721Z" fill="#0C2C7E"/>
<path d="M94.7543 80.226C94.2928 80.1045 93.8348 79.9866 93.3733 79.8651C93.2484 79.3169 93.016 78.7722 93.0125 78.224C92.9952 71.6107 93.0125 65.0009 93.0229 58.3877C93.127 57.5931 93.2276 56.7951 93.3317 56.0005C93.6717 55.8791 94.0152 55.7576 94.3553 55.6396C94.3761 56.5626 94.3934 57.4821 94.4143 58.405C94.39 65.3167 94.3587 72.2248 94.3587 79.1365C94.3587 79.5008 94.619 79.8651 94.7578 80.2294L94.7543 80.226Z" fill="#747475"/>
<path d="M94.414 58.4023C94.3931 57.4793 94.3758 56.5599 94.355 55.6369C97.4881 55.6335 100.621 55.63 103.758 55.623C103.758 56.5252 103.758 57.4308 103.758 58.3329C100.642 58.3572 97.5298 58.378 94.414 58.4023Z" fill="#959FC4"/>
<path d="M103.758 58.3368C103.758 57.4347 103.758 56.5291 103.758 55.627C104.802 55.627 105.85 55.6304 106.895 55.6339C106.888 56.5256 106.881 57.4173 106.87 58.309L106.895 58.4339C105.968 58.4339 105.045 58.427 104.119 58.427C103.997 58.3993 103.872 58.368 103.751 58.3403L103.758 58.3368Z" fill="#A1AEC8"/>
<path d="M93.3315 56.001C93.2274 56.7955 93.1267 57.5936 93.0227 58.3881C92.294 58.3881 91.5654 58.3881 90.5869 58.3881C90.5869 57.375 90.5869 56.5388 90.5869 55.7061C91.5029 55.8032 92.4154 55.9004 93.3315 56.001Z" fill="#2F3239"/>
<path d="M106.874 58.3049C106.881 57.4132 106.888 56.5215 106.898 55.6298C107.818 55.6228 108.737 55.6124 109.656 55.6055C109.629 57.8538 109.07 58.3986 106.877 58.3049H106.874Z" fill="#97A0C5"/>
<path d="M46.6605 77.8112C41.4594 77.8112 36.2583 77.7487 31.0607 77.8494C29.4334 77.8806 29.475 77.034 29.4889 75.9133C29.5028 74.8342 29.3501 73.9321 31.0225 73.9425C41.4802 74.0153 51.9414 74.0084 62.3991 73.9459C63.9223 73.9355 63.9223 74.7232 63.8702 75.7849C63.8217 76.7772 64.1929 77.8702 62.4372 77.8424C57.1806 77.7557 51.9206 77.8112 46.664 77.8112H46.6605Z" fill="#0C2C7E"/>
<path d="M8.35145 73.981C13.9238 73.981 19.163 73.988 24.3988 73.9775C25.8492 73.9741 25.6653 74.9942 25.6757 75.9102C25.6861 76.847 25.8041 77.8254 24.3711 77.8185C19.4163 77.8012 14.4616 77.8359 9.51033 77.7665C9.11825 77.7595 8.4937 77.1558 8.40002 76.7325C8.22307 75.9241 8.34798 75.0497 8.34798 73.981H8.35145Z" fill="#0C2C7E"/>
<path d="M71.3543 80.2511C68.7034 80.2581 66.6875 78.3185 66.6737 75.7405C66.6598 73.1833 68.6895 71.2021 71.3265 71.2021C74.0017 71.2021 75.9863 73.1174 75.9968 75.7128C76.0072 78.3012 74.0225 80.2407 71.3543 80.2511ZM69.1441 73.2978C69.0677 73.3846 68.9949 73.4679 68.9186 73.5546C69.6715 74.2485 70.4244 74.9425 71.271 75.7197C70.3828 76.5247 69.6402 77.1943 68.8977 77.8674C68.981 77.9542 69.0643 78.0444 69.1476 78.1311C70.1468 77.347 71.1496 76.5594 72.2495 75.6954C71.0836 74.7933 70.1121 74.0473 69.1406 73.2978H69.1441ZM74.5881 75.7405C73.3771 74.7829 72.4507 74.0508 71.5243 73.3152C71.441 73.4158 71.3578 73.5164 71.2745 73.6205C72.0448 74.3249 72.8116 75.0258 73.6443 75.7856C72.7526 76.5073 71.9962 77.1215 71.2398 77.7321L71.4896 78.0409C72.4195 77.3505 73.3494 76.66 74.5881 75.7405Z" fill="#0C2C7E"/>
<path d="M65.2512 155.138C65.4802 154.326 65.7092 153.514 65.9347 152.702C67.0624 150.738 67.104 148.656 66.6148 146.516C66.5142 145.586 66.417 144.659 66.3164 143.729C70.9346 145.121 75.6707 145.291 80.4416 145.083C80.3791 148.368 81.3853 151.332 83.1757 154.052C80.2334 154.558 77.2529 154.912 74.3557 155.61C71.226 156.366 68.2247 156.38 65.2443 155.138H65.2512Z" fill="#FE8662"/>
<path d="M226.076 168.473C225.739 166.808 225.361 165.146 225.08 163.47C224.955 162.714 225.021 161.926 225 161.149C225.701 159.57 226.26 157.912 227.127 156.43C231.152 149.56 236.485 144.72 245.131 145.264C248.875 146.045 252.161 147.69 254.864 150.427C254.687 150.892 254.6 151.423 254.319 151.812C250.454 157.172 246.571 162.519 242.661 167.845C242.352 168.265 241.779 168.494 241.328 168.813C240.541 168.695 239.757 168.484 238.969 168.477C234.67 168.446 230.375 168.466 226.076 168.47V168.473Z" fill="#7A96BE"/>
<path d="M260.932 159.014C261.747 161.783 262.566 164.551 263.382 167.32C263.181 167.959 263.104 168.677 262.754 169.215C261.623 170.943 260.394 172.608 259.194 174.291C252.758 183.316 246.335 192.351 239.864 201.351C239.122 202.382 238.129 203.235 237.251 204.169C234.646 203.107 232.501 201.441 230.756 199.245C230.971 198.738 231.096 198.162 231.419 197.732C238.226 188.708 245.041 179.686 251.883 170.689C254.864 166.769 257.913 162.9 260.932 159.007V159.014Z" fill="#7A96BE"/>
<path d="M260.932 159.014C257.913 162.907 254.867 166.776 251.883 170.697C245.041 179.694 238.223 188.712 231.419 197.74C231.096 198.167 230.975 198.743 230.756 199.253C228.206 196.852 226.533 193.923 225.538 190.585C227.606 188.028 229.673 185.471 231.988 182.612H226.263C226.259 182.487 226.252 182.362 226.249 182.237C230.739 182.248 235.232 182.334 239.718 182.213C240.759 182.185 242.078 181.713 242.758 180.974C246.2 177.237 245.547 171.46 241.505 168.379C241.956 168.06 242.529 167.834 242.838 167.411C246.751 162.085 250.634 156.738 254.496 151.378C254.777 150.989 254.864 150.458 255.04 149.993C257.615 152.602 259.693 155.534 260.936 159.018L260.932 159.014Z" fill="#8BA5C8"/>
<path d="M246.366 205.493C244.746 205.479 243.125 205.469 241.505 205.455C241.228 205.271 240.95 205.087 240.606 204.858C240.971 204.269 241.3 203.661 241.699 203.106C247.681 194.814 253.659 186.521 259.669 178.246C261.078 176.303 262.594 174.436 264.058 172.538C264.36 178.752 263.67 184.814 261.317 190.622C258.451 197.704 253.993 203.189 246.366 205.49V205.493Z" fill="#7A96BE"/>
<path d="M264.058 172.542C262.591 174.444 261.078 176.31 259.669 178.25C253.66 186.522 247.681 194.818 241.7 203.11C241.301 203.665 240.971 204.273 240.607 204.862C240.95 205.091 241.228 205.275 241.505 205.459C241.384 205.49 241.262 205.522 241.144 205.553C239.847 205.091 238.549 204.633 237.251 204.175C238.129 203.242 239.122 202.389 239.864 201.358C246.332 192.358 252.758 183.322 259.194 174.298C260.394 172.615 261.623 170.95 262.754 169.222C263.108 168.684 263.181 167.962 263.382 167.327C263.607 169.065 263.833 170.807 264.058 172.546V172.542Z" fill="#8BA5C8"/>
<path d="M195.018 80.9202C195.018 77.9363 196.496 76.4385 199.452 76.4269C202.853 76.4165 206.249 76.4131 209.65 76.4061C210.885 76.2847 212.124 76.1667 213.359 76.0453C213.366 73.2869 213.373 70.5284 213.376 67.7665C213.505 67.6902 213.633 67.6173 213.758 67.541C213.751 69.9663 213.817 72.3917 213.709 74.8101C213.65 76.1667 214.181 76.4339 215.416 76.4304C226.554 76.3853 237.695 76.3957 248.833 76.3922C249.059 77.676 249.482 78.9598 249.485 80.2436C249.527 98.0501 249.513 115.857 249.513 133.663C237.463 133.674 225.413 133.684 213.359 133.694C212.571 133.708 211.784 133.726 210.996 133.74C210.545 133.729 210.09 133.719 209.639 133.708C206.388 133.705 203.137 133.698 199.886 133.694C198.838 133.694 197.79 133.694 196.742 133.694C194.99 133.864 195.004 132.726 195.004 131.467C195.022 114.615 195.018 97.7656 195.018 80.9133V80.9202ZM245.28 110.479C245.561 110.277 245.842 110.073 246.127 109.882C248.83 108.064 248.837 105.86 246.127 104.049C245.075 103.345 244 102.675 242.938 101.988C234.77 96.7074 226.606 91.423 218.439 86.1456C216.884 85.1394 215.056 85.1532 214.244 86.444C213.671 87.3565 213.612 88.5917 213.328 89.6847C211.357 90.2745 210.642 91.1489 210.639 93.1232C210.625 99.6289 210.632 106.138 210.632 112.644C210.632 117.092 210.632 121.544 210.632 125.992C210.632 129.843 212.766 131.217 216.1 129.375C225.194 124.354 234.253 119.271 243.306 114.181C244.697 113.4 245.606 112.238 245.277 110.482L245.28 110.479Z" fill="#FFA653"/>
<path d="M213.362 133.702C225.413 133.692 237.463 133.681 249.517 133.671C249.513 135.184 249.506 136.7 249.503 138.216C238.098 138.216 226.693 138.206 215.288 138.223C214.681 138.223 214.074 138.438 213.467 138.549C213.428 138.424 213.39 138.299 213.352 138.175C213.356 136.683 213.359 135.194 213.362 133.702Z" fill="#A1AEC8"/>
<path d="M184.623 68.6998C184.505 69.3 184.286 69.9003 184.283 70.5005C184.255 75.4553 184.266 80.4135 184.266 85.3682C184.266 87.2349 183.338 88.1937 181.483 88.2446C180.733 88.2273 179.98 88.1995 179.231 88.1995C160.099 88.1995 140.967 88.1787 121.835 88.2273C120.17 88.2307 119.66 87.745 119.674 86.0691C119.743 76.5309 119.712 66.9961 119.701 57.4579C119.691 49.6545 119.663 41.8547 119.642 34.0513C119.778 31.4976 119.871 31.3588 122.429 31.3588C142.456 31.3345 162.486 31.3414 182.513 31.2998C183.877 31.2998 184.328 31.7647 184.311 33.111C184.248 38.0172 184.279 42.9233 184.276 47.8295C184.276 49.9356 184.276 52.0382 184.273 54.1443C181.153 54.8556 178.034 55.5669 174.915 56.2747C174.769 54.6336 173.745 55.4385 172.861 55.4351V67.7976C173.745 67.3362 174.328 67.0343 174.911 66.7324C178.148 67.3882 181.386 68.0405 184.623 68.6963V68.6998Z" fill="#FFDAB9"/>
<path d="M199.879 69.499C199.879 71.2755 199.817 73.0555 199.896 74.8285C199.955 76.1921 199.105 76.0602 198.217 76.0949C197.27 76.1296 196.652 75.9492 196.749 74.8007C196.895 73.0485 196.982 71.2894 197.093 69.5337C198.023 69.5233 198.953 69.5129 199.882 69.499H199.879Z" fill="#2254B5"/>
<path d="M213.376 67.7695C213.369 70.5279 213.362 73.2864 213.359 76.0483C212.63 76.0483 211.902 76.0483 210.996 76.0483V68.1477C211.791 68.0228 212.582 67.8944 213.376 67.7695Z" fill="#0C2C7E"/>
<path d="M210.996 68.1484V76.049C211.902 76.049 212.63 76.049 213.359 76.049C212.124 76.1704 210.885 76.2884 209.65 76.4098C209.625 73.7624 209.601 71.115 209.577 68.4677C210.049 68.3636 210.524 68.256 210.996 68.1519V68.1484Z" fill="#727272"/>
<path d="M174.911 66.7361C174.328 67.038 173.745 67.3398 172.861 67.8013C172.861 66.3926 172.861 65.5148 172.861 64.6335C173.534 64.6335 174.207 64.6335 174.88 64.6335L174.901 64.623C174.904 65.3274 174.908 66.0317 174.911 66.7361Z" fill="#C03F3C"/>
<path d="M174.88 64.6338C174.207 64.6338 173.534 64.6338 172.861 64.6338C172.861 61.6117 172.861 58.593 172.861 55.4356C173.745 55.4391 174.769 54.6341 174.915 56.2753C174.904 59.0614 174.89 61.8476 174.88 64.6338Z" fill="#D84642"/>
<path d="M65.2511 155.137C68.2315 156.379 71.2328 156.362 74.3625 155.609C77.2597 154.912 80.2402 154.554 83.1825 154.048C83.7793 156.435 84.5183 158.798 84.9416 161.216C85.6807 165.439 83.644 169.339 80.1465 170.813C78.6753 171.039 77.2146 171.362 75.7365 171.476C69.1059 171.993 62.4684 172.455 55.8343 172.937C54.5366 172.937 53.2355 172.937 51.8337 172.937V176.018C51.5492 180.161 51.2647 184.3 50.9802 188.443C50.8934 189.137 50.8101 189.831 50.7234 190.525C50.7165 190.667 50.7061 190.809 50.6991 190.952C50.5707 192.027 50.4389 193.099 50.314 194.175C50.0884 196.122 49.8699 198.071 49.6513 200.021C48.2738 199.865 46.8963 199.709 45.5188 199.55C45.2656 199.095 44.8735 198.668 44.7798 198.183C44.3634 196 44.0338 193.804 43.673 191.614C43.5029 191.254 43.3295 190.896 43.156 190.535C43.1941 189.921 43.3503 189.283 43.2462 188.693C42.8923 186.649 42.4482 184.623 42.0353 182.59C41.6814 180.848 41.324 179.11 40.9666 177.357C39.6516 181.736 38.3782 185.98 37.1048 190.223C36.8758 190.802 36.6468 191.385 36.4178 191.965C35.5365 194.411 34.6587 196.854 33.7774 199.3C33.7357 199.407 33.6906 199.515 33.649 199.622C32.8544 199.636 32.0564 199.654 31.2618 199.668C30.6442 199.411 30.0266 199.157 29.4125 198.901C30.0093 196.357 30.6061 193.811 31.2063 191.267C31.3416 190.483 31.477 189.696 31.6123 188.911C31.6678 188.773 31.7198 188.634 31.7753 188.495C32.3895 185.14 33.0036 181.781 33.6178 178.426C33.8502 177.177 34.0827 175.928 34.3152 174.679C34.329 174.54 34.3395 174.401 34.3533 174.262C34.9432 171.344 35.6441 168.447 36.0812 165.508C36.4282 163.17 37.3234 161.383 39.5822 160.449C39.8528 160.331 40.12 160.214 40.3872 160.099C43.7007 159.676 47.0178 159.256 50.3313 158.833C53.801 158.534 57.2742 158.236 60.7439 157.937C63.6099 158.18 64.1616 157.833 64.5259 155.547C64.7688 155.415 65.0082 155.28 65.2511 155.148V155.137ZM56.9238 161.074C59.9702 160.96 63.0131 160.817 66.0595 160.751C67.0969 160.727 67.548 160.422 67.3329 159.71C66.455 159.946 65.6501 160.304 64.8243 160.359C62.1943 160.547 59.5573 160.619 56.9203 160.737H47.2121V161.071C50.4493 161.071 53.6865 161.071 56.9203 161.071L56.9238 161.074ZM71.8504 166.626C71.8366 166.494 71.8262 166.362 71.8123 166.233C65.5807 166.879 59.3491 167.524 53.1175 168.17L53.1522 168.534C59.3838 167.899 65.6154 167.264 71.8504 166.629V166.626Z" fill="#FFA653"/>
<path d="M50.3313 158.823C47.0143 159.246 43.7007 159.666 40.3872 160.089C37.2852 159.191 34.159 158.341 31.5984 156.21C34.0272 153.566 37.2748 152.925 40.5433 153.233C44.523 153.608 48.0344 155.274 50.3348 158.827L50.3313 158.823Z" fill="#F3847A"/>
<path d="M64.5259 155.537C64.165 157.82 63.6133 158.171 60.7439 157.928C62.0034 157.13 63.2629 156.335 64.5259 155.537Z" fill="#E67271"/>
<path d="M284.537 72.607C284.537 71.2781 284.571 69.9492 284.526 68.6203C284.495 67.7321 284.828 67.3365 285.73 67.399C286.57 67.4579 287.621 67.2047 287.639 68.5336C287.673 71.3648 287.673 74.1961 287.639 77.0239C287.621 78.3528 286.573 78.0995 285.73 78.1585C284.828 78.221 284.495 77.8289 284.523 76.9372C284.568 75.4938 284.533 74.0504 284.533 72.6035L284.537 72.607Z" fill="#F38479"/>
<path d="M287.638 64.9458C287.909 66.3233 287.049 66.3372 286.011 66.3927C284.7 66.4655 284.512 65.8445 284.509 64.7411C284.509 63.662 284.773 63.1901 285.956 63.2075C287.198 63.2283 287.833 63.61 287.638 64.9423V64.9458Z" fill="#F38479"/>
<path d="M103.758 58.3369C103.879 58.3647 104.004 58.3959 104.126 58.4237C104.126 72.4031 104.119 86.386 104.115 100.365C103.987 101.098 103.859 101.83 103.727 102.562C101.995 102.041 100.267 101.517 98.536 100.997C97.9496 100.782 97.3632 100.567 96.7803 100.352C94.6915 98.5196 94.5146 96.8541 95.611 94.2865C96.2737 92.7356 96.4125 90.9625 96.7838 89.2901C96.9815 88.4054 97.1724 87.5241 97.3667 86.6428C97.7206 85.0571 98.0745 83.4715 98.5152 81.5041C97.3597 81.1121 96.0586 80.6714 94.754 80.2308C94.6152 79.8664 94.355 79.5021 94.355 79.1378C94.355 72.2261 94.3862 65.318 94.4105 58.4063C97.5263 58.382 100.639 58.3612 103.754 58.3369H103.758Z" fill="#EAE7F9"/>
<path d="M34.3118 174.672C34.0794 175.921 33.8469 177.17 33.6144 178.419C31.7894 176.677 29.9678 174.932 28.1427 173.19C30.1968 173.687 32.2543 174.179 34.3084 174.675L34.3118 174.672Z" fill="#F2847A"/>
<path d="M34.3118 174.672C32.2578 174.18 30.2002 173.683 28.1462 173.187C25.7 172.046 23.2539 170.904 20.8077 169.763C21.2935 169.822 21.8174 169.784 22.2546 169.957C23.9895 170.651 25.7 171.411 27.421 172.146C29.7318 172.847 32.0392 173.552 34.35 174.252C34.3361 174.391 34.3257 174.53 34.3118 174.669V174.672Z" fill="#DDB6B3"/>
<path d="M66.3198 143.726C66.2088 143.611 66.0943 143.497 65.9833 143.382C65.7196 142.088 65.5634 140.763 65.1644 139.514C64.4566 137.3 64.1617 135.142 65.3032 132.987C66.6876 130.527 68.0755 128.071 69.4599 125.611C69.911 125.552 70.362 125.489 70.8096 125.427C70.3724 126.783 69.8034 128.119 69.5328 129.507C69.2829 130.777 69.0817 132.234 70.5841 132.998C72.0275 133.73 73.3147 132.956 74.0677 131.926C75.5007 129.965 76.6318 127.783 77.8843 125.69C78.2972 125.798 78.7101 125.906 79.123 126.013C79.0571 126.527 78.96 127.037 78.9253 127.554C78.6511 131.679 78.5956 135.763 81.5241 139.174C81.1632 141.141 80.8024 143.112 80.445 145.079C75.6741 145.287 70.938 145.117 66.3163 143.726H66.3198Z" fill="#5595E7"/>
<path d="M34.3499 174.256C32.0391 173.555 29.7317 172.851 27.4209 172.15C25.6895 167.4 25.8491 162.847 28.8504 158.597C29.3986 157.82 29.9711 157.056 30.5332 156.286C33.5484 157.671 36.5636 159.055 39.5787 160.439C37.32 161.373 36.4248 163.163 36.0778 165.498C35.6406 168.437 34.9363 171.338 34.3499 174.252V174.256Z" fill="#F3847A"/>
<path d="M81.5276 139.174C78.5957 135.763 78.6547 131.683 78.9288 127.557C78.9635 127.04 79.0572 126.53 79.1266 126.017C79.3556 126.01 79.595 125.958 79.817 125.999C83.7586 126.759 87.6967 127.557 91.6453 128.286C93.7583 128.674 95.8887 128.952 97.9116 129.264C98.3591 124.389 98.7963 119.875 99.1641 115.358C99.2023 114.9 98.9872 114.157 98.6575 113.98C97.0337 113.116 96.8186 111.447 96.1802 110.018C96.1108 109.626 96.0379 109.23 95.9269 108.619C96.9019 109.143 97.6374 109.539 98.373 109.934C98.5534 109.841 98.7304 109.744 98.9108 109.65C98.6714 109.077 98.4355 108.505 98.1961 107.932C97.8942 105.601 97.2627 103.252 98.5396 101C100.271 101.52 101.999 102.041 103.73 102.565C104.566 103.221 105.406 103.876 106.242 104.532C105.968 105.667 105.694 106.801 105.423 107.936H102.006C102.863 109.355 103.699 110.5 105.444 110.122C105.857 112.464 106.412 114.716 108.969 115.698C109.882 115.715 110.795 115.736 111.707 115.753C112.45 118.137 113.189 120.521 113.928 122.904C114.448 124.424 114.972 125.944 115.493 127.463C115.631 127.686 115.77 127.908 115.909 128.13C115.951 128.241 115.996 128.348 116.037 128.459C116.141 129.046 116.245 129.635 116.35 130.222C116.127 132.057 114.795 132.928 113.321 133.626C111.058 134.698 108.772 135.718 106.496 136.762C105.694 137.22 104.893 137.682 104.091 138.14C101.628 138.983 99.3168 139.042 97.4605 136.821C97.1031 136.44 96.8012 135.808 96.3814 135.718C93.5363 135.1 90.6807 134.521 87.8043 134.084C86.4823 133.882 85.0285 133.671 83.9599 134.916C83.4915 135.371 82.8669 135.746 82.5859 136.294C82.1174 137.196 81.8711 138.213 81.5311 139.181L81.5276 139.174ZM104.129 119.369C103.654 118.831 103.179 118.29 102.398 117.405C102.398 119.618 102.381 121.273 102.401 122.925C102.436 125.715 101.936 128.619 104.074 130.975C104.494 131.471 104.913 131.967 105.451 132.606C105.982 131.686 106.426 130.919 106.87 130.152C107.648 129.181 108.425 128.209 109.264 127.162C108.48 125.812 107.71 124.486 106.94 123.161C106.003 121.898 105.066 120.635 104.129 119.372V119.369Z" fill="#FE8662"/>
<path d="M98.1924 107.929C98.4318 108.501 98.6678 109.074 98.9072 109.646C98.7267 109.74 98.5498 109.837 98.3694 109.931C97.6338 109.535 96.8982 109.14 95.9232 108.616C96.0342 109.23 96.1036 109.622 96.173 110.014C93.4007 110.024 90.6319 110 87.8631 110.076C87.3704 110.09 86.8881 110.507 86.4023 110.739C85.7153 109.792 85.0526 108.807 83.6335 109.077C82.773 109.251 81.9126 109.424 80.8092 109.643C80.4171 109.268 79.7648 108.65 79.116 108.036C79.7891 108.005 80.4657 107.97 81.1388 107.939C86.8222 107.936 92.5021 107.932 98.1855 107.929H98.1924Z" fill="#80807F"/>
<path d="M86.4061 110.74C86.8919 110.507 87.3742 110.091 87.8669 110.077C90.6357 110.004 93.4045 110.025 96.1768 110.015C96.8153 111.444 97.0338 113.113 98.6577 113.977C98.9873 114.154 99.1989 114.897 99.1642 115.355C98.793 119.872 98.3593 124.386 97.9117 129.261C95.8888 128.949 93.7584 128.671 91.6454 128.283C87.6969 127.554 83.7622 126.756 79.8172 125.996C79.5951 125.954 79.3592 126.007 79.1267 126.013C78.7138 125.906 78.3009 125.798 77.888 125.691C77.8082 125.607 77.7596 125.507 77.7354 125.396C78.0858 123.3 78.4328 121.201 78.7832 119.105C79.2204 118.182 79.6576 117.259 80.0947 116.34C80.4244 115.511 80.754 114.681 81.094 113.821C81.5867 113.977 82.0586 114.123 82.527 114.272C85.2473 114.935 86.9023 113.429 86.4096 110.743L86.4061 110.74Z" fill="#FFB875"/>
<path d="M80.0945 116.339C79.6573 117.262 79.2201 118.185 78.783 119.104C78.3839 119.233 77.6518 119.333 77.6414 119.493C77.4957 121.46 76.3195 123.462 77.7386 125.398C77.7629 125.513 77.8114 125.61 77.8912 125.693C76.6352 127.786 75.5076 129.968 74.0746 131.928C73.3216 132.959 72.0344 133.733 70.591 133.001C69.0886 132.237 69.2898 130.78 69.5397 129.51C69.8138 128.119 70.3793 126.786 70.8165 125.43C72.7457 124.92 73.0163 124.399 72.711 121.793C70.473 121.419 69.5501 120.395 69.4252 117.474C69.335 115.371 69.6576 113.254 69.793 111.145C69.9005 111.037 70.0081 110.933 70.1156 110.826C71.1808 109.712 72.246 108.595 73.6513 107.127C74.1301 110.125 75.6186 111.797 77.2875 113.411C77.9086 114.011 78.1272 115.027 78.6268 116.051C78.8697 116.1 79.4838 116.218 80.098 116.339H80.0945Z" fill="#FE8662"/>
<path d="M86.406 110.739C86.8987 113.425 85.2437 114.931 82.5234 114.268C82.8947 113.845 83.5331 113.449 83.5852 112.988C83.7309 111.697 83.6372 110.382 83.6372 109.074C85.0528 108.807 85.7156 109.792 86.406 110.736V110.739Z" fill="#2E1B13"/>
<path d="M31.2689 199.66C32.0635 199.646 32.8615 199.629 33.6561 199.615C36.1161 200.33 38.5761 201.048 41.0361 201.763C39.8911 202.537 38.7496 203.31 37.6081 204.084C36.3173 203.425 35.0266 202.766 33.7324 202.103C33.5312 201.475 33.3299 200.847 33.1009 200.136C32.5492 199.993 31.9073 199.827 31.2689 199.66Z" fill="#D26460"/>
<path d="M278.642 56.64C278.638 55.9773 278.635 55.3112 278.631 54.6484C281.681 54.6484 284.731 54.6484 287.874 54.6484V56.64H278.642Z" fill="#DD4742"/>
<path d="M175.942 180.164C175.421 175.733 175.671 171.341 176.608 166.979C177.076 165.473 177.545 163.968 178.013 162.462C178.7 161.074 179.384 159.682 180.071 158.295C181.58 156.56 183.089 154.825 184.602 153.09C185.633 152.278 186.663 151.463 187.697 150.651C188.284 150.654 188.873 150.658 189.46 150.665C191.406 152.15 194.789 152.188 195.875 150.633C195.108 150.415 194.38 150.207 193.651 150.002C194.692 150.005 195.733 150.012 196.77 150.016C196.909 150.304 196.986 150.769 197.201 150.852C201.746 152.559 204.556 156.053 206.69 160.172C210.281 167.108 210.857 174.564 209.404 182.034C207.825 190.15 204.345 197.197 195.383 200.32H200.251C199.699 200.42 199.151 200.587 198.599 200.611C194.782 200.778 191.014 200.5 187.361 199.268C186.216 198.449 185.067 197.634 183.922 196.815C183.239 195.625 182.201 195.341 180.865 195.341C156.917 195.365 132.966 195.351 109.018 195.344C108.983 195.261 108.987 195.178 109.025 195.098C133.316 195.098 157.608 195.098 181.59 195.098C180.022 191.656 178.506 188.335 176.99 185.011C176.639 183.398 176.289 181.781 175.942 180.168V180.164ZM182.527 168.044C180.602 167.902 179.269 168.777 178.19 170.338C176.913 172.187 176.91 174.234 176.969 176.313C177.076 180.098 179.453 182.343 183.218 182.249C186.098 182.253 188.984 182.107 191.85 182.298C195.532 182.544 196.521 180.421 197.319 178.127C197.756 176.868 197.905 175.383 197.728 174.061C197.284 170.713 195.723 167.576 191.156 167.978C188.301 168.232 185.404 168.037 182.524 168.044H182.527Z" fill="#A0BCE3"/>
<path d="M109.021 195.098C108.983 195.178 108.98 195.261 109.014 195.344C109.008 195.83 108.997 196.312 108.99 196.794C109.091 197.579 109.216 198.359 109.289 199.147C109.358 199.9 109.455 200.715 108.275 200.639C106.423 200.375 104.566 200.111 102.713 199.848C101.503 199.657 100.878 199.036 100.861 197.721C100.85 196.843 100.548 195.969 100.378 195.091L100.229 195.084C99.0911 189.647 97.9565 184.21 96.8185 178.773C96.8532 178.662 96.8844 178.554 96.9191 178.443C98.1265 178.454 99.334 178.422 100.538 178.488C101.607 178.547 102.141 178.228 102.082 177.045C102.009 175.497 102.013 173.939 102.082 172.392C102.138 171.139 101.541 170.786 100.41 170.827C99.0911 170.876 97.7657 170.862 96.4437 170.827C95.4098 170.799 94.7505 170.487 94.813 169.179C94.8616 168.121 94.5111 167.045 94.3376 165.98C94.0011 163.319 93.6645 160.657 93.3245 157.996C92.6999 154.52 92.0788 151.043 91.3953 147.24C90.972 149.034 90.6146 150.557 90.2538 152.08C90.1428 152.896 90.0317 153.708 89.9207 154.523C89.5772 158.204 89.2372 161.886 88.8937 165.567V170.81H80.1431C83.6405 169.335 85.6738 165.432 84.9382 161.213C84.5149 158.794 83.7758 156.431 83.1791 154.044C81.3852 151.324 80.379 148.364 80.4415 145.075C80.8023 143.108 81.1632 141.137 81.5205 139.17C81.8606 138.201 82.1104 137.185 82.5753 136.283C82.8598 135.735 83.4809 135.36 83.9528 134.905C84.8861 135.193 85.8299 135.443 86.7424 135.773C90.226 137.039 93.8172 137.147 97.4534 136.807C99.3097 139.027 101.617 138.968 104.084 138.125C104.556 140.897 105.26 143.652 105.455 146.442C105.954 153.621 106.228 160.817 106.593 168.006C107.019 172.552 107.443 177.097 107.869 181.642C107.98 183.009 108.092 184.376 108.199 185.743C108.473 188.859 108.744 191.975 109.018 195.091L109.021 195.098Z" fill="#2254B5"/>
<path d="M196.767 150.016C195.726 150.012 194.685 150.005 193.648 150.002C192.249 150.224 190.854 150.443 189.456 150.665C188.87 150.661 188.28 150.658 187.694 150.651C190.546 147.542 194.064 145.627 198.189 144.804C198.748 144.777 199.307 144.752 199.862 144.725C200.549 144.756 201.239 144.787 201.926 144.818C212.405 147.355 216.957 155.234 219.344 164.714C222.241 176.216 220.895 187.242 214.195 197.273C211.503 201.305 207.693 204.011 203.033 205.462C201.617 205.49 200.202 205.517 198.79 205.549C194.06 205.122 190.306 202.925 187.354 199.265C191.007 200.497 194.775 200.774 198.592 200.608C199.147 200.583 199.695 200.417 200.243 200.316C200.979 200.198 201.742 200.167 202.447 199.945C207.533 198.363 210.351 194.404 212.256 189.848C216.156 180.511 216.291 170.952 212.634 161.521C209.993 154.707 205.306 149.055 196.763 150.009L196.767 150.016Z" fill="#7A96BE"/>
<path d="M108.99 196.799C108.997 196.316 109.007 195.83 109.014 195.348C132.962 195.355 156.914 195.369 180.862 195.345C182.197 195.345 183.235 195.629 183.918 196.819C158.94 196.812 133.965 196.809 108.987 196.802L108.99 196.799Z" fill="#757576"/>
<path d="M109.629 204.029C107.085 204.063 104.542 204.095 102.002 204.129C101.687 202.971 101.374 201.812 101.059 200.653C101.274 200.642 101.492 200.635 101.707 200.625C103.321 201.236 104.934 201.846 106.548 202.454C106.981 202.544 107.432 202.762 107.842 202.7C108.938 202.533 109.369 203.137 109.632 204.029H109.629Z" fill="#FFA653"/>
<path d="M106.544 202.454C104.931 201.844 103.317 201.233 101.707 200.626C102.044 200.369 102.38 200.112 102.717 199.855C104.57 200.119 106.426 200.383 108.279 200.647C108.553 201.174 108.831 201.701 109.226 202.458H106.548L106.544 202.454Z" fill="#FB8661"/>
<path d="M241.502 168.378C245.547 171.459 246.196 177.233 242.754 180.973C242.074 181.712 240.756 182.184 239.715 182.212C235.228 182.333 230.735 182.247 226.245 182.236C227.092 177.504 227.036 172.771 226.245 168.038C230.544 168.038 234.84 168.014 239.139 168.045C239.926 168.052 240.714 168.264 241.498 168.382L241.502 168.378ZM237.165 173.229C238.316 173.229 239.468 173.184 240.617 173.239C242.331 173.319 241.79 172.067 241.849 171.203C241.911 170.287 242.053 169.329 240.554 169.388C238.427 169.475 236.29 169.503 234.167 169.378C232.713 169.294 232.512 169.905 232.442 171.175C232.352 172.865 232.925 173.461 234.576 173.25C235.426 173.142 236.301 173.229 237.165 173.229ZM229.635 173.187C231.037 173.423 231.936 173.274 231.859 171.425C231.797 169.929 231.54 169.263 229.868 169.364C228.476 169.447 227.498 169.364 227.571 171.303C227.633 172.917 228.06 173.555 229.635 173.187Z" fill="#D3DBE6"/>
<path d="M201.93 144.823C201.243 144.791 200.552 144.76 199.865 144.729C199.869 143.695 199.876 142.658 199.876 141.624C199.876 139.551 198.839 138.524 196.767 138.542C194.796 138.428 192.822 138.313 190.851 138.195C192.815 138.182 194.779 138.171 196.746 138.157C197.794 138.157 198.838 138.154 199.886 138.15C203.088 138.171 206.291 138.189 209.494 138.209C209.521 140.399 209.546 142.588 209.573 144.778C207.027 144.795 204.48 144.809 201.933 144.826L201.93 144.823Z" fill="#EFF6FF"/>
<path d="M225.541 190.581C225.302 190.13 225.066 189.679 224.826 189.228C225.305 187.021 225.784 184.814 226.263 182.607C227.984 182.607 229.701 182.607 231.988 182.607C229.673 185.466 227.605 188.024 225.537 190.581H225.541Z" fill="#7A97BE"/>
<path d="M213.352 138.174C213.39 138.299 213.428 138.424 213.466 138.549C213.453 140.977 213.442 143.403 213.428 145.831C212.616 145.585 211.808 145.339 210.996 145.092C210.986 142.795 210.975 140.495 210.965 138.198C211.759 138.191 212.554 138.184 213.349 138.177L213.352 138.174Z" fill="#0C2C7E"/>
<path d="M210.968 138.196C210.979 140.492 210.989 142.793 211 145.09C210.524 144.986 210.049 144.882 209.573 144.774C209.546 142.585 209.521 140.395 209.494 138.206C209.553 138.206 209.612 138.196 209.667 138.182C210.094 138.192 210.521 138.199 210.947 138.209L210.972 138.196H210.968Z" fill="#727272"/>
<path d="M94.3375 165.984C94.511 167.053 94.8615 168.128 94.8129 169.183C94.7505 170.491 95.4097 170.804 96.4437 170.831C97.7656 170.866 99.0876 170.876 100.41 170.831C101.541 170.79 102.137 171.147 102.082 172.396C102.016 173.944 102.009 175.502 102.082 177.049C102.137 178.232 101.607 178.551 100.538 178.492C99.3339 178.427 98.1265 178.458 96.919 178.447C93.6263 178.558 90.3335 178.649 87.0442 178.808C86.7077 178.826 86.3919 179.242 86.0658 179.471C85.6876 179.152 85.3094 178.555 84.9347 178.555C82.1658 178.562 79.3935 178.687 76.6247 178.777C75.2576 178.676 73.8941 178.576 72.527 178.475C69.1683 178.482 65.8096 178.489 62.451 178.496C61.3719 178.489 60.2928 178.479 59.2103 178.479C57.0845 178.479 55.9372 177.428 55.7683 175.328C55.7926 174.53 55.8134 173.732 55.8377 172.934C62.4718 172.452 69.1059 171.994 75.7399 171.473C77.218 171.359 78.6822 171.036 80.1499 170.811C82.9569 170.811 85.7639 170.811 88.9005 170.811C88.9005 168.975 88.9005 167.271 88.9005 165.568C88.9734 166.883 89.0011 168.201 89.1434 169.509C89.1954 169.974 89.5251 170.412 89.7298 170.859C89.9206 170.387 90.2676 169.919 90.2711 169.447C90.3127 164.95 90.3058 160.45 90.278 155.953C90.278 155.474 90.0455 154.999 89.9206 154.524C90.0317 153.708 90.1427 152.896 90.2537 152.081C90.3717 152.681 90.5833 153.278 90.5903 153.882C90.6215 157.286 90.6076 160.689 90.6076 164.093C90.6076 166.272 90.6076 168.451 90.6076 170.79H92.9948C94.0183 170.897 94.0287 170.238 94.06 169.489C94.1051 168.319 94.2439 167.153 94.341 165.984H94.3375Z" fill="#7F7F7F"/>
<path d="M76.6249 178.777C79.3938 178.687 82.1661 178.562 84.9349 178.555C85.3096 178.555 85.6878 179.151 86.066 179.471C86.6593 181.33 87.2561 183.19 87.8494 185.05C87.3324 189.779 86.7981 194.508 86.3158 199.245C86.2256 200.129 85.8266 200.431 85.0077 200.344C83.0682 199.949 81.1286 199.553 79.1891 199.154C77.6381 198.696 77.2321 197.628 77.2044 196.066C77.128 192.045 76.8678 188.024 76.6804 184.006C76.67 183.423 76.6596 182.843 76.6458 182.26C76.6388 181.098 76.6284 179.939 76.6215 178.777H76.6249Z" fill="#2254B5"/>
<path d="M96.8219 178.781C97.96 184.218 99.0946 189.655 100.233 195.092C99.9134 194.759 99.3999 194.474 99.2993 194.082C98.0086 189.096 96.7803 184.096 95.4861 178.906C95.9857 178.857 96.4055 178.819 96.8219 178.777V178.781Z" fill="#E4E2F4"/>
<path d="M102.714 199.857C102.377 200.113 102.04 200.37 101.704 200.627C101.489 200.637 101.27 200.644 101.055 200.655C100.542 198.84 99.5145 197.084 100.378 195.1C100.548 195.977 100.85 196.852 100.861 197.73C100.878 199.041 101.503 199.666 102.714 199.857Z" fill="#4C4A4D"/>
<path d="M55.7687 175.331C55.9375 177.429 57.0848 178.479 59.2106 178.482C60.2897 178.482 61.3688 178.492 62.4513 178.499C62.3195 179.179 62.1876 179.856 62.0523 180.536C61.9205 180.643 61.7574 180.73 61.6568 180.862C59.169 184.182 55.9595 186.646 52.3822 188.658C51.9555 188.898 51.2615 189.668 50.9805 188.44C51.265 184.297 51.5495 180.157 51.834 176.015C53.1456 175.786 54.4536 175.557 55.7652 175.331H55.7687Z" fill="#F0706B"/>
<path d="M49.6512 200.019C49.8732 198.069 50.0918 196.122 50.3139 194.172C50.4388 193.097 50.5706 192.025 50.699 190.949C53.6969 190.595 56.6981 190.238 59.696 189.884C58.9673 192.83 58.2005 195.765 57.5343 198.721C57.2949 199.783 56.8682 200.584 55.855 201.025C54.2451 201.358 52.6386 201.695 51.0286 202.028C50.5672 201.358 50.1092 200.688 49.6477 200.019H49.6512Z" fill="#D3625E"/>
<path d="M76.6492 182.261C76.6596 182.844 76.67 183.423 76.6839 184.006C75.8858 185.852 75.0878 187.698 74.2898 189.544C73.006 190.97 71.7257 192.399 70.4419 193.825C68.3809 195.165 66.3198 196.504 64.2588 197.843C64.1721 197.527 63.9153 197.132 64.0194 196.903C65.56 193.51 67.1491 190.14 68.7244 186.764C71.2538 185.394 73.7867 184.023 76.3161 182.653C76.4271 182.524 76.5381 182.393 76.6492 182.264V182.261Z" fill="#D3625E"/>
<path d="M50.9838 188.44C51.2614 189.668 51.9553 188.898 52.3856 188.659C55.9628 186.646 59.1723 184.183 61.6601 180.862C61.7607 180.73 61.9238 180.644 62.0556 180.536C61.275 183.423 60.4908 186.313 59.7101 189.2C56.7158 189.641 53.7214 190.081 50.7271 190.522C50.8138 189.828 50.8971 189.134 50.9838 188.44Z" fill="#D3625E"/>
<path d="M76.6492 182.261C76.5382 182.389 76.4271 182.521 76.3161 182.649C75.6881 182.868 75.0323 183.024 74.439 183.315C72.6452 184.2 70.8791 185.137 69.0991 186.05C70.2407 183.524 71.3822 180.998 72.5237 178.472C73.8908 178.572 75.2544 178.673 76.6214 178.774C76.6284 179.936 76.6353 181.095 76.6457 182.257L76.6492 182.261Z" fill="#D3625E"/>
<path d="M64.2589 197.842C66.3199 196.503 68.3809 195.164 70.4419 193.821C71.1532 193.432 71.8645 193.044 72.5723 192.655C69.7376 196.906 66.1013 200.247 61.4589 202.443C62.3922 200.91 63.3256 199.376 64.2589 197.842Z" fill="#D36460"/>
<path d="M51.0322 202.027C52.6422 201.694 54.2486 201.358 55.8586 201.024C56.1327 201.274 56.6705 201.569 56.6393 201.767C56.4762 202.77 56.1604 203.745 55.9002 204.73C54.6303 204.98 53.3639 205.233 52.094 205.483C51.7435 204.564 51.3896 203.644 51.0357 202.728C51.0357 202.496 51.0357 202.26 51.0322 202.027Z" fill="#D3635F"/>
<path d="M50.7269 190.521C53.7213 190.081 56.7156 189.64 59.71 189.199C59.71 189.428 59.703 189.654 59.6996 189.883C56.7018 190.237 53.7005 190.594 50.7026 190.948C50.7096 190.806 50.72 190.663 50.7269 190.521Z" fill="#C29391"/>
<path d="M69.1025 186.053C70.879 185.137 72.6486 184.2 74.4424 183.319C75.0322 183.027 75.6915 182.871 76.3195 182.652C73.7901 184.023 71.2572 185.393 68.7278 186.767C68.8527 186.531 68.9776 186.292 69.106 186.056L69.1025 186.053Z" fill="#C19896"/>
<path d="M86.4372 203.766C81.4478 203.766 76.4584 203.772 71.4655 203.776C73.7589 202.627 76.0559 201.479 78.3528 200.334C79.7962 201.639 81.4582 202.395 83.429 202.409C84.2895 202.416 85.15 202.475 86.0105 202.509C86.1527 202.929 86.295 203.346 86.4372 203.766Z" fill="#FFA653"/>
<path d="M86.0104 202.509C85.1499 202.474 84.2894 202.415 83.429 202.408C81.4547 202.391 79.7927 201.638 78.3528 200.333C78.6338 199.941 78.9114 199.549 79.1924 199.157C81.132 199.553 83.0716 199.948 85.0111 200.347C85.3442 201.069 85.6773 201.791 86.0104 202.512V202.509Z" fill="#FC8662"/>
<path d="M72.5723 192.656C71.861 193.045 71.1497 193.433 70.4419 193.822C71.7257 192.396 73.006 190.97 74.2898 189.544C73.7173 190.581 73.1448 191.619 72.5723 192.66V192.656Z" fill="#C4A09E"/>
<path d="M43.6767 191.607C44.0376 193.8 44.3672 195.997 44.7836 198.176C44.8773 198.661 45.2659 199.088 45.5226 199.543C45.2763 199.9 45.0265 200.257 44.7801 200.615C43.6316 200.944 42.4832 201.274 41.3347 201.607C38.8192 200.833 36.3036 200.063 33.7881 199.289C34.6694 196.843 35.5472 194.401 36.4285 191.954C38.8469 191.84 41.2618 191.722 43.6802 191.607H43.6767Z" fill="#D3625E"/>
<path d="M44.7764 200.618C45.0228 200.261 45.2726 199.903 45.5189 199.546C46.8964 199.702 48.2739 199.858 49.6514 200.018C50.1128 200.687 50.5708 201.357 51.0323 202.027C51.0323 202.259 51.0323 202.495 51.0358 202.728C48.4439 203.526 46.6917 201.829 44.7729 200.618H44.7764Z" fill="#FD8662"/>
<path d="M33.7843 199.29C36.2998 200.064 38.8153 200.838 41.3309 201.608C41.2511 201.691 41.1504 201.74 41.0359 201.76C38.5759 201.046 36.1159 200.327 33.6559 199.613C33.6975 199.505 33.7426 199.398 33.7843 199.29Z" fill="#BF9C9B"/>
<path d="M115.912 128.122C115.774 127.9 115.635 127.678 115.496 127.456C115.51 120.863 115.524 114.274 115.538 107.682C115.565 107.057 115.597 106.436 115.631 105.69C116.239 105.645 116.742 105.576 117.241 105.576C123.528 105.569 129.819 105.621 136.106 105.538C137.751 105.517 138.167 106.096 138.15 107.651C138.077 113.705 138.119 119.763 138.119 125.822C138.119 128.184 138.119 128.136 135.818 128.129C129.184 128.105 122.55 128.118 115.916 128.118L115.912 128.122Z" fill="#FFDAB9"/>
<path d="M115.895 164.225C115.902 157.466 115.95 150.71 115.881 143.951C115.867 142.494 116.148 141.935 117.754 141.96C124.108 142.053 130.461 142.029 136.814 141.97C138.101 141.96 138.5 142.328 138.489 143.632C138.43 150.1 138.444 156.571 138.479 163.038C138.486 164.107 138.254 164.731 137.053 164.565C130.599 164.565 124.146 164.565 117.692 164.541C117.092 164.541 116.495 164.332 115.895 164.221V164.225Z" fill="#FFDAB9"/>
<path d="M108.206 185.751C108.095 184.384 107.984 183.017 107.877 181.65C107.734 180.04 108.806 180.158 109.899 180.158C131.915 180.172 153.926 180.169 175.942 180.169C176.292 181.782 176.643 183.399 176.99 185.012C176.313 185.248 175.636 185.692 174.96 185.696C152.709 185.741 130.457 185.744 108.206 185.751Z" fill="#2254B5"/>
<path d="M196.746 138.154C194.782 138.168 192.818 138.178 190.851 138.192C190.629 137.502 190.213 136.815 190.209 136.124C190.174 118.45 190.195 100.775 190.157 83.1002C190.154 81.4278 190.785 80.7686 192.416 80.9039C193.276 80.9733 194.147 80.9177 195.015 80.9212C195.015 97.7736 195.018 114.622 195.001 131.475C195.001 132.734 194.987 133.872 196.739 133.702C196.739 135.187 196.739 136.672 196.739 138.154H196.746Z" fill="#959EC4"/>
<path d="M119.639 34.0525C119.659 41.8558 119.691 49.6557 119.698 57.4591C119.708 66.9973 119.739 76.5355 119.67 86.0703C119.656 87.7461 120.166 88.2319 121.832 88.2284C140.963 88.1764 160.095 88.1972 179.227 88.2007C179.977 88.2007 180.73 88.2319 181.479 88.2458C181.809 89.9529 181.07 90.3692 179.411 90.3623C159.294 90.3068 139.173 90.3033 119.056 90.3519C117.439 90.3554 116.887 89.9876 116.894 88.2701C116.957 70.8695 116.932 53.4689 116.932 36.0649C116.932 33.7992 117.404 33.4522 119.632 34.049L119.639 34.0525Z" fill="#AFB7D9"/>
<path d="M142.292 121.77C142.292 120.348 142.216 118.856 142.344 117.381C142.376 117.006 143 116.59 143.441 116.371C143.767 116.208 144.235 116.33 144.638 116.33C157.819 116.33 170.997 116.33 184.179 116.33C186.632 116.33 186.708 116.392 186.684 118.876C186.649 122.356 187.163 121.864 183.634 121.874C175.657 121.898 167.68 121.846 159.7 121.895C156.129 121.916 152.559 122.18 148.989 122.193C146.879 122.2 144.766 121.937 142.289 121.767L142.292 121.77Z" fill="#0C2C7E"/>
<path d="M164.415 130.902C157.591 130.902 150.769 130.874 143.944 130.926C142.678 130.937 142.22 130.61 142.251 129.278C142.362 124.747 141.776 125.364 146.092 125.354C155.807 125.33 165.522 125.347 175.237 125.347C178.409 125.347 181.58 125.395 184.748 125.326C186.115 125.295 186.729 125.652 186.719 127.165C186.694 130.895 186.76 130.898 182.975 130.898C176.788 130.898 170.602 130.898 164.412 130.898L164.415 130.902Z" fill="#0C2C7E"/>
<path d="M184.599 153.094C183.089 154.829 181.58 156.564 180.067 158.299C168.235 158.299 156.4 158.281 144.569 158.337C143.035 158.344 142.56 157.83 142.598 156.331C142.698 152.334 142.227 152.764 146.088 152.761C158.267 152.754 170.446 152.754 182.624 152.771C183.284 152.771 183.939 152.98 184.599 153.094Z" fill="#0C2C7E"/>
<path d="M178.013 162.466C177.545 163.971 177.076 165.477 176.608 166.983C175.935 167.098 175.265 167.313 174.592 167.316C164.648 167.337 154.704 167.295 144.763 167.365C143.087 167.375 142.546 166.865 142.595 165.189C142.692 161.779 142.612 161.779 145.971 161.779C156.029 161.779 166.088 161.765 176.147 161.806C176.771 161.806 177.392 162.237 178.013 162.466Z" fill="#0C2C7E"/>
<path d="M158.066 113.2C153.503 113.2 148.944 113.148 144.381 113.227C142.851 113.255 142.195 112.877 142.244 111.205C142.337 108.016 142.244 108.002 145.262 107.419C145.821 107.312 146.407 107.315 146.983 107.312C151.373 107.305 155.758 107.263 160.147 107.318C164.29 107.374 168.433 107.558 172.576 107.627C173.558 107.645 173.884 107.995 173.867 108.953C173.79 113.966 174.422 113.141 169.842 113.189C165.918 113.227 161.99 113.196 158.062 113.196L158.066 113.2Z" fill="#0C2C7E"/>
<path d="M158.413 143.737C163.152 143.737 167.892 143.768 172.631 143.712C173.825 143.698 174.224 144.049 174.227 145.277C174.245 149.288 174.29 149.288 170.241 149.288C161.743 149.288 153.246 149.246 144.749 149.323C143.059 149.337 142.539 148.799 142.591 147.137C142.709 143.407 142.268 143.74 145.922 143.737C150.085 143.737 154.245 143.737 158.409 143.737H158.413Z" fill="#0C2C7E"/>
<path d="M104.115 100.366C104.115 86.3862 104.122 72.4033 104.126 58.4238C105.052 58.4238 105.975 58.4308 106.902 58.4342C106.898 72.2957 106.891 86.1607 106.888 100.022C105.965 100.137 105.042 100.255 104.115 100.369V100.366Z" fill="#2254B5"/>
<path d="M111.707 115.75C110.794 115.732 109.882 115.712 108.969 115.694C108.99 115.503 109.108 115.212 109.021 115.132C105.663 111.971 105.732 104.768 109.989 102.131C112.55 101.992 113.952 103.054 114.791 105.809C114.975 106.409 115.079 107.037 115.218 107.651C115.215 109.938 115.118 112.204 113.799 114.202C113.102 114.716 112.404 115.233 111.707 115.746V115.75ZM110.367 107.655C109.608 109.747 109.871 110.278 111.724 110.399C112.97 110.219 113.393 109.483 112.942 108.359C112.425 107.065 111.474 106.982 110.364 107.655H110.367Z" fill="#808080"/>
<path d="M115.895 164.225C116.495 164.336 117.092 164.544 117.692 164.544C124.146 164.572 130.6 164.565 137.053 164.568C137.053 165.075 137.053 165.578 137.053 166.154C136.519 166.216 136.13 166.303 135.742 166.303C129.215 166.31 122.692 166.279 116.166 166.334C114.882 166.345 114.476 165.984 114.49 164.676C114.549 158.267 114.507 151.855 114.531 145.447C114.531 144.902 114.771 144.361 114.899 143.819C115.083 143.833 115.267 143.851 115.451 143.864C115.496 144.444 115.576 145.023 115.576 145.599C115.586 151.199 115.576 156.803 115.597 162.403C115.597 163.01 115.791 163.614 115.895 164.221V164.225Z" fill="#B1B8DA"/>
<path d="M106.6 168.011C106.235 160.821 105.961 153.625 105.462 146.446C105.267 143.657 104.563 140.902 104.091 138.129C104.893 137.671 105.694 137.21 106.496 136.752C106.627 137.227 106.874 137.703 106.874 138.181C106.895 147.692 106.895 157.199 106.877 166.709C106.877 167.143 106.697 167.577 106.596 168.011H106.6Z" fill="#2254B5"/>
<path d="M116.353 130.215C116.249 129.629 116.145 129.039 116.041 128.452C122.383 128.456 128.726 128.452 135.068 128.48C135.721 128.48 136.821 128.109 136.654 129.341C136.605 129.695 135.603 130.16 135.03 130.167C128.806 130.229 122.577 130.212 116.349 130.215H116.353Z" fill="#B0B7D9"/>
<path d="M113.799 114.202C115.118 112.204 115.215 109.938 115.218 107.651C115.326 107.651 115.43 107.662 115.534 107.683C115.52 114.275 115.506 120.864 115.493 127.456C114.972 125.937 114.448 124.417 113.928 122.897C114.007 121.037 114.143 119.181 114.146 117.321C114.146 116.281 113.921 115.24 113.799 114.202Z" fill="#B8BEDC"/>
<path d="M196.767 138.538C200.5 132.723 199.876 139.547 199.876 141.619C199.876 142.653 199.869 143.691 199.865 144.725C199.306 144.752 198.748 144.777 198.193 144.804C197.426 144.777 196.69 144.804 196.742 143.642C196.819 141.942 196.763 139.922 196.767 138.222V138.538Z" fill="#2254B5"/>
<path d="M109.989 102.131C105.732 104.764 105.663 111.971 109.021 115.132C109.105 115.212 108.99 115.5 108.969 115.694C106.409 114.712 105.854 112.46 105.444 110.118C105.437 109.389 105.43 108.661 105.423 107.932C105.697 106.798 105.972 105.663 106.242 104.528C106.461 104.188 106.679 103.852 106.901 103.512C107.932 103.054 108.962 102.592 109.993 102.134L109.989 102.131Z" fill="#565554"/>
<path d="M106.898 103.512C106.68 103.852 106.457 104.188 106.239 104.528C105.403 103.872 104.563 103.217 103.727 102.561C103.855 101.829 103.984 101.097 104.115 100.365C105.038 100.25 105.961 100.132 106.888 100.018C106.891 101.183 106.898 102.346 106.902 103.512H106.898Z" fill="#2254B5"/>
<path d="M69.144 73.2979C70.1155 74.0473 71.0836 74.7933 72.2529 75.6954C71.153 76.5594 70.1502 77.347 69.1509 78.1312C69.0677 78.0444 68.9844 77.9542 68.9011 77.8675C69.6436 77.1943 70.3862 76.5212 71.2744 75.7197C70.4278 74.9425 69.6749 74.2486 68.9219 73.5546C68.9983 73.4679 69.0711 73.3846 69.1475 73.2979H69.144Z" fill="#D7D3EB"/>
<path d="M74.5883 75.7398C73.3496 76.6592 72.4197 77.3497 71.4898 78.0402L71.24 77.7314C71.9964 77.1207 72.7493 76.5066 73.6445 75.7849C72.8152 75.025 72.045 74.3207 71.2747 73.6198C71.358 73.5192 71.4412 73.4185 71.5245 73.3145C72.4509 74.0466 73.3773 74.7821 74.5883 75.7398Z" fill="#EFF6FF"/>
<path d="M213.328 89.6816C213.616 88.5886 213.671 87.3534 214.244 86.4409C215.056 85.1502 216.884 85.1398 218.439 86.1425C226.606 91.4199 234.774 96.7043 242.938 101.985C244 102.672 245.076 103.342 246.127 104.046C248.833 105.861 248.83 108.061 246.127 109.879C245.839 110.073 245.561 110.278 245.28 110.476C244.562 110.84 243.83 111.183 243.129 111.575C235.079 116.093 227.04 120.628 218.987 125.139C215.566 127.054 213.37 125.77 213.366 121.884C213.352 111.149 213.338 100.413 213.328 89.6781V89.6816Z" fill="#0C2C7E"/>
<path d="M213.328 89.6826C213.342 100.418 213.352 111.153 213.366 121.888C213.373 125.774 215.566 127.058 218.987 125.143C227.04 120.632 235.079 116.097 243.129 111.58C243.83 111.184 244.562 110.844 245.28 110.48C245.61 112.239 244.697 113.398 243.309 114.179C234.257 119.269 225.198 124.352 216.104 129.373C212.766 131.215 210.635 129.841 210.635 125.99C210.635 121.541 210.635 117.09 210.635 112.642C210.635 106.136 210.628 99.6268 210.642 93.1211C210.646 91.1468 211.36 90.2725 213.331 89.6826H213.328Z" fill="#8289B4"/>
<path d="M209.49 138.205C206.288 138.184 203.085 138.167 199.883 138.146C199.883 136.664 199.883 135.183 199.883 133.701C203.134 133.705 206.385 133.712 209.636 133.715C209.643 135.204 209.653 136.692 209.66 138.181C209.605 138.194 209.546 138.201 209.487 138.205H209.49Z" fill="#959EC4"/>
<path d="M199.886 133.701C199.886 135.183 199.886 136.664 199.886 138.146C198.842 138.146 197.794 138.149 196.746 138.153C196.746 136.668 196.746 135.183 196.746 133.701C197.794 133.701 198.842 133.701 199.889 133.701H199.886Z" fill="#A1AEC8"/>
<path d="M213.352 138.174C212.558 138.181 211.763 138.188 210.968 138.194C210.968 138.194 210.944 138.212 210.944 138.208C210.961 136.72 210.979 135.235 211 133.746C211.787 133.732 212.575 133.715 213.362 133.701C213.359 135.193 213.356 136.682 213.352 138.174Z" fill="#0A1B48"/>
<path d="M211 133.747C210.982 135.236 210.965 136.721 210.944 138.209C210.517 138.199 210.09 138.192 209.664 138.181C209.657 136.693 209.646 135.204 209.639 133.716C210.09 133.726 210.545 133.737 210.996 133.747H211Z" fill="#494F5A"/>
<path d="M37.1082 190.216C38.3815 185.973 39.6549 181.729 40.9699 177.351C41.3273 179.103 41.6847 180.845 42.0386 182.583C42.4515 184.616 42.8956 186.642 43.2495 188.686C43.3536 189.276 43.1975 189.914 43.1593 190.529C41.1434 190.424 39.1241 190.32 37.1082 190.216Z" fill="#F0706B"/>
<path d="M55.7683 175.332C54.4568 175.561 53.1487 175.79 51.8372 176.016C51.8372 175.062 51.8372 174.104 51.8372 172.935C53.2389 172.935 54.5366 172.935 55.8377 172.935C55.8134 173.733 55.7926 174.531 55.7683 175.329V175.332Z" fill="#E47272"/>
<path d="M37.1083 190.216C39.1242 190.32 41.1436 190.425 43.1595 190.529C43.333 190.889 43.503 191.247 43.6765 191.608C41.2581 191.722 38.8432 191.84 36.4248 191.955C36.6538 191.375 36.8828 190.792 37.1118 190.213L37.1083 190.216Z" fill="#ED726E"/>
<path d="M71.8506 166.626C65.619 167.261 59.3874 167.896 53.1524 168.531L53.1177 168.167C59.3493 167.521 65.5809 166.876 71.8125 166.23C71.8263 166.362 71.8367 166.494 71.8506 166.623V166.626Z" fill="#0C2C7E"/>
<path d="M56.9238 160.742C59.5573 160.624 62.1978 160.548 64.8278 160.364C65.6536 160.305 66.4586 159.951 67.3364 159.715C67.5481 160.423 67.097 160.731 66.063 160.756C63.0166 160.822 59.9702 160.967 56.9273 161.078C56.9273 160.967 56.9273 160.856 56.9273 160.745L56.9238 160.742Z" fill="#0C2C7E"/>
<path d="M56.9239 160.741C56.9239 160.852 56.9239 160.963 56.9239 161.074C53.6901 161.074 50.4529 161.074 47.2191 161.074V160.741H56.9239Z" fill="#0C2C7E"/>
<path d="M106.87 130.149C106.426 130.915 105.982 131.682 105.451 132.602C104.913 131.963 104.494 131.467 104.074 130.971C104.091 127.102 104.112 123.237 104.129 119.368C105.066 120.631 106.003 121.894 106.94 123.157C106.915 125.489 106.895 127.817 106.87 130.145V130.149Z" fill="#2254B5"/>
<path d="M97.4603 136.813C93.8241 137.153 90.2329 137.042 86.7494 135.779C85.8333 135.446 84.8896 135.2 83.9597 134.912C85.0284 133.666 86.4822 133.878 87.8041 134.079C90.6805 134.516 93.5396 135.092 96.3813 135.713C96.8011 135.804 97.103 136.435 97.4603 136.817V136.813Z" fill="#FFB875"/>
<path d="M104.129 119.368C104.112 123.236 104.091 127.102 104.074 130.97C101.937 128.618 102.436 125.71 102.401 122.921C102.381 121.269 102.398 119.618 102.398 117.4C103.182 118.289 103.654 118.826 104.129 119.364V119.368Z" fill="#ECE7F8"/>
<path d="M113.799 114.202C113.924 115.243 114.146 116.284 114.146 117.321C114.146 119.181 114.007 121.037 113.928 122.897C113.189 120.514 112.446 118.13 111.707 115.746C112.404 115.233 113.102 114.716 113.796 114.202H113.799Z" fill="#E9E5F6"/>
<path d="M106.87 130.149C106.895 127.821 106.915 125.489 106.94 123.161C107.71 124.487 108.48 125.812 109.264 127.162C108.425 128.21 107.648 129.181 106.87 130.153V130.149Z" fill="#ECE7F6"/>
<path d="M105.42 107.929C105.427 108.657 105.434 109.386 105.441 110.115C103.695 110.493 102.856 109.344 102.002 107.929H105.42Z" fill="#827E7E"/>
<path d="M108.206 185.751C130.457 185.74 152.708 185.74 174.96 185.695C175.636 185.695 176.313 185.251 176.989 185.012C178.506 188.336 180.019 191.656 181.59 195.098C157.604 195.098 133.316 195.098 109.025 195.098C108.754 191.982 108.48 188.867 108.206 185.751Z" fill="#EFF6FF"/>
<path d="M196.767 150.017C205.309 149.062 209.997 154.715 212.637 161.529C216.294 170.96 216.159 180.515 212.259 189.856C210.358 194.408 207.54 198.367 202.45 199.953C201.746 200.171 200.982 200.202 200.247 200.324C198.748 200.324 197.249 200.324 195.379 200.324C204.341 197.201 207.825 190.154 209.4 182.039C210.854 174.568 210.278 167.112 206.687 160.176C204.556 156.057 201.742 152.563 197.197 150.856C196.978 150.773 196.906 150.308 196.767 150.02V150.017Z" fill="#BED9FE"/>
<path d="M182.527 168.045C185.407 168.038 188.301 168.233 191.16 167.979C195.726 167.577 197.287 170.713 197.731 174.062C197.908 175.384 197.759 176.869 197.322 178.128C196.524 180.418 195.535 182.542 191.854 182.299C188.988 182.108 186.097 182.254 183.221 182.25C188.349 178.909 187.51 169.804 182.531 168.045H182.527ZM190.969 173.232C191.947 173.232 192.933 173.173 193.908 173.25C195.056 173.34 195.497 172.875 195.365 171.758C195.247 170.759 195.792 169.395 193.96 169.412C192.173 169.43 190.379 169.513 188.599 169.385C187.083 169.273 186.607 169.752 186.632 171.3C186.656 172.761 186.951 173.475 188.547 173.253C189.338 173.146 190.157 173.236 190.965 173.232H190.969Z" fill="#D3DBE6"/>
<path d="M182.527 168.045C187.506 169.801 188.346 178.909 183.218 182.25C179.45 182.344 177.073 180.099 176.969 176.314C176.91 174.232 176.913 172.185 178.19 170.339C179.266 168.777 180.601 167.903 182.527 168.045ZM177.944 174.964C178.478 176.65 178.735 178.028 179.335 179.232C180.407 181.376 182.621 181.445 184.03 179.502C185.716 177.181 185.577 172.781 183.752 170.537C182.642 169.173 181.122 168.944 180.084 170.37C179.089 171.741 178.606 173.482 177.94 174.964H177.944Z" fill="#E2EAF6"/>
<path d="M189.456 150.665C190.854 150.443 192.249 150.224 193.647 150.002C194.376 150.21 195.105 150.418 195.872 150.633C194.786 152.188 191.399 152.15 189.456 150.665Z" fill="#9AB3DC"/>
<path d="M92.9913 170.793H90.6042C90.6042 168.454 90.6042 166.275 90.6042 164.097C90.6042 160.693 90.6215 157.289 90.5868 153.885C90.5799 153.285 90.3682 152.685 90.2502 152.084C90.6111 150.561 90.9685 149.038 91.3918 147.244C92.0753 151.047 92.6964 154.524 93.3209 158C93.2099 158.597 93.0087 159.19 93.0052 159.787C92.974 163.455 92.9878 167.122 92.9878 170.79L92.9913 170.793Z" fill="#0C2C7E"/>
<path d="M92.9913 170.793C92.9913 167.126 92.9774 163.458 93.0086 159.791C93.0121 159.194 93.2168 158.597 93.3244 158.004C93.6609 160.665 93.9975 163.326 94.3375 165.988C94.2369 167.157 94.0981 168.323 94.053 169.492C94.0252 170.242 94.0114 170.901 92.9878 170.793H92.9913Z" fill="#737375"/>
<path d="M237.165 173.232C236.301 173.232 235.426 173.142 234.576 173.253C232.925 173.465 232.352 172.872 232.442 171.178C232.512 169.909 232.713 169.294 234.167 169.381C236.29 169.506 238.428 169.478 240.555 169.392C242.054 169.329 241.911 170.287 241.849 171.206C241.79 172.07 242.328 173.323 240.617 173.243C239.469 173.191 238.313 173.232 237.165 173.232Z" fill="#E5EBF1"/>
<path d="M229.635 173.187C228.057 173.555 227.63 172.916 227.571 171.303C227.494 169.36 228.476 169.447 229.868 169.363C231.54 169.263 231.797 169.929 231.859 171.424C231.936 173.27 231.037 173.423 229.635 173.187Z" fill="#E5EBF1"/>
<path d="M110.368 107.655C111.478 106.982 112.429 107.068 112.946 108.359C113.394 109.483 112.97 110.219 111.728 110.399C111.562 109.702 111.457 108.984 111.201 108.321C111.09 108.033 110.656 107.87 110.371 107.651L110.368 107.655Z" fill="#616161"/>
<path d="M110.368 107.655C110.656 107.874 111.086 108.037 111.197 108.325C111.457 108.984 111.558 109.706 111.724 110.403C109.871 110.278 109.608 109.747 110.368 107.659V107.655Z" fill="#535353"/>
<path d="M190.969 173.232C190.16 173.232 189.342 173.142 188.55 173.253C186.954 173.472 186.659 172.757 186.635 171.3C186.611 169.752 187.083 169.273 188.602 169.384C190.379 169.513 192.176 169.43 193.963 169.412C195.795 169.395 195.25 170.758 195.368 171.758C195.497 172.875 195.06 173.34 193.911 173.25C192.936 173.173 191.951 173.232 190.972 173.232H190.969Z" fill="#E5EBF1"/>
<path d="M177.944 174.964C178.61 173.483 179.092 171.741 180.088 170.37C181.125 168.944 182.645 169.177 183.755 170.537C185.58 172.778 185.716 177.178 184.033 179.502C182.624 181.445 180.411 181.376 179.338 179.232C178.735 178.028 178.481 176.65 177.947 174.964H177.944Z" fill="#A6ACB5"/>
</svg>
