<svg width="294" height="238" viewBox="0 0 294 238" fill="none" xmlns="http://www.w3.org/2000/svg">
<g clip-path="url(#clip0_1365_9565)">
<path d="M260.215 54.9937C260.28 54.9489 260.34 54.9041 260.405 54.8643C260.39 54.9041 260.37 54.9439 260.345 54.9738C260.32 54.9937 260.26 54.9887 260.215 54.9937Z" fill="#FEFEFE"/>
<path d="M291.693 199.547C291.942 191.914 290.632 184.585 286.338 178.152C283.952 174.577 280.933 171.47 277.73 168.562C257.591 168.552 237.456 168.547 217.316 168.537C207.174 168.497 197.032 168.452 186.89 168.428C177.894 168.408 168.893 168.413 159.892 168.413C159.134 168.413 158.377 168.477 157.62 168.512C139.279 168.517 120.937 168.522 102.596 168.527V168.542C102.586 169.155 102.576 169.772 102.566 170.389C104.374 170.17 104.454 171.649 104.738 172.744C106.287 178.744 107.747 184.774 109.276 190.784C111.792 200.682 114.357 210.566 116.828 220.474C117.057 221.4 116.763 222.456 116.708 223.451C116.708 223.556 116.708 223.666 116.708 223.77L117.211 223.835C117.196 224.293 117.181 224.756 117.166 225.214C116.658 225.667 116.215 226.27 115.622 226.528C115.109 226.748 114.422 226.578 113.814 226.578C79.7914 226.563 45.7638 226.548 11.7412 226.519C12.4237 226.867 13.1061 227.206 13.7935 227.539C20.4187 228.61 27.1336 229.312 33.5794 230.497C36.1797 230.975 38.7899 231.333 41.4101 231.602C95.1439 231.592 148.873 231.587 202.602 231.587C207.468 231.587 212.33 231.587 217.197 231.587C217.496 231.453 217.845 231.378 218.243 231.378C228.674 231.378 239.13 231.254 249.496 230.502C252.883 229.382 256.325 228.426 259.773 227.484C259.942 226.713 260.48 226.031 261.461 225.747C270.697 223.093 278.522 216.804 284.963 209.515C287.26 206.249 289.521 202.958 291.683 199.617C291.683 199.592 291.683 199.567 291.683 199.542L291.693 199.547ZM152.016 212.229C154.014 210.466 156.026 211.133 157.889 212.229C160.2 213.588 162.576 214.2 165.306 213.628C164.798 213.06 164.32 212.527 163.842 211.99C163.777 211.91 163.717 211.825 163.657 211.741C163.737 211.8 163.822 211.865 163.901 211.925C167.637 212.801 171.374 213.687 175.11 214.569L175.075 214.872C173.072 214.663 171.07 214.275 169.072 214.285C164.679 214.315 160.285 214.589 155.891 214.673C154.173 214.703 152.549 214.34 152.011 212.229H152.016ZM173.441 205.218C176.504 205.437 179.563 205.781 182.626 206.069C183.842 206.358 185.042 206.786 186.273 206.916C192.44 207.568 198.617 208.146 204.788 208.753C205.262 208.798 205.73 208.903 206.198 208.977C206.188 209.191 206.183 209.405 206.178 209.62C204.28 209.62 202.372 209.724 200.485 209.595C197.989 209.42 195.478 208.683 193.032 208.883C189.999 209.132 187.02 210.073 184.026 210.755C183.518 210.869 183.08 211.357 182.587 211.402C182.063 211.452 181.506 211.183 180.963 211.049C181.336 210.59 181.645 209.829 182.098 209.729C184.076 209.296 186.098 209.052 188.096 208.27H184.898C183.254 208.454 181.615 208.639 179.971 208.823C178.382 209.654 176.813 210.541 175.179 211.273C174.721 211.477 174.039 211.278 173.491 211.143C173.341 211.108 173.172 210.441 173.227 210.406C173.71 210.112 174.218 209.794 174.761 209.669C176.29 209.316 177.839 209.047 179.379 208.748C175.892 208.763 172.41 208.778 168.928 208.793C168.3 208.793 167.662 208.863 167.045 208.773C166.92 208.753 166.796 207.852 166.826 207.842C167.438 207.648 168.081 207.389 168.704 207.414C169.824 207.459 170.94 207.678 172.056 207.822H172.066C172.091 207.678 172.111 207.533 172.121 207.389C171.134 205.801 171.782 205.099 173.441 205.218ZM208.206 216.949C203.16 217.491 198.093 217.83 193.057 218.428C189.092 218.896 185.152 219.622 181.207 220.255C180.579 220.354 179.966 220.549 179.179 220.235C180.31 219.717 181.441 219.204 182.577 218.686V218.368H172.564C167.154 220.32 161.715 222.003 155.687 220.22C157.172 217.81 159.403 217.556 161.585 217.491C165.236 217.382 168.893 217.482 172.549 217.496H172.554C179.792 217.486 187.04 217.725 194.258 217.387C199.678 217.133 205.067 216.132 210.467 215.47C210.731 215.44 211.005 215.47 211.274 215.47C211.329 215.654 211.379 215.838 211.429 216.023C210.353 216.341 209.301 216.829 208.206 216.949ZM242.358 203.092C242.358 203.46 241.451 203.958 240.883 204.148C240.315 204.337 239.673 204.192 239.065 204.192C207.12 204.212 175.174 204.217 143.229 204.257C141.182 204.257 139.129 204.635 137.092 204.546C135.757 204.486 133.46 204.128 133.316 203.505C132.898 201.718 132.723 199.363 133.585 197.884C137.137 191.789 141.276 186.039 144.858 179.964C146.601 177.007 148.674 176.16 152.021 176.22C164.215 176.449 176.415 176.324 188.614 176.334C189.805 174.965 189.879 172.331 192.664 172.769C196.524 173.631 200.38 174.492 204.24 175.354V175.344C206.632 175.677 209.013 176.011 211.399 176.344C216.355 176.334 221.312 176.26 226.263 176.384C227.145 176.409 228.345 177.026 228.823 177.748C233.282 184.45 237.72 191.167 241.894 198.043C242.691 199.358 242.378 201.394 242.358 203.092ZM265.994 207.284C264.296 207.633 262.542 207.693 260.814 207.882C261.103 209.669 261.357 211.457 261.69 213.234C262.283 216.356 261.636 217.516 258.477 217.885C256.266 218.139 253.969 218.119 251.758 217.84C248.724 217.452 248.031 216.232 248.794 213.269C250.238 207.643 251.718 202.026 253.182 196.41C253.028 195.021 252.515 193.547 252.814 192.262C253.078 191.127 254.034 189.768 255.055 189.28C256.555 188.568 257.65 189.848 258.462 191.102C258.98 189.22 259.494 187.343 260.007 185.461C259.862 183.977 259.489 182.474 259.638 181.02C259.787 179.591 260.724 178.515 262.433 178.625C264.066 178.734 265.287 179.511 265.372 181.199C265.441 182.598 265.088 184.017 264.923 185.426H264.918C266.134 191.346 267.364 197.256 268.565 203.177C268.968 205.178 267.977 206.881 265.994 207.284Z" fill="#D7D7D7"/>
<path d="M0 232.826V237.999H4.29392C3.66627 236.247 2.52554 234.649 1.21545 233.15C0.806978 233.045 0.403489 232.941 0 232.826Z" fill="#FEFEFE"/>
<path d="M59.4321 237.208C58.391 237.213 57.3549 237.218 56.3188 237.213C55.5218 237.268 54.7248 237.328 53.9277 237.382C54.0473 237.572 54.1469 237.776 54.2067 237.995H60.2939C59.9303 237.806 59.6413 237.532 59.4371 237.203L59.4321 237.208Z" fill="#FEFEFE"/>
<path d="M217.212 231.592C212.345 231.592 207.484 231.592 202.617 231.592C148.883 231.592 95.1541 231.602 41.4253 231.607C46.1576 232.095 50.9098 232.274 55.6719 232.304C59.0842 232.055 62.4665 231.841 65.799 231.781C85.824 231.427 105.889 231.766 125.919 231.766C127.099 231.766 127.842 232.438 128.156 233.29H215.912C216.061 232.568 216.495 231.915 217.212 231.592Z" fill="#FEFEFE"/>
<path d="M273.521 236.013C273.073 236.087 272.624 236.157 272.176 236.232C270.781 236.844 269.382 237.442 267.962 237.999H276.804C276.629 237.661 276.525 237.287 276.51 236.904C275.28 237.496 274.134 236.944 273.516 236.013H273.521Z" fill="#FEFEFE"/>
<path d="M288.191 236.023C287.2 236.576 286.189 237.084 285.142 237.547C284.002 238.05 282.921 237.691 282.203 236.994C281.9 237.328 281.601 237.667 281.297 238.005H293.402V236.238C292.819 236.561 292.231 236.875 291.628 237.164C290.174 237.866 288.814 237.114 288.191 236.023Z" fill="#FEFEFE"/>
<path d="M55.3129 168.532C40.334 168.542 25.3501 168.552 10.3662 168.562C7.3176 171.425 3.69616 173.676 0 175.842V218.94C0.159403 219.07 0.323788 219.194 0.488172 219.324C1.99254 213.817 3.52679 208.325 4.95146 202.803C7.51187 192.865 10.0025 182.907 12.4833 172.949C12.9316 171.136 13.8282 170.205 15.8257 170.37C17.5593 170.514 19.3177 170.414 21.0661 170.424C32.4884 170.419 43.9106 170.414 55.3328 170.409C55.3278 169.782 55.3179 169.16 55.3129 168.537V168.532Z" fill="#D7D7D7"/>
<path d="M114.283 225.637C79.5228 225.652 44.7729 225.637 10.0181 225.597C10.5909 225.911 11.1638 226.215 11.7416 226.514C45.7692 226.548 79.8018 226.558 113.829 226.573C114.437 226.573 115.125 226.748 115.638 226.523C116.23 226.27 116.674 225.662 117.182 225.209H117.187C116.22 225.353 115.249 225.637 114.283 225.637Z" fill="#C8AF93"/>
<path d="M1.42927 220.066C5.38446 204.571 9.38946 189.091 13.3048 173.586C13.7581 171.788 14.4754 171.091 16.3733 171.256C17.9175 171.39 19.5016 171.061 21.0707 170.937C21.0657 170.763 21.0608 170.588 21.0608 170.414C19.3123 170.404 17.5589 170.504 15.8204 170.359C13.8278 170.195 12.9312 171.126 12.4779 172.939C9.99719 182.897 7.51149 192.855 4.9461 202.793C3.52642 208.32 1.98718 213.817 0.487793 219.319C0.801618 219.568 1.11544 219.822 1.43425 220.061L1.42927 220.066Z" fill="#EAB0BD"/>
<path d="M8.53778 224.766C17.4394 224.756 26.3411 224.741 35.2478 224.731C35.2527 224.557 35.2577 224.382 35.2577 224.208C34.4557 224.079 33.6488 223.849 32.8418 223.849C24.2191 223.83 15.5963 223.835 6.97363 223.835C7.49169 224.153 8.01473 224.462 8.54276 224.766H8.53778Z" fill="#EAB0BD"/>
<path d="M217.321 168.537C207.179 168.497 197.037 168.452 186.895 168.427C177.894 168.407 168.892 168.412 159.896 168.412C159.139 168.412 158.382 168.477 157.625 168.512C157.724 165.34 157.854 162.163 157.913 158.992C158.083 149.666 158.128 140.34 158.431 131.024C158.521 128.296 159.333 125.597 159.816 122.884C160.369 121.39 160.922 119.896 161.48 118.402C162.72 114.857 164.036 111.332 165.196 107.757C169.46 94.6073 173.669 81.4426 177.904 68.2879C178.103 68.3825 178.297 68.4771 178.496 68.5717V68.5468C178.516 68.7062 178.541 68.8605 178.566 69.0198C178.526 69.1692 178.536 69.3186 178.596 69.463C178.511 70.7028 178.427 71.9475 178.347 73.1873C176.872 80.1929 175.373 87.1985 173.923 94.209C173.246 97.4952 173.56 97.9334 176.798 98.7201C177.455 98.8794 178.123 99.1034 178.785 99.1234C185.166 99.3026 191.552 99.5316 197.934 99.5565C200.609 99.5665 203.289 99.1283 205.939 98.8943C205.939 97.6545 206.038 96.9575 205.924 96.3002C204.883 90.3602 203.871 84.4152 202.696 78.5C202.203 76.0254 201.326 73.6255 200.624 71.1907L200.653 71.1658C200.504 70.7177 200.36 70.2696 200.21 69.8215V69.7319C200.026 69.3236 199.831 68.9203 199.642 68.512C199.039 67.1925 198.437 65.878 197.834 64.5586C198.975 65.2806 200.12 66.0075 201.266 66.7295C202.457 69.2489 203.981 71.6687 204.773 74.3026C207.01 81.7514 208.788 89.3395 211.064 96.7732C212.688 102.081 214.825 107.234 216.733 112.457C216.947 114.1 217.311 115.739 217.341 117.382C217.455 123.357 217.465 129.336 217.51 135.311C217.56 143.741 217.635 152.17 217.635 160.6C217.635 163.249 217.436 165.893 217.326 168.542L217.321 168.537Z" fill="#0C2C7E"/>
<path d="M55.3329 170.399C55.3279 169.777 55.318 169.154 55.313 168.527C55.8559 165.963 55.0739 164.519 52.2644 163.887C49.3852 163.234 49.2208 162.542 49.3902 158.927C49.4948 156.722 50.9045 155.666 52.8472 155.357C54.3715 155.113 55.1984 154.665 54.9543 152.918C54.6853 151.006 56.0104 149.776 57.5297 149.313C61.4301 148.128 65.3703 146.898 69.3903 146.33C78.1176 145.091 86.8399 145.559 95.4427 147.555C97.0467 147.929 98.571 148.685 100.12 149.288C101.913 149.985 102.72 151.329 102.546 153.226C102.412 154.67 103.069 155.118 104.459 155.392C107.876 156.064 109.326 158.35 108.349 161.741C108.09 162.647 106.725 163.717 105.749 163.847C102.715 164.25 102.048 165.903 102.591 168.537C102.581 169.154 102.571 169.772 102.561 170.389V170.872C102.536 172.47 102.596 174.074 102.461 175.662C102.178 179.103 102.362 182.802 98.3817 184.555C95.9508 185.625 93.5747 186.94 91.0342 187.627C84.0504 189.519 76.8623 189.803 69.7987 188.493C65.8535 187.761 62.0478 185.994 58.3416 184.331C56.2196 183.38 55.308 181.303 55.3827 178.839C55.4674 176.18 55.3478 173.516 55.3229 170.857C55.3578 170.708 55.3578 170.559 55.3229 170.414L55.3329 170.399ZM102.511 159.888C102.601 160.456 102.691 161.019 102.825 161.87C104.414 161.292 105.789 160.79 107.443 160.187C104.957 158.255 103.687 158.136 102.511 159.425H94.3867C94.3867 159.58 94.3867 159.734 94.3867 159.888H102.506H102.511ZM70.9843 158.36C73.5995 158.42 76.2197 158.479 78.8349 158.539C81.8486 158.479 84.8623 158.415 87.8761 158.355C89.9832 158.011 92.0853 157.663 94.1924 157.319C94.1824 157.01 94.1725 156.707 94.1625 156.398C92.5286 156.159 90.8898 155.915 89.2559 155.676C87.5871 151.937 85.1562 151.524 82.282 154.367C81.5547 155.089 80.6083 155.835 79.3928 154.685C78.1525 153.51 76.7776 153.719 75.592 154.959C71.4326 155.288 67.2732 155.616 63.1187 155.945C63.0938 156.293 63.064 156.637 63.039 156.986C64.5733 157.309 66.1026 157.638 67.6368 157.961C68.7527 158.096 69.8735 158.23 70.9893 158.365L70.9843 158.36ZM84.9321 185.924C88.2995 185.924 91.4875 183.205 91.5373 180.298C91.5822 177.654 88.2746 174.507 85.4501 174.507C81.8735 174.507 78.82 177.061 78.7403 180.138C78.6556 183.235 81.5398 185.929 84.937 185.929L84.9321 185.924ZM55.2432 158.195C53.4998 158.713 52.105 159.132 50.7152 159.545C50.7301 159.814 50.7501 160.078 50.765 160.346C52.1897 160.809 53.6143 161.273 55.2432 161.8V158.195ZM84.2297 159.575H91.2584C91.2434 159.385 91.2235 159.191 91.2086 159.002C88.8823 159.191 86.561 159.38 84.2297 159.575Z" fill="#2254B5"/>
<path d="M177.899 68.2729C173.67 81.4326 169.456 94.5973 165.192 107.742C164.031 111.317 162.721 114.842 161.476 118.387C160.928 117.591 160.375 116.794 159.827 115.997V100.871C157.774 101.618 156.325 101.986 155.03 102.649C149.177 105.631 143.368 108.698 137.54 111.725C136.868 112.074 136.165 112.368 135.468 112.661C131.827 114.195 131.309 113.946 130.238 110.137C129.361 104.172 128.484 98.2022 127.607 92.2373C128.17 91.2663 128.494 89.922 129.336 89.3793C135.787 85.2267 142.357 81.2634 148.843 77.1606C150.547 76.0801 152.051 74.696 153.68 73.491C156.454 71.4347 159.398 69.8015 162.935 69.3982C167.812 68.8406 172.674 68.1634 177.545 67.541C177.665 67.785 177.78 68.029 177.899 68.2729Z" fill="#5595E7"/>
<path d="M177.899 68.2733C177.779 68.0294 177.665 67.7854 177.545 67.5414C171.054 63.0503 166.905 57.2148 166.596 49.0491C166.536 47.4459 165.988 45.8625 165.665 44.2692C165.665 43.5174 165.655 42.7655 165.68 42.0187C165.834 36.4421 167.886 34.0322 172.544 33.2754C173.012 33.2754 173.48 33.2754 173.954 33.2804C175.074 33.843 176.2 34.3907 177.311 34.9683C179.219 35.9492 181.102 36.9699 183.02 37.9308C183.946 38.3939 184.927 38.7524 185.884 39.1607C186.163 39.3797 186.442 39.5988 186.721 39.8179C188.38 42.2477 190.043 44.6775 191.757 47.182C193.137 44.6277 195.304 43.6667 198.188 44.4186C199.154 47.3662 199.06 50.0499 196.444 52.2258C195.971 52.6191 195.438 53.3909 195.513 53.9087C195.966 57.17 196.569 60.4163 197.172 63.6528C197.231 63.9814 197.605 64.2502 197.834 64.544C198.437 65.8635 199.04 67.1779 199.642 68.4974C199.832 68.9057 200.026 69.309 200.215 69.7173C200.215 69.7173 200.215 69.8069 200.21 69.8069C200.36 70.255 200.504 70.7031 200.654 71.1463L200.624 71.1712C200.574 72.3811 200.544 73.596 200.474 74.8059C200.24 78.8738 196.509 83.2902 192.778 83.5193C187.03 83.8728 179.333 80.9351 178.337 73.1678C178.422 71.928 178.506 70.6832 178.586 69.4434C181.55 70.3894 184.056 69.6725 186.223 67.4667C188.639 65.0021 190.536 61.6761 190.531 60.4014C187.045 62.403 183.254 64.534 179.533 66.7746C179.015 67.0883 178.83 67.9447 178.487 68.5522C178.287 68.4576 178.093 68.363 177.894 68.2684H177.899V68.2733Z" fill="#F2B9A4"/>
<path d="M260.46 54.8294C261.401 52.803 262.338 50.7765 263.384 48.5259H257.506V10.2119H286.378V48.8297C281.406 48.8297 276.475 49.0189 271.568 48.7599C268.644 48.6056 266.472 49.5417 264.47 51.4835C263.224 52.6934 261.785 53.7091 260.435 54.8095L260.46 54.8344V54.8294ZM272.779 32.4833H261.262V33.0958H283.035C282.811 32.5879 282.597 32.4584 282.388 32.4584C279.185 32.4584 275.987 32.4734 272.784 32.4833H272.779ZM266.871 29.1872H283.045V28.4055H260.764V29.1872H266.871ZM283.613 24.482H260.634C262.383 25.901 281.795 25.9159 283.613 24.482ZM283.05 20.7875V20.3443H261.172V20.7875H283.055H283.05ZM283.045 40.903V40.4449H261.172V40.903H283.045ZM261.192 36.4367C261.192 36.5512 261.192 36.6658 261.187 36.7803H282.966C282.966 36.6658 282.966 36.5512 282.971 36.4367H261.192ZM264.938 15.0466C265.401 15.6989 265.75 16.1868 266.203 16.8291C266.258 15.7238 266.562 14.7728 266.293 14.0209C265.64 12.1886 264.53 12.084 263.743 13.9064C263.404 14.6831 263.688 15.7287 263.688 16.6548L264.246 16.6947C264.45 16.2067 264.654 15.7188 264.938 15.0466ZM268.814 12.6716C265.695 13.1844 267.289 15.2358 266.931 16.7694H268.669C268.385 15.8283 268.016 14.962 267.897 14.0607C267.852 13.7172 268.38 13.2989 268.814 12.6716Z" fill="#FFA653"/>
<path d="M127.607 92.2422C128.484 98.2122 129.361 104.177 130.237 110.142C127.747 111.257 125.256 112.378 122.765 113.498C116.041 116.515 110.785 114.285 107.796 107.538C105.764 102.957 103.144 98.6404 100.967 94.1194C99.5972 91.2713 98.5063 88.2789 97.4004 85.3114C96.9172 84.0168 96.4888 83.1206 94.8151 82.9762C93.3605 82.8467 91.9807 81.9754 90.5411 81.5123C89.5149 81.1837 88.4489 80.9895 87.4028 80.7406C86.6307 83.8376 86.571 83.8824 84.414 83.0459C84.3343 83.7131 84.4788 84.5446 84.1301 84.928C83.622 85.4856 82.6855 86.1279 82.0628 86.0134C80.9171 85.7993 79.871 85.0624 78.541 84.4301C77.206 81.124 77.6045 77.3 78.4165 73.6304C79.5821 68.3775 87.0492 65.1511 91.891 67.5211C94.1326 68.6165 96.3394 69.7866 98.6009 70.8422C101.909 72.3807 104.115 74.9598 105.978 78.012C109.66 84.0367 113.455 89.9917 117.281 95.9268C117.565 96.3649 118.651 96.7632 119.079 96.5641C121.968 95.2148 124.778 93.7061 127.612 92.2422H127.607Z" fill="#FABEA7"/>
<path d="M217.506 135.306C217.456 129.326 217.451 123.351 217.336 117.376C217.306 115.733 216.938 114.09 216.729 112.452C220.465 112.143 221.396 111.327 222.387 107.792C222.811 106.268 223.389 104.784 223.986 103.316C226.348 97.5099 228.744 91.7192 231.125 85.9186C234.766 81.9951 238.407 78.0716 242.064 74.163C242.178 74.0385 242.492 74.0983 242.711 74.0684C242.422 74.7406 242.218 75.4675 241.825 76.075C240.3 78.4201 238.681 80.7105 237.157 83.0606C235.986 84.873 236.39 85.6846 238.487 85.8887C240.45 86.0779 242.417 86.2871 244.39 86.3866C246.333 86.4812 246.93 85.4954 246.492 83.6083C246.113 81.9901 245.033 80.2176 246.841 78.5994C247.708 79.5753 248.485 80.4516 249.257 81.3179C250.781 80.108 250.701 78.9678 250.004 77.3446C249.411 75.9704 249.61 74.2526 249.456 72.6842C249.745 72.5996 250.034 72.5149 250.323 72.4303C251.16 73.5555 251.996 74.6808 252.988 76.0202C253.202 73.8194 252.549 71.5788 254.911 70.598C255.334 70.4237 256.061 70.9863 256.669 71.2204C257.102 70.6129 257.576 69.9407 258.054 69.2686C257.162 73.0029 256.34 76.7521 255.359 80.4615C254.397 84.1012 251.593 86.5559 249.531 89.5185C246.527 93.8304 242.462 96.0162 237.859 97.7489C235.966 98.4609 235.349 99.9596 235.269 101.887C235.02 107.642 234.975 113.433 234.303 119.144C233.551 125.542 232.485 131.96 227.528 136.855C224.211 140.131 221.874 140.141 218.706 136.695C218.298 136.252 217.919 135.779 217.526 135.316L217.506 135.306Z" fill="#F9BDA7"/>
<path d="M231.12 85.914C228.738 91.7096 226.342 97.5053 223.981 103.311C223.384 104.78 222.806 106.263 222.382 107.787C221.396 111.327 220.464 112.139 216.723 112.447C214.816 107.224 212.679 102.076 211.055 96.7684C208.778 89.3346 207.005 81.7465 204.763 74.2978C203.971 71.6589 202.447 69.239 201.256 66.7246C207.174 68.6167 213.152 70.3394 218.965 72.5053C220.569 73.1028 221.755 74.955 222.985 76.3591C225.745 79.5009 228.41 82.7224 231.115 85.914H231.12Z" fill="#5595E7"/>
<path d="M198.188 44.4187C195.304 43.6669 193.137 44.6278 191.757 47.1821C190.043 44.6776 188.385 42.2478 186.721 39.818C186.731 39.3649 186.741 38.9069 186.751 38.4538C186.791 36.7908 186.193 34.5352 187.04 33.6241C187.916 32.688 190.198 33.0664 191.867 32.8573C191.986 32.8423 192.096 32.7228 192.698 32.3345H187.109C186.771 31.2341 186.532 30.4673 186.292 29.7005V19.3789C193.391 19.9515 197.037 24.8161 200.096 30.4175C200.091 32.3544 200.086 34.2913 200.081 36.2281C199.448 38.9566 198.816 41.6902 198.183 44.4187H198.188Z" fill="#131214"/>
<path d="M186.293 19.3783V32.4384H162.88C166.158 20.5882 175.448 17.4464 186.288 19.3733H186.293V19.3783Z" fill="#101011"/>
<path d="M258.034 69.2587C257.561 69.9308 257.082 70.603 256.649 71.2105C256.041 70.9814 255.314 70.4138 254.891 70.5881C252.53 71.569 253.182 73.8095 252.968 76.0103C251.977 74.6759 251.14 73.5456 250.303 72.4204C250.014 72.505 249.725 72.5897 249.436 72.6743C249.591 74.2377 249.391 75.9555 249.984 77.3347C250.686 78.9529 250.761 80.0981 249.237 81.308C248.47 80.4417 247.693 79.5703 246.821 78.5894C245.013 80.2077 246.099 81.9802 246.472 83.5984C246.911 85.4855 246.313 86.4713 244.37 86.3767C242.397 86.2821 240.435 86.068 238.467 85.8788C236.37 85.6747 235.967 84.8631 237.137 83.0507C238.656 80.7006 240.275 78.4102 241.805 76.0651C242.198 75.4576 242.402 74.7307 242.691 74.0585C244.42 71.5739 246.049 69.0147 247.927 66.6496C248.594 65.8082 249.785 65.121 250.851 64.902C253.147 64.424 255.508 64.2397 257.85 64.0406C258.681 63.9709 259.533 64.2148 260.769 64.3592C259.698 66.2662 258.861 67.76 258.019 69.2587H258.034Z" fill="#141314"/>
<path d="M172.544 33.2751C167.881 34.0369 165.829 36.4418 165.68 42.0183C165.66 42.7702 165.67 43.517 165.665 44.2689C163.388 42.5262 162.272 40.4848 162.038 37.5421C161.321 37.5073 160.594 37.4724 159.657 37.4276C160.723 35.7845 161.695 34.2858 162.666 32.7871C163.573 32.822 164.479 32.8419 165.386 32.8917C167.772 33.0112 170.158 33.1456 172.544 33.2751Z" fill="#141314"/>
<path d="M172.544 33.2752C170.158 33.1457 167.772 33.0163 165.386 32.8918C164.479 32.847 163.573 32.8221 162.666 32.7872C162.631 32.603 162.706 32.4835 162.885 32.4387H186.298V29.7002C186.537 30.467 186.771 31.2387 187.115 32.3341H192.704C192.096 32.7175 191.991 32.842 191.872 32.8569C190.203 33.0661 187.921 32.6876 187.045 33.6237C186.198 34.5299 186.791 36.7854 186.756 38.4534C186.746 38.9065 186.736 39.3646 186.726 39.8177C186.447 39.5986 186.168 39.3795 185.889 39.1604C186.019 37.3779 186.183 35.5904 186.228 33.803C186.233 33.5142 185.695 32.9515 185.416 32.9565C181.595 33.0163 177.774 33.1557 173.954 33.2802C173.486 33.2802 173.017 33.2802 172.544 33.2752Z" fill="#1F1F20"/>
<path d="M73.1315 99.7012C75.5873 101.399 75.9709 102.599 75.1988 105.791C73.0319 105.079 72.3794 103.261 73.1315 99.7012Z" fill="#FABEA7"/>
<path d="M79.8958 106.976C78.9742 109.097 78.0527 111.218 76.8721 113.931C76.3889 110.655 77.2806 108.534 79.8958 106.976Z" fill="#FABEA7"/>
<path d="M159.826 116.003C160.374 116.8 160.927 117.596 161.475 118.393C160.922 119.887 160.364 121.38 159.812 122.874C159.812 120.584 159.821 118.293 159.826 115.998V116.003Z" fill="#EF9777"/>
<path d="M200.086 36.2276C200.091 34.2907 200.096 32.3539 200.101 30.417C201.346 32.3588 201.575 34.2957 200.086 36.2276Z" fill="#1F1F20"/>
<path d="M260.435 54.8047C260.405 54.8644 260.39 54.9292 260.35 54.974C260.33 54.9989 260.266 54.9889 260.221 54.9939C260.3 54.9391 260.38 54.8844 260.46 54.8296L260.435 54.8047Z" fill="#F49FB2"/>
<path d="M116.713 223.442C112.524 206.976 108.35 190.51 104.115 174.059C103.827 172.934 103.094 171.923 102.571 170.858C102.541 172.456 102.601 174.059 102.472 175.647C102.188 179.088 102.372 182.787 98.3919 184.54C95.961 185.611 93.5849 186.925 91.0444 187.612C84.0606 189.504 76.8725 189.788 69.809 188.479C65.8637 187.747 62.058 185.974 58.3518 184.316C56.2298 183.365 55.3182 181.284 55.3929 178.824C55.4776 176.17 55.363 173.506 55.3332 170.848C43.9159 170.878 32.4986 170.912 21.0814 170.942C19.5173 171.067 17.9282 171.395 16.384 171.261C14.4861 171.097 13.7688 171.794 13.3155 173.591C9.40014 189.096 5.39513 204.576 1.43994 220.071C3.2133 221.42 5.07134 222.675 6.9792 223.84C15.6019 223.84 24.2246 223.835 32.8523 223.855C33.6543 223.855 34.4613 224.084 35.2683 224.208C42.1077 224.099 48.952 223.935 55.7964 223.895C59.4129 223.875 63.0293 224.084 66.6508 224.144C67.398 224.159 68.1452 223.89 68.8924 223.89C80.4441 223.87 92.0009 223.885 103.553 223.87C107.941 223.86 112.33 223.8 116.718 223.765C116.718 223.656 116.718 223.546 116.718 223.442H116.713ZM23.7016 180.796H23.7066C25.0316 179.895 26.2421 178.56 27.7016 178.172C33.485 176.628 39.2982 176.509 44.683 179.576C45.769 180.193 46.6706 181.737 46.9147 182.997C47.0492 183.699 45.6544 184.694 44.952 185.561C44.4987 186.029 44.1301 186.741 43.5821 186.935C37.2658 189.191 30.9544 189.38 24.8324 186.362C22.0876 185.008 21.7389 182.643 23.7016 180.796ZM49.9882 212.547C49.1613 213.279 48.4489 214.325 47.4776 214.683C38.2571 218.089 29.0516 218.662 20.3242 213.344C15.3877 210.332 15.582 204.526 20.4538 201.434C23.6617 199.398 27.2184 198.541 31.0092 198.203C35.5223 197.794 39.9657 197.974 44.2795 199.233C46.7553 199.955 49.4352 200.647 50.8699 203.227C53.7092 206.005 53.2808 210.536 49.9882 212.547ZM92.9174 211.054H92.9124C90.7804 213.727 87.6272 214.26 84.5836 214.619C80.8028 215.067 76.9771 214.798 73.3905 213.284C72.2249 212.791 71.0443 212.154 70.1128 211.313C66.9397 208.445 67.4079 204.168 71.2535 202.3C78.2474 198.905 85.3358 199.089 92.2798 202.549C95.0345 203.924 96.8178 208.714 92.9174 211.054Z" fill="#D7D7D7"/>
<path d="M211.388 176.353C216.345 176.348 221.301 176.269 226.253 176.393C227.134 176.413 228.33 177.036 228.813 177.758C233.271 184.454 237.715 191.171 241.884 198.052C242.681 199.362 242.367 201.398 242.347 203.101C242.347 203.475 241.446 203.967 240.873 204.157C240.325 204.341 239.667 204.201 239.055 204.201C207.109 204.216 175.164 204.226 143.219 204.266C141.171 204.266 139.119 204.645 137.082 204.555C135.747 204.495 133.45 204.137 133.306 203.514C132.887 201.727 132.713 199.372 133.575 197.893C137.126 191.804 141.266 186.053 144.848 179.973C146.591 177.011 148.663 176.164 152.011 176.229C164.205 176.453 176.404 176.334 188.604 176.344C187.348 180.098 188.748 183.24 190.805 186.282C191.687 187.586 192.32 189.06 193.182 190.38C193.655 191.101 194.372 191.669 194.975 192.301C199.777 192.311 204.579 192.371 209.376 192.311C213.864 192.252 218.347 192.072 222.835 191.923C225.481 191.833 227.408 190.584 228.011 187.98C228.599 185.425 226.821 183.902 224.977 182.612C221.012 179.839 216.679 177.852 211.916 176.851C211.737 176.687 211.558 176.528 211.378 176.363L211.388 176.353ZM162.013 191.903L161.978 191.913C163.687 194.457 166.327 193.511 168.648 193.596C169.082 193.611 169.545 192.799 169.993 192.371C170.397 190.459 170.88 188.557 171.149 186.63C171.234 186.023 170.88 184.908 170.457 184.753C168.001 183.852 165.555 184.116 163.269 185.435C161.256 186.595 160.907 188.443 161.211 190.539C161.48 190.992 161.744 191.445 162.013 191.898V191.903ZM183.149 190.594C183.807 187.367 184.559 184.156 185.037 180.899C185.132 180.252 184.31 179.007 183.657 178.783C179.269 177.265 172.036 179.376 173.102 186.416C172.932 188.736 174.442 190.245 176.195 190.927C178.402 191.789 180.947 192.774 183.154 190.594H183.149ZM201.241 200.482C201.271 200.407 201.306 200.328 201.336 200.253H134.71V200.482H201.241ZM152.554 191.858C154.207 191.858 155.268 191.958 156.3 191.818C156.858 191.744 157.809 191.256 157.799 190.977C157.779 190.315 157.415 189.224 156.967 189.1C155.951 188.811 154.681 188.712 153.754 189.1C153.186 189.339 153.052 190.619 152.554 191.858Z" fill="#2254B5"/>
<path d="M211.926 176.837C216.688 177.837 221.022 179.824 224.987 182.597C226.83 183.887 228.609 185.406 228.021 187.965C227.418 190.569 225.49 191.819 222.845 191.908C218.362 192.063 213.874 192.242 209.386 192.297C204.584 192.361 199.787 192.297 194.984 192.287C195.214 188.801 195.916 185.261 195.537 181.846C195.194 178.749 193.664 175.786 192.658 172.764C196.519 173.625 200.374 174.486 204.23 175.348C200.584 178.166 200.215 180.317 201.884 183.892C203.328 186.989 207.328 187.497 209.899 186.177C212.743 184.723 213.675 181.363 212.28 178.355C212.066 177.892 212.036 177.344 211.921 176.837H211.926Z" fill="#F39EB1"/>
<path d="M260.819 207.872C261.108 209.654 261.357 211.447 261.695 213.224C262.288 216.351 261.641 217.506 258.482 217.875C256.271 218.134 253.974 218.109 251.762 217.83C248.724 217.447 248.036 216.222 248.799 213.259C250.243 207.633 251.723 202.021 253.187 196.4C254.846 196.256 256.5 196.111 258.159 195.967C259.045 199.935 259.937 203.898 260.824 207.867L260.819 207.872Z" fill="#2254B5"/>
<path d="M260.818 207.872C259.932 203.903 259.04 199.94 258.153 195.972C258.258 194.348 258.358 192.72 258.462 191.097C258.975 189.215 259.488 187.338 260.006 185.456C261.645 185.446 263.284 185.431 264.923 185.421C266.138 191.336 267.369 197.246 268.569 203.166C268.978 205.168 267.982 206.871 265.999 207.274C264.305 207.618 262.547 207.682 260.818 207.872Z" fill="#FFB875"/>
<path d="M211.927 176.837C212.041 177.345 212.071 177.893 212.286 178.356C213.685 181.363 212.749 184.719 209.904 186.178C207.329 187.498 203.334 186.99 201.889 183.893C200.221 180.318 200.594 178.167 204.236 175.349C206.622 175.682 209.003 176.016 211.389 176.349C211.568 176.514 211.748 176.673 211.927 176.837Z" fill="#E49BB2"/>
<path d="M114.76 224.71C94.9592 224.76 75.1633 224.75 55.3625 224.75C48.6626 224.75 41.9577 224.735 35.2577 224.725C26.3461 224.735 17.4395 224.75 8.52783 224.76C9.02099 225.044 9.51414 225.323 10.0123 225.597C44.7671 225.637 79.522 225.647 114.272 225.637C115.238 225.637 116.21 225.353 117.176 225.203C117.191 224.745 117.206 224.282 117.221 223.824C116.399 224.133 115.577 224.71 114.755 224.71H114.76Z" fill="#D7D7D7"/>
<path d="M192.664 172.769C193.67 175.792 195.199 178.754 195.543 181.851C195.922 185.272 195.219 188.807 194.99 192.292C194.382 191.655 193.67 191.092 193.197 190.37C192.335 189.051 191.702 187.577 190.821 186.273C188.763 183.23 187.364 180.089 188.619 176.334C189.809 174.965 189.879 172.331 192.669 172.769H192.664Z" fill="#F1809A"/>
<path d="M117.226 223.829C116.404 224.138 115.582 224.711 114.76 224.716C94.9593 224.765 75.1634 224.755 55.3625 224.755C48.6626 224.755 41.9577 224.741 35.2578 224.731C35.2578 224.556 35.2628 224.382 35.2678 224.208C42.1121 224.093 48.9515 223.934 55.7959 223.894C59.4124 223.874 63.0338 224.083 66.6503 224.143C67.3975 224.158 68.1447 223.889 68.8919 223.889C80.4436 223.869 92.0004 223.889 103.552 223.869C107.941 223.864 112.329 223.804 116.718 223.765C116.887 223.785 117.052 223.809 117.221 223.829H117.226Z" fill="#F39EB1"/>
<path d="M116.713 223.441C112.524 206.981 108.349 190.51 104.115 174.059C103.826 172.934 103.099 171.923 102.571 170.857V170.374C104.379 170.155 104.459 171.634 104.743 172.729C106.292 178.734 107.756 184.759 109.281 190.769C111.796 200.667 114.362 210.551 116.832 220.459C117.062 221.385 116.768 222.441 116.713 223.436V223.441Z" fill="#EAB0BD"/>
<path d="M172.564 218.362C167.15 220.314 161.71 221.997 155.688 220.215C157.172 217.805 159.404 217.551 161.585 217.486C165.237 217.377 168.893 217.481 172.549 217.491C172.554 217.78 172.559 218.069 172.564 218.362Z" fill="#10652F"/>
<path d="M172.564 218.363C172.559 218.074 172.554 217.785 172.549 217.491C179.787 217.481 187.03 217.72 194.253 217.382C199.672 217.128 205.057 216.127 210.462 215.465C210.726 215.43 211 215.465 211.269 215.465C211.319 215.649 211.368 215.833 211.423 216.017C210.352 216.336 209.296 216.829 208.2 216.943C203.154 217.481 198.088 217.825 193.052 218.422C189.087 218.89 185.147 219.617 181.201 220.25C180.574 220.349 179.961 220.548 179.174 220.23C180.305 219.712 181.436 219.199 182.566 218.681V218.363H172.559H172.564Z" fill="#70B464"/>
<path d="M182.617 206.074C183.832 206.363 185.033 206.786 186.263 206.921C192.43 207.573 198.607 208.15 204.779 208.758C205.252 208.803 205.72 208.907 206.188 208.982C206.183 209.196 206.178 209.41 206.168 209.624C204.271 209.624 202.363 209.729 200.475 209.599C197.979 209.425 195.469 208.688 193.023 208.887C189.989 209.131 187.01 210.072 184.016 210.76C183.513 210.874 183.075 211.362 182.577 211.407C182.049 211.457 181.496 211.183 180.953 211.053C181.326 210.595 181.635 209.833 182.089 209.734C184.066 209.301 186.089 209.062 188.086 208.275H184.888C181.999 208.066 179.115 207.852 176.226 207.643C177.252 207.394 178.318 207.563 179.304 207.349C180.445 207.1 181.516 206.517 182.612 206.079L182.617 206.074Z" fill="#70B464"/>
<path d="M258.462 191.097C258.358 192.72 258.258 194.348 258.154 195.972C256.495 196.116 254.841 196.26 253.182 196.405C253.023 195.016 252.515 193.542 252.814 192.257C253.078 191.122 254.034 189.763 255.055 189.275C256.555 188.563 257.65 189.842 258.462 191.097Z" fill="#0C2C7E"/>
<path d="M264.923 185.426C263.284 185.436 261.645 185.451 260.006 185.461C259.862 183.977 259.488 182.473 259.638 181.02C259.787 179.586 260.724 178.51 262.432 178.625C264.066 178.734 265.287 179.511 265.371 181.199C265.441 182.598 265.087 184.017 264.923 185.426Z" fill="#FFA653"/>
<path d="M163.902 211.92C167.638 212.801 171.374 213.687 175.11 214.569L175.075 214.872C173.072 214.663 171.075 214.27 169.072 214.285C164.679 214.31 160.285 214.584 155.892 214.673C154.168 214.708 152.549 214.34 152.011 212.229C154.009 210.466 156.021 211.133 157.884 212.229C160.196 213.588 162.572 214.2 165.301 213.628C164.793 213.06 164.315 212.527 163.837 211.99L163.902 211.925V211.92Z" fill="#10652F"/>
<path d="M182.616 206.074C181.515 206.513 180.449 207.1 179.309 207.344C178.322 207.558 177.256 207.389 176.23 207.638C179.119 207.847 182.004 208.061 184.893 208.27C183.249 208.454 181.61 208.639 179.966 208.823C179.767 208.798 179.573 208.773 179.373 208.748C175.891 208.763 172.409 208.778 168.923 208.793C168.29 208.793 167.652 208.868 167.04 208.773C166.915 208.753 166.791 207.852 166.82 207.842C167.433 207.648 168.076 207.389 168.698 207.414C169.819 207.454 170.935 207.678 172.051 207.822H173.52C173.52 207.717 173.53 207.613 173.53 207.508C173.057 207.469 172.579 207.434 172.106 207.394C171.119 205.806 171.762 205.103 173.426 205.223C176.494 205.442 179.553 205.786 182.611 206.074H182.616Z" fill="#10652F"/>
<path d="M179.373 208.748C179.572 208.773 179.766 208.798 179.966 208.823C178.372 209.654 176.808 210.541 175.174 211.272C174.715 211.477 174.038 211.272 173.485 211.143C173.336 211.108 173.166 210.436 173.221 210.406C173.704 210.107 174.212 209.794 174.755 209.669C176.285 209.316 177.834 209.052 179.373 208.748Z" fill="#70B464"/>
<path d="M172.11 207.389C172.584 207.429 173.062 207.463 173.535 207.503C173.535 207.608 173.525 207.712 173.525 207.817H172.056C172.081 207.673 172.101 207.528 172.11 207.384V207.389Z" fill="#70B464"/>
<path d="M163.837 211.984C163.777 211.9 163.718 211.815 163.653 211.735C163.733 211.795 163.817 211.86 163.897 211.92L163.832 211.984H163.837Z" fill="#77CFE1"/>
<path d="M55.3332 170.842C43.911 170.871 32.4937 170.901 21.0715 170.936C21.0715 170.762 21.0715 170.588 21.0615 170.413C32.4838 170.408 43.906 170.403 55.3282 170.398C55.3631 170.548 55.3631 170.692 55.3282 170.842H55.3332Z" fill="#F39EB1"/>
<path d="M178.337 73.1724C179.334 80.9398 187.03 83.8774 192.778 83.5239C196.504 83.2949 200.24 78.8784 200.474 74.8105C200.544 73.6006 200.574 72.3907 200.624 71.1758C201.326 73.6106 202.203 76.0105 202.696 78.4851C203.872 84.4002 204.883 90.3452 205.924 96.2853C206.039 96.9425 205.939 97.6396 205.939 98.8794C203.289 99.1134 200.609 99.5516 197.934 99.5416C191.553 99.5167 185.167 99.2877 178.786 99.1084C178.118 99.0885 177.456 98.8644 176.798 98.7051C173.555 97.9184 173.241 97.4803 173.924 94.1941C175.373 87.1835 176.868 80.178 178.347 73.1724H178.337Z" fill="#5595E7"/>
<path d="M178.492 68.557C178.83 67.9496 179.02 67.0932 179.538 66.7795C183.259 64.5389 187.05 62.4078 190.537 60.4062C190.537 61.6809 188.644 65.0069 186.228 67.4716C184.061 69.6823 181.555 70.3943 178.591 69.4483C178.532 69.3039 178.522 69.1595 178.561 69.0051C178.537 68.8458 178.517 68.6914 178.492 68.5321V68.557Z" fill="#EF9777"/>
<path d="M200.653 71.1558C200.504 70.7077 200.354 70.2595 200.21 69.8164C200.359 70.2645 200.504 70.7126 200.653 71.1558Z" fill="#E14E4F"/>
<path d="M200.215 69.7267C200.026 69.3184 199.832 68.9101 199.643 68.5068C199.832 68.9151 200.026 69.3234 200.215 69.7267Z" fill="#E14E4F"/>
<path d="M84.932 185.924C81.5347 185.924 78.6505 183.225 78.7352 180.133C78.8199 177.061 81.8735 174.502 85.4451 174.502C88.2695 174.502 91.5771 177.654 91.5323 180.293C91.4825 183.205 88.2944 185.919 84.927 185.919L84.932 185.924Z" fill="#73B6FF"/>
<path d="M75.5865 154.959C76.7721 153.719 78.1469 153.51 79.3873 154.685C80.6028 155.84 81.5492 155.089 82.2765 154.367C85.1507 151.524 87.5816 151.937 89.2504 155.676C88.7921 156.567 88.3338 157.459 87.8755 158.35C84.8618 158.41 81.8481 158.474 78.8344 158.534C79.3574 156.926 78.9191 156.084 77.0809 156.259C76.1694 156.348 75.3574 156.219 75.5915 154.954H75.5865V154.959Z" fill="#F49FB2"/>
<path d="M75.5868 154.959C75.3527 156.224 76.1646 156.353 77.0762 156.264C78.9143 156.084 79.3527 156.931 78.8296 158.539C76.2144 158.479 73.5992 158.42 70.979 158.36C71.1634 157.06 70.6652 156.129 69.3302 155.975C67.9354 155.815 67.6266 156.806 67.6266 157.956C66.0923 157.633 64.5631 157.304 63.0288 156.981C63.0537 156.632 63.0836 156.289 63.1085 155.94C67.2679 155.611 71.4274 155.283 75.5818 154.954L75.5868 154.959Z" fill="#F8F9FA"/>
<path d="M102.511 159.425C103.692 158.14 104.962 158.255 107.443 160.187C105.789 160.789 104.414 161.292 102.825 161.87C102.691 161.018 102.601 160.451 102.511 159.888V159.425Z" fill="#F8F9FA"/>
<path d="M55.2429 158.195V161.8C53.609 161.267 52.1843 160.809 50.7647 160.346C50.7497 160.077 50.7298 159.814 50.7148 159.545C52.1046 159.131 53.4994 158.713 55.2429 158.195Z" fill="#F8F9FA"/>
<path d="M87.8761 158.35C88.3344 157.458 88.7926 156.567 89.2509 155.676C90.8848 155.915 92.5237 156.154 94.1576 156.398C94.1675 156.706 94.1775 157.01 94.1874 157.319C92.0803 157.662 89.9782 158.011 87.8711 158.355H87.8761V158.35Z" fill="#F8F9FA"/>
<path d="M67.6318 157.957C67.6318 156.806 67.9457 155.811 69.3355 155.975C70.6705 156.129 71.1686 157.06 70.9843 158.36C69.8685 158.225 68.7477 158.091 67.6318 157.957Z" fill="#EAB0BD"/>
<path d="M84.2295 159.579C86.5608 159.39 88.8871 159.196 91.2084 159.007C91.2233 159.196 91.2432 159.39 91.2582 159.579H84.2295Z" fill="#89CFDF"/>
<path d="M102.511 159.426V159.889H94.3916C94.3916 159.734 94.3916 159.58 94.3916 159.426H102.516H102.511Z" fill="#89CFDF"/>
<path d="M173.954 33.2797C177.774 33.1602 181.595 33.0208 185.416 32.9561C185.695 32.9561 186.238 33.5137 186.228 33.8025C186.183 35.59 186.013 37.3725 185.889 39.16C184.933 38.7517 183.951 38.3932 183.025 37.9302C181.107 36.9692 179.219 35.9485 177.316 34.9676C176.205 34.395 175.079 33.8423 173.959 33.2797H173.954Z" fill="#141314"/>
<path d="M283.613 24.4873C281.795 25.9213 262.378 25.9063 260.634 24.4873H283.613Z" fill="#FBE2E7"/>
<path d="M283.05 20.7927H261.167V20.3496H283.05V20.7927Z" fill="#FBE2E7"/>
<path d="M283.045 40.9083H261.172V40.4502H283.045V40.9083Z" fill="#FBE2E7"/>
<path d="M261.192 36.4414H282.966C282.966 36.5559 282.966 36.6704 282.961 36.785H261.182C261.182 36.6704 261.182 36.5559 261.187 36.4414H261.192Z" fill="#F8F9FA"/>
<path d="M266.885 28.4053H283.05V29.187H266.875C266.875 28.9281 266.885 28.6642 266.89 28.4053H266.885Z" fill="#FEFEFE"/>
<path d="M272.784 32.4886C275.987 32.4786 279.185 32.4587 282.388 32.4637C282.597 32.4637 282.811 32.5931 283.035 33.101H272.774C272.774 32.8969 272.774 32.6927 272.779 32.4886H272.784Z" fill="#FBE2E7"/>
<path d="M264.933 15.0514C264.649 15.7235 264.445 16.2115 264.241 16.6994L263.683 16.6596C263.683 15.7335 263.404 14.6929 263.738 13.9111C264.53 12.0888 265.641 12.1934 266.288 14.0257C266.552 14.7775 266.253 15.7285 266.199 16.8339C265.74 16.1916 265.397 15.7036 264.933 15.0514Z" fill="#FBE2E7"/>
<path d="M266.886 28.4053C266.886 28.6642 266.876 28.9281 266.871 29.187H260.769V28.4053H266.886Z" fill="#FBE2E7"/>
<path d="M268.813 12.6816C268.38 13.309 267.852 13.7272 267.897 14.0708C268.016 14.972 268.385 15.8384 268.669 16.7794H266.93C267.289 15.2459 265.695 13.1995 268.813 12.6816Z" fill="#FBE2E7"/>
<path d="M272.783 32.4883C272.783 32.6924 272.783 32.8966 272.778 33.1007H261.267V32.4883H272.783Z" fill="#FEFEFE"/>
<path d="M49.9926 212.541C49.1607 213.268 48.4483 214.314 47.477 214.672C38.2565 218.083 29.051 218.656 20.3236 213.333C15.3822 210.321 15.5764 204.515 20.4532 201.423C23.6661 199.387 27.2228 198.535 31.0086 198.192C35.5217 197.783 39.9651 197.968 44.279 199.222C46.7547 199.944 49.4396 200.641 50.8693 203.216C50.8145 203.265 50.7547 203.32 50.6999 203.375C49.3251 202.583 48.005 201.662 46.5604 201.025C41.0311 198.59 35.188 198.301 29.3648 199.312C26.366 199.83 23.3374 200.94 20.6773 202.424C17.0658 204.44 16.6574 208.937 19.7558 211.68C21.4594 213.189 23.6612 214.538 25.848 215.021C34.0871 216.843 42.2715 217.102 49.8282 212.337C49.883 212.402 49.9378 212.467 49.9876 212.531V212.541H49.9926Z" fill="#73B6FF"/>
<path d="M92.922 211.048C90.7899 213.722 87.6368 214.255 84.5932 214.613C80.8123 215.061 76.9866 214.792 73.4001 213.279C72.2344 212.786 71.0538 212.148 70.1223 211.307C66.9442 208.439 67.4125 204.162 71.2631 202.295C78.2569 198.899 85.3453 199.083 92.2893 202.544C95.044 203.918 96.8273 208.708 92.9269 211.048C93.5795 209.276 95.2781 207.518 93.7887 205.591C92.7626 204.262 91.3728 202.867 89.8485 202.315C83.9207 200.174 77.9032 200.119 72.1248 202.922C68.0899 204.874 67.8658 208.793 71.5968 211.327C75.6915 214.105 80.359 214.289 85.0016 213.538C87.7065 213.099 90.2868 211.904 92.9269 211.048H92.922Z" fill="#73B6FF"/>
<path d="M23.7008 180.79C25.0258 179.889 26.2363 178.554 27.6958 178.166C33.4792 176.622 39.2924 176.508 44.6772 179.57C45.7632 180.187 46.6648 181.731 46.9089 182.991C47.0434 183.693 45.6486 184.694 44.9462 185.555L44.8117 185.416C46.6698 182.757 46.356 181.268 43.5365 179.814C42.6 179.331 41.5888 178.863 40.5626 178.689C34.7693 177.723 29.0607 177.559 23.8552 180.959C23.8004 180.904 23.7456 180.85 23.6958 180.79H23.7008Z" fill="#73B6FF"/>
<path d="M44.9515 185.561C44.4982 186.029 44.1345 186.741 43.5816 186.935C37.2702 189.191 30.9539 189.38 24.8318 186.363C22.0871 185.008 21.7384 182.643 23.701 180.796C23.7508 180.851 23.8056 180.905 23.8604 180.96C22.9389 183.749 23.3175 184.724 26.0921 185.924C32.3935 188.648 38.6451 188.27 44.817 185.416L44.9515 185.556V185.561Z" fill="#73B6FF"/>
<path d="M50.8741 203.221C53.7135 205.994 53.2851 210.525 49.9924 212.537C49.9376 212.472 49.8878 212.407 49.833 212.342C52.1792 209.554 52.1742 206.537 50.7047 203.375C50.7595 203.32 50.8143 203.271 50.8741 203.216V203.221Z" fill="#73B6FF"/>
<path d="M173.102 186.416C172.036 179.371 179.269 177.264 183.657 178.783C184.315 179.012 185.132 180.252 185.037 180.899C184.564 184.151 183.807 187.367 183.149 190.593C182.517 188.776 180.968 189.628 179.872 189.633C177.042 189.637 174.676 188.925 173.102 186.421V186.416Z" fill="#F39EB1"/>
<path d="M161.211 190.54C160.907 188.443 161.251 186.591 163.268 185.436C165.555 184.117 168.001 183.853 170.457 184.754C170.875 184.908 171.229 186.024 171.149 186.631C170.885 188.563 170.397 190.46 169.993 192.372C167.323 192.218 164.648 192.063 161.978 191.914L162.013 191.904C161.744 191.451 161.48 190.998 161.211 190.545V190.54Z" fill="#F39EB1"/>
<path d="M201.247 200.478H134.721V200.249H201.346C201.316 200.324 201.281 200.403 201.252 200.478H201.247Z" fill="#89CFDF"/>
<path d="M173.102 186.417C174.681 188.922 177.047 189.639 179.872 189.629C180.973 189.629 182.517 188.772 183.15 190.59C180.943 192.775 178.397 191.785 176.191 190.923C174.442 190.241 172.933 188.732 173.097 186.412H173.102V186.417Z" fill="#F1809A"/>
<path d="M152.559 191.854C153.057 190.614 153.191 189.329 153.759 189.095C154.691 188.707 155.961 188.806 156.972 189.095C157.42 189.225 157.779 190.31 157.804 190.972C157.814 191.251 156.862 191.739 156.305 191.814C155.273 191.953 154.212 191.854 152.559 191.854Z" fill="#FBE2E7"/>
<path d="M161.979 191.909C164.649 192.064 167.319 192.218 169.994 192.367C169.545 192.795 169.082 193.607 168.649 193.592C166.327 193.507 163.682 194.449 161.979 191.909Z" fill="#F1809A"/>
<path d="M50.7056 203.381C52.1801 206.537 52.1801 209.555 49.8339 212.348C42.2772 217.113 34.0928 216.849 25.8537 215.032C23.6668 214.549 21.4651 213.2 19.7615 211.691C16.6631 208.947 17.0666 204.451 20.683 202.435C23.3381 200.951 26.3717 199.841 29.3705 199.323C35.1887 198.312 41.0368 198.601 46.5661 201.036C48.0107 201.673 49.3307 202.594 50.7056 203.386V203.381ZM24.1799 204.566C22.4763 205.557 22.6706 207.035 23.2484 208.519C24.2895 211.203 28.3892 213.12 32.4988 212.682C30.7752 212.174 29.3456 211.93 28.0903 211.327C26.7503 210.685 25.1513 209.953 24.4539 208.793C23.8412 207.767 24.3194 206.094 24.3144 204.705C24.4688 204.561 24.6233 204.411 24.7727 204.267C29.9633 201.21 35.4328 200.822 41.1314 202.544C45.0468 203.729 46.1875 205.676 45.2162 209.57C42.3369 210.7 39.4627 211.83 36.5287 212.98C39.8861 212.99 43.0642 212.627 45.3656 209.744C47.5375 207.488 47.0443 204.471 43.921 202.868C38.0181 199.831 31.9608 199.821 25.9632 202.709C25.4153 202.972 25.0616 203.635 24.6233 204.113C24.4738 204.262 24.3244 204.416 24.1749 204.566H24.1799Z" fill="#0C2C7E"/>
<path d="M92.9222 211.048C90.287 211.905 87.7017 213.1 84.9969 213.538C80.3542 214.29 75.6817 214.101 71.592 211.327C67.861 208.798 68.0852 204.879 72.1201 202.923C77.8984 200.124 83.9159 200.174 89.8437 202.315C91.368 202.863 92.7528 204.262 93.784 205.591C95.2734 207.518 93.5747 209.271 92.9222 211.048ZM89.3506 209.301C91.0293 207.498 90.9595 205.94 89.1264 204.312C85.5498 201.135 77.2409 201.344 73.8785 204.705C72.4339 206.149 72.1649 207.673 73.6344 209.281C75.7963 212.238 79.1139 212.418 82.2123 212.283C84.7777 212.174 87.7615 212.124 89.3555 209.296L89.3506 209.301Z" fill="#0C2C7E"/>
<path d="M44.8173 185.416C38.6504 188.269 32.3988 188.648 26.0924 185.924C23.3178 184.724 22.9392 183.748 23.8607 180.96C29.0712 177.564 34.7799 177.724 40.5682 178.69C41.5943 178.859 42.6006 179.327 43.5421 179.815C46.3615 181.269 46.6753 182.758 44.8173 185.416ZM28.3091 184.157C31.1634 186.537 37.8683 186.85 40.6877 184.734C42.2469 183.564 42.2967 182.339 40.8372 181.264C40.7126 180.99 40.6529 180.641 40.4486 180.462C38.0675 178.411 30.5108 178.605 28.3489 180.841C27.3925 181.831 26.8496 183.036 28.3091 184.157Z" fill="#0C2C7E"/>
<path d="M24.623 204.107C25.0664 203.629 25.4201 202.967 25.968 202.703C31.9656 199.815 38.0229 199.83 43.9258 202.863C47.0491 204.471 47.5422 207.488 45.3704 209.739C45.3205 209.679 45.2707 209.624 45.2159 209.565C46.1923 205.671 45.0466 203.724 41.1362 202.539C35.4376 200.816 29.968 201.205 24.7775 204.257L24.623 204.102V204.107Z" fill="#73B6FF"/>
<path d="M24.3189 204.705C24.3189 206.094 23.8407 207.767 24.4534 208.793C25.1508 209.958 26.7498 210.685 28.0898 211.327C29.3451 211.929 30.7748 212.168 32.4983 212.681C28.3887 213.119 24.2891 211.203 23.248 208.519C22.6701 207.035 22.4758 205.556 24.1795 204.565L24.3189 204.705Z" fill="#73B6FF"/>
<path d="M45.3701 209.744C43.0687 212.626 39.8906 212.99 36.5332 212.98C39.4672 211.83 42.3415 210.7 45.2157 209.569C45.2655 209.629 45.3153 209.684 45.3651 209.744H45.3701Z" fill="#73B6FF"/>
<path d="M24.1797 204.565C24.3291 204.416 24.4786 204.262 24.628 204.112C24.628 204.112 24.7824 204.262 24.7824 204.267C24.628 204.416 24.4736 204.56 24.3241 204.71L24.1847 204.57H24.1797V204.565Z" fill="#89CFDF"/>
<path d="M73.6241 209.286C72.1596 207.678 72.4236 206.149 73.8732 204.71C77.2406 201.349 85.5445 201.14 89.1211 204.317C90.9542 205.945 91.024 207.503 89.3453 209.306L89.2008 209.171C89.8384 206.054 89.2755 205.084 86.2967 203.824C83.3577 202.579 80.4087 202.773 77.4548 203.645C74.3066 204.576 73.5096 205.82 73.7935 209.117C73.7337 209.171 73.6789 209.231 73.6191 209.286H73.6241Z" fill="#73B6FF"/>
<path d="M89.351 209.305C87.752 212.133 84.7732 212.178 82.2078 212.293C79.1094 212.427 75.7918 212.248 73.6299 209.29C73.6897 209.236 73.7445 209.181 73.8042 209.126C78.93 212.183 84.0658 212.427 89.2115 209.176L89.356 209.31L89.351 209.305Z" fill="#73B6FF"/>
<path d="M40.8421 181.264C42.3016 182.339 42.2468 183.564 40.6926 184.734C37.8732 186.85 31.1683 186.541 28.314 184.157C28.3787 184.092 28.4485 184.032 28.5132 183.967C29.1508 184.191 29.7835 184.42 30.4211 184.644C33.5344 185.745 36.583 185.665 39.5917 184.241C40.8969 183.624 41.4548 182.782 40.6976 181.398L40.847 181.264H40.8421Z" fill="#73B6FF"/>
<path d="M28.309 184.156C26.8544 183.036 27.3924 181.831 28.3488 180.84C30.5057 178.605 38.0674 178.41 40.4485 180.462C40.6577 180.641 40.7125 180.994 40.8371 181.263L40.6926 181.398C38.2268 179.944 35.522 179.795 32.7623 180.004C29.5842 180.248 28.3189 181.438 28.5032 183.967C28.4385 184.032 28.3737 184.096 28.304 184.156H28.309Z" fill="#73B6FF"/>
<path d="M89.2063 209.171C84.0605 212.422 78.9248 212.174 73.799 209.121C73.515 205.825 74.312 204.575 77.4602 203.644C80.4142 202.773 83.3631 202.579 86.3021 203.824C89.281 205.083 89.8439 206.054 89.2063 209.171Z" fill="#D5D7D7"/>
<path d="M28.5082 183.967C28.3239 181.437 29.5891 180.247 32.7672 180.003C35.5269 179.789 38.2268 179.939 40.6975 181.398C41.4547 182.782 40.8968 183.623 39.5917 184.241C36.5829 185.665 33.5294 185.744 30.421 184.644C29.7834 184.42 29.1508 184.196 28.5132 183.967H28.5082Z" fill="#D5D7D7"/>
</g>
<defs>
<clipPath id="clip0_1365_9565">
<rect width="293.401" height="238" fill="white"/>
</clipPath>
</defs>
</svg>
