<svg width="296" height="259" viewBox="0 0 296 259" fill="none" xmlns="http://www.w3.org/2000/svg">
<path d="M132.771 33.1569C134.575 31.6894 136.379 30.2219 138.184 28.7487C144.345 23.7238 150.363 18.5162 156.702 13.7311C163.788 8.38079 171.731 4.71492 180.341 2.29384C187.496 0.283889 194.737 -0.361351 202.017 0.186817C219.416 1.49443 233.816 8.11242 243.729 23.4154C248.577 30.9071 247.452 38.5243 246.122 46.153C244.437 55.8487 244.117 65.4074 245.145 75.1831C245.967 82.9716 249.902 89.3213 253.453 95.8079C258.998 105.943 265.445 115.593 270.898 125.774C275.894 135.105 278.629 145.274 279.617 155.872C280.633 166.773 279.977 177.554 278.635 188.431C277.15 200.491 273.587 211.717 268.077 222.401C263.983 230.343 258.975 237.686 252.842 244.242C251.318 245.869 250.124 247.805 248.777 249.598C242.29 249.626 235.798 249.655 229.311 249.683C228.083 247.559 226.85 245.429 225.622 243.305C227.878 244.424 229.517 245.972 231.315 247.314C232.903 248.496 234.707 248.781 236.192 247.131C237.665 245.492 236.392 244.179 235.432 242.877C234.433 241.524 233.451 240.159 232.463 238.8C232.777 238.537 233.097 238.269 233.411 238.006C235.13 239.542 236.808 241.135 238.59 242.597C240.097 243.836 241.719 244.07 243.078 242.334C244.477 240.553 243.055 239.662 241.868 238.634C240.543 237.492 239.332 236.219 237.773 234.717C238.761 234.466 239.001 234.323 239.104 234.386C240.451 235.265 241.748 236.219 243.112 237.064C244.888 238.166 248.24 237.738 249.057 236.11C250.244 233.746 247.817 233.415 246.636 232.422C246.367 232.199 246.047 232.033 244.997 231.348C247.863 231.148 249.907 231.108 251.917 230.829C253.585 230.594 255.315 230.298 256.811 229.595C257.65 229.201 258.724 227.705 258.524 227.088C258.216 226.141 256.994 225.33 255.972 224.844C255.303 224.525 254.304 224.81 253.47 224.936C251.837 225.187 250.221 225.524 248.594 225.827C249.485 224.479 250.735 223.805 251.712 222.852C252.357 222.224 252.62 221.201 253.054 220.356C252.037 220.077 250.867 219.351 250.033 219.631C248.748 220.059 247.675 221.161 246.533 222.001C245.248 222.949 243.992 223.925 242.718 224.89C242.581 224.736 242.439 224.576 242.302 224.422C243.524 222.989 244.814 221.607 245.927 220.094C246.424 219.42 246.55 218.478 246.847 217.655C245.79 217.49 244.511 216.873 243.723 217.256C242.33 217.935 241.137 219.134 240.035 220.282C238.79 221.573 237.733 223.04 236.591 224.428L236.089 223.799C236.677 221.584 237.271 219.368 237.859 217.153C238.11 216.365 238.356 215.571 238.664 214.606C235.678 213.71 232.903 212.876 230.133 212.048C233.017 211.243 235.752 211.083 238.47 210.746C239.544 210.609 240.965 210.392 241.548 209.667C244.306 206.23 246.824 202.609 249.485 198.978C248.154 198.156 246.99 197.436 245.83 196.717C247.195 195.986 248.309 196.02 249.399 195.86C250.77 195.66 252.471 195.723 253.413 194.935C256.091 192.708 258.45 190.11 260.939 187.655L260.979 187.592C261.505 187.283 262.024 186.981 262.55 186.673C262.475 186.535 262.401 186.398 262.327 186.261C261.607 186.324 260.888 186.393 260.163 186.456C249.411 187.455 238.927 189.55 228.672 193.656C229.836 194.969 230.767 196.02 231.698 197.076C231.578 197.185 231.47 197.299 231.361 197.419C229.328 196.951 227.295 196.482 225.268 196.008C225.828 194.946 226.29 193.827 226.959 192.845C228.649 190.367 230.43 187.957 232.172 185.519C231.932 185.348 231.692 185.182 231.452 185.011C229.225 188.123 226.993 191.241 224.766 194.353C224.406 194.552 224.052 194.752 223.692 194.946L223.493 194.747C224.4 192.891 225.314 191.029 226.222 189.174C228.837 183.646 231.452 178.125 234.073 172.597C240.691 167.127 246.807 161.245 247.509 152.007C248.034 145.126 244.066 131.736 240.903 128.333C240.68 133.078 239.292 137.44 236.42 141.306C229.123 151.122 227.781 161.52 233.4 172.586C231.121 177.177 228.871 181.779 226.53 186.336C226.199 186.981 225.405 187.386 224.823 187.9C224.754 187.832 224.697 187.746 224.617 187.706C224.549 187.672 224.389 187.666 224.378 187.695C223.909 188.797 223.43 189.887 223.007 191.006C221.591 194.781 219.924 198.361 216.178 200.445C216.178 186.204 216.178 171.969 216.178 157.728C216.366 157.728 216.56 157.728 216.749 157.728C217.097 161.548 217.76 165.374 217.714 169.194C217.651 174.407 220.352 177.696 224.372 180.271C224.794 180.54 226.153 180.289 226.222 180.032C227.067 177.074 228.477 174.03 228.329 171.084C227.952 163.729 222.922 159.601 216.749 156.62C216.378 154.782 215.658 152.937 215.693 151.11C215.944 139.159 216.538 127.213 216.675 115.262C216.857 99.4167 216.795 83.5712 216.698 67.7257C216.646 59.6859 216.886 51.6747 215.767 43.612C214.825 36.8341 211.341 32.6715 204.329 32.6658C190.157 32.6658 175.979 32.603 161.806 32.6829C152.122 32.7343 142.444 32.9741 132.759 33.1283L132.771 33.1569ZM241.919 173.802C243.078 173.631 243.992 173.574 244.877 173.357C250.667 171.94 255.104 167.972 259.66 160.172C247.977 161.771 242.815 165.597 241.919 173.802ZM234.456 182.778C234.262 182.584 234.062 182.396 233.868 182.202C233.325 182.881 232.783 183.561 232.235 184.24C232.406 184.383 232.577 184.526 232.754 184.668C233.32 184.04 233.891 183.406 234.456 182.778ZM235.992 180.694C235.815 180.534 235.638 180.38 235.461 180.22C235.17 180.66 234.884 181.105 234.593 181.545C234.707 181.63 234.821 181.716 234.941 181.802C235.29 181.431 235.644 181.065 235.992 180.694ZM224.258 186.456C224.389 186.507 224.515 186.553 224.646 186.604C224.8 186.318 224.96 186.039 225.114 185.753C224.903 185.673 224.692 185.593 224.475 185.513C224.4 185.827 224.326 186.141 224.258 186.456ZM225.166 181.967C225.097 182.127 224.937 182.321 224.983 182.436C225.029 182.55 225.28 182.584 225.44 182.658C225.508 182.498 225.668 182.304 225.622 182.19C225.577 182.076 225.325 182.036 225.166 181.967Z" fill="#FFDAB9"/>
<path d="M36.8299 249.569C33.735 238.457 30.3946 227.408 27.6195 216.222C25.7123 208.525 23.9079 200.616 25.0271 192.656C25.6724 188.065 27.4767 183.537 29.3782 179.255C31.9991 173.368 35.2653 167.766 38.1603 161.993C41.1752 155.986 43.3508 149.648 42.4714 142.864C41.6606 136.606 40.0218 130.456 38.9654 124.221C37.4009 115.016 35.7906 105.812 34.6772 96.5499C34.1119 91.8163 34.2318 86.9227 34.6886 82.1662C35.1397 77.4611 37.5379 73.3384 40.6385 69.7982C49.6947 59.4515 61.6516 54.2211 74.6478 51.0006C78.759 49.9842 82.9845 49.4474 87.1585 48.688C87.1471 73.2071 87.1357 97.7262 87.1357 122.251C87.1357 127.858 87.2099 133.46 87.2442 139.067C83.8296 143.949 83.9609 147.393 87.7124 151.43C87.7695 159.132 87.8266 166.83 87.8837 174.533C86.1935 181.545 84.5091 188.562 82.6818 196.151C81.3685 192.999 80.2208 190.241 79.0674 187.489C78.6619 185.741 78.3536 183.96 77.8283 182.247C77.1659 180.077 77.5542 178.695 79.5927 177.239C83.1386 174.704 85.1372 171.198 84.9088 166.516C84.7203 162.61 85.0801 158.676 85.1943 154.964C76.3608 158.036 71.5415 167.578 75.4243 176.211C76.4693 178.541 76.572 181.288 77.1031 183.846L75.8469 184.217C73.6314 179.763 71.4216 175.309 69.206 170.855C69.2917 170.301 69.3773 169.748 69.4573 169.188C70.0112 168.109 70.7135 167.075 71.0961 165.939C74.2024 156.586 72.5407 147.952 66.8078 140.101C64.2326 136.572 62.2626 132.9 61.8572 128.492C61.8001 127.875 61.5031 127.276 61.1605 126.168C58.1456 132.438 55.9015 138.445 55.1935 144.909C54.6796 149.591 54.6853 154.41 57.6146 158.356C60.4753 162.21 63.9185 165.625 67.1047 169.234C67.6301 169.833 68.1497 170.433 68.675 171.027C71.5643 176.902 74.4479 182.778 77.3372 188.659C77.5656 189.396 77.7997 190.127 78.0281 190.863C77.3372 190.378 76.5606 189.978 75.9782 189.384C75.0246 188.414 74.1909 187.323 73.3116 186.284C73.1289 186.455 72.9404 186.627 72.7577 186.798C74.4308 188.939 76.0981 191.086 77.7712 193.227C75.4757 194.17 73.186 195.117 70.8905 196.06C70.7592 195.808 70.6336 195.557 70.5022 195.306C71.5871 194.095 72.6721 192.885 73.8826 191.537C63.4902 187.283 52.9266 185.005 41.9804 184.434C41.3808 184.308 40.7812 184.188 40.1874 184.063C41.712 186.033 43.6477 187.409 45.1723 189.15C47.936 192.308 50.968 194.524 55.439 193.741C55.8273 193.673 56.2727 193.924 57.5917 194.244C55.5875 195.352 54.297 196.065 53.0408 196.762C55.4676 200.057 57.9001 203.112 60.0356 206.355C61.1206 207.999 62.3596 208.548 64.2383 208.61C66.8877 208.696 69.5258 209.119 72.1639 209.398C72.1639 209.615 72.1582 209.838 72.1524 210.055C69.5486 210.826 66.9448 211.597 64.027 212.453C64.3125 213.367 64.5523 214.143 64.7921 214.914C65.1576 216.839 65.5173 218.757 65.8828 220.681L64.8664 221.601C64.1069 220.425 63.496 219.117 62.5595 218.101C61.4803 216.936 60.2241 215.822 58.8308 215.103C58.0942 214.726 56.9008 215.251 55.913 215.365C56.1699 216.279 56.2213 217.335 56.7295 218.083C57.6831 219.482 58.8936 220.704 60.0014 222.001C59.8358 222.16 59.6702 222.32 59.4989 222.48C57.489 220.916 55.6046 219.128 53.412 217.889C52.4698 217.358 50.8938 217.941 49.609 218.021C50.18 219.043 50.6197 220.179 51.362 221.053C52.053 221.869 53.0693 222.412 53.943 223.08C51.579 223.222 49.5234 222.532 47.5191 222.646C46.2686 222.714 45.0924 224.01 43.8818 224.753C44.6127 225.741 45.1552 227.037 46.1259 227.642C47.1765 228.299 48.6155 228.424 49.9117 228.59C52.11 228.87 54.3256 228.995 57.1635 229.235C56.2441 229.932 55.833 230.143 55.5646 230.469C54.7367 231.468 53.9658 232.513 53.1721 233.541C54.5597 234.266 55.8958 235.134 57.3576 235.642C57.8887 235.825 58.7737 235.254 59.3961 234.865C60.8408 233.969 62.2226 232.97 63.633 232.016C63.6216 232.724 63.6045 233.432 63.593 234.134C62.3482 235.151 61.0977 236.167 59.8529 237.189C58.1513 238.583 58.768 239.873 60.1898 240.895C61.8572 242.1 63.2047 241.369 64.2782 239.867C64.8321 240.924 65.3746 241.98 65.9342 243.025C66.391 243.876 66.7222 244.858 67.3731 245.526C68.8006 246.988 70.3995 248.29 71.924 249.654C60.2241 249.614 48.5241 249.575 36.8242 249.54L36.8299 249.569ZM42.8026 157.99C44.5385 160.303 46.3029 162.821 48.2386 165.202C51.5276 169.245 55.7474 171.483 60.9721 171.62C59.1106 160.943 50.9338 159.247 42.7969 157.99H42.8026ZM71.6785 183.943C71.5015 184.086 71.3302 184.228 71.1532 184.377C71.5415 184.839 71.9298 185.302 72.3237 185.764C72.4551 185.667 72.5921 185.564 72.7235 185.467C72.3751 184.959 72.0268 184.451 71.6785 183.943ZM70.5936 183.52C70.7135 183.446 70.8277 183.372 70.9476 183.303C70.7535 183.001 70.5536 182.698 70.3595 182.395C70.2339 182.47 70.1082 182.55 69.9883 182.624C70.1939 182.921 70.3937 183.218 70.5993 183.52H70.5936Z" fill="#FFDAB9"/>
<path d="M87.2501 139.068C87.2101 133.46 87.1416 127.859 87.1416 122.251C87.1416 97.7322 87.153 73.2131 87.1644 48.6883C87.3415 47.7975 87.7469 46.8782 87.6612 46.0103C87.0445 39.9405 93.8281 33.351 99.8465 33.6879C107.224 34.099 114.641 33.8478 122.036 33.7507C125.616 33.705 129.196 33.3624 132.777 33.1512C142.455 32.997 152.14 32.7572 161.818 32.7058C175.991 32.6315 190.169 32.6829 204.341 32.6886C211.353 32.6886 214.836 36.857 215.778 43.6349C216.898 51.6975 216.658 59.7145 216.709 67.7486C216.806 83.5941 216.869 99.4395 216.686 115.285C216.549 127.236 215.955 139.182 215.704 151.133C215.664 152.96 216.389 154.805 216.761 156.643C216.766 156.82 216.766 157.003 216.761 157.18C216.572 157.18 216.384 157.18 216.195 157.18C216.115 157.134 216.03 157.094 215.95 157.049C216.03 157.094 216.11 157.134 216.195 157.18C216.195 157.368 216.195 157.557 216.195 157.751C216.195 171.992 216.195 186.227 216.195 200.468C216.075 206.572 215.955 212.682 215.836 218.786C215.95 222.435 216.064 226.078 216.178 229.727C216.047 232.753 215.915 235.774 215.784 238.8L215.71 240.045C215.162 243.945 212.375 246.434 209.96 249.158C206.34 249.341 202.714 249.523 199.094 249.706C201.418 247.862 203.599 245.795 206.111 244.247C208.549 242.746 211.319 241.786 213.94 240.587C214.705 238.434 212.786 238.577 211.787 238.389C210.228 238.098 208.589 238.257 206.979 238.223C207.584 235.768 208.704 233.312 208.715 230.851C208.829 195.934 208.795 161.017 208.789 126.1C208.789 118.203 208.801 110.306 208.715 102.409C208.595 90.726 208.384 79.0431 208.241 67.3603C208.178 62.1698 208.487 56.9622 208.127 51.7946C207.596 44.1431 204.187 42.1217 197.923 40.9055C194.948 40.3287 191.716 41.1795 188.598 41.2366C184.504 41.3109 184.065 41.7563 183.596 45.9532C183.385 47.8603 183.288 50.1044 180.541 50.3785C178.754 50.5612 176.967 50.8867 175.18 50.8924C157.867 50.9381 140.554 50.9152 123.241 50.9552C121.328 50.9552 120.757 50.053 120.808 48.3114C120.877 46.0617 120.825 43.8062 120.825 41.2309C115.624 41.2309 110.798 41.2309 105.973 41.2309C105.214 41.2309 104.437 41.1853 103.701 41.3337C98.3676 42.4015 95.1414 46.8211 95.13 53.1022C95.0958 80.7904 95.0786 108.473 95.0615 136.161C92.018 135.95 89.4313 136.949 87.2558 139.068H87.2501Z" fill="#FFA653"/>
<path d="M199.082 249.706C202.702 249.523 206.328 249.34 209.948 249.158C211.05 249.34 212.147 249.666 213.249 249.672C218.599 249.723 223.95 249.694 229.3 249.689C235.787 249.66 242.279 249.632 248.766 249.603C259.518 249.626 270.27 249.643 281.022 249.672C285.481 249.683 289.41 251.242 292.745 254.12C293.795 255.028 294.412 256.444 295.548 258.083H0C2.39253 253.737 5.89852 251.516 10.084 250.374C12.1568 249.809 14.4008 249.729 16.5707 249.694C23.3257 249.586 30.0807 249.597 36.83 249.563C48.53 249.603 60.23 249.637 71.9299 249.677C75.6472 252.761 79.7071 255.256 84.6634 255.405C93.9594 255.684 103.29 256.204 112.557 255.747C123.349 255.216 134.039 254.125 144.933 254.611C157.713 255.176 170.572 254.108 183.391 253.629C184.299 253.594 185.172 252.578 186.057 252.018C187.057 252.201 188.319 252.064 189.015 252.624C192.801 255.65 195.331 253.606 197.769 250.734C198.123 250.317 198.637 250.043 199.082 249.7V249.706Z" fill="#73B6FF"/>
<path d="M229.306 249.689C223.955 249.689 218.605 249.723 213.255 249.672C212.152 249.66 211.056 249.335 209.954 249.158C212.369 246.434 215.156 243.95 215.704 240.045C216.178 239.919 216.658 239.788 217.845 239.474C216.692 239.097 216.235 238.948 215.778 238.8C215.91 235.773 216.041 232.753 216.172 229.726C216.703 228.841 217.229 227.962 217.76 227.077C218.822 225.318 219.758 223.457 221.02 221.852C221.534 221.201 222.762 221.11 223.664 220.762C223.71 221.727 223.921 222.72 223.75 223.645C223.567 224.65 222.996 225.581 222.659 226.563C222.362 227.42 222.151 228.31 221.905 229.184C225.177 225.724 224.96 219.842 231.31 218.055C230.259 221.401 229.414 224.091 228.563 226.78C230.076 224.976 230.95 222.92 232.024 220.967C233.268 218.712 234.587 216.405 237.848 217.164C237.26 219.38 236.666 221.595 236.078 223.811L236.58 224.439C237.722 223.051 238.779 221.578 240.023 220.293C241.131 219.146 242.319 217.947 243.712 217.267C244.5 216.884 245.779 217.501 246.836 217.667C246.539 218.489 246.413 219.431 245.916 220.105C244.803 221.618 243.512 223 242.29 224.439C242.21 224.639 242.136 224.833 242.056 225.027C242.273 224.987 242.49 224.947 242.707 224.901C243.975 223.936 245.237 222.96 246.521 222.012C247.664 221.167 248.731 220.071 250.022 219.642C250.855 219.363 252.02 220.094 253.042 220.368C252.608 221.213 252.346 222.235 251.701 222.863C250.718 223.811 249.474 224.485 248.583 225.838C250.21 225.535 251.826 225.198 253.459 224.947C254.293 224.816 255.292 224.53 255.96 224.856C256.977 225.341 258.199 226.158 258.513 227.1C258.713 227.716 257.639 229.213 256.8 229.607C255.304 230.309 253.573 230.606 251.906 230.84C249.896 231.12 247.852 231.16 244.985 231.36C246.036 232.045 246.356 232.21 246.624 232.433C247.806 233.427 250.233 233.758 249.045 236.122C248.229 237.749 244.877 238.177 243.101 237.075C241.736 236.224 240.435 235.277 239.093 234.397C238.99 234.329 238.756 234.472 237.762 234.728C239.321 236.23 240.532 237.504 241.856 238.646C243.044 239.673 244.46 240.564 243.067 242.346C241.708 244.076 240.086 243.847 238.579 242.608C236.797 241.147 235.124 239.553 233.4 238.017C233.086 238.28 232.766 238.549 232.452 238.811C233.44 240.17 234.422 241.535 235.421 242.888C236.38 244.19 237.654 245.503 236.181 247.142C234.696 248.798 232.892 248.507 231.304 247.325C229.505 245.983 227.861 244.436 225.611 243.316C226.839 245.441 228.072 247.57 229.3 249.695L229.306 249.689ZM238.362 229.395C231.19 231.148 224.355 233.952 218.388 238.64C225.046 235.556 231.704 232.479 238.362 229.395ZM243.324 228.385C243.044 228.225 242.873 228.053 242.764 228.088C242.639 228.128 242.57 228.345 242.473 228.482C242.713 228.453 242.947 228.425 243.324 228.385ZM240.035 228.756C240.035 228.83 240.035 228.904 240.035 228.984H240.891C240.891 228.91 240.891 228.836 240.891 228.756H240.035Z" fill="#91855C"/>
<path d="M237.853 217.164C234.593 216.405 233.274 218.712 232.029 220.967C230.955 222.914 230.076 224.976 228.568 226.78C229.414 224.091 230.259 221.401 231.315 218.055C224.965 219.848 225.182 225.724 221.91 229.184C222.156 228.31 222.367 227.425 222.664 226.563C223.001 225.581 223.572 224.65 223.755 223.645C223.926 222.72 223.709 221.727 223.669 220.762C222.767 221.11 221.539 221.196 221.025 221.852C219.764 223.457 218.827 225.318 217.765 227.077C217.234 227.956 216.709 228.841 216.178 229.727C216.063 226.078 215.949 222.435 215.835 218.786C216.337 218.426 216.948 218.146 217.32 217.684C219.735 214.675 221.831 211.363 224.52 208.633C232.428 200.628 241.679 194.478 252.071 190.161C254.886 188.991 257.975 188.483 260.933 187.666C258.449 190.121 256.085 192.719 253.407 194.946C252.459 195.734 250.764 195.672 249.393 195.871C248.308 196.031 247.189 195.997 245.824 196.728C246.989 197.447 248.148 198.161 249.479 198.989C246.818 202.621 244.294 206.247 241.542 209.678C240.959 210.404 239.538 210.626 238.464 210.758C235.746 211.1 233.011 211.254 230.127 212.06C232.897 212.893 235.672 213.721 238.658 214.618C238.356 215.583 238.104 216.371 237.853 217.164Z" fill="#AEA36F"/>
<path d="M233.4 172.609C227.781 161.542 229.123 151.144 236.42 141.329C239.292 137.463 240.68 133.101 240.903 128.355C244.066 131.759 248.034 145.149 247.509 152.029C246.807 161.263 240.691 167.15 234.068 172.62C233.845 172.62 233.622 172.62 233.394 172.614L233.4 172.609ZM235.535 167.464C235.803 167.532 236.072 167.601 236.335 167.669C237.362 163.838 238.384 160.006 239.412 156.175C239.172 156.112 238.938 156.049 238.698 155.992C237.642 159.818 236.586 163.644 235.529 167.464H235.535ZM235.729 169.48C235.444 169.285 235.272 169.103 235.078 169.063C234.987 169.046 234.73 169.32 234.741 169.44C234.759 169.657 234.93 169.856 235.033 170.062C235.221 169.902 235.409 169.742 235.729 169.474V169.48ZM239.161 154.422C239.298 154.405 239.435 154.388 239.572 154.376C239.515 153.977 239.458 153.577 239.395 153.177C239.281 153.189 239.172 153.206 239.058 153.217C239.092 153.617 239.127 154.022 239.161 154.422ZM239.686 151.436C239.84 151.453 239.995 151.464 240.149 151.481C240.086 151.104 240.018 150.728 239.955 150.351C239.863 150.362 239.778 150.374 239.686 150.391V151.441V151.436Z" fill="#AEA46F"/>
<path d="M260.933 187.672C257.97 188.489 254.881 188.997 252.071 190.168C241.679 194.484 232.428 200.634 224.52 208.64C221.825 211.363 219.729 214.681 217.32 217.69C216.948 218.158 216.332 218.432 215.835 218.792C215.955 212.688 216.075 206.578 216.195 200.474C219.935 198.39 221.608 194.81 223.024 191.036C223.441 189.916 223.926 188.826 224.394 187.724C224.406 187.695 224.566 187.701 224.634 187.735C224.714 187.775 224.771 187.861 224.84 187.929C225.308 188.352 225.771 188.774 226.239 189.197C225.331 191.053 224.417 192.914 223.509 194.77C223.469 194.935 223.435 195.107 223.395 195.272C223.498 195.17 223.601 195.067 223.709 194.97C224.069 194.77 224.423 194.57 224.783 194.376C224.948 194.93 225.114 195.478 225.279 196.032C227.312 196.5 229.345 196.968 231.378 197.437C231.583 197.482 231.783 197.534 231.983 197.585C231.892 197.419 231.8 197.259 231.709 197.094C230.778 196.043 229.842 194.987 228.683 193.674C238.938 189.568 249.427 187.472 260.174 186.473C260.448 186.85 260.722 187.233 260.99 187.609L260.95 187.672H260.933Z" fill="#91855C"/>
<path d="M216.755 157.185C216.766 157.008 216.766 156.825 216.755 156.648C222.927 159.629 227.958 163.757 228.335 171.112C228.483 174.058 227.073 177.102 226.228 180.06C226.154 180.317 224.8 180.568 224.378 180.3C220.358 177.724 217.657 174.435 217.72 169.222C217.766 165.402 217.103 161.576 216.755 157.756C216.755 157.568 216.755 157.374 216.755 157.185Z" fill="#AEA46F"/>
<path d="M241.919 173.796C242.81 165.591 247.978 161.765 259.661 160.166C255.104 167.966 250.667 171.934 244.877 173.351C243.998 173.568 243.079 173.625 241.919 173.796Z" fill="#AEA46F"/>
<path d="M226.222 189.191C225.753 188.768 225.291 188.346 224.823 187.923C225.405 187.409 226.199 186.998 226.53 186.359C228.871 181.802 231.121 177.2 233.399 172.609C233.622 172.609 233.845 172.609 234.073 172.615C231.458 178.142 228.843 183.664 226.227 189.191H226.222Z" fill="#AEA36F"/>
<path d="M225.263 196.025C225.097 195.472 224.932 194.923 224.766 194.37C226.993 191.258 229.226 188.14 231.453 185.028C231.692 185.199 231.932 185.365 232.172 185.536C230.425 187.974 228.643 190.39 226.959 192.862C226.291 193.844 225.822 194.969 225.269 196.025H225.263Z" fill="#AEA46F"/>
<path d="M234.456 182.773C233.891 183.401 233.32 184.034 232.754 184.663C232.583 184.52 232.412 184.377 232.235 184.234C232.777 183.555 233.32 182.875 233.868 182.196C234.062 182.39 234.262 182.578 234.456 182.773Z" fill="#AEA46F"/>
<path d="M235.992 180.688C235.643 181.059 235.289 181.425 234.941 181.796C234.827 181.71 234.713 181.625 234.593 181.539C234.884 181.099 235.17 180.654 235.461 180.214C235.638 180.374 235.815 180.528 235.992 180.688Z" fill="#AEA46F"/>
<path d="M260.974 187.603C260.7 187.226 260.426 186.843 260.157 186.467C260.877 186.404 261.596 186.335 262.321 186.272C262.396 186.41 262.47 186.547 262.544 186.684C262.019 186.992 261.499 187.295 260.974 187.603Z" fill="#AEA36F"/>
<path d="M224.258 186.45C224.332 186.135 224.406 185.821 224.475 185.507C224.686 185.587 224.897 185.667 225.114 185.747C224.96 186.033 224.8 186.312 224.646 186.598C224.515 186.547 224.389 186.501 224.258 186.45Z" fill="#FAEBDA"/>
<path d="M225.172 181.961C225.332 182.03 225.577 182.07 225.629 182.184C225.674 182.298 225.514 182.492 225.446 182.652C225.286 182.584 225.035 182.55 224.989 182.43C224.943 182.315 225.103 182.121 225.172 181.961Z" fill="#FAEBDA"/>
<path d="M216.755 157.186C216.755 157.374 216.755 157.569 216.755 157.757C216.567 157.757 216.373 157.757 216.184 157.757C216.184 157.569 216.184 157.38 216.184 157.186C216.373 157.186 216.561 157.186 216.749 157.186H216.755Z" fill="#EBDEC9"/>
<path d="M79.0675 187.489C80.2152 190.247 81.3686 192.999 82.682 196.151C84.5092 188.562 86.1937 181.544 87.8838 174.532C90.2878 172.551 92.6974 170.564 95.1014 168.583C95.3012 169.359 95.5011 170.136 95.7067 170.912C94.9415 171.483 94.1821 172.049 93.4169 172.62C90.4648 174.447 90.5733 177.37 91.5212 179.934C92.8231 183.469 94.5875 186.878 96.546 190.104C99.0984 194.295 102.033 198.246 104.809 202.306C103.672 203.648 102.536 204.99 101.4 206.326C97.4026 204.379 93.5882 201.844 88.8146 202.352C84.1932 201.427 80.948 202.544 79.0789 205.704C77.8912 204.984 76.5722 204.408 75.5272 203.511C68.4239 197.447 60.6924 192.434 51.9845 188.956C48.5927 187.597 45.3094 185.958 41.9805 184.445C52.9324 185.01 63.4961 187.289 73.8827 191.548C72.6779 192.896 71.5873 194.107 70.5023 195.317C70.6337 195.568 70.7593 195.82 70.8906 196.071C73.1861 195.129 75.4758 194.181 77.7713 193.239C78.0168 193.222 78.2623 193.204 78.5079 193.187C78.6449 193.273 78.7934 193.324 78.9533 193.347C79.1531 193.439 79.3473 193.524 79.5471 193.616C79.4957 193.387 79.4443 193.153 79.3987 192.925C78.9361 192.239 78.4679 191.554 78.0054 190.869H78.0339C77.8055 190.144 77.5714 189.407 77.343 188.676C77.9198 188.282 78.4907 187.888 79.0675 187.494V187.489Z" fill="#947D59"/>
<path d="M186.063 252.025C185.172 252.584 184.304 253.601 183.396 253.635C170.577 254.115 157.724 255.182 144.939 254.617C134.044 254.137 123.355 255.222 112.563 255.753C103.29 256.21 93.965 255.691 84.669 255.411C79.7126 255.262 75.6528 252.767 71.9355 249.684C70.4052 248.319 68.8121 247.017 67.3846 245.555C66.7336 244.887 66.4024 243.905 65.9456 243.054C65.3803 242.009 64.8379 240.947 64.2897 239.896C64.0613 237.984 63.8329 236.076 63.6045 234.164C63.6159 233.456 63.633 232.747 63.6445 232.045C64.0385 230.932 64.4039 229.801 64.8379 228.699C65.9742 225.81 66.5166 222.572 69.4116 220.688C73.403 220.117 77.4001 219.546 81.3914 218.98C78.9875 220.077 76.6806 221.67 74.1624 222.144C71.3873 222.669 69.7828 224.051 69.1261 226.466C66.962 234.386 68.8178 240.079 75.1845 245.738C79.3872 249.472 84.1951 252.116 89.9394 252.242C97.2255 252.396 104.529 252.516 111.803 252.185C117.913 251.905 123.983 250.637 130.093 250.409C134.684 250.237 139.303 251.145 143.917 251.334C146.304 251.431 148.713 251.008 151.112 250.826C151.488 250.831 151.871 250.843 152.248 250.848C154.715 250.848 157.187 250.86 159.654 250.866C160.162 251.06 160.676 251.442 161.178 251.419C169.407 251.083 177.629 250.7 185.857 250.323C185.932 250.894 186 251.465 186.074 252.042L186.063 252.025Z" fill="#614E38"/>
<path d="M67.1105 169.239C63.9243 165.631 60.4754 162.216 57.6203 158.362C54.6968 154.422 54.6854 149.597 55.1993 144.914C55.9073 138.451 58.1514 132.444 61.1663 126.174C61.5089 127.282 61.8058 127.881 61.8629 128.498C62.2684 132.906 64.2383 136.578 66.8136 140.106C72.5465 147.958 74.2081 156.591 71.1019 165.945C70.725 167.081 70.0169 168.114 69.4631 169.194C68.7664 168.571 68.0755 167.949 67.2533 167.212C67.2019 167.955 67.1562 168.594 67.1105 169.234V169.239ZM64.8265 157.614C64.5866 157.728 64.3468 157.836 64.107 157.95C64.9007 160.611 65.6887 163.272 66.4824 165.933C66.7394 165.859 66.9963 165.785 67.2533 165.71C66.4424 163.015 65.6316 160.314 64.8208 157.619L64.8265 157.614ZM63.7929 155.444C63.9414 155.455 64.0956 155.472 64.244 155.484C64.1812 155.113 64.1184 154.736 64.0556 154.365C63.97 154.376 63.8843 154.387 63.7929 154.404V155.449V155.444Z" fill="#AEA36F"/>
<path d="M41.9865 184.446C45.3155 185.959 48.5988 187.603 51.9905 188.956C60.6984 192.44 68.4299 197.447 75.5332 203.511C76.5782 204.402 77.8915 204.979 79.0849 205.704C76.2527 209.901 73.4262 214.104 70.594 218.301C69.0009 216.599 67.8303 214.167 64.804 214.932C64.5642 214.155 64.3243 213.384 64.0388 212.471C66.951 211.608 69.5548 210.838 72.1643 210.072C72.1643 209.855 72.17 209.633 72.1757 209.416C69.5319 209.136 66.8939 208.713 64.2501 208.628C62.3715 208.565 61.1324 208.017 60.0475 206.372C57.9119 203.129 55.4794 200.074 53.0526 196.779C54.3088 196.083 55.5993 195.369 57.6036 194.261C56.2902 193.941 55.8449 193.69 55.4509 193.759C50.9799 194.541 47.9478 192.325 45.1841 189.168C43.6595 187.426 41.7238 186.044 40.1992 184.08C40.7988 184.206 41.3983 184.326 41.9922 184.451L41.9865 184.446Z" fill="#AEA36F"/>
<path d="M64.798 214.932C67.8244 214.167 68.9949 216.593 70.5881 218.301C70.1941 219.094 69.8001 219.888 69.4061 220.682C66.5111 222.566 65.9686 225.804 64.8323 228.693C64.3983 229.795 64.0329 230.926 63.6389 232.039C62.2285 232.993 60.8466 233.992 59.402 234.889C58.7796 235.277 57.8945 235.848 57.3635 235.665C55.9017 235.157 54.5656 234.289 53.178 233.564C53.9717 232.536 54.7426 231.491 55.5705 230.492C55.8389 230.166 56.25 229.955 57.1694 229.258C54.3257 229.013 52.1102 228.887 49.9175 228.613C48.6214 228.448 47.1881 228.322 46.1318 227.665C45.161 227.06 44.6186 225.77 43.8877 224.776C45.0982 224.034 46.2802 222.737 47.525 222.669C49.5293 222.555 51.5849 223.251 53.9489 223.103C53.0752 222.441 52.0645 221.892 51.3679 221.076C50.6256 220.196 50.1859 219.066 49.6149 218.044C50.8997 217.964 52.4757 217.381 53.4178 217.912C55.6105 219.157 57.4948 220.939 59.5048 222.503C59.7446 222.646 59.9901 222.783 60.23 222.926C60.3385 223.034 60.4412 223.137 60.544 223.246C60.4983 223.074 60.4527 222.909 60.407 222.737C60.2699 222.498 60.1386 222.264 60.0016 222.024C58.8938 220.728 57.6833 219.511 56.7297 218.107C56.2215 217.359 56.1701 216.308 55.9131 215.389C56.901 215.274 58.0944 214.749 58.831 215.126C60.2242 215.84 61.4805 216.959 62.5597 218.124C63.4961 219.134 64.1128 220.442 64.8665 221.624L65.8829 220.705C65.5175 218.78 65.1578 216.862 64.7923 214.938L64.798 214.932ZM66.3569 221.276L66.197 221.184C66.1913 221.293 66.1856 221.401 66.1742 221.51C66.2313 221.487 66.3055 221.476 66.3398 221.436C66.3683 221.401 66.3512 221.333 66.3569 221.276Z" fill="#92865E"/>
<path d="M79.0673 187.489C78.4906 187.883 77.9196 188.277 77.3429 188.671C74.4536 182.795 71.57 176.919 68.6807 171.038C68.8405 170.935 69.0176 170.878 69.206 170.861C71.4215 175.315 73.6313 179.769 75.8468 184.222L77.103 183.851C76.5663 181.293 76.4692 178.541 75.4243 176.217C71.5471 167.578 76.3607 158.042 85.1942 154.97C85.08 158.681 84.7203 162.616 84.9087 166.521C85.1371 171.203 83.1386 174.715 79.5926 177.245C77.5598 178.701 77.1659 180.083 77.8282 182.253C78.3535 183.966 78.6619 185.741 79.0673 187.494V187.489ZM77.2858 185.233C77.2172 185.079 77.143 184.931 77.0745 184.776C76.9831 184.891 76.8746 184.993 76.8118 185.119C76.789 185.165 76.8803 185.336 76.9089 185.336C77.0345 185.325 77.1601 185.273 77.2858 185.233Z" fill="#AEA36F"/>
<path d="M95.1014 168.583C92.6917 170.564 90.2878 172.551 87.8839 174.533C87.8267 166.835 87.7697 159.133 87.7183 151.43C89.2257 151.624 90.7389 151.812 92.2464 152.006C93.0001 152.018 93.7595 152.029 94.5133 152.035C94.5361 152.309 94.5589 152.583 94.5818 152.857C94.5761 155.215 94.4961 157.574 94.5818 159.932C94.6731 162.616 94.9073 165.294 95.0786 167.978C95.09 168.177 95.1014 168.377 95.1128 168.577L95.1014 168.583Z" fill="#E6CAAE"/>
<path d="M92.2408 152.007C90.7334 151.812 89.2202 151.624 87.7127 151.43C83.9612 147.393 83.8299 143.95 87.2445 139.067C89.4201 136.949 92.0067 135.95 95.0502 136.161C95.9124 136.652 96.7804 137.143 97.6426 137.64C93.6512 141.603 92.1038 146.491 92.2408 152.007Z" fill="#4C4840"/>
<path d="M42.8081 157.991C50.945 159.247 59.1218 160.943 60.9833 171.621C55.7586 171.484 51.5388 169.251 48.2498 165.203C46.3141 162.821 44.544 160.303 42.8138 157.991H42.8081Z" fill="#AEA46F"/>
<path d="M63.5984 234.158C63.8268 236.071 64.0552 237.978 64.2836 239.891C63.2101 241.392 61.8625 242.123 60.1952 240.918C58.7791 239.896 58.1624 238.606 59.8583 237.213C61.1031 236.191 62.3479 235.174 63.5984 234.158Z" fill="#92865E"/>
<path d="M78.5132 193.182C78.2677 193.199 78.0222 193.216 77.7766 193.233C76.1093 191.092 74.4362 188.945 72.7632 186.803C72.9459 186.632 73.1343 186.461 73.3171 186.29C74.2021 187.329 75.0301 188.425 75.9837 189.39C76.5661 189.978 77.3427 190.384 78.0336 190.869L78.005 190.863C78.1763 191.64 78.3419 192.411 78.5132 193.187V193.182Z" fill="#AEA46F"/>
<path d="M69.2118 170.861C69.0234 170.878 68.8464 170.935 68.6865 171.038C68.1612 170.438 67.6415 169.845 67.1162 169.245C67.1619 168.605 67.2076 167.966 67.259 167.224C68.0755 167.955 68.7721 168.577 69.4688 169.205C69.3831 169.759 69.2975 170.313 69.2175 170.872L69.2118 170.861Z" fill="#92865E"/>
<path d="M71.6845 183.943C72.0328 184.451 72.3811 184.959 72.7295 185.467C72.5981 185.565 72.4611 185.667 72.3297 185.764C71.9415 185.302 71.5532 184.839 71.1592 184.377C71.3362 184.234 71.5075 184.091 71.6845 183.943Z" fill="#AEA46F"/>
<path d="M70.5993 183.52C70.3937 183.223 70.1938 182.927 69.9883 182.624C70.1139 182.55 70.2395 182.47 70.3594 182.396C70.5536 182.698 70.7534 183.001 70.9476 183.303C70.8277 183.378 70.7135 183.452 70.5935 183.52H70.5993Z" fill="#AEA46F"/>
<path d="M97.5924 137.934C96.7302 137.443 95.8622 136.946 95 136.455C95.0228 108.767 95.04 81.0845 95.0685 53.3963C95.0742 47.1152 98.3061 42.6956 103.639 41.6278C104.376 41.4794 105.153 41.5251 105.912 41.5251C110.737 41.5194 115.562 41.5251 120.764 41.5251C120.764 44.1003 120.815 46.3558 120.747 48.6056C120.695 50.3471 121.266 51.2551 123.179 51.2493C140.492 51.2094 157.805 51.2322 175.118 51.1865C176.905 51.1865 178.693 50.8553 180.48 50.6726C183.221 50.3985 183.318 48.1488 183.535 46.2473C184.003 42.0504 184.437 41.605 188.537 41.5308C191.655 41.4737 194.887 40.6229 197.861 41.1996C204.131 42.4158 207.534 44.4372 208.065 52.0887C208.425 57.2563 208.117 62.4639 208.18 67.6544C208.317 79.3372 208.534 91.0201 208.654 102.703C208.733 110.6 208.722 118.497 208.728 126.394C208.733 161.311 208.768 196.228 208.654 231.146C208.648 233.607 207.523 236.062 206.918 238.517C199.443 239.956 191.969 241.395 184.5 242.834C182.621 242.394 180.765 241.732 178.87 241.561C171.544 240.916 164.201 240.43 156.869 239.888C154.727 238.666 152.58 237.444 150.439 236.222C151.65 236.039 152.883 235.948 154.071 235.651C158.787 234.475 161.831 229.644 161.351 224.202C160.94 219.554 156.795 215.563 152.249 215.089C144.752 214.301 138.728 220.171 140.355 228.365C136.33 224.002 132.27 219.674 128.296 215.266C126.988 213.815 125.909 212.16 124.727 210.595C147.664 210.595 170.602 210.458 193.533 210.703C198.393 210.755 201.419 207.466 201.402 202.938C201.236 159.821 201.31 116.704 201.322 73.5815C201.333 71.3945 201.373 69.2076 201.356 67.0263C201.327 62.8579 199.677 61.1221 195.509 61.0536C190.952 60.9793 186.39 61.0193 181.828 61.0364C172.332 61.0821 162.836 61.1449 153.34 61.202C137.7 61.1563 122.066 61.0364 106.432 61.1221C103.36 61.1392 101.949 63.0407 101.881 66.2269C101.824 68.6879 101.892 71.1547 101.903 73.6215C101.915 94.7145 101.926 115.808 101.938 136.901C100.801 137.54 99.6709 138.174 98.5345 138.813C98.2262 138.517 97.9179 138.22 97.6095 137.923L97.5924 137.934ZM188.737 226.646C188.931 227.611 189.034 228.605 189.348 229.53C189.525 230.049 190.05 230.455 190.421 230.911C190.781 230.443 191.426 229.986 191.449 229.501C191.558 227.16 191.558 224.807 191.438 222.461C191.415 222.015 190.701 221.604 190.307 221.181C189.982 221.581 189.519 221.929 189.359 222.386C189.057 223.231 188.931 224.134 188.731 225.013C186.476 223.74 184.22 222.466 181.582 220.982C181.388 222.786 181.268 223.882 181.131 225.121C178.601 223.797 176.169 222.529 173.445 221.107V230.655C176.157 229.221 178.539 227.971 181.057 226.64C181.251 227.919 181.399 228.907 181.662 230.637C184.243 229.181 186.487 227.908 188.737 226.64V226.646Z" fill="#FDF2E2"/>
<path d="M184.55 242.54C192.024 241.101 199.499 239.662 206.973 238.223C208.578 238.258 210.216 238.103 211.775 238.389C212.774 238.572 214.693 238.429 213.928 240.587C212.889 240.633 211.752 240.427 210.822 240.776C205.266 242.826 200.144 245.549 196.078 250.066C193.8 252.601 192.144 252.504 189.34 250.643C188.301 249.952 186.976 249.689 185.783 249.232C185.372 247.005 184.955 244.779 184.538 242.557L184.55 242.54Z" fill="#EBB797"/>
<path d="M185.789 249.221C186.982 249.678 188.307 249.94 189.346 250.631C192.15 252.493 193.806 252.59 196.084 250.054C200.144 245.538 205.266 242.814 210.828 240.764C211.759 240.421 212.889 240.627 213.934 240.576C211.313 241.775 208.544 242.734 206.106 244.236C203.599 245.783 201.418 247.856 199.088 249.695C198.648 250.037 198.129 250.311 197.775 250.728C195.336 253.6 192.807 255.645 189.021 252.618C188.319 252.059 187.062 252.196 186.063 252.013C185.989 251.442 185.92 250.871 185.846 250.294C185.829 249.934 185.806 249.569 185.789 249.209V249.221Z" fill="#D3A383"/>
<path d="M215.778 238.8C216.235 238.948 216.692 239.097 217.845 239.474C216.658 239.793 216.178 239.919 215.704 240.045C215.727 239.628 215.755 239.217 215.778 238.8Z" fill="#AEA36F"/>
<path d="M216.184 157.186C216.104 157.14 216.024 157.1 215.938 157.055C216.018 157.1 216.104 157.14 216.184 157.186Z" fill="#EBDEC9"/>
<path d="M238.362 229.396C231.704 232.479 225.046 235.557 218.388 238.64C224.355 233.952 231.19 231.154 238.362 229.396Z" fill="#AEA36F"/>
<path d="M243.324 228.385C242.953 228.431 242.713 228.453 242.473 228.482C242.565 228.345 242.639 228.128 242.764 228.088C242.867 228.054 243.038 228.225 243.324 228.385Z" fill="#AEA36F"/>
<path d="M240.035 228.756H240.891C240.891 228.83 240.891 228.904 240.891 228.984H240.035C240.035 228.91 240.035 228.836 240.035 228.756Z" fill="#AEA36F"/>
<path d="M242.718 224.901C242.501 224.941 242.284 224.981 242.067 225.027C242.147 224.833 242.222 224.633 242.301 224.439C242.439 224.593 242.581 224.753 242.718 224.907V224.901Z" fill="#FEEFDF"/>
<path d="M235.535 167.464C236.591 163.638 237.647 159.812 238.704 155.992C238.944 156.055 239.178 156.118 239.418 156.175C238.39 160.006 237.368 163.838 236.34 167.669C236.071 167.601 235.803 167.532 235.54 167.464H235.535Z" fill="#92865E"/>
<path d="M235.724 169.48C235.41 169.748 235.216 169.908 235.027 170.068C234.919 169.862 234.753 169.657 234.736 169.446C234.725 169.32 234.982 169.052 235.073 169.069C235.267 169.103 235.439 169.286 235.724 169.485V169.48Z" fill="#92865E"/>
<path d="M239.156 154.422C239.121 154.022 239.087 153.617 239.053 153.217C239.167 153.206 239.275 153.189 239.39 153.177C239.447 153.577 239.504 153.977 239.567 154.376C239.43 154.393 239.293 154.411 239.156 154.422Z" fill="#92865E"/>
<path d="M239.681 151.435V150.385C239.772 150.373 239.858 150.362 239.949 150.345C240.012 150.722 240.08 151.098 240.143 151.475C239.989 151.458 239.835 151.447 239.681 151.43V151.435Z" fill="#92865E"/>
<path d="M223.687 194.964C223.584 195.066 223.481 195.169 223.373 195.266C223.413 195.101 223.453 194.929 223.487 194.764L223.681 194.964H223.687Z" fill="#FEEFDF"/>
<path d="M231.693 197.088C231.784 197.253 231.875 197.413 231.967 197.579C231.767 197.528 231.561 197.476 231.361 197.43C231.464 197.311 231.578 197.196 231.698 197.088H231.693Z" fill="#FEEFDF"/>
<path d="M150.484 235.933C152.625 237.155 154.772 238.377 156.913 239.599C155.874 240.073 154.835 240.553 153.767 241.044C155.571 243.071 157.593 245.081 159.243 247.359C159.842 248.187 159.54 249.666 159.648 250.854C157.182 250.854 154.709 250.842 152.242 250.837C149.507 247.256 147.063 243.402 143.968 240.164C138.395 234.334 132.234 229.064 126.678 223.223C116.646 212.67 106.904 201.838 99.1328 189.436C95.9181 184.308 92.3493 179.238 93.4228 172.625C94.1879 172.054 94.9474 171.489 95.7125 170.918C100.326 170.279 102.85 173.002 104.814 176.605C107.11 180.797 109.394 184.994 111.689 189.185C112.454 190.709 113.225 192.234 113.99 193.764C117.588 199.28 121.179 204.796 124.777 210.312C125.959 211.877 127.038 213.533 128.346 214.983C132.32 219.391 136.38 223.725 140.405 228.082C143.249 231.365 145.739 235.1 150.489 235.939L150.484 235.933Z" fill="#EBB797"/>
<path d="M69.4058 220.682C69.7998 219.888 70.1938 219.094 70.5878 218.301C73.42 214.104 76.2464 209.901 79.0786 205.704C80.9477 202.545 84.193 201.427 88.8143 202.352C90.8129 203.797 92.7429 205.35 94.8156 206.669C98.7956 209.199 99.5436 210.666 97.7678 215.057C96.66 217.804 94.8785 220.276 93.3995 222.874C92.6287 222.532 91.8807 222.109 91.0813 221.864C87.8608 220.87 84.6174 219.928 81.3855 218.969C77.3942 219.54 73.3971 220.111 69.4058 220.676V220.682Z" fill="#EBB797"/>
<path d="M93.4171 172.62C92.3436 179.232 95.9125 184.303 99.1272 189.43C106.899 201.833 116.64 212.665 126.673 223.217C132.229 229.058 138.39 234.329 143.963 240.159C147.058 243.396 149.502 247.257 152.237 250.831C151.86 250.825 151.477 250.814 151.1 250.808C149.519 249.118 147.874 247.485 146.372 245.726C144.26 243.254 142.25 240.69 140.194 238.16C135.609 233.889 131.018 229.618 126.062 224.999C125.97 226.951 125.908 228.299 125.816 230.269C122.864 228.779 120.392 227.522 117.919 226.272C117.976 225.878 118.033 225.478 118.096 225.084C119.695 224.108 121.294 223.131 122.864 222.172C119.078 218.124 115.407 214.201 111.735 210.272C110.599 208.988 109.462 207.708 108.326 206.424C107.156 205.048 105.979 203.677 104.809 202.301C102.039 198.247 99.0987 194.29 96.5463 190.099C94.582 186.878 92.8176 183.463 91.5214 179.929C90.5735 177.359 90.465 174.441 93.4171 172.614V172.62Z" fill="#D3A383"/>
<path d="M93.4055 222.874C94.8844 220.276 96.6603 217.804 97.7737 215.057C99.5496 210.666 98.8015 209.199 94.8216 206.669C92.7431 205.35 90.8131 203.797 88.8203 202.352C93.5939 201.838 97.4083 204.379 101.405 206.327C102.93 207.469 104.455 208.611 105.979 209.753C105.956 209.93 105.945 210.107 105.939 210.284C104.597 212.122 103.101 213.87 101.954 215.828C99.955 219.237 98.1677 222.766 96.2948 226.249C96.1178 226.3 95.9351 226.306 95.7524 226.249C94.9701 225.124 94.1935 223.999 93.4112 222.874H93.4055Z" fill="#D3A383"/>
<path d="M111.683 189.179C109.394 184.988 107.104 180.791 104.808 176.6C102.838 173.003 100.32 170.279 95.7064 170.913C95.5066 170.136 95.3067 169.36 95.1012 168.583C95.0897 168.383 95.0783 168.183 95.0669 167.984L95.1297 168.052C96.0947 167.847 97.054 167.635 98.019 167.43C99.4237 168.018 100.885 168.497 102.205 169.228C103.295 169.834 104.22 170.73 105.214 171.501C106.413 173.779 107.618 176.058 108.817 178.336C109.074 179.421 109.302 180.517 109.588 181.596C110.267 184.132 110.975 186.656 111.678 189.179H111.683Z" fill="#BB946B"/>
<path d="M105.973 209.753C104.449 208.611 102.924 207.469 101.399 206.327C102.536 204.985 103.672 203.643 104.808 202.307C105.979 203.683 107.155 205.053 108.326 206.429C107.543 207.537 106.761 208.651 105.973 209.758V209.753Z" fill="#BB946B"/>
<path d="M78.5136 193.182C78.3423 192.405 78.1767 191.634 78.0054 190.858C78.4679 191.543 78.9361 192.228 79.3986 192.914C79.2502 193.056 79.1017 193.193 78.9532 193.336C78.7934 193.319 78.6449 193.262 78.5079 193.176L78.5136 193.182Z" fill="#FDEFDF"/>
<path d="M79.4039 192.919C79.4553 193.147 79.5067 193.381 79.5523 193.61C79.3525 193.518 79.1583 193.433 78.9585 193.341C79.107 193.199 79.2554 193.062 79.3982 192.919H79.4039Z" fill="#FDEFDF"/>
<path d="M93.4058 222.874C94.1881 223.999 94.9646 225.124 95.7469 226.249C94.5935 227.888 93.44 229.521 92.0982 231.422C92.989 231.611 93.9311 231.868 94.8847 231.999C101.68 232.947 108.48 233.889 115.287 234.774C117.342 235.042 119.421 235.111 121.488 235.277C122.51 235.465 123.526 235.676 124.549 235.83C129.762 236.613 134.981 237.384 140.2 238.16C142.256 240.684 144.266 243.248 146.378 245.726C147.88 247.485 149.525 249.118 151.106 250.808C148.708 250.996 146.298 251.413 143.911 251.316C139.298 251.128 134.678 250.22 130.087 250.391C123.978 250.62 117.908 251.887 111.798 252.167C104.523 252.498 97.2201 252.384 89.9341 252.224C84.1897 252.099 79.3875 249.455 75.1792 245.72C68.8125 240.067 66.9567 234.369 69.1208 226.449C69.7775 224.033 71.382 222.652 74.1571 222.126C76.6752 221.652 78.9878 220.059 81.3861 218.963C84.618 219.922 87.8613 220.864 91.0818 221.858C91.8812 222.103 92.6292 222.526 93.4001 222.869L93.4058 222.874Z" fill="#785F44"/>
<path d="M159.648 250.848C159.54 249.666 159.843 248.181 159.243 247.353C157.593 245.075 155.571 243.065 153.767 241.038C154.835 240.547 155.874 240.073 156.913 239.593C164.251 240.136 171.588 240.621 178.914 241.266C180.816 241.432 182.672 242.1 184.544 242.54C184.956 244.767 185.372 246.994 185.784 249.22C185.801 249.58 185.824 249.946 185.841 250.305C177.612 250.682 169.39 251.065 161.162 251.402C160.665 251.425 160.145 251.042 159.637 250.848H159.648Z" fill="#796045"/>
<path d="M64.8319 157.614C65.6428 160.309 66.4536 163.01 67.2644 165.705C67.0075 165.779 66.7505 165.853 66.4936 165.928C65.6999 163.267 64.9119 160.606 64.1182 157.945C64.358 157.831 64.5978 157.722 64.8376 157.608L64.8319 157.614Z" fill="#92865E"/>
<path d="M63.793 155.444V154.399C63.8786 154.388 63.9643 154.377 64.0556 154.359C64.1184 154.731 64.1813 155.107 64.2441 155.479C64.0956 155.467 63.9414 155.45 63.793 155.439V155.444Z" fill="#92865E"/>
<path d="M66.3624 221.281C66.3624 221.338 66.3738 221.407 66.3453 221.441C66.311 221.481 66.2368 221.493 66.1797 221.515C66.1854 221.407 66.1911 221.298 66.2025 221.19L66.3624 221.281Z" fill="#FDEFDF"/>
<path d="M60.2359 222.926C59.9961 222.783 59.7506 222.646 59.5107 222.503C59.6763 222.343 59.8419 222.183 60.0075 222.023C60.1446 222.263 60.2816 222.497 60.4186 222.737L60.2359 222.926Z" fill="#FDEFDF"/>
<path d="M60.4187 222.737C60.4644 222.909 60.5101 223.074 60.5558 223.246C60.453 223.137 60.3445 223.034 60.2417 222.926L60.4244 222.737H60.4187Z" fill="#FDEFDF"/>
<path d="M77.2862 185.228C77.1605 185.268 77.0349 185.32 76.9093 185.331C76.8807 185.331 76.7894 185.165 76.8122 185.114C76.875 184.988 76.9835 184.886 77.0749 184.771C77.1434 184.926 77.2176 185.074 77.2862 185.228Z" fill="#FDEFDF"/>
<path d="M98.5728 138.531C99.7091 137.891 100.84 137.257 101.976 136.618C104.271 136.395 106.561 136.167 108.857 135.944C110.193 136.167 111.535 136.395 112.871 136.618C116.617 138.194 120.106 140.106 122.532 143.544C123.846 145.405 123.92 146.804 121.373 147.478C120.842 146.89 120.311 146.296 119.683 145.605C118.158 146.941 116.816 148.112 115.486 149.288C114.944 149.768 114.47 150.624 113.882 150.699C112.106 150.933 110.29 150.807 108.497 150.927C105.556 151.121 103.501 152.366 103.535 155.752C103.175 155.564 103.021 155.444 102.844 155.392C101.736 155.061 100.052 154.13 99.612 154.542C98.1445 155.906 99.5949 156.951 100.577 157.99C101.73 159.207 102.758 160.531 103.843 161.816C102.947 161.759 102.045 161.702 101.148 161.645C98.9611 158.721 96.7741 155.798 94.5814 152.874C94.5586 152.6 94.5357 152.326 94.5129 152.052C92.8798 146.65 95.4608 142.516 98.5728 138.542V138.531Z" fill="#4C4840"/>
<path d="M94.5761 152.863C96.763 155.787 98.95 158.71 101.143 161.64C99.1384 163.781 97.1399 165.917 95.1356 168.052L95.0728 167.984C94.9015 165.3 94.6674 162.622 94.5761 159.938C94.4961 157.58 94.5761 155.222 94.5761 152.863Z" fill="#FAEBDA"/>
<path d="M98.5734 138.531C95.4614 142.505 92.8747 146.639 94.5135 152.041C93.7598 152.03 93.0003 152.018 92.2466 152.013C92.1096 146.497 93.657 141.609 97.6483 137.646C97.9567 137.943 98.265 138.24 98.5734 138.537V138.531Z" fill="#BB946B"/>
<path d="M108.851 135.939C106.556 136.161 104.266 136.39 101.971 136.612C101.959 115.519 101.948 94.4262 101.937 73.3332C105.248 73.4017 108.566 73.5216 111.878 73.5387C121.648 73.5901 131.412 73.6415 141.182 73.6073C145.053 73.5958 148.925 73.3503 152.796 73.2076C163.457 73.2076 174.118 73.2076 184.784 73.2133C185.161 73.2133 185.538 73.2133 185.915 73.2133C187.251 73.2133 188.587 73.2133 189.923 73.2133C190.489 73.2133 191.06 73.2133 191.625 73.2133C192.773 73.2133 193.915 73.2133 195.062 73.2133C196.581 73.2076 198.1 73.1961 199.619 73.1904C200.201 73.2247 200.778 73.2589 201.361 73.2932C201.355 116.41 201.275 159.533 201.44 202.649C201.458 207.178 198.431 210.467 193.572 210.415C170.64 210.17 147.703 210.307 124.765 210.307C121.168 204.791 117.576 199.275 113.979 193.753C138.915 193.753 163.851 193.742 188.787 193.742C193.561 193.742 194.497 192.828 194.497 188.157C194.497 159.79 194.497 131.422 194.497 103.06C194.497 98.5889 194.24 98.3262 189.843 98.3319C164.525 98.3434 139.212 98.3605 113.893 98.3662C109.303 98.3662 108.846 98.783 108.846 103.391C108.834 114.24 108.846 125.095 108.846 135.944L108.851 135.939ZM114.19 89.6869C117.811 89.6869 119.626 88.5011 119.638 86.1295C119.649 83.263 118.18 81.8298 115.23 81.8298C113.711 81.8298 112.158 81.6642 110.679 81.9154C109.993 82.0296 109.023 82.8804 108.897 83.5314C107.892 88.8703 108.606 89.6869 113.905 89.6869C114.002 89.6869 114.093 89.6869 114.19 89.6869ZM123.515 82.3837C121.391 82.5892 120.323 83.3087 120.283 85.5471C120.243 87.8197 121.065 88.8817 123.515 88.9103V82.3837Z" fill="#FFDAB9"/>
<path d="M152.797 73.2076C148.925 73.3503 145.054 73.5901 141.182 73.6073C131.412 73.6415 121.648 73.5901 111.878 73.5388C108.566 73.5216 105.249 73.4017 101.937 73.3332C101.925 70.8664 101.857 68.3997 101.914 65.9386C101.988 62.7581 103.399 60.8509 106.465 60.8338C122.099 60.7539 137.739 60.8681 153.373 60.9138C154.076 65.0536 154.892 69.1991 152.791 73.2076H152.797ZM107.801 66.1385C109.994 67.9486 113.568 67.8172 115.27 66.1385H107.801ZM114.785 64.5111C114.785 64.317 114.79 64.1228 114.796 63.923H107.921C107.921 64.1171 107.927 64.3113 107.932 64.5111H114.79H114.785ZM107.932 68.8565C107.932 69.0335 107.938 69.2162 107.944 69.3932H114.819L114.807 68.8565H107.938H107.932Z" fill="#FFB875"/>
<path d="M152.796 73.2072C154.891 69.1988 154.081 65.0532 153.378 60.9134C162.874 60.8563 172.37 60.7935 181.866 60.7478C186.428 60.725 190.991 60.6907 195.547 60.765C199.716 60.8335 201.366 62.5694 201.394 66.7377C201.412 68.9247 201.372 71.1059 201.36 73.2929C200.778 73.2586 200.201 73.2244 199.619 73.1901C199.619 69.9982 199.619 66.8119 199.619 63.62C199.053 64.7392 199.053 65.8527 199.053 66.9661C199.053 70.179 197.723 72.2613 195.062 73.213C193.914 73.213 192.772 73.213 191.624 73.213C191.059 73.213 190.488 73.213 189.923 73.213C188.587 73.213 187.251 73.213 185.914 73.213C185.538 73.213 185.161 73.213 184.784 73.213C174.123 73.213 163.462 73.213 152.796 73.2072ZM194.211 70.5521L195.216 70.0781C192.789 67.8398 194.497 65.8641 195.068 63.6371C194.148 64.3566 193.223 65.0761 192.281 65.807C191.402 65.2017 190.614 64.6593 189.826 64.1168C189.689 64.2538 189.552 64.3852 189.42 64.5222C190.094 65.4358 190.762 66.3494 191.39 67.2059C190.648 68.1995 190.009 69.0617 189.363 69.9297C189.54 70.0667 189.723 70.198 189.9 70.3351C190.757 69.6499 191.607 68.9647 192.567 68.1938C193.155 69.0389 193.68 69.7983 194.205 70.5521H194.211Z" fill="#FFC997"/>
<path d="M150.35 236.204C145.599 235.365 143.109 231.63 140.266 228.347C138.644 220.153 144.668 214.283 152.16 215.071C156.699 215.551 160.851 219.542 161.262 224.184C161.741 229.626 158.698 234.451 153.981 235.633C152.799 235.93 151.56 236.021 150.35 236.204ZM147.695 230.471C150.687 228.712 153.131 227.273 156.117 225.515C153.022 223.722 150.544 222.283 147.695 220.632V230.471Z" fill="#FFA653"/>
<path d="M188.793 226.352C186.549 227.62 184.299 228.893 181.718 230.349C181.455 228.619 181.307 227.625 181.113 226.352C178.589 227.682 176.213 228.939 173.501 230.366V220.819C176.23 222.247 178.657 223.514 181.187 224.833C181.324 223.588 181.444 222.498 181.638 220.693C184.276 222.178 186.531 223.451 188.787 224.725C188.787 225.267 188.787 225.81 188.793 226.352Z" fill="#0C2C7E"/>
<path d="M188.793 226.352C188.793 225.809 188.793 225.267 188.787 224.725C188.987 223.845 189.113 222.937 189.415 222.098C189.581 221.641 190.038 221.287 190.363 220.893C190.757 221.321 191.477 221.727 191.494 222.172C191.608 224.513 191.608 226.866 191.505 229.213C191.482 229.698 190.837 230.155 190.477 230.623C190.106 230.166 189.587 229.761 189.404 229.241C189.09 228.316 188.981 227.323 188.793 226.358V226.352Z" fill="#0C2C7E"/>
<path d="M108.851 135.939C108.851 125.089 108.84 114.234 108.851 103.385C108.851 98.7773 109.308 98.3604 113.899 98.3604C139.218 98.3547 164.53 98.3376 189.849 98.3262C194.24 98.3262 194.503 98.5831 194.503 103.054C194.503 131.422 194.503 159.79 194.503 188.152C194.503 192.828 193.566 193.736 188.793 193.736C163.857 193.736 138.921 193.747 113.985 193.747C113.22 192.223 112.449 190.698 111.684 189.168C110.987 186.638 110.273 184.114 109.594 181.585C109.302 180.506 109.08 179.409 108.823 178.324C108.829 175.801 108.92 173.265 108.794 170.747C108.76 170.033 108.081 169.36 107.698 168.663C107.698 168.452 107.687 168.246 107.687 168.035C108.263 167.841 108.846 167.641 109.422 167.447C110.582 167.835 111.741 168.223 112.906 168.606C112.906 173.808 113.031 179.015 112.837 184.206C112.734 186.924 113.739 187.581 116.309 187.558C128.551 187.443 140.788 187.506 153.03 187.506C164.348 187.506 175.671 187.443 186.988 187.552C189.518 187.575 190.5 186.975 190.488 184.229C190.391 160.069 190.409 135.904 190.471 111.739C190.477 109.438 189.838 108.576 187.411 108.587C163.537 108.661 139.663 108.656 115.789 108.593C113.499 108.587 112.837 109.398 112.86 111.591C112.946 119.922 112.883 128.258 112.877 136.589C111.541 136.367 110.199 136.138 108.863 135.916L108.851 135.939ZM181.261 104.784C182.1 103.688 182.985 103.02 182.888 102.54C182.751 101.855 181.9 101.313 181.358 100.707C180.804 101.21 179.828 101.701 179.811 102.226C179.782 102.894 180.536 103.591 181.261 104.784ZM178.309 102.489C177.395 101.695 176.79 100.776 176.265 100.821C175.676 100.873 174.803 101.752 174.723 102.357C174.66 102.854 175.545 103.871 176.082 103.928C176.653 103.985 177.31 103.18 178.309 102.495V102.489ZM186.411 104.853C187.285 103.677 188.09 103.071 188.073 102.5C188.05 101.895 187.234 101.324 186.765 100.736C186.292 101.318 185.589 101.838 185.412 102.5C185.287 102.974 185.858 103.637 186.417 104.859L186.411 104.853Z" fill="#FFB875"/>
<path d="M96.2835 226.249C98.1565 222.766 99.9437 219.237 101.942 215.829C103.09 213.876 104.592 212.128 105.928 210.29C107.864 210.29 109.794 210.284 111.729 210.278C115.401 214.207 119.078 218.13 122.858 222.178C121.282 223.137 119.689 224.114 118.085 225.09C117.908 223.84 117.725 222.589 117.474 220.836C114.676 222.315 112.306 223.571 109.936 224.822C109.919 224.354 110.005 223.845 109.862 223.423C109.594 222.646 109.188 221.921 108.84 221.173C108.452 221.967 107.778 222.738 107.727 223.549C107.578 225.981 107.675 228.431 107.675 230.869C107.612 230.949 107.544 231.029 107.481 231.109C103.747 229.493 100.012 227.871 96.2778 226.255L96.2835 226.249Z" fill="#FDF1E1"/>
<path d="M140.194 238.16C134.975 237.384 129.761 236.613 124.542 235.831C123.52 235.677 122.504 235.465 121.482 235.277C116.817 233.884 112.151 232.496 107.486 231.103C107.549 231.023 107.618 230.943 107.68 230.863C108.417 230.143 109.256 229.498 109.856 228.682C110.256 228.139 110.307 227.34 110.518 226.66C112.774 227.797 115.035 228.927 117.924 230.383V226.278C120.397 227.528 122.869 228.779 125.821 230.275C125.913 228.299 125.976 226.952 126.067 225.004C131.023 229.618 135.608 233.895 140.199 238.166L140.194 238.16Z" fill="#FDF1E1"/>
<path d="M117.919 226.272C117.919 227.362 117.919 228.447 117.919 230.377C115.03 228.927 112.775 227.791 110.513 226.654C110.325 226.038 110.137 225.427 109.942 224.81C112.312 223.554 114.682 222.303 117.48 220.824C117.731 222.577 117.908 223.828 118.091 225.078C118.034 225.472 117.976 225.872 117.919 226.266V226.272Z" fill="#0C2C7E"/>
<path d="M111.735 210.272C109.799 210.272 107.869 210.278 105.934 210.283C105.939 210.106 105.956 209.929 105.974 209.752C106.756 208.645 107.538 207.531 108.326 206.423C109.462 207.708 110.599 208.993 111.735 210.272Z" fill="#FDE7CE"/>
<path d="M107.486 231.103C112.151 232.496 116.816 233.883 121.482 235.277C119.415 235.117 117.336 235.043 115.28 234.774C108.474 233.889 101.679 232.941 94.8783 231.999C93.9247 231.868 92.9883 231.611 92.0918 231.422C93.428 229.521 94.5814 227.888 95.7405 226.249C95.9233 226.3 96.1003 226.3 96.283 226.249C100.017 227.865 103.752 229.487 107.486 231.103Z" fill="#614E38"/>
<path d="M107.687 168.046C107.687 168.258 107.698 168.463 107.698 168.669C106.87 169.611 106.048 170.553 105.22 171.495C104.221 170.724 103.296 169.822 102.211 169.223C100.886 168.492 99.4242 168.012 98.0195 167.424C101.48 163.044 102.256 162.987 106.168 166.784C106.636 167.241 107.179 167.629 107.687 168.046Z" fill="#EBB797"/>
<path d="M107.687 168.047C107.179 167.63 106.642 167.242 106.168 166.785C102.257 162.993 101.486 163.045 98.0198 167.424C97.0605 167.63 96.0955 167.841 95.1362 168.047C97.1405 165.911 99.139 163.77 101.143 161.634C102.045 161.691 102.942 161.748 103.844 161.806C105.706 163.69 107.567 165.574 109.429 167.459C108.852 167.653 108.269 167.853 107.693 168.047H107.687Z" fill="#D3A383"/>
<path d="M105.22 171.5C106.048 170.558 106.87 169.616 107.698 168.674C108.08 169.37 108.76 170.044 108.794 170.758C108.92 173.276 108.828 175.806 108.823 178.335C107.624 176.057 106.419 173.779 105.22 171.5Z" fill="#FDE7CE"/>
<path d="M112.871 136.612C112.877 128.275 112.94 119.944 112.854 111.613C112.831 109.421 113.494 108.61 115.783 108.616C139.657 108.678 163.531 108.684 187.405 108.61C189.838 108.604 190.471 109.461 190.466 111.762C190.403 135.927 190.386 160.086 190.483 184.251C190.494 186.998 189.512 187.598 186.982 187.575C175.665 187.46 164.348 187.529 153.025 187.529C140.782 187.529 128.54 187.466 116.303 187.58C113.734 187.603 112.729 186.947 112.831 184.229C113.025 179.032 112.894 173.83 112.9 168.629C113.185 168.383 113.459 168.126 113.756 167.898C116.132 166.122 116 161.662 120.243 161.794C120.374 161.794 120.814 160.566 120.654 160.052C119.558 156.512 119.449 153.097 121.242 149.711C121.562 149.112 121.339 148.226 121.368 147.473C123.92 146.799 123.84 145.4 122.527 143.538C120.1 140.101 116.611 138.188 112.866 136.612H112.871ZM183.665 167.487C181.324 168.52 179.714 169.428 177.989 169.948C175.876 170.581 173.649 171.347 171.508 171.244C168.031 171.078 164.57 170.307 161.127 169.679C159.865 169.451 158.095 169.274 157.53 168.423C153.944 163.027 148.862 158.562 147.377 151.824C146.835 149.368 145.425 147.119 144.637 144.703C144.311 143.715 144.585 142.528 144.585 140.478C147.143 143.242 148.2 141.683 149.758 140.518C151.614 139.13 151.386 137.223 152.008 135.499C153.27 131.993 149.616 127.499 145.796 127.659C143.814 127.744 141.764 127.465 139.823 127.008C136.42 126.208 132.822 127.933 133.045 130.657C133.308 133.888 133.93 137.092 134.461 140.763C135.312 139.661 136.271 138.896 136.568 137.925C137.031 136.407 136.876 134.711 137.305 133.175C137.539 132.335 138.413 131.673 138.995 130.936C139.457 133.363 139.463 135.316 140.234 136.903C141.091 138.679 140.525 139.656 139.195 140.426C135.483 142.568 133.508 145.737 132.72 149.928C132.109 153.166 131.138 156.352 130.099 159.487C128.945 162.976 127.192 166.293 126.301 169.833C124.743 176.006 127.432 180.152 133.77 181.134C136.762 181.596 140.051 181.379 142.992 180.631C149.639 178.941 155.942 175.795 163.046 176.115C166.991 176.292 170.931 176.526 174.877 176.674C175.539 176.697 176.487 176.617 176.836 176.194C179 173.596 181.033 170.884 183.682 167.481L183.665 167.487Z" fill="#FEF0DD"/>
<path d="M121.368 147.473C121.34 148.227 121.557 149.112 121.243 149.711C119.45 153.097 119.558 156.512 120.655 160.052C120.814 160.566 120.375 161.794 120.243 161.794C116.001 161.657 116.138 166.122 113.757 167.898C113.454 168.12 113.18 168.383 112.9 168.629C111.741 168.24 110.582 167.852 109.417 167.47C107.556 165.585 105.694 163.701 103.833 161.817C102.748 160.537 101.72 159.207 100.572 157.997C99.5843 156.957 98.134 155.912 99.6072 154.548C100.047 154.142 101.731 155.073 102.839 155.398C103.01 155.45 103.17 155.564 103.53 155.758C103.501 152.372 105.551 151.133 108.492 150.933C110.285 150.813 112.101 150.933 113.877 150.705C114.465 150.631 114.939 149.774 115.481 149.294C116.812 148.118 118.154 146.947 119.678 145.611C120.306 146.308 120.837 146.896 121.368 147.484V147.473Z" fill="#EBB797"/>
<path d="M114.19 89.6924C114.093 89.6924 114.002 89.6924 113.905 89.6924C108.606 89.6924 107.892 88.8758 108.897 83.5369C109.022 82.8859 109.987 82.0351 110.678 81.9209C112.157 81.6697 113.705 81.8353 115.229 81.8353C118.179 81.8353 119.649 83.2685 119.637 86.135C119.63 88.5066 117.814 89.6924 114.19 89.6924Z" fill="#0C2C7E"/>
<path d="M123.515 82.3892V88.9158C121.071 88.8872 120.248 87.8252 120.283 85.5525C120.323 83.3142 121.391 82.5947 123.515 82.3892Z" fill="#0C2C7E"/>
<path d="M195.062 73.2131C197.723 72.2614 199.053 70.1791 199.053 66.9662C199.053 65.8528 199.053 64.7393 199.619 63.6201C199.619 66.8121 199.619 69.9983 199.619 73.1902C198.1 73.1959 196.581 73.2016 195.062 73.2131Z" fill="#FFC997"/>
<path d="M107.806 66.1387H115.275C113.568 67.8174 109.999 67.9488 107.806 66.1387Z" fill="#0C2C7E"/>
<path d="M114.79 64.5164H107.932C107.932 64.3222 107.926 64.1281 107.92 63.9282H114.795C114.795 64.1224 114.79 64.3165 114.784 64.5164H114.79Z" fill="#0C2C7E"/>
<path d="M107.938 68.8613H114.807L114.818 69.3981H107.944C107.944 69.2211 107.938 69.0383 107.932 68.8613H107.938Z" fill="#0C2C7E"/>
<path d="M194.212 70.558C193.686 69.8042 193.161 69.0448 192.573 68.1997C191.614 68.9706 190.757 69.6558 189.906 70.341C189.729 70.204 189.547 70.0726 189.37 69.9356C190.015 69.0734 190.654 68.2054 191.397 67.2119C190.769 66.3554 190.095 65.4417 189.427 64.5281C189.564 64.3911 189.701 64.2598 189.832 64.1227C190.62 64.6652 191.408 65.2076 192.287 65.8129C193.23 65.0763 194.149 64.3625 195.074 63.6431C194.497 65.87 192.796 67.8457 195.222 70.084L194.217 70.558H194.212Z" fill="#0C2C7E"/>
<path d="M147 231V220C150.383 221.845 153.325 223.454 157 225.459C153.454 227.425 150.553 229.034 147 231Z" fill="#0C2C7E"/>
<path d="M181.267 104.784C180.541 103.585 179.788 102.888 179.816 102.226C179.839 101.701 180.815 101.21 181.364 100.707C181.906 101.312 182.757 101.855 182.894 102.54C182.991 103.02 182.1 103.688 181.267 104.784Z" fill="#0C2C7E"/>
<path d="M178.314 102.489C177.321 103.174 176.658 103.985 176.087 103.922C175.551 103.865 174.665 102.848 174.728 102.352C174.802 101.746 175.676 100.867 176.27 100.816C176.795 100.77 177.401 101.695 178.314 102.483V102.489Z" fill="#0C2C7E"/>
<path d="M186.412 104.853C185.858 103.631 185.281 102.969 185.407 102.495C185.584 101.833 186.286 101.313 186.76 100.73C187.228 101.319 188.045 101.89 188.067 102.495C188.09 103.066 187.285 103.677 186.406 104.847L186.412 104.853Z" fill="#0C2C7E"/>
<path d="M109.948 224.816C110.136 225.432 110.325 226.049 110.519 226.66C110.313 227.34 110.256 228.139 109.857 228.681C109.257 229.504 108.418 230.143 107.681 230.863C107.681 228.419 107.584 225.975 107.732 223.542C107.784 222.732 108.458 221.955 108.846 221.167C109.194 221.915 109.6 222.64 109.868 223.417C110.017 223.839 109.925 224.348 109.942 224.816H109.948Z" fill="#0C2C7E"/>
<path d="M183.664 167.487C181.021 170.89 178.988 173.602 176.818 176.2C176.47 176.623 175.522 176.703 174.86 176.68C170.914 176.537 166.974 176.298 163.028 176.121C155.925 175.801 149.627 178.947 142.974 180.637C140.034 181.385 136.745 181.602 133.753 181.14C127.414 180.158 124.725 176.012 126.284 169.839C127.18 166.299 128.928 162.982 130.081 159.493C131.12 156.358 132.091 153.172 132.702 149.934C133.49 145.743 135.466 142.574 139.177 140.433C140.513 139.662 141.079 138.685 140.216 136.909C139.451 135.322 139.44 133.369 138.977 130.942C138.395 131.679 137.521 132.341 137.287 133.181C136.865 134.717 137.013 136.413 136.551 137.932C136.259 138.902 135.294 139.667 134.444 140.769C133.913 137.098 133.29 133.894 133.027 130.663C132.805 127.939 136.402 126.214 139.805 127.014C141.747 127.471 143.797 127.75 145.778 127.665C149.598 127.505 153.253 131.999 151.991 135.505C151.374 137.229 151.597 139.136 149.741 140.524C148.182 141.689 147.131 143.253 144.568 140.484C144.568 142.534 144.299 143.722 144.619 144.709C145.407 147.125 146.823 149.375 147.36 151.83C148.844 158.568 153.921 163.039 157.512 168.429C158.078 169.28 159.848 169.457 161.11 169.685C164.559 170.313 168.013 171.084 171.491 171.25C173.632 171.353 175.859 170.587 177.972 169.954C179.696 169.434 181.306 168.532 183.647 167.493L183.664 167.487ZM138.869 169.189H154.041C152.916 167.909 151.677 166.528 150.466 165.123C149.17 163.621 147.885 162.108 146.635 160.572C144.756 158.271 143.997 158.071 142.432 160.606C140.987 162.942 140.268 165.728 138.875 169.189H138.869Z" fill="#FFC997"/>
<path d="M138.869 169.188C140.263 165.728 140.982 162.941 142.427 160.606C143.991 158.07 144.751 158.27 146.629 160.571C147.886 162.107 149.17 163.621 150.461 165.122C151.671 166.527 152.911 167.909 154.035 169.188H138.864H138.869Z" fill="#FAEBDA"/>
<path d="M116.5 226L126 230.5V225L122.5 222L116.5 226Z" fill="#0C2C7E"/>
</svg>
